<?xml version="1.0" standalone="no"?><!DOCTYPE svg PUBLIC "-//W3C//DTD SVG 1.1//EN" "http://www.w3.org/Graphics/SVG/1.1/DTD/svg11.dtd" ><svg xmlns="http://www.w3.org/2000/svg"><metadata></metadata><defs>
<font id="SFProDisplay-MediumItalic" >
<font-face font-family="SF Pro Display" font-stretch="normal" units-per-em="2048" weight="500" panose-1="0,0,6,0,0,0,0,0,0,0" ascent="1950" descent="-494" x-height="1055" underline-thickness="154" underline-position="-296" unicode-range="U+00000032-00064258" bbox="-608,-511,2822,2150" />
<missing-glyph horiz-adv-x="2048" d="M-70 -494L1777 -494L1831 -247L-16 -247ZM23 -55L1870 -55L1924 192L77 192ZM116 385L1963 385L2017 632L170 632ZM208 825L2056 825L2110 1071L263 1071ZM301 1264L2149 1264L2203 1511L356 1511ZM395 1703L2242 1703L2297 1950L449 1950Z" />
<glyph glyph-name="space" unicode="&#x20;" horiz-adv-x="478" d="" />
<glyph glyph-name="exclam" unicode="&#x21;" horiz-adv-x="587" d="M414 1443L229 478L428 478L654 1443ZM252 -17C325 -17 384 42 384 117C384 193 325 252 252 252C178 252 120 193 120 117C120 42 178 -17 252 -17Z" />
<glyph glyph-name="quotedbl" unicode="&#x22;" horiz-adv-x="857" d="M468 908L580 1443L387 1443L275 908ZM840 908L952 1443L760 1443L648 908Z" />
<glyph glyph-name="numbersign" unicode="&#x23;" horiz-adv-x="1257" d="M624 0L795 0L925 392L1180 392L1233 570L979 570L1089 889L1335 889L1389 1066L1145 1066L1270 1443L1099 1443L972 1066L671 1066L794 1443L624 1443L498 1066L256 1066L202 889L443 889L335 570L102 570L49 392L279 392L150 0L321 0L451 392L754 392ZM497 560L610 899L925 899L812 560Z" />
<glyph glyph-name="dollar" unicode="&#x24;" horiz-adv-x="1270" d="M768 603C895 548 958 491 958 393C958 267 853 174 676 170ZM689 869C575 916 513 973 513 1064C513 1180 619 1269 774 1272ZM814 820L906 1253C1000 1222 1060 1152 1075 1052L1290 1052C1287 1240 1152 1398 948 1449L979 1595L843 1595L816 1467C811 1467 806 1467 801 1467C488 1467 284 1290 284 1046C284 876 395 746 589 672L642 652L543 185C428 216 351 292 335 402L117 402C127 196 285 41 502 -8L474 -140L610 -140L635 -24C640 -24 645 -24 650 -24C962 -24 1186 149 1186 421C1186 605 1063 723 842 809Z" />
<glyph glyph-name="percent" unicode="&#x25;" horiz-adv-x="1673" d="M211 1014C211 839 314 731 483 731C689 731 845 919 845 1181C845 1355 741 1463 571 1463C364 1463 211 1276 211 1014ZM486 881C433 881 402 925 402 1000C402 1165 481 1313 568 1313C621 1313 653 1269 653 1194C653 1030 572 881 486 881ZM350 0L1009 699L1709 1443L1499 1443L858 764L138 0ZM1004 265C1004 89 1108 -18 1277 -18C1482 -18 1639 169 1639 431C1639 606 1534 713 1364 713C1158 713 1004 527 1004 265ZM1279 131C1227 131 1196 175 1196 250C1196 416 1275 563 1362 563C1415 563 1446 520 1446 445C1446 281 1366 131 1279 131Z" />
<glyph glyph-name="ampersand" unicode="&#x26;" horiz-adv-x="1399" d="M585 1104C585 1214 677 1303 790 1303C890 1303 962 1246 962 1156C962 1056 882 952 684 890C614 983 585 1045 585 1104ZM576 153C393 153 279 254 279 390C279 505 367 603 534 663C536 664 585 681 588 682L888 239C794 176 674 153 576 153ZM1041 0L1287 0L1142 219C1262 346 1342 509 1359 711L1364 762L1168 762L1165 717C1154 578 1108 468 1036 382L772 759C1043 854 1161 1008 1161 1176C1161 1346 1005 1472 794 1472C560 1472 384 1314 384 1117C384 1032 419 944 500 827L434 800C187 704 66 559 66 372C66 145 284 -27 562 -27C720 -27 869 14 983 87Z" />
<glyph glyph-name="quotesingle" unicode="&#x27;" horiz-adv-x="484" d="M468 908L580 1443L387 1443L275 908Z" />
<glyph glyph-name="parenleft" unicode="&#x28;" horiz-adv-x="687" d="M503 -309C449 -153 413 61 413 325C412 764 584 1156 875 1443L641 1443C374 1180 194 782 194 353C194 115 241 -163 309 -309Z" />
<glyph glyph-name="parenright" unicode="&#x29;" horiz-adv-x="687" d="M295 1443C349 1287 385 1073 385 809C386 370 214 -22 -77 -309L157 -309C424 -46 603 352 603 781C603 1019 557 1296 488 1443Z" />
<glyph glyph-name="asterisk" unicode="&#x2a;" horiz-adv-x="986" d="M924 833L1012 955L775 1108L1061 1208L1008 1353L745 1223L810 1502L661 1518L625 1224L408 1410L320 1287L549 1137L271 1039L323 896L591 1026L526 744L674 728L708 1016Z" />
<glyph glyph-name="plus" unicode="&#x2b;" horiz-adv-x="1270" d="M763 470L1191 470L1232 677L805 677L897 1110L706 1110L614 677L191 677L150 470L572 470L484 53L675 53Z" />
<glyph glyph-name="comma" unicode="&#x2c;" horiz-adv-x="539" d="M152 -301L400 234L182 234L-20 -301Z" />
<glyph glyph-name="hyphen" unicode="&#x2d;" horiz-adv-x="830" d="M125 471L775 471L816 670L166 670Z" />
<glyph glyph-name="period" unicode="&#x2e;" horiz-adv-x="539" d="M230 -11C303 -11 361 49 361 126C361 202 303 262 230 262C157 262 99 202 99 126C99 49 157 -11 230 -11Z" />
<glyph glyph-name="slash" unicode="&#x2f;" horiz-adv-x="687" d="M64 -309L929 1443L734 1443L-131 -309Z" />
<glyph glyph-name="zero" unicode="&#x30;" horiz-adv-x="1315" d="M660 -24C1049 -24 1322 369 1322 930C1322 1257 1130 1467 832 1467C445 1467 170 1070 170 511C170 185 361 -24 660 -24ZM399 516C399 934 587 1269 824 1269C988 1269 1091 1138 1091 927C1091 505 906 173 669 173C503 173 399 303 399 516Z" />
<glyph glyph-name="one" unicode="&#x31;" horiz-adv-x="941" d="M412 0L636 0L943 1443L720 1443L282 1175L232 929L663 1193L668 1193Z" />
<glyph glyph-name="two" unicode="&#x32;" horiz-adv-x="1214" d="M262 1029L477 1029C505 1180 616 1271 768 1271C908 1271 1006 1187 1006 1066C1006 954 943 874 693 666L97 179L62 0L1060 0L1100 200L418 200L419 205L829 536C1149 801 1230 910 1230 1090C1230 1308 1040 1467 781 1467C499 1467 288 1289 262 1029Z" />
<glyph glyph-name="three" unicode="&#x33;" horiz-adv-x="1246" d="M500 647L675 647C845 647 942 565 942 422C942 274 817 172 634 172C445 172 324 270 321 422L321 422L109 422C108 414 107 408 107 402C101 148 308 -24 622 -24C937 -24 1168 165 1168 425C1168 582 1079 695 924 732L925 737C1116 763 1255 913 1255 1094C1255 1312 1066 1466 800 1466C523 1466 320 1311 286 1070L497 1070C519 1191 634 1273 781 1273C932 1273 1033 1190 1033 1066C1033 927 907 835 717 835L537 835Z" />
<glyph glyph-name="four" unicode="&#x34;" horiz-adv-x="1267" d="M734 0L950 0L1011 279L1210 279L1250 479L1051 479L1257 1443L918 1443C581 1062 289 732 112 497L77 279L794 279ZM331 479C546 748 814 1049 1001 1255L1005 1255L836 474L330 474Z" />
<glyph glyph-name="five" unicode="&#x35;" horiz-adv-x="1224" d="M655 -24C972 -24 1200 203 1200 508C1200 772 1015 953 762 953C643 953 535 910 469 839L464 839L594 1244L1253 1244L1294 1443L450 1443L206 650L428 650C491 726 595 772 694 772C861 772 980 661 980 495C980 309 849 176 664 176C493 176 368 276 355 423L355 423L142 423C141 408 141 418 141 412C144 157 357 -24 655 -24Z" />
<glyph glyph-name="six" unicode="&#x36;" horiz-adv-x="1269" d="M1241 510C1248 767 1066 948 806 948C649 948 518 879 428 762L422 762C480 1067 651 1268 855 1268C996 1268 1097 1186 1118 1054L1342 1054C1326 1299 1134 1467 872 1467C475 1467 199 1076 186 598C170 107 458 -24 685 -24C1003 -24 1231 199 1241 510ZM740 763C904 763 1023 646 1016 480C1012 301 881 173 697 173C528 173 404 298 409 460C414 629 561 763 740 763Z" />
<glyph glyph-name="seven" unicode="&#x37;" horiz-adv-x="1106" d="M80 0L329 0L1222 1240L1264 1443L306 1443L265 1244L984 1244L983 1237Z" />
<glyph glyph-name="eight" unicode="&#x38;" horiz-adv-x="1276" d="M1206 417C1206 565 1116 686 968 737L969 742C1164 783 1296 931 1296 1109C1296 1316 1098 1466 826 1466C535 1466 312 1289 312 1059C312 938 383 835 502 785L501 781C271 743 105 570 105 366C105 137 325 -26 635 -26C963 -26 1206 162 1206 417ZM678 658C855 658 979 565 979 432C979 279 836 164 647 164C465 164 340 257 340 391C340 543 484 658 678 658ZM530 1039C530 1176 653 1280 814 1280C965 1280 1069 1198 1069 1081C1069 945 943 840 781 840C634 840 530 923 530 1039Z" />
<glyph glyph-name="nine" unicode="&#x39;" horiz-adv-x="1268" d="M748 679C583 679 468 793 473 956C478 1138 610 1268 789 1268C964 1268 1080 1141 1075 976C1070 808 926 679 748 679ZM250 937C244 683 432 494 688 494C840 494 968 557 1060 680L1065 679C1009 376 837 176 630 176C488 176 386 256 366 384L142 384C158 144 352 -24 617 -24C1014 -24 1284 373 1299 875C1312 1340 1016 1467 805 1467C490 1467 260 1248 250 937Z" />
<glyph glyph-name="colon" unicode="&#x3a;" horiz-adv-x="539" d="M230 -11C303 -11 361 49 361 126C361 202 303 262 230 262C157 262 99 202 99 126C99 49 157 -11 230 -11ZM386 719C459 719 517 780 517 856C517 932 459 992 386 992C313 992 255 932 255 856C255 780 313 719 386 719Z" />
<glyph glyph-name="semicolon" unicode="&#x3b;" horiz-adv-x="539" d="M386 719C459 719 517 780 517 856C517 932 459 992 386 992C313 992 255 932 255 856C255 780 313 719 386 719ZM152 -301L400 234L182 234L-20 -301Z" />
<glyph glyph-name="less" unicode="&#x3c;" horiz-adv-x="1270" d="M1069 222L474 571L476 583L1225 940L1275 1181L258 680L222 497L1024 -7Z" />
<glyph glyph-name="equal" unicode="&#x3d;" horiz-adv-x="1270" d="M1126 262L1167 462L169 462L128 262ZM1214 685L1254 886L257 886L216 685Z" />
<glyph glyph-name="greater" unicode="&#x3e;" horiz-adv-x="1270" d="M321 951L916 601L913 590L164 233L115 -8L1131 493L1167 675L365 1180Z" />
<glyph glyph-name="question" unicode="&#x3f;" horiz-adv-x="1000" d="M200 1073L410 1073C445 1192 540 1263 664 1263C804 1263 880 1183 880 1092C880 985 817 907 662 836C508 767 435 696 400 522L384 448L596 448L607 500C626 601 677 651 822 716C994 793 1110 941 1110 1113C1110 1305 938 1456 677 1456C410 1456 240 1300 200 1073ZM422 -17C495 -17 554 42 554 117C554 193 495 252 422 252C348 252 290 193 290 117C290 42 348 -17 422 -17Z" />
<glyph glyph-name="at" unicode="&#x40;" horiz-adv-x="1804" d="M1049 1440C517 1440 133 1061 133 537C133 81 467 -240 942 -240C1011 -240 1091 -232 1148 -219L1177 -74C1145 -86 1050 -97 968 -97C564 -98 289 160 289 539C289 969 613 1298 1035 1298C1411 1298 1661 1088 1661 771C1661 522 1539 322 1385 322C1330 322 1296 353 1296 404C1296 415 1297 429 1301 446L1417 980L1242 980L1217 855L1200 856C1179 949 1076 1018 959 1018C728 1018 553 808 553 530C553 322 678 180 861 180C969 180 1063 231 1114 320L1131 321C1131 319 1131 316 1131 313C1140 229 1230 171 1347 171C1621 171 1814 424 1814 778C1814 1169 1499 1440 1049 1440ZM1160 654C1160 480 1048 339 910 339C805 339 739 417 739 542C739 720 843 854 981 854C1089 854 1160 775 1160 654Z" />
<glyph glyph-name="A" unicode="&#x41;" horiz-adv-x="1328" d="M859 1192L864 1192L949 571L513 571ZM1021 0L1240 0L1030 1443L785 1443L-43 0L200 0L417 383L971 383Z" />
<glyph glyph-name="B" unicode="&#x42;" horiz-adv-x="1316" d="M703 0C1028 0 1249 191 1249 458C1249 603 1156 721 998 748L999 753C1183 800 1317 943 1317 1128C1317 1316 1157 1443 915 1443L376 1443L69 0ZM563 1259L832 1259C998 1259 1088 1198 1088 1081C1088 937 950 837 748 837L472 837ZM333 191L434 656L742 656C924 656 1017 586 1017 454C1017 302 880 191 679 191Z" />
<glyph glyph-name="C" unicode="&#x43;" horiz-adv-x="1427" d="M1267 950L1490 950C1491 960 1491 969 1490 986C1475 1277 1246 1466 927 1466C482 1466 168 1100 168 598C168 219 402 -23 770 -23C1075 -23 1322 164 1396 452L1173 452C1109 285 960 185 777 185C543 185 399 346 399 609C399 986 610 1259 917 1259C1106 1259 1249 1151 1266 978C1266 965 1267 956 1267 950Z" />
<glyph glyph-name="D" unicode="&#x44;" horiz-adv-x="1427" d="M376 1443L70 0L659 0C1119 0 1433 355 1433 864C1433 1228 1203 1443 828 1443ZM563 1241L785 1241C1058 1241 1202 1099 1202 834C1202 461 966 202 637 202L338 202Z" />
<glyph glyph-name="E" unicode="&#x45;" horiz-adv-x="1147" d="M1027 204L338 204L433 637L1085 637L1125 831L472 831L562 1239L1252 1239L1294 1443L376 1443L69 0L987 0Z" />
<glyph glyph-name="F" unicode="&#x46;" horiz-adv-x="1099" d="M299 0L428 598L1042 598L1082 796L468 796L565 1239L1236 1239L1278 1443L376 1443L69 0Z" />
<glyph glyph-name="G" unicode="&#x47;" horiz-adv-x="1469" d="M1477 749L884 749L845 561L1215 561L1206 519C1163 317 995 182 781 182C533 182 397 355 397 611C397 920 554 1260 922 1260C1128 1260 1259 1142 1272 961L1494 961C1494 967 1494 974 1494 979C1488 1256 1268 1466 924 1466C415 1466 168 1020 168 602C168 231 394 -23 772 -23C1110 -23 1360 181 1434 544Z" />
<glyph glyph-name="H" unicode="&#x48;" horiz-adv-x="1460" d="M1261 0L1568 1443L1339 1443L1209 837L475 837L605 1443L376 1443L69 0L298 0L434 634L1168 634L1032 0Z" />
<glyph glyph-name="I" unicode="&#x49;" horiz-adv-x="496" d="M296 0L603 1443L376 1443L69 0Z" />
<glyph glyph-name="J" unicode="&#x4a;" horiz-adv-x="1068" d="M60 355C60 135 232 -24 474 -24C732 -24 896 126 951 391L1175 1443L948 1443L733 433C698 271 619 191 489 191C363 191 283 264 283 383L283 389L61 389C60 380 60 366 60 355Z" />
<glyph glyph-name="K" unicode="&#x4b;" horiz-adv-x="1295" d="M296 0L396 464L600 646L960 0L1216 0L780 789L1482 1443L1200 1443L463 769L458 769L603 1443L376 1443L69 0Z" />
<glyph glyph-name="L" unicode="&#x4c;" horiz-adv-x="1092" d="M1012 206L338 206L603 1443L376 1443L69 0L971 0Z" />
<glyph glyph-name="M" unicode="&#x4d;" horiz-adv-x="1732" d="M276 0L505 1072L511 1072L716 8L885 8L1549 1072L1556 1072L1325 0L1532 0L1839 1443L1560 1443L854 302L849 302L628 1443L376 1443L69 0Z" />
<glyph glyph-name="N" unicode="&#x4e;" horiz-adv-x="1448" d="M293 0L527 1082L532 1082L1039 0L1248 0L1555 1443L1331 1443L1097 361L1092 361L584 1443L376 1443L69 0Z" />
<glyph glyph-name="O" unicode="&#x4f;" horiz-adv-x="1530" d="M926 1260C1159 1260 1310 1093 1310 831C1310 473 1091 183 781 183C547 183 397 351 397 613C397 970 615 1260 926 1260ZM778 -23C1215 -23 1539 355 1539 841C1539 1214 1300 1466 927 1466C490 1466 168 1088 168 602C168 229 407 -23 778 -23Z" />
<glyph glyph-name="P" unicode="&#x50;" horiz-adv-x="1248" d="M376 1443L69 0L297 0L402 486L725 486C1071 486 1325 694 1325 1039C1325 1285 1140 1443 890 1443ZM563 1245L825 1245C991 1245 1095 1163 1095 1018C1095 807 946 683 716 683L441 683Z" />
<glyph glyph-name="Q" unicode="&#x51;" horiz-adv-x="1530" d="M1289 -153L1166 96C1395 248 1539 523 1539 841C1539 1214 1300 1466 927 1466C490 1466 168 1088 168 602C168 229 407 -23 778 -23C853 -23 926 -12 992 9L1075 -153ZM781 183C547 183 397 351 397 613C397 970 615 1260 926 1260C1159 1260 1310 1093 1310 831C1310 608 1218 412 1070 302L992 442L785 442L907 199C865 189 824 183 781 183Z" />
<glyph glyph-name="R" unicode="&#x52;" horiz-adv-x="1292" d="M453 741L563 1246L875 1246C1020 1246 1109 1163 1109 1028C1109 860 971 741 772 741ZM376 1443L69 0L297 0L415 550L740 550L920 0L1156 0L961 579C1201 637 1341 831 1341 1050C1341 1284 1185 1443 907 1443Z" />
<glyph glyph-name="S" unicode="&#x53;" horiz-adv-x="1255" d="M93 424C102 143 348 -23 664 -23C1013 -23 1205 189 1205 434C1205 623 1085 740 841 815L734 849C570 899 499 961 499 1059C499 1167 597 1267 787 1267C974 1267 1087 1174 1094 1039L1311 1039C1311 1305 1094 1466 787 1466C483 1466 269 1293 269 1035C269 840 388 721 627 647L733 613C904 560 972 503 972 391C972 254 841 176 667 176C466 176 332 278 314 424Z" />
<glyph glyph-name="T" unicode="&#x54;" horiz-adv-x="1228" d="M663 0L928 1239L1380 1239L1421 1443L290 1443L249 1239L701 1239L435 0Z" />
<glyph glyph-name="U" unicode="&#x55;" horiz-adv-x="1443" d="M701 -23C1056 -23 1276 158 1342 463L1550 1443L1323 1443L1124 513C1079 308 928 188 730 188C521 188 413 291 407 453C406 490 410 530 420 573L603 1443L376 1443L191 562C182 519 177 475 178 434C179 175 364 -23 701 -23Z" />
<glyph glyph-name="V" unicode="&#x56;" horiz-adv-x="1321" d="M719 0L1539 1443L1287 1443L650 283L645 283L493 1443L265 1443L474 0Z" />
<glyph glyph-name="W" unicode="&#x57;" horiz-adv-x="1917" d="M1118 1069L1123 1069L1213 0L1430 0L2117 1443L1883 1443L1378 342L1373 342L1289 1443L1090 1443L548 340L543 340L500 1443L283 1443L366 0L584 0Z" />
<glyph glyph-name="X" unicode="&#x58;" horiz-adv-x="1335" d="M-28 0L248 0L718 543L726 543L972 0L1222 0L895 711L1539 1443L1261 1443L792 902L784 902L539 1443L289 1443L616 732Z" />
<glyph glyph-name="Y" unicode="&#x59;" horiz-adv-x="1288" d="M694 0L814 569L1506 1443L1253 1443L746 803L742 803L500 1443L265 1443L591 588L466 0Z" />
<glyph glyph-name="Z" unicode="&#x5a;" horiz-adv-x="1266" d="M28 0L1108 0L1148 204L363 204L364 209L1363 1282L1395 1443L359 1443L317 1239L1062 1239L1061 1234L60 161Z" />
<glyph glyph-name="bracketleft" unicode="&#x5b;" horiz-adv-x="687" d="M432 1443L58 -309L536 -309L571 -136L302 -136L606 1269L875 1269L910 1443Z" />
<glyph glyph-name="backslash" unicode="&#x5c;" horiz-adv-x="687" d="M331 -309L519 -309L467 1443L279 1443Z" />
<glyph glyph-name="bracketright" unicode="&#x5d;" horiz-adv-x="687" d="M365 -309L739 1443L261 1443L226 1270L496 1270L192 -135L-78 -135L-113 -309Z" />
<glyph glyph-name="asciicircum" unicode="&#x5e;" horiz-adv-x="933" d="M629 1244L646 1244L756 814L952 814L781 1433L566 1433L129 814L329 814Z" />
<glyph glyph-name="underscore" unicode="&#x5f;" horiz-adv-x="1024" d="M-142 -293L916 -293L955 -100L-104 -100Z" />
<glyph glyph-name="grave" unicode="&#x60;" horiz-adv-x="1086" d="M946 1224L797 1529L590 1529L775 1224Z" />
<glyph glyph-name="a" unicode="&#x61;" horiz-adv-x="1048" d="M461 159C353 159 278 215 278 302C278 397 363 456 507 462L770 475L746 369C718 246 599 159 461 159ZM390 -18C520 -18 631 39 699 128L702 128L675 0L882 0L1026 681C1030 704 1033 737 1033 769C1033 950 878 1076 643 1076C394 1076 218 940 185 743L399 743C419 832 497 891 626 891C751 891 820 834 820 742C820 727 820 713 816 696L802 632L504 618C229 606 65 484 65 274C65 103 210 -18 390 -18Z" />
<glyph glyph-name="b" unicode="&#x62;" horiz-adv-x="1172" d="M639 -18C959 -18 1158 290 1158 626C1158 907 1007 1073 773 1073C639 1073 512 1000 453 894L449 894L566 1443L353 1443L46 0L251 0L295 211L301 211C336 78 476 -18 639 -18ZM618 174C467 174 366 284 366 441C366 682 504 885 704 885C856 885 942 778 942 607C942 369 813 174 618 174Z" />
<glyph glyph-name="c" unicode="&#x63;" horiz-adv-x="1061" d="M658 1076C331 1076 108 806 108 439C108 169 265 -20 552 -20C786 -20 979 140 1026 357L817 357C778 244 684 171 557 171C417 171 325 276 325 448C325 704 460 884 652 884C794 884 876 795 880 684L1086 684C1087 689 1087 689 1087 702C1087 900 935 1076 658 1076Z" />
<glyph glyph-name="d" unicode="&#x64;" horiz-adv-x="1182" d="M491 -18C629 -18 756 57 822 163L827 163L792 0L1005 0L1312 1443L1098 1443L969 850L964 850C931 977 799 1073 634 1073C336 1073 107 796 107 424C107 156 255 -18 491 -18ZM559 171C412 171 324 276 324 446C324 699 467 881 653 881C804 881 900 771 900 615C900 364 754 171 559 171Z" />
<glyph glyph-name="e" unicode="&#x65;" horiz-adv-x="1093" d="M343 633C382 782 487 894 638 894C799 894 868 783 868 662C868 653 868 641 867 633ZM553 -22C789 -22 976 128 1031 330L824 330C782 228 689 162 558 162C411 162 317 270 317 441C317 452 317 464 318 476L1067 476C1075 524 1078 581 1078 628C1078 903 909 1076 643 1076C328 1076 108 798 108 448C108 171 264 -22 553 -22Z" />
<glyph glyph-name="f" unicode="&#x66;" horiz-adv-x="653" d="M112 0L327 0L510 872L743 872L779 1051L544 1051L561 1141C581 1239 639 1285 746 1285C777 1285 820 1280 840 1275L873 1444C831 1452 786 1459 731 1459C509 1459 390 1367 350 1160L329 1051L160 1051L123 872L295 872Z" />
<glyph glyph-name="g" unicode="&#x67;" horiz-adv-x="1170" d="M471 -398C745 -398 946 -252 1007 32L1221 1055L1011 1055L968 842L960 842C924 975 797 1073 633 1073C302 1073 108 763 108 438C108 176 262 6 494 6C628 6 756 75 820 180L826 180L793 35C750 -138 643 -224 475 -224C346 -224 256 -167 243 -79L27 -79C27 -269 214 -398 471 -398ZM561 185C406 185 323 294 323 453C323 693 454 881 653 881C792 881 899 772 899 615C899 384 769 185 561 185Z" />
<glyph glyph-name="h" unicode="&#x68;" horiz-adv-x="1145" d="M46 0L261 0L394 630C427 780 543 885 692 885C824 885 904 808 904 696C904 668 900 637 892 602L761 0L975 0L1114 639C1123 684 1128 726 1128 764C1128 932 997 1074 794 1074C635 1074 516 994 454 892L449 892L567 1443L353 1443Z" />
<glyph glyph-name="i" unicode="&#x69;" horiz-adv-x="442" d="M48 0L264 0L487 1055L271 1055ZM438 1204C508 1204 564 1261 564 1333C564 1405 508 1462 438 1462C368 1462 312 1405 312 1333C312 1261 368 1204 438 1204Z" />
<glyph glyph-name="j" unicode="&#x6a;" horiz-adv-x="442" d="M445 1204C515 1204 570 1261 570 1333C570 1405 515 1462 445 1462C375 1462 319 1405 319 1333C319 1261 375 1204 445 1204ZM488 1055L272 1055L37 -47C15 -146 -28 -185 -119 -185C-139 -185 -152 -183 -172 -181L-211 -362C-181 -366 -137 -369 -115 -369C82 -368 204 -273 247 -74Z" />
<glyph glyph-name="k" unicode="&#x6b;" horiz-adv-x="1012" d="M262 0L343 377L479 485L728 0L965 0L652 613L1166 1055L902 1055L398 628L393 628L569 1443L353 1443L46 0Z" />
<glyph glyph-name="l" unicode="&#x6c;" horiz-adv-x="452" d="M52 0L268 0L575 1443L359 1443Z" />
<glyph glyph-name="m" unicode="&#x6d;" horiz-adv-x="1683" d="M41 0L256 0L395 655C423 791 534 885 647 885C755 885 818 811 818 719C818 691 813 661 806 627L673 0L884 0L1023 654C1054 798 1164 885 1276 885C1384 885 1446 811 1446 719C1446 691 1443 661 1435 627L1302 0L1517 0L1657 663C1666 707 1670 748 1670 786C1670 956 1544 1076 1374 1076C1207 1076 1092 986 1024 887L1020 887C995 987 893 1076 746 1076C611 1076 493 991 439 886L434 886L470 1055L265 1055Z" />
<glyph glyph-name="n" unicode="&#x6e;" horiz-adv-x="1129" d="M41 0L256 0L390 630C424 786 540 885 680 885C805 885 888 814 888 700C888 675 884 640 876 602L748 0L963 0L1098 639C1107 685 1112 731 1112 768C1112 948 970 1076 781 1076C631 1076 511 1006 440 892L435 892L470 1055L265 1055Z" />
<glyph glyph-name="o" unicode="&#x6f;" horiz-adv-x="1133" d="M565 169C418 169 325 281 325 453C325 700 466 887 660 887C807 887 900 774 900 602C900 356 759 169 565 169ZM664 1076C346 1076 108 803 108 447C108 166 286 -20 562 -20C879 -20 1117 252 1117 608C1117 890 939 1076 664 1076Z" />
<glyph glyph-name="p" unicode="&#x70;" horiz-adv-x="1169" d="M611 174C461 174 364 284 364 441C364 676 497 885 705 885C852 885 940 779 940 605C940 357 797 174 611 174ZM179 -349L297 205L302 205C343 74 471 -18 632 -18C929 -18 1154 258 1154 631C1154 900 1009 1073 774 1073C638 1073 510 1001 443 891L439 891L474 1055L265 1055L-33 -349Z" />
<glyph glyph-name="q" unicode="&#x71;" horiz-adv-x="1172" d="M558 171C410 171 324 276 324 446C324 695 465 881 654 881C805 881 900 771 900 615C900 364 753 171 558 171ZM925 -349L1224 1055L1016 1055L973 850L967 850C931 977 800 1073 634 1073C335 1073 107 791 107 424C107 152 255 -18 491 -18C628 -18 755 57 824 169L828 169L713 -349Z" />
<glyph glyph-name="r" unicode="&#x72;" horiz-adv-x="733" d="M41 0L255 0L381 594C420 771 510 864 678 864C730 864 787 851 815 838L858 1046C832 1059 786 1071 733 1071C604 1071 508 1008 445 912L441 912L470 1055L265 1055Z" />
<glyph glyph-name="s" unicode="&#x73;" horiz-adv-x="986" d="M181 751C181 606 263 517 455 455L546 426C672 387 707 359 707 299C707 215 622 151 505 151C368 151 283 219 269 317L59 317C65 121 236 -20 496 -20C744 -20 921 120 921 318C921 457 843 539 653 601L556 632C431 671 389 705 389 771C389 849 464 905 586 905C700 905 784 838 792 745L992 745C989 939 825 1075 589 1075C345 1075 181 941 181 751Z" />
<glyph glyph-name="t" unicode="&#x74;" horiz-adv-x="663" d="M442 -10C481 -10 523 -5 557 1L593 177C572 173 554 172 521 172C437 172 387 202 387 276C387 298 391 327 398 358L509 868L731 868L766 1047L545 1047L600 1307L385 1307L332 1047L175 1047L139 868L295 868L173 308C165 272 163 239 163 211C163 63 278 -10 442 -10Z" />
<glyph glyph-name="u" unicode="&#x75;" horiz-adv-x="1128" d="M1179 1055L965 1055L832 430C799 279 684 174 532 174C400 174 335 232 335 355C335 378 340 425 347 458L474 1055L259 1055L127 424C118 381 112 320 112 278C112 108 235 -20 436 -20C595 -20 727 64 780 154L784 154L751 0L956 0Z" />
<glyph glyph-name="v" unicode="&#x76;" horiz-adv-x="1011" d="M172 1056L324 0L562 0L1155 1056L922 1056L487 232L483 232L385 1056Z" />
<glyph glyph-name="w" unicode="&#x77;" horiz-adv-x="1507" d="M1642 1055L1426 1055L1059 238L1054 238L1010 1055L800 1055L417 238L413 238L382 1055L182 1055L247 0L478 0L854 785L859 785L910 0L1135 0Z" />
<glyph glyph-name="x" unicode="&#x78;" horiz-adv-x="1007" d="M523 373L685 0L911 0L676 517L1133 1055L888 1055L581 682L577 682L414 1055L188 1055L424 539L-34 0L212 0L518 373Z" />
<glyph glyph-name="y" unicode="&#x79;" horiz-adv-x="1017" d="M97 -385C275 -385 398 -316 525 -82L1160 1055L927 1055L492 217L488 217L386 1055L172 1055L331 9C331 8 304 -46 304 -48C249 -164 178 -201 102 -201C69 -201 24 -196 6 -189L-27 -372C-7 -378 58 -385 97 -385Z" />
<glyph glyph-name="z" unicode="&#x7a;" horiz-adv-x="996" d="M15 0L851 0L889 182L333 182L334 187L1037 900L1070 1055L244 1055L206 873L763 873L761 868L45 145Z" />
<glyph glyph-name="braceleft" unicode="&#x7b;" horiz-adv-x="687" d="M224 243L182 57C175 21 170 -16 170 -51C170 -239 320 -310 472 -310L538 -310L572 -139L528 -139C417 -139 381 -86 381 -7C381 20 386 50 392 81L438 290C445 322 450 351 450 377C450 471 400 531 262 557L265 574C418 588 517 658 550 812L602 1051C635 1207 696 1268 831 1268L875 1268L910 1443L844 1443C601 1443 460 1351 407 1100L360 891C326 732 253 680 97 680L51 452C176 452 235 424 235 330C235 305 231 276 224 243Z" />
<glyph glyph-name="bar" unicode="&#x7c;" horiz-adv-x="687" d="M308 -309L681 1443L489 1443L116 -309Z" />
<glyph glyph-name="braceright" unicode="&#x7d;" horiz-adv-x="687" d="M574 890L615 1076C623 1112 628 1149 628 1184C628 1372 478 1443 326 1443L260 1443L225 1272L270 1272C381 1272 417 1219 417 1141C417 1113 412 1083 405 1052L360 843C353 811 348 782 348 756C348 662 397 602 536 576L533 559C380 545 281 475 248 321L196 82C163 -74 102 -135 -33 -135L-77 -135L-113 -310L-46 -310C196 -310 338 -218 391 33L438 242C472 402 545 453 701 453L747 681C622 681 563 709 563 803C563 828 567 857 574 890Z" />
<glyph glyph-name="asciitilde" unicode="&#x7e;" horiz-adv-x="1271" d="M888 425C1050 425 1182 552 1213 792L1021 792C1000 681 954 628 885 628C773 628 723 845 521 845C361 845 225 719 194 478L385 478C407 590 450 641 520 641C634 641 683 425 888 425Z" />
<glyph glyph-name="nonbreakingspace" unicode="&#xa0;" horiz-adv-x="478" d="" />
<glyph glyph-name="exclamdown" unicode="&#xa1;" horiz-adv-x="587" d="M276 -340L461 625L262 625L36 -340ZM438 1120C365 1120 307 1061 307 986C307 910 365 851 438 851C512 851 570 910 570 986C570 1061 512 1120 438 1120Z" />
<glyph glyph-name="cent" unicode="&#xa2;" horiz-adv-x="1270" d="M1170 513L955 513C917 408 823 349 699 349C551 349 451 456 451 642C451 900 597 1099 798 1099C925 1099 1024 1026 1033 918L1245 918C1244 933 1243 949 1241 963C1221 1102 1117 1220 965 1269L1002 1445L805 1445L773 1289C454 1265 231 986 231 619C231 396 348 233 536 177L494 -23L691 -23L729 157C961 175 1131 318 1170 513Z" />
<glyph glyph-name="sterling" unicode="&#xa3;" horiz-adv-x="1270" d="M1169 202L477 202L478 206C590 268 680 397 683 598C683 608 683 623 681 646L1050 646L1085 821L672 821C666 892 662 948 662 991C662 1175 809 1270 1012 1270C1139 1270 1269 1237 1328 1205L1368 1400C1295 1435 1149 1471 1003 1471C657 1471 434 1304 434 985C434 943 437 898 444 821L183 821L148 646L459 646C461 617 463 597 463 582C459 382 283 220 84 200L45 2L1129 2Z" />
<glyph glyph-name="currency" unicode="&#xa4;" horiz-adv-x="1270" d="M457 653C457 789 571 903 710 903C849 903 964 789 964 653C964 516 849 402 710 402C571 402 457 516 457 653ZM1302 1032L1199 1170L969 979C898 1037 808 1072 710 1072C648 1072 590 1058 537 1033L430 1171L280 1042L385 909C330 838 298 749 298 653C298 585 314 520 343 463L117 273L220 135L451 327C522 268 612 233 710 233C772 233 831 247 883 272L989 135L1140 264L1036 396C1091 468 1123 557 1123 653C1123 722 1106 787 1077 844Z" />
<glyph glyph-name="yen" unicode="&#xa5;" horiz-adv-x="1270" d="M1008 242L1039 392L767 392L800 544L1072 544L1103 694L904 694L1498 1443L1246 1443L743 806L735 806L490 1443L257 1443L544 694L330 694L299 544L574 544L542 392L266 392L235 242L510 242L457 0L686 0L737 242Z" />
<glyph glyph-name="brokenbar" unicode="&#xa6;" horiz-adv-x="687" d="M539 774L681 1443L489 1443L347 774ZM309 -309L450 360L258 360L117 -309Z" />
<glyph glyph-name="section" unicode="&#xa7;" horiz-adv-x="986" d="M476 430C387 465 344 516 344 575C344 671 437 744 556 758L649 718C739 683 767 630 767 572C767 481 689 410 573 387ZM431 -271C677 -271 855 -132 855 63C855 166 819 231 712 300L713 308C853 345 973 453 973 613C973 752 889 834 730 900L594 960C506 994 465 1036 465 1095C465 1178 544 1239 657 1239C765 1239 843 1183 858 1098L1057 1098C1035 1287 886 1413 659 1413C428 1413 259 1282 259 1085C259 980 298 915 406 848L406 840C268 807 140 707 140 545C140 408 229 313 376 253L529 189C619 154 646 111 646 53C646 -34 560 -97 437 -97C321 -97 242 -34 223 52L19 52C28 -141 206 -271 431 -271Z" />
<glyph glyph-name="dieresis" unicode="&#xa8;" horiz-adv-x="1086" d="M575 1225C640 1225 692 1277 692 1342C692 1407 640 1459 575 1459C510 1459 458 1407 458 1342C458 1277 510 1225 575 1225ZM955 1225C1020 1225 1072 1277 1072 1342C1072 1407 1020 1459 955 1459C890 1459 838 1407 838 1342C838 1277 890 1225 955 1225Z" />
<glyph glyph-name="copyright" unicode="&#xa9;" horiz-adv-x="1660" d="M889 -153C1344 -153 1692 205 1692 673C1692 1117 1371 1428 909 1428C455 1428 107 1069 107 602C107 159 429 -153 889 -153ZM889 -4C513 -4 256 243 256 602C256 985 540 1279 909 1279C1288 1279 1542 1033 1542 672C1542 290 1259 -4 889 -4ZM1269 777C1264 940 1135 1053 950 1053C709 1053 532 851 532 576C532 374 671 233 871 233C1046 233 1176 328 1213 483L1058 483C1027 408 967 370 881 370C764 370 688 455 688 586C688 775 796 917 941 917C1037 917 1112 859 1117 777Z" />
<glyph glyph-name="ordfeminine" unicode="&#xaa;" horiz-adv-x="782" d="M512 1029L685 1029L672 970C655 893 583 840 496 840C436 840 364 865 364 929C364 985 412 1029 512 1029ZM189 906C189 766 317 709 423 709C510 709 591 747 638 810L643 809L623 713L791 713L889 1178C893 1197 895 1215 895 1232C895 1365 776 1455 596 1455C441 1455 320 1375 288 1238L452 1238C473 1286 524 1315 587 1315C668 1315 722 1277 722 1218C722 1209 720 1200 717 1187C717 1185 709 1145 708 1142L490 1142C286 1142 189 1040 189 906Z" />
<glyph glyph-name="guillemotleft" unicode="&#xab;" horiz-adv-x="1313" d="M667 148L404 551L404 562L829 983L592 983L184 577L181 559L451 148ZM1121 151L862 536L862 547L1303 983L1066 983L642 562L639 544L904 151Z" />
<glyph glyph-name="logicalnot" unicode="&#xac;" horiz-adv-x="1270" d="M1204 680L221 680L182 484L979 484L897 97L1083 97Z" />
<glyph glyph-name="registered" unicode="&#xae;" horiz-adv-x="1183" d="M621 845L656 1008L730 1008L801 845L929 845L845 1019C920 1034 977 1097 977 1172C977 1243 917 1301 835 1301L613 1301L516 845ZM700 1213L801 1213C840 1213 863 1193 863 1162C863 1120 826 1089 773 1089L673 1089ZM752 579C1027 579 1243 792 1243 1065C1243 1339 1027 1551 752 1551C477 1551 262 1338 262 1065C262 792 478 579 752 579ZM752 692C545 692 382 856 382 1065C382 1275 545 1438 752 1438C961 1438 1122 1275 1122 1065C1122 856 961 692 752 692Z" />
<glyph glyph-name="macron" unicode="&#xaf;" horiz-adv-x="1086" d="M1088 1412L490 1412L464 1281L1061 1281Z" />
<glyph glyph-name="degree" unicode="&#xb0;" horiz-adv-x="743" d="M553 856C719 856 850 988 850 1157C850 1325 719 1458 553 1458C386 1458 257 1325 257 1157C257 988 386 856 553 856ZM553 1005C472 1005 400 1075 400 1157C400 1241 472 1309 553 1309C638 1309 706 1241 706 1157C706 1075 639 1005 553 1005Z" />
<glyph glyph-name="plusminus" unicode="&#xb1;" horiz-adv-x="1270" d="M1071 94L1107 276L146 276L110 94ZM803 657L1191 657L1226 831L838 831L897 1097L710 1097L651 831L264 831L229 657L616 657L558 390L745 390Z" />
<glyph glyph-name="two.sups" unicode="&#xb2;" horiz-adv-x="636" d="M629 1348C801 1475 853 1533 853 1626C853 1740 748 1823 604 1823C445 1823 323 1723 314 1586C319 1586 480 1586 484 1586L484 1590C494 1642 535 1676 586 1676C636 1676 670 1648 670 1608C670 1563 639 1532 505 1429L259 1247L230 1111L760 1111L790 1259L509 1259Z" />
<glyph glyph-name="three.sups" unicode="&#xb3;" horiz-adv-x="659" d="M470 1401L548 1401C603 1401 640 1373 640 1331C640 1281 597 1245 535 1245C471 1245 428 1283 434 1334L434 1334L261 1334C259 1322 258 1314 258 1304C258 1176 368 1093 535 1093C701 1093 821 1183 821 1309C821 1382 776 1440 704 1457L704 1461C797 1474 867 1546 867 1633C867 1744 762 1823 614 1823C467 1823 357 1744 331 1613L500 1613C512 1653 552 1679 599 1679C653 1679 690 1652 690 1611C690 1562 649 1531 582 1531L496 1531Z" />
<glyph glyph-name="acute" unicode="&#xb4;" horiz-adv-x="1086" d="M705 1224L1020 1529L796 1529L518 1224Z" />
<glyph glyph-name="mugreek" unicode="&#xb5;" horiz-adv-x="1193" d="M-30 -349L182 -349L279 101L284 101C315 30 394 -12 478 -12C609 -12 742 63 805 186L809 186C809 185 810 185 810 184C809 58 872 -4 1015 -4C1061 -4 1089 1 1119 9L1155 183C1140 180 1122 178 1105 178C1042 178 1014 196 1014 244C1014 262 1017 278 1021 299L1182 1055L968 1055L843 467C808 304 677 182 536 182C409 182 345 246 345 370C345 407 354 448 363 491L483 1055L268 1055Z" />
<glyph glyph-name="paragraph" unicode="&#xb6;" horiz-adv-x="1317" d="M714 -237L1071 1443L839 1443C490 1438 252 1225 252 920C252 697 418 535 662 525L498 -237ZM869 -237L1085 -237L1442 1443L1226 1443Z" />
<glyph glyph-name="periodcentered" unicode="&#xb7;" horiz-adv-x="539" d="M316 391C389 391 447 451 447 528C447 604 389 664 316 664C243 664 185 604 185 528C185 451 243 391 316 391Z" />
<glyph glyph-name="cedilla" unicode="&#xb8;" horiz-adv-x="1090" d="M284 -226L343 -226C447 -226 490 -244 490 -285C490 -326 446 -349 367 -349C321 -349 273 -341 234 -327L208 -452C249 -467 319 -478 378 -478C533 -478 638 -394 638 -271C638 -178 572 -125 459 -125L535 0L536 10L392 10L303 -141Z" />
<glyph glyph-name="one.sups" unicode="&#xb9;" horiz-adv-x="513" d="M386 1111L573 1111L721 1804L533 1804L333 1687L298 1517L494 1631L497 1631Z" />
<glyph glyph-name="ordmasculine" unicode="&#xba;" horiz-adv-x="805" d="M533 699C760 699 929 886 929 1140C929 1335 800 1457 600 1457C373 1457 204 1267 204 1013C204 821 333 699 533 699ZM753 1141C753 974 657 845 537 845C441 845 381 908 381 1014C381 1181 475 1311 596 1311C691 1311 753 1247 753 1141Z" />
<glyph glyph-name="guillemotright" unicode="&#xbb;" horiz-adv-x="1313" d="M755 983L1018 580L1018 569L593 148L830 148L1238 554L1240 572L971 983ZM301 980L560 595L560 584L119 148L356 148L780 569L783 587L518 980Z" />
<glyph glyph-name="onequarter" unicode="&#xbc;" horiz-adv-x="1512" d="M309 750L496 750L644 1443L456 1443L256 1326L221 1156L417 1270L420 1270ZM238 0L897 699L1598 1443L1388 1443L746 764L27 0ZM1146 0L1323 0L1346 106L1431 106L1462 256L1377 256L1470 693L1202 693C1049 517 947 397 859 276L827 106L1170 106ZM1018 253C1089 348 1189 471 1267 557L1271 557L1204 248L1018 248Z" />
<glyph glyph-name="onehalf" unicode="&#xbd;" horiz-adv-x="1544" d="M420 1270L309 750L496 750L644 1443L456 1443L256 1326L221 1156L417 1270ZM1388 1443L746 764L27 0L238 0L897 699L1598 1443ZM1155 479C1165 531 1206 565 1257 565C1307 565 1341 537 1341 497C1341 452 1310 421 1176 318L930 136L901 0L1431 0L1461 148L1180 148L1300 237C1472 364 1524 422 1524 515C1524 629 1419 712 1275 712C1116 712 994 612 985 475C990 475 1151 475 1155 475Z" />
<glyph glyph-name="threequarters" unicode="&#xbe;" horiz-adv-x="1622" d="M393 1040L471 1040C526 1040 563 1012 563 970C563 920 520 884 458 884C394 884 351 922 357 973L357 973L184 973C182 961 181 953 181 943C181 815 291 732 458 732C624 732 744 822 744 948C744 1021 699 1079 627 1096L627 1100C720 1113 790 1185 790 1272C790 1383 685 1462 537 1462C390 1462 280 1383 254 1252L423 1252C435 1292 475 1318 522 1318C576 1318 613 1291 613 1250C613 1201 572 1170 505 1170L419 1170ZM348 0L1007 699L1708 1443L1498 1443L856 764L137 0ZM1256 0L1433 0L1456 106L1541 106L1572 256L1487 256L1580 693L1312 693C1159 517 1057 397 969 276L937 106L1280 106ZM1128 253C1199 348 1299 471 1377 557L1381 557L1314 248L1128 248Z" />
<glyph glyph-name="questiondown" unicode="&#xbf;" horiz-adv-x="1000" d="M904 30L694 30C659 -89 564 -160 440 -160C300 -160 224 -80 224 11C224 118 287 196 441 267C596 336 669 407 703 581L719 655L507 655L497 603C478 502 427 452 282 387C110 310 -6 162 -6 -10C-6 -202 166 -353 427 -353C694 -353 863 -197 904 30ZM682 1120C608 1120 550 1061 550 986C550 910 608 851 682 851C755 851 813 910 813 986C813 1061 755 1120 682 1120Z" />
<glyph glyph-name="Agrave" unicode="&#xc0;" horiz-adv-x="1328" d="M859 1192L864 1192L949 571L513 571ZM1021 0L1240 0L1030 1443L785 1443L-43 0L200 0L417 383L971 383ZM832 1559L1001 1559L841 1855L632 1855Z" />
<glyph glyph-name="Aacute" unicode="&#xc1;" horiz-adv-x="1328" d="M859 1192L864 1192L949 571L513 571ZM1021 0L1240 0L1030 1443L785 1443L-43 0L200 0L417 383L971 383ZM1025 1559L1350 1855L1119 1855L834 1559Z" />
<glyph glyph-name="Acircumflex" unicode="&#xc2;" horiz-adv-x="1328" d="M859 1192L864 1192L949 571L513 571ZM1021 0L1240 0L1030 1443L785 1443L-43 0L200 0L417 383L971 383ZM1066 1861L899 1861L557 1554L752 1554L965 1746L972 1746L1103 1554L1279 1554Z" />
<glyph glyph-name="Atilde" unicode="&#xc3;" horiz-adv-x="1328" d="M859 1192L864 1192L949 571L513 571ZM1021 0L1240 0L1030 1443L785 1443L-43 0L200 0L417 383L971 383ZM1078 1546C1192 1546 1286 1650 1319 1812L1186 1812C1166 1723 1127 1678 1085 1678C1010 1678 986 1822 844 1822C725 1822 631 1722 601 1558L735 1558C751 1644 792 1690 837 1690C916 1690 943 1546 1078 1546Z" />
<glyph glyph-name="Adieresis" unicode="&#xc4;" horiz-adv-x="1328" d="M859 1192L864 1192L949 571L513 571ZM1021 0L1240 0L1030 1443L785 1443L-43 0L200 0L417 383L971 383ZM769 1604C834 1604 886 1656 886 1721C886 1786 834 1838 769 1838C704 1838 652 1786 652 1721C652 1656 704 1604 769 1604ZM1149 1604C1214 1604 1266 1656 1266 1721C1266 1786 1214 1838 1149 1838C1084 1838 1032 1786 1032 1721C1032 1656 1084 1604 1149 1604Z" />
<glyph glyph-name="Aring" unicode="&#xc5;" horiz-adv-x="1328" d="M859 1192L864 1192L949 571L513 571ZM1021 0L1240 0L1030 1443L785 1443L-43 0L200 0L417 383L971 383ZM965 1560C1081 1560 1169 1648 1170 1768C1171 1886 1081 1963 972 1963C858 1963 768 1876 768 1755C768 1637 858 1560 965 1560ZM965 1662C911 1662 870 1700 870 1757C870 1821 912 1862 972 1862C1028 1862 1067 1824 1068 1766C1069 1703 1026 1662 965 1662Z" />
<glyph glyph-name="AE" unicode="&#xc6;" horiz-adv-x="1908" d="M1143 1253L1003 606L576 606L1003 1253ZM874 0L1745 0L1785 204L1133 204L1228 629L1843 629L1882 824L1267 824L1358 1239L2010 1239L2052 1443L888 1443L-50 0L186 0L464 417L965 417Z" />
<glyph glyph-name="Ccedilla" unicode="&#xc7;" horiz-adv-x="1427" d="M1490 950C1491 960 1491 969 1490 986C1475 1277 1246 1466 927 1466C482 1466 168 1100 168 598C168 255 360 24 669 -17L596 -141L577 -226L636 -226C740 -226 783 -244 783 -285C783 -326 739 -349 660 -349C614 -349 566 -341 527 -327L501 -452C542 -467 612 -478 671 -478C826 -478 931 -394 931 -271C931 -178 865 -125 752 -125L815 -22C1099 -4 1326 178 1396 452L1173 452C1109 285 960 185 777 185C543 185 399 346 399 609C399 986 610 1259 917 1259C1106 1259 1249 1151 1266 978C1266 965 1267 956 1267 950Z" />
<glyph glyph-name="Egrave" unicode="&#xc8;" horiz-adv-x="1147" d="M1027 204L338 204L433 637L1085 637L1125 831L472 831L562 1239L1252 1239L1294 1443L376 1443L69 0L987 0ZM759 1559L928 1559L768 1855L559 1855Z" />
<glyph glyph-name="Eacute" unicode="&#xc9;" horiz-adv-x="1147" d="M1027 204L338 204L433 637L1085 637L1125 831L472 831L562 1239L1252 1239L1294 1443L376 1443L69 0L987 0ZM952 1559L1277 1855L1046 1855L761 1559Z" />
<glyph glyph-name="Ecircumflex" unicode="&#xca;" horiz-adv-x="1147" d="M1027 204L338 204L433 637L1085 637L1125 831L472 831L562 1239L1252 1239L1294 1443L376 1443L69 0L987 0ZM993 1861L826 1861L484 1554L679 1554L892 1746L899 1746L1030 1554L1206 1554Z" />
<glyph glyph-name="Edieresis" unicode="&#xcb;" horiz-adv-x="1147" d="M1027 204L338 204L433 637L1085 637L1125 831L472 831L562 1239L1252 1239L1294 1443L376 1443L69 0L987 0ZM696 1604C761 1604 813 1656 813 1721C813 1786 761 1838 696 1838C631 1838 579 1786 579 1721C579 1656 631 1604 696 1604ZM1076 1604C1141 1604 1193 1656 1193 1721C1193 1786 1141 1838 1076 1838C1011 1838 959 1786 959 1721C959 1656 1011 1604 1076 1604Z" />
<glyph glyph-name="Igrave" unicode="&#xcc;" horiz-adv-x="496" d="M296 0L603 1443L376 1443L69 0ZM419 1559L588 1559L428 1855L219 1855Z" />
<glyph glyph-name="Iacute" unicode="&#xcd;" horiz-adv-x="496" d="M296 0L603 1443L376 1443L69 0ZM612 1559L937 1855L706 1855L421 1559Z" />
<glyph glyph-name="Icircumflex" unicode="&#xce;" horiz-adv-x="496" d="M296 0L603 1443L376 1443L69 0ZM653 1861L486 1861L144 1554L339 1554L552 1746L559 1746L690 1554L866 1554Z" />
<glyph glyph-name="Idieresis" unicode="&#xcf;" horiz-adv-x="496" d="M296 0L603 1443L376 1443L69 0ZM356 1604C421 1604 473 1656 473 1721C473 1786 421 1838 356 1838C291 1838 239 1786 239 1721C239 1656 291 1604 356 1604ZM736 1604C801 1604 853 1656 853 1721C853 1786 801 1838 736 1838C671 1838 619 1786 619 1721C619 1656 671 1604 736 1604Z" />
<glyph glyph-name="Eth" unicode="&#xd0;" horiz-adv-x="1427" d="M338 202L431 632L734 632L775 836L475 836L563 1241L785 1241C1058 1241 1202 1099 1202 834C1202 461 966 202 637 202ZM376 1443L247 836L111 836L70 632L204 632L70 0L659 0C1119 0 1433 355 1433 864C1433 1228 1203 1443 828 1443Z" />
<glyph glyph-name="Ntilde" unicode="&#xd1;" horiz-adv-x="1448" d="M293 0L527 1082L532 1082L1039 0L1248 0L1555 1443L1331 1443L1097 361L1092 361L584 1443L376 1443L69 0ZM1140 1546C1254 1546 1348 1650 1381 1812L1248 1812C1228 1723 1189 1678 1147 1678C1072 1678 1048 1822 906 1822C787 1822 693 1722 663 1558L797 1558C813 1644 854 1690 899 1690C978 1690 1005 1546 1140 1546Z" />
<glyph glyph-name="Ograve" unicode="&#xd2;" horiz-adv-x="1530" d="M926 1260C1159 1260 1310 1093 1310 831C1310 473 1091 183 781 183C547 183 397 351 397 613C397 970 615 1260 926 1260ZM778 -23C1215 -23 1539 355 1539 841C1539 1214 1300 1466 927 1466C490 1466 168 1088 168 602C168 229 407 -23 778 -23ZM874 1559L1043 1559L883 1855L674 1855Z" />
<glyph glyph-name="Oacute" unicode="&#xd3;" horiz-adv-x="1530" d="M926 1260C1159 1260 1310 1093 1310 831C1310 473 1091 183 781 183C547 183 397 351 397 613C397 970 615 1260 926 1260ZM778 -23C1215 -23 1539 355 1539 841C1539 1214 1300 1466 927 1466C490 1466 168 1088 168 602C168 229 407 -23 778 -23ZM1067 1559L1392 1855L1161 1855L876 1559Z" />
<glyph glyph-name="Ocircumflex" unicode="&#xd4;" horiz-adv-x="1530" d="M926 1260C1159 1260 1310 1093 1310 831C1310 473 1091 183 781 183C547 183 397 351 397 613C397 970 615 1260 926 1260ZM778 -23C1215 -23 1539 355 1539 841C1539 1214 1300 1466 927 1466C490 1466 168 1088 168 602C168 229 407 -23 778 -23ZM1108 1861L941 1861L599 1554L794 1554L1007 1746L1014 1746L1145 1554L1321 1554Z" />
<glyph glyph-name="Otilde" unicode="&#xd5;" horiz-adv-x="1530" d="M926 1260C1159 1260 1310 1093 1310 831C1310 473 1091 183 781 183C547 183 397 351 397 613C397 970 615 1260 926 1260ZM778 -23C1215 -23 1539 355 1539 841C1539 1214 1300 1466 927 1466C490 1466 168 1088 168 602C168 229 407 -23 778 -23ZM1120 1546C1234 1546 1328 1650 1361 1812L1228 1812C1208 1723 1169 1678 1127 1678C1052 1678 1028 1822 886 1822C767 1822 673 1722 643 1558L777 1558C793 1644 834 1690 879 1690C958 1690 985 1546 1120 1546Z" />
<glyph glyph-name="Odieresis" unicode="&#xd6;" horiz-adv-x="1530" d="M926 1260C1159 1260 1310 1093 1310 831C1310 473 1091 183 781 183C547 183 397 351 397 613C397 970 615 1260 926 1260ZM778 -23C1215 -23 1539 355 1539 841C1539 1214 1300 1466 927 1466C490 1466 168 1088 168 602C168 229 407 -23 778 -23ZM811 1604C876 1604 928 1656 928 1721C928 1786 876 1838 811 1838C746 1838 694 1786 694 1721C694 1656 746 1604 811 1604ZM1191 1604C1256 1604 1308 1656 1308 1721C1308 1786 1256 1838 1191 1838C1126 1838 1074 1786 1074 1721C1074 1656 1126 1604 1191 1604Z" />
<glyph glyph-name="multiply" unicode="&#xd7;" horiz-adv-x="1270" d="M902 144L1056 268L825 573L1187 864L1077 1016L715 726L482 1027L329 902L562 597L200 306L310 155L672 445Z" />
<glyph glyph-name="Oslash" unicode="&#xd8;" horiz-adv-x="1530" d="M1274 1031C1298 973 1310 906 1310 831C1310 473 1091 183 781 183C676 183 587 217 522 278ZM432 412C409 470 397 538 397 613C397 970 615 1260 926 1260C1031 1260 1119 1226 1185 1165ZM1603 1360L1494 1474L1342 1322C1238 1414 1096 1466 927 1466C490 1466 168 1088 168 602C168 463 201 341 262 242L103 83L213 -31L364 121C468 29 610 -23 778 -23C1215 -23 1539 355 1539 841C1539 980 1506 1103 1445 1201Z" />
<glyph glyph-name="Ugrave" unicode="&#xd9;" horiz-adv-x="1443" d="M701 -23C1056 -23 1276 158 1342 463L1550 1443L1323 1443L1124 513C1079 308 928 188 730 188C521 188 413 291 407 453C406 490 410 530 420 573L603 1443L376 1443L191 562C182 519 177 475 178 434C179 175 364 -23 701 -23ZM877 1559L1046 1559L886 1855L677 1855Z" />
<glyph glyph-name="Uacute" unicode="&#xda;" horiz-adv-x="1443" d="M701 -23C1056 -23 1276 158 1342 463L1550 1443L1323 1443L1124 513C1079 308 928 188 730 188C521 188 413 291 407 453C406 490 410 530 420 573L603 1443L376 1443L191 562C182 519 177 475 178 434C179 175 364 -23 701 -23ZM1070 1559L1395 1855L1164 1855L879 1559Z" />
<glyph glyph-name="Ucircumflex" unicode="&#xdb;" horiz-adv-x="1443" d="M701 -23C1056 -23 1276 158 1342 463L1550 1443L1323 1443L1124 513C1079 308 928 188 730 188C521 188 413 291 407 453C406 490 410 530 420 573L603 1443L376 1443L191 562C182 519 177 475 178 434C179 175 364 -23 701 -23ZM1111 1861L944 1861L602 1554L797 1554L1010 1746L1017 1746L1148 1554L1324 1554Z" />
<glyph glyph-name="Udieresis" unicode="&#xdc;" horiz-adv-x="1443" d="M701 -23C1056 -23 1276 158 1342 463L1550 1443L1323 1443L1124 513C1079 308 928 188 730 188C521 188 413 291 407 453C406 490 410 530 420 573L603 1443L376 1443L191 562C182 519 177 475 178 434C179 175 364 -23 701 -23ZM814 1604C879 1604 931 1656 931 1721C931 1786 879 1838 814 1838C749 1838 697 1786 697 1721C697 1656 749 1604 814 1604ZM1194 1604C1259 1604 1311 1656 1311 1721C1311 1786 1259 1838 1194 1838C1129 1838 1077 1786 1077 1721C1077 1656 1129 1604 1194 1604Z" />
<glyph glyph-name="Yacute" unicode="&#xdd;" horiz-adv-x="1287" d="M694 0L814 569L1506 1443L1253 1443L746 803L742 803L500 1443L265 1443L591 588L466 0ZM1005 1559L1330 1855L1099 1855L814 1559Z" />
<glyph glyph-name="Thorn" unicode="&#xde;" horiz-adv-x="1234" d="M74 0L297 0L367 323L698 323C1033 323 1261 529 1261 818C1261 1038 1094 1192 859 1192L549 1192L604 1443L381 1443ZM509 993L786 993C948 993 1031 918 1031 795C1031 624 900 521 681 521L407 521Z" />
<glyph glyph-name="germandbls" unicode="&#xdf;" horiz-adv-x="1280" d="M314 0L532 1026C565 1177 661 1262 798 1262C929 1262 1018 1186 1018 1073C1018 951 904 855 764 855L687 855L646 652L718 652C891 652 1002 574 1002 447C1002 304 872 194 705 194C649 194 572 208 527 227L488 39C547 16 636 2 712 2C1006 2 1217 184 1217 444C1217 609 1099 724 911 749L915 768C1102 789 1234 929 1234 1110C1234 1310 1055 1455 808 1455C559 1455 379 1320 331 1099L97 0Z" />
<glyph glyph-name="agrave" unicode="&#xe0;" horiz-adv-x="1048" d="M461 159C353 159 278 215 278 302C278 397 363 456 507 462L770 475L746 369C718 246 599 159 461 159ZM390 -18C520 -18 631 39 699 128L702 128L675 0L882 0L1026 681C1030 704 1033 737 1033 769C1033 950 878 1076 643 1076C394 1076 218 940 185 743L399 743C419 832 497 891 626 891C751 891 820 834 820 742C820 727 820 713 816 696L802 632L504 618C229 606 65 484 65 274C65 103 210 -18 390 -18ZM782 1224L633 1529L426 1529L611 1224Z" />
<glyph glyph-name="aacute" unicode="&#xe1;" horiz-adv-x="1048" d="M461 159C353 159 278 215 278 302C278 397 363 456 507 462L770 475L746 369C718 246 599 159 461 159ZM390 -18C520 -18 631 39 699 128L702 128L675 0L882 0L1026 681C1030 704 1033 737 1033 769C1033 950 878 1076 643 1076C394 1076 218 940 185 743L399 743C419 832 497 891 626 891C751 891 820 834 820 742C820 727 820 713 816 696L802 632L504 618C229 606 65 484 65 274C65 103 210 -18 390 -18ZM792 1224L1107 1529L883 1529L605 1224Z" />
<glyph glyph-name="acircumflex" unicode="&#xe2;" horiz-adv-x="1048" d="M461 159C353 159 278 215 278 302C278 397 363 456 507 462L770 475L746 369C718 246 599 159 461 159ZM390 -18C520 -18 631 39 699 128L702 128L675 0L882 0L1026 681C1030 704 1033 737 1033 769C1033 950 878 1076 643 1076C394 1076 218 940 185 743L399 743C419 832 497 891 626 891C751 891 820 834 820 742C820 727 820 713 816 696L802 632L504 618C229 606 65 484 65 274C65 103 210 -18 390 -18ZM844 1528L678 1528L343 1220L534 1220L739 1409L746 1409L869 1220L1048 1220Z" />
<glyph glyph-name="atilde" unicode="&#xe3;" horiz-adv-x="1048" d="M461 159C353 159 278 215 278 302C278 397 363 456 507 462L770 475L746 369C718 246 599 159 461 159ZM390 -18C520 -18 631 39 699 128L702 128L675 0L882 0L1026 681C1030 704 1033 737 1033 769C1033 950 878 1076 643 1076C394 1076 218 940 185 743L399 743C419 832 497 891 626 891C751 891 820 834 820 742C820 727 820 713 816 696L802 632L504 618C229 606 65 484 65 274C65 103 210 -18 390 -18ZM839 1226C953 1226 1047 1330 1080 1492L947 1492C927 1403 888 1358 846 1358C771 1358 747 1502 605 1502C486 1502 392 1402 362 1238L496 1238C512 1324 553 1370 598 1370C677 1370 704 1226 839 1226Z" />
<glyph glyph-name="adieresis" unicode="&#xe4;" horiz-adv-x="1048" d="M461 159C353 159 278 215 278 302C278 397 363 456 507 462L770 475L746 369C718 246 599 159 461 159ZM390 -18C520 -18 631 39 699 128L702 128L675 0L882 0L1026 681C1030 704 1033 737 1033 769C1033 950 878 1076 643 1076C394 1076 218 940 185 743L399 743C419 832 497 891 626 891C751 891 820 834 820 742C820 727 820 713 816 696L802 632L504 618C229 606 65 484 65 274C65 103 210 -18 390 -18ZM526 1225C591 1225 643 1277 643 1342C643 1407 591 1459 526 1459C461 1459 409 1407 409 1342C409 1277 461 1225 526 1225ZM906 1225C971 1225 1023 1277 1023 1342C1023 1407 971 1459 906 1459C841 1459 789 1407 789 1342C789 1277 841 1225 906 1225Z" />
<glyph glyph-name="aring" unicode="&#xe5;" horiz-adv-x="1048" d="M461 159C353 159 278 215 278 302C278 397 363 456 507 462L770 475L746 369C718 246 599 159 461 159ZM390 -18C520 -18 631 39 699 128L702 128L675 0L882 0L1026 681C1030 704 1033 737 1033 769C1033 950 878 1076 643 1076C394 1076 218 940 185 743L399 743C419 832 497 891 626 891C751 891 820 834 820 742C820 727 820 713 816 696L802 632L504 618C229 606 65 484 65 274C65 103 210 -18 390 -18ZM718 1172C834 1172 922 1260 923 1380C924 1498 834 1575 725 1575C611 1575 521 1488 521 1367C521 1249 611 1172 718 1172ZM718 1274C664 1274 623 1312 623 1369C623 1433 665 1474 725 1474C781 1474 820 1436 821 1378C822 1315 779 1274 718 1274Z" />
<glyph glyph-name="ae" unicode="&#xe6;" horiz-adv-x="1761" d="M1224 -20C1453 -20 1646 122 1700 330L1494 330C1452 223 1359 162 1233 162C1082 162 988 273 988 446C988 460 988 469 989 476L1737 476C1743 518 1747 576 1747 628C1747 899 1582 1076 1328 1076C1186 1076 1067 1020 980 920L973 920C914 1017 788 1076 643 1076C397 1076 224 937 192 743L406 743C424 830 501 891 631 891C755 891 829 830 829 742C829 721 828 708 825 696L811 632L513 619C232 608 70 482 70 274C70 109 215 -20 414 -20C604 -20 755 55 853 199L860 199C917 67 1046 -20 1224 -20ZM1013 633C1057 792 1167 894 1322 894C1450 894 1539 802 1539 662C1539 649 1538 640 1537 633ZM466 158C353 158 283 219 283 300C283 391 372 454 510 461L780 473L756 367C729 247 611 158 466 158Z" />
<glyph glyph-name="ccedilla" unicode="&#xe7;" horiz-adv-x="1061" d="M1086 684C1087 689 1087 689 1087 702C1087 900 935 1076 658 1076C331 1076 108 806 108 439C108 197 234 20 467 -14L392 -141L373 -226L432 -226C536 -226 579 -244 579 -285C579 -326 535 -349 456 -349C410 -349 362 -341 323 -327L297 -452C338 -467 408 -478 467 -478C622 -478 727 -394 727 -271C727 -178 661 -125 548 -125L614 -16C820 9 983 160 1026 357L817 357C778 244 684 171 557 171C417 171 325 276 325 448C325 704 460 884 652 884C794 884 876 795 880 684Z" />
<glyph glyph-name="egrave" unicode="&#xe8;" horiz-adv-x="1093" d="M343 633C382 782 487 894 638 894C799 894 868 783 868 662C868 653 868 641 867 633ZM553 -22C789 -22 976 128 1031 330L824 330C782 228 689 162 558 162C411 162 317 270 317 441C317 452 317 464 318 476L1067 476C1075 524 1078 581 1078 628C1078 903 909 1076 643 1076C328 1076 108 798 108 448C108 171 264 -22 553 -22ZM780 1224L631 1529L424 1529L609 1224Z" />
<glyph glyph-name="eacute" unicode="&#xe9;" horiz-adv-x="1093" d="M343 633C382 782 487 894 638 894C799 894 868 783 868 662C868 653 868 641 867 633ZM553 -22C789 -22 976 128 1031 330L824 330C782 228 689 162 558 162C411 162 317 270 317 441C317 452 317 464 318 476L1067 476C1075 524 1078 581 1078 628C1078 903 909 1076 643 1076C328 1076 108 798 108 448C108 171 264 -22 553 -22ZM790 1224L1105 1529L881 1529L603 1224Z" />
<glyph glyph-name="ecircumflex" unicode="&#xea;" horiz-adv-x="1093" d="M343 633C382 782 487 894 638 894C799 894 868 783 868 662C868 653 868 641 867 633ZM553 -22C789 -22 976 128 1031 330L824 330C782 228 689 162 558 162C411 162 317 270 317 441C317 452 317 464 318 476L1067 476C1075 524 1078 581 1078 628C1078 903 909 1076 643 1076C328 1076 108 798 108 448C108 171 264 -22 553 -22ZM842 1528L676 1528L341 1220L532 1220L737 1409L744 1409L867 1220L1046 1220Z" />
<glyph glyph-name="edieresis" unicode="&#xeb;" horiz-adv-x="1093" d="M343 633C382 782 487 894 638 894C799 894 868 783 868 662C868 653 868 641 867 633ZM553 -22C789 -22 976 128 1031 330L824 330C782 228 689 162 558 162C411 162 317 270 317 441C317 452 317 464 318 476L1067 476C1075 524 1078 581 1078 628C1078 903 909 1076 643 1076C328 1076 108 798 108 448C108 171 264 -22 553 -22ZM524 1225C589 1225 641 1277 641 1342C641 1407 589 1459 524 1459C459 1459 407 1407 407 1342C407 1277 459 1225 524 1225ZM904 1225C969 1225 1021 1277 1021 1342C1021 1407 969 1459 904 1459C839 1459 787 1407 787 1342C787 1277 839 1225 904 1225Z" />
<glyph glyph-name="igrave" unicode="&#xec;" horiz-adv-x="449" d="M51 0L267 0L490 1055L275 1055ZM509 1224L360 1529L153 1529L338 1224Z" />
<glyph glyph-name="iacute" unicode="&#xed;" horiz-adv-x="449" d="M51 0L267 0L490 1055L275 1055ZM519 1224L834 1529L610 1529L332 1224Z" />
<glyph glyph-name="icircumflex" unicode="&#xee;" horiz-adv-x="449" d="M51 0L267 0L490 1055L275 1055ZM571 1528L405 1528L70 1220L261 1220L466 1409L473 1409L596 1220L775 1220Z" />
<glyph glyph-name="idieresis" unicode="&#xef;" horiz-adv-x="449" d="M51 0L267 0L490 1055L275 1055ZM253 1225C318 1225 370 1277 370 1342C370 1407 318 1459 253 1459C188 1459 136 1407 136 1342C136 1277 188 1225 253 1225ZM633 1225C698 1225 750 1277 750 1342C750 1407 698 1459 633 1459C568 1459 516 1407 516 1342C516 1277 568 1225 633 1225Z" />
<glyph glyph-name="eth" unicode="&#xf0;" horiz-adv-x="1152" d="M570 173C414 173 327 293 327 452C327 685 470 847 651 847C804 847 910 741 910 587C910 371 744 173 570 173ZM1195 1309L1181 1447L951 1376C934 1400 913 1426 878 1465L641 1465C700 1404 740 1358 770 1318L504 1239L516 1102L845 1199C907 1083 943 966 948 859L942 858C895 954 773 1033 619 1033C331 1033 104 783 104 435C104 186 274 -20 554 -20C816 -20 1023 163 1105 459C1130 550 1144 653 1144 765C1144 936 1107 1088 1021 1257Z" />
<glyph glyph-name="ntilde" unicode="&#xf1;" horiz-adv-x="1129" d="M41 0L256 0L390 630C424 786 540 885 680 885C805 885 888 814 888 700C888 675 884 640 876 602L748 0L963 0L1098 639C1107 685 1112 731 1112 768C1112 948 970 1076 781 1076C631 1076 511 1006 440 892L435 892L470 1055L265 1055ZM904 1226C1018 1226 1112 1330 1145 1492L1012 1492C992 1403 953 1358 911 1358C836 1358 812 1502 670 1502C551 1502 457 1402 427 1238L561 1238C577 1324 618 1370 663 1370C742 1370 769 1226 904 1226Z" />
<glyph glyph-name="ograve" unicode="&#xf2;" horiz-adv-x="1133" d="M565 169C418 169 325 281 325 453C325 700 466 887 660 887C807 887 900 774 900 602C900 356 759 169 565 169ZM664 1076C346 1076 108 803 108 447C108 166 286 -20 562 -20C879 -20 1117 252 1117 608C1117 890 939 1076 664 1076ZM796 1224L647 1529L440 1529L625 1224Z" />
<glyph glyph-name="oacute" unicode="&#xf3;" horiz-adv-x="1133" d="M565 169C418 169 325 281 325 453C325 700 466 887 660 887C807 887 900 774 900 602C900 356 759 169 565 169ZM664 1076C346 1076 108 803 108 447C108 166 286 -20 562 -20C879 -20 1117 252 1117 608C1117 890 939 1076 664 1076ZM806 1224L1121 1529L897 1529L619 1224Z" />
<glyph glyph-name="ocircumflex" unicode="&#xf4;" horiz-adv-x="1133" d="M565 169C418 169 325 281 325 453C325 700 466 887 660 887C807 887 900 774 900 602C900 356 759 169 565 169ZM664 1076C346 1076 108 803 108 447C108 166 286 -20 562 -20C879 -20 1117 252 1117 608C1117 890 939 1076 664 1076ZM858 1528L692 1528L357 1220L548 1220L753 1409L760 1409L883 1220L1062 1220Z" />
<glyph glyph-name="otilde" unicode="&#xf5;" horiz-adv-x="1133" d="M565 169C418 169 325 281 325 453C325 700 466 887 660 887C807 887 900 774 900 602C900 356 759 169 565 169ZM664 1076C346 1076 108 803 108 447C108 166 286 -20 562 -20C879 -20 1117 252 1117 608C1117 890 939 1076 664 1076ZM853 1226C967 1226 1061 1330 1094 1492L961 1492C941 1403 902 1358 860 1358C785 1358 761 1502 619 1502C500 1502 406 1402 376 1238L510 1238C526 1324 567 1370 612 1370C691 1370 718 1226 853 1226Z" />
<glyph glyph-name="odieresis" unicode="&#xf6;" horiz-adv-x="1133" d="M565 169C418 169 325 281 325 453C325 700 466 887 660 887C807 887 900 774 900 602C900 356 759 169 565 169ZM664 1076C346 1076 108 803 108 447C108 166 286 -20 562 -20C879 -20 1117 252 1117 608C1117 890 939 1076 664 1076ZM540 1225C605 1225 657 1277 657 1342C657 1407 605 1459 540 1459C475 1459 423 1407 423 1342C423 1277 475 1225 540 1225ZM920 1225C985 1225 1037 1277 1037 1342C1037 1407 985 1459 920 1459C855 1459 803 1407 803 1342C803 1277 855 1225 920 1225Z" />
<glyph glyph-name="divide" unicode="&#xf7;" horiz-adv-x="1270" d="M1193 484L1230 665L190 665L153 484ZM764 806C844 806 904 864 904 947C904 1030 844 1088 764 1088C684 1088 624 1030 624 947C624 864 684 806 764 806ZM608 61C689 61 748 119 748 202C748 285 689 343 608 343C527 343 468 285 468 202C468 119 527 61 608 61Z" />
<glyph glyph-name="oslash" unicode="&#xf8;" horiz-adv-x="1133" d="M890 710C898 678 903 643 903 604C903 353 760 163 564 163C500 163 446 185 405 223ZM335 346C327 377 322 413 322 451C322 703 464 893 661 893C725 893 779 871 820 833ZM1169 991L1074 1088L963 976C886 1040 785 1076 664 1076C346 1076 108 803 108 447C108 345 131 256 174 184L56 65L151 -32L262 80C339 16 441 -20 562 -20C879 -20 1117 252 1117 608C1117 710 1094 800 1051 872Z" />
<glyph glyph-name="ugrave" unicode="&#xf9;" horiz-adv-x="1128" d="M1179 1055L965 1055L832 430C799 279 684 174 532 174C400 174 335 232 335 355C335 378 340 425 347 458L474 1055L259 1055L127 424C118 381 112 320 112 278C112 108 235 -20 436 -20C595 -20 727 64 780 154L784 154L751 0L956 0ZM840 1224L691 1529L484 1529L669 1224Z" />
<glyph glyph-name="uacute" unicode="&#xfa;" horiz-adv-x="1128" d="M1179 1055L965 1055L832 430C799 279 684 174 532 174C400 174 335 232 335 355C335 378 340 425 347 458L474 1055L259 1055L127 424C118 381 112 320 112 278C112 108 235 -20 436 -20C595 -20 727 64 780 154L784 154L751 0L956 0ZM850 1224L1165 1529L941 1529L663 1224Z" />
<glyph glyph-name="ucircumflex" unicode="&#xfb;" horiz-adv-x="1128" d="M1179 1055L965 1055L832 430C799 279 684 174 532 174C400 174 335 232 335 355C335 378 340 425 347 458L474 1055L259 1055L127 424C118 381 112 320 112 278C112 108 235 -20 436 -20C595 -20 727 64 780 154L784 154L751 0L956 0ZM902 1528L736 1528L401 1220L592 1220L797 1409L804 1409L927 1220L1106 1220Z" />
<glyph glyph-name="udieresis" unicode="&#xfc;" horiz-adv-x="1128" d="M1179 1055L965 1055L832 430C799 279 684 174 532 174C400 174 335 232 335 355C335 378 340 425 347 458L474 1055L259 1055L127 424C118 381 112 320 112 278C112 108 235 -20 436 -20C595 -20 727 64 780 154L784 154L751 0L956 0ZM584 1225C649 1225 701 1277 701 1342C701 1407 649 1459 584 1459C519 1459 467 1407 467 1342C467 1277 519 1225 584 1225ZM964 1225C1029 1225 1081 1277 1081 1342C1081 1407 1029 1459 964 1459C899 1459 847 1407 847 1342C847 1277 899 1225 964 1225Z" />
<glyph glyph-name="yacute" unicode="&#xfd;" horiz-adv-x="1017" d="M97 -385C275 -385 398 -316 525 -82L1160 1055L927 1055L492 217L488 217L386 1055L172 1055L331 9C331 8 304 -46 304 -48C249 -164 178 -201 102 -201C69 -201 24 -196 6 -189L-27 -372C-7 -378 58 -385 97 -385ZM791 1224L1106 1529L882 1529L604 1224Z" />
<glyph glyph-name="thorn" unicode="&#xfe;" horiz-adv-x="1172" d="M611 174C461 174 364 284 364 441C364 676 497 885 706 885C853 885 941 779 941 605C941 357 798 174 611 174ZM302 207L309 207C348 76 472 -18 632 -18C929 -18 1155 258 1155 631C1155 899 1009 1073 774 1073C639 1073 516 999 451 890L445 890L567 1451L353 1451L-28 -341L185 -341Z" />
<glyph glyph-name="ydieresis" unicode="&#xff;" horiz-adv-x="1017" d="M97 -385C275 -385 398 -316 525 -82L1160 1055L927 1055L492 217L488 217L386 1055L172 1055L331 9C331 8 304 -46 304 -48C249 -164 178 -201 102 -201C69 -201 24 -196 6 -189L-27 -372C-7 -378 58 -385 97 -385ZM525 1225C590 1225 642 1277 642 1342C642 1407 590 1459 525 1459C460 1459 408 1407 408 1342C408 1277 460 1225 525 1225ZM905 1225C970 1225 1022 1277 1022 1342C1022 1407 970 1459 905 1459C840 1459 788 1407 788 1342C788 1277 840 1225 905 1225Z" />
<glyph glyph-name="Amacron" unicode="&#x0100;" horiz-adv-x="1328" d="M859 1192L864 1192L949 571L513 571ZM1021 0L1240 0L1030 1443L785 1443L-43 0L200 0L417 383L971 383ZM1298 1759L644 1759L616 1627L1271 1627Z" />
<glyph glyph-name="amacron" unicode="&#x0101;" horiz-adv-x="1048" d="M461 159C353 159 278 215 278 302C278 397 363 456 507 462L770 475L746 369C718 246 599 159 461 159ZM390 -18C520 -18 631 39 699 128L702 128L675 0L882 0L1026 681C1030 704 1033 737 1033 769C1033 950 878 1076 643 1076C394 1076 218 940 185 743L399 743C419 832 497 891 626 891C751 891 820 834 820 742C820 727 820 713 816 696L802 632L504 618C229 606 65 484 65 274C65 103 210 -18 390 -18ZM1035 1412L437 1412L411 1281L1008 1281Z" />
<glyph glyph-name="Abreve" unicode="&#x0102;" horiz-adv-x="1328" d="M859 1192L864 1192L949 571L513 571ZM1021 0L1240 0L1030 1443L785 1443L-43 0L200 0L417 383L971 383ZM656 1853C651 1832 647 1808 647 1782C647 1639 763 1541 926 1541C1139 1541 1283 1662 1325 1853L1178 1853C1152 1737 1059 1667 948 1667C853 1667 794 1719 794 1806C794 1823 797 1840 801 1853Z" />
<glyph glyph-name="abreve" unicode="&#x0103;" horiz-adv-x="1048" d="M461 159C353 159 278 215 278 302C278 397 363 456 507 462L770 475L746 369C718 246 599 159 461 159ZM390 -18C520 -18 631 39 699 128L702 128L675 0L882 0L1026 681C1030 704 1033 737 1033 769C1033 950 878 1076 643 1076C394 1076 218 940 185 743L399 743C419 832 497 891 626 891C751 891 820 834 820 742C820 727 820 713 816 696L802 632L504 618C229 606 65 484 65 274C65 103 210 -18 390 -18ZM423 1528C418 1506 414 1483 414 1458C414 1312 535 1212 693 1212C904 1212 1049 1332 1092 1528L945 1528C919 1410 825 1339 715 1339C620 1339 561 1392 561 1481C561 1498 564 1514 568 1528Z" />
<glyph glyph-name="Aogonek" unicode="&#x0104;" horiz-adv-x="1328" d="M1140 -285C1122 -293 1095 -297 1067 -297C1005 -297 970 -270 970 -224C970 -155 1051 -73 1214 6L1237 17L1027 1443L783 1443L-43 0L200 0L415 383L968 383L1021 3C873 -81 788 -182 788 -280C788 -379 869 -443 989 -443C1041 -443 1090 -434 1112 -421ZM857 1192L862 1192L947 571L511 571Z" />
<glyph glyph-name="aogonek" unicode="&#x0105;" horiz-adv-x="1048" d="M460 166C351 166 278 220 278 302C278 395 363 456 504 462L771 475L747 369C720 248 604 166 460 166ZM775 -408L803 -272C783 -280 758 -284 730 -284C671 -284 633 -257 633 -211C633 -139 732 -55 867 -8L881 -4L1026 681C1031 703 1034 734 1034 769C1034 947 873 1069 638 1069C398 1069 219 941 186 743L399 743C420 832 502 884 621 884C745 884 821 831 821 742C821 721 820 710 817 696L803 632L508 618C225 606 66 481 66 274C66 112 205 -11 389 -11C523 -11 631 39 699 128L703 128L677 6C529 -74 452 -163 452 -268C452 -364 531 -430 652 -430C706 -430 755 -420 775 -408Z" />
<glyph glyph-name="Cacute" unicode="&#x0106;" horiz-adv-x="1427" d="M1267 950L1490 950C1491 960 1491 969 1490 986C1475 1277 1246 1466 927 1466C482 1466 168 1100 168 598C168 219 402 -23 770 -23C1075 -23 1322 164 1396 452L1173 452C1109 285 960 185 777 185C543 185 399 346 399 609C399 986 610 1259 917 1259C1106 1259 1249 1151 1266 978C1266 965 1267 956 1267 950ZM1047 1561L1372 1857L1141 1857L856 1561Z" />
<glyph glyph-name="cacute" unicode="&#x0107;" horiz-adv-x="1061" d="M658 1076C331 1076 108 806 108 439C108 169 265 -20 552 -20C786 -20 979 140 1026 357L817 357C778 244 684 171 557 171C417 171 325 276 325 448C325 704 460 884 652 884C794 884 876 795 880 684L1086 684C1087 689 1087 689 1087 702C1087 900 935 1076 658 1076ZM804 1224L1119 1529L895 1529L617 1224Z" />
<glyph glyph-name="Ccircumflex" unicode="&#x0108;" horiz-adv-x="1427" d="M1267 950L1490 950C1491 960 1491 969 1490 986C1475 1277 1246 1466 927 1466C482 1466 168 1100 168 598C168 219 402 -23 770 -23C1075 -23 1322 164 1396 452L1173 452C1109 285 960 185 777 185C543 185 399 346 399 609C399 986 610 1259 917 1259C1106 1259 1249 1151 1266 978C1266 965 1267 956 1267 950ZM1088 1863L921 1863L579 1556L774 1556L987 1748L994 1748L1125 1556L1301 1556Z" />
<glyph glyph-name="ccircumflex" unicode="&#x0109;" horiz-adv-x="1061" d="M658 1076C331 1076 108 806 108 439C108 169 265 -20 552 -20C786 -20 979 140 1026 357L817 357C778 244 684 171 557 171C417 171 325 276 325 448C325 704 460 884 652 884C794 884 876 795 880 684L1086 684C1087 689 1087 689 1087 702C1087 900 935 1076 658 1076ZM856 1528L690 1528L355 1220L546 1220L751 1409L758 1409L881 1220L1060 1220Z" />
<glyph glyph-name="Cdotaccent" unicode="&#x010a;" horiz-adv-x="1427" d="M1267 950L1490 950C1491 960 1491 969 1490 986C1475 1277 1246 1466 927 1466C482 1466 168 1100 168 598C168 219 402 -23 770 -23C1075 -23 1322 164 1396 452L1173 452C1109 285 960 185 777 185C543 185 399 346 399 609C399 986 610 1259 917 1259C1106 1259 1249 1151 1266 978C1266 965 1267 956 1267 950ZM986 1611C1060 1611 1119 1672 1119 1747C1119 1821 1060 1883 986 1883C912 1883 852 1821 852 1747C852 1672 912 1611 986 1611Z" />
<glyph glyph-name="cdotaccent" unicode="&#x010b;" horiz-adv-x="1061" d="M658 1076C331 1076 108 806 108 439C108 169 265 -20 552 -20C786 -20 979 140 1026 357L817 357C778 244 684 171 557 171C417 171 325 276 325 448C325 704 460 884 652 884C794 884 876 795 880 684L1086 684C1087 689 1087 689 1087 702C1087 900 935 1076 658 1076ZM728 1221C802 1221 862 1283 862 1357C862 1432 802 1493 728 1493C655 1493 595 1432 595 1357C595 1283 655 1221 728 1221Z" />
<glyph glyph-name="Ccaron" unicode="&#x010c;" horiz-adv-x="1427" d="M1267 950L1490 950C1491 960 1491 969 1490 986C1475 1277 1246 1466 927 1466C482 1466 168 1100 168 598C168 219 402 -23 770 -23C1075 -23 1322 164 1396 452L1173 452C1109 285 960 185 777 185C543 185 399 346 399 609C399 986 610 1259 917 1259C1106 1259 1249 1151 1266 978C1266 965 1267 956 1267 950ZM870 1556L1037 1556L1379 1863L1184 1863L971 1671L965 1671L833 1863L657 1863Z" />
<glyph glyph-name="ccaron" unicode="&#x010d;" horiz-adv-x="1061" d="M658 1076C331 1076 108 806 108 439C108 169 265 -20 552 -20C786 -20 979 140 1026 357L817 357C778 244 684 171 557 171C417 171 325 276 325 448C325 704 460 884 652 884C794 884 876 795 880 684L1086 684C1087 689 1087 689 1087 702C1087 900 935 1076 658 1076ZM798 1220L1132 1528L936 1528L731 1336L724 1336L601 1528L428 1528L631 1220Z" />
<glyph glyph-name="Dcaron" unicode="&#x010e;" horiz-adv-x="1427" d="M376 1443L70 0L659 0C1119 0 1433 355 1433 864C1433 1228 1203 1443 828 1443ZM563 1241L785 1241C1058 1241 1202 1099 1202 834C1202 461 966 202 637 202L338 202ZM747 1554L914 1554L1256 1861L1061 1861L848 1669L842 1669L710 1861L534 1861Z" />
<glyph glyph-name="dcaron" unicode="&#x010f;" horiz-adv-x="1410" d="M1453 1443L1348 948L1496 948L1651 1443ZM491 -18C629 -18 756 57 822 163L827 163L792 0L1005 0L1312 1443L1098 1443L969 850L964 850C931 977 799 1073 634 1073C336 1073 107 796 107 424C107 156 255 -18 491 -18ZM559 171C412 171 324 276 324 446C324 699 467 881 653 881C804 881 900 771 900 615C900 364 754 171 559 171Z" />
<glyph glyph-name="Dcroat" unicode="&#x0110;" horiz-adv-x="1427" d="M338 202L431 632L734 632L775 836L475 836L563 1241L785 1241C1058 1241 1202 1099 1202 834C1202 461 966 202 637 202ZM376 1443L247 836L111 836L70 632L204 632L70 0L659 0C1119 0 1433 355 1433 864C1433 1228 1203 1443 828 1443Z" />
<glyph glyph-name="dcroat" unicode="&#x0111;" horiz-adv-x="1182" d="M559 171C412 171 324 276 324 446C324 699 467 881 653 881C804 881 900 771 900 615C900 364 754 171 559 171ZM1401 1342L1291 1342L1312 1443L1098 1443L1076 1342L837 1342L804 1188L1043 1188L969 850L964 850C931 977 799 1073 634 1073C336 1073 107 796 107 424C107 156 255 -18 491 -18C629 -18 756 57 822 163L827 163L792 0L1005 0L1258 1188L1370 1188Z" />
<glyph glyph-name="Emacron" unicode="&#x0112;" horiz-adv-x="1147" d="M1027 204L338 204L433 637L1085 637L1125 831L472 831L562 1239L1252 1239L1294 1443L376 1443L69 0L987 0ZM1225 1759L571 1759L543 1627L1198 1627Z" />
<glyph glyph-name="emacron" unicode="&#x0113;" horiz-adv-x="1093" d="M343 633C382 782 487 894 638 894C799 894 868 783 868 662C868 653 868 641 867 633ZM553 -22C789 -22 976 128 1031 330L824 330C782 228 689 162 558 162C411 162 317 270 317 441C317 452 317 464 318 476L1067 476C1075 524 1078 581 1078 628C1078 903 909 1076 643 1076C328 1076 108 798 108 448C108 171 264 -22 553 -22ZM1033 1412L435 1412L409 1281L1006 1281Z" />
<glyph glyph-name="Ebreve" unicode="&#x0114;" horiz-adv-x="1147" d="M1027 204L338 204L433 637L1085 637L1125 831L472 831L562 1239L1252 1239L1294 1443L376 1443L69 0L987 0ZM583 1853C578 1832 574 1808 574 1782C574 1639 690 1541 853 1541C1066 1541 1210 1662 1252 1853L1105 1853C1079 1737 986 1667 875 1667C780 1667 721 1719 721 1806C721 1823 724 1840 728 1853Z" />
<glyph glyph-name="ebreve" unicode="&#x0115;" horiz-adv-x="1093" d="M343 633C382 782 487 894 638 894C799 894 868 783 868 662C868 653 868 641 867 633ZM553 -22C789 -22 976 128 1031 330L824 330C782 228 689 162 558 162C411 162 317 270 317 441C317 452 317 464 318 476L1067 476C1075 524 1078 581 1078 628C1078 903 909 1076 643 1076C328 1076 108 798 108 448C108 171 264 -22 553 -22ZM421 1528C416 1506 412 1483 412 1458C412 1312 533 1212 691 1212C902 1212 1047 1332 1090 1528L943 1528C917 1410 823 1339 713 1339C618 1339 559 1392 559 1481C559 1498 562 1514 566 1528Z" />
<glyph glyph-name="Edotaccent" unicode="&#x0116;" horiz-adv-x="1147" d="M1027 204L338 204L433 637L1085 637L1125 831L472 831L562 1239L1252 1239L1294 1443L376 1443L69 0L987 0ZM890 1609C964 1609 1023 1670 1023 1745C1023 1819 964 1881 890 1881C816 1881 756 1819 756 1745C756 1670 816 1609 890 1609Z" />
<glyph glyph-name="edotaccent" unicode="&#x0117;" horiz-adv-x="1093" d="M343 633C382 782 487 894 638 894C799 894 868 783 868 662C868 653 868 641 867 633ZM553 -22C789 -22 976 128 1031 330L824 330C782 228 689 162 558 162C411 162 317 270 317 441C317 452 317 464 318 476L1067 476C1075 524 1078 581 1078 628C1078 903 909 1076 643 1076C328 1076 108 798 108 448C108 171 264 -22 553 -22ZM714 1221C788 1221 848 1283 848 1357C848 1432 788 1493 714 1493C641 1493 581 1432 581 1357C581 1283 641 1221 714 1221Z" />
<glyph glyph-name="Eogonek" unicode="&#x0118;" horiz-adv-x="1147" d="M69 0L781 0L780 -4C640 -80 559 -183 559 -280C559 -378 640 -443 760 -443C812 -443 861 -434 883 -421L911 -285C892 -293 865 -297 838 -297C776 -297 741 -270 741 -224C741 -158 820 -77 965 -1L989 11L1027 204L337 204L433 637L1085 637L1125 831L471 831L562 1239L1252 1239L1294 1443L376 1443Z" />
<glyph glyph-name="eogonek" unicode="&#x0119;" horiz-adv-x="1093" d="M583 -430C636 -430 686 -421 706 -408L733 -272C716 -280 691 -284 660 -284C601 -284 564 -254 564 -208C564 -130 668 -35 849 72C939 127 1001 225 1031 330L824 330C782 228 689 162 558 162C411 162 317 270 317 441C317 452 317 464 318 476L1067 476C1075 524 1078 581 1078 628C1078 903 909 1076 643 1076C328 1076 108 798 108 448C108 171 264 -22 553 -22L560 -22L560 -25C449 -88 382 -170 382 -268C382 -364 461 -430 583 -430ZM343 633C382 782 487 894 638 894C799 894 868 783 868 662C868 653 868 641 867 633Z" />
<glyph glyph-name="Ecaron" unicode="&#x011a;" horiz-adv-x="1147" d="M1027 204L338 204L433 637L1085 637L1125 831L472 831L562 1239L1252 1239L1294 1443L376 1443L69 0L987 0ZM775 1554L942 1554L1284 1861L1089 1861L876 1669L870 1669L738 1861L562 1861Z" />
<glyph glyph-name="ecaron" unicode="&#x011b;" horiz-adv-x="1093" d="M343 633C382 782 487 894 638 894C799 894 868 783 868 662C868 653 868 641 867 633ZM553 -22C789 -22 976 128 1031 330L824 330C782 228 689 162 558 162C411 162 317 270 317 441C317 452 317 464 318 476L1067 476C1075 524 1078 581 1078 628C1078 903 909 1076 643 1076C328 1076 108 798 108 448C108 171 264 -22 553 -22ZM784 1220L1118 1528L922 1528L717 1336L710 1336L587 1528L414 1528L617 1220Z" />
<glyph glyph-name="Gcircumflex" unicode="&#x011c;" horiz-adv-x="1469" d="M1477 749L884 749L845 561L1215 561L1206 519C1163 317 995 182 781 182C533 182 397 355 397 611C397 920 554 1260 922 1260C1128 1260 1259 1142 1272 961L1494 961C1494 967 1494 974 1494 979C1488 1256 1268 1466 924 1466C415 1466 168 1020 168 602C168 231 394 -23 772 -23C1110 -23 1360 181 1434 544ZM1087 1861L920 1861L578 1554L773 1554L986 1746L993 1746L1124 1554L1300 1554Z" />
<glyph glyph-name="gcircumflex" unicode="&#x011d;" horiz-adv-x="1170" d="M471 -398C745 -398 946 -252 1007 32L1221 1055L1011 1055L968 842L960 842C924 975 797 1073 633 1073C302 1073 108 763 108 438C108 176 262 6 494 6C628 6 756 75 820 180L826 180L793 35C750 -138 643 -224 475 -224C346 -224 256 -167 243 -79L27 -79C27 -269 214 -398 471 -398ZM561 185C406 185 323 294 323 453C323 693 454 881 653 881C792 881 899 772 899 615C899 384 769 185 561 185ZM918 1528L752 1528L417 1220L608 1220L813 1409L820 1409L943 1220L1122 1220Z" />
<glyph glyph-name="Gbreve" unicode="&#x011e;" horiz-adv-x="1469" d="M1477 749L884 749L845 561L1215 561L1206 519C1163 317 995 182 781 182C533 182 397 355 397 611C397 920 554 1260 922 1260C1128 1260 1259 1142 1272 961L1494 961C1494 967 1494 974 1494 979C1488 1256 1268 1466 924 1466C415 1466 168 1020 168 602C168 231 394 -23 772 -23C1110 -23 1360 181 1434 544ZM677 1853C672 1832 668 1808 668 1782C668 1639 784 1541 947 1541C1160 1541 1304 1662 1346 1853L1199 1853C1173 1737 1080 1667 969 1667C874 1667 815 1719 815 1806C815 1823 818 1840 822 1853Z" />
<glyph glyph-name="gbreve" unicode="&#x011f;" horiz-adv-x="1170" d="M471 -398C745 -398 946 -252 1007 32L1221 1055L1011 1055L968 842L960 842C924 975 797 1073 633 1073C302 1073 108 763 108 438C108 176 262 6 494 6C628 6 756 75 820 180L826 180L793 35C750 -138 643 -224 475 -224C346 -224 256 -167 243 -79L27 -79C27 -269 214 -398 471 -398ZM561 185C406 185 323 294 323 453C323 693 454 881 653 881C792 881 899 772 899 615C899 384 769 185 561 185ZM497 1528C492 1506 488 1483 488 1458C488 1312 609 1212 767 1212C978 1212 1123 1332 1166 1528L1019 1528C993 1410 899 1339 789 1339C694 1339 635 1392 635 1481C635 1498 638 1514 642 1528Z" />
<glyph glyph-name="Gdotaccent" unicode="&#x0120;" horiz-adv-x="1469" d="M1477 749L884 749L845 561L1215 561L1206 519C1163 317 995 182 781 182C533 182 397 355 397 611C397 920 554 1260 922 1260C1128 1260 1259 1142 1272 961L1494 961C1494 967 1494 974 1494 979C1488 1256 1268 1466 924 1466C415 1466 168 1020 168 602C168 231 394 -23 772 -23C1110 -23 1360 181 1434 544ZM985 1609C1059 1609 1118 1670 1118 1745C1118 1819 1059 1881 985 1881C911 1881 851 1819 851 1745C851 1670 911 1609 985 1609Z" />
<glyph glyph-name="gdotaccent" unicode="&#x0121;" horiz-adv-x="1170" d="M471 -398C745 -398 946 -252 1007 32L1221 1055L1011 1055L968 842L960 842C924 975 797 1073 633 1073C302 1073 108 763 108 438C108 176 262 6 494 6C628 6 756 75 820 180L826 180L793 35C750 -138 643 -224 475 -224C346 -224 256 -167 243 -79L27 -79C27 -269 214 -398 471 -398ZM561 185C406 185 323 294 323 453C323 693 454 881 653 881C792 881 899 772 899 615C899 384 769 185 561 185ZM790 1221C864 1221 924 1283 924 1357C924 1432 864 1493 790 1493C717 1493 657 1432 657 1357C657 1283 717 1221 790 1221Z" />
<glyph glyph-name="Gcommaaccent" unicode="&#x0122;" horiz-adv-x="1469" d="M1477 749L884 749L845 561L1215 561L1206 519C1163 317 995 182 781 182C533 182 397 355 397 611C397 920 554 1260 922 1260C1128 1260 1259 1142 1272 961L1494 961C1494 967 1494 974 1494 979C1488 1256 1268 1466 924 1466C415 1466 168 1020 168 602C168 231 394 -23 772 -23C1110 -23 1360 181 1434 544ZM616 -476L839 -126L640 -126L451 -476Z" />
<glyph glyph-name="gcommaaccent" unicode="&#x0123;" horiz-adv-x="1170" d="M471 -398C745 -398 946 -252 1007 32L1221 1055L1011 1055L968 842L960 842C924 975 797 1073 633 1073C302 1073 108 763 108 438C108 176 262 6 494 6C628 6 756 75 820 180L826 180L793 35C750 -138 643 -224 475 -224C346 -224 256 -167 243 -79L27 -79C27 -269 214 -398 471 -398ZM561 185C406 185 323 294 323 453C323 693 454 881 653 881C792 881 899 772 899 615C899 384 769 185 561 185ZM1013 1532L790 1182L989 1182L1178 1532Z" />
<glyph glyph-name="Hcircumflex" unicode="&#x0124;" horiz-adv-x="1460" d="M1261 0L1568 1443L1339 1443L1209 837L475 837L605 1443L376 1443L69 0L298 0L434 634L1168 634L1032 0ZM1128 1861L961 1861L619 1554L814 1554L1027 1746L1034 1746L1165 1554L1341 1554Z" />
<glyph glyph-name="hcircumflex" unicode="&#x0125;" horiz-adv-x="1145" d="M46 0L261 0L394 630C427 780 543 885 692 885C824 885 904 808 904 696C904 668 900 637 892 602L761 0L975 0L1114 639C1123 684 1128 726 1128 764C1128 932 997 1074 794 1074C635 1074 516 994 454 892L449 892L567 1443L353 1443ZM623 1861L456 1861L114 1554L309 1554L522 1746L529 1746L660 1554L836 1554Z" />
<glyph glyph-name="Hbar" unicode="&#x0126;" horiz-adv-x="1460" d="M1209 837L475 837L522 1054L1256 1054ZM1627 1241L1525 1241L1568 1443L1339 1443L1296 1241L562 1241L605 1443L376 1443L333 1241L225 1241L187 1054L293 1054L69 0L298 0L434 634L1168 634L1032 0L1261 0L1485 1054L1588 1054Z" />
<glyph glyph-name="hbar" unicode="&#x0127;" horiz-adv-x="1145" d="M449 892L514 1196L749 1196L778 1334L544 1334L567 1443L353 1443L330 1334L218 1334L189 1196L300 1196L46 0L261 0L394 630C427 780 543 885 692 885C824 885 904 808 904 696C904 668 900 637 892 602L761 0L975 0L1114 639C1123 684 1128 726 1128 764C1128 932 997 1074 794 1074C635 1074 516 994 454 892Z" />
<glyph glyph-name="Itilde" unicode="&#x0128;" horiz-adv-x="496" d="M296 0L603 1443L376 1443L69 0ZM665 1546C779 1546 873 1650 906 1812L773 1812C753 1723 714 1678 672 1678C597 1678 573 1822 431 1822C312 1822 218 1722 188 1558L322 1558C338 1644 379 1690 424 1690C503 1690 530 1546 665 1546Z" />
<glyph glyph-name="itilde" unicode="&#x0129;" horiz-adv-x="449" d="M51 0L267 0L490 1055L275 1055ZM566 1226C680 1226 774 1330 807 1492L674 1492C654 1403 615 1358 573 1358C498 1358 474 1502 332 1502C213 1502 119 1402 89 1238L223 1238C239 1324 280 1370 325 1370C404 1370 431 1226 566 1226Z" />
<glyph glyph-name="Imacron" unicode="&#x012a;" horiz-adv-x="496" d="M296 0L603 1443L376 1443L69 0ZM885 1759L231 1759L203 1627L858 1627Z" />
<glyph glyph-name="imacron" unicode="&#x012b;" horiz-adv-x="449" d="M51 0L267 0L490 1055L275 1055ZM681 1412L173 1412L151 1281L659 1281Z" />
<glyph glyph-name="Ibreve" unicode="&#x012c;" horiz-adv-x="496" d="M296 0L603 1443L376 1443L69 0ZM243 1853C238 1832 234 1808 234 1782C234 1639 350 1541 513 1541C726 1541 870 1662 912 1853L765 1853C739 1737 646 1667 535 1667C440 1667 381 1719 381 1806C381 1823 384 1840 388 1853Z" />
<glyph glyph-name="ibreve" unicode="&#x012d;" horiz-adv-x="449" d="M51 0L267 0L490 1055L275 1055ZM150 1528C145 1506 141 1483 141 1458C141 1312 262 1212 420 1212C631 1212 776 1332 819 1528L672 1528C646 1410 552 1339 442 1339C347 1339 288 1392 288 1481C288 1498 291 1514 295 1528Z" />
<glyph glyph-name="Iogonek" unicode="&#x012e;" horiz-adv-x="496" d="M111 -443C163 -443 212 -434 234 -421L262 -285C246 -293 220 -297 189 -297C128 -297 92 -270 92 -220C92 -154 144 -81 278 1L299 14L603 1443L376 1443L66 -14L77 -15C-35 -110 -90 -195 -90 -279C-90 -378 -9 -443 111 -443Z" />
<glyph glyph-name="iogonek" unicode="&#x012f;" horiz-adv-x="429" d="M196 -408L224 -272C206 -280 180 -284 151 -284C92 -284 54 -257 54 -211C54 -144 135 -56 231 -7L258 7L481 1055L265 1055L38 -13C-70 -94 -127 -173 -127 -268C-127 -364 -48 -430 73 -430C127 -430 176 -420 196 -408ZM431 1204C501 1204 557 1261 557 1333C557 1405 501 1462 431 1462C361 1462 305 1405 305 1333C305 1261 361 1204 431 1204Z" />
<glyph glyph-name="Idotaccent" unicode="&#x0130;" horiz-adv-x="496" d="M296 0L603 1443L376 1443L69 0ZM551 1609C625 1609 684 1670 684 1745C684 1819 625 1881 551 1881C477 1881 417 1819 417 1745C417 1670 477 1609 551 1609Z" />
<glyph glyph-name="dotlessi" unicode="&#x0131;" horiz-adv-x="449" d="M51 0L267 0L490 1055L275 1055Z" />
<glyph glyph-name="IJ" unicode="&#x0132;" horiz-adv-x="1564" d="M296 0L603 1443L376 1443L69 0ZM556 355C556 135 728 -24 970 -24C1228 -24 1392 126 1447 391L1671 1443L1444 1443L1229 433C1194 271 1115 191 985 191C859 191 779 264 779 383L779 389L557 389C556 380 556 366 556 355Z" />
<glyph glyph-name="ij" unicode="&#x0133;" horiz-adv-x="884" d="M48 0L264 0L487 1055L271 1055ZM438 1204C508 1204 564 1261 564 1333C564 1405 508 1462 438 1462C368 1462 312 1405 312 1333C312 1261 368 1204 438 1204ZM887 1204C957 1204 1012 1261 1012 1333C1012 1405 957 1462 887 1462C817 1462 761 1405 761 1333C761 1261 817 1204 887 1204ZM930 1055L714 1055L479 -47C457 -146 414 -185 323 -185C303 -185 290 -183 270 -181L231 -362C261 -366 305 -369 327 -369C524 -368 646 -273 689 -74Z" />
<glyph glyph-name="Jcircumflex" unicode="&#x0134;" horiz-adv-x="1068" d="M60 355C60 135 232 -24 474 -24C732 -24 896 126 951 391L1175 1443L948 1443L733 433C698 271 619 191 489 191C363 191 283 264 283 383L283 389L61 389C60 380 60 366 60 355ZM1225 1861L1058 1861L716 1554L911 1554L1124 1746L1131 1746L1262 1554L1438 1554Z" />
<glyph glyph-name="jcircumflex" unicode="&#x0135;" horiz-adv-x="442" d="M488 1055L272 1055L37 -47C15 -146 -28 -185 -119 -185C-139 -185 -152 -183 -172 -181L-211 -362C-181 -366 -137 -369 -115 -369C82 -368 204 -273 247 -74ZM572 1528L406 1528L71 1220L262 1220L467 1409L474 1409L597 1220L776 1220Z" />
<glyph glyph-name="Kcommaaccent" unicode="&#x0136;" horiz-adv-x="1295" d="M296 0L396 464L600 646L960 0L1216 0L780 789L1482 1443L1200 1443L463 769L458 769L603 1443L376 1443L69 0ZM457 -476L680 -126L481 -126L292 -476Z" />
<glyph glyph-name="kcommaaccent" unicode="&#x0137;" horiz-adv-x="1012" d="M262 0L343 377L479 485L728 0L965 0L652 613L1166 1055L902 1055L398 628L393 628L569 1443L353 1443L46 0ZM339 -476L562 -126L363 -126L174 -476Z" />
<glyph glyph-name="Lacute" unicode="&#x0139;" horiz-adv-x="1092" d="M1012 206L338 206L603 1443L376 1443L69 0L971 0ZM611 1559L936 1855L705 1855L420 1559Z" />
<glyph glyph-name="lacute" unicode="&#x013a;" horiz-adv-x="451" d="M52 0L268 0L575 1443L359 1443ZM590 1559L915 1855L684 1855L399 1559Z" />
<glyph glyph-name="Lcommaaccent" unicode="&#x013b;" horiz-adv-x="1092" d="M1012 206L338 206L603 1443L376 1443L69 0L971 0ZM370 -476L593 -126L394 -126L205 -476Z" />
<glyph glyph-name="lcommaaccent" unicode="&#x013c;" horiz-adv-x="451" d="M52 0L268 0L575 1443L359 1443ZM9 -476L232 -126L33 -126L-156 -476Z" />
<glyph glyph-name="Lcaron" unicode="&#x013d;" horiz-adv-x="1092" d="M918 1443L813 948L960 948L1115 1443ZM1012 206L338 206L603 1443L376 1443L69 0L971 0Z" />
<glyph glyph-name="lcaron" unicode="&#x013e;" horiz-adv-x="676" d="M720 1443L615 948L762 948L917 1443ZM52 0L268 0L575 1443L359 1443Z" />
<glyph glyph-name="Lslash" unicode="&#x0141;" horiz-adv-x="1092" d="M338 206L432 647L761 802L801 1001L475 847L603 1443L376 1443L224 729L74 658L34 459L181 529L69 0L971 0L1012 206Z" />
<glyph glyph-name="lslash" unicode="&#x0142;" horiz-adv-x="451" d="M575 1443L359 1443L215 765L100 710L58 509L172 564L52 0L268 0L413 680L532 738L574 939L456 882Z" />
<glyph glyph-name="Nacute" unicode="&#x0143;" horiz-adv-x="1448" d="M293 0L527 1082L532 1082L1039 0L1248 0L1555 1443L1331 1443L1097 361L1092 361L584 1443L376 1443L69 0ZM1087 1559L1412 1855L1181 1855L896 1559Z" />
<glyph glyph-name="nacute" unicode="&#x0144;" horiz-adv-x="1129" d="M41 0L256 0L390 630C424 786 540 885 680 885C805 885 888 814 888 700C888 675 884 640 876 602L748 0L963 0L1098 639C1107 685 1112 731 1112 768C1112 948 970 1076 781 1076C631 1076 511 1006 440 892L435 892L470 1055L265 1055ZM857 1224L1172 1529L948 1529L670 1224Z" />
<glyph glyph-name="Ncommaaccent" unicode="&#x0145;" horiz-adv-x="1448" d="M293 0L527 1082L532 1082L1039 0L1248 0L1555 1443L1331 1443L1097 361L1092 361L584 1443L376 1443L69 0ZM512 -476L735 -126L536 -126L347 -476Z" />
<glyph glyph-name="ncommaaccent" unicode="&#x0146;" horiz-adv-x="1129" d="M41 0L256 0L390 630C424 786 540 885 680 885C805 885 888 814 888 700C888 675 884 640 876 602L748 0L963 0L1098 639C1107 685 1112 731 1112 768C1112 948 970 1076 781 1076C631 1076 511 1006 440 892L435 892L470 1055L265 1055ZM349 -476L572 -126L373 -126L184 -476Z" />
<glyph glyph-name="Ncaron" unicode="&#x0147;" horiz-adv-x="1448" d="M293 0L527 1082L532 1082L1039 0L1248 0L1555 1443L1331 1443L1097 361L1092 361L584 1443L376 1443L69 0ZM910 1554L1077 1554L1419 1861L1224 1861L1011 1669L1005 1669L873 1861L697 1861Z" />
<glyph glyph-name="ncaron" unicode="&#x0148;" horiz-adv-x="1129" d="M41 0L256 0L390 630C424 786 540 885 680 885C805 885 888 814 888 700C888 675 884 640 876 602L748 0L963 0L1098 639C1107 685 1112 731 1112 768C1112 948 970 1076 781 1076C631 1076 511 1006 440 892L435 892L470 1055L265 1055ZM851 1220L1185 1528L989 1528L784 1336L777 1336L654 1528L481 1528L684 1220Z" />
<glyph glyph-name="Omacron" unicode="&#x014c;" horiz-adv-x="1530" d="M926 1260C1159 1260 1310 1093 1310 831C1310 473 1091 183 781 183C547 183 397 351 397 613C397 970 615 1260 926 1260ZM778 -23C1215 -23 1539 355 1539 841C1539 1214 1300 1466 927 1466C490 1466 168 1088 168 602C168 229 407 -23 778 -23ZM1340 1759L686 1759L658 1627L1313 1627Z" />
<glyph glyph-name="omacron" unicode="&#x014d;" horiz-adv-x="1133" d="M565 169C418 169 325 281 325 453C325 700 466 887 660 887C807 887 900 774 900 602C900 356 759 169 565 169ZM664 1076C346 1076 108 803 108 447C108 166 286 -20 562 -20C879 -20 1117 252 1117 608C1117 890 939 1076 664 1076ZM1049 1412L451 1412L425 1281L1022 1281Z" />
<glyph glyph-name="Obreve" unicode="&#x014e;" horiz-adv-x="1530" d="M926 1260C1159 1260 1310 1093 1310 831C1310 473 1091 183 781 183C547 183 397 351 397 613C397 970 615 1260 926 1260ZM778 -23C1215 -23 1539 355 1539 841C1539 1214 1300 1466 927 1466C490 1466 168 1088 168 602C168 229 407 -23 778 -23ZM698 1853C693 1832 689 1808 689 1782C689 1639 805 1541 968 1541C1181 1541 1325 1662 1367 1853L1220 1853C1194 1737 1101 1667 990 1667C895 1667 836 1719 836 1806C836 1823 839 1840 843 1853Z" />
<glyph glyph-name="obreve" unicode="&#x014f;" horiz-adv-x="1133" d="M565 169C418 169 325 281 325 453C325 700 466 887 660 887C807 887 900 774 900 602C900 356 759 169 565 169ZM664 1076C346 1076 108 803 108 447C108 166 286 -20 562 -20C879 -20 1117 252 1117 608C1117 890 939 1076 664 1076ZM437 1528C432 1506 428 1483 428 1458C428 1312 549 1212 707 1212C918 1212 1063 1332 1106 1528L959 1528C933 1410 839 1339 729 1339C634 1339 575 1392 575 1481C575 1498 578 1514 582 1528Z" />
<glyph glyph-name="Ohungarumlaut" unicode="&#x0150;" horiz-adv-x="1530" d="M926 1260C1159 1260 1310 1093 1310 831C1310 473 1091 183 781 183C547 183 397 351 397 613C397 970 615 1260 926 1260ZM778 -23C1215 -23 1539 355 1539 841C1539 1214 1300 1466 927 1466C490 1466 168 1088 168 602C168 229 407 -23 778 -23ZM1243 1559L1568 1855L1343 1855L1058 1559ZM887 1559L1212 1855L987 1855L702 1559Z" />
<glyph glyph-name="ohungarumlaut" unicode="&#x0151;" horiz-adv-x="1133" d="M565 169C418 169 325 281 325 453C325 700 466 887 660 887C807 887 900 774 900 602C900 356 759 169 565 169ZM664 1076C346 1076 108 803 108 447C108 166 286 -20 562 -20C879 -20 1117 252 1117 608C1117 890 939 1076 664 1076ZM798 1224L969 1224L1270 1529L1057 1529ZM461 1224L631 1224L933 1529L720 1529Z" />
<glyph glyph-name="OE" unicode="&#x0152;" horiz-adv-x="2244" d="M1180 0L2078 0L2119 204L1427 204L1523 637L2177 637L2216 831L1562 831L1653 1239L2343 1239L2385 1443L1487 1443L1432 1186L1428 1186C1331 1366 1157 1466 930 1466C489 1466 170 1083 170 603C170 226 406 -23 764 -23C935 -23 1094 40 1210 159L1214 159ZM1311 831C1311 474 1093 183 782 183C549 183 399 351 399 613C399 969 617 1260 927 1260C1161 1260 1311 1093 1311 831Z" />
<glyph glyph-name="oe" unicode="&#x0153;" horiz-adv-x="1874" d="M1336 -20C1565 -20 1758 122 1812 330L1606 330C1565 223 1472 162 1345 162C1194 162 1101 273 1101 446C1101 460 1101 469 1101 476L1849 476C1856 519 1860 577 1860 628C1860 900 1695 1076 1438 1076C1276 1076 1121 989 1044 868L1038 868C975 987 857 1076 662 1076C347 1076 108 801 108 447C108 164 285 -20 561 -20C727 -20 879 56 963 189L970 189C1029 61 1166 -20 1336 -20ZM1125 633C1169 792 1279 894 1434 894C1563 894 1651 802 1651 662C1651 649 1650 640 1649 633ZM326 451C326 697 468 888 661 888C806 888 898 777 898 604C898 358 756 167 563 167C417 167 326 278 326 451Z" />
<glyph glyph-name="Racute" unicode="&#x0154;" horiz-adv-x="1292" d="M1242 1855L1011 1855L726 1559L917 1559ZM453 741L563 1246L875 1246C1020 1246 1109 1163 1109 1028C1109 860 971 741 772 741ZM376 1443L69 0L297 0L415 550L740 550L920 0L1156 0L961 579C1201 637 1341 831 1341 1050C1341 1284 1185 1443 907 1443Z" />
<glyph glyph-name="racute" unicode="&#x0155;" horiz-adv-x="733" d="M41 0L255 0L381 594C420 771 510 864 678 864C730 864 787 851 815 838L858 1046C832 1059 786 1071 733 1071C604 1071 508 1008 445 912L441 912L470 1055L265 1055ZM670 1224L985 1529L761 1529L483 1224Z" />
<glyph glyph-name="Rcommaaccent" unicode="&#x0156;" horiz-adv-x="1292" d="M290 -476L455 -476L678 -126L479 -126ZM453 741L563 1246L875 1246C1020 1246 1109 1163 1109 1028C1109 860 971 741 772 741ZM376 1443L69 0L297 0L415 550L740 550L920 0L1156 0L961 579C1201 637 1341 831 1341 1050C1341 1284 1185 1443 907 1443Z" />
<glyph glyph-name="rcommaaccent" unicode="&#x0157;" horiz-adv-x="733" d="M41 0L255 0L381 594C420 771 510 864 678 864C730 864 787 851 815 838L858 1046C832 1059 786 1071 733 1071C604 1071 508 1008 445 912L441 912L470 1055L265 1055ZM3 -476L226 -126L27 -126L-162 -476Z" />
<glyph glyph-name="Rcaron" unicode="&#x0158;" horiz-adv-x="1292" d="M907 1554L1249 1861L1054 1861L841 1669L835 1669L703 1861L527 1861L740 1554ZM453 741L563 1246L875 1246C1020 1246 1109 1163 1109 1028C1109 860 971 741 772 741ZM376 1443L69 0L297 0L415 550L740 550L920 0L1156 0L961 579C1201 637 1341 831 1341 1050C1341 1284 1185 1443 907 1443Z" />
<glyph glyph-name="rcaron" unicode="&#x0159;" horiz-adv-x="733" d="M41 0L255 0L381 594C420 771 510 864 678 864C730 864 787 851 815 838L858 1046C832 1059 786 1071 733 1071C604 1071 508 1008 445 912L441 912L470 1055L265 1055ZM664 1220L998 1528L802 1528L597 1336L590 1336L467 1528L294 1528L497 1220Z" />
<glyph glyph-name="Sacute" unicode="&#x015a;" horiz-adv-x="1255" d="M93 424C102 143 348 -23 664 -23C1013 -23 1205 189 1205 434C1205 623 1085 740 841 815L734 849C570 899 499 961 499 1059C499 1167 597 1267 787 1267C974 1267 1087 1174 1094 1039L1311 1039C1311 1305 1094 1466 787 1466C483 1466 269 1293 269 1035C269 840 388 721 627 647L733 613C904 560 972 503 972 391C972 254 841 176 667 176C466 176 332 278 314 424ZM955 1559L1280 1855L1049 1855L764 1559Z" />
<glyph glyph-name="sacute" unicode="&#x015b;" horiz-adv-x="986" d="M181 751C181 606 263 517 455 455L546 426C672 387 707 359 707 299C707 215 622 151 505 151C368 151 283 219 269 317L59 317C65 121 236 -20 496 -20C744 -20 921 120 921 318C921 457 843 539 653 601L556 632C431 671 389 705 389 771C389 849 464 905 586 905C700 905 784 838 792 745L992 745C989 939 825 1075 589 1075C345 1075 181 941 181 751ZM728 1224L1043 1529L819 1529L541 1224Z" />
<glyph glyph-name="Scircumflex" unicode="&#x015c;" horiz-adv-x="1255" d="M93 424C102 143 348 -23 664 -23C1013 -23 1205 189 1205 434C1205 623 1085 740 841 815L734 849C570 899 499 961 499 1059C499 1167 597 1267 787 1267C974 1267 1087 1174 1094 1039L1311 1039C1311 1305 1094 1466 787 1466C483 1466 269 1293 269 1035C269 840 388 721 627 647L733 613C904 560 972 503 972 391C972 254 841 176 667 176C466 176 332 278 314 424ZM996 1861L829 1861L487 1554L682 1554L895 1746L902 1746L1033 1554L1209 1554Z" />
<glyph glyph-name="scircumflex" unicode="&#x015d;" horiz-adv-x="986" d="M181 751C181 606 263 517 455 455L546 426C672 387 707 359 707 299C707 215 622 151 505 151C368 151 283 219 269 317L59 317C65 121 236 -20 496 -20C744 -20 921 120 921 318C921 457 843 539 653 601L556 632C431 671 389 705 389 771C389 849 464 905 586 905C700 905 784 838 792 745L992 745C989 939 825 1075 589 1075C345 1075 181 941 181 751ZM780 1528L614 1528L279 1220L470 1220L675 1409L682 1409L805 1220L984 1220Z" />
<glyph glyph-name="Scedilla" unicode="&#x015e;" horiz-adv-x="1255" d="M734 849C570 899 499 961 499 1059C499 1167 597 1267 787 1267C974 1267 1087 1174 1094 1039L1311 1039C1311 1305 1094 1466 787 1466C483 1466 269 1293 269 1035C269 840 388 721 627 647L733 613C904 560 972 503 972 391C972 254 841 176 667 176C466 176 332 278 314 424L93 424C101 174 297 15 562 -17L489 -141L470 -226L529 -226C633 -226 676 -244 676 -285C676 -326 632 -349 553 -349C507 -349 459 -341 420 -327L394 -452C435 -467 505 -478 564 -478C719 -478 824 -394 824 -271C824 -178 758 -125 645 -125L708 -22C1029 -5 1205 199 1205 434C1205 623 1085 740 841 815Z" />
<glyph glyph-name="scedilla" unicode="&#x015f;" horiz-adv-x="986" d="M556 632C431 671 389 705 389 771C389 849 464 905 586 905C700 905 784 838 792 745L992 745C989 939 825 1075 589 1075C345 1075 181 941 181 751C181 606 263 517 455 455L546 426C672 387 707 359 707 299C707 215 622 151 505 151C368 151 283 219 269 317L59 317C64 145 197 15 406 -14L331 -141L312 -226L371 -226C475 -226 518 -244 518 -285C518 -326 474 -349 395 -349C349 -349 301 -341 262 -327L236 -452C277 -467 347 -478 406 -478C561 -478 666 -394 666 -271C666 -178 600 -125 487 -125L552 -18C770 2 921 135 921 318C921 457 843 539 653 601Z" />
<glyph glyph-name="Scaron" unicode="&#x0160;" horiz-adv-x="1255" d="M93 424C102 143 348 -23 664 -23C1013 -23 1205 189 1205 434C1205 623 1085 740 841 815L734 849C570 899 499 961 499 1059C499 1167 597 1267 787 1267C974 1267 1087 1174 1094 1039L1311 1039C1311 1305 1094 1466 787 1466C483 1466 269 1293 269 1035C269 840 388 721 627 647L733 613C904 560 972 503 972 391C972 254 841 176 667 176C466 176 332 278 314 424ZM778 1554L945 1554L1287 1861L1092 1861L879 1669L873 1669L741 1861L565 1861Z" />
<glyph glyph-name="scaron" unicode="&#x0161;" horiz-adv-x="986" d="M181 751C181 606 263 517 455 455L546 426C672 387 707 359 707 299C707 215 622 151 505 151C368 151 283 219 269 317L59 317C65 121 236 -20 496 -20C744 -20 921 120 921 318C921 457 843 539 653 601L556 632C431 671 389 705 389 771C389 849 464 905 586 905C700 905 784 838 792 745L992 745C989 939 825 1075 589 1075C345 1075 181 941 181 751ZM722 1220L1056 1528L860 1528L655 1336L648 1336L525 1528L352 1528L555 1220Z" />
<glyph glyph-name="Tcedilla" unicode="&#x0162;" horiz-adv-x="1228" d="M290 1443L249 1239L701 1239L435 0L513 0L430 -141L411 -226L470 -226C574 -226 617 -244 617 -285C617 -326 573 -349 494 -349C448 -349 400 -341 361 -327L335 -452C376 -467 446 -478 505 -478C660 -478 765 -394 765 -271C765 -178 699 -125 586 -125L662 0L663 0L928 1239L1380 1239L1421 1443Z" />
<glyph glyph-name="tcedilla" unicode="&#x0163;" horiz-adv-x="663" d="M509 868L731 868L766 1047L545 1047L600 1307L385 1307L332 1047L175 1047L139 868L295 868L173 308C165 272 163 239 163 211C163 107 220 40 310 10L221 -141L202 -226L261 -226C365 -226 408 -244 408 -285C408 -326 364 -349 285 -349C239 -349 191 -341 152 -327L126 -452C167 -467 237 -478 296 -478C451 -478 556 -394 556 -271C556 -178 490 -125 377 -125L447 -10C485 -10 524 -5 557 1L593 177C572 173 554 172 521 172C437 172 387 202 387 276C387 298 391 327 398 358Z" />
<glyph glyph-name="Tcaron" unicode="&#x0164;" horiz-adv-x="1228" d="M663 0L928 1239L1380 1239L1421 1443L290 1443L249 1239L701 1239L435 0ZM803 1554L970 1554L1312 1861L1117 1861L904 1669L898 1669L766 1861L590 1861Z" />
<glyph glyph-name="tcaron" unicode="&#x0165;" horiz-adv-x="791" d="M835 1702L730 1207L878 1207L1033 1702ZM442 -10C481 -10 523 -5 557 1L593 177C572 173 554 172 521 172C437 172 387 202 387 276C387 298 391 327 398 358L509 868L731 868L766 1047L545 1047L600 1307L385 1307L332 1047L175 1047L139 868L295 868L173 308C165 272 163 239 163 211C163 63 278 -10 442 -10Z" />
<glyph glyph-name="Tbar" unicode="&#x0166;" horiz-adv-x="1228" d="M1380 1239L1421 1443L290 1443L249 1239L701 1239L612 825L288 825L247 621L568 621L435 0L663 0L796 621L1152 621L1193 825L839 825L928 1239Z" />
<glyph glyph-name="tbar" unicode="&#x0167;" horiz-adv-x="663" d="M731 868L766 1047L545 1047L600 1307L385 1307L332 1047L175 1047L139 868L295 868L247 648L90 648L58 496L214 496L173 308C165 272 163 239 163 211C163 63 278 -10 442 -10C481 -10 523 -5 557 1L593 177C572 173 554 172 521 172C437 172 387 202 387 276C387 298 391 327 398 358L428 496L663 496L695 648L461 648L509 868Z" />
<glyph glyph-name="Utilde" unicode="&#x0168;" horiz-adv-x="1443" d="M701 -23C1056 -23 1276 158 1342 463L1550 1443L1323 1443L1124 513C1079 308 928 188 730 188C521 188 413 291 407 453C406 490 410 530 420 573L603 1443L376 1443L191 562C182 519 177 475 178 434C179 175 364 -23 701 -23ZM1123 1546C1237 1546 1331 1650 1364 1812L1231 1812C1211 1723 1172 1678 1130 1678C1055 1678 1031 1822 889 1822C770 1822 676 1722 646 1558L780 1558C796 1644 837 1690 882 1690C961 1690 988 1546 1123 1546Z" />
<glyph glyph-name="utilde" unicode="&#x0169;" horiz-adv-x="1128" d="M1179 1055L965 1055L832 430C799 279 684 174 532 174C400 174 335 232 335 355C335 378 340 425 347 458L474 1055L259 1055L127 424C118 381 112 320 112 278C112 108 235 -20 436 -20C595 -20 727 64 780 154L784 154L751 0L956 0ZM897 1226C1011 1226 1105 1330 1138 1492L1005 1492C985 1403 946 1358 904 1358C829 1358 805 1502 663 1502C544 1502 450 1402 420 1238L554 1238C570 1324 611 1370 656 1370C735 1370 762 1226 897 1226Z" />
<glyph glyph-name="Umacron" unicode="&#x016a;" horiz-adv-x="1443" d="M701 -23C1056 -23 1276 158 1342 463L1550 1443L1323 1443L1124 513C1079 308 928 188 730 188C521 188 413 291 407 453C406 490 410 530 420 573L603 1443L376 1443L191 562C182 519 177 475 178 434C179 175 364 -23 701 -23ZM1343 1759L689 1759L661 1627L1316 1627Z" />
<glyph glyph-name="umacron" unicode="&#x016b;" horiz-adv-x="1128" d="M1179 1055L965 1055L832 430C799 279 684 174 532 174C400 174 335 232 335 355C335 378 340 425 347 458L474 1055L259 1055L127 424C118 381 112 320 112 278C112 108 235 -20 436 -20C595 -20 727 64 780 154L784 154L751 0L956 0ZM1093 1412L495 1412L469 1281L1066 1281Z" />
<glyph glyph-name="Ubreve" unicode="&#x016c;" horiz-adv-x="1443" d="M701 -23C1056 -23 1276 158 1342 463L1550 1443L1323 1443L1124 513C1079 308 928 188 730 188C521 188 413 291 407 453C406 490 410 530 420 573L603 1443L376 1443L191 562C182 519 177 475 178 434C179 175 364 -23 701 -23ZM701 1853C696 1832 692 1808 692 1782C692 1639 808 1541 971 1541C1184 1541 1328 1662 1370 1853L1223 1853C1197 1737 1104 1667 993 1667C898 1667 839 1719 839 1806C839 1823 842 1840 846 1853Z" />
<glyph glyph-name="ubreve" unicode="&#x016d;" horiz-adv-x="1128" d="M1179 1055L965 1055L832 430C799 279 684 174 532 174C400 174 335 232 335 355C335 378 340 425 347 458L474 1055L259 1055L127 424C118 381 112 320 112 278C112 108 235 -20 436 -20C595 -20 727 64 780 154L784 154L751 0L956 0ZM481 1528C476 1506 472 1483 472 1458C472 1312 593 1212 751 1212C962 1212 1107 1332 1150 1528L1003 1528C977 1410 883 1339 773 1339C678 1339 619 1392 619 1481C619 1498 622 1514 626 1528Z" />
<glyph glyph-name="Uring" unicode="&#x016e;" horiz-adv-x="1443" d="M701 -23C1056 -23 1276 158 1342 463L1550 1443L1323 1443L1124 513C1079 308 928 188 730 188C521 188 413 291 407 453C406 490 410 530 420 573L603 1443L376 1443L191 562C182 519 177 475 178 434C179 175 364 -23 701 -23ZM1010 1560C1126 1560 1214 1648 1215 1768C1216 1886 1126 1963 1017 1963C903 1963 813 1876 813 1755C813 1637 903 1560 1010 1560ZM1010 1662C956 1662 915 1700 915 1757C915 1821 957 1862 1017 1862C1073 1862 1112 1824 1113 1766C1114 1703 1071 1662 1010 1662Z" />
<glyph glyph-name="uring" unicode="&#x016f;" horiz-adv-x="1128" d="M1179 1055L965 1055L832 430C799 279 684 174 532 174C400 174 335 232 335 355C335 378 340 425 347 458L474 1055L259 1055L127 424C118 381 112 320 112 278C112 108 235 -20 436 -20C595 -20 727 64 780 154L784 154L751 0L956 0ZM776 1172C892 1172 980 1260 981 1380C982 1498 892 1575 783 1575C669 1575 579 1488 579 1367C579 1249 669 1172 776 1172ZM776 1274C722 1274 681 1312 681 1369C681 1433 723 1474 783 1474C839 1474 878 1436 879 1378C880 1315 837 1274 776 1274Z" />
<glyph glyph-name="Uhungarumlaut" unicode="&#x0170;" horiz-adv-x="1443" d="M701 -23C1056 -23 1276 158 1342 463L1550 1443L1323 1443L1124 513C1079 308 928 188 730 188C521 188 413 291 407 453C406 490 410 530 420 573L603 1443L376 1443L191 562C182 519 177 475 178 434C179 175 364 -23 701 -23ZM1247 1559L1572 1855L1347 1855L1062 1559ZM891 1559L1216 1855L991 1855L706 1559Z" />
<glyph glyph-name="uhungarumlaut" unicode="&#x0171;" horiz-adv-x="1128" d="M1179 1055L965 1055L832 430C799 279 684 174 532 174C400 174 335 232 335 355C335 378 340 425 347 458L474 1055L259 1055L127 424C118 381 112 320 112 278C112 108 235 -20 436 -20C595 -20 727 64 780 154L784 154L751 0L956 0ZM842 1224L1013 1224L1314 1529L1101 1529ZM505 1224L675 1224L977 1529L764 1529Z" />
<glyph glyph-name="Uogonek" unicode="&#x0172;" horiz-adv-x="1443" d="M903 -421L931 -285C912 -293 886 -297 858 -297C796 -297 760 -270 760 -223C760 -146 853 -48 1022 41C1186 128 1299 264 1342 463L1550 1443L1322 1443L1124 512C1079 307 928 188 730 188C521 188 413 290 407 452C407 489 410 529 420 572L603 1443L376 1443L191 562C182 518 177 474 178 433C179 174 366 -24 703 -24C729 -24 759 -22 769 -21L769 -25C640 -102 579 -188 579 -279C579 -378 660 -443 780 -443C832 -443 881 -434 903 -421Z" />
</font>
</defs>
</svg>
