<?xml version="1.0" standalone="no"?><!DOCTYPE svg PUBLIC "-//W3C//DTD SVG 1.1//EN" "http://www.w3.org/Graphics/SVG/1.1/DTD/svg11.dtd" ><svg xmlns="http://www.w3.org/2000/svg"><metadata></metadata><defs>
<font id="SFProDisplay-BlackItalic" >
<font-face font-family="SF Pro Display" font-stretch="normal" units-per-em="2048" weight="900" panose-1="0,0,10,0,0,0,0,0,0,0" ascent="1950" descent="-494" x-height="1104" underline-thickness="260" underline-position="-250" unicode-range="U+00000032-00064258" bbox="-615,-545,2894,2234" />
<missing-glyph horiz-adv-x="2048" d="M-95 -494L1752 -494L1779 -366L-68 -366ZM3 -31L1851 -31L1878 97L31 97ZM102 432L1949 432L1976 561L129 561ZM200 896L2048 896L2075 1024L228 1024ZM299 1359L2146 1359L2173 1487L326 1487ZM397 1822L2244 1822L2272 1950L424 1950Z" />
<glyph glyph-name="space" unicode="&#x20;" horiz-adv-x="412" d="" />
<glyph glyph-name="exclam" unicode="&#x21;" horiz-adv-x="755" d="M393 1443L222 471L570 471L813 1443ZM321 -40C437 -40 533 48 533 160C533 271 437 359 321 359C203 359 108 271 108 160C108 48 203 -40 321 -40Z" />
<glyph glyph-name="quotedbl" unicode="&#x22;" horiz-adv-x="1023" d="M507 826L638 1443L298 1443L167 826ZM1027 826L1158 1443L818 1443L687 826Z" />
<glyph glyph-name="numbersign" unicode="&#x23;" horiz-adv-x="1377" d="M610 0L911 0L1026 357L1250 357L1339 644L1118 644L1174 821L1401 821L1489 1105L1266 1105L1375 1444L1074 1444L965 1105L774 1105L883 1444L584 1444L474 1105L258 1105L169 821L383 821L326 644L109 644L19 357L235 357L120 0L419 0L535 357L726 357ZM588 610L667 854L913 854L832 610Z" />
<glyph glyph-name="dollar" unicode="&#x24;" horiz-adv-x="1413" d="M798 526C890 495 911 466 911 426C911 357 848 309 750 301ZM733 912C667 941 635 980 635 1022C635 1090 692 1135 782 1143ZM872 871L924 1117C973 1092 1004 1049 1006 1000L1379 1000C1375 1209 1225 1366 988 1418L1022 1579L875 1579L845 1436C832 1437 818 1437 805 1437C462 1437 230 1257 230 982C230 804 356 649 589 585L660 566L607 317C541 339 500 382 497 439L111 439C114 213 272 60 543 18L511 -134L658 -134L688 6C693 6 698 6 703 6C1077 6 1311 182 1311 474C1311 654 1206 782 951 850Z" />
<glyph glyph-name="percent" unicode="&#x25;" horiz-adv-x="1863" d="M172 1022C172 816 296 697 511 697C746 697 918 889 918 1152C918 1357 793 1474 574 1474C339 1474 172 1287 172 1022ZM511 921C490 921 480 944 480 993C480 1118 528 1250 574 1250C599 1250 610 1229 610 1179C610 1057 558 921 511 921ZM471 0L1122 692L1829 1443L1519 1443L888 773L161 0ZM1073 299C1073 93 1197 -26 1412 -26C1647 -26 1819 166 1819 429C1819 634 1694 751 1475 751C1240 751 1073 564 1073 299ZM1412 198C1391 198 1381 221 1381 270C1381 395 1429 527 1475 527C1500 527 1511 506 1511 456C1511 334 1459 198 1412 198Z" />
<glyph glyph-name="ampersand" unicode="&#x26;" horiz-adv-x="1526" d="M687 1066C687 1144 748 1206 824 1206C891 1206 937 1163 937 1100C937 1014 887 958 765 907C708 978 687 1021 687 1066ZM625 243C502 243 416 306 416 396C416 474 469 537 567 576C575 579 589 584 604 589L805 284C746 257 685 243 625 243ZM992 0L1386 0L1216 252C1355 396 1439 568 1457 743L1459 762L1138 762L1137 747C1132 669 1101 585 1047 501L902 717C1145 821 1265 959 1265 1136C1265 1319 1071 1456 814 1456C552 1456 356 1306 356 1105C356 1011 391 920 472 806L390 773C166 683 50 542 50 360C50 134 273 -28 585 -28C708 -28 834 2 952 60Z" />
<glyph glyph-name="quotesingle" unicode="&#x27;" horiz-adv-x="502" d="M507 826L638 1443L298 1443L167 826Z" />
<glyph glyph-name="parenleft" unicode="&#x28;" horiz-adv-x="810" d="M628 -313C578 -183 546 17 544 276C539 795 747 1194 1002 1443L579 1443C292 1164 128 766 128 351C128 110 178 -154 257 -313Z" />
<glyph glyph-name="parenright" unicode="&#x29;" horiz-adv-x="810" d="M242 1443C292 1313 324 1113 326 854C331 335 123 -64 -132 -313L291 -313C578 -34 742 364 742 779C742 1020 697 1284 613 1443Z" />
<glyph glyph-name="asterisk" unicode="&#x2a;" horiz-adv-x="966" d="M875 768L1019 955L780 1083L1060 1163L977 1381L734 1239L819 1502L577 1527L567 1251L381 1440L236 1251L472 1121L196 1044L278 829L521 972L433 707L672 682L681 966Z" />
<glyph glyph-name="plus" unicode="&#x2b;" horiz-adv-x="1413" d="M881 414L1275 414L1349 762L955 762L1043 1178L673 1178L585 762L207 762L133 414L511 414L423 -2L793 -2Z" />
<glyph glyph-name="comma" unicode="&#x2c;" horiz-adv-x="615" d="M219 -344L481 273L111 273L-73 -344Z" />
<glyph glyph-name="hyphen" unicode="&#x2d;" horiz-adv-x="830" d="M90 422L740 422L814 770L164 770Z" />
<glyph glyph-name="period" unicode="&#x2e;" horiz-adv-x="618" d="M261 -14C376 -14 469 79 469 194C469 309 376 402 261 402C146 402 53 309 53 194C53 79 146 -14 261 -14Z" />
<glyph glyph-name="slash" unicode="&#x2f;" horiz-adv-x="810" d="M244 -313L1027 1443L627 1443L-156 -313Z" />
<glyph glyph-name="zero" unicode="&#x30;" horiz-adv-x="1452" d="M695 -25C1132 -25 1448 359 1448 889C1448 1236 1221 1468 880 1468C444 1468 132 1088 132 558C132 209 358 -25 695 -25ZM560 568C560 873 703 1145 864 1145C967 1145 1020 1054 1020 878C1020 573 874 298 712 298C612 298 560 391 560 568Z" />
<glyph glyph-name="one" unicode="&#x31;" horiz-adv-x="1066" d="M362 0L786 0L1093 1443L669 1443C669 1443 255 1201 255 1201L178 836C178 836 582 1071 582 1071L590 1071Z" />
<glyph glyph-name="two" unicode="&#x32;" horiz-adv-x="1312" d="M185 974L567 974C589 1087 668 1149 775 1149C864 1149 928 1097 928 1020C928 929 869 869 577 655L79 291L15 0L1142 0L1210 320L644 320L645 328L863 485C1253 766 1341 872 1341 1056C1341 1296 1117 1468 805 1468C465 1468 203 1259 185 974Z" />
<glyph glyph-name="three" unicode="&#x33;" horiz-adv-x="1367" d="M527 591L683 591C797 591 867 539 867 455C867 363 787 297 675 297C545 297 454 387 477 493C477 493 477 493 477 493L89 493C83 462 81 436 81 411C81 147 310 -25 670 -25C1020 -25 1275 162 1275 420C1275 568 1182 678 1026 716L1027 724C1229 750 1371 896 1371 1077C1371 1306 1147 1468 830 1468C511 1468 279 1303 224 1037L605 1037C628 1107 700 1149 795 1149C902 1149 971 1099 971 1023C971 935 891 884 755 884L587 884Z" />
<glyph glyph-name="four" unicode="&#x34;" horiz-adv-x="1423" d="M696 0L1096 0L1141 214L1313 214L1382 538L1210 538L1403 1443L798 1443C481 1078 282 835 98 581L26 214L741 214ZM452 530C587 723 787 974 945 1152L953 1152L819 522L451 522Z" />
<glyph glyph-name="five" unicode="&#x35;" horiz-adv-x="1368" d="M685 -25C1056 -25 1321 219 1321 560C1321 798 1149 977 919 977C782 977 683 934 606 860L598 860L685 1122L1351 1122L1422 1443L421 1443L180 618L557 618C596 669 675 707 740 707C856 707 931 633 931 517C931 393 833 295 709 295C590 295 505 366 498 471C498 471 498 471 498 471L118 471C114 410 116 449 116 425C116 164 355 -25 685 -25Z" />
<glyph glyph-name="six" unicode="&#x36;" horiz-adv-x="1435" d="M1352 515C1352 765 1173 943 923 943C774 943 650 884 571 776L563 776C591 992 719 1146 871 1146C961 1146 1022 1101 1038 1024L1441 1024C1441 1282 1209 1468 888 1468C457 1468 141 1096 141 587C141 201 365 -25 747 -25C1088 -25 1352 211 1352 515ZM759 665C870 665 950 591 950 488C950 375 862 292 742 292C630 292 548 367 548 468C548 581 638 665 759 665Z" />
<glyph glyph-name="seven" unicode="&#x37;" horiz-adv-x="1220" d="M46 0L506 0L1309 1124L1377 1443L267 1443L199 1123L863 1123L863 1115Z" />
<glyph glyph-name="eight" unicode="&#x38;" horiz-adv-x="1430" d="M1343 404C1343 558 1248 678 1087 726L1088 735C1296 762 1432 899 1432 1082C1432 1299 1186 1468 869 1468C529 1468 279 1298 279 1067C279 944 361 840 490 799L488 792C233 748 74 593 74 388C74 145 326 -25 687 -25C1070 -25 1343 154 1343 404ZM726 606C836 606 913 541 913 447C913 344 824 267 705 267C596 267 520 332 520 425C520 528 609 606 726 606ZM679 1018C679 1108 761 1183 859 1183C948 1183 1015 1122 1015 1041C1015 953 932 878 834 878C745 878 679 937 679 1018Z" />
<glyph glyph-name="nine" unicode="&#x39;" horiz-adv-x="1435" d="M803 771C693 771 615 844 615 948C615 1061 703 1144 823 1144C930 1144 1011 1064 1011 958C1011 847 926 771 803 771ZM210 923C210 676 400 494 656 494C810 494 924 548 1004 661L1011 661C996 452 862 296 698 296C602 296 529 338 522 399L117 399C128 159 381 -25 700 -25C1116 -25 1409 327 1409 826C1409 1234 1194 1468 821 1468C468 1468 210 1237 210 923Z" />
<glyph glyph-name="colon" unicode="&#x3a;" horiz-adv-x="618" d="M261 -14C376 -14 469 79 469 194C469 309 376 402 261 402C146 402 53 309 53 194C53 79 146 -14 261 -14ZM408 679C523 679 616 772 616 887C616 1002 523 1095 408 1095C293 1095 200 1002 200 887C200 772 293 679 408 679Z" />
<glyph glyph-name="semicolon" unicode="&#x3b;" horiz-adv-x="618" d="M408 679C523 679 616 772 616 887C616 1002 523 1095 408 1095C293 1095 200 1002 200 887C200 772 293 679 408 679ZM219 -344L481 273L111 273L-73 -344Z" />
<glyph glyph-name="less" unicode="&#x3c;" horiz-adv-x="1413" d="M1199 326L645 565L649 585L1305 824L1391 1227L260 742L194 432L1119 -53Z" />
<glyph glyph-name="equal" unicode="&#x3d;" horiz-adv-x="1413" d="M1214 137L1288 486L150 486L76 137ZM1332 690L1406 1039L268 1039L194 690Z" />
<glyph glyph-name="greater" unicode="&#x3e;" horiz-adv-x="1413" d="M283 848L837 609L833 589L177 350L91 -53L1222 432L1288 742L363 1227Z" />
<glyph glyph-name="question" unicode="&#x3f;" horiz-adv-x="1166" d="M183 1023L555 1023C571 1099 634 1148 703 1148C781 1148 834 1107 834 1043C834 967 788 915 614 839C460 772 403 688 379 502L373 455L735 455L741 483C760 570 810 609 964 676C1157 760 1242 908 1242 1072C1242 1301 1038 1456 720 1456C417 1456 206 1272 183 1023ZM459 -40C575 -40 671 48 671 160C671 271 575 359 459 359C341 359 246 271 246 160C246 48 341 -40 459 -40Z" />
<glyph glyph-name="at" unicode="&#x40;" horiz-adv-x="1851" d="M1065 1448C535 1448 129 1052 129 535C129 73 456 -232 952 -232C992 -232 1029 -230 1069 -225L1110 -31C1097 -34 1058 -38 1019 -38C606 -39 352 184 352 544C352 945 659 1255 1054 1255C1376 1255 1591 1051 1591 747C1591 536 1502 346 1404 346C1364 346 1339 374 1339 419C1339 429 1339 441 1344 463L1455 983L1199 983L1174 856L1154 859C1131 957 1045 1017 928 1017C714 1017 541 805 541 541C541 327 655 187 828 187C925 187 997 229 1056 333L1076 339C1076 330 1075 318 1075 306C1075 211 1184 150 1340 150C1615 150 1819 408 1819 754C1819 1168 1515 1448 1065 1448ZM1089 640C1089 508 1025 407 941 407C874 407 832 462 832 548C832 674 903 779 988 779C1052 779 1089 728 1089 640Z" />
<glyph glyph-name="A" unicode="&#x41;" horiz-adv-x="1494" d="M902 1089L911 1089L933 586L655 586ZM959 0L1394 0L1246 1443L714 1443L-80 0L367 0L508 287L946 287Z" />
<glyph glyph-name="B" unicode="&#x42;" horiz-adv-x="1387" d="M808 0C1122 0 1350 192 1350 460C1350 610 1234 718 1082 753L1083 761C1282 798 1423 942 1423 1136C1423 1308 1280 1443 994 1443L325 1443L18 0ZM682 1180L846 1180C949 1180 1001 1130 1001 1059C1001 960 921 887 800 887L620 887ZM494 291L564 624L750 624C867 624 928 570 928 487C928 368 841 291 700 291Z" />
<glyph glyph-name="C" unicode="&#x43;" horiz-adv-x="1540" d="M1153 862L1564 862C1567 878 1569 901 1569 926C1569 1241 1317 1468 968 1468C454 1468 125 1121 125 580C125 213 377 -25 764 -25C1154 -25 1450 207 1500 552L1089 552C1047 409 934 320 794 320C650 320 562 429 562 606C562 911 712 1127 924 1127C1054 1127 1154 1029 1154 902C1154 872 1154 868 1153 862Z" />
<glyph glyph-name="D" unicode="&#x44;" horiz-adv-x="1492" d="M325 1443L18 0L737 0C1194 0 1498 373 1498 892C1498 1240 1259 1443 925 1443ZM681 1108L824 1108C974 1108 1062 999 1062 838C1062 524 902 336 676 336L518 336Z" />
<glyph glyph-name="E" unicode="&#x45;" horiz-adv-x="1208" d="M1107 336L513 336L563 569L1119 569L1184 873L628 873L677 1107L1270 1107L1342 1443L325 1443L18 0L1036 0Z" />
<glyph glyph-name="F" unicode="&#x46;" horiz-adv-x="1169" d="M460 0L568 511L1083 511L1152 829L636 829L695 1107L1266 1107L1338 1443L325 1443L18 0Z" />
<glyph glyph-name="G" unicode="&#x47;" horiz-adv-x="1539" d="M1544 790L912 790L852 508L1085 508L1085 508C1056 396 951 309 821 309C650 309 557 426 557 614C557 912 712 1134 930 1134C1062 1134 1152 1056 1160 954L1566 954C1567 962 1568 976 1568 986C1568 1238 1312 1468 942 1468C462 1468 126 1104 126 596C126 220 386 -25 771 -25C1180 -25 1446 207 1518 636Z" />
<glyph glyph-name="H" unicode="&#x48;" horiz-adv-x="1572" d="M1374 0L1681 1443L1247 1443L1129 892L641 892L759 1443L325 1443L18 0L452 0L572 562L1060 562L940 0Z" />
<glyph glyph-name="I" unicode="&#x49;" horiz-adv-x="640" d="M442 0L749 1443L325 1443L18 0Z" />
<glyph glyph-name="J" unicode="&#x4a;" horiz-adv-x="1260" d="M38 434C38 156 250 -25 579 -25C891 -25 1091 140 1156 447L1368 1443L944 1443L742 495C719 389 666 335 582 335C494 335 445 394 445 484L445 505L41 505C39 484 38 453 38 434Z" />
<glyph glyph-name="K" unicode="&#x4b;" horiz-adv-x="1457" d="M442 0L520 368L674 530L886 0L1350 0L1028 768L1672 1443L1192 1443L631 853L623 853L749 1443L325 1443L18 0Z" />
<glyph glyph-name="L" unicode="&#x4c;" horiz-adv-x="1154" d="M1103 346L516 346L749 1443L325 1443L18 0L1029 0Z" />
<glyph glyph-name="M" unicode="&#x4d;" horiz-adv-x="1850" d="M393 0L586 908L594 908L714 0L958 0L1460 908L1472 908L1277 0L1652 0L1959 1443L1430 1443L943 538L935 538L816 1443L325 1443L19 0Z" />
<glyph glyph-name="N" unicode="&#x4e;" horiz-adv-x="1509" d="M423 0L590 792L598 792L991 0L1311 0L1618 1443L1213 1443L1046 651L1038 651L645 1443L325 1443L18 0Z" />
<glyph glyph-name="O" unicode="&#x4f;" horiz-adv-x="1586" d="M915 1130C1061 1130 1157 1013 1157 829C1157 543 991 313 797 313C651 313 556 432 556 615C556 899 721 1130 915 1130ZM784 -25C1226 -25 1587 323 1587 854C1587 1203 1348 1468 925 1468C482 1468 126 1118 126 589C126 239 372 -25 784 -25Z" />
<glyph glyph-name="P" unicode="&#x50;" horiz-adv-x="1357" d="M325 1443L20 0L443 0L527 394L732 394C1146 394 1404 626 1404 994C1404 1263 1213 1443 872 1443ZM681 1123L792 1123C913 1123 979 1070 979 956C979 815 883 708 735 708L592 708Z" />
<glyph glyph-name="Q" unicode="&#x51;" horiz-adv-x="1586" d="M1387 -123L1276 146C1474 316 1587 557 1587 854C1587 1203 1348 1468 925 1468C482 1468 126 1118 126 589C126 239 372 -25 784 -25C845 -25 905 -18 962 -5L1009 -123ZM797 313C651 313 556 432 556 615C556 899 721 1130 915 1130C1061 1130 1157 1013 1157 829C1157 720 1133 615 1092 532C1092 532 1092 532 1092 532L751 532L837 317C816 314 806 313 797 313Z" />
<glyph glyph-name="R" unicode="&#x52;" horiz-adv-x="1394" d="M606 774L683 1130L845 1130C962 1130 1026 1079 1026 977C1026 859 937 774 795 774ZM325 1443L18 0L442 0L545 484L694 484L830 0L1272 0L1112 524C1332 610 1451 808 1451 1012C1451 1259 1278 1443 974 1443Z" />
<glyph glyph-name="S" unicode="&#x53;" horiz-adv-x="1384" d="M62 425C63 140 292 -25 681 -25C1062 -25 1322 164 1322 468C1322 676 1210 784 951 859L793 905C677 939 637 979 637 1037C637 1105 709 1155 820 1155C940 1155 1021 1098 1024 1012L1411 1012C1409 1298 1182 1468 810 1468C460 1468 206 1276 206 982C206 785 334 655 575 582L726 536C862 494 889 463 889 410C889 338 812 289 689 289C570 289 475 346 463 425Z" />
<glyph glyph-name="T" unicode="&#x54;" horiz-adv-x="1306" d="M775 0L1010 1107L1411 1107L1483 1443L257 1443L185 1107L586 1107L351 0Z" />
<glyph glyph-name="U" unicode="&#x55;" horiz-adv-x="1501" d="M745 -25C1075 -25 1336 153 1399 452L1608 1443L1184 1443L995 546C965 405 886 332 763 332C651 332 559 398 559 513C559 536 562 562 568 590L749 1443L325 1443L143 586C134 544 130 501 130 463C130 174 364 -25 745 -25Z" />
<glyph glyph-name="V" unicode="&#x56;" horiz-adv-x="1445" d="M907 0L1652 1443L1171 1443L727 427L719 427L700 1443L227 1443L375 0Z" />
<glyph glyph-name="W" unicode="&#x57;" horiz-adv-x="2014" d="M1087 821L1095 821L1141 0L1537 0L2215 1443L1779 1443L1429 544L1421 544L1387 1443L1059 1443L653 544L645 544L669 1443L233 1443L299 0L700 0Z" />
<glyph glyph-name="X" unicode="&#x58;" horiz-adv-x="1476" d="M-64 0L414 0L727 420L735 420L908 0L1361 0L1055 719L1669 1443L1179 1443L872 1030L864 1030L695 1443L241 1443L545 727Z" />
<glyph glyph-name="Y" unicode="&#x59;" horiz-adv-x="1430" d="M838 0L935 457L1637 1443L1178 1443L807 858L799 858L666 1443L227 1443L511 457L414 0Z" />
<glyph glyph-name="Z" unicode="&#x5a;" horiz-adv-x="1281" d="M-18 0L1119 0L1190 336L572 336L572 344L1345 1178L1402 1443L294 1443L222 1107L811 1107L811 1099L39 266Z" />
<glyph glyph-name="bracketleft" unicode="&#x5b;" horiz-adv-x="810" d="M357 1443L-17 -313L642 -313L704 -19L438 -19L687 1149L953 1149L1016 1443Z" />
<glyph glyph-name="backslash" unicode="&#x5c;" horiz-adv-x="810" d="M268 -313L653 -313L602 1443L217 1443Z" />
<glyph glyph-name="bracketright" unicode="&#x5d;" horiz-adv-x="810" d="M513 -313L887 1443L227 1443L165 1149L432 1149L183 -19L-84 -19L-147 -313Z" />
<glyph glyph-name="asciicircum" unicode="&#x5e;" horiz-adv-x="1082" d="M507 1095L525 1095L604 806L936 806L734 1402L405 1402L-56 806L295 806Z" />
<glyph glyph-name="underscore" unicode="&#x5f;" horiz-adv-x="1024" d="M-235 -448L889 -448L963 -100L-161 -100Z" />
<glyph glyph-name="grave" unicode="&#x60;" horiz-adv-x="1048" d="M994 1275L830 1596L483 1596L680 1275Z" />
<glyph glyph-name="a" unicode="&#x61;" horiz-adv-x="1182" d="M530 252C456 252 405 288 405 342C405 405 465 448 555 450L726 454L711 383C695 308 617 252 530 252ZM345 -16C484 -16 597 43 651 130L659 130L631 0L1016 0L1166 706C1171 728 1175 767 1175 795C1175 996 976 1132 683 1132C401 1132 193 991 149 760L506 760C526 818 581 848 655 848C735 848 789 814 789 763C789 756 788 749 785 732L772 668L531 663C217 656 24 512 24 283C24 111 162 -16 345 -16Z" />
<glyph glyph-name="b" unicode="&#x62;" horiz-adv-x="1324" d="M768 -16C1075 -16 1306 292 1306 702C1306 961 1166 1120 940 1120C797 1120 675 1057 607 947L597 947L705 1443L308 1443L0 0L386 0L428 197L436 197C478 67 607 -16 768 -16ZM659 296C566 296 505 369 505 481C505 662 616 820 742 820C835 820 896 747 896 635C896 447 790 296 659 296Z" />
<glyph glyph-name="c" unicode="&#x63;" horiz-adv-x="1200" d="M706 1132C319 1132 80 870 80 446C80 158 282 -28 596 -28C901 -28 1128 161 1161 441L783 441C762 344 700 287 614 287C530 287 475 357 475 463C475 673 561 817 686 817C771 817 824 759 824 667L1202 667C1203 673 1203 678 1203 721C1203 957 992 1132 706 1132Z" />
<glyph glyph-name="d" unicode="&#x64;" horiz-adv-x="1323" d="M439 -16C588 -16 700 40 781 155L789 155L756 0L1142 0L1450 1443L1053 1443L943 927L935 927C898 1049 784 1120 624 1120C307 1120 72 814 72 403C72 144 213 -16 439 -16ZM636 285C544 285 482 360 482 471C482 659 588 809 720 809C812 809 873 735 873 624C873 443 763 285 636 285Z" />
<glyph glyph-name="e" unicode="&#x65;" horiz-adv-x="1234" d="M474 682C500 787 587 858 690 858C785 858 851 798 851 714C851 703 850 687 848 682ZM604 -27C898 -27 1108 128 1165 360L797 360C778 296 711 252 624 252C505 252 435 332 435 434C435 444 436 455 438 466L1190 466C1204 522 1210 596 1210 656C1210 944 1004 1132 708 1132C332 1132 82 856 82 478C82 160 288 -27 604 -27Z" />
<glyph glyph-name="f" unicode="&#x66;" horiz-adv-x="828" d="M87 0L484 0L654 797L856 797L918 1086L706 1086L723 1165C733 1212 774 1240 836 1240C898 1240 928 1234 948 1227L1003 1474C965 1486 868 1505 766 1505C525 1505 386 1422 344 1225L315 1086L153 1086L91 797L258 797Z" />
<glyph glyph-name="g" unicode="&#x67;" horiz-adv-x="1309" d="M514 -417C851 -417 1078 -277 1129 -39L1372 1104L986 1104L944 920L926 920C889 1043 771 1120 621 1120C320 1120 74 807 74 424C74 185 221 25 440 25C581 25 694 77 758 172L778 172L737 -17C717 -113 650 -161 536 -161C430 -161 362 -122 350 -55L-33 -55C-31 -283 171 -417 514 -417ZM632 286C539 286 478 360 478 471C478 658 584 809 715 809C808 809 869 736 869 624C869 443 759 286 632 286Z" />
<glyph glyph-name="h" unicode="&#x68;" horiz-adv-x="1302" d="M0 0L395 0L532 648C554 752 636 824 731 824C818 824 881 768 881 692C881 671 879 650 874 624L743 0L1136 0L1280 685C1290 733 1295 779 1295 820C1295 1003 1161 1126 959 1126C806 1126 682 1057 600 937L592 937L701 1443L307 1443Z" />
<glyph glyph-name="i" unicode="&#x69;" horiz-adv-x="562" d="M-8 0L389 0L624 1104L227 1104ZM480 1169C595 1169 682 1252 682 1361C682 1470 595 1553 480 1553C365 1553 278 1470 278 1361C278 1252 365 1169 480 1169Z" />
<glyph glyph-name="j" unicode="&#x6a;" horiz-adv-x="560" d="M480 1169C595 1169 682 1252 682 1361C682 1470 595 1553 480 1553C365 1553 278 1470 278 1361C278 1252 365 1169 480 1169ZM623 1104L227 1104L-14 -30C-25 -83 -65 -117 -130 -117C-160 -117 -185 -114 -201 -110L-262 -387C-221 -396 -144 -404 -88 -404C150 -404 329 -276 373 -69Z" />
<glyph glyph-name="k" unicode="&#x6b;" horiz-adv-x="1243" d="M396 0L462 312L554 404L735 0L1163 0L872 618L1362 1104L910 1104L557 718L549 718L703 1443L308 1443L0 0Z" />
<glyph glyph-name="l" unicode="&#x6c;" horiz-adv-x="576" d="M0 0L396 0L703 1443L307 1443Z" />
<glyph glyph-name="m" unicode="&#x6d;" horiz-adv-x="1886" d="M-8 0L386 0L525 655C548 762 609 824 690 824C762 824 808 775 808 698C808 677 806 656 801 631L669 0L1045 0L1182 656C1204 761 1266 824 1347 824C1419 824 1465 775 1465 698C1465 677 1463 656 1458 631L1326 0L1720 0L1864 686C1874 734 1879 780 1879 821C1879 1002 1751 1132 1573 1132C1415 1132 1286 1057 1203 936L1195 936C1157 1058 1052 1132 918 1132C780 1132 651 1056 580 929L572 929L610 1104L227 1104Z" />
<glyph glyph-name="n" unicode="&#x6e;" horiz-adv-x="1286" d="M-8 0L386 0L524 648C546 753 625 824 718 824C804 824 865 769 865 692C865 671 863 651 858 624L727 0L1120 0L1264 685C1274 734 1279 779 1279 820C1279 1008 1147 1132 947 1132C800 1132 660 1063 582 937L574 937L610 1104L227 1104Z" />
<glyph glyph-name="o" unicode="&#x6f;" horiz-adv-x="1299" d="M632 275C542 275 482 358 482 481C482 681 583 829 720 829C810 829 869 747 869 623C869 427 766 275 632 275ZM740 1132C354 1132 80 858 80 473C80 174 296 -28 614 -28C1000 -28 1274 246 1274 631C1274 930 1058 1132 740 1132Z" />
<glyph glyph-name="p" unicode="&#x70;" horiz-adv-x="1315" d="M650 296C557 296 496 369 496 481C496 662 607 820 733 820C826 820 887 746 887 635C887 447 781 296 650 296ZM313 -353L431 197L438 197C482 60 593 -16 749 -16C1065 -16 1297 289 1297 702C1297 961 1157 1120 931 1120C793 1120 674 1066 588 950L580 950L613 1104L227 1104L-83 -353Z" />
<glyph glyph-name="q" unicode="&#x71;" horiz-adv-x="1323" d="M637 285C545 285 483 360 483 471C483 659 589 809 721 809C813 809 874 735 874 624C874 443 764 285 637 285ZM1076 -353L1386 1104L999 1104L962 927L954 927C901 1049 779 1120 625 1120C308 1120 73 815 73 403C73 144 214 -16 440 -16C583 -16 697 41 782 155L788 155L679 -353Z" />
<glyph glyph-name="r" unicode="&#x72;" horiz-adv-x="894" d="M-8 0L389 0L511 564C544 716 639 789 770 789C837 789 885 772 936 748L1011 1091C967 1111 922 1120 859 1120C740 1120 642 1047 592 944L584 944L616 1104L229 1104Z" />
<glyph glyph-name="s" unicode="&#x73;" horiz-adv-x="1157" d="M159 760C159 608 256 504 462 434L562 400C661 366 692 344 692 306C692 260 649 233 572 233C471 233 404 284 400 358L26 358C35 121 241 -28 562 -28C879 -28 1084 121 1084 352C1084 500 1004 584 792 656L668 698C563 734 534 754 534 794C534 842 582 872 658 872C744 872 802 826 806 760L1160 760C1152 980 950 1132 664 1132C357 1132 159 986 159 760Z" />
<glyph glyph-name="t" unicode="&#x74;" horiz-adv-x="873" d="M558 -16C620 -16 690 -10 720 -2L780 270C769 266 750 264 708 264C617 264 580 287 580 344C580 356 582 378 585 388L669 781L884 781L946 1071L730 1071L786 1334L390 1334L334 1071L170 1071L106 781L271 781L182 354C172 304 170 260 170 232C170 68 312 -16 558 -16Z" />
<glyph glyph-name="u" unicode="&#x75;" horiz-adv-x="1287" d="M1350 1104L952 1104L818 474C794 360 725 294 631 294C537 294 483 348 483 442C483 463 485 482 488 501L617 1104L221 1104L79 436C70 395 65 344 65 297C65 99 200 -28 411 -28C565 -28 694 49 760 180L768 180L730 0L1115 0Z" />
<glyph glyph-name="v" unicode="&#x76;" horiz-adv-x="1180" d="M153 1105L262 0L726 0L1317 1105L895 1105L566 338L558 338L552 1105Z" />
<glyph glyph-name="w" unicode="&#x77;" horiz-adv-x="1766" d="M1895 1104L1483 1104L1209 357L1201 357L1213 1104L827 1104L525 357L517 357L559 1104L161 1104L205 0L643 0L942 713L950 713L953 0L1387 0Z" />
<glyph glyph-name="x" unicode="&#x78;" horiz-adv-x="1223" d="M589 327L677 0L1103 0L902 550L1344 1104L908 1104L697 777L689 777L601 1104L175 1104L376 554L-66 0L370 0L581 327Z" />
<glyph glyph-name="y" unicode="&#x79;" horiz-adv-x="1206" d="M75 -405C413 -405 617 -284 775 18L1343 1104L921 1104L567 296L559 296L560 1104L153 1104L264 20C265 15 265 5 265 -3C265 -68 207 -100 93 -100L-13 -100L-77 -405Z" />
<glyph glyph-name="z" unicode="&#x7a;" horiz-adv-x="1105" d="M-32 0L963 0L1028 304L574 304L575 312L1124 861L1176 1104L219 1104L154 800L610 800L608 792L12 208Z" />
<glyph glyph-name="braceleft" unicode="&#x7b;" horiz-adv-x="810" d="M159 188L139 98C133 70 124 26 124 -23C124 -151 183 -313 495 -313L642 -313L702 -30L659 -30C575 -30 533 -12 533 67C533 91 537 122 545 159L572 286C577 311 581 336 581 360C581 456 530 539 352 554L357 574C549 590 651 663 684 811L719 970C750 1112 798 1159 913 1159L956 1159L1017 1443L870 1443C553 1443 408 1342 341 1041L319 942C285 787 218 738 76 738L3 391C136 391 171 343 171 275C171 248 166 219 159 188Z" />
<glyph glyph-name="bar" unicode="&#x7c;" horiz-adv-x="810" d="M448 -313L822 1443L422 1443L48 -313Z" />
<glyph glyph-name="braceright" unicode="&#x7d;" horiz-adv-x="810" d="M711 942L731 1032C737 1060 746 1104 746 1153C746 1281 687 1443 375 1443L228 1443L168 1160L211 1160C295 1160 337 1142 337 1063C337 1039 333 1008 325 971L298 844C293 819 289 794 289 770C289 674 340 591 518 576L513 556C321 540 219 467 186 319L151 160C120 18 72 -29 -43 -29L-86 -29L-147 -313L0 -313C317 -313 462 -212 529 89L551 188C585 343 652 392 794 392L867 739C734 739 699 787 699 855C699 882 704 911 711 942Z" />
<glyph glyph-name="asciitilde" unicode="&#x7e;" horiz-adv-x="1413" d="M981 482C1194 482 1311 646 1369 971L1081 971C1060 869 1011 816 956 816C838 816 787 997 573 997C372 997 236 835 178 510L465 510C487 612 534 662 591 662C719 662 766 482 981 482Z" />
<glyph glyph-name="nonbreakingspace" unicode="&#xa0;" horiz-adv-x="412" d="" />
<glyph glyph-name="exclamdown" unicode="&#xa1;" horiz-adv-x="755" d="M417 -340L588 632L240 632L-3 -340ZM489 1143C373 1143 277 1055 277 943C277 832 373 744 489 744C607 744 702 832 702 943C702 1055 607 1143 489 1143Z" />
<glyph glyph-name="cent" unicode="&#xa2;" horiz-adv-x="1413" d="M1293 543L915 543C889 446 825 397 740 397C674 397 594 442 594 581C594 792 677 963 818 963C900 963 960 918 960 822L1336 822C1337 836 1337 850 1337 863C1337 1010 1237 1171 1046 1240L1093 1453L780 1453L740 1266C402 1217 193 927 193 560C193 347 309 191 497 124L451 -94L764 -94L802 92C1095 123 1265 320 1293 543Z" />
<glyph glyph-name="sterling" unicode="&#xa3;" horiz-adv-x="1413" d="M1284 352L670 352L670 356C770 401 830 520 847 625C847 625 847 625 847 625L1125 625L1182 895L836 895C834 915 833 937 833 962C833 1091 947 1148 1078 1148C1264 1148 1367 1100 1409 1080L1472 1395C1416 1421 1265 1483 1003 1483C671 1483 431 1326 431 1037C431 993 435 944 439 895L216 895L159 625L453 625C453 625 453 625 453 625C432 471 277 352 98 352L25 10L1211 10Z" />
<glyph glyph-name="currency" unicode="&#xa4;" horiz-adv-x="1413" d="M548 642C548 753 642 849 753 849C864 849 958 753 958 642C958 531 864 435 753 435C642 435 548 531 548 642ZM1417 1003L1239 1229L1039 1064C957 1120 859 1152 753 1152C698 1152 645 1143 595 1127L497 1249L223 1023L317 906C270 829 243 739 243 642C243 571 258 503 284 442L89 281L267 55L467 220C549 164 647 132 753 132C808 132 861 141 911 157L1009 35L1283 261L1189 378C1236 455 1263 545 1263 642C1263 713 1248 781 1222 842Z" />
<glyph glyph-name="yen" unicode="&#xa5;" horiz-adv-x="1413" d="M1127 155L1169 351L904 351L926 457L1191 457L1233 653L1066 653L1628 1443L1174 1443L797 855L792 855L662 1443L218 1443L446 653L279 653L237 457L502 457L480 351L215 351L173 155L438 155L405 0L829 0L862 155Z" />
<glyph glyph-name="brokenbar" unicode="&#xa6;" horiz-adv-x="810" d="M673 746L822 1443L422 1443L273 746ZM449 -313L596 384L196 384L49 -313Z" />
<glyph glyph-name="section" unicode="&#xa7;" horiz-adv-x="966" d="M460 502C406 533 373 575 373 615C373 654 406 696 453 718L574 649C628 618 661 575 661 536C661 498 627 455 580 433ZM397 -314C670 -314 867 -158 867 57C867 151 830 216 732 292L732 312C892 340 1003 458 1003 600C1003 719 928 820 774 906L595 1006C542 1036 517 1069 517 1108C517 1160 568 1199 636 1199C709 1199 765 1156 765 1086L1092 1086C1086 1323 901 1465 637 1465C360 1465 162 1312 162 1097C162 1001 199 936 299 860L299 840C128 802 27 693 27 547C27 425 99 326 246 247L435 146C487 118 514 84 514 44C514 -8 462 -48 394 -48C323 -48 267 -2 267 57L-61 57C-61 -170 135 -314 397 -314Z" />
<glyph glyph-name="dieresis" unicode="&#xa8;" horiz-adv-x="1048" d="M524 1255C610 1255 673 1318 673 1396C673 1474 610 1537 524 1537C438 1537 375 1474 375 1396C375 1318 438 1255 524 1255ZM942 1255C1028 1255 1091 1318 1091 1396C1091 1474 1028 1537 942 1537C856 1537 793 1474 793 1396C793 1318 856 1255 942 1255Z" />
<glyph glyph-name="copyright" unicode="&#xa9;" horiz-adv-x="1677" d="M882 -105C1314 -105 1676 254 1676 684C1676 1124 1344 1453 902 1453C470 1453 108 1094 108 664C108 224 440 -105 882 -105ZM882 72C544 72 295 324 295 664C295 994 574 1276 902 1276C1240 1276 1489 1024 1489 684C1489 354 1210 72 882 72ZM1260 729C1284 907 1139 1050 934 1050C707 1050 539 870 539 627C539 430 677 294 876 294C1056 294 1182 389 1229 561L978 561C952 511 924 492 881 492C819 492 786 534 786 614C786 746 850 852 930 852C991 852 1023 808 1018 729Z" />
<glyph glyph-name="ordfeminine" unicode="&#xaa;" horiz-adv-x="818" d="M510 1000L594 1000L585 958C575 908 539 876 495 876C451 876 423 900 423 935C423 974 455 1000 510 1000ZM137 896C137 768 226 682 361 682C435 682 499 715 536 770L552 769L539 693L819 693L919 1161C923 1181 925 1202 925 1218C925 1364 784 1465 573 1465C385 1465 268 1386 227 1224L494 1224C503 1247 534 1260 569 1260C611 1260 640 1241 640 1208C640 1206 640 1202 636 1184C633 1174 630 1161 626 1147C626 1147 454 1147 454 1147C256 1147 137 1052 137 896Z" />
<glyph glyph-name="guillemotleft" unicode="&#xab;" horiz-adv-x="1479" d="M727 156L468 550L469 556L902 977L535 977L131 571L129 563C129 563 389 156 389 156ZM1312 156L1053 550L1054 556L1487 977L1120 977L716 571L714 563C714 563 974 156 974 156Z" />
<glyph glyph-name="logicalnot" unicode="&#xac;" horiz-adv-x="1413" d="M1349 762L207 762L133 414L913 414L826 5L1188 5Z" />
<glyph glyph-name="registered" unicode="&#xae;" horiz-adv-x="1194" d="M634 841L665 991L719 991L780 841L947 841L876 1003C950 1027 999 1089 999 1161C999 1250 928 1318 837 1318L583 1318L482 841ZM711 1202L783 1202C819 1202 839 1185 839 1154C839 1120 813 1098 771 1098L689 1098ZM735 537C1041 537 1273 769 1273 1075C1273 1381 1041 1613 735 1613C429 1613 197 1381 197 1075C197 769 429 537 735 537ZM735 694C520 694 364 854 364 1075C364 1296 520 1456 735 1456C950 1456 1106 1296 1106 1075C1106 854 950 694 735 694Z" />
<glyph glyph-name="macron" unicode="&#xaf;" horiz-adv-x="1048" d="M1095 1456L391 1456L353 1276L1057 1276Z" />
<glyph glyph-name="degree" unicode="&#xb0;" horiz-adv-x="786" d="M538 753C739 753 890 904 890 1105C890 1306 740 1456 538 1456C337 1456 186 1306 186 1105C186 904 338 753 538 753ZM539 968C466 968 407 1032 407 1105C407 1180 467 1241 539 1241C613 1241 669 1180 669 1105C669 1032 614 968 539 968Z" />
<glyph glyph-name="plusminus" unicode="&#xb1;" horiz-adv-x="1413" d="M1111 37L1172 325C1172 325 196 325 196 325L135 37C135 37 1111 37 1111 37ZM928 640L1243 640L1306 936L991 936L1031 1124L680 1124L640 936L326 936L263 640L577 640L537 452L888 452Z" />
<glyph glyph-name="two.sups" unicode="&#xb2;" horiz-adv-x="700" d="M644 1290C854 1421 911 1484 911 1588C911 1719 784 1811 604 1811C408 1811 254 1690 249 1532L518 1532L519 1540C522 1570 546 1593 574 1593C600 1593 618 1578 618 1557C618 1523 588 1497 427 1391L223 1269L178 1065L800 1065L846 1283L633 1283Z" />
<glyph glyph-name="three.sups" unicode="&#xb3;" horiz-adv-x="738" d="M470 1340L565 1340C587 1340 603 1325 603 1306C603 1285 583 1270 554 1270C521 1270 501 1284 498 1309L498 1309L221 1309C219 1303 219 1300 219 1282C218 1128 341 1039 556 1039C751 1039 880 1130 880 1268C880 1347 832 1406 761 1421L762 1427C852 1438 931 1505 931 1593C931 1722 805 1811 622 1811C439 1811 312 1722 279 1571L547 1571C550 1586 574 1599 599 1599C630 1599 652 1583 652 1561C652 1534 630 1521 585 1521L509 1521Z" />
<glyph glyph-name="acute" unicode="&#xb4;" horiz-adv-x="1048" d="M729 1275L1063 1596L715 1596L415 1275Z" />
<glyph glyph-name="mugreek" unicode="&#xb5;" horiz-adv-x="1382" d="M-84 -353L313 -353L391 12L399 12C427 -10 468 -21 519 -21C649 -21 771 71 816 204L825 204C825 202 825 200 825 198C825 63 921 -10 1100 -10C1162 -10 1241 2 1275 13L1332 280C1321 276 1289 270 1273 270C1220 270 1196 291 1196 337C1196 348 1198 359 1203 388L1356 1104L958 1104L827 490C801 368 731 299 634 299C543 299 491 355 491 451C491 474 494 499 500 527L623 1104L226 1104Z" />
<glyph glyph-name="paragraph" unicode="&#xb6;" horiz-adv-x="1689" d="M829 -290L1198 1443L818 1442C433 1422 192 1176 192 823C192 591 332 410 589 365L449 -290ZM1019 -290L1399 -290L1768 1443L1388 1443Z" />
<glyph glyph-name="periodcentered" unicode="&#xb7;" horiz-adv-x="618" d="M337 344C452 344 545 437 545 552C545 667 452 760 337 760C222 760 129 667 129 552C129 437 222 344 337 344Z" />
<glyph glyph-name="cedilla" unicode="&#xb8;" horiz-adv-x="1069" d="M226 -211L284 -211C367 -211 395 -221 395 -250C395 -281 357 -297 283 -297C242 -297 198 -292 173 -285L138 -446C162 -455 216 -461 276 -461C465 -461 604 -361 604 -225C604 -141 556 -89 466 -76L528 0L531 16L340 16L255 -86Z" />
<glyph glyph-name="one.sups" unicode="&#xb9;" horiz-adv-x="590" d="M341 1065L645 1065L799 1785L494 1785L298 1677L247 1435L436 1538L442 1538Z" />
<glyph glyph-name="ordmasculine" unicode="&#xba;" horiz-adv-x="878" d="M541 671C797 671 972 849 972 1109C972 1331 838 1465 612 1465C359 1465 179 1281 179 1019C179 804 317 671 541 671ZM679 1125C679 999 618 891 546 891C498 891 474 934 474 1008C474 1133 535 1246 607 1246C652 1246 679 1201 679 1125Z" />
<glyph glyph-name="guillemotright" unicode="&#xbb;" horiz-adv-x="1479" d="M813 977L1072 583L1071 577L638 156L1005 156L1409 562L1411 570C1411 570 1151 977 1151 977ZM228 977L487 583L486 577L53 156L420 156L824 562L826 570C826 570 566 977 566 977Z" />
<glyph glyph-name="onequarter" unicode="&#xbc;" horiz-adv-x="1797" d="M269 723L573 723L727 1443L422 1443L226 1335L175 1093L364 1196L370 1196ZM405 0L1056 692L1763 1443L1453 1443L822 773L95 0ZM1315 0L1600 0L1616 76L1688 76L1736 298L1663 298L1753 720L1325 720C1176 546 1116 469 1022 332L967 76L1331 76ZM1261 289C1291 348 1366 451 1432 526L1437 526L1385 283L1260 283Z" />
<glyph glyph-name="onehalf" unicode="&#xbd;" horiz-adv-x="1812" d="M370 1196L269 723L573 723L727 1443L422 1443L226 1335L175 1093L364 1196ZM1453 1443L822 773L95 0L405 0L1056 692L1763 1443ZM1530 225C1740 356 1797 419 1797 523C1797 654 1670 746 1490 746C1294 746 1140 625 1135 467L1404 467L1405 475C1408 505 1432 528 1460 528C1486 528 1504 513 1504 492C1504 458 1474 432 1313 326L1109 204L1064 0L1686 0L1732 218L1519 218Z" />
<glyph glyph-name="threequarters" unicode="&#xbe;" horiz-adv-x="1893" d="M398 998L493 998C515 998 531 983 531 964C531 943 511 928 482 928C449 928 429 942 426 967L426 967L149 967C147 961 147 958 147 940C146 786 269 697 484 697C679 697 808 788 808 926C808 1005 760 1064 689 1079L690 1085C780 1096 859 1163 859 1251C859 1380 733 1469 550 1469C367 1469 240 1380 207 1229L475 1229C478 1244 502 1257 527 1257C558 1257 580 1241 580 1219C580 1192 558 1179 513 1179L437 1179ZM501 0L1152 692L1859 1443L1549 1443L918 773L191 0ZM1411 0L1696 0L1712 76L1784 76L1832 298L1759 298L1849 720L1421 720C1272 546 1212 469 1118 332L1063 76L1427 76ZM1357 289C1387 348 1462 451 1528 526L1533 526L1481 283L1356 283Z" />
<glyph glyph-name="questiondown" unicode="&#xbf;" horiz-adv-x="1166" d="M1038 80L666 80C650 4 587 -45 518 -45C440 -45 387 -4 387 60C387 136 433 188 607 264C761 331 818 415 842 601L848 648L486 648L480 620C461 533 411 494 257 427C64 343 -21 195 -21 31C-21 -198 183 -353 501 -353C804 -353 1015 -169 1038 80ZM762 1143C646 1143 550 1055 550 943C550 832 646 744 762 744C880 744 975 832 975 943C975 1055 880 1143 762 1143Z" />
<glyph glyph-name="Agrave" unicode="&#xc0;" horiz-adv-x="1494" d="M902 1089L911 1089L933 586L655 586ZM959 0L1394 0L1246 1443L714 1443L-80 0L367 0L508 287L946 287ZM862 1555L1152 1555L988 1876L656 1876Z" />
<glyph glyph-name="Aacute" unicode="&#xc1;" horiz-adv-x="1494" d="M902 1089L911 1089L933 586L655 586ZM959 0L1394 0L1246 1443L714 1443L-80 0L367 0L508 287L946 287ZM1168 1555L1510 1876L1146 1876L846 1555Z" />
<glyph glyph-name="Acircumflex" unicode="&#xc2;" horiz-adv-x="1494" d="M902 1089L911 1089L933 586L655 586ZM959 0L1394 0L1246 1443L714 1443L-80 0L367 0L508 287L946 287ZM1229 1872L915 1872L588 1536L864 1536L1037 1728L1045 1728L1136 1536L1412 1536Z" />
<glyph glyph-name="Atilde" unicode="&#xc3;" horiz-adv-x="1494" d="M902 1089L911 1089L933 586L655 586ZM959 0L1394 0L1246 1443L714 1443L-80 0L367 0L508 287L946 287ZM1179 1546C1318 1546 1434 1664 1473 1844L1268 1844C1250 1775 1221 1738 1179 1738C1100 1738 1064 1857 918 1857C777 1857 662 1742 625 1564L830 1564C847 1627 878 1665 918 1665C997 1665 1033 1546 1179 1546Z" />
<glyph glyph-name="Adieresis" unicode="&#xc4;" horiz-adv-x="1494" d="M902 1089L911 1089L933 586L655 586ZM959 0L1394 0L1246 1443L714 1443L-80 0L367 0L508 287L946 287ZM826 1559C912 1559 975 1622 975 1700C975 1778 912 1841 826 1841C740 1841 677 1778 677 1700C677 1622 740 1559 826 1559ZM1244 1559C1330 1559 1393 1622 1393 1700C1393 1778 1330 1841 1244 1841C1158 1841 1095 1778 1095 1700C1095 1622 1158 1559 1244 1559Z" />
<glyph glyph-name="Aring" unicode="&#xc5;" horiz-adv-x="1494" d="M902 1089L911 1089L933 586L655 586ZM959 0L1394 0L1246 1443L714 1443L-80 0L367 0L508 287L946 287ZM1074 1574C1206 1574 1317 1680 1317 1809C1317 1939 1206 2045 1074 2045C942 2045 830 1939 830 1809C830 1680 942 1574 1074 1574ZM1074 1725C1027 1725 986 1763 986 1809C986 1856 1027 1895 1074 1895C1121 1895 1162 1856 1162 1809C1162 1763 1121 1725 1074 1725Z" />
<glyph glyph-name="AE" unicode="&#xc6;" horiz-adv-x="2086" d="M1119 1129L1004 586L704 586L1007 1129ZM879 0L1898 0L1969 336L1326 336L1376 569L1982 569L2047 873L1441 873L1490 1107L2133 1107L2205 1443L798 1443L-49 0L377 0L537 286L940 286Z" />
<glyph glyph-name="Ccedilla" unicode="&#xc7;" horiz-adv-x="1540" d="M1564 862C1567 878 1569 901 1569 926C1569 1241 1317 1468 968 1468C454 1468 125 1121 125 580C125 253 326 28 644 -17L586 -86L557 -211L615 -211C698 -211 726 -221 726 -250C726 -281 688 -297 614 -297C573 -297 529 -292 504 -285L469 -446C493 -455 547 -461 607 -461C796 -461 935 -361 935 -225C935 -141 887 -89 797 -76L841 -22C1193 7 1453 230 1500 552L1089 552C1047 409 934 320 794 320C650 320 562 429 562 606C562 911 712 1127 924 1127C1054 1127 1154 1029 1154 902C1154 872 1154 868 1153 862Z" />
<glyph glyph-name="Egrave" unicode="&#xc8;" horiz-adv-x="1208" d="M1107 336L513 336L563 569L1119 569L1184 873L628 873L677 1107L1270 1107L1342 1443L325 1443L18 0L1036 0ZM689 1555L979 1555L815 1876L483 1876Z" />
<glyph glyph-name="Eacute" unicode="&#xc9;" horiz-adv-x="1208" d="M1107 336L513 336L563 569L1119 569L1184 873L628 873L677 1107L1270 1107L1342 1443L325 1443L18 0L1036 0ZM995 1555L1337 1876L973 1876L673 1555Z" />
<glyph glyph-name="Ecircumflex" unicode="&#xca;" horiz-adv-x="1208" d="M1107 336L513 336L563 569L1119 569L1184 873L628 873L677 1107L1270 1107L1342 1443L325 1443L18 0L1036 0ZM1056 1872L742 1872L415 1536L691 1536L864 1728L872 1728L963 1536L1239 1536Z" />
<glyph glyph-name="Edieresis" unicode="&#xcb;" horiz-adv-x="1208" d="M1107 336L513 336L563 569L1119 569L1184 873L628 873L677 1107L1270 1107L1342 1443L325 1443L18 0L1036 0ZM653 1559C739 1559 802 1622 802 1700C802 1778 739 1841 653 1841C567 1841 504 1778 504 1700C504 1622 567 1559 653 1559ZM1071 1559C1157 1559 1220 1622 1220 1700C1220 1778 1157 1841 1071 1841C985 1841 922 1778 922 1700C922 1622 985 1559 1071 1559Z" />
<glyph glyph-name="Igrave" unicode="&#xcc;" horiz-adv-x="640" d="M442 0L749 1443L325 1443L18 0ZM419 1555L709 1555L545 1876L213 1876Z" />
<glyph glyph-name="Iacute" unicode="&#xcd;" horiz-adv-x="640" d="M442 0L749 1443L325 1443L18 0ZM725 1555L1067 1876L703 1876L403 1555Z" />
<glyph glyph-name="Icircumflex" unicode="&#xce;" horiz-adv-x="640" d="M442 0L749 1443L325 1443L18 0ZM786 1872L472 1872L145 1536L421 1536L594 1728L602 1728L693 1536L969 1536Z" />
<glyph glyph-name="Idieresis" unicode="&#xcf;" horiz-adv-x="640" d="M442 0L749 1443L325 1443L18 0ZM383 1559C469 1559 532 1622 532 1700C532 1778 469 1841 383 1841C297 1841 234 1778 234 1700C234 1622 297 1559 383 1559ZM801 1559C887 1559 950 1622 950 1700C950 1778 887 1841 801 1841C715 1841 652 1778 652 1700C652 1622 715 1559 801 1559Z" />
<glyph glyph-name="Eth" unicode="&#xd0;" horiz-adv-x="1492" d="M518 336L565 557L753 557L825 893L636 893L681 1108L824 1108C974 1108 1062 999 1062 838C1062 524 902 336 676 336ZM325 1443L208 893L100 893L28 557L137 557L18 0L737 0C1194 0 1498 373 1498 892C1498 1240 1259 1443 925 1443Z" />
<glyph glyph-name="Ntilde" unicode="&#xd1;" horiz-adv-x="1509" d="M423 0L590 792L598 792L991 0L1311 0L1618 1443L1213 1443L1046 651L1038 651L645 1443L325 1443L18 0ZM1125 1546C1264 1546 1380 1664 1419 1844L1214 1844C1196 1775 1167 1738 1125 1738C1046 1738 1010 1857 864 1857C723 1857 608 1742 571 1564L776 1564C793 1627 824 1665 864 1665C943 1665 979 1546 1125 1546Z" />
<glyph glyph-name="Ograve" unicode="&#xd2;" horiz-adv-x="1586" d="M915 1130C1061 1130 1157 1013 1157 829C1157 543 991 313 797 313C651 313 556 432 556 615C556 899 721 1130 915 1130ZM784 -25C1226 -25 1587 323 1587 854C1587 1203 1348 1468 925 1468C482 1468 126 1118 126 589C126 239 372 -25 784 -25ZM819 1555L1109 1555L945 1876L613 1876Z" />
<glyph glyph-name="Oacute" unicode="&#xd3;" horiz-adv-x="1586" d="M915 1130C1061 1130 1157 1013 1157 829C1157 543 991 313 797 313C651 313 556 432 556 615C556 899 721 1130 915 1130ZM784 -25C1226 -25 1587 323 1587 854C1587 1203 1348 1468 925 1468C482 1468 126 1118 126 589C126 239 372 -25 784 -25ZM1125 1555L1467 1876L1103 1876L803 1555Z" />
<glyph glyph-name="Ocircumflex" unicode="&#xd4;" horiz-adv-x="1586" d="M915 1130C1061 1130 1157 1013 1157 829C1157 543 991 313 797 313C651 313 556 432 556 615C556 899 721 1130 915 1130ZM784 -25C1226 -25 1587 323 1587 854C1587 1203 1348 1468 925 1468C482 1468 126 1118 126 589C126 239 372 -25 784 -25ZM1186 1872L872 1872L545 1536L821 1536L994 1728L1002 1728L1093 1536L1369 1536Z" />
<glyph glyph-name="Otilde" unicode="&#xd5;" horiz-adv-x="1586" d="M915 1130C1061 1130 1157 1013 1157 829C1157 543 991 313 797 313C651 313 556 432 556 615C556 899 721 1130 915 1130ZM784 -25C1226 -25 1587 323 1587 854C1587 1203 1348 1468 925 1468C482 1468 126 1118 126 589C126 239 372 -25 784 -25ZM1136 1546C1275 1546 1391 1664 1430 1844L1225 1844C1207 1775 1178 1738 1136 1738C1057 1738 1021 1857 875 1857C734 1857 619 1742 582 1564L787 1564C804 1627 835 1665 875 1665C954 1665 990 1546 1136 1546Z" />
<glyph glyph-name="Odieresis" unicode="&#xd6;" horiz-adv-x="1586" d="M915 1130C1061 1130 1157 1013 1157 829C1157 543 991 313 797 313C651 313 556 432 556 615C556 899 721 1130 915 1130ZM784 -25C1226 -25 1587 323 1587 854C1587 1203 1348 1468 925 1468C482 1468 126 1118 126 589C126 239 372 -25 784 -25ZM783 1559C869 1559 932 1622 932 1700C932 1778 869 1841 783 1841C697 1841 634 1778 634 1700C634 1622 697 1559 783 1559ZM1201 1559C1287 1559 1350 1622 1350 1700C1350 1778 1287 1841 1201 1841C1115 1841 1052 1778 1052 1700C1052 1622 1115 1559 1201 1559Z" />
<glyph glyph-name="multiply" unicode="&#xd7;" horiz-adv-x="1413" d="M911 42L1196 234L967 565L1303 810L1116 1079L781 833L571 1136L288 944L508 626L176 379L362 112L693 359Z" />
<glyph glyph-name="Oslash" unicode="&#xd8;" horiz-adv-x="1586" d="M1156 855C1157 847 1157 838 1157 829C1157 543 991 313 797 313C744 313 697 329 659 358ZM557 588C556 597 556 606 556 615C556 899 721 1130 915 1130C969 1130 1016 1114 1054 1085ZM1636 1335L1470 1501L1329 1360C1224 1429 1088 1468 925 1468C482 1468 126 1118 126 589C126 462 158 347 219 251L76 108L243 -58L385 84C490 15 624 -25 784 -25C1226 -25 1587 323 1587 854C1587 981 1555 1097 1494 1193Z" />
<glyph glyph-name="Ugrave" unicode="&#xd9;" horiz-adv-x="1501" d="M745 -25C1075 -25 1336 153 1399 452L1608 1443L1184 1443L995 546C965 405 886 332 763 332C651 332 559 398 559 513C559 536 562 562 568 590L749 1443L325 1443L143 586C134 544 130 501 130 463C130 174 364 -25 745 -25ZM839 1555L1129 1555L965 1876L633 1876Z" />
<glyph glyph-name="Uacute" unicode="&#xda;" horiz-adv-x="1501" d="M745 -25C1075 -25 1336 153 1399 452L1608 1443L1184 1443L995 546C965 405 886 332 763 332C651 332 559 398 559 513C559 536 562 562 568 590L749 1443L325 1443L143 586C134 544 130 501 130 463C130 174 364 -25 745 -25ZM1145 1555L1487 1876L1123 1876L823 1555Z" />
<glyph glyph-name="Ucircumflex" unicode="&#xdb;" horiz-adv-x="1501" d="M745 -25C1075 -25 1336 153 1399 452L1608 1443L1184 1443L995 546C965 405 886 332 763 332C651 332 559 398 559 513C559 536 562 562 568 590L749 1443L325 1443L143 586C134 544 130 501 130 463C130 174 364 -25 745 -25ZM1206 1872L892 1872L565 1536L841 1536L1014 1728L1022 1728L1113 1536L1389 1536Z" />
<glyph glyph-name="Udieresis" unicode="&#xdc;" horiz-adv-x="1501" d="M745 -25C1075 -25 1336 153 1399 452L1608 1443L1184 1443L995 546C965 405 886 332 763 332C651 332 559 398 559 513C559 536 562 562 568 590L749 1443L325 1443L143 586C134 544 130 501 130 463C130 174 364 -25 745 -25ZM803 1559C889 1559 952 1622 952 1700C952 1778 889 1841 803 1841C717 1841 654 1778 654 1700C654 1622 717 1559 803 1559ZM1221 1559C1307 1559 1370 1622 1370 1700C1370 1778 1307 1841 1221 1841C1135 1841 1072 1778 1072 1700C1072 1622 1135 1559 1221 1559Z" />
<glyph glyph-name="Yacute" unicode="&#xdd;" horiz-adv-x="1430" d="M838 0L935 457L1637 1443L1178 1443L807 858L799 858L666 1443L227 1443L511 457L414 0ZM1115 1555L1457 1876L1093 1876L793 1555Z" />
<glyph glyph-name="Thorn" unicode="&#xde;" horiz-adv-x="1418" d="M44 0L467 0L518 241L807 241C1163 241 1415 498 1415 808C1415 1056 1214 1239 942 1239L733 1239L777 1443L351 1443ZM660 918L813 918C933 918 996 864 996 763C996 641 902 558 763 558L584 558Z" />
<glyph glyph-name="germandbls" unicode="&#xdf;" horiz-adv-x="1407" d="M416 0L620 958C646 1081 716 1148 814 1148C912 1148 978 1089 978 1002C978 916 904 862 811 862L741 862L676 555L755 555C880 555 955 518 955 435C955 348 887 295 776 295C722 295 666 308 625 330L558 29C634 2 752 -16 854 -16C1162 -16 1365 141 1365 404C1365 560 1273 659 1109 702L1113 722C1268 756 1386 894 1386 1060C1386 1303 1157 1469 822 1469C521 1469 296 1324 247 1101L7 0Z" />
<glyph glyph-name="agrave" unicode="&#xe0;" horiz-adv-x="1182" d="M530 252C456 252 405 288 405 342C405 405 465 448 555 450L726 454L711 383C695 308 617 252 530 252ZM345 -16C484 -16 597 43 651 130L659 130L631 0L1016 0L1166 706C1171 728 1175 767 1175 795C1175 996 976 1132 683 1132C401 1132 193 991 149 760L506 760C526 818 581 848 655 848C735 848 789 814 789 763C789 756 788 749 785 732L772 668L531 663C217 656 24 512 24 283C24 111 162 -16 345 -16ZM851 1275L687 1596L340 1596L537 1275Z" />
<glyph glyph-name="aacute" unicode="&#xe1;" horiz-adv-x="1182" d="M530 252C456 252 405 288 405 342C405 405 465 448 555 450L726 454L711 383C695 308 617 252 530 252ZM345 -16C484 -16 597 43 651 130L659 130L631 0L1016 0L1166 706C1171 728 1175 767 1175 795C1175 996 976 1132 683 1132C401 1132 193 991 149 760L506 760C526 818 581 848 655 848C735 848 789 814 789 763C789 756 788 749 785 732L772 668L531 663C217 656 24 512 24 283C24 111 162 -16 345 -16ZM943 1275L1277 1596L929 1596L629 1275Z" />
<glyph glyph-name="acircumflex" unicode="&#xe2;" horiz-adv-x="1182" d="M530 252C456 252 405 288 405 342C405 405 465 448 555 450L726 454L711 383C695 308 617 252 530 252ZM345 -16C484 -16 597 43 651 130L659 130L631 0L1016 0L1166 706C1171 728 1175 767 1175 795C1175 996 976 1132 683 1132C401 1132 193 991 149 760L506 760C526 818 581 848 655 848C735 848 789 814 789 763C789 756 788 749 785 732L772 668L531 663C217 656 24 512 24 283C24 111 162 -16 345 -16ZM957 1592L643 1592L316 1256L612 1256L775 1436L783 1436L868 1256L1140 1256Z" />
<glyph glyph-name="atilde" unicode="&#xe3;" horiz-adv-x="1182" d="M530 252C456 252 405 288 405 342C405 405 465 448 555 450L726 454L711 383C695 308 617 252 530 252ZM345 -16C484 -16 597 43 651 130L659 130L631 0L1016 0L1166 706C1171 728 1175 767 1175 795C1175 996 976 1132 683 1132C401 1132 193 991 149 760L506 760C526 818 581 848 655 848C735 848 789 814 789 763C789 756 788 749 785 732L772 668L531 663C217 656 24 512 24 283C24 111 162 -16 345 -16ZM891 1256C1030 1256 1146 1374 1185 1554L980 1554C962 1485 933 1448 891 1448C812 1448 776 1567 630 1567C489 1567 374 1452 337 1274L542 1274C559 1337 590 1375 630 1375C709 1375 745 1256 891 1256Z" />
<glyph glyph-name="adieresis" unicode="&#xe4;" horiz-adv-x="1182" d="M530 252C456 252 405 288 405 342C405 405 465 448 555 450L726 454L711 383C695 308 617 252 530 252ZM345 -16C484 -16 597 43 651 130L659 130L631 0L1016 0L1166 706C1171 728 1175 767 1175 795C1175 996 976 1132 683 1132C401 1132 193 991 149 760L506 760C526 818 581 848 655 848C735 848 789 814 789 763C789 756 788 749 785 732L772 668L531 663C217 656 24 512 24 283C24 111 162 -16 345 -16ZM551 1255C637 1255 700 1318 700 1396C700 1474 637 1537 551 1537C465 1537 402 1474 402 1396C402 1318 465 1255 551 1255ZM969 1255C1055 1255 1118 1318 1118 1396C1118 1474 1055 1537 969 1537C883 1537 820 1474 820 1396C820 1318 883 1255 969 1255Z" />
<glyph glyph-name="aring" unicode="&#xe5;" horiz-adv-x="1182" d="M530 252C456 252 405 288 405 342C405 405 465 448 555 450L726 454L711 383C695 308 617 252 530 252ZM345 -16C484 -16 597 43 651 130L659 130L631 0L1016 0L1166 706C1171 728 1175 767 1175 795C1175 996 976 1132 683 1132C401 1132 193 991 149 760L506 760C526 818 581 848 655 848C735 848 789 814 789 763C789 756 788 749 785 732L772 668L531 663C217 656 24 512 24 283C24 111 162 -16 345 -16ZM774 1235C906 1235 1017 1341 1017 1470C1017 1600 906 1706 774 1706C642 1706 530 1600 530 1470C530 1341 642 1235 774 1235ZM774 1386C727 1386 686 1424 686 1470C686 1517 727 1556 774 1556C821 1556 862 1517 862 1470C862 1424 821 1386 774 1386Z" />
<glyph glyph-name="ae" unicode="&#xe6;" horiz-adv-x="1881" d="M1250 -28C1537 -28 1753 121 1813 360L1446 360C1426 287 1368 246 1282 246C1163 246 1088 325 1088 454C1088 455 1088 466 1088 466L1839 466C1850 520 1858 607 1858 657C1858 932 1646 1133 1360 1133C1234 1133 1109 1084 1023 1000L1003 1000C940 1076 794 1132 661 1132C397 1132 195 985 149 760L507 760C528 818 580 848 659 848C736 848 790 813 790 763C790 756 789 741 787 732L774 668L533 663C210 656 28 519 28 283C28 101 204 -28 453 -28C616 -28 780 41 859 146L878 146C932 50 1102 -28 1250 -28ZM1127 682C1153 787 1240 858 1344 858C1438 858 1505 798 1505 714C1505 703 1503 687 1501 682ZM534 245C460 245 409 281 409 334C409 398 468 440 559 442L732 447L717 375C700 301 622 245 534 245Z" />
<glyph glyph-name="ccedilla" unicode="&#xe7;" horiz-adv-x="1200" d="M1202 667C1203 673 1203 678 1203 721C1203 957 992 1132 706 1132C319 1132 80 870 80 446C80 199 229 26 470 -17L413 -86L384 -211L442 -211C525 -211 553 -221 553 -250C553 -281 515 -297 441 -297C400 -297 356 -292 331 -285L296 -446C320 -455 374 -461 434 -461C623 -461 762 -361 762 -225C762 -141 714 -89 624 -76L666 -25C935 2 1131 183 1161 441L783 441C762 344 700 287 614 287C530 287 475 357 475 463C475 673 561 817 686 817C771 817 824 759 824 667Z" />
<glyph glyph-name="egrave" unicode="&#xe8;" horiz-adv-x="1234" d="M474 682C500 787 587 858 690 858C785 858 851 798 851 714C851 703 850 687 848 682ZM604 -27C898 -27 1108 128 1165 360L797 360C778 296 711 252 624 252C505 252 435 332 435 434C435 444 436 455 438 466L1190 466C1204 522 1210 596 1210 656C1210 944 1004 1132 708 1132C332 1132 82 856 82 478C82 160 288 -27 604 -27ZM871 1275L707 1596L360 1596L557 1275Z" />
<glyph glyph-name="eacute" unicode="&#xe9;" horiz-adv-x="1234" d="M474 682C500 787 587 858 690 858C785 858 851 798 851 714C851 703 850 687 848 682ZM604 -27C898 -27 1108 128 1165 360L797 360C778 296 711 252 624 252C505 252 435 332 435 434C435 444 436 455 438 466L1190 466C1204 522 1210 596 1210 656C1210 944 1004 1132 708 1132C332 1132 82 856 82 478C82 160 288 -27 604 -27ZM963 1275L1297 1596L949 1596L649 1275Z" />
<glyph glyph-name="ecircumflex" unicode="&#xea;" horiz-adv-x="1234" d="M474 682C500 787 587 858 690 858C785 858 851 798 851 714C851 703 850 687 848 682ZM604 -27C898 -27 1108 128 1165 360L797 360C778 296 711 252 624 252C505 252 435 332 435 434C435 444 436 455 438 466L1190 466C1204 522 1210 596 1210 656C1210 944 1004 1132 708 1132C332 1132 82 856 82 478C82 160 288 -27 604 -27ZM977 1592L663 1592L336 1256L632 1256L795 1436L803 1436L888 1256L1160 1256Z" />
<glyph glyph-name="edieresis" unicode="&#xeb;" horiz-adv-x="1234" d="M474 682C500 787 587 858 690 858C785 858 851 798 851 714C851 703 850 687 848 682ZM604 -27C898 -27 1108 128 1165 360L797 360C778 296 711 252 624 252C505 252 435 332 435 434C435 444 436 455 438 466L1190 466C1204 522 1210 596 1210 656C1210 944 1004 1132 708 1132C332 1132 82 856 82 478C82 160 288 -27 604 -27ZM571 1255C657 1255 720 1318 720 1396C720 1474 657 1537 571 1537C485 1537 422 1474 422 1396C422 1318 485 1255 571 1255ZM989 1255C1075 1255 1138 1318 1138 1396C1138 1474 1075 1537 989 1537C903 1537 840 1474 840 1396C840 1318 903 1255 989 1255Z" />
<glyph glyph-name="igrave" unicode="&#xec;" horiz-adv-x="561" d="M-8 0L389 0L624 1104L227 1104ZM597 1275L433 1596L86 1596L283 1275Z" />
<glyph glyph-name="iacute" unicode="&#xed;" horiz-adv-x="561" d="M-8 0L389 0L624 1104L227 1104ZM689 1275L1023 1596L675 1596L375 1275Z" />
<glyph glyph-name="icircumflex" unicode="&#xee;" horiz-adv-x="561" d="M-8 0L389 0L624 1104L227 1104ZM703 1592L389 1592L62 1256L358 1256L521 1436L529 1436L614 1256L886 1256Z" />
<glyph glyph-name="idieresis" unicode="&#xef;" horiz-adv-x="561" d="M-8 0L389 0L624 1104L227 1104ZM297 1255C383 1255 446 1318 446 1396C446 1474 383 1537 297 1537C211 1537 148 1474 148 1396C148 1318 211 1255 297 1255ZM715 1255C801 1255 864 1318 864 1396C864 1474 801 1537 715 1537C629 1537 566 1474 566 1396C566 1318 629 1255 715 1255Z" />
<glyph glyph-name="eth" unicode="&#xf0;" horiz-adv-x="1328" d="M627 -27C921 -27 1162 161 1259 467C1287 556 1302 655 1302 758C1302 950 1246 1135 1137 1295L1329 1355L1288 1523L1021 1437C1005 1454 988 1470 958 1496L505 1496C573 1451 641 1394 697 1335L502 1274L540 1107L812 1191C866 1104 898 1014 903 934L903 934L884 936C836 1009 719 1059 592 1059C299 1059 77 807 77 475C77 184 308 -27 627 -27ZM880 600C880 435 772 286 651 286C552 286 486 360 486 473C486 636 596 788 715 788C815 788 880 714 880 600Z" />
<glyph glyph-name="ntilde" unicode="&#xf1;" horiz-adv-x="1286" d="M-8 0L386 0L524 648C546 753 625 824 718 824C804 824 865 769 865 692C865 671 863 651 858 624L727 0L1120 0L1264 685C1274 734 1279 779 1279 820C1279 1008 1147 1132 947 1132C800 1132 660 1063 582 937L574 937L610 1104L227 1104ZM926 1256C1065 1256 1181 1374 1220 1554L1015 1554C997 1485 968 1448 926 1448C847 1448 811 1567 665 1567C524 1567 409 1452 372 1274L577 1274C594 1337 625 1375 665 1375C744 1375 780 1256 926 1256Z" />
<glyph glyph-name="ograve" unicode="&#xf2;" horiz-adv-x="1299" d="M632 275C542 275 482 358 482 481C482 681 583 829 720 829C810 829 869 747 869 623C869 427 766 275 632 275ZM740 1132C354 1132 80 858 80 473C80 174 296 -28 614 -28C1000 -28 1274 246 1274 631C1274 930 1058 1132 740 1132ZM903 1275L739 1596L392 1596L589 1275Z" />
<glyph glyph-name="oacute" unicode="&#xf3;" horiz-adv-x="1299" d="M632 275C542 275 482 358 482 481C482 681 583 829 720 829C810 829 869 747 869 623C869 427 766 275 632 275ZM740 1132C354 1132 80 858 80 473C80 174 296 -28 614 -28C1000 -28 1274 246 1274 631C1274 930 1058 1132 740 1132ZM995 1275L1329 1596L981 1596L681 1275Z" />
<glyph glyph-name="ocircumflex" unicode="&#xf4;" horiz-adv-x="1299" d="M632 275C542 275 482 358 482 481C482 681 583 829 720 829C810 829 869 747 869 623C869 427 766 275 632 275ZM740 1132C354 1132 80 858 80 473C80 174 296 -28 614 -28C1000 -28 1274 246 1274 631C1274 930 1058 1132 740 1132ZM1009 1592L695 1592L368 1256L664 1256L827 1436L835 1436L920 1256L1192 1256Z" />
<glyph glyph-name="otilde" unicode="&#xf5;" horiz-adv-x="1299" d="M632 275C542 275 482 358 482 481C482 681 583 829 720 829C810 829 869 747 869 623C869 427 766 275 632 275ZM740 1132C354 1132 80 858 80 473C80 174 296 -28 614 -28C1000 -28 1274 246 1274 631C1274 930 1058 1132 740 1132ZM943 1256C1082 1256 1198 1374 1237 1554L1032 1554C1014 1485 985 1448 943 1448C864 1448 828 1567 682 1567C541 1567 426 1452 389 1274L594 1274C611 1337 642 1375 682 1375C761 1375 797 1256 943 1256Z" />
<glyph glyph-name="odieresis" unicode="&#xf6;" horiz-adv-x="1299" d="M632 275C542 275 482 358 482 481C482 681 583 829 720 829C810 829 869 747 869 623C869 427 766 275 632 275ZM740 1132C354 1132 80 858 80 473C80 174 296 -28 614 -28C1000 -28 1274 246 1274 631C1274 930 1058 1132 740 1132ZM603 1255C689 1255 752 1318 752 1396C752 1474 689 1537 603 1537C517 1537 454 1474 454 1396C454 1318 517 1255 603 1255ZM1021 1255C1107 1255 1170 1318 1170 1396C1170 1474 1107 1537 1021 1537C935 1537 872 1474 872 1396C872 1318 935 1255 1021 1255Z" />
<glyph glyph-name="divide" unicode="&#xf7;" horiz-adv-x="1413" d="M1281 444L1343 732L201 732L139 444ZM837 817C964 817 1046 894 1046 1009C1046 1125 964 1201 837 1201C711 1201 628 1125 628 1009C628 894 711 817 837 817ZM658 -25C785 -25 867 52 867 167C867 283 785 359 658 359C532 359 449 283 449 167C449 52 532 -25 658 -25Z" />
<glyph glyph-name="oslash" unicode="&#xf8;" horiz-adv-x="1299" d="M885 627C884 413 773 251 628 251C594 251 564 262 540 282ZM466 474C466 693 575 853 724 853C759 853 789 842 813 821ZM1285 1027L1152 1160L1046 1054C962 1104 858 1132 740 1132C354 1132 80 858 80 473C80 358 112 258 169 177L69 77L202 -56L308 50C392 0 496 -28 614 -28C1000 -28 1274 246 1274 631C1274 746 1242 846 1185 927Z" />
<glyph glyph-name="ugrave" unicode="&#xf9;" horiz-adv-x="1287" d="M1350 1104L952 1104L818 474C794 360 725 294 631 294C537 294 483 348 483 442C483 463 485 482 488 501L617 1104L221 1104L79 436C70 395 65 344 65 297C65 99 200 -28 411 -28C565 -28 694 49 760 180L768 180L730 0L1115 0ZM956 1275L792 1596L445 1596L642 1275Z" />
<glyph glyph-name="uacute" unicode="&#xfa;" horiz-adv-x="1287" d="M1350 1104L952 1104L818 474C794 360 725 294 631 294C537 294 483 348 483 442C483 463 485 482 488 501L617 1104L221 1104L79 436C70 395 65 344 65 297C65 99 200 -28 411 -28C565 -28 694 49 760 180L768 180L730 0L1115 0ZM1048 1275L1382 1596L1034 1596L734 1275Z" />
<glyph glyph-name="ucircumflex" unicode="&#xfb;" horiz-adv-x="1287" d="M1350 1104L952 1104L818 474C794 360 725 294 631 294C537 294 483 348 483 442C483 463 485 482 488 501L617 1104L221 1104L79 436C70 395 65 344 65 297C65 99 200 -28 411 -28C565 -28 694 49 760 180L768 180L730 0L1115 0ZM1062 1592L748 1592L421 1256L717 1256L880 1436L888 1436L973 1256L1245 1256Z" />
<glyph glyph-name="udieresis" unicode="&#xfc;" horiz-adv-x="1287" d="M1350 1104L952 1104L818 474C794 360 725 294 631 294C537 294 483 348 483 442C483 463 485 482 488 501L617 1104L221 1104L79 436C70 395 65 344 65 297C65 99 200 -28 411 -28C565 -28 694 49 760 180L768 180L730 0L1115 0ZM656 1255C742 1255 805 1318 805 1396C805 1474 742 1537 656 1537C570 1537 507 1474 507 1396C507 1318 570 1255 656 1255ZM1074 1255C1160 1255 1223 1318 1223 1396C1223 1474 1160 1537 1074 1537C988 1537 925 1474 925 1396C925 1318 988 1255 1074 1255Z" />
<glyph glyph-name="yacute" unicode="&#xfd;" horiz-adv-x="1206" d="M75 -405C413 -405 617 -284 775 18L1343 1104L921 1104L567 296L559 296L560 1104L153 1104L264 20C265 15 265 5 265 -3C265 -68 207 -100 93 -100L-13 -100L-77 -405ZM1004 1276L1338 1597L990 1597L690 1276Z" />
<glyph glyph-name="thorn" unicode="&#xfe;" horiz-adv-x="1315" d="M652 296C559 296 498 369 498 481C498 662 609 820 736 820C829 820 890 746 890 635C890 448 783 296 652 296ZM433 197L452 197C488 64 601 -16 751 -16C1066 -16 1299 289 1299 702C1299 958 1157 1120 933 1120C801 1120 685 1058 611 948L592 948L697 1443L301 1443L-75 -325L321 -325Z" />
<glyph glyph-name="ydieresis" unicode="&#xff;" horiz-adv-x="1206" d="M75 -405C413 -405 617 -284 775 18L1343 1104L921 1104L567 296L559 296L560 1104L153 1104L264 20C265 15 265 5 265 -3C265 -68 207 -100 93 -100L-13 -100L-77 -405ZM612 1256C698 1256 761 1319 761 1397C761 1475 698 1538 612 1538C526 1538 463 1475 463 1397C463 1319 526 1256 612 1256ZM1030 1256C1116 1256 1179 1319 1179 1397C1179 1475 1116 1538 1030 1538C944 1538 881 1475 881 1397C881 1319 944 1256 1030 1256Z" />
<glyph glyph-name="Amacron" unicode="&#x0100;" horiz-adv-x="1494" d="M902 1089L911 1089L933 586L655 586ZM959 0L1394 0L1246 1443L714 1443L-80 0L367 0L508 287L946 287ZM1428 1786L680 1786L642 1606L1390 1606Z" />
<glyph glyph-name="amacron" unicode="&#x0101;" horiz-adv-x="1182" d="M530 252C456 252 405 288 405 342C405 405 465 448 555 450L726 454L711 383C695 308 617 252 530 252ZM345 -16C484 -16 597 43 651 130L659 130L631 0L1016 0L1166 706C1171 728 1175 767 1175 795C1175 996 976 1132 683 1132C401 1132 193 991 149 760L506 760C526 818 581 848 655 848C735 848 789 814 789 763C789 756 788 749 785 732L772 668L531 663C217 656 24 512 24 283C24 111 162 -16 345 -16ZM1129 1456L425 1456L387 1276L1091 1276Z" />
<glyph glyph-name="Abreve" unicode="&#x0102;" horiz-adv-x="1494" d="M902 1089L911 1089L933 586L655 586ZM959 0L1394 0L1246 1443L714 1443L-80 0L367 0L508 287L946 287ZM677 1870C673 1849 671 1828 671 1808C671 1660 778 1536 1002 1536C1254 1536 1420 1688 1467 1870L1225 1870C1203 1784 1136 1722 1036 1722C948 1722 904 1769 904 1839C904 1849 905 1859 907 1870Z" />
<glyph glyph-name="abreve" unicode="&#x0103;" horiz-adv-x="1182" d="M530 252C456 252 405 288 405 342C405 405 465 448 555 450L726 454L711 383C695 308 617 252 530 252ZM345 -16C484 -16 597 43 651 130L659 130L631 0L1016 0L1166 706C1171 728 1175 767 1175 795C1175 996 976 1132 683 1132C401 1132 193 991 149 760L506 760C526 818 581 848 655 848C735 848 789 814 789 763C789 756 788 749 785 732L772 668L531 663C217 656 24 512 24 283C24 111 162 -16 345 -16ZM410 1590C407 1568 405 1551 405 1535C405 1372 542 1256 736 1256C980 1256 1152 1388 1200 1590L960 1590C937 1498 864 1442 770 1442C687 1442 639 1485 639 1559C639 1569 640 1579 642 1590Z" />
<glyph glyph-name="Aogonek" unicode="&#x0104;" horiz-adv-x="1494" d="M1194 -275C1183 -279 1151 -284 1120 -284C1050 -284 1013 -256 1013 -210C1013 -122 1133 -40 1366 14L1392 20L1246 1443L714 1443L-80 0L367 0L508 287L946 287L959 -5C830 -58 716 -176 716 -286C716 -414 826 -494 976 -494C1050 -494 1110 -485 1153 -468ZM902 1089L911 1089L933 586L655 586Z" />
<glyph glyph-name="aogonek" unicode="&#x0105;" horiz-adv-x="1182" d="M533 252C459 252 408 288 408 342C408 405 468 448 558 450L729 454L714 383C698 308 620 252 533 252ZM867 -461L907 -269C895 -273 866 -278 834 -278C778 -278 729 -250 729 -206C729 -128 858 -32 982 0L1021 10L1169 706C1174 728 1178 767 1178 795C1178 996 979 1132 686 1132C404 1132 196 991 152 760L509 760C529 818 584 848 658 848C738 848 792 814 792 763C792 756 791 749 788 732L775 668L534 663C220 656 27 512 27 283C27 111 165 -16 348 -16C487 -16 600 43 654 130L662 130L629 -21C522 -82 433 -168 433 -286C433 -400 530 -487 690 -487C774 -487 832 -475 867 -461Z" />
<glyph glyph-name="Cacute" unicode="&#x0106;" horiz-adv-x="1540" d="M1153 862L1564 862C1567 878 1569 901 1569 926C1569 1241 1317 1468 968 1468C454 1468 125 1121 125 580C125 213 377 -25 764 -25C1154 -25 1450 207 1500 552L1089 552C1047 409 934 320 794 320C650 320 562 429 562 606C562 911 712 1127 924 1127C1054 1127 1154 1029 1154 902C1154 872 1154 868 1153 862ZM1150 1555L1492 1876L1128 1876L828 1555Z" />
<glyph glyph-name="cacute" unicode="&#x0107;" horiz-adv-x="1200" d="M706 1132C319 1132 80 870 80 446C80 158 282 -28 596 -28C901 -28 1128 161 1161 441L783 441C762 344 700 287 614 287C530 287 475 357 475 463C475 673 561 817 686 817C771 817 824 759 824 667L1202 667C1203 673 1203 678 1203 721C1203 957 992 1132 706 1132ZM978 1276L1312 1597L964 1597L664 1276Z" />
<glyph glyph-name="Ccircumflex" unicode="&#x0108;" horiz-adv-x="1540" d="M1153 862L1564 862C1567 878 1569 901 1569 926C1569 1241 1317 1468 968 1468C454 1468 125 1121 125 580C125 213 377 -25 764 -25C1154 -25 1450 207 1500 552L1089 552C1047 409 934 320 794 320C650 320 562 429 562 606C562 911 712 1127 924 1127C1054 1127 1154 1029 1154 902C1154 872 1154 868 1153 862ZM1211 1872L897 1872L570 1536L846 1536L1019 1728L1027 1728L1118 1536L1394 1536Z" />
<glyph glyph-name="ccircumflex" unicode="&#x0109;" horiz-adv-x="1200" d="M706 1132C319 1132 80 870 80 446C80 158 282 -28 596 -28C901 -28 1128 161 1161 441L783 441C762 344 700 287 614 287C530 287 475 357 475 463C475 673 561 817 686 817C771 817 824 759 824 667L1202 667C1203 673 1203 678 1203 721C1203 957 992 1132 706 1132ZM992 1593L678 1593L351 1257L647 1257L810 1437L818 1437L903 1257L1175 1257Z" />
<glyph glyph-name="Cdotaccent" unicode="&#x010a;" horiz-adv-x="1540" d="M1153 862L1564 862C1567 878 1569 901 1569 926C1569 1241 1317 1468 968 1468C454 1468 125 1121 125 580C125 213 377 -25 764 -25C1154 -25 1450 207 1500 552L1089 552C1047 409 934 320 794 320C650 320 562 429 562 606C562 911 712 1127 924 1127C1054 1127 1154 1029 1154 902C1154 872 1154 868 1153 862ZM1033 1603C1133 1603 1210 1681 1210 1776C1210 1871 1133 1949 1033 1949C933 1949 856 1871 856 1776C856 1681 933 1603 1033 1603Z" />
<glyph glyph-name="cdotaccent" unicode="&#x010b;" horiz-adv-x="1200" d="M706 1132C319 1132 80 870 80 446C80 158 282 -28 596 -28C901 -28 1128 161 1161 441L783 441C762 344 700 287 614 287C530 287 475 357 475 463C475 673 561 817 686 817C771 817 824 759 824 667L1202 667C1203 673 1203 678 1203 721C1203 957 992 1132 706 1132ZM786 1265C886 1265 963 1343 963 1438C963 1533 886 1611 786 1611C686 1611 609 1533 609 1438C609 1343 686 1265 786 1265Z" />
<glyph glyph-name="Ccaron" unicode="&#x010c;" horiz-adv-x="1540" d="M1153 862L1564 862C1567 878 1569 901 1569 926C1569 1241 1317 1468 968 1468C454 1468 125 1121 125 580C125 213 377 -25 764 -25C1154 -25 1450 207 1500 552L1089 552C1047 409 934 320 794 320C650 320 562 429 562 606C562 911 712 1127 924 1127C1054 1127 1154 1029 1154 902C1154 872 1154 868 1153 862ZM825 1536L1139 1536L1466 1872L1190 1872L1017 1680L1009 1680L918 1872L642 1872Z" />
<glyph glyph-name="ccaron" unicode="&#x010d;" horiz-adv-x="1200" d="M706 1132C319 1132 80 870 80 446C80 158 282 -28 596 -28C901 -28 1128 161 1161 441L783 441C762 344 700 287 614 287C530 287 475 357 475 463C475 673 561 817 686 817C771 817 824 759 824 667L1202 667C1203 673 1203 678 1203 721C1203 957 992 1132 706 1132ZM921 1257L1247 1593L951 1593L789 1413L781 1413L695 1593L423 1593L607 1257Z" />
<glyph glyph-name="Dcaron" unicode="&#x010e;" horiz-adv-x="1492" d="M325 1443L18 0L737 0C1194 0 1498 373 1498 892C1498 1240 1259 1443 925 1443ZM681 1108L824 1108C974 1108 1062 999 1062 838C1062 524 902 336 676 336L518 336ZM690 1536L1004 1536L1331 1872L1055 1872L882 1680L874 1680L783 1872L507 1872Z" />
<glyph glyph-name="dcaron" unicode="&#x010f;" horiz-adv-x="1655" d="M1550 1443L1440 925L1712 925L1872 1443ZM439 -16C588 -16 700 40 781 155L789 155L756 0L1142 0L1450 1443L1053 1443L943 927L935 927C898 1049 784 1120 624 1120C307 1120 72 814 72 403C72 144 213 -16 439 -16ZM636 285C544 285 482 360 482 471C482 659 588 809 720 809C812 809 873 735 873 624C873 443 763 285 636 285Z" />
<glyph glyph-name="Dcroat" unicode="&#x0110;" horiz-adv-x="1492" d="M518 336L565 557L753 557L825 893L636 893L681 1108L824 1108C974 1108 1062 999 1062 838C1062 524 902 336 676 336ZM325 1443L208 893L100 893L28 557L137 557L18 0L737 0C1194 0 1498 373 1498 892C1498 1240 1259 1443 925 1443Z" />
<glyph glyph-name="dcroat" unicode="&#x0111;" horiz-adv-x="1323" d="M636 285C544 285 482 360 482 471C482 659 588 809 720 809C812 809 873 735 873 624C873 443 763 285 636 285ZM1522 1359L1432 1359L1450 1443L1053 1443L1035 1359L814 1359L774 1171L995 1171L943 927L935 927C898 1049 784 1120 624 1120C307 1120 72 814 72 403C72 144 213 -16 439 -16C588 -16 700 40 781 155L789 155L756 0L1142 0L1392 1171L1482 1171Z" />
<glyph glyph-name="Emacron" unicode="&#x0112;" horiz-adv-x="1208" d="M1107 336L513 336L563 569L1119 569L1184 873L628 873L677 1107L1270 1107L1342 1443L325 1443L18 0L1036 0ZM1255 1786L507 1786L469 1606L1217 1606Z" />
<glyph glyph-name="emacron" unicode="&#x0113;" horiz-adv-x="1234" d="M474 682C500 787 587 858 690 858C785 858 851 798 851 714C851 703 850 687 848 682ZM604 -27C898 -27 1108 128 1165 360L797 360C778 296 711 252 624 252C505 252 435 332 435 434C435 444 436 455 438 466L1190 466C1204 522 1210 596 1210 656C1210 944 1004 1132 708 1132C332 1132 82 856 82 478C82 160 288 -27 604 -27ZM1149 1456L445 1456L407 1276L1111 1276Z" />
<glyph glyph-name="Ebreve" unicode="&#x0114;" horiz-adv-x="1208" d="M1107 336L513 336L563 569L1119 569L1184 873L628 873L677 1107L1270 1107L1342 1443L325 1443L18 0L1036 0ZM504 1870C500 1849 498 1828 498 1808C498 1660 605 1536 829 1536C1081 1536 1247 1688 1294 1870L1052 1870C1030 1784 963 1722 863 1722C775 1722 731 1769 731 1839C731 1849 732 1859 734 1870Z" />
<glyph glyph-name="ebreve" unicode="&#x0115;" horiz-adv-x="1234" d="M474 682C500 787 587 858 690 858C785 858 851 798 851 714C851 703 850 687 848 682ZM604 -27C898 -27 1108 128 1165 360L797 360C778 296 711 252 624 252C505 252 435 332 435 434C435 444 436 455 438 466L1190 466C1204 522 1210 596 1210 656C1210 944 1004 1132 708 1132C332 1132 82 856 82 478C82 160 288 -27 604 -27ZM430 1590C427 1568 425 1551 425 1535C425 1372 562 1256 756 1256C1000 1256 1172 1388 1220 1590L980 1590C957 1498 884 1442 790 1442C707 1442 659 1485 659 1559C659 1569 660 1579 662 1590Z" />
<glyph glyph-name="Edotaccent" unicode="&#x0116;" horiz-adv-x="1208" d="M1107 336L513 336L563 569L1119 569L1184 873L628 873L677 1107L1270 1107L1342 1443L325 1443L18 0L1036 0ZM878 1603C978 1603 1055 1681 1055 1776C1055 1871 978 1949 878 1949C778 1949 701 1871 701 1776C701 1681 778 1603 878 1603Z" />
<glyph glyph-name="edotaccent" unicode="&#x0117;" horiz-adv-x="1234" d="M474 682C500 787 587 858 690 858C785 858 851 798 851 714C851 703 850 687 848 682ZM604 -27C898 -27 1108 128 1165 360L797 360C778 296 711 252 624 252C505 252 435 332 435 434C435 444 436 455 438 466L1190 466C1204 522 1210 596 1210 656C1210 944 1004 1132 708 1132C332 1132 82 856 82 478C82 160 288 -27 604 -27ZM771 1264C871 1264 948 1342 948 1437C948 1532 871 1610 771 1610C671 1610 594 1532 594 1437C594 1342 671 1264 771 1264Z" />
<glyph glyph-name="Eogonek" unicode="&#x0118;" horiz-adv-x="1208" d="M18 0L678 0L677 -4C545 -58 446 -179 446 -286C446 -410 551 -494 706 -494C779 -494 840 -485 883 -468L924 -275C911 -280 876 -284 850 -284C782 -284 743 -257 743 -210C743 -131 844 -48 984 -13L1036 0L1107 336L513 336L563 569L1119 569L1184 873L628 873L677 1107L1270 1107L1342 1443L325 1443Z" />
<glyph glyph-name="eogonek" unicode="&#x0119;" horiz-adv-x="1234" d="M673 -487C757 -487 816 -476 850 -461L890 -269C878 -273 849 -278 817 -278C761 -278 712 -238 712 -194C712 -109 802 -42 960 62C1080 140 1144 274 1165 360L797 360C778 296 711 252 624 252C505 252 435 332 435 434C435 444 436 455 438 466L1190 466C1204 522 1210 596 1210 656C1210 944 1004 1132 708 1132C332 1132 82 856 82 478C82 160 288 -27 604 -27L617 -27L617 -33C520 -74 416 -168 416 -286C416 -400 513 -487 673 -487ZM474 682C500 787 587 858 690 858C785 858 851 798 851 714C851 703 850 687 848 682Z" />
<glyph glyph-name="Ecaron" unicode="&#x011a;" horiz-adv-x="1208" d="M1107 336L513 336L563 569L1119 569L1184 873L628 873L677 1107L1270 1107L1342 1443L325 1443L18 0L1036 0ZM670 1536L984 1536L1311 1872L1035 1872L862 1680L854 1680L763 1872L487 1872Z" />
<glyph glyph-name="ecaron" unicode="&#x011b;" horiz-adv-x="1234" d="M474 682C500 787 587 858 690 858C785 858 851 798 851 714C851 703 850 687 848 682ZM604 -27C898 -27 1108 128 1165 360L797 360C778 296 711 252 624 252C505 252 435 332 435 434C435 444 436 455 438 466L1190 466C1204 522 1210 596 1210 656C1210 944 1004 1132 708 1132C332 1132 82 856 82 478C82 160 288 -27 604 -27ZM906 1256L1232 1592L936 1592L774 1412L766 1412L680 1592L408 1592L592 1256Z" />
<glyph glyph-name="Gcircumflex" unicode="&#x011c;" horiz-adv-x="1539" d="M1544 790L912 790L852 508L1085 508L1085 508C1056 396 951 309 821 309C650 309 557 426 557 614C557 912 712 1134 930 1134C1062 1134 1152 1056 1160 954L1566 954C1567 962 1568 976 1568 986C1568 1238 1312 1468 942 1468C462 1468 126 1104 126 596C126 220 386 -25 771 -25C1180 -25 1446 207 1518 636ZM1181 1872L867 1872L540 1536L816 1536L989 1728L997 1728L1088 1536L1364 1536Z" />
<glyph glyph-name="gcircumflex" unicode="&#x011d;" horiz-adv-x="1309" d="M514 -417C851 -417 1078 -277 1129 -39L1372 1104L986 1104L944 920L926 920C889 1043 771 1120 621 1120C320 1120 74 807 74 424C74 185 221 25 440 25C581 25 694 77 758 172L778 172L737 -17C717 -113 650 -161 536 -161C430 -161 362 -122 350 -55L-33 -55C-31 -283 171 -417 514 -417ZM632 286C539 286 478 360 478 471C478 658 584 809 715 809C808 809 869 736 869 624C869 443 759 286 632 286ZM1061 1594L747 1594L420 1258L716 1258L879 1438L887 1438L972 1258L1244 1258Z" />
<glyph glyph-name="Gbreve" unicode="&#x011e;" horiz-adv-x="1539" d="M1544 790L912 790L852 508L1085 508L1085 508C1056 396 951 309 821 309C650 309 557 426 557 614C557 912 712 1134 930 1134C1062 1134 1152 1056 1160 954L1566 954C1567 962 1568 976 1568 986C1568 1238 1312 1468 942 1468C462 1468 126 1104 126 596C126 220 386 -25 771 -25C1180 -25 1446 207 1518 636ZM629 1870C625 1849 623 1828 623 1808C623 1660 730 1536 954 1536C1206 1536 1372 1688 1419 1870L1177 1870C1155 1784 1088 1722 988 1722C900 1722 856 1769 856 1839C856 1849 857 1859 859 1870Z" />
<glyph glyph-name="gbreve" unicode="&#x011f;" horiz-adv-x="1309" d="M514 -417C851 -417 1078 -277 1129 -39L1372 1104L986 1104L944 920L926 920C889 1043 771 1120 621 1120C320 1120 74 807 74 424C74 185 221 25 440 25C581 25 694 77 758 172L778 172L737 -17C717 -113 650 -161 536 -161C430 -161 362 -122 350 -55L-33 -55C-31 -283 171 -417 514 -417ZM632 286C539 286 478 360 478 471C478 658 584 809 715 809C808 809 869 736 869 624C869 443 759 286 632 286ZM514 1592C511 1570 509 1553 509 1537C509 1374 646 1258 840 1258C1084 1258 1256 1390 1304 1592L1064 1592C1041 1500 968 1444 874 1444C791 1444 743 1487 743 1561C743 1571 744 1581 746 1592Z" />
<glyph glyph-name="Gdotaccent" unicode="&#x0120;" horiz-adv-x="1539" d="M1544 790L912 790L852 508L1085 508L1085 508C1056 396 951 309 821 309C650 309 557 426 557 614C557 912 712 1134 930 1134C1062 1134 1152 1056 1160 954L1566 954C1567 962 1568 976 1568 986C1568 1238 1312 1468 942 1468C462 1468 126 1104 126 596C126 220 386 -25 771 -25C1180 -25 1446 207 1518 636ZM1003 1603C1103 1603 1180 1681 1180 1776C1180 1871 1103 1949 1003 1949C903 1949 826 1871 826 1776C826 1681 903 1603 1003 1603Z" />
<glyph glyph-name="gdotaccent" unicode="&#x0121;" horiz-adv-x="1309" d="M514 -417C851 -417 1078 -277 1129 -39L1372 1104L986 1104L944 920L926 920C889 1043 771 1120 621 1120C320 1120 74 807 74 424C74 185 221 25 440 25C581 25 694 77 758 172L778 172L737 -17C717 -113 650 -161 536 -161C430 -161 362 -122 350 -55L-33 -55C-31 -283 171 -417 514 -417ZM632 286C539 286 478 360 478 471C478 658 584 809 715 809C808 809 869 736 869 624C869 443 759 286 632 286ZM855 1266C955 1266 1032 1344 1032 1439C1032 1534 955 1612 855 1612C755 1612 678 1534 678 1439C678 1344 755 1266 855 1266Z" />
<glyph glyph-name="Gcommaaccent" unicode="&#x0122;" horiz-adv-x="1539" d="M1544 790L912 790L852 508L1085 508L1085 508C1056 396 951 309 821 309C650 309 557 426 557 614C557 912 712 1134 930 1134C1062 1134 1152 1056 1160 954L1566 954C1567 962 1568 976 1568 986C1568 1238 1312 1468 942 1468C462 1468 126 1104 126 596C126 220 386 -25 771 -25C1180 -25 1446 207 1518 636ZM642 -475L913 -154L554 -154L334 -475Z" />
<glyph glyph-name="gcommaaccent" unicode="&#x0123;" horiz-adv-x="1309" d="M514 -417C851 -417 1078 -277 1129 -39L1372 1104L986 1104L944 920L926 920C889 1043 771 1120 621 1120C320 1120 74 807 74 424C74 185 221 25 440 25C581 25 694 77 758 172L778 172L737 -17C717 -113 650 -161 536 -161C430 -161 362 -122 350 -55L-33 -55C-31 -283 171 -417 514 -417ZM632 286C539 286 478 360 478 471C478 658 584 809 715 809C808 809 869 736 869 624C869 443 759 286 632 286ZM1132 1581L861 1260L1220 1260L1440 1581Z" />
<glyph glyph-name="Hcircumflex" unicode="&#x0124;" horiz-adv-x="1572" d="M1374 0L1681 1443L1247 1443L1129 892L641 892L759 1443L325 1443L18 0L452 0L572 562L1060 562L940 0ZM1252 1872L938 1872L611 1536L887 1536L1060 1728L1068 1728L1159 1536L1435 1536Z" />
<glyph glyph-name="hcircumflex" unicode="&#x0125;" horiz-adv-x="1302" d="M0 0L395 0L532 648C554 752 636 824 731 824C818 824 881 768 881 692C881 671 879 650 874 624L743 0L1136 0L1280 685C1290 733 1295 779 1295 820C1295 1003 1161 1126 959 1126C806 1126 682 1057 600 937L592 937L701 1443L307 1443ZM753 1872L439 1872L112 1536L388 1536L561 1728L569 1728L660 1536L936 1536Z" />
<glyph glyph-name="Hbar" unicode="&#x0126;" horiz-adv-x="1572" d="M1129 892L641 892L672 1038L1160 1038ZM1760 1306L1652 1306L1681 1443L1247 1443L1218 1306L730 1306L759 1443L325 1443L296 1306L187 1306L130 1038L239 1038L18 0L452 0L572 562L1060 562L940 0L1374 0L1595 1038L1703 1038Z" />
<glyph glyph-name="hbar" unicode="&#x0127;" horiz-adv-x="1302" d="M592 937L642 1171L840 1171L881 1359L683 1359L701 1443L307 1443L289 1359L199 1359L159 1171L249 1171L0 0L395 0L532 648C554 752 636 824 731 824C818 824 881 768 881 692C881 671 879 650 874 624L743 0L1136 0L1280 685C1290 733 1295 779 1295 820C1295 1003 1161 1126 959 1126C806 1126 682 1057 600 937Z" />
<glyph glyph-name="Itilde" unicode="&#x0128;" horiz-adv-x="640" d="M442 0L749 1443L325 1443L18 0ZM736 1546C875 1546 991 1664 1030 1844L825 1844C807 1775 778 1738 736 1738C657 1738 621 1857 475 1857C334 1857 219 1742 182 1564L387 1564C404 1627 435 1665 475 1665C554 1665 590 1546 736 1546Z" />
<glyph glyph-name="itilde" unicode="&#x0129;" horiz-adv-x="561" d="M-8 0L389 0L624 1104L227 1104ZM637 1256C776 1256 892 1374 931 1554L726 1554C708 1485 679 1448 637 1448C558 1448 522 1567 376 1567C235 1567 120 1452 83 1274L288 1274C305 1337 336 1375 376 1375C455 1375 491 1256 637 1256Z" />
<glyph glyph-name="Imacron" unicode="&#x012a;" horiz-adv-x="640" d="M442 0L749 1443L325 1443L18 0ZM985 1786L237 1786L199 1606L947 1606Z" />
<glyph glyph-name="imacron" unicode="&#x012b;" horiz-adv-x="561" d="M-8 0L389 0L624 1104L227 1104ZM786 1456L188 1456L155 1276L754 1276Z" />
<glyph glyph-name="Ibreve" unicode="&#x012c;" horiz-adv-x="640" d="M442 0L749 1443L325 1443L18 0ZM234 1870C230 1849 228 1828 228 1808C228 1660 335 1536 559 1536C811 1536 977 1688 1024 1870L782 1870C760 1784 693 1722 593 1722C505 1722 461 1769 461 1839C461 1849 462 1859 464 1870Z" />
<glyph glyph-name="ibreve" unicode="&#x012d;" horiz-adv-x="561" d="M-8 0L389 0L624 1104L227 1104ZM156 1590C153 1568 151 1551 151 1535C151 1372 288 1256 482 1256C726 1256 898 1388 946 1590L706 1590C683 1498 610 1442 516 1442C433 1442 385 1485 385 1559C385 1569 386 1579 388 1590Z" />
<glyph glyph-name="Iogonek" unicode="&#x012e;" horiz-adv-x="640" d="M162 -494C235 -494 296 -485 339 -468L380 -275C367 -280 333 -284 306 -284C239 -284 199 -256 199 -208C199 -135 290 -47 400 -13L442 0L749 1443L325 1443L18 0L83 -4C-31 -89 -98 -192 -98 -284C-98 -409 8 -494 162 -494Z" />
<glyph glyph-name="iogonek" unicode="&#x012f;" horiz-adv-x="562" d="M247 -461L287 -269C275 -273 246 -278 214 -278C158 -278 109 -250 109 -206C109 -128 249 -34 352 -2L391 10L624 1104L227 1104L-14 -29C-95 -89 -187 -173 -187 -286C-187 -400 -90 -487 70 -487C154 -487 212 -475 247 -461ZM480 1169C595 1169 682 1252 682 1361C682 1470 595 1553 480 1553C365 1553 278 1470 278 1361C278 1252 365 1169 480 1169Z" />
<glyph glyph-name="Idotaccent" unicode="&#x0130;" horiz-adv-x="640" d="M442 0L749 1443L325 1443L18 0ZM608 1603C708 1603 785 1681 785 1776C785 1871 708 1949 608 1949C508 1949 431 1871 431 1776C431 1681 508 1603 608 1603Z" />
<glyph glyph-name="dotlessi" unicode="&#x0131;" horiz-adv-x="561" d="M-8 0L389 0L624 1104L227 1104Z" />
<glyph glyph-name="IJ" unicode="&#x0132;" horiz-adv-x="1900" d="M442 0L749 1443L325 1443L18 0ZM678 434C678 156 890 -25 1219 -25C1531 -25 1731 140 1796 447L2008 1443L1584 1443L1382 495C1359 389 1306 335 1222 335C1134 335 1085 394 1085 484L1085 505L681 505C679 484 678 453 678 434Z" />
<glyph glyph-name="ij" unicode="&#x0133;" horiz-adv-x="1122" d="M-8 0L389 0L624 1104L227 1104ZM480 1169C595 1169 682 1252 682 1361C682 1470 595 1553 480 1553C365 1553 278 1470 278 1361C278 1252 365 1169 480 1169ZM1042 1169C1157 1169 1244 1252 1244 1361C1244 1470 1157 1553 1042 1553C927 1553 840 1470 840 1361C840 1252 927 1169 1042 1169ZM1185 1104L789 1104L548 -30C537 -83 497 -117 432 -117C402 -117 377 -114 361 -110L300 -387C341 -396 418 -404 474 -404C712 -404 891 -276 935 -69Z" />
<glyph glyph-name="Jcircumflex" unicode="&#x0134;" horiz-adv-x="1260" d="M38 434C38 156 250 -25 579 -25C891 -25 1091 140 1156 447L1368 1443L944 1443L742 495C719 389 666 335 582 335C494 335 445 394 445 484L445 505L41 505C39 484 38 453 38 434ZM1405 1872L1091 1872L764 1536L1040 1536L1213 1728L1221 1728L1312 1536L1588 1536Z" />
<glyph glyph-name="jcircumflex" unicode="&#x0135;" horiz-adv-x="560" d="M623 1104L227 1104L-14 -30C-25 -83 -65 -117 -130 -117C-160 -117 -185 -114 -201 -110L-262 -387C-221 -396 -144 -404 -88 -404C150 -404 329 -276 373 -69ZM702 1592L388 1592L61 1256L357 1256L520 1436L528 1436L613 1256L885 1256Z" />
<glyph glyph-name="Kcommaaccent" unicode="&#x0136;" horiz-adv-x="1457" d="M442 0L520 368L674 530L886 0L1350 0L1028 768L1672 1443L1192 1443L631 853L623 853L749 1443L325 1443L18 0ZM489 -475L760 -154L401 -154L181 -475Z" />
<glyph glyph-name="kcommaaccent" unicode="&#x0137;" horiz-adv-x="1243" d="M396 0L462 312L554 404L735 0L1163 0L872 618L1362 1104L910 1104L557 718L549 718L703 1443L308 1443L0 0ZM388 -475L659 -154L300 -154L80 -475Z" />
<glyph glyph-name="Lacute" unicode="&#x0139;" horiz-adv-x="1154" d="M1103 346L516 346L749 1443L325 1443L18 0L1029 0ZM725 1555L1067 1876L703 1876L403 1555Z" />
<glyph glyph-name="lacute" unicode="&#x013a;" horiz-adv-x="576" d="M0 0L396 0L703 1443L307 1443ZM693 1555L1035 1876L671 1876L371 1555Z" />
<glyph glyph-name="Lcommaaccent" unicode="&#x013b;" horiz-adv-x="1154" d="M1103 346L516 346L749 1443L325 1443L18 0L1029 0ZM372 -475L643 -154L284 -154L64 -475Z" />
<glyph glyph-name="lcommaaccent" unicode="&#x013c;" horiz-adv-x="576" d="M0 0L396 0L703 1443L307 1443ZM30 -475L301 -154L-58 -154L-278 -475Z" />
<glyph glyph-name="Lcaron" unicode="&#x013d;" horiz-adv-x="1154" d="M967 1443L857 925L1129 925L1289 1443ZM1103 346L516 346L749 1443L325 1443L18 0L1029 0Z" />
<glyph glyph-name="lcaron" unicode="&#x013e;" horiz-adv-x="928" d="M823 1443L713 925L985 925L1145 1443ZM0 0L396 0L703 1443L307 1443Z" />
<glyph glyph-name="Lslash" unicode="&#x0141;" horiz-adv-x="1154" d="M516 346L577 634L836 755L910 1103L651 982L749 1443L325 1443L180 763L60 707L-14 359L106 415L18 0L1029 0L1103 346Z" />
<glyph glyph-name="lslash" unicode="&#x0142;" horiz-adv-x="576" d="M737 1032L602 969L703 1443L307 1443L162 764L39 706L-23 416L101 474L0 0L396 0L540 679L675 742Z" />
<glyph glyph-name="Nacute" unicode="&#x0143;" horiz-adv-x="1509" d="M423 0L590 792L598 792L991 0L1311 0L1618 1443L1213 1443L1046 651L1038 651L645 1443L325 1443L18 0ZM1114 1555L1456 1876L1092 1876L792 1555Z" />
<glyph glyph-name="nacute" unicode="&#x0144;" horiz-adv-x="1286" d="M-8 0L386 0L524 648C546 753 625 824 718 824C804 824 865 769 865 692C865 671 863 651 858 624L727 0L1120 0L1264 685C1274 734 1279 779 1279 820C1279 1008 1147 1132 947 1132C800 1132 660 1063 582 937L574 937L610 1104L227 1104ZM978 1275L1312 1596L964 1596L664 1275Z" />
<glyph glyph-name="Ncommaaccent" unicode="&#x0145;" horiz-adv-x="1509" d="M423 0L590 792L598 792L991 0L1311 0L1618 1443L1213 1443L1046 651L1038 651L645 1443L325 1443L18 0ZM532 -475L803 -154L444 -154L224 -475Z" />
<glyph glyph-name="ncommaaccent" unicode="&#x0146;" horiz-adv-x="1286" d="M-8 0L386 0L524 648C546 753 625 824 718 824C804 824 865 769 865 692C865 671 863 651 858 624L727 0L1120 0L1264 685C1274 734 1279 779 1279 820C1279 1008 1147 1132 947 1132C800 1132 660 1063 582 937L574 937L610 1104L227 1104ZM389 -475L660 -154L301 -154L81 -475Z" />
<glyph glyph-name="Ncaron" unicode="&#x0147;" horiz-adv-x="1509" d="M423 0L590 792L598 792L991 0L1311 0L1618 1443L1213 1443L1046 651L1038 651L645 1443L325 1443L18 0ZM789 1536L1103 1536L1430 1872L1154 1872L981 1680L973 1680L882 1872L606 1872Z" />
<glyph glyph-name="ncaron" unicode="&#x0148;" horiz-adv-x="1286" d="M-8 0L386 0L524 648C546 753 625 824 718 824C804 824 865 769 865 692C865 671 863 651 858 624L727 0L1120 0L1264 685C1274 734 1279 779 1279 820C1279 1008 1147 1132 947 1132C800 1132 660 1063 582 937L574 937L610 1104L227 1104ZM921 1256L1247 1592L951 1592L789 1412L781 1412L695 1592L423 1592L607 1256Z" />
<glyph glyph-name="Omacron" unicode="&#x014c;" horiz-adv-x="1586" d="M915 1130C1061 1130 1157 1013 1157 829C1157 543 991 313 797 313C651 313 556 432 556 615C556 899 721 1130 915 1130ZM784 -25C1226 -25 1587 323 1587 854C1587 1203 1348 1468 925 1468C482 1468 126 1118 126 589C126 239 372 -25 784 -25ZM1385 1786L637 1786L599 1606L1347 1606Z" />
<glyph glyph-name="omacron" unicode="&#x014d;" horiz-adv-x="1299" d="M632 275C542 275 482 358 482 481C482 681 583 829 720 829C810 829 869 747 869 623C869 427 766 275 632 275ZM740 1132C354 1132 80 858 80 473C80 174 296 -28 614 -28C1000 -28 1274 246 1274 631C1274 930 1058 1132 740 1132ZM1181 1456L477 1456L439 1276L1143 1276Z" />
<glyph glyph-name="Obreve" unicode="&#x014e;" horiz-adv-x="1586" d="M915 1130C1061 1130 1157 1013 1157 829C1157 543 991 313 797 313C651 313 556 432 556 615C556 899 721 1130 915 1130ZM784 -25C1226 -25 1587 323 1587 854C1587 1203 1348 1468 925 1468C482 1468 126 1118 126 589C126 239 372 -25 784 -25ZM634 1870C630 1849 628 1828 628 1808C628 1660 735 1536 959 1536C1211 1536 1377 1688 1424 1870L1182 1870C1160 1784 1093 1722 993 1722C905 1722 861 1769 861 1839C861 1849 862 1859 864 1870Z" />
<glyph glyph-name="obreve" unicode="&#x014f;" horiz-adv-x="1299" d="M632 275C542 275 482 358 482 481C482 681 583 829 720 829C810 829 869 747 869 623C869 427 766 275 632 275ZM740 1132C354 1132 80 858 80 473C80 174 296 -28 614 -28C1000 -28 1274 246 1274 631C1274 930 1058 1132 740 1132ZM462 1590C459 1568 457 1551 457 1535C457 1372 594 1256 788 1256C1032 1256 1204 1388 1252 1590L1012 1590C989 1498 916 1442 822 1442C739 1442 691 1485 691 1559C691 1569 692 1579 694 1590Z" />
<glyph glyph-name="Ohungarumlaut" unicode="&#x0150;" horiz-adv-x="1586" d="M915 1130C1061 1130 1157 1013 1157 829C1157 543 991 313 797 313C651 313 556 432 556 615C556 899 721 1130 915 1130ZM784 -25C1226 -25 1587 323 1587 854C1587 1203 1348 1468 925 1468C482 1468 126 1118 126 589C126 239 372 -25 784 -25ZM1385 1555L1727 1876L1363 1876L1063 1555ZM865 1555L1207 1876L843 1876L543 1555Z" />
<glyph glyph-name="ohungarumlaut" unicode="&#x0151;" horiz-adv-x="1299" d="M632 275C542 275 482 358 482 481C482 681 583 829 720 829C810 829 869 747 869 623C869 427 766 275 632 275ZM740 1132C354 1132 80 858 80 473C80 174 296 -28 614 -28C1000 -28 1274 246 1274 631C1274 930 1058 1132 740 1132ZM937 1276L1217 1276L1496 1596L1187 1596ZM504 1276L784 1276L1063 1596L755 1596Z" />
<glyph glyph-name="OE" unicode="&#x0152;" horiz-adv-x="2233" d="M1126 0L2033 0L2104 336L1510 336L1560 569L2116 569L2181 873L1625 873L1674 1107L2267 1107L2339 1443L1433 1443L1382 1209L1374 1209C1289 1377 1137 1468 938 1468C475 1468 136 1097 136 592C136 226 367 -25 704 -25C892 -25 1066 54 1154 180L1162 180ZM1167 829C1167 547 1004 313 807 313C661 313 566 432 566 615C566 896 729 1130 925 1130C1072 1130 1167 1012 1167 829Z" />
<glyph glyph-name="oe" unicode="&#x0153;" horiz-adv-x="1999" d="M1369 -27C1657 -27 1873 121 1932 360L1566 360C1546 286 1488 246 1399 246C1283 246 1208 325 1208 454C1208 455 1208 466 1208 466L1957 466C1968 527 1978 612 1978 657C1978 937 1766 1133 1468 1133C1322 1133 1190 1065 1110 977L1090 977C1009 1074 877 1132 733 1132C360 1132 78 848 78 473C78 169 289 -27 612 -27C770 -27 901 26 990 129L1009 129C1059 47 1234 -27 1369 -27ZM1245 682C1271 787 1358 858 1461 858C1556 858 1622 798 1622 714C1622 703 1620 687 1619 682ZM488 472C488 667 597 836 724 836C808 836 857 760 857 630C857 435 750 270 624 270C538 270 488 343 488 472Z" />
<glyph glyph-name="Racute" unicode="&#x0154;" horiz-adv-x="1394" d="M1347 1876L983 1876L683 1555L1005 1555ZM606 774L683 1130L845 1130C962 1130 1026 1079 1026 977C1026 859 937 774 795 774ZM325 1443L18 0L442 0L545 484L694 484L830 0L1272 0L1112 524C1332 610 1451 808 1451 1012C1451 1259 1278 1443 974 1443Z" />
<glyph glyph-name="racute" unicode="&#x0155;" horiz-adv-x="894" d="M-8 0L389 0L511 564C544 716 639 789 770 789C837 789 885 772 936 748L1011 1091C967 1111 922 1120 859 1120C740 1120 642 1047 592 944L584 944L616 1104L229 1104ZM845 1276L1179 1597L831 1597L531 1276Z" />
<glyph glyph-name="Rcommaaccent" unicode="&#x0156;" horiz-adv-x="1394" d="M154 -475L462 -475L733 -154L374 -154ZM606 774L683 1130L845 1130C962 1130 1026 1079 1026 977C1026 859 937 774 795 774ZM325 1443L18 0L442 0L545 484L694 484L830 0L1272 0L1112 524C1332 610 1451 808 1451 1012C1451 1259 1278 1443 974 1443Z" />
<glyph glyph-name="rcommaaccent" unicode="&#x0157;" horiz-adv-x="894" d="M-8 0L389 0L511 564C544 716 639 789 770 789C837 789 885 772 936 748L1011 1091C967 1111 922 1120 859 1120C740 1120 642 1047 592 944L584 944L616 1104L229 1104ZM22 -475L293 -154L-66 -154L-286 -475Z" />
<glyph glyph-name="Rcaron" unicode="&#x0158;" horiz-adv-x="1394" d="M994 1536L1321 1872L1045 1872L872 1680L864 1680L773 1872L497 1872L680 1536ZM606 774L683 1130L845 1130C962 1130 1026 1079 1026 977C1026 859 937 774 795 774ZM325 1443L18 0L442 0L545 484L694 484L830 0L1272 0L1112 524C1332 610 1451 808 1451 1012C1451 1259 1278 1443 974 1443Z" />
<glyph glyph-name="rcaron" unicode="&#x0159;" horiz-adv-x="894" d="M-8 0L389 0L511 564C544 716 639 789 770 789C837 789 885 772 936 748L1011 1091C967 1111 922 1120 859 1120C740 1120 642 1047 592 944L584 944L616 1104L229 1104ZM788 1257L1114 1593L818 1593L656 1413L648 1413L562 1593L290 1593L474 1257Z" />
<glyph glyph-name="Sacute" unicode="&#x015a;" horiz-adv-x="1384" d="M62 425C63 140 292 -25 681 -25C1062 -25 1322 164 1322 468C1322 676 1210 784 951 859L793 905C677 939 637 979 637 1037C637 1105 709 1155 820 1155C940 1155 1021 1098 1024 1012L1411 1012C1409 1298 1182 1468 810 1468C460 1468 206 1276 206 982C206 785 334 655 575 582L726 536C862 494 889 463 889 410C889 338 812 289 689 289C570 289 475 346 463 425ZM1005 1555L1347 1876L983 1876L683 1555Z" />
<glyph glyph-name="sacute" unicode="&#x015b;" horiz-adv-x="1157" d="M159 760C159 608 256 504 462 434L562 400C661 366 692 344 692 306C692 260 649 233 572 233C471 233 404 284 400 358L26 358C35 121 241 -28 562 -28C879 -28 1084 121 1084 352C1084 500 1004 584 792 656L668 698C563 734 534 754 534 794C534 842 582 872 658 872C744 872 802 826 806 760L1160 760C1152 980 950 1132 664 1132C357 1132 159 986 159 760ZM921 1276L1255 1597L907 1597L607 1276Z" />
<glyph glyph-name="Scircumflex" unicode="&#x015c;" horiz-adv-x="1384" d="M62 425C63 140 292 -25 681 -25C1062 -25 1322 164 1322 468C1322 676 1210 784 951 859L793 905C677 939 637 979 637 1037C637 1105 709 1155 820 1155C940 1155 1021 1098 1024 1012L1411 1012C1409 1298 1182 1468 810 1468C460 1468 206 1276 206 982C206 785 334 655 575 582L726 536C862 494 889 463 889 410C889 338 812 289 689 289C570 289 475 346 463 425ZM1066 1872L752 1872L425 1536L701 1536L874 1728L882 1728L973 1536L1249 1536Z" />
<glyph glyph-name="scircumflex" unicode="&#x015d;" horiz-adv-x="1157" d="M159 760C159 608 256 504 462 434L562 400C661 366 692 344 692 306C692 260 649 233 572 233C471 233 404 284 400 358L26 358C35 121 241 -28 562 -28C879 -28 1084 121 1084 352C1084 500 1004 584 792 656L668 698C563 734 534 754 534 794C534 842 582 872 658 872C744 872 802 826 806 760L1160 760C1152 980 950 1132 664 1132C357 1132 159 986 159 760ZM935 1593L621 1593L294 1257L590 1257L753 1437L761 1437L846 1257L1118 1257Z" />
<glyph glyph-name="Scedilla" unicode="&#x015e;" horiz-adv-x="1384" d="M793 905C677 939 637 979 637 1037C637 1105 709 1155 820 1155C940 1155 1021 1098 1024 1012L1411 1012C1409 1298 1182 1468 810 1468C460 1468 206 1276 206 982C206 785 334 655 575 582L726 536C862 494 889 463 889 410C889 338 812 289 689 289C570 289 475 346 463 425L62 425C63 174 241 15 550 -18L494 -86L465 -211L523 -211C606 -211 634 -221 634 -250C634 -281 596 -297 522 -297C481 -297 437 -292 412 -285L377 -446C401 -455 455 -461 515 -461C704 -461 843 -361 843 -225C843 -141 795 -89 705 -76L748 -23C1092 -2 1322 182 1322 468C1322 676 1210 784 951 859Z" />
<glyph glyph-name="scedilla" unicode="&#x015f;" horiz-adv-x="1157" d="M668 698C563 734 534 754 534 794C534 842 582 872 658 872C744 872 802 826 806 760L1160 760C1152 980 950 1132 664 1132C357 1132 159 986 159 760C159 608 256 504 462 434L562 400C661 366 692 344 692 306C692 260 649 233 572 233C471 233 404 284 400 358L26 358C34 153 189 14 438 -20L383 -86L354 -211L412 -211C495 -211 523 -221 523 -250C523 -281 485 -297 411 -297C370 -297 326 -292 301 -285L266 -446C290 -455 344 -461 404 -461C593 -461 732 -361 732 -225C732 -141 684 -89 594 -76L635 -25C910 -4 1084 139 1084 352C1084 500 1004 584 792 656Z" />
<glyph glyph-name="Scaron" unicode="&#x0160;" horiz-adv-x="1384" d="M62 425C63 140 292 -25 681 -25C1062 -25 1322 164 1322 468C1322 676 1210 784 951 859L793 905C677 939 637 979 637 1037C637 1105 709 1155 820 1155C940 1155 1021 1098 1024 1012L1411 1012C1409 1298 1182 1468 810 1468C460 1468 206 1276 206 982C206 785 334 655 575 582L726 536C862 494 889 463 889 410C889 338 812 289 689 289C570 289 475 346 463 425ZM680 1536L994 1536L1321 1872L1045 1872L872 1680L864 1680L773 1872L497 1872Z" />
<glyph glyph-name="scaron" unicode="&#x0161;" horiz-adv-x="1157" d="M159 760C159 608 256 504 462 434L562 400C661 366 692 344 692 306C692 260 649 233 572 233C471 233 404 284 400 358L26 358C35 121 241 -28 562 -28C879 -28 1084 121 1084 352C1084 500 1004 584 792 656L668 698C563 734 534 754 534 794C534 842 582 872 658 872C744 872 802 826 806 760L1160 760C1152 980 950 1132 664 1132C357 1132 159 986 159 760ZM864 1257L1190 1593L894 1593L732 1413L724 1413L638 1593L366 1593L550 1257Z" />
<glyph glyph-name="Tcedilla" unicode="&#x0162;" horiz-adv-x="1306" d="M257 1443L185 1107L586 1107L351 0L574 0L502 -86L473 -211L531 -211C614 -211 642 -221 642 -250C642 -281 604 -297 530 -297C489 -297 445 -292 420 -285L385 -446C409 -455 463 -461 523 -461C712 -461 851 -361 851 -225C851 -141 803 -89 713 -76L775 0L1010 1107L1411 1107L1483 1443Z" />
<glyph glyph-name="tcedilla" unicode="&#x0163;" horiz-adv-x="873" d="M669 781L884 781L946 1071L730 1071L786 1334L390 1334L334 1071L170 1071L106 781L271 781L182 354C172 304 170 260 170 232C170 113 245 36 379 3L305 -86L276 -211L334 -211C417 -211 445 -221 445 -250C445 -281 407 -297 333 -297C292 -297 248 -292 223 -285L188 -446C212 -455 266 -461 326 -461C515 -461 654 -361 654 -225C654 -141 606 -89 516 -76L565 -16C625 -16 691 -10 720 -2L780 270C769 266 750 264 708 264C617 264 580 287 580 344C580 356 582 378 585 388Z" />
<glyph glyph-name="Tcaron" unicode="&#x0164;" horiz-adv-x="1306" d="M775 0L1010 1107L1411 1107L1483 1443L257 1443L185 1107L586 1107L351 0ZM732 1536L1046 1536L1373 1872L1097 1872L924 1680L916 1680L825 1872L549 1872Z" />
<glyph glyph-name="tcaron" unicode="&#x0165;" horiz-adv-x="1115" d="M1010 1746L900 1228L1172 1228L1332 1746ZM558 -16C620 -16 690 -10 720 -2L780 270C769 266 750 264 708 264C617 264 580 287 580 344C580 356 582 378 585 388L669 781L884 781L946 1071L730 1071L786 1334L390 1334L334 1071L170 1071L106 781L271 781L182 354C172 304 170 260 170 232C170 68 312 -16 558 -16Z" />
<glyph glyph-name="Tbar" unicode="&#x0166;" horiz-adv-x="1306" d="M1411 1107L1483 1443L257 1443L185 1107L586 1107L540 891L287 891L215 555L469 555L351 0L775 0L893 555L1197 555L1268 891L964 891L1010 1107Z" />
<glyph glyph-name="tbar" unicode="&#x0167;" horiz-adv-x="873" d="M884 781L946 1071L730 1071L786 1334L390 1334L334 1071L170 1071L106 781L271 781L246 659L80 659L43 485L209 485L182 354C172 304 170 260 170 232C170 68 312 -16 558 -16C620 -16 690 -10 720 -2L780 270C769 266 750 264 708 264C617 264 580 287 580 344C580 356 582 378 585 388L606 485L826 485L863 659L643 659L669 781Z" />
<glyph glyph-name="Utilde" unicode="&#x0168;" horiz-adv-x="1501" d="M745 -25C1075 -25 1336 153 1399 452L1608 1443L1184 1443L995 546C965 405 886 332 763 332C651 332 559 398 559 513C559 536 562 562 568 590L749 1443L325 1443L143 586C134 544 130 501 130 463C130 174 364 -25 745 -25ZM1156 1546C1295 1546 1411 1664 1450 1844L1245 1844C1227 1775 1198 1738 1156 1738C1077 1738 1041 1857 895 1857C754 1857 639 1742 602 1564L807 1564C824 1627 855 1665 895 1665C974 1665 1010 1546 1156 1546Z" />
<glyph glyph-name="utilde" unicode="&#x0169;" horiz-adv-x="1287" d="M1350 1104L952 1104L818 474C794 360 725 294 631 294C537 294 483 348 483 442C483 463 485 482 488 501L617 1104L221 1104L79 436C70 395 65 344 65 297C65 99 200 -28 411 -28C565 -28 694 49 760 180L768 180L730 0L1115 0ZM996 1256C1135 1256 1251 1374 1290 1554L1085 1554C1067 1485 1038 1448 996 1448C917 1448 881 1567 735 1567C594 1567 479 1452 442 1274L647 1274C664 1337 695 1375 735 1375C814 1375 850 1256 996 1256Z" />
<glyph glyph-name="Umacron" unicode="&#x016a;" horiz-adv-x="1501" d="M745 -25C1075 -25 1336 153 1399 452L1608 1443L1184 1443L995 546C965 405 886 332 763 332C651 332 559 398 559 513C559 536 562 562 568 590L749 1443L325 1443L143 586C134 544 130 501 130 463C130 174 364 -25 745 -25ZM1405 1786L657 1786L619 1606L1367 1606Z" />
<glyph glyph-name="umacron" unicode="&#x016b;" horiz-adv-x="1287" d="M1350 1104L952 1104L818 474C794 360 725 294 631 294C537 294 483 348 483 442C483 463 485 482 488 501L617 1104L221 1104L79 436C70 395 65 344 65 297C65 99 200 -28 411 -28C565 -28 694 49 760 180L768 180L730 0L1115 0ZM1234 1456L530 1456L492 1276L1196 1276Z" />
<glyph glyph-name="Ubreve" unicode="&#x016c;" horiz-adv-x="1501" d="M745 -25C1075 -25 1336 153 1399 452L1608 1443L1184 1443L995 546C965 405 886 332 763 332C651 332 559 398 559 513C559 536 562 562 568 590L749 1443L325 1443L143 586C134 544 130 501 130 463C130 174 364 -25 745 -25ZM654 1870C650 1849 648 1828 648 1808C648 1660 755 1536 979 1536C1231 1536 1397 1688 1444 1870L1202 1870C1180 1784 1113 1722 1013 1722C925 1722 881 1769 881 1839C881 1849 882 1859 884 1870Z" />
<glyph glyph-name="ubreve" unicode="&#x016d;" horiz-adv-x="1287" d="M1350 1104L952 1104L818 474C794 360 725 294 631 294C537 294 483 348 483 442C483 463 485 482 488 501L617 1104L221 1104L79 436C70 395 65 344 65 297C65 99 200 -28 411 -28C565 -28 694 49 760 180L768 180L730 0L1115 0ZM515 1590C512 1568 510 1551 510 1535C510 1372 647 1256 841 1256C1085 1256 1257 1388 1305 1590L1065 1590C1042 1498 969 1442 875 1442C792 1442 744 1485 744 1559C744 1569 745 1579 747 1590Z" />
<glyph glyph-name="Uring" unicode="&#x016e;" horiz-adv-x="1501" d="M745 -25C1075 -25 1336 153 1399 452L1608 1443L1184 1443L995 546C965 405 886 332 763 332C651 332 559 398 559 513C559 536 562 562 568 590L749 1443L325 1443L143 586C134 544 130 501 130 463C130 174 364 -25 745 -25ZM1051 1574C1183 1574 1294 1680 1294 1809C1294 1939 1183 2045 1051 2045C919 2045 807 1939 807 1809C807 1680 919 1574 1051 1574ZM1051 1725C1004 1725 963 1763 963 1809C963 1856 1004 1895 1051 1895C1098 1895 1139 1856 1139 1809C1139 1763 1098 1725 1051 1725Z" />
<glyph glyph-name="uring" unicode="&#x016f;" horiz-adv-x="1287" d="M1350 1104L952 1104L818 474C794 360 725 294 631 294C537 294 483 348 483 442C483 463 485 482 488 501L617 1104L221 1104L79 436C70 395 65 344 65 297C65 99 200 -28 411 -28C565 -28 694 49 760 180L768 180L730 0L1115 0ZM879 1235C1011 1235 1122 1341 1122 1470C1122 1600 1011 1706 879 1706C747 1706 635 1600 635 1470C635 1341 747 1235 879 1235ZM879 1386C832 1386 791 1424 791 1470C791 1517 832 1556 879 1556C926 1556 967 1517 967 1470C967 1424 926 1386 879 1386Z" />
<glyph glyph-name="Uhungarumlaut" unicode="&#x0170;" horiz-adv-x="1501" d="M745 -25C1075 -25 1336 153 1399 452L1608 1443L1184 1443L995 546C965 405 886 332 763 332C651 332 559 398 559 513C559 536 562 562 568 590L749 1443L325 1443L143 586C134 544 130 501 130 463C130 174 364 -25 745 -25ZM1405 1555L1747 1876L1383 1876L1083 1555ZM885 1555L1227 1876L863 1876L563 1555Z" />
<glyph glyph-name="uhungarumlaut" unicode="&#x0171;" horiz-adv-x="1287" d="M1350 1104L952 1104L818 474C794 360 725 294 631 294C537 294 483 348 483 442C483 463 485 482 488 501L617 1104L221 1104L79 436C70 395 65 344 65 297C65 99 200 -28 411 -28C565 -28 694 49 760 180L768 180L730 0L1115 0ZM990 1276L1270 1276L1549 1596L1240 1596ZM557 1276L837 1276L1116 1596L808 1596Z" />
<glyph glyph-name="Uogonek" unicode="&#x0172;" horiz-adv-x="1501" d="M1025 -468L1066 -275C1055 -279 1023 -284 992 -284C922 -284 885 -256 885 -210C885 -106 987 -26 1129 66C1261 152 1363 281 1399 452L1608 1443L1183 1443L994 546C964 405 886 332 763 332C651 332 560 398 560 513C560 536 563 562 569 590L751 1443L325 1443L143 586C134 544 130 501 130 463C130 174 377 -25 758 -25C763 -25 769 -24 774 -23L774 -31C665 -92 588 -190 588 -286C588 -414 698 -494 848 -494C922 -494 982 -485 1025 -468Z" />
</font>
</defs>
</svg>
