<?xml version="1.0" standalone="no"?><!DOCTYPE svg PUBLIC "-//W3C//DTD SVG 1.1//EN" "http://www.w3.org/Graphics/SVG/1.1/DTD/svg11.dtd" ><svg xmlns="http://www.w3.org/2000/svg"><metadata></metadata><defs>
<font id="SFProDisplay-LightItalic" >
<font-face font-family="SF Pro Display" font-stretch="normal" units-per-em="2048" weight="300" panose-1="0,0,4,0,0,0,0,0,0,0" ascent="1950" descent="-494" x-height="1040" underline-thickness="95" underline-position="-322" unicode-range="U+00000032-00064258" bbox="-574,-494,2767,2095" />
<missing-glyph horiz-adv-x="2048" d="M-62 -494L1785 -494L1851 -186L3 -186ZM29 -67L1876 -67L1941 241L94 241ZM120 361L1967 361L2032 668L185 668ZM210 788L2058 788L2123 1095L276 1095ZM301 1215L2149 1215L2214 1523L367 1523ZM392 1642L2239 1642L2305 1950L457 1950Z" />
<glyph glyph-name="space" unicode="&#x20;" horiz-adv-x="479" d="" />
<glyph glyph-name="exclam" unicode="&#x21;" horiz-adv-x="533" d="M439 1443L241 457L369 457L590 1443ZM230 -9C282 -9 323 32 323 84C323 137 282 178 230 178C177 178 136 137 136 84C136 32 177 -9 230 -9Z" />
<glyph glyph-name="quotedbl" unicode="&#x22;" horiz-adv-x="707" d="M409 955L513 1443L390 1443L286 955ZM713 955L816 1443L693 1443L589 955Z" />
<glyph glyph-name="numbersign" unicode="&#x23;" horiz-adv-x="1231" d="M644 0L756 0L895 419L1173 419L1208 530L931 530L1060 925L1328 925L1364 1035L1097 1035L1233 1445L1122 1445L985 1035L626 1035L761 1445L650 1445L513 1035L254 1035L218 925L477 925L349 530L98 530L63 419L312 419L173 0L284 0L423 419L783 419ZM458 528L588 926L949 926L820 528Z" />
<glyph glyph-name="dollar" unicode="&#x24;" horiz-adv-x="1219" d="M753 653C918 586 1000 511 1000 380C1000 213 865 93 646 93C642 93 638 93 633 93ZM686 828C528 895 453 963 453 1080C453 1233 589 1348 782 1348C787 1348 792 1348 797 1348ZM781 787L898 1335C1029 1302 1118 1211 1135 1083L1273 1083C1266 1263 1126 1415 924 1460L954 1599L850 1599L823 1473C815 1473 808 1473 800 1473C506 1473 310 1303 310 1073C310 909 414 793 621 708L657 693L532 104C375 138 269 241 254 384L116 384C124 183 288 27 506 -18L477 -153L581 -153L607 -30C616 -31 626 -31 635 -31C931 -31 1145 137 1145 394C1145 571 1030 683 820 771Z" />
<glyph glyph-name="percent" unicode="&#x25;" horiz-adv-x="1575" d="M219 1012C219 852 311 751 457 751C645 751 792 939 792 1196C792 1355 700 1457 554 1457C365 1457 219 1269 219 1012ZM460 849C389 849 346 909 346 1005C346 1197 442 1358 551 1358C621 1358 665 1298 665 1202C665 1011 568 849 460 849ZM272 0L940 704L1641 1443L1496 1443L840 752L126 0ZM975 247C975 87 1067 -14 1213 -14C1402 -14 1549 173 1549 431C1549 590 1456 691 1310 691C1121 691 975 504 975 247ZM1216 84C1146 84 1102 144 1102 240C1102 432 1198 593 1308 593C1377 593 1421 533 1421 437C1421 246 1325 84 1216 84Z" />
<glyph glyph-name="ampersand" unicode="&#x26;" horiz-adv-x="1413" d="M554 1129C554 1256 669 1362 807 1362C931 1362 1016 1290 1016 1181C1016 1064 914 944 674 864C588 985 554 1059 554 1129ZM569 91C366 91 234 212 234 373C234 508 334 622 529 697L612 730L954 222C840 132 696 91 569 91ZM1101 0L1263 0L1121 209C1240 334 1326 500 1348 690L1358 761L1229 761L1220 696C1203 545 1140 411 1051 312L733 776C1024 879 1147 1028 1147 1195C1147 1354 1007 1473 813 1473C591 1473 422 1318 422 1131C422 1045 460 955 552 823L467 789C217 689 97 547 97 361C97 143 304 -25 564 -25C734 -25 893 29 1018 124Z" />
<glyph glyph-name="quotesingle" unicode="&#x27;" horiz-adv-x="403" d="M409 955L513 1443L390 1443L286 955Z" />
<glyph glyph-name="parenleft" unicode="&#x28;" horiz-adv-x="634" d="M446 -305C387 -149 351 82 351 338C351 753 523 1152 818 1443L670 1443C402 1180 218 779 218 344C218 109 258 -158 327 -305Z" />
<glyph glyph-name="parenright" unicode="&#x29;" horiz-adv-x="634" d="M316 1444C376 1287 412 1057 412 801C412 386 240 -13 -55 -304L93 -304C361 -42 545 360 545 795C545 1030 505 1296 436 1444Z" />
<glyph glyph-name="asterisk" unicode="&#x2a;" horiz-adv-x="975" d="M931 857L990 936L747 1107L1043 1223L1008 1317L725 1187L785 1486L685 1496L639 1187L404 1376L346 1296L582 1128L292 1014L327 920L613 1050L553 749L654 739L699 1042Z" />
<glyph glyph-name="plus" unicode="&#x2b;" horiz-adv-x="1219" d="M718 510L1162 510L1188 634L745 634L841 1085L723 1085L627 634L186 634L160 510L601 510L507 66L624 66Z" />
<glyph glyph-name="comma" unicode="&#x2c;" horiz-adv-x="511" d="M120 -276L347 206L207 206L8 -276Z" />
<glyph glyph-name="hyphen" unicode="&#x2d;" horiz-adv-x="830" d="M140 504L790 504L815 620L165 620Z" />
<glyph glyph-name="period" unicode="&#x2e;" horiz-adv-x="518" d="M220 -9C272 -9 313 32 313 84C313 137 272 178 220 178C168 178 126 137 126 84C126 32 168 -9 220 -9Z" />
<glyph glyph-name="slash" unicode="&#x2f;" horiz-adv-x="634" d="M-5 -305L884 1443L768 1443L-121 -305Z" />
<glyph glyph-name="zero" unicode="&#x30;" horiz-adv-x="1260" d="M633 -23C1005 -23 1277 383 1277 941C1277 1262 1100 1466 821 1466C451 1466 176 1055 176 500C176 180 353 -23 633 -23ZM317 502C317 970 539 1344 817 1344C1011 1344 1135 1186 1135 940C1135 469 916 98 638 98C442 98 317 255 317 502Z" />
<glyph glyph-name="one" unicode="&#x31;" horiz-adv-x="868" d="M426 0L563 0L870 1443L734 1443C669 1409 324 1197 288 1176L255 1017C307 1047 652 1260 695 1282L699 1282Z" />
<glyph glyph-name="two" unicode="&#x32;" horiz-adv-x="1179" d="M288 1055L424 1055C457 1231 593 1346 770 1346C938 1346 1059 1240 1059 1092C1059 961 992 871 724 641L102 110L80 0L1033 0L1059 124L307 124L308 128L803 551C1118 821 1197 930 1197 1106C1197 1312 1017 1466 778 1466C519 1466 322 1300 288 1055Z" />
<glyph glyph-name="three" unicode="&#x33;" horiz-adv-x="1195" d="M489 685L662 685C863 685 983 583 983 410C983 225 830 97 607 97C395 97 252 209 245 379C245 387 246 394 248 401L116 401C115 397 113 386 113 377C107 143 309 -23 597 -23C903 -23 1124 164 1124 421C1124 588 1025 707 861 739L862 743C1064 769 1206 918 1206 1106C1206 1316 1030 1465 783 1465C533 1465 343 1322 304 1103L437 1103C470 1249 604 1347 771 1347C949 1347 1068 1244 1068 1090C1068 921 917 804 701 804L514 804Z" />
<glyph glyph-name="four" unicode="&#x34;" horiz-adv-x="1217" d="M757 0L891 0L960 326L1176 326L1202 449L986 449L1198 1445L988 1445C528 949 286 675 113 455L92 326L826 326ZM262 452C470 710 681 946 1034 1321L1038 1321L852 448L261 448Z" />
<glyph glyph-name="five" unicode="&#x35;" horiz-adv-x="1186" d="M633 -23C940 -23 1162 202 1162 502C1162 762 977 939 721 939C596 939 469 887 397 805L393 805L553 1320L1227 1320L1254 1443L462 1443L220 665C234 665 364 665 364 665C439 760 569 822 689 822C885 822 1024 691 1024 496C1024 267 862 101 638 101C442 101 293 221 284 388L284 390L149 390L149 386C151 150 357 -23 633 -23Z" />
<glyph glyph-name="six" unicode="&#x36;" horiz-adv-x="1217" d="M1197 515C1203 768 1020 949 761 949C583 949 430 866 342 719L336 720C401 1098 594 1343 845 1343C1015 1343 1139 1240 1156 1080L1296 1080C1282 1309 1102 1466 859 1466C439 1466 197 1006 186 564C173 114 438 -23 654 -23C967 -23 1189 200 1197 515ZM730 829C924 829 1062 690 1057 492C1053 264 890 99 665 99C466 99 322 256 326 457C330 664 514 829 730 829Z" />
<glyph glyph-name="seven" unicode="&#x37;" horiz-adv-x="1078" d="M121 0L274 0L1214 1315L1242 1443L323 1443L296 1320L1066 1320L1065 1315Z" />
<glyph glyph-name="eight" unicode="&#x38;" horiz-adv-x="1224" d="M1160 419C1160 568 1063 696 912 745L913 749C1114 789 1251 941 1251 1123C1251 1323 1069 1464 813 1464C534 1464 320 1289 320 1061C320 936 397 829 521 781L520 777C285 743 115 568 115 357C115 133 320 -24 612 -24C930 -24 1160 162 1160 419ZM660 698C872 698 1021 583 1021 422C1021 232 854 97 620 97C402 97 258 208 258 375C258 559 430 698 660 698ZM455 1056C455 1221 605 1346 803 1346C987 1346 1111 1248 1111 1105C1111 939 962 815 763 815C581 815 455 914 455 1056Z" />
<glyph glyph-name="nine" unicode="&#x39;" horiz-adv-x="1212" d="M719 614C526 614 387 756 391 950C396 1178 560 1344 782 1344C983 1344 1119 1193 1115 990C1111 777 927 614 719 614ZM253 938C247 685 436 495 689 495C864 495 1016 582 1100 730L1105 729C1041 336 845 101 591 101C423 101 302 202 281 364L142 364C158 134 335 -23 579 -23C1030 -23 1245 492 1257 926C1268 1344 996 1466 797 1466C487 1466 261 1246 253 938Z" />
<glyph glyph-name="colon" unicode="&#x3a;" horiz-adv-x="518" d="M220 -9C272 -9 313 32 313 84C313 137 272 178 220 178C168 178 126 137 126 84C126 32 168 -9 220 -9ZM381 748C433 748 475 789 475 842C475 894 433 935 381 935C329 935 287 894 287 842C287 789 329 748 381 748Z" />
<glyph glyph-name="semicolon" unicode="&#x3b;" horiz-adv-x="518" d="M381 748C433 748 475 789 475 842C475 894 433 935 381 935C329 935 287 894 287 842C287 789 329 748 381 748ZM120 -276L347 206L207 206L8 -276Z" />
<glyph glyph-name="less" unicode="&#x3c;" horiz-adv-x="1219" d="M1012 124L387 558L388 565L1200 1007L1232 1154L251 625L228 516L983 -16Z" />
<glyph glyph-name="equal" unicode="&#x3d;" horiz-adv-x="1219" d="M1105 323L1130 441L163 441L138 323ZM1185 703L1210 821L243 821L218 703Z" />
<glyph glyph-name="greater" unicode="&#x3e;" horiz-adv-x="1219" d="M336 1013L961 579L959 572L147 130L116 -17L1096 512L1119 621L364 1153Z" />
<glyph glyph-name="question" unicode="&#x3f;" horiz-adv-x="945" d="M221 1102L353 1102C395 1248 508 1338 659 1338C826 1338 917 1236 917 1116C917 989 843 893 683 823C527 757 453 686 418 524L398 430L534 430L549 508C571 620 628 680 771 740C946 813 1062 957 1062 1130C1062 1310 906 1458 669 1458C425 1458 267 1316 221 1102ZM404 -9C456 -9 497 32 497 84C497 137 456 178 404 178C352 178 310 137 310 84C310 32 352 -9 404 -9Z" />
<glyph glyph-name="at" unicode="&#x40;" horiz-adv-x="1772" d="M1050 1436C516 1436 132 1060 132 535C132 77 463 -240 941 -240C1014 -240 1096 -231 1150 -218L1171 -116C1133 -130 1038 -141 954 -141C528 -141 242 131 242 536C242 993 584 1337 1039 1337C1439 1337 1701 1116 1701 776C1701 500 1559 283 1380 283C1310 283 1267 320 1267 381C1267 394 1268 412 1273 433L1392 982L1271 982L1240 835L1228 835C1209 940 1102 1017 977 1017C745 1017 563 800 563 522C563 317 686 177 868 177C984 177 1088 236 1144 333L1156 332C1156 328 1155 324 1155 320C1163 236 1247 177 1358 177C1618 177 1808 433 1808 781C1808 1170 1499 1436 1050 1436ZM1196 670C1196 460 1058 285 892 285C767 285 687 380 687 531C687 743 819 908 988 908C1115 908 1196 815 1196 670Z" />
<glyph glyph-name="A" unicode="&#x41;" horiz-adv-x="1261" d="M848 1274L852 1274L965 560L440 560ZM1051 0L1181 0L949 1443L811 1443L-33 0L118 0L374 443L983 443Z" />
<glyph glyph-name="B" unicode="&#x42;" horiz-adv-x="1256" d="M644 0C974 0 1198 183 1198 447C1198 604 1098 721 936 744L937 748C1125 790 1267 940 1267 1126C1267 1316 1115 1443 883 1443L387 1443L80 0ZM500 1322L834 1322C1024 1322 1125 1242 1125 1099C1125 927 960 802 738 802L390 802ZM245 121L365 684L736 684C934 684 1054 601 1054 436C1054 255 886 121 642 121Z" />
<glyph glyph-name="C" unicode="&#x43;" horiz-adv-x="1382" d="M1320 976L1458 976C1458 982 1458 985 1457 995C1443 1279 1224 1465 910 1465C486 1465 175 1087 175 591C175 219 404 -22 757 -22C1043 -22 1274 145 1356 411L1217 411C1144 218 973 104 760 104C488 104 315 295 315 597C315 1021 563 1339 907 1339C1140 1339 1304 1203 1318 993C1319 987 1320 981 1320 976Z" />
<glyph glyph-name="D" unicode="&#x44;" horiz-adv-x="1391" d="M387 1443L82 0L606 0C1085 0 1408 357 1408 866C1408 1224 1189 1443 809 1443ZM501 1321L786 1321C1103 1321 1268 1153 1268 849C1268 428 993 122 597 122L246 122Z" />
<glyph glyph-name="E" unicode="&#x45;" horiz-adv-x="1102" d="M979 124L246 124L364 678L1059 678L1086 800L390 800L500 1319L1233 1319L1260 1443L387 1443L80 0L953 0Z" />
<glyph glyph-name="F" unicode="&#x46;" horiz-adv-x="1059" d="M219 0L359 655L1018 655L1044 777L385 777L500 1319L1218 1319L1245 1443L387 1443L80 0Z" />
<glyph glyph-name="G" unicode="&#x47;" horiz-adv-x="1420" d="M1432 721L858 721L832 600L1267 600L1250 521C1196 264 1006 104 757 104C479 104 314 303 314 597C314 961 515 1339 908 1339C1144 1339 1299 1201 1318 983L1456 983C1456 986 1456 990 1456 993C1441 1272 1231 1465 909 1465C428 1465 174 1018 174 591C174 229 395 -22 756 -22C1075 -22 1313 173 1387 514Z" />
<glyph glyph-name="H" unicode="&#x48;" horiz-adv-x="1394" d="M1200 0L1507 1443L1368 1443L1231 801L390 801L526 1443L387 1443L80 0L219 0L364 677L1205 677L1061 0Z" />
<glyph glyph-name="I" unicode="&#x49;" horiz-adv-x="413" d="M219 0L526 1443L387 1443L80 0Z" />
<glyph glyph-name="J" unicode="&#x4a;" horiz-adv-x="996" d="M65 318C65 122 221 -23 439 -23C673 -23 829 118 880 360L1109 1443L970 1443L748 395C708 205 607 105 453 105C302 105 203 195 203 334C203 338 203 340 203 340L65 340C65 334 65 325 65 318Z" />
<glyph glyph-name="K" unicode="&#x4b;" horiz-adv-x="1209" d="M219 0L327 508L568 718L982 0L1141 0L675 803L1390 1443L1207 1443L372 700L368 700L526 1443L387 1443L80 0Z" />
<glyph glyph-name="L" unicode="&#x4c;" horiz-adv-x="1053" d="M966 124L246 124L526 1443L387 1443L80 0L940 0Z" />
<glyph glyph-name="M" unicode="&#x4d;" horiz-adv-x="1667" d="M210 0L462 1192L467 1192L717 7L836 7L1591 1192L1597 1192L1343 0L1473 0L1780 1443L1610 1443L808 172L804 172L537 1443L387 1443L80 0Z" />
<glyph glyph-name="N" unicode="&#x4e;" horiz-adv-x="1400" d="M219 0L482 1236L486 1236L1067 0L1206 0L1513 1443L1374 1443L1111 207L1107 207L526 1443L387 1443L80 0Z" />
<glyph glyph-name="O" unicode="&#x4f;" horiz-adv-x="1491" d="M918 1339C1191 1339 1368 1145 1368 838C1368 430 1116 104 765 104C493 104 315 298 315 605C315 1013 568 1339 918 1339ZM764 -22C1193 -22 1508 363 1508 844C1508 1219 1273 1465 920 1465C490 1465 175 1080 175 599C175 224 410 -22 764 -22Z" />
<glyph glyph-name="P" unicode="&#x50;" horiz-adv-x="1195" d="M389 1443L80 0L220 0L336 544L697 544C1032 544 1280 738 1280 1058C1280 1290 1105 1443 864 1443ZM502 1321L821 1321C1019 1321 1138 1214 1138 1046C1138 805 956 666 692 666L362 666Z" />
<glyph glyph-name="Q" unicode="&#x51;" horiz-adv-x="1491" d="M1238 -169L1113 73C1353 217 1508 507 1508 844C1508 1219 1273 1465 920 1465C490 1465 175 1080 175 599C175 224 410 -22 764 -22C848 -22 929 -6 1003 22L1102 -169ZM765 104C493 104 315 298 315 605C315 1013 568 1339 918 1339C1191 1339 1368 1145 1368 838C1368 554 1246 310 1054 188L946 395L810 395L945 135C888 115 829 104 765 104Z" />
<glyph glyph-name="R" unicode="&#x52;" horiz-adv-x="1227" d="M80 0L220 0L346 591L732 591L744 591L951 0L1095 0L879 610C1132 655 1284 838 1284 1068C1284 1294 1132 1443 857 1443L389 1443ZM502 1321L849 1321C1034 1321 1141 1217 1141 1055C1141 853 978 714 744 714L372 714Z" />
<glyph glyph-name="S" unicode="&#x53;" horiz-adv-x="1213" d="M105 416C114 146 352 -22 653 -22C979 -22 1162 179 1162 408C1162 585 1049 700 816 778L708 816C516 882 435 957 435 1079C435 1220 560 1341 778 1341C992 1341 1131 1223 1141 1055L1278 1055C1273 1305 1064 1465 780 1465C494 1465 294 1304 294 1069C294 884 405 774 646 691L753 654C939 590 1019 517 1019 383C1019 207 865 102 655 102C418 102 259 230 242 416Z" />
<glyph glyph-name="T" unicode="&#x54;" horiz-adv-x="1188" d="M607 0L888 1319L1370 1319L1396 1443L292 1443L266 1319L748 1319L468 0Z" />
<glyph glyph-name="U" unicode="&#x55;" horiz-adv-x="1399" d="M682 -22C1025 -22 1238 157 1303 463L1512 1443L1373 1443L1169 488C1117 248 939 104 704 104C464 104 332 231 327 425C326 467 331 516 340 559L527 1443L388 1443L199 552C190 507 185 462 186 417C188 167 368 -22 682 -22Z" />
<glyph glyph-name="V" unicode="&#x56;" horiz-adv-x="1263" d="M644 0L1488 1443L1334 1443L610 182L606 182L406 1443L274 1443L505 0Z" />
<glyph glyph-name="W" unicode="&#x57;" horiz-adv-x="1845" d="M1118 1212L1122 1212L1226 0L1359 0L2057 1443L1912 1443L1332 219L1328 219L1227 1443L1098 1443L490 218L486 218L418 1443L289 1443L379 0L513 0Z" />
<glyph glyph-name="X" unicode="&#x58;" horiz-adv-x="1255" d="M-23 0L154 0L702 615L708 615L999 0L1155 0L811 712L1471 1443L1294 1443L746 829L741 829L450 1443L294 1443L639 731Z" />
<glyph glyph-name="Y" unicode="&#x59;" horiz-adv-x="1219" d="M624 0L752 612L1445 1443L1285 1443L711 752L707 752L419 1443L274 1443L616 631L484 0Z" />
<glyph glyph-name="Z" unicode="&#x5a;" horiz-adv-x="1226" d="M31 0L1082 0L1108 123L243 123L244 127L1355 1343L1376 1443L366 1443L339 1320L1165 1320L1165 1316L52 99Z" />
<glyph glyph-name="bracketleft" unicode="&#x5b;" horiz-adv-x="634" d="M451 1443L79 -305L488 -305L511 -200L230 -200L557 1337L838 1337L861 1443Z" />
<glyph glyph-name="backslash" unicode="&#x5c;" horiz-adv-x="634" d="M352 -305L464 -305L411 1443L299 1443Z" />
<glyph glyph-name="bracketright" unicode="&#x5d;" horiz-adv-x="634" d="M311 -305L684 1443L274 1443L251 1338L533 1338L205 -199L-76 -199L-99 -305Z" />
<glyph glyph-name="asciicircum" unicode="&#x5e;" horiz-adv-x="850" d="M640 1303L652 1303L781 810L909 810L741 1427L600 1427L170 810L301 810Z" />
<glyph glyph-name="underscore" unicode="&#x5f;" horiz-adv-x="1024" d="M-112 -211L932 -211L956 -100L-88 -100Z" />
<glyph glyph-name="grave" unicode="&#x60;" horiz-adv-x="1000" d="M886 1222L730 1524L594 1524L777 1222Z" />
<glyph glyph-name="a" unicode="&#x61;" horiz-adv-x="1001" d="M435 97C302 97 211 168 211 278C211 402 317 478 503 488L813 505L782 364C747 207 602 97 435 97ZM402 -17C542 -17 667 49 740 153L743 153L710 0L838 0L982 678C987 705 990 736 990 767C990 939 849 1057 633 1057C399 1057 232 928 199 741L337 741C363 861 465 940 623 940C772 940 857 867 857 749C857 729 856 708 851 686L835 612L504 594C234 579 77 464 77 264C77 99 219 -17 402 -17Z" />
<glyph glyph-name="b" unicode="&#x62;" horiz-adv-x="1122" d="M595 -17C910 -17 1113 281 1113 606C1113 888 960 1057 726 1057C580 1057 442 973 374 847L371 847L497 1443L365 1443L58 0L184 0L237 252L242 252C270 97 417 -17 595 -17ZM594 101C415 101 295 232 295 421C295 703 465 940 696 940C876 940 981 812 981 604C981 326 822 101 594 101Z" />
<glyph glyph-name="c" unicode="&#x63;" horiz-adv-x="1021" d="M647 1057C339 1057 116 784 116 431C116 168 269 -17 539 -17C750 -17 926 119 983 310L852 310C802 183 687 100 540 100C367 100 252 230 252 436C252 727 418 940 646 940C810 940 913 836 923 701L1052 701C1052 705 1052 703 1052 706C1045 895 902 1057 647 1057Z" />
<glyph glyph-name="d" unicode="&#x64;" horiz-adv-x="1131" d="M498 -17C647 -17 791 71 862 195L866 195L825 0L959 0L1266 1443L1133 1443L993 790L988 790C961 943 820 1057 642 1057C349 1057 114 779 114 420C114 159 265 -17 498 -17ZM528 100C354 100 247 227 247 427C247 717 424 939 643 939C821 939 935 809 935 619C935 331 764 100 528 100Z" />
<glyph glyph-name="e" unicode="&#x65;" horiz-adv-x="1047" d="M270 599C313 795 449 941 634 941C820 941 909 809 909 648C909 628 909 615 906 599ZM534 -19C755 -19 932 118 989 310L858 310C807 180 693 99 537 99C361 99 249 226 249 432C249 448 250 469 253 492L1032 492C1040 534 1043 587 1043 631C1043 894 887 1057 636 1057C333 1057 114 779 114 427C114 166 263 -19 534 -19Z" />
<glyph glyph-name="f" unicode="&#x66;" horiz-adv-x="584" d="M121 0L254 0L449 929L692 929L716 1040L472 1040L495 1153C519 1273 586 1330 701 1330C730 1330 770 1325 792 1319L815 1430C777 1438 741 1442 699 1442C508 1442 399 1352 362 1158L338 1040L170 1040L146 929L315 929Z" />
<glyph glyph-name="g" unicode="&#x67;" horiz-adv-x="1121" d="M459 -385C712 -385 900 -242 958 30L1172 1040L1041 1040L989 786L984 786C956 943 821 1057 642 1057C317 1057 115 754 115 434C115 170 269 0 504 0C651 0 792 83 862 211L866 211L825 29C778 -166 650 -271 461 -271C302 -271 195 -193 183 -88L47 -88C47 -256 222 -385 459 -385ZM532 117C349 117 247 245 247 438C247 716 413 939 643 939C811 939 933 810 933 620C933 345 773 117 532 117Z" />
<glyph glyph-name="h" unicode="&#x68;" horiz-adv-x="1087" d="M58 0L192 0L327 631C364 807 502 939 680 939C836 939 932 846 932 707C932 679 928 644 920 606L788 0L920 0L1058 630C1066 671 1070 710 1070 743C1070 914 937 1057 733 1057C567 1057 444 969 379 860L375 860L500 1443L366 1443Z" />
<glyph glyph-name="i" unicode="&#x69;" horiz-adv-x="373" d="M62 0L196 0L417 1040L283 1040ZM409 1230C457 1230 497 1269 497 1318C497 1367 457 1406 409 1406C360 1406 320 1367 320 1318C320 1269 360 1230 409 1230Z" />
<glyph glyph-name="j" unicode="&#x6a;" horiz-adv-x="373" d="M416 1230C464 1230 504 1269 504 1318C504 1367 464 1406 416 1406C367 1406 327 1367 327 1318C327 1269 367 1230 416 1230ZM418 1040L284 1040L46 -72C21 -192 -31 -239 -137 -239C-154 -239 -169 -238 -189 -236L-215 -351C-189 -354 -156 -355 -140 -355C34 -354 137 -277 177 -89Z" />
<glyph glyph-name="k" unicode="&#x6b;" horiz-adv-x="928" d="M192 0L279 405L439 529L739 0L888 0L546 604L1091 1040L917 1040L316 564L312 564L499 1443L365 1443L58 0Z" />
<glyph glyph-name="l" unicode="&#x6c;" horiz-adv-x="380" d="M66 0L200 0L507 1443L373 1443Z" />
<glyph glyph-name="m" unicode="&#x6d;" horiz-adv-x="1619" d="M56 0L189 0L328 653C364 823 491 939 628 939C757 939 836 851 836 736C836 705 831 665 823 628L689 0L822 0L961 649C999 830 1125 939 1263 939C1391 939 1469 851 1469 736C1469 705 1465 665 1457 628L1323 0L1457 0L1595 651C1603 690 1607 733 1607 772C1607 939 1482 1057 1312 1057C1143 1057 1023 957 963 844L959 844C940 958 833 1057 678 1057C541 1057 426 973 370 859L366 859L404 1040L277 1040Z" />
<glyph glyph-name="n" unicode="&#x6e;" horiz-adv-x="1074" d="M56 0L189 0L324 631C362 812 501 939 672 939C823 939 921 852 921 714C921 685 916 647 907 606L778 0L911 0L1046 630C1054 672 1059 715 1059 750C1059 927 917 1057 724 1057C565 1057 442 978 369 858L365 858L404 1040L277 1040Z" />
<glyph glyph-name="o" unicode="&#x6f;" horiz-adv-x="1089" d="M547 100C366 100 250 233 250 437C250 723 420 940 650 940C830 940 946 807 946 603C946 317 776 100 547 100ZM650 1057C346 1057 116 786 116 433C116 161 285 -17 547 -17C850 -17 1080 254 1080 607C1080 879 912 1057 650 1057Z" />
<glyph glyph-name="p" unicode="&#x70;" horiz-adv-x="1120" d="M589 101C411 101 295 232 295 421C295 698 460 940 698 940C875 940 981 813 981 602C981 315 810 101 589 101ZM113 -345L238 247L243 247C275 94 415 -17 591 -17C886 -17 1111 252 1111 610C1111 881 963 1057 728 1057C580 1057 441 971 369 843L365 843L407 1040L277 1040L-18 -345Z" />
<glyph glyph-name="q" unicode="&#x71;" horiz-adv-x="1123" d="M527 100C353 100 247 228 247 427C247 712 423 939 643 939C823 939 935 810 935 619C935 324 759 100 527 100ZM879 -345L1174 1040L1046 1040L993 789L988 789C962 941 822 1057 642 1057C348 1057 114 774 114 422C114 156 265 -17 498 -17C648 -17 791 72 864 200L868 200L749 -345Z" />
<glyph glyph-name="r" unicode="&#x72;" horiz-adv-x="665" d="M56 0L188 0L318 613C361 811 466 928 635 928C686 928 743 916 766 903L795 1030C770 1043 720 1055 669 1055C541 1055 443 993 374 884L370 884L403 1040L277 1040Z" />
<glyph glyph-name="s" unicode="&#x73;" horiz-adv-x="937" d="M202 759C202 625 278 543 460 484L550 454C697 406 741 368 741 287C741 177 635 93 488 93C327 93 220 178 202 302L69 302C79 118 243 -17 482 -17C710 -17 874 113 874 294C874 429 799 507 611 568L521 597C383 642 332 688 332 770C332 872 429 947 575 947C714 947 815 863 827 745L954 745C947 928 795 1057 577 1057C355 1057 202 931 202 759Z" />
<glyph glyph-name="t" unicode="&#x74;" horiz-adv-x="581" d="M400 -6C424 -6 465 -3 489 1L513 113C497 111 467 110 445 110C355 110 299 147 299 228C299 253 303 282 311 316L441 929L665 929L688 1040L464 1040L521 1306L387 1306L332 1040L179 1040L156 929L308 929L170 280C163 247 159 218 159 191C159 60 260 -6 400 -6Z" />
<glyph glyph-name="u" unicode="&#x75;" horiz-adv-x="1073" d="M1125 1040L993 1040L858 409C821 234 681 101 500 101C345 101 261 178 261 320C261 347 267 396 275 434L404 1040L270 1040L138 413C130 372 124 318 124 280C124 113 250 -17 452 -17C617 -17 751 73 811 171L815 171L777 0L904 0Z" />
<glyph glyph-name="v" unicode="&#x76;" horiz-adv-x="940" d="M178 1040L344 0L492 0L1093 1040L946 1040L446 148L442 148L310 1040Z" />
<glyph glyph-name="w" unicode="&#x77;" horiz-adv-x="1427" d="M1573 1040L1440 1040L1017 152L1013 152L944 1040L807 1040L369 152L366 152L309 1040L188 1040L262 0L409 0L842 865L846 865L918 0L1060 0Z" />
<glyph glyph-name="x" unicode="&#x78;" horiz-adv-x="927" d="M504 417L709 0L849 0L594 509L1068 1040L910 1040L540 622L536 622L331 1040L192 1040L446 530L-27 0L131 0L500 417Z" />
<glyph glyph-name="y" unicode="&#x79;" horiz-adv-x="941" d="M89 -369C222 -369 317 -318 430 -120L1093 1040L946 1040L452 144L448 144L310 1040L178 1040L351 -2L310 -78C239 -213 168 -257 92 -257C62 -257 33 -251 12 -244L-8 -356C15 -363 53 -369 89 -369Z" />
<glyph glyph-name="z" unicode="&#x7a;" horiz-adv-x="947" d="M19 0L811 0L835 111L215 111L216 115L1009 939L1032 1040L243 1040L218 929L838 929L837 925L41 99Z" />
<glyph glyph-name="braceleft" unicode="&#x7b;" horiz-adv-x="634" d="M245 273L195 43C186 2 182 -35 182 -69C182 -250 317 -306 447 -306L489 -306L511 -200L473 -200C354 -200 311 -140 311 -47C311 -17 316 17 323 52L376 297C383 332 388 363 388 390C388 489 333 536 209 559L212 575C361 590 451 649 485 811L547 1103C584 1275 647 1334 793 1334L838 1334L861 1443L810 1443C596 1443 478 1365 428 1131L369 857C334 695 263 647 105 647L71 490C193 487 256 465 256 363C256 338 252 308 245 273Z" />
<glyph glyph-name="bar" unicode="&#x7c;" horiz-adv-x="634" d="M252 -305L624 1443L511 1443L138 -305Z" />
<glyph glyph-name="braceright" unicode="&#x7d;" horiz-adv-x="634" d="M518 864L568 1095C576 1136 581 1173 581 1207C581 1388 446 1443 316 1443L274 1443L251 1338L290 1338C409 1338 452 1278 452 1185C452 1155 447 1121 439 1086L387 841C380 806 375 775 375 748C375 649 429 602 554 579L550 562C401 548 312 489 278 326L216 34C179 -137 116 -196 -31 -196L-75 -196L-98 -305L-48 -305C167 -305 285 -227 335 6L394 280C429 443 500 491 658 491L692 648C570 651 507 673 507 775C507 800 511 829 518 864Z" />
<glyph glyph-name="asciitilde" unicode="&#x7e;" horiz-adv-x="1220" d="M865 454C1008 454 1126 568 1151 765L1021 765C1000 645 949 577 868 577C748 577 698 808 511 808C366 808 246 691 223 497L353 497C374 616 425 685 506 685C626 685 676 454 865 454Z" />
<glyph glyph-name="nonbreakingspace" unicode="&#xa0;" horiz-adv-x="495" d="" />
<glyph glyph-name="exclamdown" unicode="&#xa1;" horiz-adv-x="533" d="M215 -340L413 646L284 646L63 -340ZM426 1113C374 1113 332 1071 332 1019C332 967 374 926 426 926C478 926 519 967 519 1019C519 1071 478 1113 426 1113Z" />
<glyph glyph-name="cent" unicode="&#xa2;" horiz-adv-x="1219" d="M1121 471L985 471C940 354 822 283 674 283C488 283 372 417 372 630C372 930 553 1161 791 1161C945 1161 1061 1071 1077 944L1210 944C1210 955 1208 966 1207 976C1182 1123 1066 1234 908 1266L947 1446L816 1446L780 1279C466 1267 234 985 234 612C234 381 359 217 557 175L514 -29L645 -29L686 163C905 172 1076 292 1121 471Z" />
<glyph glyph-name="sterling" unicode="&#xa3;" horiz-adv-x="1219" d="M1124 118L345 118L346 122C489 189 604 347 604 588C604 607 603 633 600 665L1008 665L1031 777L593 777C585 872 575 954 575 1013C575 1224 729 1347 963 1347C1082 1347 1214 1317 1290 1273L1314 1396C1227 1441 1089 1469 967 1469C639 1469 432 1303 432 991C432 934 441 869 449 777L185 777L162 665L460 665C464 627 466 597 466 572C466 335 285 149 60 116L35 0L1098 0Z" />
<glyph glyph-name="currency" unicode="&#xa4;" horiz-adv-x="1219" d="M409 656C409 813 538 942 695 942C852 942 981 813 981 656C981 499 852 370 695 370C545 370 409 498 409 656ZM1257 1050L1189 1136L954 941C885 1004 794 1042 695 1042C626 1042 562 1024 506 992L396 1132L301 1056L411 917C348 848 309 756 309 656C309 583 330 515 365 456L129 260L196 175L435 372C504 309 595 270 695 270C763 270 826 288 882 319L990 181L1085 256L977 393C1041 462 1081 555 1081 656C1081 730 1060 799 1024 858Z" />
<glyph glyph-name="yen" unicode="&#xa5;" horiz-adv-x="1219" d="M990 310L1012 415L710 415L749 599L1051 599L1074 705L826 705L1445 1443L1286 1443L717 762L710 762L417 1443L274 1443L589 705L329 705L306 599L611 599L572 415L267 415L245 310L550 310L484 0L624 0L689 310Z" />
<glyph glyph-name="brokenbar" unicode="&#xa6;" horiz-adv-x="634" d="M481 775L624 1443L511 1443L368 775ZM252 -305L394 364L281 364L139 -305Z" />
<glyph glyph-name="section" unicode="&#xa7;" horiz-adv-x="975" d="M464 398C349 441 297 498 297 575C297 695 416 791 570 799L666 764C788 719 828 658 828 581C828 462 726 373 577 355ZM428 -250C663 -250 834 -119 834 64C834 166 796 232 690 297L691 301C836 333 963 442 963 604C963 743 878 821 709 884L593 927C478 970 426 1021 426 1098C426 1204 529 1283 668 1283C800 1283 901 1211 918 1111L1048 1111C1027 1277 882 1395 671 1395C455 1395 294 1272 294 1090C294 986 338 918 448 859L447 854C304 829 165 725 165 562C165 428 252 339 405 283L535 235C658 190 699 133 699 58C699 -56 590 -138 435 -138C290 -138 186 -60 164 49L29 49C41 -127 212 -250 428 -250Z" />
<glyph glyph-name="dieresis" unicode="&#xa8;" horiz-adv-x="1000" d="M554 1227C604 1227 646 1268 646 1318C646 1369 604 1409 554 1409C505 1409 463 1369 463 1318C463 1268 505 1227 554 1227ZM895 1227C945 1227 986 1268 986 1318C986 1369 945 1409 895 1409C845 1409 803 1369 803 1318C803 1268 845 1227 895 1227Z" />
<glyph glyph-name="copyright" unicode="&#xa9;" horiz-adv-x="1683" d="M901 -158C1352 -158 1701 201 1701 665C1701 1107 1389 1410 934 1410C483 1410 134 1051 134 586C134 146 447 -158 901 -158ZM901 -49C509 -49 243 208 243 587C243 990 545 1301 934 1301C1328 1301 1592 1046 1592 664C1592 262 1290 -49 901 -49ZM1291 786C1280 949 1151 1058 968 1058C724 1058 541 847 541 565C541 353 680 208 885 208C1053 208 1183 299 1224 443L1118 443C1081 352 1000 301 892 301C744 301 646 411 646 577C646 799 782 966 960 966C1084 966 1179 891 1188 786Z" />
<glyph glyph-name="ordfeminine" unicode="&#xaa;" horiz-adv-x="742" d="M507 1056L718 1061L700 978C678 880 585 810 476 810C398 810 318 846 318 924C318 999 382 1054 507 1056ZM203 910C203 779 324 722 433 722C530 722 622 768 671 839L673 838L650 726L761 726L859 1191C863 1210 865 1229 865 1245C865 1369 758 1452 596 1452C448 1452 329 1372 300 1244L410 1244C434 1315 501 1358 588 1358C687 1358 750 1310 750 1234C750 1221 747 1207 744 1194L734 1142L498 1137C299 1134 203 1038 203 910Z" />
<glyph glyph-name="guillemotleft" unicode="&#xab;" horiz-adv-x="1218" d="M628 149L357 554L358 565L794 983L631 983L206 577L203 560L480 149ZM1026 152L759 540L759 551L1209 983L1046 983L607 563L605 547L878 152Z" />
<glyph glyph-name="logicalnot" unicode="&#xac;" horiz-adv-x="1219" d="M1173 677L219 677L195 563L1035 563L945 145L1060 145Z" />
<glyph glyph-name="registered" unicode="&#xae;" horiz-adv-x="1146" d="M596 854L632 1024L727 1024L806 854L900 854L812 1033C890 1045 947 1106 947 1181C947 1250 891 1303 810 1303L615 1303L519 854ZM677 1237L790 1237C836 1237 864 1211 864 1172C864 1121 821 1085 757 1085L645 1085ZM737 617C995 617 1197 816 1197 1072C1197 1323 997 1517 742 1517C484 1517 283 1318 283 1063C283 814 484 617 737 617ZM737 697C533 697 370 859 370 1063C370 1275 533 1438 742 1438C948 1438 1110 1277 1110 1072C1110 861 947 697 737 697Z" />
<glyph glyph-name="macron" unicode="&#xaf;" horiz-adv-x="1018" d="M1031 1381L481 1381L462 1289L1012 1289Z" />
<glyph glyph-name="degree" unicode="&#xb0;" horiz-adv-x="730" d="M559 905C712 905 836 1029 836 1182C836 1336 712 1460 559 1460C405 1460 282 1336 282 1182C282 1029 405 905 559 905ZM559 1006C463 1006 381 1086 381 1182C381 1280 463 1359 559 1359C658 1359 737 1280 737 1182C737 1086 658 1006 559 1006Z" />
<glyph glyph-name="plusminus" unicode="&#xb1;" horiz-adv-x="1219" d="M1056 112L1080 226L120 226L96 112ZM754 671L1175 671L1198 776L776 776L843 1085L725 1085L659 776L237 776L215 671L636 671L569 354L686 354Z" />
<glyph glyph-name="two.sups" unicode="&#xb2;" horiz-adv-x="595" d="M337 1612C341 1612 448 1612 451 1612L451 1614C465 1682 518 1727 584 1727C649 1727 695 1688 695 1632C695 1579 664 1543 532 1437L266 1221L247 1132L732 1132L752 1230L436 1230L436 1233L610 1375C769 1502 817 1557 817 1643C817 1746 722 1823 595 1823C457 1823 350 1736 337 1612Z" />
<glyph glyph-name="three.sups" unicode="&#xb3;" horiz-adv-x="609" d="M460 1436L535 1436C609 1436 659 1397 659 1338C659 1267 600 1217 516 1217C436 1217 380 1266 385 1331C385 1333 385 1335 386 1339L270 1339C268 1326 267 1316 267 1309C267 1197 370 1118 515 1118C669 1118 782 1206 782 1327C782 1400 735 1457 660 1473L661 1476C756 1490 824 1561 824 1648C824 1750 730 1823 600 1823C472 1823 372 1752 348 1638L462 1638C478 1693 530 1728 590 1728C658 1728 705 1690 705 1634C705 1570 650 1526 568 1526L479 1526Z" />
<glyph glyph-name="acute" unicode="&#xb4;" horiz-adv-x="1000" d="M637 1222L948 1524L796 1524L510 1222Z" />
<glyph glyph-name="mugreek" unicode="&#xb5;" horiz-adv-x="1171" d="M-1 -345L129 -345L234 151L239 151C262 54 361 -11 473 -11C617 -11 762 68 834 198L837 198C830 174 831 162 831 156C829 47 882 -4 1000 -4C1037 -4 1058 -1 1083 6L1107 117C1090 113 1071 111 1051 111C986 111 959 132 959 180C959 200 962 222 967 243L1135 1040L1003 1040L877 447C837 254 678 107 507 107C360 107 283 182 283 323C283 362 291 404 300 448L426 1040L293 1040Z" />
<glyph glyph-name="paragraph" unicode="&#xb6;" horiz-adv-x="1209" d="M686 -195L1035 1443L863 1443C542 1443 301 1247 301 955C301 739 468 582 713 574L550 -195ZM845 -195L982 -195L1330 1443L1194 1443Z" />
<glyph glyph-name="periodcentered" unicode="&#xb7;" horiz-adv-x="518" d="M312 425C365 425 407 467 407 520C407 573 365 615 312 615C259 615 217 573 217 520C217 467 259 425 312 425Z" />
<glyph glyph-name="cedilla" unicode="&#xb8;" horiz-adv-x="1000" d="M273 -213L329 -214C431 -217 480 -243 480 -296C480 -352 428 -383 345 -383C291 -383 243 -372 200 -353L181 -443C225 -463 292 -476 354 -476C492 -476 586 -402 586 -288C586 -194 517 -141 399 -140L483 0L484 10L382 10L287 -154Z" />
<glyph glyph-name="one.sups" unicode="&#xb9;" horiz-adv-x="458" d="M403 1132L526 1132L670 1810L546 1810C526 1799 355 1697 344 1690L319 1574C335 1583 505 1685 518 1692L521 1692Z" />
<glyph glyph-name="ordmasculine" unicode="&#xba;" horiz-adv-x="767" d="M522 716C738 716 901 904 901 1153C901 1336 779 1454 592 1454C376 1454 213 1264 213 1015C213 833 335 716 522 716ZM785 1150C785 957 672 811 526 811C406 811 329 890 329 1019C329 1212 442 1358 589 1358C708 1358 785 1279 785 1150Z" />
<glyph glyph-name="guillemotright" unicode="&#xbb;" horiz-adv-x="1218" d="M717 983L987 578L986 567L550 149L713 149L1139 555L1141 571L864 983ZM319 980L586 592L585 581L135 149L298 149L737 569L740 585L466 980Z" />
<glyph glyph-name="onequarter" unicode="&#xbc;" horiz-adv-x="1407" d="M325 765L448 765L592 1443L468 1443C448 1432 277 1330 266 1323L241 1207C257 1216 427 1318 440 1325L443 1325ZM155 0L823 704L1524 1443L1379 1443L722 752L8 0ZM1103 0L1220 0L1248 130L1341 130L1362 229L1269 229L1365 678L1186 678C1001 473 897 352 812 240L791 130L1131 130ZM923 228C1007 337 1102 449 1227 583L1230 583L1154 225L923 225Z" />
<glyph glyph-name="onehalf" unicode="&#xbd;" horiz-adv-x="1443" d="M325 765L448 765L592 1443L468 1443C448 1432 277 1330 266 1323L241 1207C257 1216 427 1318 440 1325L443 1325ZM155 0L823 704L1524 1443L1379 1443L722 752L8 0ZM944 480C948 480 1055 480 1058 480L1058 482C1072 550 1125 595 1191 595C1256 595 1302 556 1302 500C1302 447 1271 411 1139 305L873 89L854 0L1339 0L1359 98L1043 98L1043 101L1217 243C1376 370 1424 425 1424 511C1424 614 1329 691 1202 691C1064 691 957 604 944 480Z" />
<glyph glyph-name="threequarters" unicode="&#xbe;" horiz-adv-x="1525" d="M382 1069L457 1069C531 1069 581 1030 581 971C581 900 522 850 438 850C358 850 302 899 307 964C307 966 307 968 308 972L192 972C190 959 189 949 189 942C189 830 292 751 437 751C591 751 704 839 704 960C704 1033 657 1090 582 1106L583 1109C678 1123 746 1194 746 1281C746 1383 652 1456 522 1456C394 1456 294 1385 270 1271L384 1271C400 1326 452 1361 512 1361C580 1361 627 1323 627 1267C627 1203 572 1159 490 1159L401 1159ZM273 0L941 704L1642 1443L1497 1443L840 752L126 0ZM1221 0L1338 0L1366 130L1459 130L1480 229L1387 229L1483 678L1304 678C1119 473 1015 352 930 240L909 130L1249 130ZM1041 228C1125 337 1220 449 1345 583L1348 583L1272 225L1041 225Z" />
<glyph glyph-name="questiondown" unicode="&#xbf;" horiz-adv-x="945" d="M845 3L713 3C671 -143 558 -233 407 -233C240 -233 149 -131 149 -11C149 116 223 213 384 282C539 349 613 419 649 582L669 675L532 675L517 598C496 485 439 426 296 365C120 292 4 148 4 -25C4 -205 160 -353 398 -353C641 -353 800 -211 845 3ZM662 1115C610 1115 569 1074 569 1021C569 969 610 928 662 928C714 928 756 969 756 1021C756 1074 714 1115 662 1115Z" />
<glyph glyph-name="Agrave" unicode="&#xc0;" horiz-adv-x="1261" d="M848 1274L852 1274L965 560L440 560ZM1051 0L1181 0L949 1443L811 1443L-33 0L118 0L374 443L983 443ZM832 1558L944 1558L780 1846L640 1846Z" />
<glyph glyph-name="Aacute" unicode="&#xc1;" horiz-adv-x="1261" d="M848 1274L852 1274L965 560L440 560ZM1051 0L1181 0L949 1443L811 1443L-33 0L118 0L374 443L983 443ZM965 1558L1298 1846L1140 1846L836 1558Z" />
<glyph glyph-name="Acircumflex" unicode="&#xc2;" horiz-adv-x="1261" d="M848 1274L852 1274L965 560L440 560ZM1051 0L1181 0L949 1443L811 1443L-33 0L118 0L374 443L983 443ZM1006 1852L903 1852L566 1558L706 1558L944 1768L949 1768L1097 1558L1218 1558Z" />
<glyph glyph-name="Atilde" unicode="&#xc3;" horiz-adv-x="1261" d="M848 1274L852 1274L965 560L440 560ZM1051 0L1181 0L949 1443L811 1443L-33 0L118 0L374 443L983 443ZM1047 1549C1148 1549 1229 1638 1259 1786L1166 1786C1146 1688 1101 1639 1054 1639C968 1639 946 1796 808 1796C703 1796 620 1708 594 1559L687 1559C704 1654 750 1706 801 1706C891 1706 915 1549 1047 1549Z" />
<glyph glyph-name="Adieresis" unicode="&#xc4;" horiz-adv-x="1261" d="M848 1274L852 1274L965 560L440 560ZM1051 0L1181 0L949 1443L811 1443L-33 0L118 0L374 443L983 443ZM759 1612C809 1612 851 1653 851 1703C851 1754 809 1794 759 1794C710 1794 668 1754 668 1703C668 1653 710 1612 759 1612ZM1100 1612C1150 1612 1191 1653 1191 1703C1191 1754 1150 1794 1100 1794C1050 1794 1008 1754 1008 1703C1008 1653 1050 1612 1100 1612Z" />
<glyph glyph-name="Aring" unicode="&#xc5;" horiz-adv-x="1261" d="M848 1274L852 1274L965 560L440 560ZM1051 0L1181 0L949 1443L811 1443L-33 0L118 0L374 443L983 443ZM934 1559C1039 1559 1118 1638 1119 1747C1120 1854 1039 1923 939 1923C836 1923 754 1844 754 1735C754 1629 836 1559 934 1559ZM934 1629C873 1629 827 1673 827 1737C827 1807 874 1853 939 1853C1002 1853 1045 1809 1046 1745C1047 1676 1000 1629 934 1629Z" />
<glyph glyph-name="AE" unicode="&#xc6;" horiz-adv-x="1857" d="M1172 1327L1009 561L484 561L1011 1327ZM889 0L1701 0L1727 124L1055 124L1171 671L1807 671L1833 793L1198 793L1309 1319L1981 1319L2008 1443L941 1443L-44 0L105 0L406 443L984 443Z" />
<glyph glyph-name="Ccedilla" unicode="&#xc7;" horiz-adv-x="1382" d="M1458 976C1458 982 1458 985 1457 995C1443 1279 1224 1465 910 1465C486 1465 175 1087 175 591C175 248 370 16 678 -18L599 -154L585 -213L641 -214C743 -217 792 -243 792 -296C792 -352 740 -383 657 -383C603 -383 555 -372 512 -353L493 -443C537 -463 604 -476 666 -476C804 -476 898 -402 898 -288C898 -194 829 -141 711 -140L782 -22C1056 -12 1276 153 1356 411L1217 411C1144 218 973 104 760 104C488 104 315 295 315 597C315 1021 563 1339 907 1339C1140 1339 1304 1203 1318 993C1319 987 1320 981 1320 976Z" />
<glyph glyph-name="Egrave" unicode="&#xc8;" horiz-adv-x="1102" d="M979 124L246 124L364 678L1059 678L1086 800L390 800L500 1319L1233 1319L1260 1443L387 1443L80 0L953 0ZM779 1558L891 1558L727 1846L587 1846Z" />
<glyph glyph-name="Eacute" unicode="&#xc9;" horiz-adv-x="1102" d="M979 124L246 124L364 678L1059 678L1086 800L390 800L500 1319L1233 1319L1260 1443L387 1443L80 0L953 0ZM912 1558L1245 1846L1087 1846L783 1558Z" />
<glyph glyph-name="Ecircumflex" unicode="&#xca;" horiz-adv-x="1102" d="M979 124L246 124L364 678L1059 678L1086 800L390 800L500 1319L1233 1319L1260 1443L387 1443L80 0L953 0ZM952 1852L849 1852L512 1558L652 1558L890 1768L895 1768L1043 1558L1164 1558Z" />
<glyph glyph-name="Edieresis" unicode="&#xcb;" horiz-adv-x="1102" d="M979 124L246 124L364 678L1059 678L1086 800L390 800L500 1319L1233 1319L1260 1443L387 1443L80 0L953 0ZM705 1612C755 1612 797 1653 797 1703C797 1754 755 1794 705 1794C656 1794 614 1754 614 1703C614 1653 656 1612 705 1612ZM1046 1612C1096 1612 1137 1653 1137 1703C1137 1754 1096 1794 1046 1794C996 1794 954 1754 954 1703C954 1653 996 1612 1046 1612Z" />
<glyph glyph-name="Igrave" unicode="&#xcc;" horiz-adv-x="413" d="M219 0L526 1443L387 1443L80 0ZM412 1558L524 1558L360 1846L220 1846Z" />
<glyph glyph-name="Iacute" unicode="&#xcd;" horiz-adv-x="413" d="M219 0L526 1443L387 1443L80 0ZM546 1558L879 1846L721 1846L417 1558Z" />
<glyph glyph-name="Icircumflex" unicode="&#xce;" horiz-adv-x="413" d="M219 0L526 1443L387 1443L80 0ZM586 1852L483 1852L146 1558L286 1558L524 1768L529 1768L677 1558L798 1558Z" />
<glyph glyph-name="Idieresis" unicode="&#xcf;" horiz-adv-x="413" d="M219 0L526 1443L387 1443L80 0ZM339 1612C389 1612 431 1653 431 1703C431 1754 389 1794 339 1794C290 1794 248 1754 248 1703C248 1653 290 1612 339 1612ZM680 1612C730 1612 771 1653 771 1703C771 1754 730 1794 680 1794C630 1794 588 1754 588 1703C588 1653 630 1612 680 1612Z" />
<glyph glyph-name="Eth" unicode="&#xd0;" horiz-adv-x="1391" d="M246 122L364 675L730 675L756 799L390 799L501 1321L786 1321C1103 1321 1268 1153 1268 849C1268 428 993 122 597 122ZM387 1443L251 799L113 799L86 675L225 675L82 0L606 0C1085 0 1408 357 1408 866C1408 1224 1189 1443 809 1443Z" />
<glyph glyph-name="Ntilde" unicode="&#xd1;" horiz-adv-x="1400" d="M219 0L482 1236L486 1236L1067 0L1206 0L1513 1443L1374 1443L1111 207L1107 207L526 1443L387 1443L80 0ZM1125 1549C1226 1549 1307 1638 1337 1786L1244 1786C1224 1688 1179 1639 1132 1639C1046 1639 1024 1796 886 1796C781 1796 698 1708 672 1559L765 1559C782 1654 828 1706 879 1706C969 1706 993 1549 1125 1549Z" />
<glyph glyph-name="Ograve" unicode="&#xd2;" horiz-adv-x="1491" d="M918 1339C1191 1339 1368 1145 1368 838C1368 430 1116 104 765 104C493 104 315 298 315 605C315 1013 568 1339 918 1339ZM764 -22C1193 -22 1508 363 1508 844C1508 1219 1273 1465 920 1465C490 1465 175 1080 175 599C175 224 410 -22 764 -22ZM888 1558L1000 1558L836 1846L696 1846Z" />
<glyph glyph-name="Oacute" unicode="&#xd3;" horiz-adv-x="1491" d="M918 1339C1191 1339 1368 1145 1368 838C1368 430 1116 104 765 104C493 104 315 298 315 605C315 1013 568 1339 918 1339ZM764 -22C1193 -22 1508 363 1508 844C1508 1219 1273 1465 920 1465C490 1465 175 1080 175 599C175 224 410 -22 764 -22ZM1021 1558L1354 1846L1196 1846L892 1558Z" />
<glyph glyph-name="Ocircumflex" unicode="&#xd4;" horiz-adv-x="1491" d="M918 1339C1191 1339 1368 1145 1368 838C1368 430 1116 104 765 104C493 104 315 298 315 605C315 1013 568 1339 918 1339ZM764 -22C1193 -22 1508 363 1508 844C1508 1219 1273 1465 920 1465C490 1465 175 1080 175 599C175 224 410 -22 764 -22ZM1062 1852L959 1852L622 1558L762 1558L1000 1768L1005 1768L1153 1558L1274 1558Z" />
<glyph glyph-name="Otilde" unicode="&#xd5;" horiz-adv-x="1491" d="M918 1339C1191 1339 1368 1145 1368 838C1368 430 1116 104 765 104C493 104 315 298 315 605C315 1013 568 1339 918 1339ZM764 -22C1193 -22 1508 363 1508 844C1508 1219 1273 1465 920 1465C490 1465 175 1080 175 599C175 224 410 -22 764 -22ZM1103 1549C1204 1549 1285 1638 1315 1786L1222 1786C1202 1688 1157 1639 1110 1639C1024 1639 1002 1796 864 1796C759 1796 676 1708 650 1559L743 1559C760 1654 806 1706 857 1706C947 1706 971 1549 1103 1549Z" />
<glyph glyph-name="Odieresis" unicode="&#xd6;" horiz-adv-x="1491" d="M918 1339C1191 1339 1368 1145 1368 838C1368 430 1116 104 765 104C493 104 315 298 315 605C315 1013 568 1339 918 1339ZM764 -22C1193 -22 1508 363 1508 844C1508 1219 1273 1465 920 1465C490 1465 175 1080 175 599C175 224 410 -22 764 -22ZM815 1612C865 1612 907 1653 907 1703C907 1754 865 1794 815 1794C766 1794 724 1754 724 1703C724 1653 766 1612 815 1612ZM1156 1612C1206 1612 1247 1653 1247 1703C1247 1754 1206 1794 1156 1794C1106 1794 1064 1754 1064 1703C1064 1653 1106 1612 1156 1612Z" />
<glyph glyph-name="multiply" unicode="&#xd7;" horiz-adv-x="1219" d="M904 191L1000 270L761 576L1139 888L1067 977L689 666L445 974L349 895L592 586L214 274L286 185L664 496Z" />
<glyph glyph-name="Oslash" unicode="&#xd8;" horiz-adv-x="1491" d="M1308 1113C1347 1037 1368 944 1368 838C1368 430 1116 104 765 104C628 104 515 153 436 241ZM375 330C336 406 315 499 315 605C315 1013 568 1339 918 1339C1055 1339 1168 1290 1247 1202ZM1573 1378L1498 1453L1343 1298C1241 1405 1095 1465 920 1465C490 1465 175 1080 175 599C175 454 210 328 274 229L110 65L185 -10L340 145C443 38 589 -22 764 -22C1193 -22 1508 363 1508 844C1508 989 1473 1115 1409 1214Z" />
<glyph glyph-name="Ugrave" unicode="&#xd9;" horiz-adv-x="1399" d="M682 -22C1025 -22 1238 157 1303 463L1512 1443L1373 1443L1169 488C1117 248 939 104 704 104C464 104 332 231 327 425C326 467 331 516 340 559L527 1443L388 1443L199 552C190 507 185 462 186 417C188 167 368 -22 682 -22ZM895 1558L1007 1558L843 1846L703 1846Z" />
<glyph glyph-name="Uacute" unicode="&#xda;" horiz-adv-x="1399" d="M682 -22C1025 -22 1238 157 1303 463L1512 1443L1373 1443L1169 488C1117 248 939 104 704 104C464 104 332 231 327 425C326 467 331 516 340 559L527 1443L388 1443L199 552C190 507 185 462 186 417C188 167 368 -22 682 -22ZM1028 1558L1361 1846L1203 1846L899 1558Z" />
<glyph glyph-name="Ucircumflex" unicode="&#xdb;" horiz-adv-x="1399" d="M682 -22C1025 -22 1238 157 1303 463L1512 1443L1373 1443L1169 488C1117 248 939 104 704 104C464 104 332 231 327 425C326 467 331 516 340 559L527 1443L388 1443L199 552C190 507 185 462 186 417C188 167 368 -22 682 -22ZM1068 1852L965 1852L628 1558L768 1558L1006 1768L1011 1768L1159 1558L1280 1558Z" />
<glyph glyph-name="Udieresis" unicode="&#xdc;" horiz-adv-x="1399" d="M682 -22C1025 -22 1238 157 1303 463L1512 1443L1373 1443L1169 488C1117 248 939 104 704 104C464 104 332 231 327 425C326 467 331 516 340 559L527 1443L388 1443L199 552C190 507 185 462 186 417C188 167 368 -22 682 -22ZM821 1612C871 1612 913 1653 913 1703C913 1754 871 1794 821 1794C772 1794 730 1754 730 1703C730 1653 772 1612 821 1612ZM1162 1612C1212 1612 1253 1653 1253 1703C1253 1754 1212 1794 1162 1794C1112 1794 1070 1754 1070 1703C1070 1653 1112 1612 1162 1612Z" />
<glyph glyph-name="Yacute" unicode="&#xdd;" horiz-adv-x="1219" d="M624 0L752 612L1445 1443L1285 1443L711 752L707 752L419 1443L274 1443L616 631L484 0ZM947 1558L1280 1846L1122 1846L818 1558Z" />
<glyph glyph-name="Thorn" unicode="&#xde;" horiz-adv-x="1173" d="M77 0L214 0L288 351L657 351C990 351 1204 541 1204 820C1204 1020 1049 1169 817 1169L462 1169L520 1443L384 1443ZM436 1046L773 1046C964 1046 1062 946 1062 807C1062 604 910 473 652 473L315 473Z" />
<glyph glyph-name="germandbls" unicode="&#xdf;" horiz-adv-x="1183" d="M238 0L463 1061C498 1228 611 1327 767 1327C918 1327 1021 1236 1021 1102C1021 952 882 828 714 828L620 828L593 699L674 699C870 699 1000 594 1000 435C1000 255 847 118 648 118C586 118 505 132 451 152L425 35C487 12 570 -1 643 -1C926 -1 1132 185 1132 439C1132 613 1008 739 817 760L820 773C1015 792 1154 939 1154 1125C1154 1310 994 1445 774 1445C548 1445 386 1315 339 1097L106 0Z" />
<glyph glyph-name="agrave" unicode="&#xe0;" horiz-adv-x="1001" d="M435 97C302 97 211 168 211 278C211 402 317 478 503 488L813 505L782 364C747 207 602 97 435 97ZM402 -17C542 -17 667 49 740 153L743 153L710 0L838 0L982 678C987 705 990 736 990 767C990 939 849 1057 633 1057C399 1057 232 928 199 741L337 741C363 861 465 940 623 940C772 940 857 867 857 749C857 729 856 708 851 686L835 612L504 594C234 579 77 464 77 264C77 99 219 -17 402 -17ZM745 1222L589 1524L453 1524L636 1222Z" />
<glyph glyph-name="aacute" unicode="&#xe1;" horiz-adv-x="1001" d="M435 97C302 97 211 168 211 278C211 402 317 478 503 488L813 505L782 364C747 207 602 97 435 97ZM402 -17C542 -17 667 49 740 153L743 153L710 0L838 0L982 678C987 705 990 736 990 767C990 939 849 1057 633 1057C399 1057 232 928 199 741L337 741C363 861 465 940 623 940C772 940 857 867 857 749C857 729 856 708 851 686L835 612L504 594C234 579 77 464 77 264C77 99 219 -17 402 -17ZM741 1222L1052 1524L900 1524L614 1222Z" />
<glyph glyph-name="acircumflex" unicode="&#xe2;" horiz-adv-x="1001" d="M435 97C302 97 211 168 211 278C211 402 317 478 503 488L813 505L782 364C747 207 602 97 435 97ZM402 -17C542 -17 667 49 740 153L743 153L710 0L838 0L982 678C987 705 990 736 990 767C990 939 849 1057 633 1057C399 1057 232 928 199 741L337 741C363 861 465 940 623 940C772 940 857 867 857 749C857 729 856 708 851 686L835 612L504 594C234 579 77 464 77 264C77 99 219 -17 402 -17ZM800 1524L693 1524L363 1222L497 1222L731 1438L735 1438L877 1222L1001 1222Z" />
<glyph glyph-name="atilde" unicode="&#xe3;" horiz-adv-x="1001" d="M435 97C302 97 211 168 211 278C211 402 317 478 503 488L813 505L782 364C747 207 602 97 435 97ZM402 -17C542 -17 667 49 740 153L743 153L710 0L838 0L982 678C987 705 990 736 990 767C990 939 849 1057 633 1057C399 1057 232 928 199 741L337 741C363 861 465 940 623 940C772 940 857 867 857 749C857 729 856 708 851 686L835 612L504 594C234 579 77 464 77 264C77 99 219 -17 402 -17ZM827 1228C928 1228 1009 1317 1039 1465L946 1465C926 1367 881 1318 834 1318C748 1318 726 1475 588 1475C483 1475 400 1387 374 1238L467 1238C484 1333 530 1385 581 1385C671 1385 695 1228 827 1228Z" />
<glyph glyph-name="adieresis" unicode="&#xe4;" horiz-adv-x="1001" d="M435 97C302 97 211 168 211 278C211 402 317 478 503 488L813 505L782 364C747 207 602 97 435 97ZM402 -17C542 -17 667 49 740 153L743 153L710 0L838 0L982 678C987 705 990 736 990 767C990 939 849 1057 633 1057C399 1057 232 928 199 741L337 741C363 861 465 940 623 940C772 940 857 867 857 749C857 729 856 708 851 686L835 612L504 594C234 579 77 464 77 264C77 99 219 -17 402 -17ZM529 1227C579 1227 621 1268 621 1318C621 1369 579 1409 529 1409C480 1409 438 1369 438 1318C438 1268 480 1227 529 1227ZM870 1227C920 1227 961 1268 961 1318C961 1369 920 1409 870 1409C820 1409 778 1369 778 1318C778 1268 820 1227 870 1227Z" />
<glyph glyph-name="aring" unicode="&#xe5;" horiz-adv-x="1001" d="M435 97C302 97 211 168 211 278C211 402 317 478 503 488L813 505L782 364C747 207 602 97 435 97ZM402 -17C542 -17 667 49 740 153L743 153L710 0L838 0L982 678C987 705 990 736 990 767C990 939 849 1057 633 1057C399 1057 232 928 199 741L337 741C363 861 465 940 623 940C772 940 857 867 857 749C857 729 856 708 851 686L835 612L504 594C234 579 77 464 77 264C77 99 219 -17 402 -17ZM701 1156C806 1156 885 1235 886 1344C887 1451 806 1520 706 1520C603 1520 521 1441 521 1332C521 1226 603 1156 701 1156ZM701 1226C640 1226 594 1270 594 1334C594 1404 641 1450 706 1450C769 1450 812 1406 813 1342C814 1273 767 1226 701 1226Z" />
<glyph glyph-name="ae" unicode="&#xe6;" horiz-adv-x="1757" d="M1244 -17C1456 -17 1637 109 1691 293L1560 293C1509 171 1396 100 1248 100C1069 100 957 230 957 428C957 453 959 476 961 496L1743 496C1749 534 1753 578 1753 630C1753 885 1596 1057 1358 1057C1200 1057 1067 983 978 857L974 857C934 981 812 1057 645 1057C411 1057 243 926 212 741L351 741C373 858 477 940 635 940C784 940 873 864 873 749C873 723 871 705 866 686L849 606L514 590C241 577 85 461 85 264C85 106 221 -17 410 -17C598 -17 772 68 867 248L870 248C920 86 1050 -17 1244 -17ZM978 603C1031 809 1172 941 1354 941C1510 941 1619 820 1619 648C1619 625 1618 613 1616 603ZM442 97C306 97 218 173 218 278C218 398 327 473 508 483L827 499L797 364C764 212 617 97 442 97Z" />
<glyph glyph-name="ccedilla" unicode="&#xe7;" horiz-adv-x="1021" d="M1052 701C1052 705 1052 703 1052 706C1045 895 902 1057 647 1057C339 1057 116 784 116 431C116 190 244 15 474 -13L392 -154L378 -213L434 -214C536 -217 585 -243 585 -296C585 -352 533 -383 450 -383C396 -383 348 -372 305 -353L286 -443C330 -463 397 -476 459 -476C597 -476 691 -402 691 -288C691 -194 622 -141 504 -140L579 -15C772 1 930 131 983 310L852 310C802 183 687 100 540 100C367 100 252 230 252 436C252 727 418 940 646 940C810 940 913 836 923 701Z" />
<glyph glyph-name="egrave" unicode="&#xe8;" horiz-adv-x="1047" d="M270 599C313 795 449 941 634 941C820 941 909 809 909 648C909 628 909 615 906 599ZM534 -19C755 -19 932 118 989 310L858 310C807 180 693 99 537 99C361 99 249 226 249 432C249 448 250 469 253 492L1032 492C1040 534 1043 587 1043 631C1043 894 887 1057 636 1057C333 1057 114 779 114 427C114 166 263 -19 534 -19ZM760 1222L604 1524L468 1524L651 1222Z" />
<glyph glyph-name="eacute" unicode="&#xe9;" horiz-adv-x="1047" d="M270 599C313 795 449 941 634 941C820 941 909 809 909 648C909 628 909 615 906 599ZM534 -19C755 -19 932 118 989 310L858 310C807 180 693 99 537 99C361 99 249 226 249 432C249 448 250 469 253 492L1032 492C1040 534 1043 587 1043 631C1043 894 887 1057 636 1057C333 1057 114 779 114 427C114 166 263 -19 534 -19ZM756 1222L1067 1524L915 1524L629 1222Z" />
<glyph glyph-name="ecircumflex" unicode="&#xea;" horiz-adv-x="1047" d="M270 599C313 795 449 941 634 941C820 941 909 809 909 648C909 628 909 615 906 599ZM534 -19C755 -19 932 118 989 310L858 310C807 180 693 99 537 99C361 99 249 226 249 432C249 448 250 469 253 492L1032 492C1040 534 1043 587 1043 631C1043 894 887 1057 636 1057C333 1057 114 779 114 427C114 166 263 -19 534 -19ZM815 1524L708 1524L378 1222L512 1222L746 1438L750 1438L892 1222L1016 1222Z" />
<glyph glyph-name="edieresis" unicode="&#xeb;" horiz-adv-x="1047" d="M270 599C313 795 449 941 634 941C820 941 909 809 909 648C909 628 909 615 906 599ZM534 -19C755 -19 932 118 989 310L858 310C807 180 693 99 537 99C361 99 249 226 249 432C249 448 250 469 253 492L1032 492C1040 534 1043 587 1043 631C1043 894 887 1057 636 1057C333 1057 114 779 114 427C114 166 263 -19 534 -19ZM544 1227C594 1227 636 1268 636 1318C636 1369 594 1409 544 1409C495 1409 453 1369 453 1318C453 1268 495 1227 544 1227ZM885 1227C935 1227 976 1268 976 1318C976 1369 935 1409 885 1409C835 1409 793 1369 793 1318C793 1268 835 1227 885 1227Z" />
<glyph glyph-name="igrave" unicode="&#xec;" horiz-adv-x="378" d="M65 0L199 0L420 1040L286 1040ZM455 1222L299 1524L163 1524L346 1222Z" />
<glyph glyph-name="iacute" unicode="&#xed;" horiz-adv-x="378" d="M65 0L199 0L420 1040L286 1040ZM451 1222L762 1524L610 1524L324 1222Z" />
<glyph glyph-name="icircumflex" unicode="&#xee;" horiz-adv-x="378" d="M65 0L199 0L420 1040L286 1040ZM510 1524L403 1524L73 1222L207 1222L441 1438L445 1438L587 1222L711 1222Z" />
<glyph glyph-name="idieresis" unicode="&#xef;" horiz-adv-x="378" d="M65 0L199 0L420 1040L286 1040ZM239 1227C289 1227 331 1268 331 1318C331 1369 289 1409 239 1409C190 1409 148 1369 148 1318C148 1268 190 1227 239 1227ZM580 1227C630 1227 671 1268 671 1318C671 1369 630 1409 580 1409C530 1409 488 1369 488 1318C488 1268 530 1227 580 1227Z" />
<glyph glyph-name="eth" unicode="&#xf0;" horiz-adv-x="1087" d="M525 -17C783 -17 983 170 1057 475C1081 575 1093 675 1093 778C1093 945 1056 1089 971 1248L1176 1318L1168 1416L924 1334C896 1372 863 1407 824 1446L675 1446C732 1390 775 1343 810 1299L525 1205L531 1107L862 1214C934 1089 974 957 976 826C976 821 977 813 976 811L972 810C927 929 799 1023 632 1023C338 1023 111 768 111 409C111 175 268 -17 525 -17ZM940 600C940 333 750 101 537 101C355 101 249 239 249 429C249 708 418 901 638 901C816 901 940 779 940 600Z" />
<glyph glyph-name="ntilde" unicode="&#xf1;" horiz-adv-x="1074" d="M56 0L189 0L324 631C362 812 501 939 672 939C823 939 921 852 921 714C921 685 916 647 907 606L778 0L911 0L1046 630C1054 672 1059 715 1059 750C1059 927 917 1057 724 1057C565 1057 442 978 369 858L365 858L404 1040L277 1040ZM890 1228C991 1228 1072 1317 1102 1465L1009 1465C989 1367 944 1318 897 1318C811 1318 789 1475 651 1475C546 1475 463 1387 437 1238L530 1238C547 1333 593 1385 644 1385C734 1385 758 1228 890 1228Z" />
<glyph glyph-name="ograve" unicode="&#xf2;" horiz-adv-x="1089" d="M547 100C366 100 250 233 250 437C250 723 420 940 650 940C830 940 946 807 946 603C946 317 776 100 547 100ZM650 1057C346 1057 116 786 116 433C116 161 285 -17 547 -17C850 -17 1080 254 1080 607C1080 879 912 1057 650 1057ZM772 1222L616 1524L480 1524L663 1222Z" />
<glyph glyph-name="oacute" unicode="&#xf3;" horiz-adv-x="1089" d="M547 100C366 100 250 233 250 437C250 723 420 940 650 940C830 940 946 807 946 603C946 317 776 100 547 100ZM650 1057C346 1057 116 786 116 433C116 161 285 -17 547 -17C850 -17 1080 254 1080 607C1080 879 912 1057 650 1057ZM768 1222L1079 1524L927 1524L641 1222Z" />
<glyph glyph-name="ocircumflex" unicode="&#xf4;" horiz-adv-x="1089" d="M547 100C366 100 250 233 250 437C250 723 420 940 650 940C830 940 946 807 946 603C946 317 776 100 547 100ZM650 1057C346 1057 116 786 116 433C116 161 285 -17 547 -17C850 -17 1080 254 1080 607C1080 879 912 1057 650 1057ZM827 1524L720 1524L390 1222L524 1222L758 1438L762 1438L904 1222L1028 1222Z" />
<glyph glyph-name="otilde" unicode="&#xf5;" horiz-adv-x="1089" d="M547 100C366 100 250 233 250 437C250 723 420 940 650 940C830 940 946 807 946 603C946 317 776 100 547 100ZM650 1057C346 1057 116 786 116 433C116 161 285 -17 547 -17C850 -17 1080 254 1080 607C1080 879 912 1057 650 1057ZM854 1228C955 1228 1036 1317 1066 1465L973 1465C953 1367 908 1318 861 1318C775 1318 753 1475 615 1475C510 1475 427 1387 401 1238L494 1238C511 1333 557 1385 608 1385C698 1385 722 1228 854 1228Z" />
<glyph glyph-name="odieresis" unicode="&#xf6;" horiz-adv-x="1089" d="M547 100C366 100 250 233 250 437C250 723 420 940 650 940C830 940 946 807 946 603C946 317 776 100 547 100ZM650 1057C346 1057 116 786 116 433C116 161 285 -17 547 -17C850 -17 1080 254 1080 607C1080 879 912 1057 650 1057ZM556 1227C606 1227 648 1268 648 1318C648 1369 606 1409 556 1409C507 1409 465 1369 465 1318C465 1268 507 1227 556 1227ZM897 1227C947 1227 988 1268 988 1318C988 1369 947 1409 897 1409C847 1409 805 1369 805 1318C805 1268 847 1227 897 1227Z" />
<glyph glyph-name="divide" unicode="&#xf7;" horiz-adv-x="1219" d="M1163 516L1187 629L185 629L161 516ZM741 815C801 815 848 860 848 922C848 984 801 1028 741 1028C682 1028 635 984 635 922C635 860 682 815 741 815ZM591 109C651 109 698 155 698 216C698 278 651 323 591 323C531 323 484 278 484 216C484 155 531 109 591 109Z" />
<glyph glyph-name="oslash" unicode="&#xf8;" horiz-adv-x="1089" d="M915 769C935 721 946 666 946 603C946 317 776 100 547 100C459 100 386 132 334 188ZM282 271C261 318 250 374 250 437C250 723 420 940 650 940C738 940 811 908 862 851ZM1134 988L1066 1055L954 943C880 1016 776 1057 650 1057C346 1057 116 786 116 433C116 331 140 243 183 172L63 52L131 -15L243 97C317 24 421 -17 547 -17C850 -17 1080 254 1080 607C1080 708 1057 797 1014 868Z" />
<glyph glyph-name="ugrave" unicode="&#xf9;" horiz-adv-x="1073" d="M1125 1040L993 1040L858 409C821 234 681 101 500 101C345 101 261 178 261 320C261 347 267 396 275 434L404 1040L270 1040L138 413C130 372 124 318 124 280C124 113 250 -17 452 -17C617 -17 751 73 811 171L815 171L777 0L904 0ZM788 1222L632 1524L496 1524L679 1222Z" />
<glyph glyph-name="uacute" unicode="&#xfa;" horiz-adv-x="1073" d="M1125 1040L993 1040L858 409C821 234 681 101 500 101C345 101 261 178 261 320C261 347 267 396 275 434L404 1040L270 1040L138 413C130 372 124 318 124 280C124 113 250 -17 452 -17C617 -17 751 73 811 171L815 171L777 0L904 0ZM784 1222L1095 1524L943 1524L657 1222Z" />
<glyph glyph-name="ucircumflex" unicode="&#xfb;" horiz-adv-x="1073" d="M1125 1040L993 1040L858 409C821 234 681 101 500 101C345 101 261 178 261 320C261 347 267 396 275 434L404 1040L270 1040L138 413C130 372 124 318 124 280C124 113 250 -17 452 -17C617 -17 751 73 811 171L815 171L777 0L904 0ZM843 1524L736 1524L406 1222L540 1222L774 1438L778 1438L920 1222L1044 1222Z" />
<glyph glyph-name="udieresis" unicode="&#xfc;" horiz-adv-x="1073" d="M1125 1040L993 1040L858 409C821 234 681 101 500 101C345 101 261 178 261 320C261 347 267 396 275 434L404 1040L270 1040L138 413C130 372 124 318 124 280C124 113 250 -17 452 -17C617 -17 751 73 811 171L815 171L777 0L904 0ZM572 1227C622 1227 664 1268 664 1318C664 1369 622 1409 572 1409C523 1409 481 1369 481 1318C481 1268 523 1227 572 1227ZM913 1227C963 1227 1004 1268 1004 1318C1004 1369 963 1409 913 1409C863 1409 821 1369 821 1318C821 1268 863 1227 913 1227Z" />
<glyph glyph-name="yacute" unicode="&#xfd;" horiz-adv-x="941" d="M89 -369C222 -369 317 -318 430 -120L1093 1040L946 1040L452 144L448 144L310 1040L178 1040L351 -2L310 -78C239 -213 168 -257 92 -257C62 -257 33 -251 12 -244L-8 -356C15 -363 53 -369 89 -369ZM723 1222L1034 1524L882 1524L596 1222Z" />
<glyph glyph-name="thorn" unicode="&#xfe;" horiz-adv-x="1126" d="M593 101C415 101 298 232 298 421C298 698 464 940 702 940C878 940 984 813 984 602C984 315 814 101 593 101ZM246 248L250 248C282 95 419 -17 595 -17C889 -17 1115 252 1115 610C1115 881 966 1057 731 1057C584 1057 448 971 376 843L372 843L502 1450L370 1450L-14 -357L118 -357Z" />
<glyph glyph-name="ydieresis" unicode="&#xff;" horiz-adv-x="941" d="M89 -369C222 -369 317 -318 430 -120L1093 1040L946 1040L452 144L448 144L310 1040L178 1040L351 -2L310 -78C239 -213 168 -257 92 -257C62 -257 33 -251 12 -244L-8 -356C15 -363 53 -369 89 -369ZM511 1227C561 1227 603 1268 603 1318C603 1369 561 1409 511 1409C462 1409 420 1369 420 1318C420 1268 462 1227 511 1227ZM852 1227C902 1227 943 1268 943 1318C943 1369 902 1409 852 1409C802 1409 760 1369 760 1318C760 1268 802 1227 852 1227Z" />
<glyph glyph-name="Amacron" unicode="&#x0100;" horiz-adv-x="1261" d="M848 1274L852 1274L965 560L440 560ZM1051 0L1181 0L949 1443L811 1443L-33 0L118 0L374 443L983 443ZM1245 1720L628 1720L608 1628L1225 1628Z" />
<glyph glyph-name="amacron" unicode="&#x0101;" horiz-adv-x="1001" d="M435 97C302 97 211 168 211 278C211 402 317 478 503 488L813 505L782 364C747 207 602 97 435 97ZM402 -17C542 -17 667 49 740 153L743 153L710 0L838 0L982 678C987 705 990 736 990 767C990 939 849 1057 633 1057C399 1057 232 928 199 741L337 741C363 861 465 940 623 940C772 940 857 867 857 749C857 729 856 708 851 686L835 612L504 594C234 579 77 464 77 264C77 99 219 -17 402 -17ZM991 1381L441 1381L422 1289L972 1289Z" />
<glyph glyph-name="Abreve" unicode="&#x0102;" horiz-adv-x="1261" d="M848 1274L852 1274L965 560L440 560ZM1051 0L1181 0L949 1443L811 1443L-33 0L118 0L374 443L983 443ZM649 1822C645 1808 642 1787 642 1768C642 1633 753 1546 900 1546C1086 1546 1216 1649 1248 1822L1148 1822C1126 1703 1031 1632 916 1632C811 1632 743 1688 743 1784C743 1797 746 1813 749 1822Z" />
<glyph glyph-name="abreve" unicode="&#x0103;" horiz-adv-x="1001" d="M435 97C302 97 211 168 211 278C211 402 317 478 503 488L813 505L782 364C747 207 602 97 435 97ZM402 -17C542 -17 667 49 740 153L743 153L710 0L838 0L982 678C987 705 990 736 990 767C990 939 849 1057 633 1057C399 1057 232 928 199 741L337 741C363 861 465 940 623 940C772 940 857 867 857 749C857 729 856 708 851 686L835 612L504 594C234 579 77 464 77 264C77 99 219 -17 402 -17ZM430 1501C425 1483 422 1463 422 1440C422 1305 533 1215 682 1215C868 1215 997 1325 1027 1501L928 1501C907 1378 813 1302 696 1302C590 1302 523 1361 523 1456C523 1472 526 1488 529 1501Z" />
<glyph glyph-name="Aogonek" unicode="&#x0104;" horiz-adv-x="1261" d="M1102 -301C1084 -310 1059 -314 1031 -314C967 -314 927 -281 927 -230C927 -159 1005 -78 1164 1L1179 10L947 1443L809 1443L-33 0L119 0L372 443L980 443L1050 7C890 -74 807 -168 807 -266C807 -353 878 -412 984 -412C1024 -412 1066 -405 1082 -394ZM846 1274L850 1274L963 560L437 560Z" />
<glyph glyph-name="aogonek" unicode="&#x0105;" horiz-adv-x="1001" d="M433 103C300 103 211 173 211 278C211 401 317 478 500 488L813 505L782 364C749 211 607 103 433 103ZM743 -384L763 -292C744 -300 719 -304 691 -304C628 -304 588 -272 588 -221C588 -148 678 -69 831 -9L836 -7L982 678C988 702 990 731 990 767C990 937 845 1051 628 1051C402 1051 232 928 199 741L337 741C363 861 468 934 618 934C767 934 857 864 857 749C857 723 855 705 851 686L835 612L507 594C231 579 77 462 77 264C77 106 214 -11 400 -11C546 -11 668 50 740 153L743 153L714 15C547 -68 468 -156 468 -257C468 -343 539 -403 644 -403C685 -403 727 -395 743 -384Z" />
<glyph glyph-name="Cacute" unicode="&#x0106;" horiz-adv-x="1382" d="M1320 976L1458 976C1458 982 1458 985 1457 995C1443 1279 1224 1465 910 1465C486 1465 175 1087 175 591C175 219 404 -22 757 -22C1043 -22 1274 145 1356 411L1217 411C1144 218 973 104 760 104C488 104 315 295 315 597C315 1021 563 1339 907 1339C1140 1339 1304 1203 1318 993C1319 987 1320 981 1320 976ZM1007 1559L1340 1847L1182 1847L878 1559Z" />
<glyph glyph-name="cacute" unicode="&#x0107;" horiz-adv-x="1021" d="M647 1057C339 1057 116 784 116 431C116 168 269 -17 539 -17C750 -17 926 119 983 310L852 310C802 183 687 100 540 100C367 100 252 230 252 436C252 727 418 940 646 940C810 940 913 836 923 701L1052 701C1052 705 1052 703 1052 706C1045 895 902 1057 647 1057ZM769 1222L1080 1524L928 1524L642 1222Z" />
<glyph glyph-name="Ccircumflex" unicode="&#x0108;" horiz-adv-x="1382" d="M1320 976L1458 976C1458 982 1458 985 1457 995C1443 1279 1224 1465 910 1465C486 1465 175 1087 175 591C175 219 404 -22 757 -22C1043 -22 1274 145 1356 411L1217 411C1144 218 973 104 760 104C488 104 315 295 315 597C315 1021 563 1339 907 1339C1140 1339 1304 1203 1318 993C1319 987 1320 981 1320 976ZM1047 1853L944 1853L607 1559L747 1559L985 1769L990 1769L1138 1559L1259 1559Z" />
<glyph glyph-name="ccircumflex" unicode="&#x0109;" horiz-adv-x="1021" d="M647 1057C339 1057 116 784 116 431C116 168 269 -17 539 -17C750 -17 926 119 983 310L852 310C802 183 687 100 540 100C367 100 252 230 252 436C252 727 418 940 646 940C810 940 913 836 923 701L1052 701C1052 705 1052 703 1052 706C1045 895 902 1057 647 1057ZM828 1524L721 1524L391 1222L525 1222L759 1438L763 1438L905 1222L1029 1222Z" />
<glyph glyph-name="Cdotaccent" unicode="&#x010a;" horiz-adv-x="1382" d="M1320 976L1458 976C1458 982 1458 985 1457 995C1443 1279 1224 1465 910 1465C486 1465 175 1087 175 591C175 219 404 -22 757 -22C1043 -22 1274 145 1356 411L1217 411C1144 218 973 104 760 104C488 104 315 295 315 597C315 1021 563 1339 907 1339C1140 1339 1304 1203 1318 993C1319 987 1320 981 1320 976ZM975 1626C1032 1626 1079 1673 1079 1730C1079 1787 1032 1834 975 1834C918 1834 871 1787 871 1730C871 1673 918 1626 975 1626Z" />
<glyph glyph-name="cdotaccent" unicode="&#x010b;" horiz-adv-x="1021" d="M647 1057C339 1057 116 784 116 431C116 168 269 -17 539 -17C750 -17 926 119 983 310L852 310C802 183 687 100 540 100C367 100 252 230 252 436C252 727 418 940 646 940C810 940 913 836 923 701L1052 701C1052 705 1052 703 1052 706C1045 895 902 1057 647 1057ZM729 1222C786 1222 833 1269 833 1326C833 1383 786 1430 729 1430C672 1430 625 1383 625 1326C625 1269 672 1222 729 1222Z" />
<glyph glyph-name="Ccaron" unicode="&#x010c;" horiz-adv-x="1382" d="M1320 976L1458 976C1458 982 1458 985 1457 995C1443 1279 1224 1465 910 1465C486 1465 175 1087 175 591C175 219 404 -22 757 -22C1043 -22 1274 145 1356 411L1217 411C1144 218 973 104 760 104C488 104 315 295 315 597C315 1021 563 1339 907 1339C1140 1339 1304 1203 1318 993C1319 987 1320 981 1320 976ZM895 1559L999 1559L1336 1853L1196 1853L958 1644L954 1644L805 1853L683 1853Z" />
<glyph glyph-name="ccaron" unicode="&#x010d;" horiz-adv-x="1021" d="M647 1057C339 1057 116 784 116 431C116 168 269 -17 539 -17C750 -17 926 119 983 310L852 310C802 183 687 100 540 100C367 100 252 230 252 436C252 727 418 940 646 940C810 940 913 836 923 701L1052 701C1052 705 1052 703 1052 706C1045 895 902 1057 647 1057ZM772 1222L1103 1524L965 1524L730 1305L725 1305L585 1524L464 1524L665 1222Z" />
<glyph glyph-name="Dcaron" unicode="&#x010e;" horiz-adv-x="1391" d="M387 1443L82 0L606 0C1085 0 1408 357 1408 866C1408 1224 1189 1443 809 1443ZM501 1321L786 1321C1103 1321 1268 1153 1268 849C1268 428 993 122 597 122L246 122ZM765 1558L869 1558L1206 1852L1066 1852L828 1643L824 1643L675 1852L553 1852Z" />
<glyph glyph-name="dcaron" unicode="&#x010f;" horiz-adv-x="1305" d="M1425 1443L1330 999L1423 999L1555 1443ZM498 -17C647 -17 791 71 862 195L866 195L825 0L959 0L1266 1443L1133 1443L993 790L988 790C961 943 820 1057 642 1057C349 1057 114 779 114 420C114 159 265 -17 498 -17ZM528 100C354 100 247 227 247 427C247 717 424 939 643 939C821 939 935 809 935 619C935 331 764 100 528 100Z" />
<glyph glyph-name="Dcroat" unicode="&#x0110;" horiz-adv-x="1391" d="M246 122L364 675L730 675L756 799L390 799L501 1321L786 1321C1103 1321 1268 1153 1268 849C1268 428 993 122 597 122ZM387 1443L251 799L113 799L86 675L225 675L82 0L606 0C1085 0 1408 357 1408 866C1408 1224 1189 1443 809 1443Z" />
<glyph glyph-name="dcroat" unicode="&#x0111;" horiz-adv-x="1131" d="M528 100C354 100 247 227 247 427C247 717 424 939 643 939C821 939 935 809 935 619C935 331 764 100 528 100ZM1355 1320L1240 1320L1266 1443L1133 1443L1107 1320L845 1320L822 1210L1083 1210L993 790L988 790C961 943 820 1057 642 1057C349 1057 114 779 114 420C114 159 265 -17 498 -17C647 -17 791 71 862 195L866 195L825 0L959 0L1216 1210L1331 1210Z" />
<glyph glyph-name="Emacron" unicode="&#x0112;" horiz-adv-x="1102" d="M979 124L246 124L364 678L1059 678L1086 800L390 800L500 1319L1233 1319L1260 1443L387 1443L80 0L953 0ZM1191 1720L574 1720L554 1628L1171 1628Z" />
<glyph glyph-name="emacron" unicode="&#x0113;" horiz-adv-x="1047" d="M270 599C313 795 449 941 634 941C820 941 909 809 909 648C909 628 909 615 906 599ZM534 -19C755 -19 932 118 989 310L858 310C807 180 693 99 537 99C361 99 249 226 249 432C249 448 250 469 253 492L1032 492C1040 534 1043 587 1043 631C1043 894 887 1057 636 1057C333 1057 114 779 114 427C114 166 263 -19 534 -19ZM1006 1381L456 1381L437 1289L987 1289Z" />
<glyph glyph-name="Ebreve" unicode="&#x0114;" horiz-adv-x="1102" d="M979 124L246 124L364 678L1059 678L1086 800L390 800L500 1319L1233 1319L1260 1443L387 1443L80 0L953 0ZM595 1822C591 1808 588 1787 588 1768C588 1633 699 1546 846 1546C1032 1546 1162 1649 1194 1822L1094 1822C1072 1703 977 1632 862 1632C757 1632 689 1688 689 1784C689 1797 692 1813 695 1822Z" />
<glyph glyph-name="ebreve" unicode="&#x0115;" horiz-adv-x="1047" d="M270 599C313 795 449 941 634 941C820 941 909 809 909 648C909 628 909 615 906 599ZM534 -19C755 -19 932 118 989 310L858 310C807 180 693 99 537 99C361 99 249 226 249 432C249 448 250 469 253 492L1032 492C1040 534 1043 587 1043 631C1043 894 887 1057 636 1057C333 1057 114 779 114 427C114 166 263 -19 534 -19ZM445 1501C440 1483 437 1463 437 1440C437 1305 548 1215 697 1215C883 1215 1012 1325 1042 1501L943 1501C922 1378 828 1302 711 1302C605 1302 538 1361 538 1456C538 1472 541 1488 544 1501Z" />
<glyph glyph-name="Edotaccent" unicode="&#x0116;" horiz-adv-x="1102" d="M979 124L246 124L364 678L1059 678L1086 800L390 800L500 1319L1233 1319L1260 1443L387 1443L80 0L953 0ZM880 1625C937 1625 984 1672 984 1729C984 1786 937 1833 880 1833C823 1833 776 1786 776 1729C776 1672 823 1625 880 1625Z" />
<glyph glyph-name="edotaccent" unicode="&#x0117;" horiz-adv-x="1047" d="M270 599C313 795 449 941 634 941C820 941 909 809 909 648C909 628 909 615 906 599ZM534 -19C755 -19 932 118 989 310L858 310C807 180 693 99 537 99C361 99 249 226 249 432C249 448 250 469 253 492L1032 492C1040 534 1043 587 1043 631C1043 894 887 1057 636 1057C333 1057 114 779 114 427C114 166 263 -19 534 -19ZM716 1222C773 1222 820 1269 820 1326C820 1383 773 1430 716 1430C659 1430 612 1383 612 1326C612 1269 659 1222 716 1222Z" />
<glyph glyph-name="Eogonek" unicode="&#x0118;" horiz-adv-x="1102" d="M80 0L810 0L810 -3C663 -80 584 -173 584 -266C584 -353 655 -412 761 -412C801 -412 842 -405 859 -394L879 -301C860 -310 835 -314 807 -314C744 -314 704 -281 704 -230C704 -161 782 -84 942 2L955 10L979 124L245 124L363 678L1059 678L1086 800L389 800L500 1319L1233 1319L1260 1443L387 1443Z" />
<glyph glyph-name="eogonek" unicode="&#x0119;" horiz-adv-x="1047" d="M545 -403C586 -403 628 -395 644 -384L664 -292C648 -300 623 -304 592 -304C529 -304 489 -272 489 -221C489 -142 586 -51 787 56C868 98 950 184 989 310L857 310C806 180 692 99 536 99C360 99 248 226 248 432C248 448 249 469 252 492L1031 492C1039 534 1043 587 1043 631C1043 894 886 1057 636 1057C332 1057 114 779 114 427C114 166 262 -19 533 -19C540 -19 553 -18 557 -18L557 -20C430 -90 369 -166 369 -257C369 -343 441 -403 545 -403ZM270 599C312 795 448 941 634 941C819 941 909 809 909 648C909 628 908 615 905 599Z" />
<glyph glyph-name="Ecaron" unicode="&#x011a;" horiz-adv-x="1102" d="M979 124L246 124L364 678L1059 678L1086 800L390 800L500 1319L1233 1319L1260 1443L387 1443L80 0L953 0ZM800 1558L904 1558L1241 1852L1101 1852L863 1643L859 1643L710 1852L588 1852Z" />
<glyph glyph-name="ecaron" unicode="&#x011b;" horiz-adv-x="1047" d="M270 599C313 795 449 941 634 941C820 941 909 809 909 648C909 628 909 615 906 599ZM534 -19C755 -19 932 118 989 310L858 310C807 180 693 99 537 99C361 99 249 226 249 432C249 448 250 469 253 492L1032 492C1040 534 1043 587 1043 631C1043 894 887 1057 636 1057C333 1057 114 779 114 427C114 166 263 -19 534 -19ZM759 1222L1090 1524L952 1524L717 1305L712 1305L572 1524L451 1524L652 1222Z" />
<glyph glyph-name="Gcircumflex" unicode="&#x011c;" horiz-adv-x="1420" d="M1432 721L858 721L832 600L1267 600L1250 521C1196 264 1006 104 757 104C479 104 314 303 314 597C314 961 515 1339 908 1339C1144 1339 1299 1201 1318 983L1456 983C1456 986 1456 990 1456 993C1441 1272 1231 1465 909 1465C428 1465 174 1018 174 591C174 229 395 -22 756 -22C1075 -22 1313 173 1387 514ZM1038 1852L935 1852L598 1558L738 1558L976 1768L981 1768L1129 1558L1250 1558Z" />
<glyph glyph-name="gcircumflex" unicode="&#x011d;" horiz-adv-x="1121" d="M459 -385C712 -385 900 -242 958 30L1172 1040L1041 1040L989 786L984 786C956 943 821 1057 642 1057C317 1057 115 754 115 434C115 170 269 0 504 0C651 0 792 83 862 211L866 211L825 29C778 -166 650 -271 461 -271C302 -271 195 -193 183 -88L47 -88C47 -256 222 -385 459 -385ZM532 117C349 117 247 245 247 438C247 716 413 939 643 939C811 939 933 810 933 620C933 345 773 117 532 117ZM866 1524L759 1524L429 1222L563 1222L797 1438L801 1438L943 1222L1067 1222Z" />
<glyph glyph-name="Gbreve" unicode="&#x011e;" horiz-adv-x="1420" d="M1432 721L858 721L832 600L1267 600L1250 521C1196 264 1006 104 757 104C479 104 314 303 314 597C314 961 515 1339 908 1339C1144 1339 1299 1201 1318 983L1456 983C1456 986 1456 990 1456 993C1441 1272 1231 1465 909 1465C428 1465 174 1018 174 591C174 229 395 -22 756 -22C1075 -22 1313 173 1387 514ZM681 1822C677 1808 674 1787 674 1768C674 1633 785 1546 932 1546C1118 1546 1248 1649 1280 1822L1180 1822C1158 1703 1063 1632 948 1632C843 1632 775 1688 775 1784C775 1797 778 1813 781 1822Z" />
<glyph glyph-name="gbreve" unicode="&#x011f;" horiz-adv-x="1121" d="M459 -385C712 -385 900 -242 958 30L1172 1040L1041 1040L989 786L984 786C956 943 821 1057 642 1057C317 1057 115 754 115 434C115 170 269 0 504 0C651 0 792 83 862 211L866 211L825 29C778 -166 650 -271 461 -271C302 -271 195 -193 183 -88L47 -88C47 -256 222 -385 459 -385ZM532 117C349 117 247 245 247 438C247 716 413 939 643 939C811 939 933 810 933 620C933 345 773 117 532 117ZM496 1501C491 1483 488 1463 488 1440C488 1305 599 1215 748 1215C934 1215 1063 1325 1093 1501L994 1501C973 1378 879 1302 762 1302C656 1302 589 1361 589 1456C589 1472 592 1488 595 1501Z" />
<glyph glyph-name="Gdotaccent" unicode="&#x0120;" horiz-adv-x="1420" d="M1432 721L858 721L832 600L1267 600L1250 521C1196 264 1006 104 757 104C479 104 314 303 314 597C314 961 515 1339 908 1339C1144 1339 1299 1201 1318 983L1456 983C1456 986 1456 990 1456 993C1441 1272 1231 1465 909 1465C428 1465 174 1018 174 591C174 229 395 -22 756 -22C1075 -22 1313 173 1387 514ZM966 1625C1023 1625 1070 1672 1070 1729C1070 1786 1023 1833 966 1833C909 1833 862 1786 862 1729C862 1672 909 1625 966 1625Z" />
<glyph glyph-name="gdotaccent" unicode="&#x0121;" horiz-adv-x="1121" d="M459 -385C712 -385 900 -242 958 30L1172 1040L1041 1040L989 786L984 786C956 943 821 1057 642 1057C317 1057 115 754 115 434C115 170 269 0 504 0C651 0 792 83 862 211L866 211L825 29C778 -166 650 -271 461 -271C302 -271 195 -193 183 -88L47 -88C47 -256 222 -385 459 -385ZM532 117C349 117 247 245 247 438C247 716 413 939 643 939C811 939 933 810 933 620C933 345 773 117 532 117ZM767 1222C824 1222 871 1269 871 1326C871 1383 824 1430 767 1430C710 1430 663 1383 663 1326C663 1269 710 1222 767 1222Z" />
<glyph glyph-name="Gcommaaccent" unicode="&#x0122;" horiz-adv-x="1420" d="M1432 721L858 721L832 600L1267 600L1250 521C1196 264 1006 104 757 104C479 104 314 303 314 597C314 961 515 1339 908 1339C1144 1339 1299 1201 1318 983L1456 983C1456 986 1456 990 1456 993C1441 1272 1231 1465 909 1465C428 1465 174 1018 174 591C174 229 395 -22 756 -22C1075 -22 1313 173 1387 514ZM588 -475L791 -124L663 -124L484 -475Z" />
<glyph glyph-name="gcommaaccent" unicode="&#x0123;" horiz-adv-x="1121" d="M459 -385C712 -385 900 -242 958 30L1172 1040L1041 1040L989 786L984 786C956 943 821 1057 642 1057C317 1057 115 754 115 434C115 170 269 0 504 0C651 0 792 83 862 211L866 211L825 29C778 -166 650 -271 461 -271C302 -271 195 -193 183 -88L47 -88C47 -256 222 -385 459 -385ZM532 117C349 117 247 245 247 438C247 716 413 939 643 939C811 939 933 810 933 620C933 345 773 117 532 117ZM984 1515L781 1164L909 1164L1088 1515Z" />
<glyph glyph-name="Hcircumflex" unicode="&#x0124;" horiz-adv-x="1394" d="M1200 0L1507 1443L1368 1443L1231 801L390 801L526 1443L387 1443L80 0L219 0L364 677L1205 677L1061 0ZM1070 1852L967 1852L630 1558L770 1558L1008 1768L1013 1768L1161 1558L1282 1558Z" />
<glyph glyph-name="hcircumflex" unicode="&#x0125;" horiz-adv-x="1087" d="M58 0L192 0L327 631C364 807 502 939 680 939C836 939 932 846 932 707C932 679 928 644 920 606L788 0L920 0L1058 630C1066 671 1070 710 1070 743C1070 914 937 1057 733 1057C567 1057 444 969 379 860L375 860L500 1443L366 1443ZM562 1852L459 1852L122 1558L262 1558L500 1768L505 1768L653 1558L774 1558Z" />
<glyph glyph-name="Hbar" unicode="&#x0126;" horiz-adv-x="1394" d="M1231 801L390 801L449 1078L1290 1078ZM1557 1202L1456 1202L1507 1443L1368 1443L1317 1202L475 1202L526 1443L387 1443L336 1202L232 1202L206 1078L309 1078L80 0L219 0L364 677L1205 677L1061 0L1200 0L1429 1078L1531 1078Z" />
<glyph glyph-name="hbar" unicode="&#x0127;" horiz-adv-x="1087" d="M375 860L452 1217L709 1217L729 1313L472 1313L500 1443L366 1443L338 1313L222 1313L202 1217L318 1217L58 0L192 0L327 631C364 807 502 939 680 939C836 939 932 846 932 707C932 679 928 644 920 606L788 0L920 0L1058 630C1066 671 1070 710 1070 743C1070 914 937 1057 733 1057C567 1057 444 969 379 860Z" />
<glyph glyph-name="Itilde" unicode="&#x0128;" horiz-adv-x="413" d="M219 0L526 1443L387 1443L80 0ZM627 1549C728 1549 809 1638 839 1786L746 1786C726 1688 681 1639 634 1639C548 1639 526 1796 388 1796C283 1796 200 1708 174 1559L267 1559C284 1654 330 1706 381 1706C471 1706 495 1549 627 1549Z" />
<glyph glyph-name="itilde" unicode="&#x0129;" horiz-adv-x="378" d="M65 0L199 0L420 1040L286 1040ZM537 1228C638 1228 719 1317 749 1465L656 1465C636 1367 591 1318 544 1318C458 1318 436 1475 298 1475C193 1475 110 1387 84 1238L177 1238C194 1333 240 1385 291 1385C381 1385 405 1228 537 1228Z" />
<glyph glyph-name="Imacron" unicode="&#x012a;" horiz-adv-x="413" d="M219 0L526 1443L387 1443L80 0ZM825 1720L208 1720L188 1628L805 1628Z" />
<glyph glyph-name="imacron" unicode="&#x012b;" horiz-adv-x="378" d="M65 0L199 0L420 1040L286 1040ZM609 1381L158 1381L142 1289L593 1289Z" />
<glyph glyph-name="Ibreve" unicode="&#x012c;" horiz-adv-x="413" d="M219 0L526 1443L387 1443L80 0ZM229 1822C225 1808 222 1787 222 1768C222 1633 333 1546 480 1546C666 1546 796 1649 828 1822L728 1822C706 1703 611 1632 496 1632C391 1632 323 1688 323 1784C323 1797 326 1813 329 1822Z" />
<glyph glyph-name="ibreve" unicode="&#x012d;" horiz-adv-x="378" d="M65 0L199 0L420 1040L286 1040ZM140 1501C135 1483 132 1463 132 1440C132 1305 243 1215 392 1215C578 1215 707 1325 737 1501L638 1501C617 1378 523 1302 406 1302C300 1302 233 1361 233 1456C233 1472 236 1488 239 1501Z" />
<glyph glyph-name="Iogonek" unicode="&#x012e;" horiz-adv-x="413" d="M78 -412C118 -412 160 -405 177 -394L196 -301C181 -310 157 -314 125 -314C62 -314 21 -281 21 -227C21 -158 68 -93 210 3L222 11L526 1443L387 1443L78 -8L78 -8C-43 -101 -99 -181 -99 -266C-99 -353 -27 -412 78 -412Z" />
<glyph glyph-name="iogonek" unicode="&#x012f;" horiz-adv-x="362" d="M149 -384L168 -292C152 -300 126 -304 96 -304C34 -304 -6 -272 -6 -221C-6 -153 62 -71 175 -7L191 3L412 1040L278 1040L57 -1C-68 -84 -127 -165 -127 -257C-127 -343 -55 -403 50 -403C90 -403 132 -395 149 -384ZM403 1230C451 1230 491 1269 491 1318C491 1367 451 1406 403 1406C354 1406 314 1367 314 1318C314 1269 354 1230 403 1230Z" />
<glyph glyph-name="Idotaccent" unicode="&#x0130;" horiz-adv-x="413" d="M219 0L526 1443L387 1443L80 0ZM514 1625C571 1625 618 1672 618 1729C618 1786 571 1833 514 1833C457 1833 410 1786 410 1729C410 1672 457 1625 514 1625Z" />
<glyph glyph-name="dotlessi" unicode="&#x0131;" horiz-adv-x="378" d="M65 0L199 0L420 1040L286 1040Z" />
<glyph glyph-name="IJ" unicode="&#x0132;" horiz-adv-x="1409" d="M219 0L526 1443L387 1443L80 0ZM478 318C478 122 634 -23 852 -23C1086 -23 1242 118 1293 360L1522 1443L1383 1443L1161 395C1121 205 1020 105 866 105C715 105 616 195 616 334C616 338 616 340 616 340L478 340C478 334 478 325 478 318Z" />
<glyph glyph-name="ij" unicode="&#x0133;" horiz-adv-x="746" d="M62 0L196 0L417 1040L283 1040ZM409 1230C457 1230 497 1269 497 1318C497 1367 457 1406 409 1406C360 1406 320 1367 320 1318C320 1269 360 1230 409 1230ZM789 1230C837 1230 877 1269 877 1318C877 1367 837 1406 789 1406C740 1406 700 1367 700 1318C700 1269 740 1230 789 1230ZM791 1040L657 1040L419 -72C394 -192 342 -239 236 -239C219 -239 204 -238 184 -236L158 -351C184 -354 217 -355 233 -355C407 -354 510 -277 550 -89Z" />
<glyph glyph-name="Jcircumflex" unicode="&#x0134;" horiz-adv-x="996" d="M65 318C65 122 221 -23 439 -23C673 -23 829 118 880 360L1109 1443L970 1443L748 395C708 205 607 105 453 105C302 105 203 195 203 334C203 338 203 340 203 340L65 340C65 334 65 325 65 318ZM1169 1852L1066 1852L729 1558L869 1558L1107 1768L1112 1768L1260 1558L1381 1558Z" />
<glyph glyph-name="jcircumflex" unicode="&#x0135;" horiz-adv-x="374" d="M419 1040L285 1040L47 -72C22 -192 -31 -239 -136 -239C-153 -239 -168 -238 -188 -236L-214 -351C-188 -354 -155 -355 -139 -355C34 -354 138 -277 178 -89ZM511 1524L404 1524L74 1222L208 1222L442 1438L446 1438L588 1222L712 1222Z" />
<glyph glyph-name="Kcommaaccent" unicode="&#x0136;" horiz-adv-x="1209" d="M219 0L327 508L568 718L982 0L1141 0L675 803L1390 1443L1207 1443L372 700L368 700L526 1443L387 1443L80 0ZM420 -475L623 -124L495 -124L316 -475Z" />
<glyph glyph-name="kcommaaccent" unicode="&#x0137;" horiz-adv-x="928" d="M192 0L279 405L439 529L739 0L888 0L546 604L1091 1040L917 1040L316 564L312 564L499 1443L365 1443L58 0ZM292 -475L495 -124L367 -124L188 -475Z" />
<glyph glyph-name="Lacute" unicode="&#x0139;" horiz-adv-x="1053" d="M966 124L246 124L526 1443L387 1443L80 0L940 0ZM545 1558L878 1846L720 1846L416 1558Z" />
<glyph glyph-name="lacute" unicode="&#x013a;" horiz-adv-x="379" d="M66 0L200 0L507 1443L373 1443ZM529 1558L862 1846L704 1846L400 1558Z" />
<glyph glyph-name="Lcommaaccent" unicode="&#x013b;" horiz-adv-x="1053" d="M966 124L246 124L526 1443L387 1443L80 0L940 0ZM350 -475L553 -124L425 -124L246 -475Z" />
<glyph glyph-name="lcommaaccent" unicode="&#x013c;" horiz-adv-x="379" d="M66 0L200 0L507 1443L373 1443ZM-27 -475L176 -124L48 -124L-131 -475Z" />
<glyph glyph-name="Lcaron" unicode="&#x013d;" horiz-adv-x="1053" d="M892 1443L797 999L889 999L1021 1443ZM966 124L246 124L526 1443L387 1443L80 0L940 0Z" />
<glyph glyph-name="lcaron" unicode="&#x013e;" horiz-adv-x="547" d="M666 1443L572 999L664 999L796 1443ZM66 0L200 0L507 1443L373 1443Z" />
<glyph glyph-name="Lslash" unicode="&#x0141;" horiz-adv-x="1053" d="M246 124L359 655L752 838L777 956L384 773L526 1443L387 1443L229 701L77 630L52 512L204 583L80 0L940 0L966 124Z" />
<glyph glyph-name="lslash" unicode="&#x0142;" horiz-adv-x="379" d="M507 1443L373 1443L229 765L109 709L81 577L201 633L66 0L200 0L349 702L469 758L497 890L377 834Z" />
<glyph glyph-name="Nacute" unicode="&#x0143;" horiz-adv-x="1400" d="M219 0L482 1236L486 1236L1067 0L1206 0L1513 1443L1374 1443L1111 207L1107 207L526 1443L387 1443L80 0ZM1044 1558L1377 1846L1219 1846L915 1558Z" />
<glyph glyph-name="nacute" unicode="&#x0144;" horiz-adv-x="1074" d="M56 0L189 0L324 631C362 812 501 939 672 939C823 939 921 852 921 714C921 685 916 647 907 606L778 0L911 0L1046 630C1054 672 1059 715 1059 750C1059 927 917 1057 724 1057C565 1057 442 978 369 858L365 858L404 1040L277 1040ZM804 1222L1115 1524L963 1524L677 1222Z" />
<glyph glyph-name="Ncommaaccent" unicode="&#x0145;" horiz-adv-x="1400" d="M219 0L482 1236L486 1236L1067 0L1206 0L1513 1443L1374 1443L1111 207L1107 207L526 1443L387 1443L80 0ZM483 -475L686 -124L558 -124L379 -475Z" />
<glyph glyph-name="ncommaaccent" unicode="&#x0146;" horiz-adv-x="1074" d="M56 0L189 0L324 631C362 812 501 939 672 939C823 939 921 852 921 714C921 685 916 647 907 606L778 0L911 0L1046 630C1054 672 1059 715 1059 750C1059 927 917 1057 724 1057C565 1057 442 978 369 858L365 858L404 1040L277 1040ZM323 -475L526 -124L398 -124L219 -475Z" />
<glyph glyph-name="Ncaron" unicode="&#x0147;" horiz-adv-x="1400" d="M219 0L482 1236L486 1236L1067 0L1206 0L1513 1443L1374 1443L1111 207L1107 207L526 1443L387 1443L80 0ZM932 1558L1036 1558L1373 1852L1233 1852L995 1643L991 1643L842 1852L720 1852Z" />
<glyph glyph-name="ncaron" unicode="&#x0148;" horiz-adv-x="1074" d="M56 0L189 0L324 631C362 812 501 939 672 939C823 939 921 852 921 714C921 685 916 647 907 606L778 0L911 0L1046 630C1054 672 1059 715 1059 750C1059 927 917 1057 724 1057C565 1057 442 978 369 858L365 858L404 1040L277 1040ZM807 1222L1138 1524L1000 1524L765 1305L760 1305L620 1524L499 1524L700 1222Z" />
<glyph glyph-name="Omacron" unicode="&#x014c;" horiz-adv-x="1491" d="M918 1339C1191 1339 1368 1145 1368 838C1368 430 1116 104 765 104C493 104 315 298 315 605C315 1013 568 1339 918 1339ZM764 -22C1193 -22 1508 363 1508 844C1508 1219 1273 1465 920 1465C490 1465 175 1080 175 599C175 224 410 -22 764 -22ZM1301 1720L684 1720L664 1628L1281 1628Z" />
<glyph glyph-name="omacron" unicode="&#x014d;" horiz-adv-x="1089" d="M547 100C366 100 250 233 250 437C250 723 420 940 650 940C830 940 946 807 946 603C946 317 776 100 547 100ZM650 1057C346 1057 116 786 116 433C116 161 285 -17 547 -17C850 -17 1080 254 1080 607C1080 879 912 1057 650 1057ZM1018 1381L468 1381L449 1289L999 1289Z" />
<glyph glyph-name="Obreve" unicode="&#x014e;" horiz-adv-x="1491" d="M918 1339C1191 1339 1368 1145 1368 838C1368 430 1116 104 765 104C493 104 315 298 315 605C315 1013 568 1339 918 1339ZM764 -22C1193 -22 1508 363 1508 844C1508 1219 1273 1465 920 1465C490 1465 175 1080 175 599C175 224 410 -22 764 -22ZM705 1822C701 1808 698 1787 698 1768C698 1633 809 1546 956 1546C1142 1546 1272 1649 1304 1822L1204 1822C1182 1703 1087 1632 972 1632C867 1632 799 1688 799 1784C799 1797 802 1813 805 1822Z" />
<glyph glyph-name="obreve" unicode="&#x014f;" horiz-adv-x="1089" d="M547 100C366 100 250 233 250 437C250 723 420 940 650 940C830 940 946 807 946 603C946 317 776 100 547 100ZM650 1057C346 1057 116 786 116 433C116 161 285 -17 547 -17C850 -17 1080 254 1080 607C1080 879 912 1057 650 1057ZM457 1501C452 1483 449 1463 449 1440C449 1305 560 1215 709 1215C895 1215 1024 1325 1054 1501L955 1501C934 1378 840 1302 723 1302C617 1302 550 1361 550 1456C550 1472 553 1488 556 1501Z" />
<glyph glyph-name="Ohungarumlaut" unicode="&#x0150;" horiz-adv-x="1491" d="M918 1339C1191 1339 1368 1145 1368 838C1368 430 1116 104 765 104C493 104 315 298 315 605C315 1013 568 1339 918 1339ZM764 -22C1193 -22 1508 363 1508 844C1508 1219 1273 1465 920 1465C490 1465 175 1080 175 599C175 224 410 -22 764 -22ZM1170 1558L1504 1846L1351 1846L1046 1558ZM872 1558L1205 1846L1053 1846L748 1558Z" />
<glyph glyph-name="ohungarumlaut" unicode="&#x0151;" horiz-adv-x="1089" d="M547 100C366 100 250 233 250 437C250 723 420 940 650 940C830 940 946 807 946 603C946 317 776 100 547 100ZM650 1057C346 1057 116 786 116 433C116 161 285 -17 547 -17C850 -17 1080 254 1080 607C1080 879 912 1057 650 1057ZM790 1222L907 1222L1213 1524L1064 1524ZM497 1222L614 1222L920 1524L770 1524Z" />
<glyph glyph-name="OE" unicode="&#x0152;" horiz-adv-x="2237" d="M1209 0L2082 0L2108 124L1374 124L1492 678L2188 678L2215 800L1518 800L1629 1319L2362 1319L2389 1443L1516 1443L1443 1098L1440 1098C1363 1329 1175 1465 917 1465C489 1465 172 1080 172 604C172 225 403 -22 757 -22C952 -22 1129 65 1253 218L1256 218ZM1362 836C1362 430 1109 104 757 104C486 104 312 300 312 608C312 1013 565 1339 917 1339C1188 1339 1362 1143 1362 836Z" />
<glyph glyph-name="oe" unicode="&#x0153;" horiz-adv-x="1868" d="M1355 -17C1567 -17 1748 109 1803 293L1672 293C1621 171 1508 100 1359 100C1180 100 1068 229 1068 428C1068 453 1070 481 1072 493L1854 493C1861 534 1865 578 1865 630C1865 885 1708 1057 1469 1057C1288 1057 1120 946 1041 786L1037 786C988 945 860 1057 648 1057C342 1057 115 781 115 432C115 160 283 -17 544 -17C726 -17 893 86 973 248L977 248C1024 84 1162 -17 1355 -17ZM1089 601C1141 804 1282 941 1465 941C1621 941 1730 820 1730 648C1730 624 1730 613 1727 601ZM248 435C248 718 416 940 647 940C828 940 944 809 944 605C944 320 775 100 545 100C364 100 248 230 248 435Z" />
<glyph glyph-name="Racute" unicode="&#x0154;" horiz-adv-x="1227" d="M80 0L220 0L346 591L732 591L744 591L951 0L1095 0L879 610C1132 655 1284 838 1284 1068C1284 1294 1132 1443 857 1443L389 1443ZM502 1321L849 1321C1034 1321 1141 1217 1141 1055C1141 853 978 714 744 714L372 714ZM860 1558L1193 1846L1035 1846L731 1558Z" />
<glyph glyph-name="racute" unicode="&#x0155;" horiz-adv-x="665" d="M56 0L188 0L318 613C361 811 466 928 635 928C686 928 743 916 766 903L795 1030C770 1043 720 1055 669 1055C541 1055 443 993 374 884L370 884L403 1040L277 1040ZM616 1222L927 1524L775 1524L489 1222Z" />
<glyph glyph-name="Rcommaaccent" unicode="&#x0156;" horiz-adv-x="1227" d="M80 0L220 0L346 591L732 591L744 591L951 0L1095 0L879 610C1132 655 1284 838 1284 1068C1284 1294 1132 1443 857 1443L389 1443ZM502 1321L849 1321C1034 1321 1141 1217 1141 1055C1141 853 978 714 744 714L372 714ZM417 -475L620 -124L492 -124L313 -475Z" />
<glyph glyph-name="rcommaaccent" unicode="&#x0157;" horiz-adv-x="665" d="M56 0L188 0L318 613C361 811 466 928 635 928C686 928 743 916 766 903L795 1030C770 1043 720 1055 669 1055C541 1055 443 993 374 884L370 884L403 1040L277 1040ZM-31 -475L172 -124L44 -124L-135 -475Z" />
<glyph glyph-name="Rcaron" unicode="&#x0158;" horiz-adv-x="1227" d="M80 0L220 0L346 591L732 591L744 591L951 0L1095 0L879 610C1132 655 1284 838 1284 1068C1284 1294 1132 1443 857 1443L389 1443ZM502 1321L849 1321C1034 1321 1141 1217 1141 1055C1141 853 978 714 744 714L372 714ZM748 1558L852 1558L1189 1852L1049 1852L811 1643L807 1643L658 1852L536 1852Z" />
<glyph glyph-name="rcaron" unicode="&#x0159;" horiz-adv-x="665" d="M56 0L188 0L318 613C361 811 466 928 635 928C686 928 743 916 766 903L795 1030C770 1043 720 1055 669 1055C541 1055 443 993 374 884L370 884L403 1040L277 1040ZM619 1222L950 1524L812 1524L577 1305L572 1305L432 1524L311 1524L512 1222Z" />
<glyph glyph-name="Sacute" unicode="&#x015a;" horiz-adv-x="1214" d="M105 416C114 146 352 -22 653 -22C979 -22 1162 179 1162 408C1162 585 1049 700 816 778L708 816C516 882 435 957 435 1079C435 1220 560 1341 778 1341C992 1341 1131 1223 1141 1055L1278 1055C1273 1305 1064 1465 780 1465C494 1465 294 1304 294 1069C294 884 405 774 646 691L753 654C939 590 1019 517 1019 383C1019 207 865 102 655 102C418 102 259 230 242 416ZM904 1558L1237 1846L1079 1846L775 1558Z" />
<glyph glyph-name="sacute" unicode="&#x015b;" horiz-adv-x="937" d="M202 759C202 625 278 543 460 484L550 454C697 406 741 368 741 287C741 177 635 93 488 93C327 93 220 178 202 302L69 302C79 118 243 -17 482 -17C710 -17 874 113 874 294C874 429 799 507 611 568L521 597C383 642 332 688 332 770C332 872 429 947 575 947C714 947 815 863 827 745L954 745C947 928 795 1057 577 1057C355 1057 202 931 202 759ZM695 1222L1006 1524L854 1524L568 1222Z" />
<glyph glyph-name="Scircumflex" unicode="&#x015c;" horiz-adv-x="1214" d="M105 416C114 146 352 -22 653 -22C979 -22 1162 179 1162 408C1162 585 1049 700 816 778L708 816C516 882 435 957 435 1079C435 1220 560 1341 778 1341C992 1341 1131 1223 1141 1055L1278 1055C1273 1305 1064 1465 780 1465C494 1465 294 1304 294 1069C294 884 405 774 646 691L753 654C939 590 1019 517 1019 383C1019 207 865 102 655 102C418 102 259 230 242 416ZM944 1852L841 1852L504 1558L644 1558L882 1768L887 1768L1035 1558L1156 1558Z" />
<glyph glyph-name="scircumflex" unicode="&#x015d;" horiz-adv-x="937" d="M202 759C202 625 278 543 460 484L550 454C697 406 741 368 741 287C741 177 635 93 488 93C327 93 220 178 202 302L69 302C79 118 243 -17 482 -17C710 -17 874 113 874 294C874 429 799 507 611 568L521 597C383 642 332 688 332 770C332 872 429 947 575 947C714 947 815 863 827 745L954 745C947 928 795 1057 577 1057C355 1057 202 931 202 759ZM754 1524L647 1524L317 1222L451 1222L685 1438L689 1438L831 1222L955 1222Z" />
<glyph glyph-name="Scedilla" unicode="&#x015e;" horiz-adv-x="1214" d="M708 816C516 882 435 957 435 1079C435 1220 560 1341 778 1341C992 1341 1131 1223 1141 1055L1278 1055C1273 1305 1064 1465 780 1465C494 1465 294 1304 294 1069C294 884 405 774 646 691L753 654C939 590 1019 517 1019 383C1019 207 865 102 655 102C418 102 259 230 242 416L105 416C113 170 311 9 573 -18L494 -154L480 -213L536 -214C638 -217 687 -243 687 -296C687 -352 635 -383 552 -383C498 -383 450 -372 407 -353L388 -443C432 -463 499 -476 561 -476C699 -476 793 -402 793 -288C793 -194 724 -141 606 -140L677 -22C988 -12 1162 185 1162 408C1162 585 1049 700 816 778Z" />
<glyph glyph-name="scedilla" unicode="&#x015f;" horiz-adv-x="937" d="M521 597C383 642 332 688 332 770C332 872 429 947 575 947C714 947 815 863 827 745L954 745C947 928 795 1057 577 1057C355 1057 202 931 202 759C202 625 278 543 460 484L550 454C697 406 741 368 741 287C741 177 635 93 488 93C327 93 220 178 202 302L69 302C78 139 208 14 404 -12L322 -154L308 -213L364 -214C466 -217 515 -243 515 -296C515 -352 463 -383 380 -383C326 -383 278 -372 235 -353L216 -443C260 -463 327 -476 389 -476C527 -476 621 -402 621 -288C621 -194 552 -141 434 -140L508 -16C722 -7 874 120 874 294C874 429 799 507 611 568Z" />
<glyph glyph-name="Scaron" unicode="&#x0160;" horiz-adv-x="1214" d="M105 416C114 146 352 -22 653 -22C979 -22 1162 179 1162 408C1162 585 1049 700 816 778L708 816C516 882 435 957 435 1079C435 1220 560 1341 778 1341C992 1341 1131 1223 1141 1055L1278 1055C1273 1305 1064 1465 780 1465C494 1465 294 1304 294 1069C294 884 405 774 646 691L753 654C939 590 1019 517 1019 383C1019 207 865 102 655 102C418 102 259 230 242 416ZM792 1558L896 1558L1233 1852L1093 1852L855 1643L851 1643L702 1852L580 1852Z" />
<glyph glyph-name="scaron" unicode="&#x0161;" horiz-adv-x="937" d="M202 759C202 625 278 543 460 484L550 454C697 406 741 368 741 287C741 177 635 93 488 93C327 93 220 178 202 302L69 302C79 118 243 -17 482 -17C710 -17 874 113 874 294C874 429 799 507 611 568L521 597C383 642 332 688 332 770C332 872 429 947 575 947C714 947 815 863 827 745L954 745C947 928 795 1057 577 1057C355 1057 202 931 202 759ZM698 1222L1029 1524L891 1524L656 1305L651 1305L511 1524L390 1524L591 1222Z" />
<glyph glyph-name="Tcedilla" unicode="&#x0162;" horiz-adv-x="1188" d="M292 1443L266 1319L748 1319L468 0L501 0L412 -154L398 -213L454 -214C556 -217 605 -243 605 -296C605 -352 553 -383 470 -383C416 -383 368 -372 325 -353L306 -443C350 -463 417 -476 479 -476C617 -476 711 -402 711 -288C711 -194 642 -141 524 -140L608 0L609 9L888 1319L1370 1319L1396 1443Z" />
<glyph glyph-name="tcedilla" unicode="&#x0163;" horiz-adv-x="582" d="M441 929L665 929L688 1040L464 1040L521 1306L387 1306L332 1040L179 1040L156 929L308 929L170 280C163 247 159 218 159 191C159 97 211 37 291 10L288 10L193 -154L179 -213L235 -214C337 -217 386 -243 386 -296C386 -352 334 -383 251 -383C197 -383 149 -372 106 -353L87 -443C131 -463 198 -476 260 -476C398 -476 492 -402 492 -288C492 -194 423 -141 305 -140L386 -6C390 -6 395 -6 400 -6C424 -6 465 -3 489 1L513 113C497 111 467 110 445 110C355 110 299 147 299 228C299 253 303 282 311 316Z" />
<glyph glyph-name="Tcaron" unicode="&#x0164;" horiz-adv-x="1188" d="M607 0L888 1319L1370 1319L1396 1443L292 1443L266 1319L748 1319L468 0ZM824 1558L928 1558L1265 1852L1125 1852L887 1643L883 1643L734 1852L612 1852Z" />
<glyph glyph-name="tcaron" unicode="&#x0165;" horiz-adv-x="653" d="M744 1642L649 1198L741 1198L873 1642ZM400 -6C424 -6 465 -3 489 1L513 113C497 111 467 110 445 110C355 110 299 147 299 228C299 253 303 282 311 316L441 929L665 929L688 1040L464 1040L521 1306L387 1306L332 1040L179 1040L156 929L308 929L170 280C163 247 159 218 159 191C159 60 260 -6 400 -6Z" />
<glyph glyph-name="Tbar" unicode="&#x0166;" horiz-adv-x="1188" d="M1370 1319L1396 1443L292 1443L266 1319L748 1319L635 785L275 785L249 661L608 661L468 0L607 0L748 661L1132 661L1158 785L774 785L888 1319Z" />
<glyph glyph-name="tbar" unicode="&#x0167;" horiz-adv-x="582" d="M665 929L688 1040L464 1040L521 1306L387 1306L332 1040L179 1040L156 929L308 929L244 628L91 628L67 516L220 516L170 280C163 247 159 218 159 191C159 60 260 -6 400 -6C424 -6 465 -3 489 1L513 113C497 111 467 110 445 110C355 110 299 147 299 228C299 253 303 282 311 316L353 516L598 516L622 628L377 628L441 929Z" />
<glyph glyph-name="Utilde" unicode="&#x0168;" horiz-adv-x="1399" d="M682 -22C1025 -22 1238 157 1303 463L1512 1443L1373 1443L1169 488C1117 248 939 104 704 104C464 104 332 231 327 425C326 467 331 516 340 559L527 1443L388 1443L199 552C190 507 185 462 186 417C188 167 368 -22 682 -22ZM1109 1549C1210 1549 1291 1638 1321 1786L1228 1786C1208 1688 1163 1639 1116 1639C1030 1639 1008 1796 870 1796C765 1796 682 1708 656 1559L749 1559C766 1654 812 1706 863 1706C953 1706 977 1549 1109 1549Z" />
<glyph glyph-name="utilde" unicode="&#x0169;" horiz-adv-x="1073" d="M1125 1040L993 1040L858 409C821 234 681 101 500 101C345 101 261 178 261 320C261 347 267 396 275 434L404 1040L270 1040L138 413C130 372 124 318 124 280C124 113 250 -17 452 -17C617 -17 751 73 811 171L815 171L777 0L904 0ZM870 1228C971 1228 1052 1317 1082 1465L989 1465C969 1367 924 1318 877 1318C791 1318 769 1475 631 1475C526 1475 443 1387 417 1238L510 1238C527 1333 573 1385 624 1385C714 1385 738 1228 870 1228Z" />
<glyph glyph-name="Umacron" unicode="&#x016a;" horiz-adv-x="1399" d="M682 -22C1025 -22 1238 157 1303 463L1512 1443L1373 1443L1169 488C1117 248 939 104 704 104C464 104 332 231 327 425C326 467 331 516 340 559L527 1443L388 1443L199 552C190 507 185 462 186 417C188 167 368 -22 682 -22ZM1307 1720L690 1720L670 1628L1287 1628Z" />
<glyph glyph-name="umacron" unicode="&#x016b;" horiz-adv-x="1073" d="M1125 1040L993 1040L858 409C821 234 681 101 500 101C345 101 261 178 261 320C261 347 267 396 275 434L404 1040L270 1040L138 413C130 372 124 318 124 280C124 113 250 -17 452 -17C617 -17 751 73 811 171L815 171L777 0L904 0ZM1034 1381L484 1381L465 1289L1015 1289Z" />
<glyph glyph-name="Ubreve" unicode="&#x016c;" horiz-adv-x="1399" d="M682 -22C1025 -22 1238 157 1303 463L1512 1443L1373 1443L1169 488C1117 248 939 104 704 104C464 104 332 231 327 425C326 467 331 516 340 559L527 1443L388 1443L199 552C190 507 185 462 186 417C188 167 368 -22 682 -22ZM711 1822C707 1808 704 1787 704 1768C704 1633 815 1546 962 1546C1148 1546 1278 1649 1310 1822L1210 1822C1188 1703 1093 1632 978 1632C873 1632 805 1688 805 1784C805 1797 808 1813 811 1822Z" />
<glyph glyph-name="ubreve" unicode="&#x016d;" horiz-adv-x="1073" d="M1125 1040L993 1040L858 409C821 234 681 101 500 101C345 101 261 178 261 320C261 347 267 396 275 434L404 1040L270 1040L138 413C130 372 124 318 124 280C124 113 250 -17 452 -17C617 -17 751 73 811 171L815 171L777 0L904 0ZM473 1501C468 1483 465 1463 465 1440C465 1305 576 1215 725 1215C911 1215 1040 1325 1070 1501L971 1501C950 1378 856 1302 739 1302C633 1302 566 1361 566 1456C566 1472 569 1488 572 1501Z" />
<glyph glyph-name="Uring" unicode="&#x016e;" horiz-adv-x="1399" d="M682 -22C1025 -22 1238 157 1303 463L1512 1443L1373 1443L1169 488C1117 248 939 104 704 104C464 104 332 231 327 425C326 467 331 516 340 559L527 1443L388 1443L199 552C190 507 185 462 186 417C188 167 368 -22 682 -22ZM996 1559C1101 1559 1180 1638 1181 1747C1182 1854 1101 1923 1001 1923C898 1923 816 1844 816 1735C816 1629 898 1559 996 1559ZM996 1629C935 1629 889 1673 889 1737C889 1807 936 1853 1001 1853C1064 1853 1107 1809 1108 1745C1109 1676 1062 1629 996 1629Z" />
<glyph glyph-name="uring" unicode="&#x016f;" horiz-adv-x="1073" d="M1125 1040L993 1040L858 409C821 234 681 101 500 101C345 101 261 178 261 320C261 347 267 396 275 434L404 1040L270 1040L138 413C130 372 124 318 124 280C124 113 250 -17 452 -17C617 -17 751 73 811 171L815 171L777 0L904 0ZM744 1156C849 1156 928 1235 929 1344C930 1451 849 1520 749 1520C646 1520 564 1441 564 1332C564 1226 646 1156 744 1156ZM744 1226C683 1226 637 1270 637 1334C637 1404 684 1450 749 1450C812 1450 855 1406 856 1342C857 1273 810 1226 744 1226Z" />
<glyph glyph-name="Uhungarumlaut" unicode="&#x0170;" horiz-adv-x="1399" d="M682 -22C1025 -22 1238 157 1303 463L1512 1443L1373 1443L1169 488C1117 248 939 104 704 104C464 104 332 231 327 425C326 467 331 516 340 559L527 1443L388 1443L199 552C190 507 185 462 186 417C188 167 368 -22 682 -22ZM1177 1558L1511 1846L1358 1846L1053 1558ZM879 1558L1212 1846L1060 1846L755 1558Z" />
<glyph glyph-name="uhungarumlaut" unicode="&#x0171;" horiz-adv-x="1073" d="M1125 1040L993 1040L858 409C821 234 681 101 500 101C345 101 261 178 261 320C261 347 267 396 275 434L404 1040L270 1040L138 413C130 372 124 318 124 280C124 113 250 -17 452 -17C617 -17 751 73 811 171L815 171L777 0L904 0ZM806 1222L923 1222L1229 1524L1080 1524ZM513 1222L630 1222L936 1524L786 1524Z" />
<glyph glyph-name="Uogonek" unicode="&#x0172;" horiz-adv-x="1399" d="M849 -394L869 -301C851 -310 827 -314 798 -314C735 -314 694 -281 694 -229C694 -144 811 -54 984 38C1141 121 1258 254 1304 465L1513 1443L1373 1443L1169 491C1118 250 937 104 704 104C460 104 331 228 327 424C326 464 331 511 340 556L527 1443L388 1443L199 549C190 505 185 462 186 417C187 164 364 -23 682 -23C712 -23 751 -20 771 -15L771 -18C633 -99 574 -177 574 -266C574 -353 645 -412 751 -412C791 -412 833 -405 849 -394Z" />
</font>
</defs>
</svg>
