<?xml version="1.0" standalone="no"?><!DOCTYPE svg PUBLIC "-//W3C//DTD SVG 1.1//EN" "http://www.w3.org/Graphics/SVG/1.1/DTD/svg11.dtd" ><svg xmlns="http://www.w3.org/2000/svg"><metadata></metadata><defs>
<font id="SFProDisplay-SemiboldItalic" >
<font-face font-family="SF Pro Display" font-stretch="normal" units-per-em="2048" weight="600" panose-1="0,0,7,0,0,0,0,0,0,0" ascent="1950" descent="-494" x-height="1062" underline-thickness="169" underline-position="-289" unicode-range="U+00000032-00064258" bbox="-610,-516,2835,2162" />
<missing-glyph horiz-adv-x="2048" d="M-75 -494L1772 -494L1823 -265L-25 -265ZM19 -51L1867 -51L1916 178L69 178ZM114 392L1961 392L2010 621L163 621ZM207 835L2055 835L2104 1064L257 1064ZM301 1278L2149 1278L2198 1507L351 1507ZM395 1721L2242 1721L2292 1950L444 1950Z" />
<glyph glyph-name="space" unicode="&#x20;" horiz-adv-x="467" d="" />
<glyph glyph-name="exclam" unicode="&#x21;" horiz-adv-x="615" d="M411 1443L228 477L452 477L681 1443ZM264 -21C344 -21 409 43 409 124C409 204 344 267 264 267C183 267 118 204 118 124C118 43 183 -21 264 -21Z" />
<glyph glyph-name="quotedbl" unicode="&#x22;" horiz-adv-x="885" d="M474 896L590 1443L372 1443L257 896ZM872 896L987 1443L770 1443L654 896Z" />
<glyph glyph-name="numbersign" unicode="&#x23;" horiz-adv-x="1277" d="M622 0L815 0L942 387L1192 387L1251 581L1003 581L1103 880L1346 880L1406 1072L1165 1072L1288 1443L1094 1443L971 1072L688 1072L809 1443L617 1443L494 1072L257 1072L196 880L433 880L334 581L103 581L44 387L272 387L145 0L337 0L465 387L749 387ZM512 567L620 892L923 892L815 567Z" />
<glyph glyph-name="dollar" unicode="&#x24;" horiz-adv-x="1294" d="M774 591C895 540 950 487 950 398C950 280 852 193 688 189ZM696 876C590 920 533 974 533 1058C533 1167 631 1250 776 1254ZM824 828L910 1234C996 1202 1050 1136 1063 1044L1305 1044C1302 1235 1164 1392 955 1444L987 1593L848 1593L820 1462C814 1462 808 1462 802 1462C484 1462 275 1286 275 1037C275 866 388 732 589 659L645 639L553 205C446 234 376 306 363 407L116 407C125 199 283 43 509 -5L480 -139L618 -139L643 -20C649 -20 654 -20 659 -20C982 -20 1207 153 1207 429C1207 612 1087 731 860 815Z" />
<glyph glyph-name="percent" unicode="&#x25;" horiz-adv-x="1705" d="M204 1016C204 836 311 726 488 726C698 726 857 914 857 1177C857 1356 749 1464 571 1464C360 1464 204 1278 204 1016ZM490 887C443 887 415 928 415 999C415 1158 489 1304 569 1304C617 1304 645 1263 645 1192C645 1034 570 887 490 887ZM370 0L1028 698L1729 1443L1503 1443L863 765L142 0ZM1016 270C1016 90 1123 -20 1299 -20C1510 -20 1669 169 1669 431C1669 610 1561 719 1383 719C1172 719 1016 532 1016 270ZM1302 141C1255 141 1227 182 1227 253C1227 413 1301 558 1381 558C1429 558 1457 518 1457 446C1457 289 1381 141 1302 141Z" />
<glyph glyph-name="ampersand" unicode="&#x26;" horiz-adv-x="1420" d="M602 1099C602 1204 689 1289 796 1289C890 1289 957 1234 957 1148C957 1050 883 953 697 893C630 983 602 1041 602 1099ZM584 166C411 166 302 262 302 391C302 501 384 594 540 651C542 652 586 667 590 669L874 246C786 188 676 166 584 166ZM1033 0L1303 0L1155 223C1277 353 1359 518 1376 716L1380 762L1163 762L1160 722C1150 591 1107 485 1038 400L794 753C1060 850 1178 1001 1178 1170C1178 1342 1016 1470 798 1470C559 1470 379 1313 379 1115C379 1029 414 941 495 824L427 796C184 701 63 556 63 370C63 143 283 -27 566 -27C718 -27 863 12 978 83Z" />
<glyph glyph-name="quotesingle" unicode="&#x27;" horiz-adv-x="487" d="M474 896L590 1443L372 1443L257 896Z" />
<glyph glyph-name="parenleft" unicode="&#x28;" horiz-adv-x="708" d="M524 -310C471 -157 436 55 435 318C433 768 611 1162 896 1443L631 1443C360 1178 183 780 183 352C183 114 231 -161 301 -310Z" />
<glyph glyph-name="parenright" unicode="&#x29;" horiz-adv-x="708" d="M286 1443C339 1290 374 1079 375 816C377 365 199 -28 -86 -310L179 -310C450 -44 627 354 627 781C627 1019 581 1295 509 1443Z" />
<glyph glyph-name="asterisk" unicode="&#x2a;" horiz-adv-x="982" d="M916 824L1013 955L776 1104L1061 1201L1003 1357L744 1225L811 1502L647 1519L615 1228L404 1415L306 1282L536 1135L258 1039L316 886L579 1018L510 739L673 722L704 1009Z" />
<glyph glyph-name="plus" unicode="&#x2b;" horiz-adv-x="1294" d="M783 462L1205 462L1251 689L830 689L922 1120L700 1120L609 689L194 689L147 462L561 462L473 45L695 45Z" />
<glyph glyph-name="comma" unicode="&#x2c;" horiz-adv-x="552" d="M163 -307L413 240L170 240L-29 -307Z" />
<glyph glyph-name="hyphen" unicode="&#x2d;" horiz-adv-x="830" d="M119 464L769 464L815 684L165 684Z" />
<glyph glyph-name="period" unicode="&#x2e;" horiz-adv-x="553" d="M235 -11C315 -11 379 54 379 136C379 217 315 282 235 282C155 282 91 217 91 136C91 54 155 -11 235 -11Z" />
<glyph glyph-name="slash" unicode="&#x2f;" horiz-adv-x="708" d="M95 -310L945 1443L716 1443L-135 -310Z" />
<glyph glyph-name="zero" unicode="&#x30;" horiz-adv-x="1338" d="M666 -24C1063 -24 1343 367 1343 924C1343 1254 1145 1467 840 1467C445 1467 163 1072 163 518C163 189 361 -24 666 -24ZM426 523C426 925 607 1251 831 1251C985 1251 1079 1126 1079 920C1079 515 901 191 677 191C521 191 426 316 426 523Z" />
<glyph glyph-name="one" unicode="&#x31;" horiz-adv-x="962" d="M404 0L661 0L968 1443L711 1443L278 1179L223 915L650 1176L655 1176Z" />
<glyph glyph-name="two" unicode="&#x32;" horiz-adv-x="1230" d="M249 1021L492 1021C519 1166 624 1254 769 1254C901 1254 993 1174 993 1060C993 950 930 873 674 665L94 195L54 0L1074 0L1119 217L456 217L457 223L835 529C1166 796 1249 905 1249 1085C1249 1306 1053 1467 785 1467C494 1467 274 1284 249 1021Z" />
<glyph glyph-name="three" unicode="&#x33;" horiz-adv-x="1267" d="M504 639L676 639C837 639 930 561 930 427C930 287 812 190 641 190C462 190 346 287 347 432L347 432L105 432C103 421 103 412 103 403C97 148 308 -24 630 -24C951 -24 1186 165 1186 424C1186 580 1096 692 941 730L942 735C1135 761 1274 910 1274 1092C1274 1311 1079 1467 805 1467C521 1467 313 1310 275 1066L515 1066C537 1179 645 1255 783 1255C927 1255 1023 1177 1023 1060C1023 928 904 842 724 842L545 842Z" />
<glyph glyph-name="four" unicode="&#x34;" horiz-adv-x="1293" d="M727 0L975 0L1033 269L1227 269L1272 487L1078 487L1282 1443L898 1443C564 1064 288 747 110 509L68 269L785 269ZM352 486C553 744 810 1038 991 1240L997 1240L833 481L351 481Z" />
<glyph glyph-name="five" unicode="&#x35;" horiz-adv-x="1248" d="M660 -24C986 -24 1220 205 1220 516C1220 776 1038 956 789 956C666 956 560 913 492 842L486 842L609 1226L1269 1226L1316 1443L445 1443L202 645L450 645C509 718 609 763 702 763C860 763 972 657 972 498C972 321 846 193 671 193C510 193 391 289 379 430L379 430L138 430C137 409 137 422 137 414C139 158 357 -24 660 -24Z" />
<glyph glyph-name="six" unicode="&#x36;" horiz-adv-x="1297" d="M1260 510C1265 766 1084 948 825 948C670 948 540 880 452 764L446 764C499 1056 662 1250 857 1250C990 1250 1084 1174 1105 1050L1358 1050C1346 1296 1147 1467 875 1467C472 1467 189 1079 179 597C165 120 442 -24 695 -24C1017 -24 1252 201 1260 510ZM743 749C899 749 1011 638 1005 482C1001 312 878 191 704 191C545 191 428 308 432 462C436 622 574 749 743 749Z" />
<glyph glyph-name="seven" unicode="&#x37;" horiz-adv-x="1125" d="M74 0L359 0L1237 1223L1283 1443L299 1443L254 1226L963 1226L963 1220Z" />
<glyph glyph-name="eight" unicode="&#x38;" horiz-adv-x="1302" d="M1229 415C1229 564 1138 685 988 735L989 741C1186 780 1319 926 1319 1105C1319 1313 1113 1466 833 1466C534 1466 306 1290 306 1060C306 939 379 836 500 787L499 782C264 743 100 574 100 369C100 138 325 -26 644 -26C981 -26 1229 161 1229 415ZM686 650C852 650 968 561 968 434C968 288 834 179 657 179C487 179 371 268 371 396C371 541 505 650 686 650ZM555 1036C555 1166 671 1266 821 1266C962 1266 1060 1187 1060 1075C1060 947 942 846 790 846C653 846 555 925 555 1036Z" />
<glyph glyph-name="nine" unicode="&#x39;" horiz-adv-x="1296" d="M757 692C602 692 493 800 497 955C501 1127 626 1250 795 1250C959 1250 1068 1130 1064 974C1060 814 926 692 757 692ZM243 935C238 682 427 494 683 494C835 494 961 556 1050 677L1056 677C1007 387 841 193 641 193C507 193 410 268 392 386L138 386C153 146 357 -24 631 -24C1031 -24 1305 367 1318 868C1329 1325 1046 1467 808 1467C486 1467 252 1246 243 935Z" />
<glyph glyph-name="colon" unicode="&#x3a;" horiz-adv-x="553" d="M235 -11C315 -11 379 54 379 136C379 217 315 282 235 282C155 282 91 217 91 136C91 54 155 -11 235 -11ZM390 713C470 713 533 779 533 860C533 942 470 1007 390 1007C309 1007 246 942 246 860C246 779 309 713 390 713Z" />
<glyph glyph-name="semicolon" unicode="&#x3b;" horiz-adv-x="553" d="M390 713C470 713 533 779 533 860C533 942 470 1007 390 1007C309 1007 246 942 246 860C246 779 309 713 390 713ZM163 -307L413 240L170 240L-29 -307Z" />
<glyph glyph-name="less" unicode="&#x3c;" horiz-adv-x="1294" d="M1091 237L502 570L505 583L1239 923L1294 1187L259 689L217 488L1040 -14Z" />
<glyph glyph-name="equal" unicode="&#x3d;" horiz-adv-x="1294" d="M1141 244L1187 466L166 466L120 244ZM1234 686L1280 908L258 908L212 686Z" />
<glyph glyph-name="greater" unicode="&#x3e;" horiz-adv-x="1294" d="M314 936L902 603L900 590L166 250L111 -15L1146 484L1188 685L365 1187Z" />
<glyph glyph-name="question" unicode="&#x3f;" horiz-adv-x="1028" d="M197 1066L434 1066C466 1178 556 1246 670 1246C800 1246 872 1172 872 1085C872 983 812 909 654 836C500 767 430 695 397 519L383 449L620 449L629 498C648 597 700 645 846 710C1021 788 1132 936 1132 1107C1132 1304 955 1456 684 1456C411 1456 235 1296 197 1066ZM428 -21C509 -21 573 43 573 124C573 204 509 267 428 267C347 267 283 204 283 124C283 43 347 -21 428 -21Z" />
<glyph glyph-name="at" unicode="&#x40;" horiz-adv-x="1812" d="M1052 1442C520 1442 132 1060 132 537C132 80 466 -239 944 -239C1008 -239 1081 -231 1134 -220L1166 -67C1137 -79 1051 -89 977 -89C571 -89 299 163 299 540C299 965 621 1292 1038 1292C1405 1292 1649 1083 1649 768C1649 524 1533 325 1388 325C1335 325 1304 356 1304 406C1304 417 1304 431 1308 448L1424 980L1235 980L1209 855L1192 856C1171 951 1071 1018 954 1018C726 1018 551 808 551 532C551 322 674 181 855 181C962 181 1052 230 1104 322L1122 323C1122 320 1121 316 1121 312C1129 227 1222 168 1346 168C1620 168 1815 422 1815 775C1815 1169 1502 1442 1052 1442ZM1148 652C1148 484 1044 349 915 349C817 349 754 424 754 543C754 713 853 843 983 843C1083 843 1148 768 1148 652Z" />
<glyph glyph-name="A" unicode="&#x41;" horiz-adv-x="1356" d="M867 1177L872 1177L947 573L537 573ZM1011 0L1266 0L1066 1443L773 1443L-49 0L228 0L432 369L966 369Z" />
<glyph glyph-name="B" unicode="&#x42;" horiz-adv-x="1328" d="M721 0C1044 0 1266 191 1266 459C1266 604 1169 721 1012 749L1013 755C1199 799 1335 943 1335 1129C1335 1315 1178 1443 929 1443L367 1443L60 0ZM583 1248L834 1248C990 1248 1073 1189 1073 1078C1073 941 945 844 756 844L497 844ZM360 205L456 651L743 651C914 651 1002 584 1002 458C1002 311 873 205 682 205Z" />
<glyph glyph-name="C" unicode="&#x43;" horiz-adv-x="1446" d="M1248 937L1503 937C1504 948 1504 959 1504 977C1491 1272 1258 1467 934 1467C477 1467 161 1103 161 596C161 218 398 -24 769 -24C1089 -24 1344 170 1413 466L1159 466C1099 303 956 204 780 204C561 204 426 358 426 609C426 975 627 1240 919 1240C1098 1240 1233 1134 1247 967C1247 951 1248 943 1248 937Z" />
<glyph glyph-name="D" unicode="&#x44;" horiz-adv-x="1438" d="M367 1443L62 0L672 0C1131 0 1444 357 1444 868C1444 1230 1213 1443 845 1443ZM583 1222L791 1222C1044 1222 1179 1084 1179 835C1179 470 955 222 643 222L368 222Z" />
<glyph glyph-name="E" unicode="&#x45;" horiz-adv-x="1158" d="M1041 223L367 223L455 627L1091 627L1135 837L498 837L582 1220L1255 1220L1302 1443L367 1443L60 0L995 0Z" />
<glyph glyph-name="F" unicode="&#x46;" horiz-adv-x="1111" d="M326 0L451 585L1049 585L1094 800L496 800L587 1220L1241 1220L1288 1443L367 1443L60 0Z" />
<glyph glyph-name="G" unicode="&#x47;" horiz-adv-x="1481" d="M1488 755L889 755L847 554L1193 554L1186 518C1145 328 988 200 788 200C552 200 424 365 424 611C424 919 580 1242 923 1242C1117 1242 1241 1129 1253 960L1506 960C1506 966 1507 974 1507 980C1501 1254 1275 1467 927 1467C423 1467 161 1032 161 601C161 230 393 -24 772 -24C1122 -24 1374 185 1448 557Z" />
<glyph glyph-name="H" unicode="&#x48;" horiz-adv-x="1479" d="M1280 0L1587 1443L1323 1443L1195 845L503 845L631 1443L367 1443L60 0L324 0L457 624L1150 624L1016 0Z" />
<glyph glyph-name="I" unicode="&#x49;" horiz-adv-x="520" d="M321 0L628 1443L367 1443L60 0Z" />
<glyph glyph-name="J" unicode="&#x4a;" horiz-adv-x="1100" d="M56 366C56 138 235 -24 492 -24C759 -24 929 128 986 399L1208 1443L947 1443L734 442C701 288 627 212 505 212C385 212 310 283 310 398L310 406L57 406C57 395 56 378 56 366Z" />
<glyph glyph-name="K" unicode="&#x4b;" horiz-adv-x="1322" d="M321 0L417 450L613 629L947 0L1238 0L822 786L1514 1443L1199 1443L491 781L486 781L628 1443L367 1443L60 0Z" />
<glyph glyph-name="L" unicode="&#x4c;" horiz-adv-x="1102" d="M1027 226L368 226L628 1443L367 1443L60 0L981 0Z" />
<glyph glyph-name="M" unicode="&#x4d;" horiz-adv-x="1752" d="M295 0L518 1048L525 1048L715 7L897 7L1534 1048L1542 1048L1317 0L1552 0L1859 1443L1538 1443L869 336L863 336L660 1443L367 1443L61 0Z" />
<glyph glyph-name="N" unicode="&#x4e;" horiz-adv-x="1458" d="M315 0L537 1040L543 1040L1031 0L1258 0L1565 1443L1311 1443L1088 403L1083 403L595 1443L367 1443L60 0Z" />
<glyph glyph-name="O" unicode="&#x4f;" horiz-adv-x="1540" d="M924 1241C1143 1241 1284 1081 1284 830C1284 483 1074 202 783 202C564 202 424 362 424 613C424 959 633 1241 924 1241ZM779 -24C1217 -24 1547 350 1547 843C1547 1212 1308 1467 927 1467C489 1467 161 1092 161 600C161 231 401 -24 779 -24Z" />
<glyph glyph-name="P" unicode="&#x50;" horiz-adv-x="1266" d="M367 1443L61 0L322 0L423 473L726 473C1083 473 1339 685 1339 1032C1339 1282 1152 1443 887 1443ZM583 1227L819 1227C978 1227 1075 1150 1075 1009C1075 809 936 687 719 687L467 687Z" />
<glyph glyph-name="Q" unicode="&#x51;" horiz-adv-x="1540" d="M1306 -149L1185 103C1409 258 1547 528 1547 843C1547 1212 1308 1467 927 1467C489 1467 161 1092 161 600C161 231 401 -24 779 -24C852 -24 922 -13 987 7L1064 -149ZM783 202C564 202 424 362 424 613C424 959 633 1241 924 1241C1143 1241 1284 1081 1284 830C1284 624 1204 441 1074 336L1009 455L779 455L895 216C857 207 821 202 783 202Z" />
<glyph glyph-name="R" unicode="&#x52;" horiz-adv-x="1309" d="M479 746L583 1229L870 1229C1010 1229 1095 1151 1095 1021C1095 860 966 746 776 746ZM367 1443L60 0L321 0L437 541L732 541L905 0L1175 0L987 571C1223 633 1360 828 1360 1045C1360 1280 1200 1443 918 1443Z" />
<glyph glyph-name="S" unicode="&#x53;" horiz-adv-x="1277" d="M88 424C95 143 338 -24 667 -24C1021 -24 1224 185 1224 439C1224 631 1106 746 860 821L744 857C588 905 522 963 522 1056C522 1158 616 1251 793 1251C968 1251 1076 1163 1082 1035L1328 1035C1327 1304 1109 1467 791 1467C479 1467 259 1291 259 1028C259 832 379 712 619 637L732 602C897 551 958 497 958 394C958 266 836 192 671 192C483 192 356 288 339 424Z" />
<glyph glyph-name="T" unicode="&#x54;" horiz-adv-x="1241" d="M682 0L942 1220L1385 1220L1431 1443L284 1443L238 1220L681 1220L421 0Z" />
<glyph glyph-name="U" unicode="&#x55;" horiz-adv-x="1453" d="M708 -24C1059 -24 1286 157 1351 462L1560 1443L1299 1443L1102 517C1060 322 921 209 736 209C543 209 438 306 433 462C432 496 436 535 445 575L628 1443L367 1443L183 566C174 523 169 479 170 438C171 175 364 -24 708 -24Z" />
<glyph glyph-name="V" unicode="&#x56;" horiz-adv-x="1342" d="M751 0L1558 1443L1267 1443L663 304L658 304L527 1443L258 1443L458 0Z" />
<glyph glyph-name="W" unicode="&#x57;" horiz-adv-x="1934" d="M1113 1033L1118 1033L1201 0L1448 0L2134 1443L1866 1443L1387 371L1381 371L1305 1443L1085 1443L566 370L560 370L529 1443L275 1443L355 0L603 0Z" />
<glyph glyph-name="X" unicode="&#x58;" horiz-adv-x="1359" d="M-34 0L276 0L719 525L727 525L961 0L1246 0L922 713L1561 1443L1247 1443L806 921L798 921L565 1443L281 1443L604 732Z" />
<glyph glyph-name="Y" unicode="&#x59;" horiz-adv-x="1312" d="M718 0L835 553L1528 1443L1240 1443L757 811L751 811L528 1443L258 1443L578 569L457 0Z" />
<glyph glyph-name="Z" unicode="&#x5a;" horiz-adv-x="1269" d="M20 0L1109 0L1155 223L398 223L399 228L1360 1267L1397 1443L348 1443L301 1220L1020 1220L1019 1215L57 176Z" />
<glyph glyph-name="bracketleft" unicode="&#x5b;" horiz-adv-x="708" d="M420 1443L46 -310L554 -310L594 -119L325 -119L619 1252L888 1252L928 1443Z" />
<glyph glyph-name="backslash" unicode="&#x5c;" horiz-adv-x="708" d="M321 -310L542 -310L489 1443L268 1443Z" />
<glyph glyph-name="bracketright" unicode="&#x5d;" horiz-adv-x="708" d="M390 -310L764 1443L255 1443L215 1252L485 1252L191 -118L-79 -118L-119 -310Z" />
<glyph glyph-name="asciicircum" unicode="&#x5e;" horiz-adv-x="958" d="M609 1222L625 1222L730 813L950 813L773 1429L539 1429L98 813L324 813Z" />
<glyph glyph-name="underscore" unicode="&#x5f;" horiz-adv-x="1024" d="M-158 -315L912 -315L956 -100L-113 -100Z" />
<glyph glyph-name="grave" unicode="&#x60;" horiz-adv-x="1079" d="M954 1231L803 1539L572 1539L759 1231Z" />
<glyph glyph-name="a" unicode="&#x61;" horiz-adv-x="1070" d="M473 173C370 173 299 226 299 308C299 398 380 455 515 460L763 472L740 371C714 255 602 173 473 173ZM383 -17C514 -17 625 40 691 128L695 128L668 0L904 0L1049 685C1054 708 1057 742 1057 773C1057 957 894 1084 650 1084C395 1084 214 947 179 745L417 745C437 830 511 885 631 885C748 885 815 831 815 745C815 731 815 718 811 701L797 637L508 625C227 613 58 488 58 275C58 105 202 -17 383 -17Z" />
<glyph glyph-name="b" unicode="&#x62;" horiz-adv-x="1198" d="M661 -17C979 -17 1183 291 1183 637C1183 915 1034 1080 801 1080C665 1080 539 1008 479 902L474 902L589 1443L346 1443L38 0L273 0L318 209L323 209C360 77 498 -17 661 -17ZM625 192C483 192 389 296 389 447C389 679 523 875 711 875C852 875 934 774 934 611C934 380 809 192 625 192Z" />
<glyph glyph-name="c" unicode="&#x63;" horiz-adv-x="1085" d="M666 1084C329 1084 103 815 103 440C103 167 268 -22 559 -22C806 -22 1004 143 1048 369L812 369C775 258 686 188 566 188C436 188 350 288 350 450C350 700 477 874 658 874C790 874 867 790 870 681L1106 681C1106 687 1106 687 1106 705C1106 908 944 1084 666 1084Z" />
<glyph glyph-name="d" unicode="&#x64;" horiz-adv-x="1206" d="M482 -17C622 -17 746 54 815 162L820 162L786 0L1028 0L1335 1443L1091 1443L965 861L959 861C925 987 796 1080 632 1080C331 1080 101 798 101 421C101 154 248 -17 482 -17ZM572 188C434 188 350 289 350 450C350 693 487 871 664 871C805 871 896 766 896 616C896 375 755 188 572 188Z" />
<glyph glyph-name="e" unicode="&#x65;" horiz-adv-x="1117" d="M365 640C402 782 504 889 647 889C797 889 865 785 865 670C865 660 865 648 864 640ZM562 -22C807 -22 998 128 1053 334L820 334C781 238 693 175 569 175C427 175 337 279 337 440C337 451 337 463 338 474L1088 474C1097 523 1100 583 1100 632C1100 909 925 1084 654 1084C329 1084 104 807 104 452C104 169 268 -22 562 -22Z" />
<glyph glyph-name="f" unicode="&#x66;" horiz-adv-x="683" d="M107 0L353 0L534 861L762 861L803 1056L571 1056L589 1145C607 1235 661 1278 761 1278C798 1278 838 1274 858 1268L895 1448C853 1457 800 1465 737 1465C511 1465 389 1375 349 1169L327 1056L158 1056L118 861L289 861Z" />
<glyph glyph-name="g" unicode="&#x67;" horiz-adv-x="1194" d="M479 -401C763 -401 968 -256 1027 21L1247 1062L1007 1062L964 854L955 854C918 985 793 1080 631 1080C305 1080 102 769 102 436C102 177 255 9 485 9C620 9 745 76 809 179L818 179L783 27C744 -134 645 -215 486 -215C360 -215 274 -160 261 -75L17 -75C17 -271 206 -401 479 -401ZM573 200C429 200 349 303 349 455C349 688 476 871 663 871C795 871 894 767 894 616C894 392 767 200 573 200Z" />
<glyph glyph-name="h" unicode="&#x68;" horiz-adv-x="1171" d="M38 0L283 0L417 632C448 776 559 876 699 876C823 876 900 802 900 695C900 668 896 639 889 605L758 0L1002 0L1142 646C1151 691 1156 734 1156 772C1156 943 1025 1082 822 1082C663 1082 544 1003 479 899L473 899L590 1443L345 1443Z" />
<glyph glyph-name="i" unicode="&#x69;" horiz-adv-x="462" d="M38 0L285 0L510 1062L264 1062ZM445 1199C523 1199 584 1260 584 1337C584 1414 523 1475 445 1475C368 1475 307 1414 307 1337C307 1260 368 1199 445 1199Z" />
<glyph glyph-name="j" unicode="&#x6a;" horiz-adv-x="462" d="M451 1199C528 1199 589 1260 589 1337C589 1414 528 1475 451 1475C373 1475 312 1414 312 1337C312 1260 373 1199 451 1199ZM510 1062L265 1062L28 -44C8 -137 -34 -175 -120 -175C-142 -175 -158 -173 -177 -170L-220 -366C-188 -371 -139 -374 -111 -374C93 -373 225 -273 268 -73Z" />
<glyph glyph-name="k" unicode="&#x6b;" horiz-adv-x="1051" d="M284 0L363 367L492 474L729 0L998 0L689 613L1199 1062L903 1062L425 641L419 641L591 1443L346 1443L38 0Z" />
<glyph glyph-name="l" unicode="&#x6c;" horiz-adv-x="473" d="M44 0L290 0L597 1443L351 1443Z" />
<glyph glyph-name="m" unicode="&#x6d;" horiz-adv-x="1717" d="M33 0L278 0L417 655C444 787 547 876 655 876C757 876 816 806 816 716C816 689 812 661 805 628L672 0L911 0L1050 654C1079 793 1181 876 1288 876C1390 876 1449 806 1449 716C1449 689 1446 661 1439 628L1306 0L1551 0L1691 667C1701 711 1705 753 1705 791C1705 962 1579 1084 1407 1084C1242 1084 1124 997 1054 894L1050 894C1022 998 920 1084 775 1084C640 1084 519 1001 463 893L457 893L493 1062L258 1062Z" />
<glyph glyph-name="n" unicode="&#x6e;" horiz-adv-x="1155" d="M33 0L278 0L412 632C444 781 554 876 687 876C805 876 884 807 884 699C884 674 881 642 873 605L745 0L989 0L1126 646C1135 692 1140 738 1140 776C1140 957 1000 1084 809 1084C660 1084 536 1014 464 899L459 899L493 1062L258 1062Z" />
<glyph glyph-name="o" unicode="&#x6f;" horiz-adv-x="1161" d="M576 184C439 184 351 292 351 457C351 697 485 878 670 878C807 878 895 770 895 605C895 367 760 184 576 184ZM677 1084C347 1084 103 811 103 451C103 167 288 -22 570 -22C900 -22 1144 251 1144 612C1144 896 959 1084 677 1084Z" />
<glyph glyph-name="p" unicode="&#x70;" horiz-adv-x="1193" d="M617 192C477 192 386 296 386 447C386 674 516 875 710 875C848 875 931 775 931 610C931 370 795 192 617 192ZM201 -350L319 204L325 204C366 72 491 -17 651 -17C952 -17 1178 262 1178 641C1178 909 1034 1080 800 1080C664 1080 538 1010 467 899L463 899L498 1062L258 1062L-41 -350Z" />
<glyph glyph-name="q" unicode="&#x71;" horiz-adv-x="1198" d="M572 188C432 188 351 289 351 450C351 690 486 871 665 871C806 871 896 766 896 616C896 375 755 188 572 188ZM951 -350L1251 1062L1013 1062L971 861L965 861C926 987 796 1080 633 1080C331 1080 102 794 102 421C102 151 248 -17 482 -17C621 -17 745 55 817 167L821 167L708 -350Z" />
<glyph glyph-name="r" unicode="&#x72;" horiz-adv-x="760" d="M33 0L278 0L403 589C441 763 532 853 694 853C748 853 803 840 835 825L884 1053C854 1067 809 1078 754 1078C627 1078 530 1014 470 917L465 917L495 1062L259 1062Z" />
<glyph glyph-name="s" unicode="&#x73;" horiz-adv-x="1014" d="M177 752C177 606 261 515 456 452L549 422C671 384 704 357 704 300C704 222 626 163 516 163C385 163 303 229 291 323L53 323C60 121 237 -22 507 -22C766 -22 948 120 948 323C948 464 870 546 676 609L575 641C453 680 413 712 413 775C413 848 484 900 598 900C707 900 787 836 794 747L1020 747C1016 945 846 1083 601 1083C347 1083 177 948 177 752Z" />
<glyph glyph-name="t" unicode="&#x74;" horiz-adv-x="698" d="M461 -11C505 -11 551 -6 584 1L625 190C605 187 587 185 553 185C468 185 420 214 420 286C420 307 423 334 430 362L536 856L756 856L797 1051L576 1051L631 1311L386 1311L332 1051L174 1051L133 856L291 856L174 315C167 277 164 242 164 214C164 64 284 -11 461 -11Z" />
<glyph glyph-name="u" unicode="&#x75;" horiz-adv-x="1155" d="M1208 1062L963 1062L830 436C798 290 691 191 548 191C423 191 360 249 360 367C360 390 364 433 371 465L498 1062L252 1062L119 426C110 383 104 324 104 281C104 107 229 -22 432 -22C590 -22 721 62 776 158L782 158L747 0L983 0Z" />
<glyph glyph-name="v" unicode="&#x76;" horiz-adv-x="1040" d="M169 1063L314 0L590 0L1183 1063L918 1063L501 247L495 247L413 1063Z" />
<glyph glyph-name="w" unicode="&#x77;" horiz-adv-x="1550" d="M1684 1062L1436 1062L1084 255L1079 255L1045 1062L804 1062L435 255L430 255L412 1062L178 1062L240 0L506 0L869 775L874 775L917 0L1178 0Z" />
<glyph glyph-name="x" unicode="&#x78;" horiz-adv-x="1043" d="M534 367L684 0L943 0L714 521L1169 1062L891 1062L601 696L596 696L446 1062L186 1062L416 541L-39 0L238 0L528 367Z" />
<glyph glyph-name="y" unicode="&#x79;" horiz-adv-x="1049" d="M93 -388C298 -388 435 -311 567 -68L1191 1062L926 1062L505 228L500 228L415 1062L169 1062L320 11C320 9 297 -39 297 -41C252 -150 183 -186 101 -186C73 -186 18 -182 3 -176L-35 -377C-19 -382 61 -388 93 -388Z" />
<glyph glyph-name="z" unicode="&#x7a;" horiz-adv-x="1015" d="M7 0L870 0L912 200L373 200L374 205L1052 894L1088 1062L239 1062L197 862L737 862L736 857L39 154Z" />
<glyph glyph-name="braceleft" unicode="&#x7b;" horiz-adv-x="708" d="M213 235L175 63C168 28 162 -10 162 -47C162 -226 297 -310 476 -310L555 -310L594 -123L550 -123C443 -123 407 -75 407 3C407 30 412 60 418 92L461 289C467 320 472 349 472 375C472 469 422 533 277 557L281 574C440 589 539 658 572 812L621 1040C655 1193 713 1252 845 1252L888 1252L928 1443L848 1443C593 1443 451 1350 396 1092L353 898C319 740 247 689 94 689L43 443C169 443 224 412 224 322C224 297 220 268 213 235Z" />
<glyph glyph-name="bar" unicode="&#x7c;" horiz-adv-x="708" d="M331 -310L705 1443L478 1443L105 -310Z" />
<glyph glyph-name="braceright" unicode="&#x7d;" horiz-adv-x="708" d="M597 898L635 1070C642 1105 648 1142 648 1180C648 1359 513 1443 334 1443L255 1443L216 1256L260 1256C367 1256 403 1208 403 1129C403 1103 398 1072 392 1041L349 843C343 813 338 784 338 758C338 664 388 600 533 576L529 559C370 544 271 474 238 321L189 93C155 -61 97 -119 -35 -119L-78 -119L-118 -310L-38 -310C217 -310 359 -217 414 41L457 234C491 393 563 444 716 444L767 690C641 690 586 721 586 811C586 836 590 865 597 898Z" />
<glyph glyph-name="asciitilde" unicode="&#x7e;" horiz-adv-x="1295" d="M903 433C1074 433 1204 565 1239 818L1031 818C1010 708 964 655 897 655C784 655 734 867 529 867C362 867 226 736 191 483L399 483C420 593 464 644 532 644C648 644 697 433 903 433Z" />
<glyph glyph-name="nonbreakingspace" unicode="&#xa0;" horiz-adv-x="467" d="" />
<glyph glyph-name="exclamdown" unicode="&#xa1;" horiz-adv-x="615" d="M300 -340L482 626L258 626L30 -340ZM447 1124C366 1124 302 1060 302 979C302 899 366 836 447 836C528 836 592 899 592 979C592 1060 528 1124 447 1124Z" />
<glyph glyph-name="cent" unicode="&#xa2;" horiz-adv-x="1294" d="M1191 518L948 518C912 414 824 356 706 356C572 356 475 454 475 633C475 884 611 1079 802 1079C921 1079 1013 1010 1021 904L1260 904C1260 919 1259 935 1257 949C1240 1089 1137 1213 978 1265L1017 1447L800 1447L767 1286C446 1258 224 978 224 611C224 389 342 227 529 170L486 -33L703 -33L741 148C984 167 1153 319 1191 518Z" />
<glyph glyph-name="sterling" unicode="&#xa3;" horiz-adv-x="1294" d="M1189 223L510 223L510 227C621 287 705 415 711 602C711 611 711 624 709 643L1063 643L1102 831L700 831C694 896 691 946 691 987C691 1163 832 1252 1023 1252C1160 1252 1285 1217 1341 1187L1385 1400C1316 1433 1169 1473 1003 1473C659 1473 434 1307 434 992C434 950 437 904 443 831L189 831L150 643L458 643C460 619 461 601 461 588C455 395 282 239 86 222L41 4L1143 4Z" />
<glyph glyph-name="currency" unicode="&#xa4;" horiz-adv-x="1294" d="M472 651C472 784 583 895 718 895C852 895 963 784 963 651C963 518 852 407 718 407C583 407 472 518 472 651ZM1322 1028L1206 1178L981 992C908 1050 817 1084 718 1084C657 1084 599 1071 547 1048L441 1182L270 1039L374 908C321 836 289 747 289 651C289 582 305 516 334 458L112 274L228 123L454 310C527 253 619 218 718 218C779 218 836 231 888 254L993 121L1164 264L1062 394C1115 466 1146 555 1146 651C1146 720 1130 786 1101 844Z" />
<glyph glyph-name="yen" unicode="&#xa5;" horiz-adv-x="1294" d="M1028 229L1061 386L790 386L821 531L1092 531L1125 688L931 688L1520 1443L1234 1443L752 813L745 813L519 1443L250 1443L528 688L321 688L288 531L562 531L531 386L257 386L224 229L498 229L449 0L710 0L758 229Z" />
<glyph glyph-name="brokenbar" unicode="&#xa6;" horiz-adv-x="708" d="M561 770L705 1443L478 1443L334 770ZM332 -310L475 364L248 364L106 -310Z" />
<glyph glyph-name="section" unicode="&#xa7;" horiz-adv-x="982" d="M473 440C390 475 349 524 349 581C349 668 432 737 539 752L636 708C720 674 749 622 749 567C749 484 679 417 574 394ZM425 -277C675 -277 857 -136 857 62C857 164 821 229 716 299L716 309C859 344 978 454 978 611C978 747 895 832 737 901L594 966C512 1000 473 1040 473 1097C473 1176 548 1233 653 1233C755 1233 830 1179 842 1096L1063 1096C1044 1292 889 1421 655 1421C417 1421 242 1287 242 1087C242 983 282 918 388 850L388 840C245 806 121 705 121 546C121 410 207 315 354 252L513 182C597 149 624 107 624 52C624 -30 544 -90 429 -90C322 -90 246 -29 230 53L5 53C13 -145 194 -277 425 -277Z" />
<glyph glyph-name="dieresis" unicode="&#xa8;" horiz-adv-x="1079" d="M566 1229C635 1229 689 1283 689 1350C689 1417 635 1471 566 1471C498 1471 444 1417 444 1350C444 1283 498 1229 566 1229ZM953 1229C1021 1229 1075 1283 1075 1350C1075 1417 1021 1471 953 1471C885 1471 831 1417 831 1350C831 1283 885 1229 953 1229Z" />
<glyph glyph-name="copyright" unicode="&#xa9;" horiz-adv-x="1663" d="M888 -146C1339 -146 1689 212 1689 674C1689 1118 1367 1432 908 1432C458 1432 107 1073 107 611C107 168 430 -146 888 -146ZM888 7C518 7 263 255 263 611C263 986 545 1279 908 1279C1280 1279 1533 1032 1533 674C1533 299 1251 7 888 7ZM1268 770C1267 936 1136 1053 947 1053C708 1053 534 854 534 583C534 382 672 242 872 242C1048 242 1177 337 1215 495L1044 495C1014 423 960 388 881 388C773 388 704 466 704 590C704 771 805 908 939 908C1029 908 1097 852 1101 770Z" />
<glyph glyph-name="ordfeminine" unicode="&#xaa;" horiz-adv-x="788" d="M511 1025L670 1025L657 968C641 895 576 845 496 845C439 845 374 870 374 930C374 983 420 1025 511 1025ZM181 904C181 767 302 705 413 705C498 705 575 742 621 804L628 803L609 710L796 710L894 1176C898 1195 900 1213 900 1230C900 1365 777 1457 592 1457C431 1457 312 1377 277 1236L459 1236C478 1280 526 1307 584 1307C659 1307 708 1272 708 1216C708 1209 706 1200 704 1187C703 1183 695 1147 694 1142L484 1142C281 1142 181 1042 181 904Z" />
<glyph glyph-name="guillemotleft" unicode="&#xab;" horiz-adv-x="1341" d="M677 149L415 551L415 561L841 982L582 982L175 576L173 560L440 149ZM1153 151L894 538L894 548L1334 982L1075 982L655 563L652 547L916 151Z" />
<glyph glyph-name="logicalnot" unicode="&#xac;" horiz-adv-x="1294" d="M1228 692L219 692L174 474L968 474L885 84L1101 84Z" />
<glyph glyph-name="registered" unicode="&#xae;" horiz-adv-x="1184" d="M623 844L657 1005L729 1005L798 844L932 844L850 1017C925 1033 981 1096 981 1171C981 1244 919 1304 835 1304L608 1304L510 844ZM701 1211L798 1211C837 1211 859 1192 859 1161C859 1120 824 1090 773 1090L675 1090ZM749 573C1029 573 1248 789 1248 1067C1248 1345 1029 1560 749 1560C469 1560 251 1345 251 1067C251 789 470 573 749 573ZM749 693C540 693 379 855 379 1067C379 1278 540 1440 749 1440C959 1440 1120 1278 1120 1067C1120 855 959 693 749 693Z" />
<glyph glyph-name="macron" unicode="&#xaf;" horiz-adv-x="1079" d="M1089 1418L474 1418L445 1280L1060 1280Z" />
<glyph glyph-name="degree" unicode="&#xb0;" horiz-adv-x="751" d="M550 841C722 841 857 976 857 1149C857 1322 722 1457 550 1457C378 1457 245 1322 245 1149C245 976 378 841 550 841ZM551 1000C471 1000 402 1068 402 1149C402 1232 471 1299 551 1299C634 1299 700 1232 700 1149C700 1068 634 1000 551 1000Z" />
<glyph glyph-name="plusminus" unicode="&#xb1;" horiz-adv-x="1294" d="M1078 86L1118 283L154 283L114 86ZM824 654L1199 654L1239 846L864 846L920 1101L705 1101L649 846L274 846L234 654L609 654L554 399L769 399Z" />
<glyph glyph-name="two.sups" unicode="&#xb2;" horiz-adv-x="647" d="M631 1339C810 1467 863 1526 863 1620C863 1737 754 1821 603 1821C439 1821 311 1718 303 1578C307 1578 486 1578 489 1578L490 1582C499 1631 537 1664 584 1664C629 1664 661 1638 661 1600C661 1557 630 1526 492 1424L252 1250L221 1104L767 1104L799 1262L529 1262Z" />
<glyph glyph-name="three.sups" unicode="&#xb3;" horiz-adv-x="673" d="M469 1392L551 1392C600 1392 634 1365 634 1327C634 1281 595 1249 538 1249C480 1249 440 1283 444 1330L444 1330L254 1330C252 1319 251 1312 251 1301C251 1169 363 1084 538 1084C710 1084 831 1175 831 1303C831 1377 785 1435 713 1452L714 1456C806 1469 877 1539 877 1627C877 1741 769 1821 615 1821C462 1821 349 1740 322 1607L508 1607C518 1643 556 1667 599 1667C649 1667 684 1642 684 1603C684 1557 646 1529 582 1529L498 1529Z" />
<glyph glyph-name="acute" unicode="&#xb4;" horiz-adv-x="1079" d="M709 1231L1027 1539L783 1539L500 1231Z" />
<glyph glyph-name="mugreek" unicode="&#xb5;" horiz-adv-x="1225" d="M-39 -350L204 -350L298 88L304 88C334 24 407 -13 485 -13C616 -13 747 65 807 188L811 188C811 188 813 187 813 186C811 59 880 -5 1029 -5C1078 -5 1115 1 1145 10L1185 197C1170 194 1150 191 1133 191C1072 191 1045 210 1045 258C1045 275 1047 290 1052 312L1211 1062L966 1062L841 471C807 313 686 199 552 199C432 199 370 262 370 382C370 417 377 455 386 496L506 1062L261 1062Z" />
<glyph glyph-name="paragraph" unicode="&#xb6;" horiz-adv-x="1379" d="M734 -245L1092 1443L835 1443C481 1436 242 1218 242 906C242 682 404 517 650 502L490 -245ZM894 -245L1138 -245L1497 1443L1253 1443Z" />
<glyph glyph-name="periodcentered" unicode="&#xb7;" horiz-adv-x="553" d="M319 384C399 384 463 449 463 531C463 613 399 678 319 678C239 678 175 613 175 531C175 449 239 384 319 384Z" />
<glyph glyph-name="cedilla" unicode="&#xb8;" horiz-adv-x="1086" d="M274 -224L333 -224C433 -224 474 -241 474 -280C474 -319 431 -341 353 -341C307 -341 261 -334 223 -321L196 -451C234 -465 301 -475 361 -475C522 -475 633 -389 633 -264C633 -173 570 -120 460 -118L534 0L535 11L384 11L295 -133Z" />
<glyph glyph-name="one.sups" unicode="&#xb9;" horiz-adv-x="526" d="M379 1104L585 1104L734 1801L526 1801L327 1685L289 1505L484 1617L488 1617Z" />
<glyph glyph-name="ordmasculine" unicode="&#xba;" horiz-adv-x="817" d="M534 695C766 695 936 881 936 1136C936 1334 807 1458 602 1458C371 1458 199 1269 199 1014C199 818 330 695 534 695ZM740 1139C740 978 651 851 538 851C451 851 396 912 396 1013C396 1174 485 1302 597 1302C685 1302 740 1241 740 1139Z" />
<glyph glyph-name="guillemotright" unicode="&#xbb;" horiz-adv-x="1341" d="M765 982L1027 580L1027 570L600 149L860 149L1266 555L1269 571L1002 982ZM289 980L548 593L547 583L108 149L367 149L787 568L790 584L526 980Z" />
<glyph glyph-name="onequarter" unicode="&#xbc;" horiz-adv-x="1560" d="M303 746L509 746L658 1443L450 1443L251 1327L213 1147L408 1259L412 1259ZM266 0L923 698L1625 1443L1398 1443L758 765L37 0ZM1175 0L1370 0L1392 101L1474 101L1508 262L1425 262L1518 697L1223 697C1071 521 975 407 887 284L851 101L1197 101ZM1059 258C1123 348 1219 468 1295 553L1299 553L1235 253L1058 253Z" />
<glyph glyph-name="onehalf" unicode="&#xbd;" horiz-adv-x="1589" d="M412 1259L303 746L509 746L658 1443L450 1443L251 1327L213 1147L408 1259ZM1398 1443L758 765L37 0L266 0L923 698L1625 1443ZM1197 478C1206 527 1244 560 1291 560C1336 560 1368 534 1368 496C1368 453 1337 422 1199 320L959 146L928 0L1474 0L1506 158L1236 158L1338 235C1517 363 1570 422 1570 516C1570 633 1461 717 1310 717C1146 717 1018 614 1010 474C1014 474 1193 474 1196 474Z" />
<glyph glyph-name="threequarters" unicode="&#xbe;" horiz-adv-x="1668" d="M393 1034L475 1034C524 1034 558 1007 558 969C558 923 519 891 462 891C404 891 364 925 368 972L368 972L178 972C176 961 175 954 175 943C175 811 287 726 462 726C634 726 755 817 755 945C755 1019 709 1077 637 1094L638 1098C730 1111 801 1181 801 1269C801 1383 693 1463 539 1463C386 1463 273 1382 246 1249L432 1249C442 1285 480 1309 523 1309C573 1309 608 1284 608 1245C608 1199 570 1171 506 1171L422 1171ZM374 0L1031 698L1733 1443L1506 1443L866 765L145 0ZM1282 0L1477 0L1499 101L1581 101L1615 262L1532 262L1625 697L1330 697C1178 521 1082 407 994 284L958 101L1304 101ZM1166 258C1230 348 1326 468 1402 553L1406 553L1342 253L1165 253Z" />
<glyph glyph-name="questiondown" unicode="&#xbf;" horiz-adv-x="1028" d="M926 37L689 37C658 -75 568 -143 453 -143C323 -143 251 -69 251 18C251 120 312 195 469 267C624 336 694 409 727 584L741 654L504 654L494 605C475 506 424 458 277 393C102 315 -9 167 -9 -4C-9 -201 169 -353 440 -353C713 -353 889 -193 926 37ZM695 1124C615 1124 550 1060 550 979C550 899 615 836 695 836C776 836 841 899 841 979C841 1060 776 1124 695 1124Z" />
<glyph glyph-name="Agrave" unicode="&#xc0;" horiz-adv-x="1356" d="M867 1177L872 1177L947 573L537 573ZM1011 0L1266 0L1066 1443L773 1443L-49 0L228 0L432 369L966 369ZM837 1558L1026 1558L865 1858L636 1858Z" />
<glyph glyph-name="Aacute" unicode="&#xc1;" horiz-adv-x="1356" d="M867 1177L872 1177L947 573L537 573ZM1011 0L1266 0L1066 1443L773 1443L-49 0L228 0L432 369L966 369ZM1049 1558L1377 1858L1123 1858L836 1558Z" />
<glyph glyph-name="Acircumflex" unicode="&#xc2;" horiz-adv-x="1356" d="M867 1177L872 1177L947 573L537 573ZM1011 0L1266 0L1066 1443L773 1443L-49 0L228 0L432 369L966 369ZM1093 1863L902 1863L562 1552L771 1552L977 1744L984 1744L1108 1552L1301 1552Z" />
<glyph glyph-name="Atilde" unicode="&#xc3;" horiz-adv-x="1356" d="M867 1177L872 1177L947 573L537 573ZM1011 0L1266 0L1066 1443L773 1443L-49 0L228 0L432 369L966 369ZM1095 1546C1213 1546 1311 1652 1345 1816L1199 1816C1180 1730 1143 1686 1101 1686C1025 1686 999 1827 856 1827C734 1827 636 1725 605 1559L750 1559C767 1641 806 1686 850 1686C929 1686 958 1546 1095 1546Z" />
<glyph glyph-name="Adieresis" unicode="&#xc4;" horiz-adv-x="1356" d="M867 1177L872 1177L947 573L537 573ZM1011 0L1266 0L1066 1443L773 1443L-49 0L228 0L432 369L966 369ZM778 1597C847 1597 901 1651 901 1718C901 1785 847 1839 778 1839C710 1839 656 1785 656 1718C656 1651 710 1597 778 1597ZM1165 1597C1233 1597 1287 1651 1287 1718C1287 1785 1233 1839 1165 1839C1097 1839 1043 1785 1043 1718C1043 1651 1097 1597 1165 1597Z" />
<glyph glyph-name="Aring" unicode="&#xc5;" horiz-adv-x="1356" d="M867 1177L872 1177L947 573L537 573ZM1011 0L1266 0L1066 1443L773 1443L-49 0L228 0L432 369L966 369ZM984 1562C1103 1562 1195 1652 1195 1774C1196 1894 1103 1975 990 1975C873 1975 779 1885 779 1763C779 1643 873 1562 984 1562ZM984 1671C931 1671 890 1709 890 1765C890 1826 933 1867 990 1867C1044 1867 1084 1828 1085 1772C1085 1711 1043 1671 984 1671Z" />
<glyph glyph-name="AE" unicode="&#xc6;" horiz-adv-x="1938" d="M1139 1235L1003 603L598 603L1004 1235ZM875 0L1770 0L1816 223L1166 223L1253 620L1866 620L1910 831L1296 831L1380 1220L2031 1220L2077 1443L873 1443L-50 0L218 0L476 398L961 398Z" />
<glyph glyph-name="Ccedilla" unicode="&#xc7;" horiz-adv-x="1446" d="M1503 937C1504 948 1504 959 1504 977C1491 1272 1258 1467 934 1467C477 1467 161 1103 161 596C161 254 355 23 666 -17L595 -133L574 -224L633 -224C733 -224 774 -241 774 -280C774 -319 731 -341 653 -341C607 -341 561 -334 523 -321L496 -451C534 -465 601 -475 661 -475C822 -475 933 -389 933 -264C933 -173 870 -120 760 -118L820 -22C1116 -3 1348 186 1413 466L1159 466C1099 303 956 204 780 204C561 204 426 358 426 609C426 975 627 1240 919 1240C1098 1240 1233 1134 1247 967C1247 951 1248 943 1248 937Z" />
<glyph glyph-name="Egrave" unicode="&#xc8;" horiz-adv-x="1158" d="M1041 223L367 223L455 627L1091 627L1135 837L498 837L582 1220L1255 1220L1302 1443L367 1443L60 0L995 0ZM747 1558L936 1558L775 1858L546 1858Z" />
<glyph glyph-name="Eacute" unicode="&#xc9;" horiz-adv-x="1158" d="M1041 223L367 223L455 627L1091 627L1135 837L498 837L582 1220L1255 1220L1302 1443L367 1443L60 0L995 0ZM959 1558L1287 1858L1033 1858L746 1558Z" />
<glyph glyph-name="Ecircumflex" unicode="&#xca;" horiz-adv-x="1158" d="M1041 223L367 223L455 627L1091 627L1135 837L498 837L582 1220L1255 1220L1302 1443L367 1443L60 0L995 0ZM1003 1863L812 1863L472 1552L681 1552L887 1744L894 1744L1018 1552L1211 1552Z" />
<glyph glyph-name="Edieresis" unicode="&#xcb;" horiz-adv-x="1158" d="M1041 223L367 223L455 627L1091 627L1135 837L498 837L582 1220L1255 1220L1302 1443L367 1443L60 0L995 0ZM688 1597C757 1597 811 1651 811 1718C811 1785 757 1839 688 1839C620 1839 566 1785 566 1718C566 1651 620 1597 688 1597ZM1075 1597C1143 1597 1197 1651 1197 1718C1197 1785 1143 1839 1075 1839C1007 1839 953 1785 953 1718C953 1651 1007 1597 1075 1597Z" />
<glyph glyph-name="Igrave" unicode="&#xcc;" horiz-adv-x="520" d="M321 0L628 1443L367 1443L60 0ZM419 1558L608 1558L447 1858L218 1858Z" />
<glyph glyph-name="Iacute" unicode="&#xcd;" horiz-adv-x="520" d="M321 0L628 1443L367 1443L60 0ZM631 1558L959 1858L705 1858L418 1558Z" />
<glyph glyph-name="Icircumflex" unicode="&#xce;" horiz-adv-x="520" d="M321 0L628 1443L367 1443L60 0ZM675 1863L484 1863L144 1552L353 1552L559 1744L566 1744L690 1552L883 1552Z" />
<glyph glyph-name="Idieresis" unicode="&#xcf;" horiz-adv-x="520" d="M321 0L628 1443L367 1443L60 0ZM360 1597C429 1597 483 1651 483 1718C483 1785 429 1839 360 1839C292 1839 238 1785 238 1718C238 1651 292 1597 360 1597ZM747 1597C815 1597 869 1651 869 1718C869 1785 815 1839 747 1839C679 1839 625 1785 625 1718C625 1651 679 1597 747 1597Z" />
<glyph glyph-name="Eth" unicode="&#xd0;" horiz-adv-x="1438" d="M368 222L454 621L737 621L783 844L502 844L583 1222L791 1222C1044 1222 1179 1084 1179 835C1179 470 955 222 643 222ZM367 1443L240 844L110 844L63 621L193 621L62 0L672 0C1131 0 1444 357 1444 868C1444 1230 1213 1443 845 1443Z" />
<glyph glyph-name="Ntilde" unicode="&#xd1;" horiz-adv-x="1458" d="M315 0L537 1040L543 1040L1031 0L1258 0L1565 1443L1311 1443L1088 403L1083 403L595 1443L367 1443L60 0ZM1138 1546C1256 1546 1354 1652 1388 1816L1242 1816C1223 1730 1186 1686 1144 1686C1068 1686 1042 1827 899 1827C777 1827 679 1725 648 1559L793 1559C810 1641 849 1686 893 1686C972 1686 1001 1546 1138 1546Z" />
<glyph glyph-name="Ograve" unicode="&#xd2;" horiz-adv-x="1540" d="M924 1241C1143 1241 1284 1081 1284 830C1284 483 1074 202 783 202C564 202 424 362 424 613C424 959 633 1241 924 1241ZM779 -24C1217 -24 1547 350 1547 843C1547 1212 1308 1467 927 1467C489 1467 161 1092 161 600C161 231 401 -24 779 -24ZM865 1558L1054 1558L893 1858L664 1858Z" />
<glyph glyph-name="Oacute" unicode="&#xd3;" horiz-adv-x="1540" d="M924 1241C1143 1241 1284 1081 1284 830C1284 483 1074 202 783 202C564 202 424 362 424 613C424 959 633 1241 924 1241ZM779 -24C1217 -24 1547 350 1547 843C1547 1212 1308 1467 927 1467C489 1467 161 1092 161 600C161 231 401 -24 779 -24ZM1077 1558L1405 1858L1151 1858L864 1558Z" />
<glyph glyph-name="Ocircumflex" unicode="&#xd4;" horiz-adv-x="1540" d="M924 1241C1143 1241 1284 1081 1284 830C1284 483 1074 202 783 202C564 202 424 362 424 613C424 959 633 1241 924 1241ZM779 -24C1217 -24 1547 350 1547 843C1547 1212 1308 1467 927 1467C489 1467 161 1092 161 600C161 231 401 -24 779 -24ZM1121 1863L930 1863L590 1552L799 1552L1005 1744L1012 1744L1136 1552L1329 1552Z" />
<glyph glyph-name="Otilde" unicode="&#xd5;" horiz-adv-x="1540" d="M924 1241C1143 1241 1284 1081 1284 830C1284 483 1074 202 783 202C564 202 424 362 424 613C424 959 633 1241 924 1241ZM779 -24C1217 -24 1547 350 1547 843C1547 1212 1308 1467 927 1467C489 1467 161 1092 161 600C161 231 401 -24 779 -24ZM1123 1546C1241 1546 1339 1652 1373 1816L1227 1816C1208 1730 1171 1686 1129 1686C1053 1686 1027 1827 884 1827C762 1827 664 1725 633 1559L778 1559C795 1641 834 1686 878 1686C957 1686 986 1546 1123 1546Z" />
<glyph glyph-name="Odieresis" unicode="&#xd6;" horiz-adv-x="1540" d="M924 1241C1143 1241 1284 1081 1284 830C1284 483 1074 202 783 202C564 202 424 362 424 613C424 959 633 1241 924 1241ZM779 -24C1217 -24 1547 350 1547 843C1547 1212 1308 1467 927 1467C489 1467 161 1092 161 600C161 231 401 -24 779 -24ZM806 1597C875 1597 929 1651 929 1718C929 1785 875 1839 806 1839C738 1839 684 1785 684 1718C684 1651 738 1597 806 1597ZM1193 1597C1261 1597 1315 1651 1315 1718C1315 1785 1261 1839 1193 1839C1125 1839 1071 1785 1071 1718C1071 1651 1125 1597 1193 1597Z" />
<glyph glyph-name="multiply" unicode="&#xd7;" horiz-adv-x="1294" d="M903 129L1079 263L849 572L1207 856L1084 1025L726 741L497 1042L322 908L553 601L196 317L318 148L675 432Z" />
<glyph glyph-name="Oslash" unicode="&#xd8;" horiz-adv-x="1540" d="M1257 1004C1275 953 1284 894 1284 830C1284 483 1074 202 783 202C686 202 604 234 543 290ZM451 439C433 490 424 549 424 613C424 959 633 1241 924 1241C1021 1241 1103 1209 1164 1152ZM1609 1356L1490 1478L1341 1329C1237 1417 1096 1467 927 1467C489 1467 161 1092 161 600C161 463 194 342 255 243L99 87L218 -35L367 114C471 26 612 -24 779 -24C1217 -24 1547 350 1547 843C1547 980 1514 1102 1453 1200Z" />
<glyph glyph-name="Ugrave" unicode="&#xd9;" horiz-adv-x="1453" d="M708 -24C1059 -24 1286 157 1351 462L1560 1443L1299 1443L1102 517C1060 322 921 209 736 209C543 209 438 306 433 462C432 496 436 535 445 575L628 1443L367 1443L183 566C174 523 169 479 170 438C171 175 364 -24 708 -24ZM871 1558L1060 1558L899 1858L670 1858Z" />
<glyph glyph-name="Uacute" unicode="&#xda;" horiz-adv-x="1453" d="M708 -24C1059 -24 1286 157 1351 462L1560 1443L1299 1443L1102 517C1060 322 921 209 736 209C543 209 438 306 433 462C432 496 436 535 445 575L628 1443L367 1443L183 566C174 523 169 479 170 438C171 175 364 -24 708 -24ZM1083 1558L1411 1858L1157 1858L870 1558Z" />
<glyph glyph-name="Ucircumflex" unicode="&#xdb;" horiz-adv-x="1453" d="M708 -24C1059 -24 1286 157 1351 462L1560 1443L1299 1443L1102 517C1060 322 921 209 736 209C543 209 438 306 433 462C432 496 436 535 445 575L628 1443L367 1443L183 566C174 523 169 479 170 438C171 175 364 -24 708 -24ZM1127 1863L936 1863L596 1552L805 1552L1011 1744L1018 1744L1142 1552L1335 1552Z" />
<glyph glyph-name="Udieresis" unicode="&#xdc;" horiz-adv-x="1453" d="M708 -24C1059 -24 1286 157 1351 462L1560 1443L1299 1443L1102 517C1060 322 921 209 736 209C543 209 438 306 433 462C432 496 436 535 445 575L628 1443L367 1443L183 566C174 523 169 479 170 438C171 175 364 -24 708 -24ZM812 1597C881 1597 935 1651 935 1718C935 1785 881 1839 812 1839C744 1839 690 1785 690 1718C690 1651 744 1597 812 1597ZM1199 1597C1267 1597 1321 1651 1321 1718C1321 1785 1267 1839 1199 1839C1131 1839 1077 1785 1077 1718C1077 1651 1131 1597 1199 1597Z" />
<glyph glyph-name="Yacute" unicode="&#xdd;" horiz-adv-x="1311" d="M718 0L835 553L1528 1443L1240 1443L757 811L751 811L528 1443L258 1443L578 569L457 0ZM1024 1558L1352 1858L1098 1858L811 1558Z" />
<glyph glyph-name="Thorn" unicode="&#xde;" horiz-adv-x="1265" d="M69 0L326 0L393 311L716 311C1055 311 1287 525 1287 816C1287 1040 1114 1199 873 1199L580 1199L633 1443L376 1443ZM535 982L790 982C945 982 1025 910 1025 790C1025 626 901 526 695 526L437 526Z" />
<glyph glyph-name="germandbls" unicode="&#xdf;" horiz-adv-x="1301" d="M331 0L547 1016C578 1163 670 1246 801 1246C926 1246 1011 1172 1011 1062C1011 946 904 856 772 856L696 856L651 638L724 638C889 638 994 566 994 445C994 310 875 209 717 209C661 209 588 222 544 242L500 37C562 14 655 0 736 0C1032 0 1242 178 1242 438C1242 602 1128 714 944 742L948 761C1130 784 1260 924 1260 1103C1260 1309 1072 1457 810 1457C552 1457 365 1321 317 1099L82 0Z" />
<glyph glyph-name="agrave" unicode="&#xe0;" horiz-adv-x="1070" d="M473 173C370 173 299 226 299 308C299 398 380 455 515 460L763 472L740 371C714 255 602 173 473 173ZM383 -17C514 -17 625 40 691 128L695 128L668 0L904 0L1049 685C1054 708 1057 742 1057 773C1057 957 894 1084 650 1084C395 1084 214 947 179 745L417 745C437 830 511 885 631 885C748 885 815 831 815 745C815 731 815 718 811 701L797 637L508 625C227 613 58 488 58 275C58 105 202 -17 383 -17ZM793 1231L642 1539L411 1539L598 1231Z" />
<glyph glyph-name="aacute" unicode="&#xe1;" horiz-adv-x="1070" d="M473 173C370 173 299 226 299 308C299 398 380 455 515 460L763 472L740 371C714 255 602 173 473 173ZM383 -17C514 -17 625 40 691 128L695 128L668 0L904 0L1049 685C1054 708 1057 742 1057 773C1057 957 894 1084 650 1084C395 1084 214 947 179 745L417 745C437 830 511 885 631 885C748 885 815 831 815 745C815 731 815 718 811 701L797 637L508 625C227 613 58 488 58 275C58 105 202 -17 383 -17ZM817 1231L1135 1539L891 1539L608 1231Z" />
<glyph glyph-name="acircumflex" unicode="&#xe2;" horiz-adv-x="1070" d="M473 173C370 173 299 226 299 308C299 398 380 455 515 460L763 472L740 371C714 255 602 173 473 173ZM383 -17C514 -17 625 40 691 128L695 128L668 0L904 0L1049 685C1054 708 1057 742 1057 773C1057 957 894 1084 650 1084C395 1084 214 947 179 745L417 745C437 830 511 885 631 885C748 885 815 831 815 745C815 731 815 718 811 701L797 637L508 625C227 613 58 488 58 275C58 105 202 -17 383 -17ZM863 1537L672 1537L338 1225L547 1225L745 1413L752 1413L869 1225L1063 1225Z" />
<glyph glyph-name="atilde" unicode="&#xe3;" horiz-adv-x="1070" d="M473 173C370 173 299 226 299 308C299 398 380 455 515 460L763 472L740 371C714 255 602 173 473 173ZM383 -17C514 -17 625 40 691 128L695 128L668 0L904 0L1049 685C1054 708 1057 742 1057 773C1057 957 894 1084 650 1084C395 1084 214 947 179 745L417 745C437 830 511 885 631 885C748 885 815 831 815 745C815 731 815 718 811 701L797 637L508 625C227 613 58 488 58 275C58 105 202 -17 383 -17ZM847 1230C965 1230 1063 1336 1097 1500L951 1500C932 1414 895 1370 853 1370C777 1370 751 1511 608 1511C486 1511 388 1409 357 1243L502 1243C519 1325 558 1370 602 1370C681 1370 710 1230 847 1230Z" />
<glyph glyph-name="adieresis" unicode="&#xe4;" horiz-adv-x="1070" d="M473 173C370 173 299 226 299 308C299 398 380 455 515 460L763 472L740 371C714 255 602 173 473 173ZM383 -17C514 -17 625 40 691 128L695 128L668 0L904 0L1049 685C1054 708 1057 742 1057 773C1057 957 894 1084 650 1084C395 1084 214 947 179 745L417 745C437 830 511 885 631 885C748 885 815 831 815 745C815 731 815 718 811 701L797 637L508 625C227 613 58 488 58 275C58 105 202 -17 383 -17ZM530 1229C599 1229 653 1283 653 1350C653 1417 599 1471 530 1471C462 1471 408 1417 408 1350C408 1283 462 1229 530 1229ZM917 1229C985 1229 1039 1283 1039 1350C1039 1417 985 1471 917 1471C849 1471 795 1417 795 1350C795 1283 849 1229 917 1229Z" />
<glyph glyph-name="aring" unicode="&#xe5;" horiz-adv-x="1070" d="M473 173C370 173 299 226 299 308C299 398 380 455 515 460L763 472L740 371C714 255 602 173 473 173ZM383 -17C514 -17 625 40 691 128L695 128L668 0L904 0L1049 685C1054 708 1057 742 1057 773C1057 957 894 1084 650 1084C395 1084 214 947 179 745L417 745C437 830 511 885 631 885C748 885 815 831 815 745C815 731 815 718 811 701L797 637L508 625C227 613 58 488 58 275C58 105 202 -17 383 -17ZM727 1181C846 1181 938 1271 938 1393C939 1513 846 1594 733 1594C616 1594 522 1504 522 1382C522 1262 616 1181 727 1181ZM727 1290C674 1290 633 1328 633 1384C633 1445 676 1486 733 1486C787 1486 827 1447 828 1391C828 1330 786 1290 727 1290Z" />
<glyph glyph-name="ae" unicode="&#xe6;" horiz-adv-x="1782" d="M1228 -22C1467 -22 1664 122 1719 334L1486 334C1448 232 1360 174 1241 174C1095 174 1005 281 1005 447C1005 459 1005 469 1005 474L1754 474C1761 518 1766 580 1766 632C1766 903 1593 1084 1333 1084C1194 1084 1074 1029 987 932L978 932C918 1025 789 1084 646 1084C397 1084 219 944 185 745L423 745C441 828 515 885 636 885C752 885 822 828 822 745C822 726 821 713 818 701L805 637L517 625C228 615 63 487 63 275C63 108 214 -22 421 -22C606 -22 760 53 854 192L863 192C920 64 1056 -22 1228 -22ZM1032 640C1073 791 1179 889 1326 889C1448 889 1533 801 1533 670C1533 657 1532 647 1531 640ZM477 170C371 170 304 228 304 305C304 392 388 452 518 458L772 469L749 369C724 255 613 170 477 170Z" />
<glyph glyph-name="ccedilla" unicode="&#xe7;" horiz-adv-x="1085" d="M1106 681C1106 687 1106 687 1106 705C1106 908 944 1084 666 1084C329 1084 103 815 103 440C103 197 234 20 469 -15L396 -133L375 -224L434 -224C534 -224 575 -241 575 -280C575 -319 532 -341 454 -341C408 -341 362 -334 324 -321L297 -451C335 -465 402 -475 462 -475C623 -475 734 -389 734 -264C734 -173 671 -120 561 -118L624 -18C840 8 1008 163 1048 369L812 369C775 258 686 188 566 188C436 188 350 288 350 450C350 700 477 874 658 874C790 874 867 790 870 681Z" />
<glyph glyph-name="egrave" unicode="&#xe8;" horiz-adv-x="1117" d="M365 640C402 782 504 889 647 889C797 889 865 785 865 670C865 660 865 648 864 640ZM562 -22C807 -22 998 128 1053 334L820 334C781 238 693 175 569 175C427 175 337 279 337 440C337 451 337 463 338 474L1088 474C1097 523 1100 583 1100 632C1100 909 925 1084 654 1084C329 1084 104 807 104 452C104 169 268 -22 562 -22ZM795 1231L644 1539L413 1539L600 1231Z" />
<glyph glyph-name="eacute" unicode="&#xe9;" horiz-adv-x="1117" d="M365 640C402 782 504 889 647 889C797 889 865 785 865 670C865 660 865 648 864 640ZM562 -22C807 -22 998 128 1053 334L820 334C781 238 693 175 569 175C427 175 337 279 337 440C337 451 337 463 338 474L1088 474C1097 523 1100 583 1100 632C1100 909 925 1084 654 1084C329 1084 104 807 104 452C104 169 268 -22 562 -22ZM819 1231L1137 1539L893 1539L610 1231Z" />
<glyph glyph-name="ecircumflex" unicode="&#xea;" horiz-adv-x="1117" d="M365 640C402 782 504 889 647 889C797 889 865 785 865 670C865 660 865 648 864 640ZM562 -22C807 -22 998 128 1053 334L820 334C781 238 693 175 569 175C427 175 337 279 337 440C337 451 337 463 338 474L1088 474C1097 523 1100 583 1100 632C1100 909 925 1084 654 1084C329 1084 104 807 104 452C104 169 268 -22 562 -22ZM865 1537L674 1537L340 1225L549 1225L747 1413L754 1413L871 1225L1065 1225Z" />
<glyph glyph-name="edieresis" unicode="&#xeb;" horiz-adv-x="1117" d="M365 640C402 782 504 889 647 889C797 889 865 785 865 670C865 660 865 648 864 640ZM562 -22C807 -22 998 128 1053 334L820 334C781 238 693 175 569 175C427 175 337 279 337 440C337 451 337 463 338 474L1088 474C1097 523 1100 583 1100 632C1100 909 925 1084 654 1084C329 1084 104 807 104 452C104 169 268 -22 562 -22ZM532 1229C601 1229 655 1283 655 1350C655 1417 601 1471 532 1471C464 1471 410 1417 410 1350C410 1283 464 1229 532 1229ZM919 1229C987 1229 1041 1283 1041 1350C1041 1417 987 1471 919 1471C851 1471 797 1417 797 1350C797 1283 851 1229 919 1229Z" />
<glyph glyph-name="igrave" unicode="&#xec;" horiz-adv-x="468" d="M41 0L287 0L513 1062L267 1062ZM524 1231L373 1539L142 1539L329 1231Z" />
<glyph glyph-name="iacute" unicode="&#xed;" horiz-adv-x="468" d="M41 0L287 0L513 1062L267 1062ZM548 1231L866 1539L622 1539L339 1231Z" />
<glyph glyph-name="icircumflex" unicode="&#xee;" horiz-adv-x="468" d="M41 0L287 0L513 1062L267 1062ZM594 1537L403 1537L69 1225L278 1225L476 1413L483 1413L600 1225L794 1225Z" />
<glyph glyph-name="idieresis" unicode="&#xef;" horiz-adv-x="468" d="M41 0L287 0L513 1062L267 1062ZM261 1229C330 1229 384 1283 384 1350C384 1417 330 1471 261 1471C193 1471 139 1417 139 1350C139 1283 193 1229 261 1229ZM648 1229C716 1229 770 1283 770 1350C770 1417 716 1471 648 1471C580 1471 526 1417 526 1350C526 1283 580 1229 648 1229Z" />
<glyph glyph-name="eth" unicode="&#xf0;" horiz-adv-x="1181" d="M583 189C437 189 354 303 354 455C354 678 491 839 662 839C805 839 905 737 905 589C905 380 749 189 583 189ZM1217 1316L1199 1458L963 1385C946 1408 925 1432 892 1469L618 1469C679 1411 724 1363 758 1320L504 1244L520 1102L839 1198C901 1086 936 972 941 870L932 870C885 962 764 1037 615 1037C326 1037 100 787 100 441C100 185 279 -21 566 -21C834 -21 1046 162 1131 461C1157 551 1170 654 1170 764C1170 938 1130 1095 1040 1263Z" />
<glyph glyph-name="ntilde" unicode="&#xf1;" horiz-adv-x="1155" d="M33 0L278 0L412 632C444 781 554 876 687 876C805 876 884 807 884 699C884 674 881 642 873 605L745 0L989 0L1126 646C1135 692 1140 738 1140 776C1140 957 1000 1084 809 1084C660 1084 536 1014 464 899L459 899L493 1062L258 1062ZM907 1230C1025 1230 1123 1336 1157 1500L1011 1500C992 1414 955 1370 913 1370C837 1370 811 1511 668 1511C546 1511 448 1409 417 1243L562 1243C579 1325 618 1370 662 1370C741 1370 770 1230 907 1230Z" />
<glyph glyph-name="ograve" unicode="&#xf2;" horiz-adv-x="1161" d="M576 184C439 184 351 292 351 457C351 697 485 878 670 878C807 878 895 770 895 605C895 367 760 184 576 184ZM677 1084C347 1084 103 811 103 451C103 167 288 -22 570 -22C900 -22 1144 251 1144 612C1144 896 959 1084 677 1084ZM813 1231L662 1539L431 1539L618 1231Z" />
<glyph glyph-name="oacute" unicode="&#xf3;" horiz-adv-x="1161" d="M576 184C439 184 351 292 351 457C351 697 485 878 670 878C807 878 895 770 895 605C895 367 760 184 576 184ZM677 1084C347 1084 103 811 103 451C103 167 288 -22 570 -22C900 -22 1144 251 1144 612C1144 896 959 1084 677 1084ZM837 1231L1155 1539L911 1539L628 1231Z" />
<glyph glyph-name="ocircumflex" unicode="&#xf4;" horiz-adv-x="1161" d="M576 184C439 184 351 292 351 457C351 697 485 878 670 878C807 878 895 770 895 605C895 367 760 184 576 184ZM677 1084C347 1084 103 811 103 451C103 167 288 -22 570 -22C900 -22 1144 251 1144 612C1144 896 959 1084 677 1084ZM883 1537L692 1537L358 1225L567 1225L765 1413L772 1413L889 1225L1083 1225Z" />
<glyph glyph-name="otilde" unicode="&#xf5;" horiz-adv-x="1161" d="M576 184C439 184 351 292 351 457C351 697 485 878 670 878C807 878 895 770 895 605C895 367 760 184 576 184ZM677 1084C347 1084 103 811 103 451C103 167 288 -22 570 -22C900 -22 1144 251 1144 612C1144 896 959 1084 677 1084ZM867 1230C985 1230 1083 1336 1117 1500L971 1500C952 1414 915 1370 873 1370C797 1370 771 1511 628 1511C506 1511 408 1409 377 1243L522 1243C539 1325 578 1370 622 1370C701 1370 730 1230 867 1230Z" />
<glyph glyph-name="odieresis" unicode="&#xf6;" horiz-adv-x="1161" d="M576 184C439 184 351 292 351 457C351 697 485 878 670 878C807 878 895 770 895 605C895 367 760 184 576 184ZM677 1084C347 1084 103 811 103 451C103 167 288 -22 570 -22C900 -22 1144 251 1144 612C1144 896 959 1084 677 1084ZM550 1229C619 1229 673 1283 673 1350C673 1417 619 1471 550 1471C482 1471 428 1417 428 1350C428 1283 482 1229 550 1229ZM937 1229C1005 1229 1059 1283 1059 1350C1059 1417 1005 1471 937 1471C869 1471 815 1417 815 1350C815 1283 869 1229 937 1229Z" />
<glyph glyph-name="divide" unicode="&#xf7;" horiz-adv-x="1294" d="M1208 478L1249 675L191 675L151 478ZM776 807C864 807 928 868 928 956C928 1044 864 1104 776 1104C688 1104 625 1044 625 956C625 868 688 807 776 807ZM616 48C705 48 768 109 768 197C768 285 705 345 616 345C528 345 465 285 465 197C465 109 528 48 616 48Z" />
<glyph glyph-name="oslash" unicode="&#xf8;" horiz-adv-x="1161" d="M891 697C897 670 900 640 900 608C900 362 762 176 575 176C516 176 465 196 427 232ZM355 365C349 392 346 422 346 454C346 701 483 887 671 887C731 887 781 867 820 830ZM1189 996L1087 1098L978 989C900 1050 797 1084 677 1084C347 1084 103 811 103 451C103 347 128 256 173 182L58 67L160 -36L269 74C347 12 450 -22 570 -22C900 -22 1144 251 1144 612C1144 716 1119 807 1074 881Z" />
<glyph glyph-name="ugrave" unicode="&#xf9;" horiz-adv-x="1155" d="M1208 1062L963 1062L830 436C798 290 691 191 548 191C423 191 360 249 360 367C360 390 364 433 371 465L498 1062L252 1062L119 426C110 383 104 324 104 281C104 107 229 -22 432 -22C590 -22 721 62 776 158L782 158L747 0L983 0ZM859 1231L708 1539L477 1539L664 1231Z" />
<glyph glyph-name="uacute" unicode="&#xfa;" horiz-adv-x="1155" d="M1208 1062L963 1062L830 436C798 290 691 191 548 191C423 191 360 249 360 367C360 390 364 433 371 465L498 1062L252 1062L119 426C110 383 104 324 104 281C104 107 229 -22 432 -22C590 -22 721 62 776 158L782 158L747 0L983 0ZM883 1231L1201 1539L957 1539L674 1231Z" />
<glyph glyph-name="ucircumflex" unicode="&#xfb;" horiz-adv-x="1155" d="M1208 1062L963 1062L830 436C798 290 691 191 548 191C423 191 360 249 360 367C360 390 364 433 371 465L498 1062L252 1062L119 426C110 383 104 324 104 281C104 107 229 -22 432 -22C590 -22 721 62 776 158L782 158L747 0L983 0ZM929 1537L738 1537L404 1225L613 1225L811 1413L818 1413L935 1225L1129 1225Z" />
<glyph glyph-name="udieresis" unicode="&#xfc;" horiz-adv-x="1155" d="M1208 1062L963 1062L830 436C798 290 691 191 548 191C423 191 360 249 360 367C360 390 364 433 371 465L498 1062L252 1062L119 426C110 383 104 324 104 281C104 107 229 -22 432 -22C590 -22 721 62 776 158L782 158L747 0L983 0ZM596 1229C665 1229 719 1283 719 1350C719 1417 665 1471 596 1471C528 1471 474 1417 474 1350C474 1283 528 1229 596 1229ZM983 1229C1051 1229 1105 1283 1105 1350C1105 1417 1051 1471 983 1471C915 1471 861 1417 861 1350C861 1283 915 1229 983 1229Z" />
<glyph glyph-name="yacute" unicode="&#xfd;" horiz-adv-x="1049" d="M93 -388C298 -388 435 -311 567 -68L1191 1062L926 1062L505 228L500 228L415 1062L169 1062L320 11C320 9 297 -39 297 -41C252 -150 183 -186 101 -186C73 -186 18 -182 3 -176L-35 -377C-19 -382 61 -388 93 -388ZM826 1231L1144 1539L900 1539L617 1231Z" />
<glyph glyph-name="thorn" unicode="&#xfe;" horiz-adv-x="1196" d="M618 192C478 192 387 296 387 447C387 674 516 875 711 875C849 875 932 775 932 610C932 370 795 192 618 192ZM324 205L333 205C371 74 494 -17 652 -17C952 -17 1179 262 1179 641C1179 908 1034 1080 801 1080C667 1080 545 1007 478 899L470 899L589 1450L345 1450L-36 -339L208 -339Z" />
<glyph glyph-name="ydieresis" unicode="&#xff;" horiz-adv-x="1049" d="M93 -388C298 -388 435 -311 567 -68L1191 1062L926 1062L505 228L500 228L415 1062L169 1062L320 11C320 9 297 -39 297 -41C252 -150 183 -186 101 -186C73 -186 18 -182 3 -176L-35 -377C-19 -382 61 -388 93 -388ZM539 1229C608 1229 662 1283 662 1350C662 1417 608 1471 539 1471C471 1471 417 1417 417 1350C417 1283 471 1229 539 1229ZM926 1229C994 1229 1048 1283 1048 1350C1048 1417 994 1471 926 1471C858 1471 804 1417 804 1350C804 1283 858 1229 926 1229Z" />
<glyph glyph-name="Amacron" unicode="&#x0100;" horiz-adv-x="1356" d="M867 1177L872 1177L947 573L537 573ZM1011 0L1266 0L1066 1443L773 1443L-49 0L228 0L432 369L966 369ZM1320 1763L650 1763L620 1624L1291 1624Z" />
<glyph glyph-name="amacron" unicode="&#x0101;" horiz-adv-x="1070" d="M473 173C370 173 299 226 299 308C299 398 380 455 515 460L763 472L740 371C714 255 602 173 473 173ZM383 -17C514 -17 625 40 691 128L695 128L668 0L904 0L1049 685C1054 708 1057 742 1057 773C1057 957 894 1084 650 1084C395 1084 214 947 179 745L417 745C437 830 511 885 631 885C748 885 815 831 815 745C815 731 815 718 811 701L797 637L508 625C227 613 58 488 58 275C58 105 202 -17 383 -17ZM1050 1418L435 1418L406 1280L1021 1280Z" />
<glyph glyph-name="Abreve" unicode="&#x0102;" horiz-adv-x="1356" d="M867 1177L872 1177L947 573L537 573ZM1011 0L1266 0L1066 1443L773 1443L-49 0L228 0L432 369L966 369ZM660 1856C654 1835 651 1811 651 1786C651 1642 765 1540 939 1540C1158 1540 1306 1666 1349 1856L1186 1856C1160 1744 1072 1675 963 1675C868 1675 812 1726 812 1811C812 1827 815 1843 819 1856Z" />
<glyph glyph-name="abreve" unicode="&#x0103;" horiz-adv-x="1070" d="M473 173C370 173 299 226 299 308C299 398 380 455 515 460L763 472L740 371C714 255 602 173 473 173ZM383 -17C514 -17 625 40 691 128L695 128L668 0L904 0L1049 685C1054 708 1057 742 1057 773C1057 957 894 1084 650 1084C395 1084 214 947 179 745L417 745C437 830 511 885 631 885C748 885 815 831 815 745C815 731 815 718 811 701L797 637L508 625C227 613 58 488 58 275C58 105 202 -17 383 -17ZM421 1537C416 1515 412 1493 412 1469C412 1321 536 1218 700 1218C917 1218 1067 1340 1110 1537L948 1537C922 1423 832 1354 724 1354C632 1354 574 1406 574 1492C574 1508 577 1524 580 1537Z" />
<glyph glyph-name="Aogonek" unicode="&#x0104;" horiz-adv-x="1356" d="M1149 -283C1132 -291 1105 -295 1076 -295C1012 -295 977 -268 977 -222C977 -151 1065 -69 1240 7L1263 17L1064 1443L771 1443L-49 0L228 0L430 369L964 369L1010 2C865 -78 776 -181 776 -281C776 -384 862 -450 987 -450C1042 -450 1094 -441 1119 -428ZM864 1177L870 1177L945 573L535 573Z" />
<glyph glyph-name="aogonek" unicode="&#x0105;" horiz-adv-x="1070" d="M472 179C369 179 300 230 300 308C300 397 381 455 513 460L764 472L741 371C716 257 607 179 472 179ZM791 -416L820 -272C802 -279 776 -283 747 -283C689 -283 649 -256 649 -210C649 -138 753 -52 887 -7L904 -2L1050 685C1055 707 1058 738 1058 773C1058 954 891 1078 646 1078C399 1078 215 948 180 745L418 745C438 830 516 879 627 879C744 879 816 828 816 745C816 726 815 716 812 701L798 637L512 625C224 613 59 485 59 275C59 112 198 -11 382 -11C517 -11 626 40 692 128L696 128L669 2C528 -76 449 -163 449 -270C449 -369 531 -438 659 -438C717 -438 768 -428 791 -416Z" />
<glyph glyph-name="Cacute" unicode="&#x0106;" horiz-adv-x="1446" d="M1248 937L1503 937C1504 948 1504 959 1504 977C1491 1272 1258 1467 934 1467C477 1467 161 1103 161 596C161 218 398 -24 769 -24C1089 -24 1344 170 1413 466L1159 466C1099 303 956 204 780 204C561 204 426 358 426 609C426 975 627 1240 919 1240C1098 1240 1233 1134 1247 967C1247 951 1248 943 1248 937ZM1064 1559L1392 1859L1138 1859L851 1559Z" />
<glyph glyph-name="cacute" unicode="&#x0107;" horiz-adv-x="1085" d="M666 1084C329 1084 103 815 103 440C103 167 268 -22 559 -22C806 -22 1004 143 1048 369L812 369C775 258 686 188 566 188C436 188 350 288 350 450C350 700 477 874 658 874C790 874 867 790 870 681L1106 681C1106 687 1106 687 1106 705C1106 908 944 1084 666 1084ZM833 1231L1151 1539L907 1539L624 1231Z" />
<glyph glyph-name="Ccircumflex" unicode="&#x0108;" horiz-adv-x="1446" d="M1248 937L1503 937C1504 948 1504 959 1504 977C1491 1272 1258 1467 934 1467C477 1467 161 1103 161 596C161 218 398 -24 769 -24C1089 -24 1344 170 1413 466L1159 466C1099 303 956 204 780 204C561 204 426 358 426 609C426 975 627 1240 919 1240C1098 1240 1233 1134 1247 967C1247 951 1248 943 1248 937ZM1108 1864L917 1864L577 1553L786 1553L992 1745L999 1745L1123 1553L1316 1553Z" />
<glyph glyph-name="ccircumflex" unicode="&#x0109;" horiz-adv-x="1085" d="M666 1084C329 1084 103 815 103 440C103 167 268 -22 559 -22C806 -22 1004 143 1048 369L812 369C775 258 686 188 566 188C436 188 350 288 350 450C350 700 477 874 658 874C790 874 867 790 870 681L1106 681C1106 687 1106 687 1106 705C1106 908 944 1084 666 1084ZM879 1537L688 1537L354 1225L563 1225L761 1413L768 1413L885 1225L1079 1225Z" />
<glyph glyph-name="Cdotaccent" unicode="&#x010a;" horiz-adv-x="1446" d="M1248 937L1503 937C1504 948 1504 959 1504 977C1491 1272 1258 1467 934 1467C477 1467 161 1103 161 596C161 218 398 -24 769 -24C1089 -24 1344 170 1413 466L1159 466C1099 303 956 204 780 204C561 204 426 358 426 609C426 975 627 1240 919 1240C1098 1240 1233 1134 1247 967C1247 951 1248 943 1248 937ZM994 1609C1072 1609 1134 1673 1134 1750C1134 1828 1072 1892 994 1892C915 1892 853 1828 853 1750C853 1673 915 1609 994 1609Z" />
<glyph glyph-name="cdotaccent" unicode="&#x010b;" horiz-adv-x="1085" d="M666 1084C329 1084 103 815 103 440C103 167 268 -22 559 -22C806 -22 1004 143 1048 369L812 369C775 258 686 188 566 188C436 188 350 288 350 450C350 700 477 874 658 874C790 874 867 790 870 681L1106 681C1106 687 1106 687 1106 705C1106 908 944 1084 666 1084ZM738 1228C816 1228 879 1291 879 1369C879 1446 816 1510 738 1510C660 1510 597 1446 597 1369C597 1291 660 1228 738 1228Z" />
<glyph glyph-name="Ccaron" unicode="&#x010c;" horiz-adv-x="1446" d="M1248 937L1503 937C1504 948 1504 959 1504 977C1491 1272 1258 1467 934 1467C477 1467 161 1103 161 596C161 218 398 -24 769 -24C1089 -24 1344 170 1413 466L1159 466C1099 303 956 204 780 204C561 204 426 358 426 609C426 975 627 1240 919 1240C1098 1240 1233 1134 1247 967C1247 951 1248 943 1248 937ZM862 1553L1054 1553L1394 1864L1184 1864L979 1672L972 1672L847 1864L654 1864Z" />
<glyph glyph-name="ccaron" unicode="&#x010d;" horiz-adv-x="1085" d="M666 1084C329 1084 103 815 103 440C103 167 268 -22 559 -22C806 -22 1004 143 1048 369L812 369C775 258 686 188 566 188C436 188 350 288 350 450C350 700 477 874 658 874C790 874 867 790 870 681L1106 681C1106 687 1106 687 1106 705C1106 908 944 1084 666 1084ZM819 1225L1151 1537L939 1537L740 1347L734 1347L617 1537L427 1537L627 1225Z" />
<glyph glyph-name="Dcaron" unicode="&#x010e;" horiz-adv-x="1438" d="M367 1443L62 0L672 0C1131 0 1444 357 1444 868C1444 1230 1213 1443 845 1443ZM583 1222L791 1222C1044 1222 1179 1084 1179 835C1179 470 955 222 643 222L368 222ZM737 1552L929 1552L1269 1863L1059 1863L854 1671L847 1671L722 1863L529 1863Z" />
<glyph glyph-name="dcaron" unicode="&#x010f;" horiz-adv-x="1451" d="M1470 1443L1364 945L1532 945L1688 1443ZM482 -17C622 -17 746 54 815 162L820 162L786 0L1028 0L1335 1443L1091 1443L965 861L959 861C925 987 796 1080 632 1080C331 1080 101 798 101 421C101 154 248 -17 482 -17ZM572 188C434 188 350 289 350 450C350 693 487 871 664 871C805 871 896 766 896 616C896 375 755 188 572 188Z" />
<glyph glyph-name="Dcroat" unicode="&#x0110;" horiz-adv-x="1438" d="M368 222L454 621L737 621L783 844L502 844L583 1222L791 1222C1044 1222 1179 1084 1179 835C1179 470 955 222 643 222ZM367 1443L240 844L110 844L63 621L193 621L62 0L672 0C1131 0 1444 357 1444 868C1444 1230 1213 1443 845 1443Z" />
<glyph glyph-name="dcroat" unicode="&#x0111;" horiz-adv-x="1206" d="M572 188C434 188 350 289 350 450C350 693 487 871 664 871C805 871 896 766 896 616C896 375 755 188 572 188ZM1422 1345L1314 1345L1335 1443L1091 1443L1070 1345L833 1345L799 1185L1035 1185L965 861L959 861C925 987 796 1080 632 1080C331 1080 101 798 101 421C101 154 248 -17 482 -17C622 -17 746 54 815 162L820 162L786 0L1028 0L1280 1185L1389 1185Z" />
<glyph glyph-name="Emacron" unicode="&#x0112;" horiz-adv-x="1158" d="M1041 223L367 223L455 627L1091 627L1135 837L498 837L582 1220L1255 1220L1302 1443L367 1443L60 0L995 0ZM1230 1763L560 1763L530 1624L1201 1624Z" />
<glyph glyph-name="emacron" unicode="&#x0113;" horiz-adv-x="1117" d="M365 640C402 782 504 889 647 889C797 889 865 785 865 670C865 660 865 648 864 640ZM562 -22C807 -22 998 128 1053 334L820 334C781 238 693 175 569 175C427 175 337 279 337 440C337 451 337 463 338 474L1088 474C1097 523 1100 583 1100 632C1100 909 925 1084 654 1084C329 1084 104 807 104 452C104 169 268 -22 562 -22ZM1052 1418L437 1418L408 1280L1023 1280Z" />
<glyph glyph-name="Ebreve" unicode="&#x0114;" horiz-adv-x="1158" d="M1041 223L367 223L455 627L1091 627L1135 837L498 837L582 1220L1255 1220L1302 1443L367 1443L60 0L995 0ZM570 1856C564 1835 561 1811 561 1786C561 1642 675 1540 849 1540C1068 1540 1216 1666 1259 1856L1096 1856C1070 1744 982 1675 873 1675C778 1675 722 1726 722 1811C722 1827 725 1843 729 1856Z" />
<glyph glyph-name="ebreve" unicode="&#x0115;" horiz-adv-x="1117" d="M365 640C402 782 504 889 647 889C797 889 865 785 865 670C865 660 865 648 864 640ZM562 -22C807 -22 998 128 1053 334L820 334C781 238 693 175 569 175C427 175 337 279 337 440C337 451 337 463 338 474L1088 474C1097 523 1100 583 1100 632C1100 909 925 1084 654 1084C329 1084 104 807 104 452C104 169 268 -22 562 -22ZM423 1537C418 1515 414 1493 414 1469C414 1321 538 1218 702 1218C919 1218 1069 1340 1112 1537L950 1537C924 1423 834 1354 726 1354C634 1354 576 1406 576 1492C576 1508 579 1524 582 1537Z" />
<glyph glyph-name="Edotaccent" unicode="&#x0116;" horiz-adv-x="1158" d="M1041 223L367 223L455 627L1091 627L1135 837L498 837L582 1220L1255 1220L1302 1443L367 1443L60 0L995 0ZM889 1608C967 1608 1029 1672 1029 1749C1029 1827 967 1891 889 1891C810 1891 748 1827 748 1749C748 1672 810 1608 889 1608Z" />
<glyph glyph-name="edotaccent" unicode="&#x0117;" horiz-adv-x="1117" d="M365 640C402 782 504 889 647 889C797 889 865 785 865 670C865 660 865 648 864 640ZM562 -22C807 -22 998 128 1053 334L820 334C781 238 693 175 569 175C427 175 337 279 337 440C337 451 337 463 338 474L1088 474C1097 523 1100 583 1100 632C1100 909 925 1084 654 1084C329 1084 104 807 104 452C104 169 268 -22 562 -22ZM724 1228C802 1228 865 1291 865 1369C865 1446 802 1510 724 1510C646 1510 583 1446 583 1369C583 1291 646 1228 724 1228Z" />
<glyph glyph-name="Eogonek" unicode="&#x0118;" horiz-adv-x="1158" d="M60 0L763 0L763 -4C624 -77 540 -182 540 -281C540 -383 625 -450 751 -450C806 -450 858 -441 883 -428L913 -283C895 -291 867 -295 840 -295C777 -295 741 -268 741 -222C741 -154 824 -73 968 -3L997 9L1041 223L366 223L455 627L1091 627L1135 837L498 837L582 1220L1255 1220L1302 1443L367 1443Z" />
<glyph glyph-name="eogonek" unicode="&#x0119;" horiz-adv-x="1117" d="M598 -438C657 -438 708 -429 730 -416L760 -272C744 -279 717 -283 687 -283C628 -283 589 -252 589 -206C589 -127 690 -36 868 70C963 129 1025 232 1053 334L820 334C781 238 693 175 569 175C427 175 337 279 337 440C337 451 337 463 338 474L1088 474C1097 523 1100 583 1100 632C1100 909 925 1084 654 1084C329 1084 104 807 104 452C104 169 268 -22 562 -22L570 -22L570 -27C461 -86 388 -169 388 -270C388 -369 470 -438 598 -438ZM365 640C402 782 504 889 647 889C797 889 865 785 865 670C865 660 865 648 864 640Z" />
<glyph glyph-name="Ecaron" unicode="&#x011a;" horiz-adv-x="1158" d="M1041 223L367 223L455 627L1091 627L1135 837L498 837L582 1220L1255 1220L1302 1443L367 1443L60 0L995 0ZM757 1552L949 1552L1289 1863L1079 1863L874 1671L867 1671L742 1863L549 1863Z" />
<glyph glyph-name="ecaron" unicode="&#x011b;" horiz-adv-x="1117" d="M365 640C402 782 504 889 647 889C797 889 865 785 865 670C865 660 865 648 864 640ZM562 -22C807 -22 998 128 1053 334L820 334C781 238 693 175 569 175C427 175 337 279 337 440C337 451 337 463 338 474L1088 474C1097 523 1100 583 1100 632C1100 909 925 1084 654 1084C329 1084 104 807 104 452C104 169 268 -22 562 -22ZM805 1225L1137 1537L925 1537L726 1347L720 1347L603 1537L413 1537L613 1225Z" />
<glyph glyph-name="Gcircumflex" unicode="&#x011c;" horiz-adv-x="1481" d="M1488 755L889 755L847 554L1193 554L1186 518C1145 328 988 200 788 200C552 200 424 365 424 611C424 919 580 1242 923 1242C1117 1242 1241 1129 1253 960L1506 960C1506 966 1507 974 1507 980C1501 1254 1275 1467 927 1467C423 1467 161 1032 161 601C161 230 393 -24 772 -24C1122 -24 1374 185 1448 557ZM1103 1863L912 1863L572 1552L781 1552L987 1744L994 1744L1118 1552L1311 1552Z" />
<glyph glyph-name="gcircumflex" unicode="&#x011d;" horiz-adv-x="1194" d="M479 -401C763 -401 968 -256 1027 21L1247 1062L1007 1062L964 854L955 854C918 985 793 1080 631 1080C305 1080 102 769 102 436C102 177 255 9 485 9C620 9 745 76 809 179L818 179L783 27C744 -134 645 -215 486 -215C360 -215 274 -160 261 -75L17 -75C17 -271 206 -401 479 -401ZM573 200C429 200 349 303 349 455C349 688 476 871 663 871C795 871 894 767 894 616C894 392 767 200 573 200ZM942 1538L751 1538L417 1226L626 1226L824 1414L831 1414L948 1226L1142 1226Z" />
<glyph glyph-name="Gbreve" unicode="&#x011e;" horiz-adv-x="1481" d="M1488 755L889 755L847 554L1193 554L1186 518C1145 328 988 200 788 200C552 200 424 365 424 611C424 919 580 1242 923 1242C1117 1242 1241 1129 1253 960L1506 960C1506 966 1507 974 1507 980C1501 1254 1275 1467 927 1467C423 1467 161 1032 161 601C161 230 393 -24 772 -24C1122 -24 1374 185 1448 557ZM670 1856C664 1835 661 1811 661 1786C661 1642 775 1540 949 1540C1168 1540 1316 1666 1359 1856L1196 1856C1170 1744 1082 1675 973 1675C878 1675 822 1726 822 1811C822 1827 825 1843 829 1856Z" />
<glyph glyph-name="gbreve" unicode="&#x011f;" horiz-adv-x="1194" d="M479 -401C763 -401 968 -256 1027 21L1247 1062L1007 1062L964 854L955 854C918 985 793 1080 631 1080C305 1080 102 769 102 436C102 177 255 9 485 9C620 9 745 76 809 179L818 179L783 27C744 -134 645 -215 486 -215C360 -215 274 -160 261 -75L17 -75C17 -271 206 -401 479 -401ZM573 200C429 200 349 303 349 455C349 688 476 871 663 871C795 871 894 767 894 616C894 392 767 200 573 200ZM500 1538C495 1516 491 1494 491 1470C491 1322 615 1219 779 1219C996 1219 1146 1341 1189 1538L1027 1538C1001 1424 911 1355 803 1355C711 1355 653 1407 653 1493C653 1509 656 1525 659 1538Z" />
<glyph glyph-name="Gdotaccent" unicode="&#x0120;" horiz-adv-x="1481" d="M1488 755L889 755L847 554L1193 554L1186 518C1145 328 988 200 788 200C552 200 424 365 424 611C424 919 580 1242 923 1242C1117 1242 1241 1129 1253 960L1506 960C1506 966 1507 974 1507 980C1501 1254 1275 1467 927 1467C423 1467 161 1032 161 601C161 230 393 -24 772 -24C1122 -24 1374 185 1448 557ZM988 1608C1066 1608 1128 1672 1128 1749C1128 1827 1066 1891 988 1891C909 1891 847 1827 847 1749C847 1672 909 1608 988 1608Z" />
<glyph glyph-name="gdotaccent" unicode="&#x0121;" horiz-adv-x="1194" d="M479 -401C763 -401 968 -256 1027 21L1247 1062L1007 1062L964 854L955 854C918 985 793 1080 631 1080C305 1080 102 769 102 436C102 177 255 9 485 9C620 9 745 76 809 179L818 179L783 27C744 -134 645 -215 486 -215C360 -215 274 -160 261 -75L17 -75C17 -271 206 -401 479 -401ZM573 200C429 200 349 303 349 455C349 688 476 871 663 871C795 871 894 767 894 616C894 392 767 200 573 200ZM801 1229C879 1229 942 1292 942 1370C942 1447 879 1511 801 1511C723 1511 660 1447 660 1370C660 1292 723 1229 801 1229Z" />
<glyph glyph-name="Gcommaaccent" unicode="&#x0122;" horiz-adv-x="1481" d="M1488 755L889 755L847 554L1193 554L1186 518C1145 328 988 200 788 200C552 200 424 365 424 611C424 919 580 1242 923 1242C1117 1242 1241 1129 1253 960L1506 960C1506 966 1507 974 1507 980C1501 1254 1275 1467 927 1467C423 1467 161 1032 161 601C161 230 393 -24 772 -24C1122 -24 1374 185 1448 557ZM620 -476L851 -130L625 -130L431 -476Z" />
<glyph glyph-name="gcommaaccent" unicode="&#x0123;" horiz-adv-x="1194" d="M479 -401C763 -401 968 -256 1027 21L1247 1062L1007 1062L964 854L955 854C918 985 793 1080 631 1080C305 1080 102 769 102 436C102 177 255 9 485 9C620 9 745 76 809 179L818 179L783 27C744 -134 645 -215 486 -215C360 -215 274 -160 261 -75L17 -75C17 -271 206 -401 479 -401ZM573 200C429 200 349 303 349 455C349 688 476 871 663 871C795 871 894 767 894 616C894 392 767 200 573 200ZM1034 1539L803 1193L1029 1193L1223 1539Z" />
<glyph glyph-name="Hcircumflex" unicode="&#x0124;" horiz-adv-x="1479" d="M1280 0L1587 1443L1323 1443L1195 845L503 845L631 1443L367 1443L60 0L324 0L457 624L1150 624L1016 0ZM1148 1863L957 1863L617 1552L826 1552L1032 1744L1039 1744L1163 1552L1356 1552Z" />
<glyph glyph-name="hcircumflex" unicode="&#x0125;" horiz-adv-x="1171" d="M38 0L283 0L417 632C448 776 559 876 699 876C823 876 900 802 900 695C900 668 896 639 889 605L758 0L1002 0L1142 646C1151 691 1156 734 1156 772C1156 943 1025 1082 822 1082C663 1082 544 1003 479 899L473 899L590 1443L345 1443ZM645 1863L454 1863L114 1552L323 1552L529 1744L536 1744L660 1552L853 1552Z" />
<glyph glyph-name="Hbar" unicode="&#x0126;" horiz-adv-x="1479" d="M1195 845L503 845L547 1052L1239 1052ZM1650 1251L1546 1251L1587 1443L1323 1443L1282 1251L590 1251L631 1443L367 1443L326 1251L218 1251L177 1052L284 1052L60 0L324 0L457 624L1150 624L1016 0L1280 0L1504 1052L1608 1052Z" />
<glyph glyph-name="hbar" unicode="&#x0127;" horiz-adv-x="1171" d="M473 899L536 1192L764 1192L795 1338L567 1338L590 1443L345 1443L323 1338L215 1338L184 1192L292 1192L38 0L283 0L417 632C448 776 559 876 699 876C823 876 900 802 900 695C900 668 896 639 889 605L758 0L1002 0L1142 646C1151 691 1156 734 1156 772C1156 943 1025 1082 822 1082C663 1082 544 1003 479 899Z" />
<glyph glyph-name="Itilde" unicode="&#x0128;" horiz-adv-x="520" d="M321 0L628 1443L367 1443L60 0ZM677 1546C795 1546 893 1652 927 1816L781 1816C762 1730 725 1686 683 1686C607 1686 581 1827 438 1827C316 1827 218 1725 187 1559L332 1559C349 1641 388 1686 432 1686C511 1686 540 1546 677 1546Z" />
<glyph glyph-name="itilde" unicode="&#x0129;" horiz-adv-x="468" d="M41 0L287 0L513 1062L267 1062ZM578 1230C696 1230 794 1336 828 1500L682 1500C663 1414 626 1370 584 1370C508 1370 482 1511 339 1511C217 1511 119 1409 88 1243L233 1243C250 1325 289 1370 333 1370C412 1370 441 1230 578 1230Z" />
<glyph glyph-name="Imacron" unicode="&#x012a;" horiz-adv-x="520" d="M321 0L628 1443L367 1443L60 0ZM902 1763L232 1763L202 1624L873 1624Z" />
<glyph glyph-name="imacron" unicode="&#x012b;" horiz-adv-x="468" d="M41 0L287 0L513 1062L267 1062ZM699 1418L176 1418L152 1280L674 1280Z" />
<glyph glyph-name="Ibreve" unicode="&#x012c;" horiz-adv-x="520" d="M321 0L628 1443L367 1443L60 0ZM242 1856C236 1835 233 1811 233 1786C233 1642 347 1540 521 1540C740 1540 888 1666 931 1856L768 1856C742 1744 654 1675 545 1675C450 1675 394 1726 394 1811C394 1827 397 1843 401 1856Z" />
<glyph glyph-name="ibreve" unicode="&#x012d;" horiz-adv-x="468" d="M41 0L287 0L513 1062L267 1062ZM152 1537C147 1515 143 1493 143 1469C143 1321 267 1218 431 1218C648 1218 798 1340 841 1537L679 1537C653 1423 563 1354 455 1354C363 1354 305 1406 305 1492C305 1508 308 1524 311 1537Z" />
<glyph glyph-name="Iogonek" unicode="&#x012e;" horiz-adv-x="520" d="M120 -450C175 -450 226 -441 252 -428L282 -283C267 -291 239 -295 208 -295C147 -295 110 -268 110 -218C110 -151 169 -76 298 -1L323 12L628 1443L367 1443L58 -12L78 -13C-34 -107 -91 -195 -91 -280C-91 -382 -6 -450 120 -450Z" />
<glyph glyph-name="iogonek" unicode="&#x012f;" horiz-adv-x="452" d="M205 -416L234 -272C218 -279 191 -283 161 -283C103 -283 63 -256 63 -210C63 -142 154 -53 252 -6L281 7L505 1062L258 1062L30 -15C-74 -93 -137 -173 -137 -270C-137 -369 -55 -438 73 -438C131 -438 182 -428 205 -416ZM439 1199C517 1199 578 1260 578 1337C578 1414 517 1475 439 1475C362 1475 301 1414 301 1337C301 1260 362 1199 439 1199Z" />
<glyph glyph-name="Idotaccent" unicode="&#x0130;" horiz-adv-x="520" d="M321 0L628 1443L367 1443L60 0ZM561 1608C639 1608 701 1672 701 1749C701 1827 639 1891 561 1891C482 1891 420 1827 420 1749C420 1672 482 1608 561 1608Z" />
<glyph glyph-name="dotlessi" unicode="&#x0131;" horiz-adv-x="468" d="M41 0L287 0L513 1062L267 1062Z" />
<glyph glyph-name="IJ" unicode="&#x0132;" horiz-adv-x="1620" d="M321 0L628 1443L367 1443L60 0ZM576 366C576 138 755 -24 1012 -24C1279 -24 1449 128 1506 399L1728 1443L1467 1443L1254 442C1221 288 1147 212 1025 212C905 212 830 283 830 398L830 406L577 406C577 395 576 378 576 366Z" />
<glyph glyph-name="ij" unicode="&#x0133;" horiz-adv-x="924" d="M38 0L285 0L510 1062L264 1062ZM445 1199C523 1199 584 1260 584 1337C584 1414 523 1475 445 1475C368 1475 307 1414 307 1337C307 1260 368 1199 445 1199ZM913 1199C990 1199 1051 1260 1051 1337C1051 1414 990 1475 913 1475C835 1475 774 1414 774 1337C774 1260 835 1199 913 1199ZM972 1062L727 1062L490 -44C470 -137 428 -175 342 -175C320 -175 304 -173 285 -170L242 -366C274 -371 323 -374 351 -374C555 -373 687 -273 730 -73Z" />
<glyph glyph-name="Jcircumflex" unicode="&#x0134;" horiz-adv-x="1100" d="M56 366C56 138 235 -24 492 -24C759 -24 929 128 986 399L1208 1443L947 1443L734 442C701 288 627 212 505 212C385 212 310 283 310 398L310 406L57 406C57 395 56 378 56 366ZM1255 1863L1064 1863L724 1552L933 1552L1139 1744L1146 1744L1270 1552L1463 1552Z" />
<glyph glyph-name="jcircumflex" unicode="&#x0135;" horiz-adv-x="462" d="M510 1062L265 1062L28 -44C8 -137 -34 -175 -120 -175C-142 -175 -158 -173 -177 -170L-220 -366C-188 -371 -139 -374 -111 -374C93 -373 225 -273 268 -73ZM594 1537L403 1537L69 1225L278 1225L476 1413L483 1413L600 1225L794 1225Z" />
<glyph glyph-name="Kcommaaccent" unicode="&#x0136;" horiz-adv-x="1322" d="M321 0L417 450L613 629L947 0L1238 0L822 786L1514 1443L1199 1443L491 781L486 781L628 1443L367 1443L60 0ZM462 -476L693 -130L467 -130L273 -476Z" />
<glyph glyph-name="kcommaaccent" unicode="&#x0137;" horiz-adv-x="1051" d="M284 0L363 367L492 474L729 0L998 0L689 613L1199 1062L903 1062L425 641L419 641L591 1443L346 1443L38 0ZM347 -476L578 -130L352 -130L158 -476Z" />
<glyph glyph-name="Lacute" unicode="&#x0139;" horiz-adv-x="1102" d="M1027 226L368 226L628 1443L367 1443L60 0L981 0ZM630 1558L958 1858L704 1858L417 1558Z" />
<glyph glyph-name="lacute" unicode="&#x013a;" horiz-adv-x="472" d="M44 0L290 0L597 1443L351 1443ZM607 1558L935 1858L681 1858L394 1558Z" />
<glyph glyph-name="Lcommaaccent" unicode="&#x013b;" horiz-adv-x="1102" d="M1027 226L368 226L628 1443L367 1443L60 0L981 0ZM370 -476L601 -130L375 -130L181 -476Z" />
<glyph glyph-name="lcommaaccent" unicode="&#x013c;" horiz-adv-x="472" d="M44 0L290 0L597 1443L351 1443ZM12 -476L243 -130L17 -130L-177 -476Z" />
<glyph glyph-name="Lcaron" unicode="&#x013d;" horiz-adv-x="1102" d="M926 1443L820 945L989 945L1144 1443ZM1027 226L368 226L628 1443L367 1443L60 0L981 0Z" />
<glyph glyph-name="lcaron" unicode="&#x013e;" horiz-adv-x="719" d="M737 1443L631 945L799 945L955 1443ZM44 0L290 0L597 1443L351 1443Z" />
<glyph glyph-name="Lslash" unicode="&#x0141;" horiz-adv-x="1102" d="M368 226L458 647L773 795L819 1016L505 869L628 1443L367 1443L216 733L72 665L26 445L169 512L60 0L981 0L1027 226Z" />
<glyph glyph-name="lslash" unicode="&#x0142;" horiz-adv-x="472" d="M601 952L480 895L597 1443L351 1443L207 765L89 709L45 496L161 551L44 0L290 0L435 681L556 739Z" />
<glyph glyph-name="Nacute" unicode="&#x0143;" horiz-adv-x="1458" d="M315 0L537 1040L543 1040L1031 0L1258 0L1565 1443L1311 1443L1088 403L1083 403L595 1443L367 1443L60 0ZM1092 1558L1420 1858L1166 1858L879 1558Z" />
<glyph glyph-name="nacute" unicode="&#x0144;" horiz-adv-x="1155" d="M33 0L278 0L412 632C444 781 554 876 687 876C805 876 884 807 884 699C884 674 881 642 873 605L745 0L989 0L1126 646C1135 692 1140 738 1140 776C1140 957 1000 1084 809 1084C660 1084 536 1014 464 899L459 899L493 1062L258 1062ZM877 1231L1195 1539L951 1539L668 1231Z" />
<glyph glyph-name="Ncommaaccent" unicode="&#x0145;" horiz-adv-x="1458" d="M315 0L537 1040L543 1040L1031 0L1258 0L1565 1443L1311 1443L1088 403L1083 403L595 1443L367 1443L60 0ZM515 -476L746 -130L520 -130L326 -476Z" />
<glyph glyph-name="ncommaaccent" unicode="&#x0146;" horiz-adv-x="1155" d="M33 0L278 0L412 632C444 781 554 876 687 876C805 876 884 807 884 699C884 674 881 642 873 605L745 0L989 0L1126 646C1135 692 1140 738 1140 776C1140 957 1000 1084 809 1084C660 1084 536 1014 464 899L459 899L493 1062L258 1062ZM356 -476L587 -130L361 -130L167 -476Z" />
<glyph glyph-name="Ncaron" unicode="&#x0147;" horiz-adv-x="1458" d="M315 0L537 1040L543 1040L1031 0L1258 0L1565 1443L1311 1443L1088 403L1083 403L595 1443L367 1443L60 0ZM890 1552L1082 1552L1422 1863L1212 1863L1007 1671L1000 1671L875 1863L682 1863Z" />
<glyph glyph-name="ncaron" unicode="&#x0148;" horiz-adv-x="1155" d="M33 0L278 0L412 632C444 781 554 876 687 876C805 876 884 807 884 699C884 674 881 642 873 605L745 0L989 0L1126 646C1135 692 1140 738 1140 776C1140 957 1000 1084 809 1084C660 1084 536 1014 464 899L459 899L493 1062L258 1062ZM863 1225L1195 1537L983 1537L784 1347L778 1347L661 1537L471 1537L671 1225Z" />
<glyph glyph-name="Omacron" unicode="&#x014c;" horiz-adv-x="1540" d="M924 1241C1143 1241 1284 1081 1284 830C1284 483 1074 202 783 202C564 202 424 362 424 613C424 959 633 1241 924 1241ZM779 -24C1217 -24 1547 350 1547 843C1547 1212 1308 1467 927 1467C489 1467 161 1092 161 600C161 231 401 -24 779 -24ZM1348 1763L678 1763L648 1624L1319 1624Z" />
<glyph glyph-name="omacron" unicode="&#x014d;" horiz-adv-x="1161" d="M576 184C439 184 351 292 351 457C351 697 485 878 670 878C807 878 895 770 895 605C895 367 760 184 576 184ZM677 1084C347 1084 103 811 103 451C103 167 288 -22 570 -22C900 -22 1144 251 1144 612C1144 896 959 1084 677 1084ZM1070 1418L455 1418L426 1280L1041 1280Z" />
<glyph glyph-name="Obreve" unicode="&#x014e;" horiz-adv-x="1540" d="M924 1241C1143 1241 1284 1081 1284 830C1284 483 1074 202 783 202C564 202 424 362 424 613C424 959 633 1241 924 1241ZM779 -24C1217 -24 1547 350 1547 843C1547 1212 1308 1467 927 1467C489 1467 161 1092 161 600C161 231 401 -24 779 -24ZM688 1856C682 1835 679 1811 679 1786C679 1642 793 1540 967 1540C1186 1540 1334 1666 1377 1856L1214 1856C1188 1744 1100 1675 991 1675C896 1675 840 1726 840 1811C840 1827 843 1843 847 1856Z" />
<glyph glyph-name="obreve" unicode="&#x014f;" horiz-adv-x="1161" d="M576 184C439 184 351 292 351 457C351 697 485 878 670 878C807 878 895 770 895 605C895 367 760 184 576 184ZM677 1084C347 1084 103 811 103 451C103 167 288 -22 570 -22C900 -22 1144 251 1144 612C1144 896 959 1084 677 1084ZM441 1537C436 1515 432 1493 432 1469C432 1321 556 1218 720 1218C937 1218 1087 1340 1130 1537L968 1537C942 1423 852 1354 744 1354C652 1354 594 1406 594 1492C594 1508 597 1524 600 1537Z" />
<glyph glyph-name="Ohungarumlaut" unicode="&#x0150;" horiz-adv-x="1540" d="M924 1241C1143 1241 1284 1081 1284 830C1284 483 1074 202 783 202C564 202 424 362 424 613C424 959 633 1241 924 1241ZM779 -24C1217 -24 1547 350 1547 843C1547 1212 1308 1467 927 1467C489 1467 161 1092 161 600C161 231 401 -24 779 -24ZM1267 1558L1595 1858L1347 1858L1060 1558ZM883 1558L1211 1858L963 1858L676 1558Z" />
<glyph glyph-name="ohungarumlaut" unicode="&#x0151;" horiz-adv-x="1161" d="M576 184C439 184 351 292 351 457C351 697 485 878 670 878C807 878 895 770 895 605C895 367 760 184 576 184ZM677 1084C347 1084 103 811 103 451C103 167 288 -22 570 -22C900 -22 1144 251 1144 612C1144 896 959 1084 677 1084ZM821 1232L1010 1232L1307 1539L1078 1539ZM468 1232L657 1232L954 1539L725 1539Z" />
<glyph glyph-name="OE" unicode="&#x0152;" horiz-adv-x="2242" d="M1171 0L2071 0L2116 223L1441 223L1529 627L2166 627L2210 837L1572 837L1656 1220L2330 1220L2377 1443L1478 1443L1424 1190L1419 1190C1324 1368 1153 1467 931 1467C487 1467 164 1085 164 601C164 226 400 -24 754 -24C928 -24 1089 42 1200 162L1205 162ZM1287 830C1287 485 1078 202 787 202C568 202 427 362 427 613C427 958 636 1241 927 1241C1146 1241 1287 1081 1287 830Z" />
<glyph glyph-name="oe" unicode="&#x0153;" horiz-adv-x="1895" d="M1342 -21C1581 -21 1778 122 1832 334L1599 334C1562 232 1474 174 1354 174C1209 174 1119 281 1119 447C1119 459 1119 469 1119 474L1867 474C1875 521 1880 582 1880 632C1880 905 1707 1084 1443 1084C1284 1084 1133 1000 1055 884L1046 884C980 1000 860 1084 674 1084C349 1084 103 808 103 451C103 165 286 -21 570 -21C734 -21 883 52 967 180L976 180C1034 59 1177 -21 1342 -21ZM1145 640C1186 791 1293 889 1438 889C1561 889 1646 801 1646 670C1646 657 1645 647 1644 640ZM353 454C353 692 490 881 671 881C807 881 891 775 891 608C891 369 755 182 574 182C438 182 353 287 353 454Z" />
<glyph glyph-name="Racute" unicode="&#x0154;" horiz-adv-x="1309" d="M1260 1858L1006 1858L719 1558L932 1558ZM479 746L583 1229L870 1229C1010 1229 1095 1151 1095 1021C1095 860 966 746 776 746ZM367 1443L60 0L321 0L437 541L732 541L905 0L1175 0L987 571C1223 633 1360 828 1360 1045C1360 1280 1200 1443 918 1443Z" />
<glyph glyph-name="racute" unicode="&#x0155;" horiz-adv-x="760" d="M33 0L278 0L403 589C441 763 532 853 694 853C748 853 803 840 835 825L884 1053C854 1067 809 1078 754 1078C627 1078 530 1014 470 917L465 917L495 1062L259 1062ZM700 1231L1018 1539L774 1539L491 1231Z" />
<glyph glyph-name="Rcommaaccent" unicode="&#x0156;" horiz-adv-x="1309" d="M267 -476L456 -476L687 -130L461 -130ZM479 746L583 1229L870 1229C1010 1229 1095 1151 1095 1021C1095 860 966 746 776 746ZM367 1443L60 0L321 0L437 541L732 541L905 0L1175 0L987 571C1223 633 1360 828 1360 1045C1360 1280 1200 1443 918 1443Z" />
<glyph glyph-name="rcommaaccent" unicode="&#x0157;" horiz-adv-x="760" d="M33 0L278 0L403 589C441 763 532 853 694 853C748 853 803 840 835 825L884 1053C854 1067 809 1078 754 1078C627 1078 530 1014 470 917L465 917L495 1062L259 1062ZM6 -476L237 -130L11 -130L-183 -476Z" />
<glyph glyph-name="Rcaron" unicode="&#x0158;" horiz-adv-x="1309" d="M922 1552L1262 1863L1052 1863L847 1671L840 1671L715 1863L522 1863L730 1552ZM479 746L583 1229L870 1229C1010 1229 1095 1151 1095 1021C1095 860 966 746 776 746ZM367 1443L60 0L321 0L437 541L732 541L905 0L1175 0L987 571C1223 633 1360 828 1360 1045C1360 1280 1200 1443 918 1443Z" />
<glyph glyph-name="rcaron" unicode="&#x0159;" horiz-adv-x="760" d="M33 0L278 0L403 589C441 763 532 853 694 853C748 853 803 840 835 825L884 1053C854 1067 809 1078 754 1078C627 1078 530 1014 470 917L465 917L495 1062L259 1062ZM686 1225L1018 1537L806 1537L607 1347L601 1347L484 1537L294 1537L494 1225Z" />
<glyph glyph-name="Sacute" unicode="&#x015a;" horiz-adv-x="1277" d="M88 424C95 143 338 -24 667 -24C1021 -24 1224 185 1224 439C1224 631 1106 746 860 821L744 857C588 905 522 963 522 1056C522 1158 616 1251 793 1251C968 1251 1076 1163 1082 1035L1328 1035C1327 1304 1109 1467 791 1467C479 1467 259 1291 259 1028C259 832 379 712 619 637L732 602C897 551 958 497 958 394C958 266 836 192 671 192C483 192 356 288 339 424ZM963 1558L1291 1858L1037 1858L750 1558Z" />
<glyph glyph-name="sacute" unicode="&#x015b;" horiz-adv-x="1014" d="M177 752C177 606 261 515 456 452L549 422C671 384 704 357 704 300C704 222 626 163 516 163C385 163 303 229 291 323L53 323C60 121 237 -22 507 -22C766 -22 948 120 948 323C948 464 870 546 676 609L575 641C453 680 413 712 413 775C413 848 484 900 598 900C707 900 787 836 794 747L1020 747C1016 945 846 1083 601 1083C347 1083 177 948 177 752ZM761 1231L1079 1539L835 1539L552 1231Z" />
<glyph glyph-name="Scircumflex" unicode="&#x015c;" horiz-adv-x="1277" d="M88 424C95 143 338 -24 667 -24C1021 -24 1224 185 1224 439C1224 631 1106 746 860 821L744 857C588 905 522 963 522 1056C522 1158 616 1251 793 1251C968 1251 1076 1163 1082 1035L1328 1035C1327 1304 1109 1467 791 1467C479 1467 259 1291 259 1028C259 832 379 712 619 637L732 602C897 551 958 497 958 394C958 266 836 192 671 192C483 192 356 288 339 424ZM1007 1863L816 1863L476 1552L685 1552L891 1744L898 1744L1022 1552L1215 1552Z" />
<glyph glyph-name="scircumflex" unicode="&#x015d;" horiz-adv-x="1014" d="M177 752C177 606 261 515 456 452L549 422C671 384 704 357 704 300C704 222 626 163 516 163C385 163 303 229 291 323L53 323C60 121 237 -22 507 -22C766 -22 948 120 948 323C948 464 870 546 676 609L575 641C453 680 413 712 413 775C413 848 484 900 598 900C707 900 787 836 794 747L1020 747C1016 945 846 1083 601 1083C347 1083 177 948 177 752ZM807 1537L616 1537L282 1225L491 1225L689 1413L696 1413L813 1225L1007 1225Z" />
<glyph glyph-name="Scedilla" unicode="&#x015e;" horiz-adv-x="1277" d="M744 857C588 905 522 963 522 1056C522 1158 616 1251 793 1251C968 1251 1076 1163 1082 1035L1328 1035C1327 1304 1109 1467 791 1467C479 1467 259 1291 259 1028C259 832 379 712 619 637L732 602C897 551 958 497 958 394C958 266 836 192 671 192C483 192 356 288 339 424L88 424C94 174 288 14 562 -18L491 -133L470 -224L529 -224C629 -224 670 -241 670 -280C670 -319 627 -341 549 -341C503 -341 457 -334 419 -321L392 -451C430 -465 497 -475 557 -475C718 -475 829 -389 829 -264C829 -173 766 -120 656 -118L716 -23C1040 -4 1224 197 1224 439C1224 631 1106 746 860 821Z" />
<glyph glyph-name="scedilla" unicode="&#x015f;" horiz-adv-x="1014" d="M575 641C453 680 413 712 413 775C413 848 484 900 598 900C707 900 787 836 794 747L1020 747C1016 945 846 1083 601 1083C347 1083 177 948 177 752C177 606 261 515 456 452L549 422C671 384 704 357 704 300C704 222 626 163 516 163C385 163 303 229 291 323L53 323C59 146 196 14 412 -16L340 -133L319 -224L378 -224C478 -224 519 -241 519 -280C519 -319 476 -341 398 -341C352 -341 306 -334 268 -321L241 -451C279 -465 346 -475 406 -475C567 -475 678 -389 678 -264C678 -173 615 -120 505 -118L567 -19C794 1 948 136 948 323C948 464 870 546 676 609Z" />
<glyph glyph-name="Scaron" unicode="&#x0160;" horiz-adv-x="1277" d="M88 424C95 143 338 -24 667 -24C1021 -24 1224 185 1224 439C1224 631 1106 746 860 821L744 857C588 905 522 963 522 1056C522 1158 616 1251 793 1251C968 1251 1076 1163 1082 1035L1328 1035C1327 1304 1109 1467 791 1467C479 1467 259 1291 259 1028C259 832 379 712 619 637L732 602C897 551 958 497 958 394C958 266 836 192 671 192C483 192 356 288 339 424ZM761 1552L953 1552L1293 1863L1083 1863L878 1671L871 1671L746 1863L553 1863Z" />
<glyph glyph-name="scaron" unicode="&#x0161;" horiz-adv-x="1014" d="M177 752C177 606 261 515 456 452L549 422C671 384 704 357 704 300C704 222 626 163 516 163C385 163 303 229 291 323L53 323C60 121 237 -22 507 -22C766 -22 948 120 948 323C948 464 870 546 676 609L575 641C453 680 413 712 413 775C413 848 484 900 598 900C707 900 787 836 794 747L1020 747C1016 945 846 1083 601 1083C347 1083 177 948 177 752ZM747 1225L1079 1537L867 1537L668 1347L662 1347L545 1537L355 1537L555 1225Z" />
<glyph glyph-name="Tcedilla" unicode="&#x0162;" horiz-adv-x="1241" d="M284 1443L238 1220L681 1220L421 0L525 0L443 -133L422 -224L481 -224C581 -224 622 -241 622 -280C622 -319 579 -341 501 -341C455 -341 409 -334 371 -321L344 -451C382 -465 449 -475 509 -475C670 -475 781 -389 781 -264C781 -173 718 -120 608 -118L682 0L942 1220L1385 1220L1431 1443Z" />
<glyph glyph-name="tcedilla" unicode="&#x0163;" horiz-adv-x="698" d="M536 856L756 856L797 1051L576 1051L631 1311L386 1311L332 1051L174 1051L133 856L291 856L174 315C167 277 164 242 164 214C164 108 224 39 322 8L235 -133L214 -224L273 -224C373 -224 414 -241 414 -280C414 -319 371 -341 293 -341C247 -341 201 -334 163 -321L136 -451C174 -465 241 -475 301 -475C462 -475 573 -389 573 -264C573 -173 510 -120 400 -118L467 -11C509 -11 553 -6 584 1L625 190C605 187 587 185 553 185C468 185 420 214 420 286C420 307 423 334 430 362Z" />
<glyph glyph-name="Tcaron" unicode="&#x0164;" horiz-adv-x="1241" d="M682 0L942 1220L1385 1220L1431 1443L284 1443L238 1220L681 1220L421 0ZM791 1552L983 1552L1323 1863L1113 1863L908 1671L901 1671L776 1863L583 1863Z" />
<glyph glyph-name="tcaron" unicode="&#x0165;" horiz-adv-x="846" d="M865 1708L759 1210L927 1210L1083 1708ZM461 -11C505 -11 551 -6 584 1L625 190C605 187 587 185 553 185C468 185 420 214 420 286C420 307 423 334 430 362L536 856L756 856L797 1051L576 1051L631 1311L386 1311L332 1051L174 1051L133 856L291 856L174 315C167 277 164 242 164 214C164 64 284 -11 461 -11Z" />
<glyph glyph-name="Tbar" unicode="&#x0166;" horiz-adv-x="1241" d="M1385 1220L1431 1443L284 1443L238 1220L681 1220L599 834L288 834L242 612L551 612L421 0L682 0L812 612L1159 612L1205 834L860 834L942 1220Z" />
<glyph glyph-name="tbar" unicode="&#x0167;" horiz-adv-x="698" d="M756 856L797 1051L576 1051L631 1311L386 1311L332 1051L174 1051L133 856L291 856L246 649L88 649L55 495L213 495L174 315C167 277 164 242 164 214C164 64 284 -11 461 -11C505 -11 551 -6 584 1L625 190C605 187 587 185 553 185C468 185 420 214 420 286C420 307 423 334 430 362L459 495L690 495L723 649L492 649L536 856Z" />
<glyph glyph-name="Utilde" unicode="&#x0168;" horiz-adv-x="1453" d="M708 -24C1059 -24 1286 157 1351 462L1560 1443L1299 1443L1102 517C1060 322 921 209 736 209C543 209 438 306 433 462C432 496 436 535 445 575L628 1443L367 1443L183 566C174 523 169 479 170 438C171 175 364 -24 708 -24ZM1129 1546C1247 1546 1345 1652 1379 1816L1233 1816C1214 1730 1177 1686 1135 1686C1059 1686 1033 1827 890 1827C768 1827 670 1725 639 1559L784 1559C801 1641 840 1686 884 1686C963 1686 992 1546 1129 1546Z" />
<glyph glyph-name="utilde" unicode="&#x0169;" horiz-adv-x="1155" d="M1208 1062L963 1062L830 436C798 290 691 191 548 191C423 191 360 249 360 367C360 390 364 433 371 465L498 1062L252 1062L119 426C110 383 104 324 104 281C104 107 229 -22 432 -22C590 -22 721 62 776 158L782 158L747 0L983 0ZM913 1230C1031 1230 1129 1336 1163 1500L1017 1500C998 1414 961 1370 919 1370C843 1370 817 1511 674 1511C552 1511 454 1409 423 1243L568 1243C585 1325 624 1370 668 1370C747 1370 776 1230 913 1230Z" />
<glyph glyph-name="Umacron" unicode="&#x016a;" horiz-adv-x="1453" d="M708 -24C1059 -24 1286 157 1351 462L1560 1443L1299 1443L1102 517C1060 322 921 209 736 209C543 209 438 306 433 462C432 496 436 535 445 575L628 1443L367 1443L183 566C174 523 169 479 170 438C171 175 364 -24 708 -24ZM1354 1763L684 1763L654 1624L1325 1624Z" />
<glyph glyph-name="umacron" unicode="&#x016b;" horiz-adv-x="1155" d="M1208 1062L963 1062L830 436C798 290 691 191 548 191C423 191 360 249 360 367C360 390 364 433 371 465L498 1062L252 1062L119 426C110 383 104 324 104 281C104 107 229 -22 432 -22C590 -22 721 62 776 158L782 158L747 0L983 0ZM1116 1418L501 1418L472 1280L1087 1280Z" />
<glyph glyph-name="Ubreve" unicode="&#x016c;" horiz-adv-x="1453" d="M708 -24C1059 -24 1286 157 1351 462L1560 1443L1299 1443L1102 517C1060 322 921 209 736 209C543 209 438 306 433 462C432 496 436 535 445 575L628 1443L367 1443L183 566C174 523 169 479 170 438C171 175 364 -24 708 -24ZM694 1856C688 1835 685 1811 685 1786C685 1642 799 1540 973 1540C1192 1540 1340 1666 1383 1856L1220 1856C1194 1744 1106 1675 997 1675C902 1675 846 1726 846 1811C846 1827 849 1843 853 1856Z" />
<glyph glyph-name="ubreve" unicode="&#x016d;" horiz-adv-x="1155" d="M1208 1062L963 1062L830 436C798 290 691 191 548 191C423 191 360 249 360 367C360 390 364 433 371 465L498 1062L252 1062L119 426C110 383 104 324 104 281C104 107 229 -22 432 -22C590 -22 721 62 776 158L782 158L747 0L983 0ZM487 1537C482 1515 478 1493 478 1469C478 1321 602 1218 766 1218C983 1218 1133 1340 1176 1537L1014 1537C988 1423 898 1354 790 1354C698 1354 640 1406 640 1492C640 1508 643 1524 646 1537Z" />
<glyph glyph-name="Uring" unicode="&#x016e;" horiz-adv-x="1453" d="M708 -24C1059 -24 1286 157 1351 462L1560 1443L1299 1443L1102 517C1060 322 921 209 736 209C543 209 438 306 433 462C432 496 436 535 445 575L628 1443L367 1443L183 566C174 523 169 479 170 438C171 175 364 -24 708 -24ZM1018 1562C1137 1562 1229 1652 1229 1774C1230 1894 1137 1975 1024 1975C907 1975 813 1885 813 1763C813 1643 907 1562 1018 1562ZM1018 1671C965 1671 924 1709 924 1765C924 1826 967 1867 1024 1867C1078 1867 1118 1828 1119 1772C1119 1711 1077 1671 1018 1671Z" />
<glyph glyph-name="uring" unicode="&#x016f;" horiz-adv-x="1155" d="M1208 1062L963 1062L830 436C798 290 691 191 548 191C423 191 360 249 360 367C360 390 364 433 371 465L498 1062L252 1062L119 426C110 383 104 324 104 281C104 107 229 -22 432 -22C590 -22 721 62 776 158L782 158L747 0L983 0ZM793 1181C912 1181 1004 1271 1004 1393C1005 1513 912 1594 799 1594C682 1594 588 1504 588 1382C588 1262 682 1181 793 1181ZM793 1290C740 1290 699 1328 699 1384C699 1445 742 1486 799 1486C853 1486 893 1447 894 1391C894 1330 852 1290 793 1290Z" />
<glyph glyph-name="Uhungarumlaut" unicode="&#x0170;" horiz-adv-x="1453" d="M708 -24C1059 -24 1286 157 1351 462L1560 1443L1299 1443L1102 517C1060 322 921 209 736 209C543 209 438 306 433 462C432 496 436 535 445 575L628 1443L367 1443L183 566C174 523 169 479 170 438C171 175 364 -24 708 -24ZM1273 1558L1601 1858L1353 1858L1066 1558ZM889 1558L1217 1858L969 1858L682 1558Z" />
<glyph glyph-name="uhungarumlaut" unicode="&#x0171;" horiz-adv-x="1155" d="M1208 1062L963 1062L830 436C798 290 691 191 548 191C423 191 360 249 360 367C360 390 364 433 371 465L498 1062L252 1062L119 426C110 383 104 324 104 281C104 107 229 -22 432 -22C590 -22 721 62 776 158L782 158L747 0L983 0ZM867 1232L1056 1232L1353 1539L1124 1539ZM514 1232L703 1232L1000 1539L771 1539Z" />
<glyph glyph-name="Uogonek" unicode="&#x0172;" horiz-adv-x="1453" d="M923 -428L953 -283C936 -291 909 -295 880 -295C817 -295 781 -268 781 -221C781 -140 876 -45 1040 45C1199 131 1310 267 1351 461L1560 1443L1299 1443L1102 517C1059 321 921 209 736 209C543 209 438 306 433 461C432 496 436 534 445 574L628 1443L367 1443L183 565C174 522 169 478 170 438C171 174 368 -24 712 -24C734 -24 761 -23 770 -21L770 -26C644 -100 580 -188 580 -280C580 -383 667 -450 791 -450C847 -450 898 -441 923 -428Z" />
</font>
</defs>
</svg>
