<?xml version="1.0" standalone="no"?><!DOCTYPE svg PUBLIC "-//W3C//DTD SVG 1.1//EN" "http://www.w3.org/Graphics/SVG/1.1/DTD/svg11.dtd" ><svg xmlns="http://www.w3.org/2000/svg"><metadata></metadata><defs>
<font id="SFProDisplay-Medium" >
<font-face font-family="SF Pro Display" font-stretch="normal" units-per-em="2048" weight="500" panose-1="0,0,6,0,0,0,0,0,0,0" ascent="1950" descent="-494" x-height="1052" underline-thickness="145" underline-position="-299" unicode-range="U+00000032-00127369" bbox="-541,-494,2588,2189" />
<missing-glyph horiz-adv-x="2048" d="M100 -494L1948 -494L1948 -238L100 -238ZM100 -56L1948 -56L1948 200L100 200ZM100 381L1948 381L1948 637L100 637ZM100 819L1948 819L1948 1075L100 1075ZM100 1256L1948 1256L1948 1512L100 1512ZM100 1694L1948 1694L1948 1950L100 1950Z" />
<glyph glyph-name="space" unicode="&#x20;" horiz-adv-x="415" d="" />
<glyph glyph-name="exclam" unicode="&#x21;" horiz-adv-x="583" d="M180 1443L196 478L387 478L403 1443ZM291 -15C366 -15 423 41 423 114C423 187 366 243 291 243C218 243 160 187 160 114C160 41 218 -15 291 -15Z" />
<glyph glyph-name="quotedbl" unicode="&#x22;" horiz-adv-x="851" d="M318 915L318 1443L125 1443L125 915ZM725 915L725 1443L533 1443L533 915Z" />
<glyph glyph-name="numbersign" unicode="&#x23;" horiz-adv-x="1257" d="M625 0L797 0L877 395L1132 395L1164 564L910 564L978 895L1225 895L1257 1063L1013 1063L1090 1443L919 1443L841 1063L539 1063L615 1443L445 1443L366 1063L125 1063L91 895L332 895L266 564L33 564L0 395L231 395L152 0L322 0L402 395L705 395ZM429 556L499 902L814 902L743 556Z" />
<glyph glyph-name="dollar" unicode="&#x24;" horiz-adv-x="1270" d="M707 -137L707 -4C1000 20 1169 173 1169 416C1169 624 1048 749 800 811L707 832L707 1279C840 1262 931 1173 935 1060L1144 1060C1138 1281 968 1439 707 1461L707 1600L570 1600L570 1461C299 1436 134 1284 134 1056C134 862 257 728 481 672L570 649L570 176C419 193 323 278 313 401L101 401C102 170 285 14 570 -5L570 -137ZM957 396C957 264 866 182 707 173L707 623C879 587 957 515 957 396ZM348 1071C348 1186 442 1272 570 1279L570 861C426 891 348 963 348 1071Z" />
<glyph glyph-name="percent" unicode="&#x25;" horiz-adv-x="1560" d="M673 1100C673 1322 550 1464 361 1464C171 1464 48 1322 48 1100C48 878 171 736 361 736C550 736 673 878 673 1100ZM361 877C281 877 231 962 231 1101C231 1239 281 1324 361 1324C440 1324 490 1239 490 1101C490 962 440 877 361 877ZM352 0L863 699L1406 1443L1209 1443L712 763L154 0ZM1512 347C1512 570 1390 712 1200 712C1010 712 888 570 888 347C888 125 1010 -17 1200 -17C1390 -17 1512 125 1512 347ZM1200 125C1120 125 1071 209 1071 348C1071 487 1120 571 1200 571C1280 571 1329 487 1329 348C1329 209 1280 125 1200 125Z" />
<glyph glyph-name="ampersand" unicode="&#x26;" horiz-adv-x="1394" d="M1149 0L1412 0L1153 273C1232 391 1273 549 1273 753L1273 814L1079 814L1079 759C1079 601 1059 494 1017 416L689 769C902 882 992 993 992 1140C992 1330 835 1465 614 1465C396 1465 234 1326 234 1140C234 1034 283 943 413 806C406 804 378 788 354 776C166 675 77 549 77 382C77 140 275 -25 568 -25C740 -25 907 34 1024 136ZM477 659C486 664 510 677 522 683L901 269C832 195 709 148 589 148C410 148 289 248 289 398C289 501 343 576 477 659ZM579 882C472 988 433 1053 433 1128C433 1231 509 1305 615 1305C724 1305 797 1233 797 1129C797 1032 737 963 579 882Z" />
<glyph glyph-name="quotesingle" unicode="&#x27;" horiz-adv-x="443" d="M318 915L318 1443L125 1443L125 915Z" />
<glyph glyph-name="parenleft" unicode="&#x28;" horiz-adv-x="704" d="M187 567C187 219 279 -63 476 -308L666 -308C522 -140 409 239 409 568C409 897 522 1275 666 1443L476 1443C279 1199 187 917 187 567Z" />
<glyph glyph-name="parenright" unicode="&#x29;" horiz-adv-x="704" d="M517 567C517 1006 375 1262 228 1443L38 1443C137 1328 295 1000 295 568C295 136 138 -192 38 -308L228 -308C375 -126 517 130 517 567Z" />
<glyph glyph-name="asterisk" unicode="&#x2a;" horiz-adv-x="990" d="M795 868L869 1001L615 1124L869 1249L795 1382L557 1228L572 1510L423 1510L437 1228L198 1381L126 1249L377 1125L125 1002L197 867L438 1024L422 739L571 739L556 1024Z" />
<glyph glyph-name="plus" unicode="&#x2b;" horiz-adv-x="1270" d="M734 475L1154 475L1154 670L734 670L734 1112L536 1112L536 670L116 670L116 475L536 475L536 24L734 24Z" />
<glyph glyph-name="comma" unicode="&#x2c;" horiz-adv-x="538" d="M260 -297L396 231L178 231L88 -297Z" />
<glyph glyph-name="hyphen" unicode="&#x2d;" horiz-adv-x="888" d="M772 488L772 683L116 683L116 488Z" />
<glyph glyph-name="period" unicode="&#x2e;" horiz-adv-x="538" d="M269 -11C342 -11 400 47 400 120C400 193 342 251 269 251C196 251 138 193 138 120C138 47 196 -11 269 -11Z" />
<glyph glyph-name="slash" unicode="&#x2f;" horiz-adv-x="704" d="M192 -308L704 1443L512 1443L0 -308Z" />
<glyph glyph-name="zero" unicode="&#x30;" horiz-adv-x="1275" d="M638 -27C984 -27 1187 264 1187 724C1187 1181 983 1470 638 1470C294 1470 87 1180 87 723C87 263 292 -27 638 -27ZM638 161C432 161 314 375 314 723C314 1066 434 1282 638 1282C842 1282 961 1067 961 723C961 374 844 161 638 161Z" />
<glyph glyph-name="one" unicode="&#x31;" horiz-adv-x="935" d="M477 0L696 0L696 1443L475 1443L95 1173L95 953L472 1221L477 1221Z" />
<glyph glyph-name="two" unicode="&#x32;" horiz-adv-x="1186" d="M100 1020L100 1018L312 1018L312 1021C312 1171 431 1285 589 1285C739 1285 855 1183 855 1055C855 942 809 866 633 683L112 152L112 0L1099 0L1099 189L414 189L414 194L775 557C986 773 1076 898 1076 1066C1076 1295 871 1470 596 1470C309 1470 100 1280 100 1020Z" />
<glyph glyph-name="three" unicode="&#x33;" horiz-adv-x="1240" d="M426 653L606 653C796 653 914 557 914 401C914 260 788 160 612 160C430 160 316 255 302 393L87 393C101 144 301 -27 612 -27C913 -27 1142 146 1142 398C1142 600 1002 733 785 748L785 752C964 784 1082 913 1082 1093C1082 1315 883 1470 610 1470C324 1470 133 1307 116 1054L327 1054C340 1196 444 1286 600 1286C771 1286 863 1197 863 1063C863 927 756 829 600 829L426 829Z" />
<glyph glyph-name="four" unicode="&#x34;" horiz-adv-x="1271" d="M798 0L1013 0L1013 285L1211 285L1211 473L1013 473L1013 1443L689 1443C364 973 200 714 76 481L76 285L798 285ZM285 475C400 684 546 909 796 1270L800 1270L800 470L285 470Z" />
<glyph glyph-name="five" unicode="&#x35;" horiz-adv-x="1228" d="M629 -27C940 -27 1158 178 1158 474C1158 754 959 957 682 957C541 957 423 902 360 811L355 811L395 1254L1074 1254L1074 1443L215 1443L139 627L344 627C400 722 508 779 633 779C813 779 939 649 939 468C939 287 813 160 631 160C470 160 347 258 331 401L117 401C130 149 341 -27 629 -27Z" />
<glyph glyph-name="six" unicode="&#x36;" horiz-adv-x="1259" d="M655 -28C961 -28 1182 182 1182 471C1182 745 978 948 703 948C523 948 370 854 307 714L303 714C304 1077 436 1283 663 1283C795 1283 903 1206 938 1088L1162 1088C1118 1318 920 1471 665 1471C304 1471 88 1185 88 702C88 533 118 391 177 276C271 81 442 -28 655 -28ZM653 161C481 161 348 297 348 468C348 639 479 765 655 765C832 765 959 639 959 464C959 295 823 161 653 161Z" />
<glyph glyph-name="seven" unicode="&#x37;" horiz-adv-x="1139" d="M192 0L427 0L1054 1249L1054 1443L72 1443L72 1254L833 1254L833 1249Z" />
<glyph glyph-name="eight" unicode="&#x38;" horiz-adv-x="1266" d="M633 -27C953 -27 1179 145 1179 390C1179 573 1050 721 858 761L858 766C1018 812 1120 936 1120 1089C1120 1310 917 1470 633 1470C350 1470 145 1309 145 1090C145 935 248 810 408 766L408 761C217 721 87 574 87 390C87 146 311 -27 633 -27ZM633 153C449 153 318 259 318 406C318 554 449 661 633 661C817 661 947 555 947 406C947 259 817 153 633 153ZM633 841C476 841 367 935 367 1066C367 1198 476 1292 633 1292C789 1292 899 1198 899 1066C899 935 788 841 633 841Z" />
<glyph glyph-name="nine" unicode="&#x39;" horiz-adv-x="1260" d="M596 -27C958 -27 1172 259 1172 742C1172 911 1142 1053 1083 1168C990 1362 818 1471 604 1471C299 1471 77 1261 77 972C77 698 282 495 556 495C742 495 894 589 952 731C952 731 953 731 953 731C953 731 954 731 954 731C955 731 956 731 956 731C956 367 824 159 599 159C466 159 356 238 322 356L97 356C140 127 339 -27 596 -27ZM604 678C429 678 300 806 300 979C300 1147 435 1280 607 1280C779 1280 913 1146 913 975C913 805 781 678 604 678Z" />
<glyph glyph-name="colon" unicode="&#x3a;" horiz-adv-x="538" d="M269 -11C342 -11 400 47 400 120C400 193 342 251 269 251C196 251 138 193 138 120C138 47 196 -11 269 -11ZM269 718C342 718 400 775 400 849C400 922 342 980 269 980C196 980 138 922 138 849C138 775 196 718 269 718Z" />
<glyph glyph-name="semicolon" unicode="&#x3b;" horiz-adv-x="538" d="M269 718C342 718 400 775 400 849C400 922 342 980 269 980C196 980 138 922 138 849C138 775 196 718 269 718ZM258 -297L394 231L175 231L86 -297Z" />
<glyph glyph-name="less" unicode="&#x3c;" horiz-adv-x="1270" d="M1088 953L1088 1177L182 658L182 486L1088 -4L1088 220L399 573L399 582Z" />
<glyph glyph-name="equal" unicode="&#x3d;" horiz-adv-x="1270" d="M1136 272L1136 461L134 461L134 272ZM1136 685L1136 874L134 874L134 685Z" />
<glyph glyph-name="greater" unicode="&#x3e;" horiz-adv-x="1270" d="M182 954L871 583L871 574L182 221L182 -3L1088 487L1088 659L182 1178Z" />
<glyph glyph-name="question" unicode="&#x3f;" horiz-adv-x="1035" d="M55 1056L262 1056C271 1188 360 1271 498 1271C635 1271 724 1188 724 1075C724 972 681 914 560 841C423 759 362 669 367 528L368 448L575 448L575 509C575 612 612 665 741 741C873 820 951 929 951 1084C951 1298 773 1455 509 1455C219 1455 64 1283 55 1056ZM473 -15C548 -15 605 41 605 114C605 187 548 243 473 243C400 243 342 187 342 114C342 41 400 -15 473 -15Z" />
<glyph glyph-name="at" unicode="&#x40;" horiz-adv-x="1798" d="M890 863C1016 863 1096 761 1096 600C1096 439 1015 337 889 337C767 337 693 437 693 600C693 765 767 863 890 863ZM925 1440C434 1440 92 1104 92 606C92 76 447 -228 941 -228C1063 -228 1176 -212 1261 -184L1261 -46C1199 -72 1072 -89 948 -89C542 -89 248 159 248 600C248 1012 526 1302 914 1302C1305 1302 1572 1061 1572 697C1572 455 1491 317 1380 317C1308 317 1273 362 1273 428L1273 996L1104 996L1104 875L1093 875C1055 961 960 1016 853 1016C650 1016 509 848 509 605C509 351 649 181 857 181C974 181 1064 237 1106 338L1116 338C1132 239 1229 174 1346 174C1584 174 1728 383 1728 702C1728 1144 1393 1440 925 1440Z" />
<glyph glyph-name="A" unicode="&#x41;" horiz-adv-x="1336" d="M1073 0L1310 0L789 1443L547 1443L26 0L259 0L391 390L941 390ZM663 1203L669 1203L884 570L448 570Z" />
<glyph glyph-name="B" unicode="&#x42;" horiz-adv-x="1264" d="M712 0C1019 0 1204 154 1204 408C1204 600 1072 739 876 761L876 769C1020 793 1133 930 1133 1083C1133 1301 965 1443 709 1443L133 1443L133 0ZM357 1260L655 1260C817 1260 909 1186 909 1052C909 909 802 829 608 829L357 829ZM357 183L357 658L653 658C865 658 975 578 975 422C975 266 868 183 666 183Z" />
<glyph glyph-name="C" unicode="&#x43;" horiz-adv-x="1424" d="M742 -24C1074 -24 1300 151 1355 449L1132 449C1087 275 944 172 743 172C478 172 310 385 310 722C310 1056 480 1271 742 1271C938 1271 1092 1150 1132 965L1354 965C1316 1266 1069 1467 742 1467C339 1467 81 1179 81 722C81 262 337 -24 742 -24Z" />
<glyph glyph-name="D" unicode="&#x44;" horiz-adv-x="1405" d="M133 1443L133 0L642 0C1072 0 1325 268 1325 724C1325 1179 1071 1443 642 1443ZM357 1250L621 1250C926 1250 1096 1062 1096 722C1096 381 927 194 621 194L357 194Z" />
<glyph glyph-name="E" unicode="&#x45;" horiz-adv-x="1146" d="M1049 194L357 194L357 642L1012 642L1012 828L357 828L357 1250L1049 1250L1049 1443L133 1443L133 0L1049 0Z" />
<glyph glyph-name="F" unicode="&#x46;" horiz-adv-x="1096" d="M357 0L357 604L977 604L977 793L357 793L357 1250L1034 1250L1034 1443L133 1443L133 0Z" />
<glyph glyph-name="G" unicode="&#x47;" horiz-adv-x="1462" d="M1376 600L1376 747L782 747L782 566L1155 566L1155 541C1152 322 990 172 756 172C481 172 310 385 310 730C310 1069 476 1271 752 1271C940 1271 1081 1168 1135 989L1365 989C1315 1277 1072 1467 751 1467C340 1467 81 1183 81 728C81 265 341 -24 754 -24C1145 -24 1376 209 1376 600Z" />
<glyph glyph-name="H" unicode="&#x48;" horiz-adv-x="1454" d="M1322 0L1322 1443L1098 1443L1098 833L357 833L357 1443L133 1443L133 0L357 0L357 639L1098 639L1098 0Z" />
<glyph glyph-name="I" unicode="&#x49;" horiz-adv-x="490" d="M357 0L357 1443L133 1443L133 0Z" />
<glyph glyph-name="J" unicode="&#x4a;" horiz-adv-x="1060" d="M38 370C38 130 215 -32 475 -32C756 -32 924 134 924 420L924 1443L700 1443L700 421C700 256 620 168 473 168C348 168 261 250 258 370Z" />
<glyph glyph-name="K" unicode="&#x4b;" horiz-adv-x="1293" d="M357 0L357 481L505 650L1005 0L1283 0L663 804L1235 1443L969 1443L366 756L357 756L357 1443L133 1443L133 0Z" />
<glyph glyph-name="L" unicode="&#x4c;" horiz-adv-x="1088" d="M1029 194L357 194L357 1443L133 1443L133 0L1029 0Z" />
<glyph glyph-name="M" unicode="&#x4d;" horiz-adv-x="1726" d="M1593 0L1593 1443L1333 1443L867 304L859 304L392 1443L133 1443L133 0L337 0L337 1062L344 1062L780 11L946 11L1381 1062L1388 1062L1388 0Z" />
<glyph glyph-name="N" unicode="&#x4e;" horiz-adv-x="1443" d="M351 0L351 1063L360 1063L1108 0L1310 0L1310 1443L1092 1443L1092 379L1084 379L336 1443L133 1443L133 0Z" />
<glyph glyph-name="O" unicode="&#x4f;" horiz-adv-x="1513" d="M757 1467C341 1467 81 1180 81 721C81 262 341 -24 757 -24C1172 -24 1433 262 1433 721C1433 1180 1172 1467 757 1467ZM757 1270C1031 1270 1203 1058 1203 721C1203 385 1031 173 757 173C483 173 310 385 310 721C310 1058 483 1270 757 1270Z" />
<glyph glyph-name="P" unicode="&#x50;" horiz-adv-x="1212" d="M133 1443L133 0L357 0L357 493L667 493C950 493 1149 687 1149 969C1149 1250 954 1443 674 1443ZM357 1254L615 1254C809 1254 920 1150 920 968C920 786 809 681 614 681L357 681Z" />
<glyph glyph-name="Q" unicode="&#x51;" horiz-adv-x="1513" d="M757 -24C850 -24 936 -10 1013 19L1136 -153L1370 -153L1182 114C1343 239 1433 451 1433 721C1433 1179 1172 1467 757 1467C341 1467 81 1179 81 721C81 261 341 -24 757 -24ZM757 172C483 172 310 385 310 721C310 1058 483 1271 757 1271C1031 1271 1203 1058 1203 721C1203 535 1147 388 1049 297L947 435L720 435L892 192C850 179 805 172 757 172Z" />
<glyph glyph-name="R" unicode="&#x52;" horiz-adv-x="1257" d="M357 1255L665 1255C838 1255 943 1157 943 996C943 831 844 736 671 736L357 736ZM357 555L665 555L665 555L959 0L1217 0L894 590C1070 649 1174 807 1174 1002C1174 1271 989 1443 692 1443L133 1443L133 0L357 0Z" />
<glyph glyph-name="S" unicode="&#x53;" horiz-adv-x="1244" d="M69 402C83 141 299 -24 619 -24C961 -24 1176 145 1176 415C1176 626 1053 745 757 815L598 854C412 900 336 960 336 1062C336 1190 455 1278 629 1278C803 1278 922 1191 935 1047L1153 1047C1146 1296 937 1467 632 1467C324 1467 107 1296 107 1047C107 846 230 722 495 658L682 613C869 567 948 500 948 388C948 259 817 165 635 165C445 165 306 259 290 402Z" />
<glyph glyph-name="T" unicode="&#x54;" horiz-adv-x="1205" d="M715 0L715 1250L1156 1250L1156 1443L49 1443L49 1250L491 1250L491 0Z" />
<glyph glyph-name="U" unicode="&#x55;" horiz-adv-x="1434" d="M357 1443L133 1443L133 507C133 196 355 -24 717 -24C1079 -24 1301 196 1301 507L1301 1443L1078 1443L1078 526C1078 320 947 175 717 175C487 175 357 320 357 526Z" />
<glyph glyph-name="V" unicode="&#x56;" horiz-adv-x="1327" d="M786 0L1301 1443L1062 1443L668 252L662 252L269 1443L26 1443L541 0Z" />
<glyph glyph-name="W" unicode="&#x57;" horiz-adv-x="1923" d="M956 1088L966 1088L1278 0L1489 0L1879 1443L1646 1443L1379 313L1371 313L1065 1443L857 1443L552 313L544 313L277 1443L44 1443L433 0L645 0Z" />
<glyph glyph-name="X" unicode="&#x58;" horiz-adv-x="1337" d="M44 0L292 0L656 550L663 550L1022 0L1284 0L804 716L804 722L1293 1443L1040 1443L680 885L672 885L316 1443L49 1443L523 730L523 723Z" />
<glyph glyph-name="Y" unicode="&#x59;" horiz-adv-x="1293" d="M758 0L758 591L1267 1443L1019 1443L651 806L644 806L276 1443L26 1443L534 591L534 0Z" />
<glyph glyph-name="Z" unicode="&#x5a;" horiz-adv-x="1273" d="M95 0L1179 0L1179 194L373 194L373 201L1160 1290L1160 1443L119 1443L119 1250L885 1250L885 1242L95 153Z" />
<glyph glyph-name="bracketleft" unicode="&#x5b;" horiz-adv-x="704" d="M205 1443L205 -308L682 -308L682 -144L413 -144L413 1279L682 1279L682 1443Z" />
<glyph glyph-name="backslash" unicode="&#x5c;" horiz-adv-x="704" d="M510 -308L704 -308L194 1443L0 1443Z" />
<glyph glyph-name="bracketright" unicode="&#x5d;" horiz-adv-x="704" d="M499 1443L22 1443L22 1279L291 1279L291 -144L22 -144L22 -308L499 -308Z" />
<glyph glyph-name="asciicircum" unicode="&#x5e;" horiz-adv-x="926" d="M454 1256L471 1256L675 814L874 814L571 1436L356 1436L51 814L248 814Z" />
<glyph glyph-name="underscore" unicode="&#x5f;" horiz-adv-x="838" d="M890 -267L890 -107L-51 -107L-51 -267Z" />
<glyph glyph-name="grave" unicode="&#x60;" horiz-adv-x="1007" d="M721 1286L507 1589L290 1589L540 1286Z" />
<glyph glyph-name="a" unicode="&#x61;" horiz-adv-x="1061" d="M475 153C359 153 283 213 283 305C283 395 356 452 485 461L744 477L744 394C744 257 626 153 475 153ZM415 -18C553 -18 686 56 747 173L752 173L752 0L959 0L959 725C959 936 796 1071 541 1071C281 1071 119 931 107 741L311 741C330 835 408 895 533 895C665 895 744 825 744 708L744 627L456 610C206 596 65 483 65 299C65 110 209 -18 415 -18Z" />
<glyph glyph-name="b" unicode="&#x62;" horiz-adv-x="1167" d="M667 -18C934 -18 1106 192 1106 526C1106 859 933 1069 668 1069C519 1069 399 995 336 873L331 873L331 1443L115 1443L115 0L325 0L325 179L329 179C394 57 513 -18 667 -18ZM609 887C779 887 884 747 884 526C884 303 779 165 609 165C445 165 330 307 330 526C330 743 445 887 609 887Z" />
<glyph glyph-name="c" unicode="&#x63;" horiz-adv-x="1058" d="M1010 690C991 897 826 1071 555 1071C256 1071 60 860 60 526C60 186 256 -20 557 -20C810 -20 989 132 1012 356L804 356C779 234 692 161 559 161C391 161 280 295 280 526C280 752 390 891 557 891C698 891 782 802 804 690Z" />
<glyph glyph-name="d" unicode="&#x64;" horiz-adv-x="1165" d="M502 -18C655 -18 775 59 837 179L841 179L841 0L1051 0L1051 1443L834 1443L834 877L830 877C771 993 651 1069 500 1069C236 1069 60 858 60 526C60 194 236 -18 502 -18ZM559 887C725 887 836 744 836 526C836 306 725 165 559 165C388 165 281 304 281 526C281 747 388 887 559 887Z" />
<glyph glyph-name="e" unicode="&#x65;" horiz-adv-x="1081" d="M547 897C698 897 800 784 805 623L279 623C290 782 396 897 547 897ZM804 309C775 217 684 155 561 155C388 155 278 276 278 459L278 472L1021 472L1021 546C1021 865 839 1071 547 1071C250 1071 60 851 60 521C60 189 247 -20 556 -20C797 -20 979 117 1009 309Z" />
<glyph glyph-name="f" unicode="&#x66;" horiz-adv-x="660" d="M170 0L387 0L387 881L597 881L597 1050L384 1050L384 1149C384 1242 428 1289 522 1289C551 1289 580 1287 601 1283L601 1443C573 1448 524 1453 480 1453C266 1453 170 1357 170 1153L170 1050L25 1050L25 881L170 881Z" />
<glyph glyph-name="g" unicode="&#x67;" horiz-adv-x="1157" d="M555 175C389 175 281 309 281 529C281 748 389 887 555 887C724 887 835 745 835 529C835 312 724 175 555 175ZM557 -396C857 -396 1051 -232 1051 19L1051 1052L841 1052L841 872L837 872C773 994 651 1069 502 1069C232 1069 60 861 60 530C60 202 233 -4 497 -4C647 -4 771 71 830 185L834 185L834 12C834 -132 734 -228 565 -228C442 -228 346 -170 315 -82L98 -82C125 -264 309 -396 557 -396Z" />
<glyph glyph-name="h" unicode="&#x68;" horiz-adv-x="1137" d="M115 0L331 0L331 608C331 774 429 884 589 884C741 884 819 791 819 636L819 0L1036 0L1036 678C1036 916 898 1070 667 1070C507 1070 392 999 334 876L329 876L329 1443L115 1443Z" />
<glyph glyph-name="i" unicode="&#x69;" horiz-adv-x="444" d="M114 0L330 0L330 1052L114 1052ZM222 1206C292 1206 348 1261 348 1329C348 1398 292 1453 222 1453C153 1453 97 1398 97 1329C97 1261 153 1206 222 1206Z" />
<glyph glyph-name="j" unicode="&#x6a;" horiz-adv-x="444" d="M330 1052L114 1052L114 -49C114 -155 74 -195 -33 -195C-37 -195 -60 -194 -64 -194L-64 -364C-58 -366 -24 -366 -14 -366C219 -366 330 -264 330 -50ZM222 1206C292 1206 348 1261 348 1329C348 1398 292 1453 222 1453C153 1453 97 1398 97 1329C97 1261 153 1206 222 1206Z" />
<glyph glyph-name="k" unicode="&#x6b;" horiz-adv-x="1033" d="M333 601L331 601L331 1443L115 1443L115 0L331 0L331 378L421 467L778 0L1029 0L576 599L1012 1052L758 1052Z" />
<glyph glyph-name="l" unicode="&#x6c;" horiz-adv-x="446" d="M115 0L331 0L331 1443L115 1443Z" />
<glyph glyph-name="m" unicode="&#x6d;" horiz-adv-x="1689" d="M107 0L323 0L323 650C323 785 414 885 542 885C664 885 741 808 741 687L741 0L953 0L953 657C953 790 1042 885 1170 885C1298 885 1371 807 1371 671L1371 0L1588 0L1588 723C1588 932 1452 1070 1244 1070C1094 1070 970 992 916 864L911 864C869 995 763 1070 617 1070C475 1070 365 992 318 875L313 875L313 1052L107 1052Z" />
<glyph glyph-name="n" unicode="&#x6e;" horiz-adv-x="1115" d="M107 0L323 0L323 613C323 776 421 884 573 884C723 884 797 797 797 639L797 0L1014 0L1014 681C1014 922 881 1070 649 1070C487 1070 375 996 318 876L313 876L313 1052L107 1052Z" />
<glyph glyph-name="o" unicode="&#x6f;" horiz-adv-x="1118" d="M559 -20C860 -20 1058 187 1058 526C1058 864 859 1071 559 1071C259 1071 60 864 60 526C60 187 258 -20 559 -20ZM559 158C390 158 280 292 280 526C280 759 390 893 559 893C728 893 838 759 838 526C838 292 729 158 559 158Z" />
<glyph glyph-name="p" unicode="&#x70;" horiz-adv-x="1157" d="M655 1069C503 1069 382 992 320 871L316 871L316 1052L107 1052L107 -348L323 -348L323 173L328 173C388 56 508 -18 659 -18C923 -18 1098 193 1098 526C1098 859 922 1069 655 1069ZM598 165C432 165 322 307 322 526C322 743 433 887 598 887C769 887 876 746 876 526C876 305 769 165 598 165Z" />
<glyph glyph-name="q" unicode="&#x71;" horiz-adv-x="1157" d="M502 1069C233 1069 60 858 60 526C60 194 233 -18 497 -18C647 -18 770 59 830 177L834 177L834 -348L1051 -348L1051 1052L841 1052L841 871L836 871C774 992 654 1069 502 1069ZM555 165C386 165 281 303 281 526C281 749 386 887 555 887C721 887 835 744 835 526C835 307 721 165 555 165Z" />
<glyph glyph-name="r" unicode="&#x72;" horiz-adv-x="672" d="M107 0L323 0L323 630C323 779 409 872 548 872C590 872 628 867 645 860L645 1061C629 1064 602 1069 571 1069C447 1069 353 996 318 873L313 873L313 1052L107 1052Z" />
<glyph glyph-name="s" unicode="&#x73;" horiz-adv-x="990" d="M88 754C88 607 184 508 374 462L562 416C672 388 712 351 712 284C712 199 632 145 502 145C370 145 292 201 275 302L61 302C78 109 243 -20 492 -20C750 -20 929 112 929 304C929 459 849 539 637 590L460 631C351 658 299 702 299 767C299 850 377 907 494 907C615 907 692 848 702 753L905 753C898 940 734 1071 500 1071C254 1071 88 942 88 754Z" />
<glyph glyph-name="t" unicode="&#x74;" horiz-adv-x="657" d="M170 1301L170 1052L17 1052L17 881L170 881L170 277C170 74 253 -7 466 -7C514 -7 562 -3 586 3L586 174C572 171 537 169 515 169C427 169 387 210 387 301L387 881L587 881L587 1052L387 1052L387 1301Z" />
<glyph glyph-name="u" unicode="&#x75;" horiz-adv-x="1115" d="M1009 1052L793 1052L793 439C793 275 699 167 543 167C394 167 318 253 318 413L318 1052L102 1052L102 371C102 130 242 -19 471 -19C632 -19 739 52 797 178L802 178L802 0L1009 0Z" />
<glyph glyph-name="v" unicode="&#x76;" horiz-adv-x="1022" d="M1005 1052L779 1052L515 211L511 211L247 1052L17 1052L396 0L628 0Z" />
<glyph glyph-name="w" unicode="&#x77;" horiz-adv-x="1520" d="M1495 1052L1281 1052L1089 224L1084 224L864 1052L656 1052L437 224L433 224L241 1052L25 1052L314 0L537 0L756 788L761 788L982 0L1207 0Z" />
<glyph glyph-name="x" unicode="&#x78;" horiz-adv-x="1004" d="M501 387L733 0L971 0L630 532L975 1052L737 1052L510 671L506 671L276 1052L34 1052L376 525L29 0L263 0L496 387Z" />
<glyph glyph-name="y" unicode="&#x79;" horiz-adv-x="1037" d="M211 -392C430 -392 533 -310 623 -55L1018 1052L790 1052L523 196L520 196L253 1052L19 1052L399 -1C399 -2 380 -64 380 -66C347 -174 294 -216 193 -216C175 -216 139 -216 123 -212L123 -387C139 -390 194 -392 211 -392Z" />
<glyph glyph-name="z" unicode="&#x7a;" horiz-adv-x="986" d="M85 0L900 0L900 172L347 172L347 176L894 904L894 1052L89 1052L89 880L646 880L646 876L85 139Z" />
<glyph glyph-name="braceleft" unicode="&#x7b;" horiz-adv-x="704" d="M217 554L217 581C372 597 451 676 451 820L451 1062C451 1215 505 1276 641 1276L682 1276L682 1443L620 1443C362 1443 246 1332 246 1089L246 888C246 733 187 679 22 678L22 457C188 456 246 402 246 247L246 48C246 -196 363 -308 620 -308L682 -308L682 -142L641 -142C505 -142 451 -81 451 73L451 315C451 459 372 538 217 554Z" />
<glyph glyph-name="bar" unicode="&#x7c;" horiz-adv-x="704" d="M448 -308L448 1443L256 1443L256 -308Z" />
<glyph glyph-name="braceright" unicode="&#x7d;" horiz-adv-x="704" d="M487 554C334 539 253 459 253 313L253 72C253 -80 198 -142 63 -142L22 -142L22 -308L84 -308C341 -308 458 -194 458 55L458 249C458 402 515 456 682 457L682 678C517 679 458 733 458 888L458 1089C458 1332 341 1443 84 1443L22 1443L22 1276L63 1276C199 1276 253 1215 253 1062L253 820C253 676 332 597 487 581Z" />
<glyph glyph-name="asciitilde" unicode="&#x7e;" horiz-adv-x="1270" d="M590 632C678 543 753 506 840 506C1037 506 1155 649 1150 879L966 879C960 761 915 700 833 700C789 700 748 725 683 793C594 881 518 920 431 920C234 920 116 777 120 547L305 547C311 665 356 726 437 726C483 726 522 701 590 632Z" />
<glyph glyph-name="nonbreakingspace" unicode="&#xa0;" horiz-adv-x="415" d="" />
<glyph glyph-name="exclamdown" unicode="&#xa1;" horiz-adv-x="583" d="M180 -335L403 -335L387 630L196 630ZM291 866C366 866 423 923 423 995C423 1069 366 1125 291 1125C218 1125 160 1069 160 995C160 923 218 866 291 866Z" />
<glyph glyph-name="cent" unicode="&#xa2;" horiz-adv-x="1270" d="M1156 539L947 539C920 395 813 333 655 333C467 333 334 489 334 717C334 942 466 1095 655 1095C808 1095 921 1013 947 883L1156 883C1142 1081 971 1243 747 1271L747 1445L549 1445L549 1268C285 1225 114 1012 114 717C114 418 284 204 549 160L549 -17L747 -17L747 157C972 184 1135 335 1156 539Z" />
<glyph glyph-name="sterling" unicode="&#xa3;" horiz-adv-x="1270" d="M425 188L425 193C528 255 622 373 622 533C622 571 616 609 608 646L1004 646L1004 813L554 813C525 893 499 973 499 1056C499 1204 620 1292 824 1292C937 1292 1060 1267 1115 1239L1115 1426C1048 1456 926 1478 804 1478C470 1478 272 1326 272 1069C272 981 301 897 333 813L102 813L102 646L390 646C400 605 407 564 407 522C407 359 279 216 101 181L101 0L1185 0L1185 188Z" />
<glyph glyph-name="currency" unicode="&#xa4;" horiz-adv-x="1270" d="M383 653C383 792 498 907 636 907C775 907 889 792 889 653C889 515 775 400 636 400C498 400 383 515 383 653ZM1145 1036L1017 1163L856 1002C793 1042 717 1066 636 1066C555 1066 479 1042 416 1001L253 1163L126 1036L288 874C248 810 224 734 224 653C224 572 248 497 288 433L126 270L253 143L416 306C480 265 555 241 636 241C717 241 792 264 855 305L1017 143L1145 270L983 432C1024 496 1048 572 1048 653C1048 734 1024 810 984 874Z" />
<glyph glyph-name="yen" unicode="&#xa5;" horiz-adv-x="1270" d="M1022 248L1022 395L748 395L748 550L1022 550L1022 697L810 697L1255 1443L1006 1443L639 808L632 808L264 1443L15 1443L462 697L249 697L249 550L524 550L524 395L249 395L249 248L524 248L524 0L748 0L748 248Z" />
<glyph glyph-name="brokenbar" unicode="&#xa6;" horiz-adv-x="704" d="M448 743L448 1443L256 1443L256 743ZM448 -308L448 392L256 392L256 -308Z" />
<glyph glyph-name="section" unicode="&#xa7;" horiz-adv-x="990" d="M435 418C333 442 274 500 274 575C274 667 359 745 465 749L557 725C660 700 717 644 717 567C717 472 634 397 527 393ZM498 -267C746 -267 918 -134 918 57C918 188 838 272 675 317L675 334C821 366 921 480 921 615C921 751 826 838 611 901L459 946C334 982 282 1025 282 1095C282 1183 364 1242 487 1242C603 1242 686 1188 698 1107L899 1107C879 1292 720 1409 490 1409C242 1409 75 1280 75 1088C75 963 145 875 290 815L290 798C151 758 69 660 69 534C69 393 164 304 381 242L534 196C660 161 714 117 714 48C714 -40 629 -99 505 -99C385 -99 295 -42 283 44L79 44C91 -140 262 -267 498 -267Z" />
<glyph glyph-name="dieresis" unicode="&#xa8;" horiz-adv-x="1006" d="M311 1293C376 1293 429 1345 429 1410C429 1475 376 1527 311 1527C245 1527 192 1475 192 1410C192 1345 245 1293 311 1293ZM696 1293C761 1293 814 1345 814 1410C814 1475 761 1527 696 1527C630 1527 577 1475 577 1410C577 1345 630 1293 696 1293Z" />
<glyph glyph-name="copyright" unicode="&#xa9;" horiz-adv-x="1703" d="M851 -158C1296 -158 1643 186 1643 635C1643 1085 1296 1427 851 1427C409 1427 60 1085 60 635C60 186 409 -158 851 -158ZM851 -9C493 -9 209 269 209 635C209 1002 493 1278 851 1278C1212 1278 1493 1002 1493 635C1493 269 1212 -9 851 -9ZM1225 765C1203 924 1073 1048 867 1048C630 1048 478 889 478 636C478 380 630 221 869 221C1073 221 1203 336 1225 499L1069 499C1047 408 972 358 868 358C731 358 641 462 641 636C641 808 730 911 868 911C979 911 1049 847 1069 765Z" />
<glyph glyph-name="ordfeminine" unicode="&#xaa;" horiz-adv-x="754" d="M340 839C265 839 217 875 217 931C217 989 263 1022 349 1028L511 1038L511 984C511 900 438 839 340 839ZM285 706C382 706 472 753 511 829L514 829L514 714L685 714L685 1214C685 1359 565 1454 381 1454C206 1454 81 1359 76 1223L239 1223C250 1280 302 1317 374 1317C461 1317 511 1276 511 1202L511 1151L324 1140C140 1129 40 1054 40 924C40 794 142 706 285 706Z" />
<glyph glyph-name="guillemotleft" unicode="&#xab;" horiz-adv-x="1321" d="M355 572L704 984L476 984L127 569L127 561L475 147L704 147L355 559ZM845 572L1194 984L966 984L617 569L617 561L965 147L1194 147L845 559Z" />
<glyph glyph-name="logicalnot" unicode="&#xac;" horiz-adv-x="1270" d="M1126 673L144 673L144 489L940 489L940 104L1126 104Z" />
<glyph glyph-name="registered" unicode="&#xae;" horiz-adv-x="1166" d="M583 582C858 582 1074 794 1074 1064C1074 1336 858 1547 583 1547C308 1547 93 1335 93 1064C93 794 309 582 583 582ZM583 692C376 692 213 856 213 1064C213 1274 376 1436 583 1436C792 1436 953 1274 953 1064C953 856 792 692 583 692ZM501 845L501 1009L575 1009L681 845L811 845L684 1024C748 1036 787 1088 787 1159C787 1241 720 1300 624 1300L396 1300L396 845ZM501 1213L605 1213C650 1213 675 1193 675 1153C675 1112 648 1088 602 1088L501 1088Z" />
<glyph glyph-name="macron" unicode="&#xaf;" horiz-adv-x="1000" d="M799 1466L201 1466L201 1338L799 1338Z" />
<glyph glyph-name="degree" unicode="&#xb0;" horiz-adv-x="740" d="M369 863C535 863 666 994 666 1160C666 1326 535 1457 369 1457C203 1457 73 1326 73 1160C73 994 203 863 369 863ZM370 1007C288 1007 217 1077 217 1160C217 1245 289 1313 370 1313C455 1313 523 1245 523 1160C523 1077 455 1007 370 1007Z" />
<glyph glyph-name="plusminus" unicode="&#xb1;" horiz-adv-x="1270" d="M1140 99L1140 272L130 272L130 99ZM727 658L1140 658L1140 823L727 823L727 1095L543 1095L543 823L130 823L130 658L543 658L543 386L727 386Z" />
<glyph glyph-name="two.sups" unicode="&#xb2;" horiz-adv-x="635" d="M40 1591L40 1587L211 1587L211 1591C211 1644 251 1684 306 1684C360 1684 398 1652 398 1605C398 1569 379 1539 324 1485L51 1238L51 1114L587 1114L587 1257L293 1257L293 1260L451 1404C546 1490 579 1546 579 1618C579 1740 472 1823 314 1823C150 1823 40 1730 40 1591Z" />
<glyph glyph-name="three.sups" unicode="&#xb3;" horiz-adv-x="662" d="M239 1404L323 1404C387 1404 426 1373 426 1322C426 1275 385 1242 325 1242C263 1242 223 1273 219 1323L42 1323C48 1185 159 1096 324 1096C500 1096 615 1179 615 1306C615 1398 551 1461 446 1471L446 1475C533 1491 590 1553 590 1635C590 1748 485 1823 328 1823C164 1823 56 1734 55 1599L223 1599C225 1651 264 1685 322 1685C381 1685 416 1656 416 1609C416 1562 380 1530 324 1530L239 1530Z" />
<glyph glyph-name="acute" unicode="&#xb4;" horiz-adv-x="1007" d="M466 1286L716 1589L499 1589L285 1286Z" />
<glyph glyph-name="mugreek" unicode="&#xb5;" horiz-adv-x="1215" d="M107 -348L323 -348L323 92L326 92C360 26 442 -19 534 -19C653 -19 749 56 806 177L809 177C811 165 814 153 817 143C851 36 925 -8 1051 -8C1088 -8 1135 -2 1158 6L1157 174C1145 169 1121 165 1101 165C1040 165 1014 199 1014 290L1014 1052L799 1052L799 439C799 274 706 169 545 169C398 169 322 256 322 418L322 1052L107 1052Z" />
<glyph glyph-name="paragraph" unicode="&#xb6;" horiz-adv-x="1299" d="M824 -233L824 1443L589 1443C307 1443 96 1249 96 981C96 724 309 532 588 532L608 532L608 -233ZM979 -233L1195 -233L1195 1443L979 1443Z" />
<glyph glyph-name="periodcentered" unicode="&#xb7;" horiz-adv-x="560" d="M280 480C355 480 413 538 413 614C413 689 355 747 280 747C206 747 147 689 147 614C147 538 206 480 280 480Z" />
<glyph glyph-name="cedilla" unicode="&#xb8;" horiz-adv-x="1007" d="M352 -227L419 -227C516 -227 557 -244 557 -288C557 -331 516 -354 436 -354C395 -354 338 -347 316 -342L316 -451C342 -459 405 -466 463 -465C601 -463 702 -401 702 -284C702 -182 621 -124 497 -123L551 0L551 9L417 9L352 -148Z" />
<glyph glyph-name="one.sups" unicode="&#xb9;" horiz-adv-x="516" d="M243 1114L423 1114L423 1805L240 1805L64 1687L64 1528L240 1647L243 1647Z" />
<glyph glyph-name="ordmasculine" unicode="&#xba;" horiz-adv-x="791" d="M395 703C613 703 750 845 750 1079C750 1311 612 1454 395 1454C179 1454 41 1311 41 1079C41 845 178 703 395 703ZM395 842C287 842 221 929 221 1079C221 1227 286 1315 395 1315C504 1315 570 1227 570 1079C570 929 505 842 395 842Z" />
<glyph glyph-name="guillemotright" unicode="&#xbb;" horiz-adv-x="1321" d="M476 572L476 559L127 147L357 147L704 561L704 569L355 984L127 984ZM966 572L966 559L617 147L847 147L1194 561L1194 569L845 984L617 984Z" />
<glyph glyph-name="onequarter" unicode="&#xbc;" horiz-adv-x="1521" d="M253 753L433 753L433 1444L250 1444L74 1326L74 1167L250 1286L253 1286ZM300 0L811 699L1354 1443L1157 1443L660 763L102 0ZM1225 0L1402 0L1402 108L1487 108L1487 253L1402 253L1402 691L1143 691C1016 498 945 382 884 264L884 108L1225 108ZM1041 249C1083 331 1126 406 1227 566L1230 566L1230 246L1041 246Z" />
<glyph glyph-name="onehalf" unicode="&#xbd;" horiz-adv-x="1520" d="M253 753L433 753L433 1444L250 1444L74 1326L74 1167L250 1286L253 1286ZM300 0L811 699L1354 1443L1157 1443L660 763L102 0ZM939 477L939 473L1110 473L1110 477C1110 530 1150 570 1205 570C1259 570 1297 538 1297 491C1297 455 1278 425 1223 371L950 124L950 0L1486 0L1486 143L1192 143L1192 146L1350 290C1445 376 1478 432 1478 504C1478 626 1371 709 1213 709C1049 709 939 616 939 477Z" />
<glyph glyph-name="threequarters" unicode="&#xbe;" horiz-adv-x="1623" d="M239 1043L323 1043C387 1043 426 1012 426 961C426 914 385 881 325 881C263 881 223 912 219 962L42 962C48 824 159 735 324 735C500 735 615 818 615 945C615 1037 551 1100 446 1110L446 1114C533 1130 590 1192 590 1274C590 1387 485 1462 328 1462C164 1462 56 1373 55 1238L223 1238C225 1290 264 1324 322 1324C381 1324 416 1295 416 1248C416 1201 380 1169 324 1169L239 1169ZM408 0L919 699L1462 1443L1265 1443L768 763L210 0ZM1328 0L1505 0L1505 108L1590 108L1590 253L1505 253L1505 691L1246 691C1119 498 1048 382 987 264L987 108L1328 108ZM1144 249C1186 331 1229 406 1330 566L1333 566L1333 246L1144 246Z" />
<glyph glyph-name="questiondown" unicode="&#xbf;" horiz-adv-x="1035" d="M980 49L772 49C763 -84 674 -167 537 -167C400 -167 311 -84 311 31C311 132 355 190 475 263C613 346 673 435 667 576L666 656L459 656L459 595C459 493 423 440 294 364C162 285 83 176 83 22C83 -193 261 -350 527 -350C815 -350 971 -178 980 49ZM551 866C625 866 683 923 683 995C683 1069 625 1125 551 1125C477 1125 419 1069 419 995C419 923 477 866 551 866Z" />
<glyph glyph-name="Agrave" unicode="&#xc0;" horiz-adv-x="1336" d="M1073 0L1310 0L789 1443L547 1443L26 0L259 0L391 390L941 390ZM663 1203L669 1203L884 570L448 570ZM568 1561L749 1561L527 1856L305 1856Z" />
<glyph glyph-name="Aacute" unicode="&#xc1;" horiz-adv-x="1336" d="M1073 0L1310 0L789 1443L547 1443L26 0L259 0L391 390L941 390ZM663 1203L669 1203L884 570L448 570ZM767 1559L1030 1854L808 1854L586 1559Z" />
<glyph glyph-name="Acircumflex" unicode="&#xc2;" horiz-adv-x="1336" d="M1073 0L1310 0L789 1443L547 1443L26 0L259 0L391 390L941 390ZM663 1203L669 1203L884 570L448 570ZM585 1844L307 1539L493 1539L665 1731L671 1731L843 1539L1029 1539L751 1844Z" />
<glyph glyph-name="Atilde" unicode="&#xc3;" horiz-adv-x="1336" d="M1073 0L1310 0L789 1443L547 1443L26 0L259 0L391 390L941 390ZM663 1203L669 1203L884 570L448 570ZM803 1574C917 1574 1002 1673 1002 1838L869 1838C869 1748 843 1701 800 1701C727 1701 680 1847 538 1847C421 1847 337 1754 337 1586L470 1586C467 1671 495 1720 541 1720C618 1720 669 1574 803 1574Z" />
<glyph glyph-name="Adieresis" unicode="&#xc4;" horiz-adv-x="1336" d="M1073 0L1310 0L789 1443L547 1443L26 0L259 0L391 390L941 390ZM663 1203L669 1203L884 570L448 570ZM476 1592C541 1592 594 1644 594 1709C594 1774 541 1826 476 1826C410 1826 357 1774 357 1709C357 1644 410 1592 476 1592ZM861 1592C926 1592 979 1644 979 1709C979 1774 926 1826 861 1826C795 1826 742 1774 742 1709C742 1644 795 1592 861 1592Z" />
<glyph glyph-name="Aring" unicode="&#xc5;" horiz-adv-x="1336" d="M1073 0L1310 0L789 1443L547 1443L26 0L259 0L391 390L941 390ZM663 1203L669 1203L884 570L448 570ZM668 1517C776 1517 864 1604 864 1712C864 1819 776 1907 668 1907C560 1907 472 1819 472 1712C472 1604 560 1517 668 1517ZM668 1613C614 1613 569 1657 569 1712C569 1766 614 1810 668 1810C722 1810 767 1766 767 1712C767 1657 722 1613 668 1613Z" />
<glyph glyph-name="AE" unicode="&#xc6;" horiz-adv-x="1997" d="M812 1263L963 1263L963 607L514 607ZM963 0L1863 0L1863 193L1178 193L1178 634L1826 634L1826 820L1178 820L1178 1250L1863 1250L1863 1443L674 1443L13 0L240 0L436 428L963 428Z" />
<glyph glyph-name="Ccedilla" unicode="&#xc7;" horiz-adv-x="1424" d="M1132 449C1087 275 944 172 743 172C478 172 310 385 310 722C310 1056 480 1271 742 1271C938 1271 1092 1150 1132 965L1354 965C1316 1266 1069 1467 742 1467C339 1467 81 1179 81 722C81 287 310 8 677 -21L625 -148L625 -227L692 -227C789 -227 830 -244 830 -288C830 -331 789 -354 709 -354C668 -354 611 -347 589 -342L589 -451C615 -459 678 -466 736 -465C874 -463 975 -401 975 -284C975 -182 894 -124 770 -123L815 -21C1107 3 1304 173 1355 449Z" />
<glyph glyph-name="Egrave" unicode="&#xc8;" horiz-adv-x="1146" d="M1049 194L357 194L357 642L1012 642L1012 828L357 828L357 1250L1049 1250L1049 1443L133 1443L133 0L1049 0ZM491 1561L672 1561L450 1856L228 1856Z" />
<glyph glyph-name="Eacute" unicode="&#xc9;" horiz-adv-x="1146" d="M1049 194L357 194L357 642L1012 642L1012 828L357 828L357 1250L1049 1250L1049 1443L133 1443L133 0L1049 0ZM690 1559L953 1854L731 1854L509 1559Z" />
<glyph glyph-name="Ecircumflex" unicode="&#xca;" horiz-adv-x="1146" d="M1049 194L357 194L357 642L1012 642L1012 828L357 828L357 1250L1049 1250L1049 1443L133 1443L133 0L1049 0ZM508 1844L230 1539L416 1539L588 1731L594 1731L766 1539L952 1539L674 1844Z" />
<glyph glyph-name="Edieresis" unicode="&#xcb;" horiz-adv-x="1146" d="M1049 194L357 194L357 642L1012 642L1012 828L357 828L357 1250L1049 1250L1049 1443L133 1443L133 0L1049 0ZM399 1592C464 1592 517 1644 517 1709C517 1774 464 1826 399 1826C333 1826 280 1774 280 1709C280 1644 333 1592 399 1592ZM784 1592C849 1592 902 1644 902 1709C902 1774 849 1826 784 1826C718 1826 665 1774 665 1709C665 1644 718 1592 784 1592Z" />
<glyph glyph-name="Igrave" unicode="&#xcc;" horiz-adv-x="490" d="M357 0L357 1443L133 1443L133 0ZM145 1561L326 1561L104 1856L-118 1856Z" />
<glyph glyph-name="Iacute" unicode="&#xcd;" horiz-adv-x="490" d="M357 0L357 1443L133 1443L133 0ZM344 1559L607 1854L385 1854L163 1559Z" />
<glyph glyph-name="Icircumflex" unicode="&#xce;" horiz-adv-x="490" d="M357 0L357 1443L133 1443L133 0ZM162 1844L-116 1539L70 1539L242 1731L248 1731L420 1539L606 1539L328 1844Z" />
<glyph glyph-name="Idieresis" unicode="&#xcf;" horiz-adv-x="490" d="M357 0L357 1443L133 1443L133 0ZM53 1592C118 1592 171 1644 171 1709C171 1774 118 1826 53 1826C-13 1826 -66 1774 -66 1709C-66 1644 -13 1592 53 1592ZM438 1592C503 1592 556 1644 556 1709C556 1774 503 1826 438 1826C372 1826 319 1774 319 1709C319 1644 372 1592 438 1592Z" />
<glyph glyph-name="Eth" unicode="&#xd0;" horiz-adv-x="1428" d="M372 194L372 648L641 648L641 832L372 832L372 1250L636 1250C941 1250 1111 1062 1111 722C1111 381 942 194 636 194ZM148 1443L148 832L30 832L30 648L148 648L148 0L657 0C1087 0 1340 268 1340 724C1340 1179 1086 1443 657 1443Z" />
<glyph glyph-name="Ntilde" unicode="&#xd1;" horiz-adv-x="1443" d="M351 0L351 1063L360 1063L1108 0L1310 0L1310 1443L1092 1443L1092 379L1084 379L336 1443L133 1443L133 0ZM857 1574C971 1574 1056 1673 1056 1838L923 1838C923 1748 897 1701 854 1701C781 1701 734 1847 592 1847C475 1847 391 1754 391 1586L524 1586C521 1671 549 1720 595 1720C672 1720 723 1574 857 1574Z" />
<glyph glyph-name="Ograve" unicode="&#xd2;" horiz-adv-x="1513" d="M757 1467C341 1467 81 1180 81 721C81 262 341 -24 757 -24C1172 -24 1433 262 1433 721C1433 1180 1172 1467 757 1467ZM757 1270C1031 1270 1203 1058 1203 721C1203 385 1031 173 757 173C483 173 310 385 310 721C310 1058 483 1270 757 1270ZM657 1561L838 1561L616 1856L394 1856Z" />
<glyph glyph-name="Oacute" unicode="&#xd3;" horiz-adv-x="1513" d="M757 1467C341 1467 81 1180 81 721C81 262 341 -24 757 -24C1172 -24 1433 262 1433 721C1433 1180 1172 1467 757 1467ZM757 1270C1031 1270 1203 1058 1203 721C1203 385 1031 173 757 173C483 173 310 385 310 721C310 1058 483 1270 757 1270ZM856 1559L1119 1854L897 1854L675 1559Z" />
<glyph glyph-name="Ocircumflex" unicode="&#xd4;" horiz-adv-x="1513" d="M757 1467C341 1467 81 1180 81 721C81 262 341 -24 757 -24C1172 -24 1433 262 1433 721C1433 1180 1172 1467 757 1467ZM757 1270C1031 1270 1203 1058 1203 721C1203 385 1031 173 757 173C483 173 310 385 310 721C310 1058 483 1270 757 1270ZM674 1844L396 1539L582 1539L754 1731L760 1731L932 1539L1118 1539L840 1844Z" />
<glyph glyph-name="Otilde" unicode="&#xd5;" horiz-adv-x="1513" d="M757 1467C341 1467 81 1180 81 721C81 262 341 -24 757 -24C1172 -24 1433 262 1433 721C1433 1180 1172 1467 757 1467ZM757 1270C1031 1270 1203 1058 1203 721C1203 385 1031 173 757 173C483 173 310 385 310 721C310 1058 483 1270 757 1270ZM892 1574C1006 1574 1091 1673 1091 1838L958 1838C958 1748 932 1701 889 1701C816 1701 769 1847 627 1847C510 1847 426 1754 426 1586L559 1586C556 1671 584 1720 630 1720C707 1720 758 1574 892 1574Z" />
<glyph glyph-name="Odieresis" unicode="&#xd6;" horiz-adv-x="1513" d="M757 1467C341 1467 81 1180 81 721C81 262 341 -24 757 -24C1172 -24 1433 262 1433 721C1433 1180 1172 1467 757 1467ZM757 1270C1031 1270 1203 1058 1203 721C1203 385 1031 173 757 173C483 173 310 385 310 721C310 1058 483 1270 757 1270ZM565 1592C630 1592 683 1644 683 1709C683 1774 630 1826 565 1826C499 1826 446 1774 446 1709C446 1644 499 1592 565 1592ZM950 1592C1015 1592 1068 1644 1068 1709C1068 1774 1015 1826 950 1826C884 1826 831 1774 831 1709C831 1644 884 1592 950 1592Z" />
<glyph glyph-name="multiply" unicode="&#xd7;" horiz-adv-x="1270" d="M636 451L942 145L1071 275L766 581L1071 888L942 1018L636 712L329 1018L199 888L505 581L199 275L329 145Z" />
<glyph glyph-name="Oslash" unicode="&#xd8;" horiz-adv-x="1513" d="M1114 1078C1172 986 1203 865 1203 721C1203 385 1031 173 757 173C661 173 577 199 509 248ZM420 335C349 429 310 561 310 721C310 1058 483 1270 757 1270C867 1270 961 1236 1034 1173ZM1370 1429L1269 1494L1161 1347C1053 1425 916 1467 757 1467C341 1467 81 1180 81 721C81 477 155 282 286 153L188 19L289 -54L383 75C486 11 612 -24 757 -24C1172 -24 1433 262 1433 721C1433 950 1368 1137 1251 1266Z" />
<glyph glyph-name="Ugrave" unicode="&#xd9;" horiz-adv-x="1434" d="M357 1443L133 1443L133 507C133 196 355 -24 717 -24C1079 -24 1301 196 1301 507L1301 1443L1078 1443L1078 526C1078 320 947 175 717 175C487 175 357 320 357 526ZM617 1561L798 1561L576 1856L354 1856Z" />
<glyph glyph-name="Uacute" unicode="&#xda;" horiz-adv-x="1434" d="M357 1443L133 1443L133 507C133 196 355 -24 717 -24C1079 -24 1301 196 1301 507L1301 1443L1078 1443L1078 526C1078 320 947 175 717 175C487 175 357 320 357 526ZM816 1559L1079 1854L857 1854L635 1559Z" />
<glyph glyph-name="Ucircumflex" unicode="&#xdb;" horiz-adv-x="1434" d="M357 1443L133 1443L133 507C133 196 355 -24 717 -24C1079 -24 1301 196 1301 507L1301 1443L1078 1443L1078 526C1078 320 947 175 717 175C487 175 357 320 357 526ZM634 1844L356 1539L542 1539L714 1731L720 1731L892 1539L1078 1539L800 1844Z" />
<glyph glyph-name="Udieresis" unicode="&#xdc;" horiz-adv-x="1434" d="M357 1443L133 1443L133 507C133 196 355 -24 717 -24C1079 -24 1301 196 1301 507L1301 1443L1078 1443L1078 526C1078 320 947 175 717 175C487 175 357 320 357 526ZM525 1592C590 1592 643 1644 643 1709C643 1774 590 1826 525 1826C459 1826 406 1774 406 1709C406 1644 459 1592 525 1592ZM910 1592C975 1592 1028 1644 1028 1709C1028 1774 975 1826 910 1826C844 1826 791 1774 791 1709C791 1644 844 1592 910 1592Z" />
<glyph glyph-name="Yacute" unicode="&#xdd;" horiz-adv-x="1293" d="M758 0L758 591L1267 1443L1019 1443L651 806L644 806L276 1443L26 1443L534 591L534 0ZM745 1559L1008 1854L786 1854L564 1559Z" />
<glyph glyph-name="Thorn" unicode="&#xde;" horiz-adv-x="1267" d="M157 1443L157 0L381 0L381 326L724 326C966 326 1172 486 1172 758C1172 1030 969 1188 731 1188L381 1188L381 1443ZM381 999L668 999C829 999 943 920 943 758C943 595 829 514 668 514L381 514Z" />
<glyph glyph-name="germandbls" unicode="&#xdf;" horiz-adv-x="1246" d="M377 0L377 1034C377 1184 460 1271 604 1271C735 1271 824 1187 824 1064C824 921 743 831 609 831L559 831L559 639L623 639C813 639 925 545 925 397C925 256 823 165 661 165C615 165 569 170 535 180L535 0C575 -10 630 -14 689 -14C965 -14 1141 143 1141 386C1141 584 1020 725 817 750L817 757C950 797 1034 927 1034 1088C1034 1302 855 1452 601 1452C333 1452 162 1301 162 1067L162 0Z" />
<glyph glyph-name="agrave" unicode="&#xe0;" horiz-adv-x="1061" d="M475 153C359 153 283 213 283 305C283 395 356 452 485 461L744 477L744 394C744 257 626 153 475 153ZM415 -18C553 -18 686 56 747 173L752 173L752 0L959 0L959 725C959 936 796 1071 541 1071C281 1071 119 931 107 741L311 741C330 835 408 895 533 895C665 895 744 825 744 708L744 627L456 610C206 596 65 483 65 299C65 110 209 -18 415 -18ZM614 1202L400 1505L183 1505L433 1202Z" />
<glyph glyph-name="aacute" unicode="&#xe1;" horiz-adv-x="1061" d="M475 153C359 153 283 213 283 305C283 395 356 452 485 461L744 477L744 394C744 257 626 153 475 153ZM415 -18C553 -18 686 56 747 173L752 173L752 0L959 0L959 725C959 936 796 1071 541 1071C281 1071 119 931 107 741L311 741C330 835 408 895 533 895C665 895 744 825 744 708L744 627L456 610C206 596 65 483 65 299C65 110 209 -18 415 -18ZM621 1202L871 1505L654 1505L440 1202Z" />
<glyph glyph-name="acircumflex" unicode="&#xe2;" horiz-adv-x="1061" d="M475 153C359 153 283 213 283 305C283 395 356 452 485 461L744 477L744 394C744 257 626 153 475 153ZM415 -18C553 -18 686 56 747 173L752 173L752 0L959 0L959 725C959 936 796 1071 541 1071C281 1071 119 931 107 741L311 741C330 835 408 895 533 895C665 895 744 825 744 708L744 627L456 610C206 596 65 483 65 299C65 110 209 -18 415 -18ZM613 1505L447 1505L178 1198L363 1198L527 1388L533 1388L697 1198L882 1198Z" />
<glyph glyph-name="atilde" unicode="&#xe3;" horiz-adv-x="1061" d="M475 153C359 153 283 213 283 305C283 395 356 452 485 461L744 477L744 394C744 257 626 153 475 153ZM415 -18C553 -18 686 56 747 173L752 173L752 0L959 0L959 725C959 936 796 1071 541 1071C281 1071 119 931 107 741L311 741C330 835 408 895 533 895C665 895 744 825 744 708L744 627L456 610C206 596 65 483 65 299C65 110 209 -18 415 -18ZM668 1205C782 1205 867 1304 867 1469L734 1469C734 1379 708 1332 665 1332C592 1332 545 1478 403 1478C286 1478 202 1385 202 1217L335 1217C332 1302 360 1351 406 1351C483 1351 534 1205 668 1205Z" />
<glyph glyph-name="adieresis" unicode="&#xe4;" horiz-adv-x="1061" d="M475 153C359 153 283 213 283 305C283 395 356 452 485 461L744 477L744 394C744 257 626 153 475 153ZM415 -18C553 -18 686 56 747 173L752 173L752 0L959 0L959 725C959 936 796 1071 541 1071C281 1071 119 931 107 741L311 741C330 835 408 895 533 895C665 895 744 825 744 708L744 627L456 610C206 596 65 483 65 299C65 110 209 -18 415 -18ZM338 1209C403 1209 456 1261 456 1326C456 1391 403 1443 338 1443C272 1443 219 1391 219 1326C219 1261 272 1209 338 1209ZM723 1209C788 1209 841 1261 841 1326C841 1391 788 1443 723 1443C657 1443 604 1391 604 1326C604 1261 657 1209 723 1209Z" />
<glyph glyph-name="aring" unicode="&#xe5;" horiz-adv-x="1061" d="M475 153C359 153 283 213 283 305C283 395 356 452 485 461L744 477L744 394C744 257 626 153 475 153ZM415 -18C553 -18 686 56 747 173L752 173L752 0L959 0L959 725C959 936 796 1071 541 1071C281 1071 119 931 107 741L311 741C330 835 408 895 533 895C665 895 744 825 744 708L744 627L456 610C206 596 65 483 65 299C65 110 209 -18 415 -18ZM530 1147C640 1147 730 1236 730 1345C730 1455 640 1545 530 1545C420 1545 330 1455 330 1345C330 1236 420 1147 530 1147ZM530 1246C475 1246 430 1290 430 1345C430 1401 475 1445 530 1445C585 1445 630 1401 630 1345C630 1290 585 1246 530 1246Z" />
<glyph glyph-name="ae" unicode="&#xe6;" horiz-adv-x="1741" d="M1229 -20C1462 -20 1639 117 1670 309L1464 309C1434 216 1349 155 1232 155C1062 155 952 279 952 459L952 472L1681 472L1681 546C1681 866 1505 1071 1233 1071C1073 1071 951 1004 880 882L872 882C818 1000 686 1071 514 1071C272 1071 112 932 102 740L305 740C316 831 398 895 520 895C651 895 743 807 743 689L743 621L462 606C203 593 61 483 61 298C61 108 210 -18 448 -18C624 -18 758 62 838 196L848 196C916 63 1055 -20 1229 -20ZM1218 897C1364 897 1460 788 1465 623L953 623C964 784 1069 897 1218 897ZM466 152C351 152 274 216 274 306C274 395 351 448 486 456L743 471L743 394C743 262 622 152 466 152Z" />
<glyph glyph-name="ccedilla" unicode="&#xe7;" horiz-adv-x="1058" d="M804 356C779 234 692 161 559 161C391 161 280 295 280 526C280 752 390 891 557 891C698 891 782 802 804 690L1010 690C991 897 826 1071 555 1071C256 1071 60 860 60 526C60 211 228 11 491 -17L437 -148L437 -227L504 -227C601 -227 642 -244 642 -288C642 -331 601 -354 521 -354C480 -354 423 -347 401 -342L401 -451C427 -459 490 -466 548 -465C686 -463 787 -401 787 -284C787 -182 706 -124 582 -123L629 -16C844 10 991 154 1012 356Z" />
<glyph glyph-name="egrave" unicode="&#xe8;" horiz-adv-x="1081" d="M547 897C698 897 800 784 805 623L279 623C290 782 396 897 547 897ZM804 309C775 217 684 155 561 155C388 155 278 276 278 459L278 472L1021 472L1021 546C1021 865 839 1071 547 1071C250 1071 60 851 60 521C60 189 247 -20 556 -20C797 -20 979 117 1009 309ZM631 1202L417 1505L200 1505L450 1202Z" />
<glyph glyph-name="eacute" unicode="&#xe9;" horiz-adv-x="1081" d="M547 897C698 897 800 784 805 623L279 623C290 782 396 897 547 897ZM804 309C775 217 684 155 561 155C388 155 278 276 278 459L278 472L1021 472L1021 546C1021 865 839 1071 547 1071C250 1071 60 851 60 521C60 189 247 -20 556 -20C797 -20 979 117 1009 309ZM638 1202L888 1505L671 1505L457 1202Z" />
<glyph glyph-name="ecircumflex" unicode="&#xea;" horiz-adv-x="1081" d="M547 897C698 897 800 784 805 623L279 623C290 782 396 897 547 897ZM804 309C775 217 684 155 561 155C388 155 278 276 278 459L278 472L1021 472L1021 546C1021 865 839 1071 547 1071C250 1071 60 851 60 521C60 189 247 -20 556 -20C797 -20 979 117 1009 309ZM630 1505L464 1505L195 1198L380 1198L544 1388L550 1388L714 1198L899 1198Z" />
<glyph glyph-name="edieresis" unicode="&#xeb;" horiz-adv-x="1081" d="M547 897C698 897 800 784 805 623L279 623C290 782 396 897 547 897ZM804 309C775 217 684 155 561 155C388 155 278 276 278 459L278 472L1021 472L1021 546C1021 865 839 1071 547 1071C250 1071 60 851 60 521C60 189 247 -20 556 -20C797 -20 979 117 1009 309ZM355 1209C420 1209 473 1261 473 1326C473 1391 420 1443 355 1443C289 1443 236 1391 236 1326C236 1261 289 1209 355 1209ZM740 1209C805 1209 858 1261 858 1326C858 1391 805 1443 740 1443C674 1443 621 1391 621 1326C621 1261 674 1209 740 1209Z" />
<glyph glyph-name="igrave" unicode="&#xec;" horiz-adv-x="444" d="M114 0L330 0L330 1052L114 1052ZM306 1202L92 1505L-125 1505L125 1202Z" />
<glyph glyph-name="iacute" unicode="&#xed;" horiz-adv-x="444" d="M114 0L330 0L330 1052L114 1052ZM313 1202L563 1505L346 1505L132 1202Z" />
<glyph glyph-name="icircumflex" unicode="&#xee;" horiz-adv-x="444" d="M114 0L330 0L330 1052L114 1052ZM305 1505L139 1505L-130 1198L55 1198L219 1388L225 1388L389 1198L574 1198Z" />
<glyph glyph-name="idieresis" unicode="&#xef;" horiz-adv-x="444" d="M114 0L330 0L330 1052L114 1052ZM30 1209C95 1209 148 1261 148 1326C148 1391 95 1443 30 1443C-36 1443 -89 1391 -89 1326C-89 1261 -36 1209 30 1209ZM415 1209C480 1209 533 1261 533 1326C533 1391 480 1443 415 1443C349 1443 296 1391 296 1326C296 1261 349 1209 415 1209Z" />
<glyph glyph-name="eth" unicode="&#xf0;" horiz-adv-x="1148" d="M570 -18C869 -18 1061 201 1061 564C1061 832 988 1053 837 1249L1032 1312L989 1432L741 1350C700 1395 655 1437 612 1472L349 1472C447 1395 510 1342 559 1290L337 1218L379 1097L651 1186C721 1104 794 977 822 873L807 873C760 958 642 1020 527 1020C256 1020 75 823 75 508C75 181 267 -18 570 -18ZM573 850C741 850 851 715 851 507C851 298 743 165 573 165C404 165 296 298 296 507C296 717 403 850 573 850Z" />
<glyph glyph-name="ntilde" unicode="&#xf1;" horiz-adv-x="1115" d="M107 0L323 0L323 613C323 776 421 884 573 884C723 884 797 797 797 639L797 0L1014 0L1014 681C1014 922 881 1070 649 1070C487 1070 375 996 318 876L313 876L313 1052L107 1052ZM698 1205C812 1205 897 1304 897 1469L764 1469C764 1379 738 1332 695 1332C622 1332 575 1478 433 1478C316 1478 232 1385 232 1217L365 1217C362 1302 390 1351 436 1351C513 1351 564 1205 698 1205Z" />
<glyph glyph-name="ograve" unicode="&#xf2;" horiz-adv-x="1118" d="M559 -20C860 -20 1058 187 1058 526C1058 864 859 1071 559 1071C259 1071 60 864 60 526C60 187 258 -20 559 -20ZM559 158C390 158 280 292 280 526C280 759 390 893 559 893C728 893 838 759 838 526C838 292 729 158 559 158ZM643 1202L429 1505L212 1505L462 1202Z" />
<glyph glyph-name="oacute" unicode="&#xf3;" horiz-adv-x="1118" d="M559 -20C860 -20 1058 187 1058 526C1058 864 859 1071 559 1071C259 1071 60 864 60 526C60 187 258 -20 559 -20ZM559 158C390 158 280 292 280 526C280 759 390 893 559 893C728 893 838 759 838 526C838 292 729 158 559 158ZM650 1202L900 1505L683 1505L469 1202Z" />
<glyph glyph-name="ocircumflex" unicode="&#xf4;" horiz-adv-x="1118" d="M559 -20C860 -20 1058 187 1058 526C1058 864 859 1071 559 1071C259 1071 60 864 60 526C60 187 258 -20 559 -20ZM559 158C390 158 280 292 280 526C280 759 390 893 559 893C728 893 838 759 838 526C838 292 729 158 559 158ZM642 1505L476 1505L207 1198L392 1198L556 1388L562 1388L726 1198L911 1198Z" />
<glyph glyph-name="otilde" unicode="&#xf5;" horiz-adv-x="1118" d="M559 -20C860 -20 1058 187 1058 526C1058 864 859 1071 559 1071C259 1071 60 864 60 526C60 187 258 -20 559 -20ZM559 158C390 158 280 292 280 526C280 759 390 893 559 893C728 893 838 759 838 526C838 292 729 158 559 158ZM697 1205C811 1205 896 1304 896 1469L763 1469C763 1379 737 1332 694 1332C621 1332 574 1478 432 1478C315 1478 231 1385 231 1217L364 1217C361 1302 389 1351 435 1351C512 1351 563 1205 697 1205Z" />
<glyph glyph-name="odieresis" unicode="&#xf6;" horiz-adv-x="1118" d="M559 -20C860 -20 1058 187 1058 526C1058 864 859 1071 559 1071C259 1071 60 864 60 526C60 187 258 -20 559 -20ZM559 158C390 158 280 292 280 526C280 759 390 893 559 893C728 893 838 759 838 526C838 292 729 158 559 158ZM367 1209C432 1209 485 1261 485 1326C485 1391 432 1443 367 1443C301 1443 248 1391 248 1326C248 1261 301 1209 367 1209ZM752 1209C817 1209 870 1261 870 1326C870 1391 817 1443 752 1443C686 1443 633 1391 633 1326C633 1261 686 1209 752 1209Z" />
<glyph glyph-name="divide" unicode="&#xf7;" horiz-adv-x="1270" d="M636 805C717 805 776 861 776 942C776 1022 717 1079 636 1079C554 1079 496 1022 496 942C496 861 554 805 636 805ZM636 68C717 68 776 124 776 205C776 285 717 342 636 342C554 342 496 285 496 205C496 124 554 68 636 68ZM1155 487L1155 660L116 660L116 487Z" />
<glyph glyph-name="oslash" unicode="&#xf8;" horiz-adv-x="1118" d="M787 759C820 699 838 621 838 526C838 292 729 158 559 158C506 158 458 171 418 197ZM335 286C300 346 280 427 280 526C280 759 390 893 559 893C616 893 665 878 707 849ZM972 1042L873 1101L813 1010C741 1050 655 1071 559 1071C259 1071 60 864 60 526C60 344 117 200 216 106L157 16L257 -49L313 37C383 0 466 -20 559 -20C860 -20 1058 187 1058 526C1058 705 1002 847 906 941Z" />
<glyph glyph-name="ugrave" unicode="&#xf9;" horiz-adv-x="1115" d="M1009 1052L793 1052L793 439C793 275 699 167 543 167C394 167 318 253 318 413L318 1052L102 1052L102 371C102 130 242 -19 471 -19C632 -19 739 52 797 178L802 178L802 0L1009 0ZM640 1202L426 1505L209 1505L459 1202Z" />
<glyph glyph-name="uacute" unicode="&#xfa;" horiz-adv-x="1115" d="M1009 1052L793 1052L793 439C793 275 699 167 543 167C394 167 318 253 318 413L318 1052L102 1052L102 371C102 130 242 -19 471 -19C632 -19 739 52 797 178L802 178L802 0L1009 0ZM647 1202L897 1505L680 1505L466 1202Z" />
<glyph glyph-name="ucircumflex" unicode="&#xfb;" horiz-adv-x="1115" d="M1009 1052L793 1052L793 439C793 275 699 167 543 167C394 167 318 253 318 413L318 1052L102 1052L102 371C102 130 242 -19 471 -19C632 -19 739 52 797 178L802 178L802 0L1009 0ZM639 1505L473 1505L204 1198L389 1198L553 1388L559 1388L723 1198L908 1198Z" />
<glyph glyph-name="udieresis" unicode="&#xfc;" horiz-adv-x="1115" d="M1009 1052L793 1052L793 439C793 275 699 167 543 167C394 167 318 253 318 413L318 1052L102 1052L102 371C102 130 242 -19 471 -19C632 -19 739 52 797 178L802 178L802 0L1009 0ZM364 1209C429 1209 482 1261 482 1326C482 1391 429 1443 364 1443C298 1443 245 1391 245 1326C245 1261 298 1209 364 1209ZM749 1209C814 1209 867 1261 867 1326C867 1391 814 1443 749 1443C683 1443 630 1391 630 1326C630 1261 683 1209 749 1209Z" />
<glyph glyph-name="yacute" unicode="&#xfd;" horiz-adv-x="1037" d="M211 -392C430 -392 533 -310 623 -55L1018 1052L790 1052L523 196L520 196L253 1052L19 1052L399 -1C399 -2 380 -64 380 -66C347 -174 294 -216 193 -216C175 -216 139 -216 123 -212L123 -387C139 -390 194 -392 211 -392ZM610 1202L860 1505L643 1505L429 1202Z" />
<glyph glyph-name="thorn" unicode="&#xfe;" horiz-adv-x="1166" d="M669 1069C525 1069 403 997 340 877L324 877L324 1443L115 1443L115 -342L330 -342L330 159L346 159C400 47 520 -18 670 -18C936 -18 1104 193 1104 526C1104 861 936 1069 669 1069ZM605 165C434 165 326 303 326 526C326 748 434 887 605 887C779 887 883 751 883 526C883 301 779 165 605 165Z" />
<glyph glyph-name="ydieresis" unicode="&#xff;" horiz-adv-x="1037" d="M211 -392C430 -392 533 -310 623 -55L1018 1052L790 1052L523 196L520 196L253 1052L19 1052L399 -1C399 -2 380 -64 380 -66C347 -174 294 -216 193 -216C175 -216 139 -216 123 -212L123 -387C139 -390 194 -392 211 -392ZM327 1209C392 1209 445 1261 445 1326C445 1391 392 1443 327 1443C261 1443 208 1391 208 1326C208 1261 261 1209 327 1209ZM712 1209C777 1209 830 1261 830 1326C830 1391 777 1443 712 1443C646 1443 593 1391 593 1326C593 1261 646 1209 712 1209Z" />
<glyph glyph-name="Amacron" unicode="&#x0100;" horiz-adv-x="1336" d="M1073 0L1310 0L789 1443L547 1443L26 0L259 0L391 390L941 390ZM663 1203L669 1203L884 570L448 570ZM995 1756L341 1756L341 1629L995 1629Z" />
<glyph glyph-name="amacron" unicode="&#x0101;" horiz-adv-x="1061" d="M475 153C359 153 283 213 283 305C283 395 356 452 485 461L744 477L744 394C744 257 626 153 475 153ZM415 -18C553 -18 686 56 747 173L752 173L752 0L959 0L959 725C959 936 796 1071 541 1071C281 1071 119 931 107 741L311 741C330 835 408 895 533 895C665 895 744 825 744 708L744 627L456 610C206 596 65 483 65 299C65 110 209 -18 415 -18ZM829 1382L231 1382L231 1254L829 1254Z" />
<glyph glyph-name="Abreve" unicode="&#x0102;" horiz-adv-x="1336" d="M1073 0L1310 0L789 1443L547 1443L26 0L259 0L391 390L941 390ZM663 1203L669 1203L884 570L448 570ZM334 1852C345 1685 465 1541 668 1541C871 1541 991 1685 1002 1852L856 1852C845 1737 772 1666 668 1666C564 1666 491 1737 480 1852Z" />
<glyph glyph-name="abreve" unicode="&#x0103;" horiz-adv-x="1061" d="M475 153C359 153 283 213 283 305C283 395 356 452 485 461L744 477L744 394C744 257 626 153 475 153ZM415 -18C553 -18 686 56 747 173L752 173L752 0L959 0L959 725C959 936 796 1071 541 1071C281 1071 119 931 107 741L311 741C330 835 408 895 533 895C665 895 744 825 744 708L744 627L456 610C206 596 65 483 65 299C65 110 209 -18 415 -18ZM194 1504C195 1323 321 1190 529 1190C737 1190 863 1323 864 1504L718 1504C718 1389 640 1312 529 1312C418 1312 340 1389 340 1504Z" />
<glyph glyph-name="Aogonek" unicode="&#x0104;" horiz-adv-x="1336" d="M663 1203L669 1203L884 570L448 570ZM1275 -423L1275 -289C1254 -294 1225 -298 1196 -298C1128 -298 1076 -266 1076 -201C1076 -129 1153 -53 1285 -2L1309 2L789 1443L547 1443L26 0L259 0L391 390L941 390L1071 7C951 -69 905 -155 905 -244C905 -362 1008 -442 1148 -442C1206 -442 1253 -433 1275 -423Z" />
<glyph glyph-name="aogonek" unicode="&#x0105;" horiz-adv-x="1061" d="M475 153C359 153 283 213 283 305C283 395 356 451 485 459L744 475L744 394C744 257 626 153 475 153ZM943 -407L943 -276C922 -281 893 -285 865 -285C797 -285 750 -252 750 -189C750 -104 847 -37 941 -6L959 -2L959 721C959 928 793 1065 542 1065C296 1065 119 930 113 740L315 740C332 831 416 888 536 888C667 888 744 822 744 705L744 625L456 609C206 594 65 483 65 299C65 110 209 -18 415 -18C553 -18 686 56 747 173L752 173L752 14C669 -32 580 -117 580 -234C580 -349 680 -426 817 -426C880 -426 924 -416 943 -407Z" />
<glyph glyph-name="Cacute" unicode="&#x0106;" horiz-adv-x="1424" d="M742 -24C1074 -24 1300 151 1355 449L1132 449C1087 275 944 172 743 172C478 172 310 385 310 722C310 1056 480 1271 742 1271C938 1271 1092 1150 1132 965L1354 965C1316 1266 1069 1467 742 1467C339 1467 81 1179 81 722C81 262 337 -24 742 -24ZM837 1561L1100 1856L878 1856L656 1561Z" />
<glyph glyph-name="cacute" unicode="&#x0107;" horiz-adv-x="1058" d="M1010 690C991 897 826 1071 555 1071C256 1071 60 860 60 526C60 186 256 -20 557 -20C810 -20 989 132 1012 356L804 356C779 234 692 161 559 161C391 161 280 295 280 526C280 752 390 891 557 891C698 891 782 802 804 690ZM640 1202L890 1505L673 1505L459 1202Z" />
<glyph glyph-name="Ccircumflex" unicode="&#x0108;" horiz-adv-x="1424" d="M742 -24C1074 -24 1300 151 1355 449L1132 449C1087 275 944 172 743 172C478 172 310 385 310 722C310 1056 480 1271 742 1271C938 1271 1092 1150 1132 965L1354 965C1316 1266 1069 1467 742 1467C339 1467 81 1179 81 722C81 262 337 -24 742 -24ZM655 1846L377 1541L563 1541L735 1733L741 1733L913 1541L1099 1541L821 1846Z" />
<glyph glyph-name="ccircumflex" unicode="&#x0109;" horiz-adv-x="1058" d="M1010 690C991 897 826 1071 555 1071C256 1071 60 860 60 526C60 186 256 -20 557 -20C810 -20 989 132 1012 356L804 356C779 234 692 161 559 161C391 161 280 295 280 526C280 752 390 891 557 891C698 891 782 802 804 690ZM632 1505L466 1505L197 1198L382 1198L546 1388L552 1388L716 1198L901 1198Z" />
<glyph glyph-name="Cdotaccent" unicode="&#x010a;" horiz-adv-x="1424" d="M742 -24C1074 -24 1300 151 1355 449L1132 449C1087 275 944 172 743 172C478 172 310 385 310 722C310 1056 480 1271 742 1271C938 1271 1092 1150 1132 965L1354 965C1316 1266 1069 1467 742 1467C339 1467 81 1179 81 722C81 262 337 -24 742 -24ZM738 1578C811 1578 869 1637 869 1709C869 1782 811 1840 738 1840C665 1840 607 1782 607 1709C607 1637 665 1578 738 1578Z" />
<glyph glyph-name="cdotaccent" unicode="&#x010b;" horiz-adv-x="1058" d="M1010 690C991 897 826 1071 555 1071C256 1071 60 860 60 526C60 186 256 -20 557 -20C810 -20 989 132 1012 356L804 356C779 234 692 161 559 161C391 161 280 295 280 526C280 752 390 891 557 891C698 891 782 802 804 690ZM549 1209C623 1209 682 1269 682 1342C682 1414 623 1474 549 1474C475 1474 415 1414 415 1342C415 1269 475 1209 549 1209Z" />
<glyph glyph-name="Ccaron" unicode="&#x010c;" horiz-adv-x="1424" d="M742 -24C1074 -24 1300 151 1355 449L1132 449C1087 275 944 172 743 172C478 172 310 385 310 722C310 1056 480 1271 742 1271C938 1271 1092 1150 1132 965L1354 965C1316 1266 1069 1467 742 1467C339 1467 81 1179 81 722C81 262 337 -24 742 -24ZM655 1549L821 1549L1099 1854L913 1854L741 1662L735 1662L563 1854L377 1854Z" />
<glyph glyph-name="ccaron" unicode="&#x010d;" horiz-adv-x="1058" d="M1010 690C991 897 826 1071 555 1071C256 1071 60 860 60 526C60 186 256 -20 557 -20C810 -20 989 132 1012 356L804 356C779 234 692 161 559 161C391 161 280 295 280 526C280 752 390 891 557 891C698 891 782 802 804 690ZM632 1198L901 1505L716 1505L552 1312L546 1312L382 1505L197 1505L466 1198Z" />
<glyph glyph-name="Dcaron" unicode="&#x010e;" horiz-adv-x="1405" d="M133 1443L133 0L642 0C1072 0 1325 268 1325 724C1325 1179 1071 1443 642 1443ZM357 1250L621 1250C926 1250 1096 1062 1096 722C1096 381 927 194 621 194L357 194ZM501 1547L667 1547L945 1852L759 1852L587 1660L581 1660L409 1852L223 1852Z" />
<glyph glyph-name="dcaron" unicode="&#x010f;" horiz-adv-x="1338" d="M1198 1443L1198 965L1331 965L1364 1443ZM502 -18C655 -18 775 59 837 179L841 179L841 0L1051 0L1051 1443L834 1443L834 877L830 877C771 993 651 1069 500 1069C236 1069 60 858 60 526C60 194 236 -18 502 -18ZM559 887C725 887 836 744 836 526C836 306 725 165 559 165C388 165 281 304 281 526C281 747 388 887 559 887Z" />
<glyph glyph-name="Dcroat" unicode="&#x0110;" horiz-adv-x="1420" d="M372 194L372 648L641 648L641 832L372 832L372 1250L636 1250C941 1250 1111 1062 1111 722C1111 381 942 194 636 194ZM148 1443L148 832L30 832L30 648L148 648L148 0L657 0C1087 0 1340 268 1340 724C1340 1179 1086 1443 657 1443Z" />
<glyph glyph-name="dcroat" unicode="&#x0111;" horiz-adv-x="1185" d="M559 172C391 172 281 310 281 526C281 740 391 879 559 879C725 879 836 738 836 526C836 312 725 172 559 172ZM1167 1341L1051 1341L1051 1443L834 1443L834 1341L608 1341L608 1210L834 1210L834 877L830 877C770 993 651 1063 500 1063C239 1063 60 851 60 526C60 201 239 -11 502 -11C655 -11 775 59 837 179L841 179L841 0L1051 0L1051 1210L1167 1210Z" />
<glyph glyph-name="Emacron" unicode="&#x0112;" horiz-adv-x="1146" d="M1049 194L357 194L357 642L1012 642L1012 828L357 828L357 1250L1049 1250L1049 1443L133 1443L133 0L1049 0ZM918 1756L264 1756L264 1629L918 1629Z" />
<glyph glyph-name="emacron" unicode="&#x0113;" horiz-adv-x="1081" d="M547 897C698 897 800 784 805 623L279 623C290 782 396 897 547 897ZM804 309C775 217 684 155 561 155C388 155 278 276 278 459L278 472L1021 472L1021 546C1021 865 839 1071 547 1071C250 1071 60 851 60 521C60 189 247 -20 556 -20C797 -20 979 117 1009 309ZM846 1382L248 1382L248 1254L846 1254Z" />
<glyph glyph-name="Ebreve" unicode="&#x0114;" horiz-adv-x="1146" d="M1049 194L357 194L357 642L1012 642L1012 828L357 828L357 1250L1049 1250L1049 1443L133 1443L133 0L1049 0ZM257 1852C268 1685 388 1541 591 1541C794 1541 914 1685 925 1852L779 1852C768 1737 695 1666 591 1666C487 1666 414 1737 403 1852Z" />
<glyph glyph-name="ebreve" unicode="&#x0115;" horiz-adv-x="1081" d="M547 897C698 897 800 784 805 623L279 623C290 782 396 897 547 897ZM804 309C775 217 684 155 561 155C388 155 278 276 278 459L278 472L1021 472L1021 546C1021 865 839 1071 547 1071C250 1071 60 851 60 521C60 189 247 -20 556 -20C797 -20 979 117 1009 309ZM211 1504C212 1323 338 1190 546 1190C754 1190 880 1323 881 1504L735 1504C735 1389 657 1312 546 1312C435 1312 357 1389 357 1504Z" />
<glyph glyph-name="Edotaccent" unicode="&#x0116;" horiz-adv-x="1146" d="M1049 194L357 194L357 642L1012 642L1012 828L357 828L357 1250L1049 1250L1049 1443L133 1443L133 0L1049 0ZM591 1576C664 1576 722 1635 722 1707C722 1780 664 1838 591 1838C518 1838 460 1780 460 1707C460 1635 518 1576 591 1576Z" />
<glyph glyph-name="edotaccent" unicode="&#x0117;" horiz-adv-x="1081" d="M547 897C698 897 800 784 805 623L279 623C290 782 396 897 547 897ZM804 309C775 217 684 155 561 155C388 155 278 276 278 459L278 472L1021 472L1021 546C1021 865 839 1071 547 1071C250 1071 60 851 60 521C60 189 247 -20 556 -20C797 -20 979 117 1009 309ZM547 1209C621 1209 680 1269 680 1342C680 1414 621 1474 547 1474C473 1474 413 1414 413 1342C413 1269 473 1209 547 1209Z" />
<glyph glyph-name="Eogonek" unicode="&#x0118;" horiz-adv-x="1146" d="M133 0L784 0L784 -4C689 -71 635 -154 635 -244C635 -363 738 -442 877 -442C936 -442 983 -433 1005 -423L1005 -289C984 -294 954 -298 926 -298C858 -298 806 -266 806 -201C806 -130 887 -47 1024 3L1049 11L1049 194L357 194L357 642L1012 642L1012 828L357 828L357 1250L1049 1250L1049 1443L133 1443Z" />
<glyph glyph-name="eogonek" unicode="&#x0119;" horiz-adv-x="1081" d="M731 -426C789 -426 836 -417 857 -407L857 -276C836 -281 808 -285 779 -285C712 -285 662 -252 662 -187C662 -113 725 -40 826 40C908 106 989 191 1009 309L804 309C775 217 684 155 561 155C388 155 278 276 278 459L278 472L1021 472L1021 546C1021 865 839 1071 547 1071C250 1071 60 851 60 521C60 189 247 -20 556 -20C584 -20 608 -18 626 -14L626 -18C540 -80 493 -156 493 -234C493 -350 594 -426 731 -426ZM547 897C698 897 800 784 805 623L279 623C290 782 396 897 547 897Z" />
<glyph glyph-name="Ecaron" unicode="&#x011a;" horiz-adv-x="1146" d="M1049 194L357 194L357 642L1012 642L1012 828L357 828L357 1250L1049 1250L1049 1443L133 1443L133 0L1049 0ZM508 1547L674 1547L952 1852L766 1852L594 1660L588 1660L416 1852L230 1852Z" />
<glyph glyph-name="ecaron" unicode="&#x011b;" horiz-adv-x="1081" d="M547 897C698 897 800 784 805 623L279 623C290 782 396 897 547 897ZM804 309C775 217 684 155 561 155C388 155 278 276 278 459L278 472L1021 472L1021 546C1021 865 839 1071 547 1071C250 1071 60 851 60 521C60 189 247 -20 556 -20C797 -20 979 117 1009 309ZM630 1198L899 1505L714 1505L550 1312L544 1312L380 1505L195 1505L464 1198Z" />
<glyph glyph-name="Gcircumflex" unicode="&#x011c;" horiz-adv-x="1462" d="M1376 600L1376 747L782 747L782 566L1155 566L1155 541C1152 322 990 172 756 172C481 172 310 385 310 730C310 1069 476 1271 752 1271C940 1271 1081 1168 1135 989L1365 989C1315 1277 1072 1467 751 1467C340 1467 81 1183 81 728C81 265 341 -24 754 -24C1145 -24 1376 209 1376 600ZM664 1844L386 1539L572 1539L744 1731L750 1731L922 1539L1108 1539L830 1844Z" />
<glyph glyph-name="gcircumflex" unicode="&#x011d;" horiz-adv-x="1157" d="M555 175C389 175 281 309 281 529C281 748 389 887 555 887C724 887 835 745 835 529C835 312 724 175 555 175ZM557 -396C857 -396 1051 -232 1051 19L1051 1052L841 1052L841 872L837 872C773 994 651 1069 502 1069C232 1069 60 861 60 530C60 202 233 -4 497 -4C647 -4 771 71 830 185L834 185L834 12C834 -132 734 -228 565 -228C442 -228 346 -170 315 -82L98 -82C125 -264 309 -396 557 -396ZM642 1505L476 1505L207 1198L392 1198L556 1388L562 1388L726 1198L911 1198Z" />
<glyph glyph-name="Gbreve" unicode="&#x011e;" horiz-adv-x="1462" d="M1376 600L1376 747L782 747L782 566L1155 566L1155 541C1152 322 990 172 756 172C481 172 310 385 310 730C310 1069 476 1271 752 1271C940 1271 1081 1168 1135 989L1365 989C1315 1277 1072 1467 751 1467C340 1467 81 1183 81 728C81 265 341 -24 754 -24C1145 -24 1376 209 1376 600ZM413 1852C424 1685 544 1541 747 1541C950 1541 1070 1685 1081 1852L935 1852C924 1737 851 1666 747 1666C643 1666 570 1737 559 1852Z" />
<glyph glyph-name="gbreve" unicode="&#x011f;" horiz-adv-x="1157" d="M555 175C389 175 281 309 281 529C281 748 389 887 555 887C724 887 835 745 835 529C835 312 724 175 555 175ZM557 -396C857 -396 1051 -232 1051 19L1051 1052L841 1052L841 872L837 872C773 994 651 1069 502 1069C232 1069 60 861 60 530C60 202 233 -4 497 -4C647 -4 771 71 830 185L834 185L834 12C834 -132 734 -228 565 -228C442 -228 346 -170 315 -82L98 -82C125 -264 309 -396 557 -396ZM223 1504C224 1323 350 1190 558 1190C766 1190 892 1323 893 1504L747 1504C747 1389 669 1312 558 1312C447 1312 369 1389 369 1504Z" />
<glyph glyph-name="Gdotaccent" unicode="&#x0120;" horiz-adv-x="1462" d="M1376 600L1376 747L782 747L782 566L1155 566L1155 541C1152 322 990 172 756 172C481 172 310 385 310 730C310 1069 476 1271 752 1271C940 1271 1081 1168 1135 989L1365 989C1315 1277 1072 1467 751 1467C340 1467 81 1183 81 728C81 265 341 -24 754 -24C1145 -24 1376 209 1376 600ZM747 1576C820 1576 878 1635 878 1707C878 1780 820 1838 747 1838C674 1838 616 1780 616 1707C616 1635 674 1576 747 1576Z" />
<glyph glyph-name="gdotaccent" unicode="&#x0121;" horiz-adv-x="1157" d="M555 175C389 175 281 309 281 529C281 748 389 887 555 887C724 887 835 745 835 529C835 312 724 175 555 175ZM557 -396C857 -396 1051 -232 1051 19L1051 1052L841 1052L841 872L837 872C773 994 651 1069 502 1069C232 1069 60 861 60 530C60 202 233 -4 497 -4C647 -4 771 71 830 185L834 185L834 12C834 -132 734 -228 565 -228C442 -228 346 -170 315 -82L98 -82C125 -264 309 -396 557 -396ZM559 1209C633 1209 692 1269 692 1342C692 1414 633 1474 559 1474C485 1474 425 1414 425 1342C425 1269 485 1209 559 1209Z" />
<glyph glyph-name="Gcommaaccent" unicode="&#x0122;" horiz-adv-x="1462" d="M1376 600L1376 747L782 747L782 566L1155 566L1155 541C1152 322 990 172 756 172C481 172 310 385 310 730C310 1069 476 1271 752 1271C940 1271 1081 1168 1135 989L1365 989C1315 1277 1072 1467 751 1467C340 1467 81 1183 81 728C81 265 341 -24 754 -24C1145 -24 1376 209 1376 600ZM719 -481L866 -129L676 -129L560 -481Z" />
<glyph glyph-name="gcommaaccent" unicode="&#x0123;" horiz-adv-x="1157" d="M555 175C389 175 281 309 281 529C281 748 389 887 555 887C724 887 835 745 835 529C835 312 724 175 555 175ZM557 -396C857 -396 1051 -232 1051 19L1051 1052L841 1052L841 872L837 872C773 994 651 1069 502 1069C232 1069 60 861 60 530C60 202 233 -4 497 -4C647 -4 771 71 830 185L834 185L834 12C834 -132 734 -228 565 -228C442 -228 346 -170 315 -82L98 -82C125 -264 309 -396 557 -396ZM587 1533L440 1181L630 1181L746 1533Z" />
<glyph glyph-name="Hcircumflex" unicode="&#x0124;" horiz-adv-x="1454" d="M1322 0L1322 1443L1098 1443L1098 833L357 833L357 1443L133 1443L133 0L357 0L357 639L1098 639L1098 0ZM644 1844L366 1539L552 1539L724 1731L730 1731L902 1539L1088 1539L810 1844Z" />
<glyph glyph-name="hcircumflex" unicode="&#x0125;" horiz-adv-x="1137" d="M115 0L331 0L331 608C331 774 429 884 589 884C741 884 819 791 819 636L819 0L1036 0L1036 678C1036 916 898 1070 667 1070C507 1070 392 999 334 876L329 876L329 1443L115 1443ZM141 1844L-137 1539L49 1539L221 1731L227 1731L399 1539L585 1539L307 1844Z" />
<glyph glyph-name="Hbar" unicode="&#x0126;" horiz-adv-x="1464" d="M1103 833L362 833L362 1067L1103 1067ZM1451 1234L1327 1234L1327 1443L1103 1443L1103 1234L362 1234L362 1443L138 1443L138 1234L13 1234L13 1067L138 1067L138 0L362 0L362 639L1103 639L1103 0L1327 0L1327 1067L1451 1067Z" />
<glyph glyph-name="hbar" unicode="&#x0127;" horiz-adv-x="1142" d="M334 876L334 1210L575 1210L575 1341L334 1341L334 1443L119 1443L119 1341L18 1341L18 1210L119 1210L119 0L336 0L336 608C336 774 433 884 594 884C746 884 824 791 824 636L824 0L1040 0L1040 678C1040 916 903 1070 671 1070C511 1070 396 999 339 876Z" />
<glyph glyph-name="Itilde" unicode="&#x0128;" horiz-adv-x="490" d="M357 0L357 1443L133 1443L133 0ZM380 1574C494 1574 579 1673 579 1838L446 1838C446 1748 420 1701 377 1701C304 1701 257 1847 115 1847C-2 1847 -86 1754 -86 1586L47 1586C44 1671 72 1720 118 1720C195 1720 246 1574 380 1574Z" />
<glyph glyph-name="itilde" unicode="&#x0129;" horiz-adv-x="444" d="M114 0L330 0L330 1052L114 1052ZM360 1205C474 1205 559 1304 559 1469L426 1469C426 1379 400 1332 357 1332C284 1332 237 1478 95 1478C-22 1478 -106 1385 -106 1217L27 1217C24 1302 52 1351 98 1351C175 1351 226 1205 360 1205Z" />
<glyph glyph-name="Imacron" unicode="&#x012a;" horiz-adv-x="490" d="M357 0L357 1443L133 1443L133 0ZM572 1756L-82 1756L-82 1629L572 1629Z" />
<glyph glyph-name="imacron" unicode="&#x012b;" horiz-adv-x="444" d="M114 0L330 0L330 1052L114 1052ZM476 1382L-32 1382L-32 1254L476 1254Z" />
<glyph glyph-name="Ibreve" unicode="&#x012c;" horiz-adv-x="490" d="M357 0L357 1443L133 1443L133 0ZM-89 1852C-78 1685 42 1541 245 1541C448 1541 568 1685 579 1852L433 1852C422 1737 349 1666 245 1666C141 1666 68 1737 57 1852Z" />
<glyph glyph-name="ibreve" unicode="&#x012d;" horiz-adv-x="444" d="M114 0L330 0L330 1052L114 1052ZM-114 1504C-113 1323 13 1190 221 1190C429 1190 555 1323 556 1504L410 1504C410 1389 332 1312 221 1312C110 1312 32 1389 32 1504Z" />
<glyph glyph-name="Iogonek" unicode="&#x012e;" horiz-adv-x="490" d="M133 -14C51 -81 4 -159 4 -244C4 -362 106 -442 245 -442C309 -442 354 -433 375 -423L375 -289C352 -294 322 -298 295 -298C226 -298 173 -265 173 -200C173 -127 253 -55 345 -1L357 3L357 1443L133 1443Z" />
<glyph glyph-name="iogonek" unicode="&#x012f;" horiz-adv-x="444" d="M222 1198C292 1198 348 1253 348 1321C348 1391 292 1445 222 1445C153 1445 97 1391 97 1321C97 1253 153 1198 222 1198ZM114 -11C29 -74 -13 -156 -13 -232C-13 -348 87 -426 227 -426C282 -426 330 -417 351 -407L351 -276C327 -281 300 -285 273 -285C205 -285 154 -253 154 -189C154 -111 212 -58 310 -1L330 7L330 1052L114 1052Z" />
<glyph glyph-name="Idotaccent" unicode="&#x0130;" horiz-adv-x="490" d="M357 0L357 1443L133 1443L133 0ZM245 1576C318 1576 376 1635 376 1707C376 1780 318 1838 245 1838C172 1838 114 1780 114 1707C114 1635 172 1576 245 1576Z" />
<glyph glyph-name="dotlessi" unicode="&#x0131;" horiz-adv-x="444" d="M114 0L330 0L330 1052L114 1052Z" />
<glyph glyph-name="IJ" unicode="&#x0132;" horiz-adv-x="1550" d="M357 0L357 1443L133 1443L133 0ZM528 370C528 130 705 -32 965 -32C1246 -32 1414 134 1414 420L1414 1443L1190 1443L1190 421C1190 256 1110 168 963 168C838 168 751 250 748 370Z" />
<glyph glyph-name="ij" unicode="&#x0133;" horiz-adv-x="908" d="M114 0L330 0L330 1052L114 1052ZM222 1206C292 1206 348 1261 348 1329C348 1398 292 1453 222 1453C153 1453 97 1398 97 1329C97 1261 153 1206 222 1206ZM784 1052L568 1052L568 -49C568 -155 528 -195 421 -195C417 -195 394 -194 390 -194L390 -364C396 -366 430 -366 440 -366C673 -366 784 -264 784 -50ZM676 1206C746 1206 802 1261 802 1329C802 1398 746 1453 676 1453C607 1453 551 1398 551 1329C551 1261 607 1206 676 1206Z" />
<glyph glyph-name="Jcircumflex" unicode="&#x0134;" horiz-adv-x="1060" d="M38 370C38 130 215 -32 475 -32C756 -32 924 134 924 420L924 1443L700 1443L700 421C700 256 620 168 473 168C348 168 261 250 258 370ZM730 1844L452 1539L638 1539L810 1731L816 1731L988 1539L1174 1539L896 1844Z" />
<glyph glyph-name="jcircumflex" unicode="&#x0135;" horiz-adv-x="444" d="M330 1052L114 1052L114 -49C114 -155 74 -195 -33 -195C-37 -195 -60 -194 -64 -194L-64 -364C-58 -366 -24 -366 -14 -366C219 -366 330 -264 330 -50ZM304 1505L138 1505L-131 1198L54 1198L218 1388L224 1388L388 1198L573 1198Z" />
<glyph glyph-name="Kcommaaccent" unicode="&#x0136;" horiz-adv-x="1293" d="M357 0L357 481L505 650L1005 0L1283 0L663 804L1235 1443L969 1443L366 756L357 756L357 1443L133 1443L133 0ZM601 -481L748 -129L558 -129L442 -481Z" />
<glyph glyph-name="kcommaaccent" unicode="&#x0137;" horiz-adv-x="1033" d="M333 601L331 601L331 1443L115 1443L115 0L331 0L331 378L421 467L778 0L1029 0L576 599L1012 1052L758 1052ZM521 -481L668 -129L478 -129L362 -481Z" />
<glyph glyph-name="Lacute" unicode="&#x0139;" horiz-adv-x="1088" d="M1029 194L357 194L357 1443L133 1443L133 0L1029 0ZM344 1559L607 1854L385 1854L163 1559Z" />
<glyph glyph-name="lacute" unicode="&#x013a;" horiz-adv-x="446" d="M115 0L331 0L331 1443L115 1443ZM322 1559L585 1854L363 1854L141 1559Z" />
<glyph glyph-name="Lcommaaccent" unicode="&#x013b;" horiz-adv-x="1088" d="M1029 194L357 194L357 1443L133 1443L133 0L1029 0ZM549 -481L696 -129L506 -129L390 -481Z" />
<glyph glyph-name="lcommaaccent" unicode="&#x013c;" horiz-adv-x="446" d="M115 0L331 0L331 1443L115 1443ZM195 -481L342 -129L152 -129L36 -481Z" />
<glyph glyph-name="Lcaron" unicode="&#x013d;" horiz-adv-x="1088" d="M620 1443L620 950L767 950L817 1443ZM1029 194L357 194L357 1443L133 1443L133 0L1029 0Z" />
<glyph glyph-name="lcaron" unicode="&#x013e;" horiz-adv-x="622" d="M478 1450L478 972L611 972L645 1450ZM115 0L331 0L331 1443L115 1443Z" />
<glyph glyph-name="Lslash" unicode="&#x0141;" horiz-adv-x="1092" d="M362 194L362 783L682 935L682 1098L362 947L362 1443L138 1443L138 841L24 787L24 623L138 677L138 0L1034 0L1034 194Z" />
<glyph glyph-name="lslash" unicode="&#x0142;" horiz-adv-x="476" d="M461 989L346 930L346 1443L130 1443L130 821L15 762L15 601L130 660L130 0L346 0L346 769L461 828Z" />
<glyph glyph-name="Nacute" unicode="&#x0143;" horiz-adv-x="1443" d="M351 0L351 1063L360 1063L1108 0L1310 0L1310 1443L1092 1443L1092 379L1084 379L336 1443L133 1443L133 0ZM821 1559L1084 1854L862 1854L640 1559Z" />
<glyph glyph-name="nacute" unicode="&#x0144;" horiz-adv-x="1115" d="M107 0L323 0L323 613C323 776 421 884 573 884C723 884 797 797 797 639L797 0L1014 0L1014 681C1014 922 881 1070 649 1070C487 1070 375 996 318 876L313 876L313 1052L107 1052ZM651 1202L901 1505L684 1505L470 1202Z" />
<glyph glyph-name="Ncommaaccent" unicode="&#x0145;" horiz-adv-x="1443" d="M351 0L351 1063L360 1063L1108 0L1310 0L1310 1443L1092 1443L1092 379L1084 379L336 1443L133 1443L133 0ZM694 -481L841 -129L651 -129L535 -481Z" />
<glyph glyph-name="ncommaaccent" unicode="&#x0146;" horiz-adv-x="1115" d="M107 0L323 0L323 613C323 776 421 884 573 884C723 884 797 797 797 639L797 0L1014 0L1014 681C1014 922 881 1070 649 1070C487 1070 375 996 318 876L313 876L313 1052L107 1052ZM539 -481L686 -129L496 -129L380 -481Z" />
<glyph glyph-name="Ncaron" unicode="&#x0147;" horiz-adv-x="1443" d="M351 0L351 1063L360 1063L1108 0L1310 0L1310 1443L1092 1443L1092 379L1084 379L336 1443L133 1443L133 0ZM639 1547L805 1547L1083 1852L897 1852L725 1660L719 1660L547 1852L361 1852Z" />
<glyph glyph-name="ncaron" unicode="&#x0148;" horiz-adv-x="1115" d="M107 0L323 0L323 613C323 776 421 884 573 884C723 884 797 797 797 639L797 0L1014 0L1014 681C1014 922 881 1070 649 1070C487 1070 375 996 318 876L313 876L313 1052L107 1052ZM643 1198L912 1505L727 1505L563 1312L557 1312L393 1505L208 1505L477 1198Z" />
<glyph glyph-name="Omacron" unicode="&#x014c;" horiz-adv-x="1513" d="M757 1467C341 1467 81 1180 81 721C81 262 341 -24 757 -24C1172 -24 1433 262 1433 721C1433 1180 1172 1467 757 1467ZM757 1270C1031 1270 1203 1058 1203 721C1203 385 1031 173 757 173C483 173 310 385 310 721C310 1058 483 1270 757 1270ZM1084 1756L430 1756L430 1629L1084 1629Z" />
<glyph glyph-name="omacron" unicode="&#x014d;" horiz-adv-x="1118" d="M559 -20C860 -20 1058 187 1058 526C1058 864 859 1071 559 1071C259 1071 60 864 60 526C60 187 258 -20 559 -20ZM559 158C390 158 280 292 280 526C280 759 390 893 559 893C728 893 838 759 838 526C838 292 729 158 559 158ZM858 1382L260 1382L260 1254L858 1254Z" />
<glyph glyph-name="Obreve" unicode="&#x014e;" horiz-adv-x="1513" d="M757 1467C341 1467 81 1180 81 721C81 262 341 -24 757 -24C1172 -24 1433 262 1433 721C1433 1180 1172 1467 757 1467ZM757 1270C1031 1270 1203 1058 1203 721C1203 385 1031 173 757 173C483 173 310 385 310 721C310 1058 483 1270 757 1270ZM423 1852C434 1685 554 1541 757 1541C960 1541 1080 1685 1091 1852L945 1852C934 1737 861 1666 757 1666C653 1666 580 1737 569 1852Z" />
<glyph glyph-name="obreve" unicode="&#x014f;" horiz-adv-x="1118" d="M559 -20C860 -20 1058 187 1058 526C1058 864 859 1071 559 1071C259 1071 60 864 60 526C60 187 258 -20 559 -20ZM559 158C390 158 280 292 280 526C280 759 390 893 559 893C728 893 838 759 838 526C838 292 729 158 559 158ZM223 1504C224 1323 350 1190 558 1190C766 1190 892 1323 893 1504L747 1504C747 1389 669 1312 558 1312C447 1312 369 1389 369 1504Z" />
<glyph glyph-name="Ohungarumlaut" unicode="&#x0150;" horiz-adv-x="1513" d="M757 1467C341 1467 81 1180 81 721C81 262 341 -24 757 -24C1172 -24 1433 262 1433 721C1433 1180 1172 1467 757 1467ZM757 1270C1031 1270 1203 1058 1203 721C1203 385 1031 173 757 173C483 173 310 385 310 721C310 1058 483 1270 757 1270ZM1031 1559L1294 1854L1072 1854L850 1559ZM683 1559L945 1854L723 1854L501 1559Z" />
<glyph glyph-name="ohungarumlaut" unicode="&#x0151;" horiz-adv-x="1118" d="M559 -20C860 -20 1058 187 1058 526C1058 864 859 1071 559 1071C259 1071 60 864 60 526C60 187 258 -20 559 -20ZM559 158C390 158 280 292 280 526C280 759 390 893 559 893C728 893 838 759 838 526C838 292 729 158 559 158ZM643 1202L807 1202L1043 1505L837 1505ZM308 1202L471 1202L708 1505L502 1505Z" />
<glyph glyph-name="OE" unicode="&#x0152;" horiz-adv-x="2216" d="M764 1271C1040 1271 1216 1057 1216 721C1216 385 1041 172 764 172C487 172 312 385 312 721C312 1058 487 1271 764 1271ZM1230 0L2119 0L2119 194L1443 194L1443 642L2081 642L2081 828L1443 828L1443 1250L2119 1250L2119 1443L1230 1443L1230 1214L1230 1214C1135 1377 962 1470 748 1470C344 1470 82 1178 82 721C82 265 344 -27 747 -27C958 -27 1140 70 1230 231L1230 231Z" />
<glyph glyph-name="oe" unicode="&#x0153;" horiz-adv-x="1855" d="M1341 -20C1571 -20 1756 120 1785 305L1579 305C1552 217 1459 155 1339 155C1170 155 1057 277 1057 455L1057 472L1796 472L1796 546C1796 863 1615 1071 1331 1071C1160 1071 1022 988 951 863L941 863C855 999 728 1071 554 1071C253 1071 60 857 60 525C60 194 253 -20 555 -20C729 -20 854 50 941 180L951 180C1023 60 1172 -20 1341 -20ZM1578 623L1057 623C1067 784 1175 897 1324 897C1473 897 1574 785 1578 623ZM277 525C277 753 380 891 555 891C730 891 833 754 833 525C833 298 730 161 555 161C381 161 277 298 277 525Z" />
<glyph glyph-name="Racute" unicode="&#x0154;" horiz-adv-x="1257" d="M357 1255L665 1255C838 1255 943 1157 943 996C943 831 844 736 671 736L357 736ZM357 555L665 555L665 555L959 0L1217 0L894 590C1070 649 1174 807 1174 1002C1174 1271 989 1443 692 1443L133 1443L133 0L357 0ZM663 1559L926 1854L704 1854L482 1559Z" />
<glyph glyph-name="racute" unicode="&#x0155;" horiz-adv-x="672" d="M107 0L323 0L323 630C323 779 409 872 548 872C590 872 628 867 645 860L645 1061C629 1064 602 1069 571 1069C447 1069 353 996 318 873L313 873L313 1052L107 1052ZM460 1202L710 1505L493 1505L279 1202Z" />
<glyph glyph-name="Rcommaaccent" unicode="&#x0156;" horiz-adv-x="1257" d="M357 1255L665 1255C838 1255 943 1157 943 996C943 831 844 736 671 736L357 736ZM357 555L665 555L665 555L959 0L1217 0L894 590C1070 649 1174 807 1174 1002C1174 1271 989 1443 692 1443L133 1443L133 0L357 0ZM536 -481L683 -129L493 -129L377 -481Z" />
<glyph glyph-name="rcommaaccent" unicode="&#x0157;" horiz-adv-x="672" d="M107 0L323 0L323 630C323 779 409 872 548 872C590 872 628 867 645 860L645 1061C629 1064 602 1069 571 1069C447 1069 353 996 318 873L313 873L313 1052L107 1052ZM187 -481L334 -129L144 -129L28 -481Z" />
<glyph glyph-name="Rcaron" unicode="&#x0158;" horiz-adv-x="1257" d="M357 1255L665 1255C838 1255 943 1157 943 996C943 831 844 736 671 736L357 736ZM357 555L665 555L665 555L959 0L1217 0L894 590C1070 649 1174 807 1174 1002C1174 1271 989 1443 692 1443L133 1443L133 0L357 0ZM481 1547L647 1547L925 1852L739 1852L567 1660L561 1660L389 1852L203 1852Z" />
<glyph glyph-name="rcaron" unicode="&#x0159;" horiz-adv-x="672" d="M107 0L323 0L323 630C323 779 409 872 548 872C590 872 628 867 645 860L645 1061C629 1064 602 1069 571 1069C447 1069 353 996 318 873L313 873L313 1052L107 1052ZM452 1198L721 1505L536 1505L372 1312L366 1312L202 1505L17 1505L286 1198Z" />
<glyph glyph-name="Sacute" unicode="&#x015a;" horiz-adv-x="1244" d="M69 402C83 141 299 -24 619 -24C961 -24 1176 145 1176 415C1176 626 1053 745 757 815L598 854C412 900 336 960 336 1062C336 1190 455 1278 629 1278C803 1278 922 1191 935 1047L1153 1047C1146 1296 937 1467 632 1467C324 1467 107 1296 107 1047C107 846 230 722 495 658L682 613C869 567 948 500 948 388C948 259 817 165 635 165C445 165 306 259 290 402ZM732 1559L995 1854L773 1854L551 1559Z" />
<glyph glyph-name="sacute" unicode="&#x015b;" horiz-adv-x="990" d="M88 754C88 607 184 508 374 462L562 416C672 388 712 351 712 284C712 199 632 145 502 145C370 145 292 201 275 302L61 302C78 109 243 -20 492 -20C750 -20 929 112 929 304C929 459 849 539 637 590L460 631C351 658 299 702 299 767C299 850 377 907 494 907C615 907 692 848 702 753L905 753C898 940 734 1071 500 1071C254 1071 88 942 88 754ZM591 1202L841 1505L624 1505L410 1202Z" />
<glyph glyph-name="Scircumflex" unicode="&#x015c;" horiz-adv-x="1244" d="M69 402C83 141 299 -24 619 -24C961 -24 1176 145 1176 415C1176 626 1053 745 757 815L598 854C412 900 336 960 336 1062C336 1190 455 1278 629 1278C803 1278 922 1191 935 1047L1153 1047C1146 1296 937 1467 632 1467C324 1467 107 1296 107 1047C107 846 230 722 495 658L682 613C869 567 948 500 948 388C948 259 817 165 635 165C445 165 306 259 290 402ZM550 1844L272 1539L458 1539L630 1731L636 1731L808 1539L994 1539L716 1844Z" />
<glyph glyph-name="scircumflex" unicode="&#x015d;" horiz-adv-x="990" d="M88 754C88 607 184 508 374 462L562 416C672 388 712 351 712 284C712 199 632 145 502 145C370 145 292 201 275 302L61 302C78 109 243 -20 492 -20C750 -20 929 112 929 304C929 459 849 539 637 590L460 631C351 658 299 702 299 767C299 850 377 907 494 907C615 907 692 848 702 753L905 753C898 940 734 1071 500 1071C254 1071 88 942 88 754ZM583 1505L417 1505L148 1198L333 1198L497 1388L503 1388L667 1198L852 1198Z" />
<glyph glyph-name="Scedilla" unicode="&#x015e;" horiz-adv-x="1244" d="M598 854C412 900 336 960 336 1062C336 1190 455 1278 629 1278C803 1278 922 1191 935 1047L1153 1047C1146 1296 937 1467 632 1467C324 1467 107 1296 107 1047C107 846 230 722 495 658L682 613C869 567 948 500 948 388C948 259 817 165 635 165C445 165 306 259 290 402L69 402C82 158 272 -3 559 -22L507 -148L507 -227L574 -227C671 -227 712 -244 712 -288C712 -331 671 -354 591 -354C550 -354 493 -347 471 -342L471 -451C497 -459 560 -466 618 -465C756 -463 857 -401 857 -284C857 -182 776 -124 652 -123L697 -21C993 3 1176 166 1176 415C1176 626 1053 745 757 815Z" />
<glyph glyph-name="scedilla" unicode="&#x015f;" horiz-adv-x="990" d="M460 631C351 658 299 702 299 767C299 850 377 907 494 907C615 907 692 848 702 753L905 753C898 940 734 1071 500 1071C254 1071 88 942 88 754C88 607 184 508 374 462L562 416C672 388 712 351 712 284C712 199 632 145 502 145C370 145 292 201 275 302L61 302C77 125 217 2 432 -17L378 -148L378 -227L445 -227C542 -227 583 -244 583 -288C583 -331 542 -354 462 -354C421 -354 364 -347 342 -342L342 -451C368 -459 431 -466 489 -465C627 -463 728 -401 728 -284C728 -182 647 -124 523 -123L570 -16C785 8 929 132 929 304C929 459 849 539 637 590Z" />
<glyph glyph-name="Scaron" unicode="&#x0160;" horiz-adv-x="1244" d="M69 402C83 141 299 -24 619 -24C961 -24 1176 145 1176 415C1176 626 1053 745 757 815L598 854C412 900 336 960 336 1062C336 1190 455 1278 629 1278C803 1278 922 1191 935 1047L1153 1047C1146 1296 937 1467 632 1467C324 1467 107 1296 107 1047C107 846 230 722 495 658L682 613C869 567 948 500 948 388C948 259 817 165 635 165C445 165 306 259 290 402ZM550 1547L716 1547L994 1852L808 1852L636 1660L630 1660L458 1852L272 1852Z" />
<glyph glyph-name="scaron" unicode="&#x0161;" horiz-adv-x="990" d="M88 754C88 607 184 508 374 462L562 416C672 388 712 351 712 284C712 199 632 145 502 145C370 145 292 201 275 302L61 302C78 109 243 -20 492 -20C750 -20 929 112 929 304C929 459 849 539 637 590L460 631C351 658 299 702 299 767C299 850 377 907 494 907C615 907 692 848 702 753L905 753C898 940 734 1071 500 1071C254 1071 88 942 88 754ZM583 1198L852 1505L667 1505L503 1312L497 1312L333 1505L148 1505L417 1198Z" />
<glyph glyph-name="Tcedilla" unicode="&#x0162;" horiz-adv-x="1205" d="M715 0L715 1250L1156 1250L1156 1443L49 1443L49 1250L491 1250L491 0L559 0L498 -148L498 -227L565 -227C662 -227 703 -244 703 -288C703 -331 662 -354 582 -354C541 -354 484 -347 462 -342L462 -451C488 -459 551 -466 609 -465C747 -463 848 -401 848 -284C848 -182 767 -124 643 -123L697 0Z" />
<glyph glyph-name="tcedilla" unicode="&#x0163;" horiz-adv-x="657" d="M461 -7C463 -7 464 -7 466 -7C514 -7 562 -3 586 3L586 174C572 171 537 169 515 169C427 169 387 210 387 301L387 881L587 881L587 1052L387 1052L387 1301L170 1301L170 1052L17 1052L17 881L170 881L170 277C170 125 217 41 330 9L265 -148L265 -227L332 -227C429 -227 470 -244 470 -288C470 -331 429 -354 349 -354C308 -354 251 -347 229 -342L229 -451C255 -459 318 -466 376 -465C514 -463 615 -401 615 -284C615 -182 534 -124 410 -123Z" />
<glyph glyph-name="Tcaron" unicode="&#x0164;" horiz-adv-x="1205" d="M715 0L715 1250L1156 1250L1156 1443L49 1443L49 1250L491 1250L491 0ZM520 1547L686 1547L964 1852L778 1852L606 1660L600 1660L428 1852L242 1852Z" />
<glyph glyph-name="tcaron" unicode="&#x0165;" horiz-adv-x="762" d="M532 1673L532 1195L666 1195L698 1673ZM170 1301L170 1052L17 1052L17 881L170 881L170 277C170 74 253 -7 466 -7C514 -7 562 -3 586 3L586 174C572 171 537 169 515 169C427 169 387 210 387 301L387 881L587 881L587 1052L387 1052L387 1301Z" />
<glyph glyph-name="Tbar" unicode="&#x0166;" horiz-adv-x="1218" d="M1160 1250L1160 1443L53 1443L53 1250L495 1250L495 796L200 796L200 628L495 628L495 0L719 0L719 628L1018 628L1018 796L719 796L719 1250Z" />
<glyph glyph-name="tbar" unicode="&#x0167;" horiz-adv-x="678" d="M597 478L597 623L387 623L387 881L587 881L587 1052L387 1052L387 1301L170 1301L170 1052L17 1052L17 881L170 881L170 623L21 623L21 478L170 478L170 277C170 74 253 -7 466 -7C514 -7 562 -3 586 3L586 174C572 171 537 169 515 169C427 169 387 210 387 301L387 478Z" />
<glyph glyph-name="Utilde" unicode="&#x0168;" horiz-adv-x="1434" d="M357 1443L133 1443L133 507C133 196 355 -24 717 -24C1079 -24 1301 196 1301 507L1301 1443L1078 1443L1078 526C1078 320 947 175 717 175C487 175 357 320 357 526ZM852 1574C966 1574 1051 1673 1051 1838L918 1838C918 1748 892 1701 849 1701C776 1701 729 1847 587 1847C470 1847 386 1754 386 1586L519 1586C516 1671 544 1720 590 1720C667 1720 718 1574 852 1574Z" />
<glyph glyph-name="utilde" unicode="&#x0169;" horiz-adv-x="1115" d="M1009 1052L793 1052L793 439C793 275 699 167 543 167C394 167 318 253 318 413L318 1052L102 1052L102 371C102 130 242 -19 471 -19C632 -19 739 52 797 178L802 178L802 0L1009 0ZM694 1205C808 1205 893 1304 893 1469L760 1469C760 1379 734 1332 691 1332C618 1332 571 1478 429 1478C312 1478 228 1385 228 1217L361 1217C358 1302 386 1351 432 1351C509 1351 560 1205 694 1205Z" />
<glyph glyph-name="Umacron" unicode="&#x016a;" horiz-adv-x="1434" d="M357 1443L133 1443L133 507C133 196 355 -24 717 -24C1079 -24 1301 196 1301 507L1301 1443L1078 1443L1078 526C1078 320 947 175 717 175C487 175 357 320 357 526ZM1044 1756L390 1756L390 1629L1044 1629Z" />
<glyph glyph-name="umacron" unicode="&#x016b;" horiz-adv-x="1115" d="M1009 1052L793 1052L793 439C793 275 699 167 543 167C394 167 318 253 318 413L318 1052L102 1052L102 371C102 130 242 -19 471 -19C632 -19 739 52 797 178L802 178L802 0L1009 0ZM855 1382L257 1382L257 1254L855 1254Z" />
<glyph glyph-name="Ubreve" unicode="&#x016c;" horiz-adv-x="1434" d="M357 1443L133 1443L133 507C133 196 355 -24 717 -24C1079 -24 1301 196 1301 507L1301 1443L1078 1443L1078 526C1078 320 947 175 717 175C487 175 357 320 357 526ZM383 1852C394 1685 514 1541 717 1541C920 1541 1040 1685 1051 1852L905 1852C894 1737 821 1666 717 1666C613 1666 540 1737 529 1852Z" />
<glyph glyph-name="ubreve" unicode="&#x016d;" horiz-adv-x="1115" d="M1009 1052L793 1052L793 439C793 275 699 167 543 167C394 167 318 253 318 413L318 1052L102 1052L102 371C102 130 242 -19 471 -19C632 -19 739 52 797 178L802 178L802 0L1009 0ZM220 1504C221 1323 347 1190 555 1190C763 1190 889 1323 890 1504L744 1504C744 1389 666 1312 555 1312C444 1312 366 1389 366 1504Z" />
<glyph glyph-name="Uring" unicode="&#x016e;" horiz-adv-x="1434" d="M357 1443L133 1443L133 507C133 196 355 -24 717 -24C1079 -24 1301 196 1301 507L1301 1443L1078 1443L1078 526C1078 320 947 175 717 175C487 175 357 320 357 526ZM717 1517C825 1517 913 1604 913 1712C913 1819 825 1907 717 1907C609 1907 521 1819 521 1712C521 1604 609 1517 717 1517ZM717 1613C663 1613 618 1657 618 1712C618 1766 663 1810 717 1810C771 1810 816 1766 816 1712C816 1657 771 1613 717 1613Z" />
<glyph glyph-name="uring" unicode="&#x016f;" horiz-adv-x="1115" d="M1009 1052L793 1052L793 439C793 275 699 167 543 167C394 167 318 253 318 413L318 1052L102 1052L102 371C102 130 242 -19 471 -19C632 -19 739 52 797 178L802 178L802 0L1009 0ZM556 1147C666 1147 756 1236 756 1345C756 1455 666 1545 556 1545C446 1545 356 1455 356 1345C356 1236 446 1147 556 1147ZM556 1246C501 1246 456 1290 456 1345C456 1401 501 1445 556 1445C611 1445 656 1401 656 1345C656 1290 611 1246 556 1246Z" />
<glyph glyph-name="Uhungarumlaut" unicode="&#x0170;" horiz-adv-x="1434" d="M357 1443L133 1443L133 507C133 196 355 -24 717 -24C1079 -24 1301 196 1301 507L1301 1443L1078 1443L1078 526C1078 320 947 175 717 175C487 175 357 320 357 526ZM991 1559L1254 1854L1032 1854L810 1559ZM643 1559L905 1854L683 1854L461 1559Z" />
<glyph glyph-name="uhungarumlaut" unicode="&#x0171;" horiz-adv-x="1115" d="M1009 1052L793 1052L793 439C793 275 699 167 543 167C394 167 318 253 318 413L318 1052L102 1052L102 371C102 130 242 -19 471 -19C632 -19 739 52 797 178L802 178L802 0L1009 0ZM640 1202L804 1202L1040 1505L834 1505ZM305 1202L468 1202L705 1505L499 1505Z" />
<glyph glyph-name="Uogonek" unicode="&#x0172;" horiz-adv-x="1434" d="M948 -442C1006 -442 1054 -433 1075 -423L1075 -289C1054 -294 1024 -298 996 -298C928 -298 876 -265 876 -200C876 -127 944 -52 1051 36C1222 179 1301 320 1301 507L1301 1443L1078 1443L1078 526C1078 311 938 175 717 175C497 175 357 311 357 526L357 1443L133 1443L133 507C133 186 365 -24 717 -24C758 -24 807 -16 848 -4L848 -8C760 -75 706 -157 706 -246C706 -363 808 -442 948 -442Z" />
<glyph glyph-name="uogonek" unicode="&#x0173;" horiz-adv-x="1115" d="M994 -407L994 -276C973 -281 944 -285 915 -285C848 -285 801 -252 801 -189C801 -104 898 -37 992 -6L1009 -2L1009 1052L793 1052L793 439C793 275 699 167 543 167C394 167 318 253 318 413L318 1052L102 1052L102 371C102 130 242 -19 471 -19C632 -19 739 52 797 178L802 178L802 14C719 -32 631 -118 631 -234C631 -349 730 -426 868 -426C931 -426 975 -416 994 -407Z" />
<glyph glyph-name="Wcircumflex" unicode="&#x0174;" horiz-adv-x="1923" d="M956 1088L966 1088L1278 0L1489 0L1879 1443L1646 1443L1379 313L1371 313L1065 1443L857 1443L552 313L544 313L277 1443L44 1443L433 0L645 0ZM878 1844L600 1539L786 1539L958 1731L964 1731L1136 1539L1322 1539L1044 1844Z" />
<glyph glyph-name="wcircumflex" unicode="&#x0175;" horiz-adv-x="1520" d="M1495 1052L1281 1052L1089 224L1084 224L864 1052L656 1052L437 224L433 224L241 1052L25 1052L314 0L537 0L756 788L761 788L982 0L1207 0ZM843 1505L677 1505L408 1198L593 1198L757 1388L763 1388L927 1198L1112 1198Z" />
<glyph glyph-name="Ycircumflex" unicode="&#x0176;" horiz-adv-x="1293" d="M758 0L758 591L1267 1443L1019 1443L651 806L644 806L276 1443L26 1443L534 591L534 0ZM563 1844L285 1539L471 1539L643 1731L649 1731L821 1539L1007 1539L729 1844Z" />
<glyph glyph-name="ycircumflex" unicode="&#x0177;" horiz-adv-x="1037" d="M211 -392C430 -392 533 -310 623 -55L1018 1052L790 1052L523 196L520 196L253 1052L19 1052L399 -1C399 -2 380 -64 380 -66C347 -174 294 -216 193 -216C175 -216 139 -216 123 -212L123 -387C139 -390 194 -392 211 -392ZM602 1505L436 1505L167 1198L352 1198L516 1388L522 1388L686 1198L871 1198Z" />
<glyph glyph-name="Ydieresis" unicode="&#x0178;" horiz-adv-x="1293" d="M758 0L758 591L1267 1443L1019 1443L651 806L644 806L276 1443L26 1443L534 591L534 0ZM454 1592C519 1592 572 1644 572 1709C572 1774 519 1826 454 1826C388 1826 335 1774 335 1709C335 1644 388 1592 454 1592ZM839 1592C904 1592 957 1644 957 1709C957 1774 904 1826 839 1826C773 1826 720 1774 720 1709C720 1644 773 1592 839 1592Z" />
<glyph glyph-name="Zacute" unicode="&#x0179;" horiz-adv-x="1273" d="M95 0L1179 0L1179 194L373 194L373 201L1160 1290L1160 1443L119 1443L119 1250L885 1250L885 1242L95 153ZM736 1559L999 1854L777 1854L555 1559Z" />
<glyph glyph-name="zacute" unicode="&#x017a;" horiz-adv-x="986" d="M85 0L900 0L900 172L347 172L347 176L894 904L894 1052L89 1052L89 880L646 880L646 876L85 139ZM584 1202L834 1505L617 1505L403 1202Z" />
<glyph glyph-name="Zdotaccent" unicode="&#x017b;" horiz-adv-x="1273" d="M95 0L1179 0L1179 194L373 194L373 201L1160 1290L1160 1443L119 1443L119 1250L885 1250L885 1242L95 153ZM637 1576C710 1576 768 1635 768 1707C768 1780 710 1838 637 1838C564 1838 506 1780 506 1707C506 1635 564 1576 637 1576Z" />
<glyph glyph-name="zdotaccent" unicode="&#x017c;" horiz-adv-x="986" d="M85 0L900 0L900 172L347 172L347 176L894 904L894 1052L89 1052L89 880L646 880L646 876L85 139ZM493 1209C567 1209 626 1269 626 1342C626 1414 567 1474 493 1474C419 1474 359 1414 359 1342C359 1269 419 1209 493 1209Z" />
<glyph glyph-name="Zcaron" unicode="&#x017d;" horiz-adv-x="1273" d="M95 0L1179 0L1179 194L373 194L373 201L1160 1290L1160 1443L119 1443L119 1250L885 1250L885 1242L95 153ZM554 1547L720 1547L998 1852L812 1852L640 1660L634 1660L462 1852L276 1852Z" />
<glyph glyph-name="zcaron" unicode="&#x017e;" horiz-adv-x="986" d="M85 0L900 0L900 172L347 172L347 176L894 904L894 1052L89 1052L89 880L646 880L646 876L85 139ZM576 1198L845 1505L660 1505L496 1312L490 1312L326 1505L141 1505L410 1198Z" />
<glyph glyph-name="uni04D8" unicode="&#x018f;" horiz-adv-x="1456" d="M725 -35C1108 -35 1365 267 1365 720C1365 1183 1108 1478 706 1478C415 1478 193 1322 110 1061L339 1061C402 1206 519 1281 703 1281C953 1281 1130 1080 1128 794L1128 771L91 771C91 771 91 698 91 682C95 244 333 -35 725 -35ZM728 162C501 162 352 323 332 590L1124 590C1096 329 941 162 728 162Z" />
<glyph glyph-name="florin" unicode="&#x0192;" horiz-adv-x="1270" d="M1224 1425C1171 1449 1089 1464 1015 1464C761 1464 616 1340 579 1092L547 873L192 873L192 706L522 706L474 382C451 226 383 163 241 163C178 163 98 183 48 213L48 20C105 -7 187 -24 265 -24C513 -24 652 98 690 357L742 706L1128 706L1128 873L766 873L796 1074C817 1216 893 1280 1041 1280C1104 1280 1171 1266 1224 1241Z" />
<glyph glyph-name="Ohorn" unicode="&#x01a0;" horiz-adv-x="1534" d="M757 -24C1173 -24 1433 263 1433 721C1433 945 1342 1180 1221 1268L1221 1274L1281 1274C1397 1274 1472 1346 1472 1457L1472 1663L1287 1663L1287 1515C1287 1449 1257 1424 1178 1424C1025 1424 915 1467 757 1467C341 1467 81 1179 81 721C81 263 341 -24 757 -24ZM757 173C483 173 310 385 310 721C310 1058 483 1270 757 1270C1031 1270 1203 1058 1203 721C1203 385 1031 173 757 173Z" />
<glyph glyph-name="ohorn" unicode="&#x01a1;" horiz-adv-x="1177" d="M559 158C390 158 280 292 280 526C280 759 390 893 559 893C729 893 838 759 838 526C838 292 729 158 559 158ZM1058 519C1058 677 1012 803 933 892L933 897L966 897C1060 897 1120 963 1120 1063L1120 1259L937 1259L937 1123C937 1059 910 1036 832 1036C743 1036 694 1071 559 1071C259 1071 60 863 60 526C60 188 257 -20 561 -20C858 -20 1058 190 1058 519Z" />
<glyph glyph-name="Uhorn" unicode="&#x01af;" horiz-adv-x="1609" d="M717 -24C1069 -24 1301 186 1301 507L1301 1291L1368 1291C1499 1291 1579 1364 1579 1487L1579 1694L1394 1694L1394 1527C1394 1470 1366 1443 1307 1443L1078 1443L1078 526C1078 310 938 175 717 175C497 175 357 311 357 526L357 1443L133 1443L133 507C133 186 365 -24 717 -24Z" />
</font>
</defs>
</svg>
