<?xml version="1.0" standalone="no"?><!DOCTYPE svg PUBLIC "-//W3C//DTD SVG 1.1//EN" "http://www.w3.org/Graphics/SVG/1.1/DTD/svg11.dtd" ><svg xmlns="http://www.w3.org/2000/svg"><metadata></metadata><defs>
<font id="SFProDisplay-Italic" >
<font-face font-family="SF Pro Display" font-stretch="normal" units-per-em="2048" weight="400" panose-1="0,0,5,0,0,0,0,0,0,0" ascent="1950" descent="-494" x-height="1040" underline-thickness="120" underline-position="-310" unicode-range="U+00000032-00064258" bbox="-607,-500,2807,2125" />
<missing-glyph horiz-adv-x="2048" d="M-65 -494L1782 -494L1843 -210L-5 -210ZM27 -62L1874 -62L1934 222L87 222ZM119 370L1966 370L2026 654L179 654ZM210 802L2058 802L2118 1086L271 1086ZM302 1234L2150 1234L2210 1518L363 1518ZM394 1666L2241 1666L2302 1950L454 1950Z" />
<glyph glyph-name="space" unicode="&#x20;" horiz-adv-x="492" d="" />
<glyph glyph-name="exclam" unicode="&#x21;" horiz-adv-x="550" d="M419 1443L231 480L397 480L619 1443ZM237 -10C301 -10 351 40 351 104C351 168 301 218 237 218C173 218 123 168 123 104C123 40 173 -10 237 -10Z" />
<glyph glyph-name="quotedbl" unicode="&#x22;" horiz-adv-x="821" d="M459 934L567 1443L407 1443L299 934ZM799 934L907 1443L747 1443L639 934Z" />
<glyph glyph-name="numbersign" unicode="&#x23;" horiz-adv-x="1231" d="M627 0L770 0L903 403L1165 403L1210 547L949 547L1070 911L1321 911L1367 1054L1118 1054L1247 1443L1104 1443L974 1054L648 1054L775 1443L633 1443L503 1054L256 1054L209 911L456 911L337 547L100 547L55 403L289 403L157 0L299 0L432 403L760 403ZM477 544L598 913L928 913L807 544Z" />
<glyph glyph-name="dollar" unicode="&#x24;" horiz-adv-x="1239" d="M763 626C896 565 968 499 968 383C968 238 854 131 658 129ZM678 856C555 911 486 970 486 1077C486 1209 605 1313 775 1313ZM801 803L905 1294C1007 1260 1072 1182 1090 1068L1271 1068C1268 1249 1136 1407 940 1458L970 1600L836 1600L810 1476C806 1476 803 1476 800 1476C494 1476 296 1301 296 1066C296 899 403 776 589 699L640 678L527 145C402 179 318 265 300 390L118 390C129 191 287 34 493 -16L466 -142L600 -142L623 -34C628 -34 633 -34 638 -34C937 -34 1159 138 1159 404C1159 589 1032 704 818 796Z" />
<glyph glyph-name="percent" unicode="&#x25;" horiz-adv-x="1631" d="M219 1012C219 846 318 742 477 742C676 742 829 928 829 1190C829 1355 729 1459 570 1459C370 1459 219 1273 219 1012ZM480 868C421 868 385 919 385 1002C385 1180 471 1333 567 1333C626 1333 662 1282 662 1199C662 1022 575 868 480 868ZM323 0L984 701L1683 1443L1495 1443L851 761L133 0ZM989 254C989 88 1088 -16 1247 -16C1446 -16 1599 170 1599 432C1599 597 1499 701 1340 701C1140 701 989 515 989 254ZM1250 110C1191 110 1155 161 1155 244C1155 422 1241 575 1337 575C1396 575 1432 524 1432 441C1432 264 1345 110 1250 110Z" />
<glyph glyph-name="ampersand" unicode="&#x26;" horiz-adv-x="1371" d="M562 1116C562 1236 662 1333 783 1333C890 1333 967 1272 967 1174C967 1069 881 950 666 885C593 985 562 1052 562 1116ZM565 124C369 124 249 238 249 388C249 515 345 624 527 691L584 712L906 225C805 151 672 124 565 124ZM1052 0L1265 0L1126 208C1241 330 1321 491 1338 701L1343 762L1175 762L1171 708C1159 549 1110 431 1034 345L743 772C1020 865 1138 1024 1138 1188C1138 1354 991 1477 790 1477C562 1477 390 1316 390 1121C390 1038 425 952 506 833L444 809C192 711 69 564 69 376C69 148 287 -27 557 -27C723 -27 877 18 990 96Z" />
<glyph glyph-name="quotesingle" unicode="&#x27;" horiz-adv-x="480" d="M459 934L567 1443L407 1443L299 934Z" />
<glyph glyph-name="parenleft" unicode="&#x28;" horiz-adv-x="660" d="M475 -308C421 -143 384 75 384 340C384 754 548 1144 847 1443L655 1443C392 1185 209 787 209 353C209 116 255 -165 321 -308Z" />
<glyph glyph-name="parenright" unicode="&#x29;" horiz-adv-x="660" d="M307 1443C361 1278 398 1060 398 795C398 381 234 -9 -65 -308L127 -308C390 -50 573 348 573 782C573 1019 527 1300 461 1443Z" />
<glyph glyph-name="asterisk" unicode="&#x2a;" horiz-adv-x="990" d="M935 854L1010 955L774 1116L1061 1222L1015 1344L748 1218L808 1502L680 1515L638 1216L414 1401L339 1298L566 1142L287 1037L333 917L606 1043L546 756L674 743L714 1032Z" />
<glyph glyph-name="plus" unicode="&#x2b;" horiz-adv-x="1239" d="M737 488L1172 488L1206 650L772 650L865 1089L713 1089L620 650L188 650L154 488L585 488L497 71L649 71Z" />
<glyph glyph-name="comma" unicode="&#x2c;" horiz-adv-x="522" d="M137 -287L382 222L197 222L-8 -287Z" />
<glyph glyph-name="hyphen" unicode="&#x2d;" horiz-adv-x="830" d="M133 486L783 486L816 638L166 638Z" />
<glyph glyph-name="period" unicode="&#x2e;" horiz-adv-x="522" d="M223 -10C287 -10 337 40 337 104C337 168 287 218 223 218C159 218 109 168 109 104C109 40 159 -10 223 -10Z" />
<glyph glyph-name="slash" unicode="&#x2f;" horiz-adv-x="660" d="M25 -308L907 1443L757 1443L-125 -308Z" />
<glyph glyph-name="zero" unicode="&#x30;" horiz-adv-x="1285" d="M652 -24C1031 -24 1294 372 1294 943C1294 1263 1110 1467 821 1467C445 1467 178 1064 178 496C178 178 362 -24 652 -24ZM364 499C364 953 562 1308 815 1308C993 1308 1107 1165 1107 942C1107 484 913 134 660 134C479 134 364 275 364 499Z" />
<glyph glyph-name="one" unicode="&#x31;" horiz-adv-x="913" d="M423 0L603 0L910 1443L731 1443L288 1167L244 958L681 1232L685 1232Z" />
<glyph glyph-name="two" unicode="&#x32;" horiz-adv-x="1192" d="M279 1046L457 1046C486 1209 604 1310 766 1310C918 1310 1023 1216 1023 1081C1023 962 959 875 719 670L101 144L72 0L1042 0L1076 162L368 162L369 166L822 552C1126 812 1206 922 1206 1101C1206 1312 1023 1467 776 1467C507 1467 307 1298 279 1046Z" />
<glyph glyph-name="three" unicode="&#x33;" horiz-adv-x="1220" d="M494 665L673 665C855 665 959 573 959 412C959 246 824 133 625 133C423 133 296 233 287 399C287 399 287 399 287 399L113 399C113 399 113 399 113 399C105 148 307 -24 611 -24C919 -24 1144 166 1144 426C1144 587 1056 700 901 737L902 741C1091 767 1229 918 1229 1100C1229 1314 1048 1466 794 1466C526 1466 329 1313 299 1081L473 1081C495 1218 619 1312 778 1312C939 1312 1047 1219 1047 1080C1047 924 910 819 709 819L526 819Z" />
<glyph glyph-name="four" unicode="&#x34;" horiz-adv-x="1233" d="M742 0L918 0L982 299L1187 299L1221 460L1016 460L1225 1443L944 1443C603 1057 291 700 115 470L88 299L806 299ZM305 463C537 756 820 1073 1013 1288L1017 1288L840 459L304 459Z" />
<glyph glyph-name="five" unicode="&#x35;" horiz-adv-x="1192" d="M648 -24C954 -24 1173 198 1173 492C1173 764 986 945 728 945C612 945 502 902 439 832L434 832L574 1282L1231 1282L1266 1443L456 1443L212 660L400 660C468 744 578 793 684 793C862 793 991 670 991 488C991 282 852 138 654 138C472 138 338 248 324 408C324 408 324 408 324 408L147 408C147 408 147 408 147 408C150 155 358 -24 648 -24Z" />
<glyph glyph-name="six" unicode="&#x36;" horiz-adv-x="1232" d="M1217 508C1225 767 1042 950 780 950C621 950 489 878 397 757L391 758C456 1091 636 1306 851 1306C1004 1306 1113 1213 1136 1064L1320 1064C1301 1304 1118 1467 869 1467C479 1467 212 1070 196 602C176 77 478 -24 671 -24C984 -24 1205 195 1217 508ZM736 794C912 794 1039 663 1031 478C1025 278 885 136 687 136C505 136 372 276 378 458C384 644 544 794 736 794Z" />
<glyph glyph-name="seven" unicode="&#x37;" horiz-adv-x="1081" d="M87 0L290 0L1203 1276L1239 1443L314 1443L279 1282L1010 1282L1009 1276Z" />
<glyph glyph-name="eight" unicode="&#x38;" horiz-adv-x="1243" d="M1176 421C1176 567 1087 689 942 740L943 744C1135 789 1266 941 1266 1118C1266 1321 1079 1465 816 1465C536 1465 319 1286 319 1056C319 936 388 834 505 781L504 777C279 741 112 563 112 359C112 134 325 -26 624 -26C940 -26 1176 165 1176 421ZM667 674C859 674 993 572 993 427C993 258 839 132 634 132C436 132 301 233 301 380C301 548 457 674 667 674ZM497 1046C497 1197 629 1310 804 1310C969 1310 1081 1222 1081 1094C1081 943 946 828 769 828C610 828 497 918 497 1046Z" />
<glyph glyph-name="nine" unicode="&#x39;" horiz-adv-x="1231" d="M736 650C559 650 436 777 442 958C448 1162 590 1307 782 1307C972 1307 1095 1165 1089 982C1083 796 926 650 736 650ZM259 942C251 685 439 494 695 494C847 494 978 560 1072 686L1077 685C1012 352 831 138 615 138C463 138 354 230 332 379L148 379C164 139 346 -24 599 -24C991 -24 1257 388 1275 891C1291 1374 977 1467 802 1467C495 1467 271 1251 259 942Z" />
<glyph glyph-name="colon" unicode="&#x3a;" horiz-adv-x="522" d="M223 -10C287 -10 337 40 337 104C337 168 287 218 223 218C159 218 109 168 109 104C109 40 159 -10 223 -10ZM381 732C445 732 495 782 495 846C495 910 445 960 381 960C317 960 267 910 267 846C267 782 317 732 381 732Z" />
<glyph glyph-name="semicolon" unicode="&#x3b;" horiz-adv-x="522" d="M381 732C445 732 495 782 495 846C495 910 445 960 381 960C317 960 267 910 267 846C267 782 317 732 381 732ZM137 -287L382 222L197 222L-8 -287Z" />
<glyph glyph-name="less" unicode="&#x3c;" horiz-adv-x="1239" d="M1040 189L436 573L438 582L1208 976L1249 1166L258 660L228 518L1003 7Z" />
<glyph glyph-name="equal" unicode="&#x3d;" horiz-adv-x="1239" d="M1107 301L1140 455L173 455L140 301ZM1188 684L1221 838L254 838L221 684Z" />
<glyph glyph-name="greater" unicode="&#x3e;" horiz-adv-x="1239" d="M329 983L933 599L931 590L161 196L120 6L1111 512L1141 654L366 1165Z" />
<glyph glyph-name="question" unicode="&#x3f;" horiz-adv-x="964" d="M204 1089L378 1089C417 1221 519 1299 655 1299C809 1299 890 1207 890 1107C890 991 823 905 673 835C518 765 442 698 405 528L387 446L566 446L577 506C596 611 648 664 791 728C958 803 1081 951 1081 1126C1081 1306 916 1456 667 1456C408 1456 248 1309 204 1089ZM414 -10C478 -10 528 40 528 104C528 168 478 218 414 218C350 218 300 168 300 104C300 40 350 -10 414 -10Z" />
<glyph glyph-name="at" unicode="&#x40;" horiz-adv-x="1794" d="M1046 1438C513 1438 134 1064 134 538C134 83 470 -242 940 -242C1015 -242 1105 -232 1165 -217L1192 -87C1156 -103 1048 -116 957 -116C555 -116 275 152 275 538C275 976 603 1312 1031 1312C1419 1312 1676 1100 1676 779C1676 517 1547 314 1381 314C1322 314 1287 346 1287 399C1287 410 1288 425 1291 440L1409 979L1252 979L1226 855L1210 855C1189 947 1083 1018 966 1018C731 1018 556 809 556 527C556 320 683 178 868 178C979 178 1078 231 1127 316L1143 315C1143 315 1143 315 1143 315C1154 235 1240 178 1349 178C1622 178 1813 429 1813 786C1813 1169 1496 1438 1046 1438ZM1175 659C1175 471 1053 317 903 317C790 317 718 403 718 540C718 734 830 878 980 878C1097 878 1175 790 1175 659Z" />
<glyph glyph-name="A" unicode="&#x41;" horiz-adv-x="1291" d="M850 1224L854 1224L953 566L482 566ZM1035 0L1206 0L982 1443L801 1443L-35 0L163 0L397 413L976 413Z" />
<glyph glyph-name="B" unicode="&#x42;" horiz-adv-x="1300" d="M680 0C1007 0 1227 191 1227 458C1227 601 1139 722 980 747L981 751C1161 800 1294 943 1294 1125C1294 1318 1130 1443 898 1443L387 1443L80 0ZM537 1284L829 1284C1009 1284 1107 1220 1107 1088C1107 930 956 821 736 821L439 821ZM298 159L406 666L740 666C936 666 1036 591 1036 443C1036 281 888 159 674 159Z" />
<glyph glyph-name="C" unicode="&#x43;" horiz-adv-x="1402" d="M1292 978L1474 978C1474 986 1474 990 1473 1005C1454 1289 1230 1466 918 1466C488 1466 178 1094 178 604C178 221 408 -23 771 -23C1058 -23 1294 150 1373 420L1191 420C1123 246 966 142 773 142C519 142 363 320 363 610C363 1010 588 1301 916 1301C1118 1301 1270 1190 1290 1002C1291 994 1292 984 1292 978Z" />
<glyph glyph-name="D" unicode="&#x44;" horiz-adv-x="1413" d="M387 1443L82 0L642 0C1102 0 1419 349 1419 855C1419 1224 1191 1443 807 1443ZM537 1283L776 1283C1077 1283 1233 1130 1233 833C1233 441 980 160 628 160L298 160Z" />
<glyph glyph-name="E" unicode="&#x45;" horiz-adv-x="1134" d="M1010 162L299 162L404 658L1078 658L1112 818L438 818L537 1281L1248 1281L1283 1443L387 1443L80 0L976 0Z" />
<glyph glyph-name="F" unicode="&#x46;" horiz-adv-x="1084" d="M264 0L397 625L1033 625L1067 785L431 785L537 1281L1230 1281L1265 1443L387 1443L80 0Z" />
<glyph glyph-name="G" unicode="&#x47;" horiz-adv-x="1454" d="M1462 736L878 736L844 578L1244 578L1233 523C1187 292 1005 142 772 142C507 142 362 332 362 610C362 922 519 1300 920 1300C1142 1300 1283 1169 1296 963L1478 963C1478 968 1478 973 1478 977C1470 1262 1258 1466 920 1466C405 1466 177 993 177 604C177 235 396 -23 772 -23C1095 -23 1341 173 1415 515Z" />
<glyph glyph-name="H" unicode="&#x48;" horiz-adv-x="1436" d="M1236 0L1543 1443L1359 1443L1226 819L438 819L571 1443L387 1443L80 0L264 0L404 657L1192 657L1052 0Z" />
<glyph glyph-name="I" unicode="&#x49;" horiz-adv-x="464" d="M264 0L571 1443L387 1443L80 0Z" />
<glyph glyph-name="J" unicode="&#x4a;" horiz-adv-x="1026" d="M65 330C65 129 228 -24 451 -24C697 -24 853 121 906 373L1133 1443L949 1443L731 414C693 234 609 145 469 145C334 145 247 223 247 351C247 351 247 352 247 352C247 352 65 352 65 352C65 347 65 338 65 330Z" />
<glyph glyph-name="K" unicode="&#x4b;" horiz-adv-x="1259" d="M264 0L369 494L584 683L976 0L1186 0L726 795L1440 1443L1202 1443L426 742L422 742L571 1443L387 1443L80 0Z" />
<glyph glyph-name="L" unicode="&#x4c;" horiz-adv-x="1078" d="M992 162L299 162L571 1443L387 1443L80 0L958 0Z" />
<glyph glyph-name="M" unicode="&#x4d;" horiz-adv-x="1706" d="M250 0L487 1124L493 1124L716 10L869 10L1568 1124L1575 1124L1336 0L1506 0L1813 1443L1588 1443L834 227L830 227L587 1443L387 1443L80 0Z" />
<glyph glyph-name="N" unicode="&#x4e;" horiz-adv-x="1434" d="M264 0L513 1173L517 1173L1050 0L1234 0L1541 1443L1357 1443L1108 270L1104 270L571 1443L387 1443L80 0Z" />
<glyph glyph-name="O" unicode="&#x4f;" horiz-adv-x="1518" d="M928 1301C1181 1301 1343 1118 1343 831C1343 451 1113 142 777 142C524 142 362 325 362 612C362 992 592 1301 928 1301ZM777 -23C1213 -23 1528 365 1528 837C1528 1217 1290 1466 928 1466C492 1466 177 1078 177 606C177 226 415 -23 777 -23Z" />
<glyph glyph-name="P" unicode="&#x50;" horiz-adv-x="1224" d="M387 1443L80 0L265 0L374 515L723 515C1054 515 1308 716 1308 1053C1308 1292 1124 1443 894 1443ZM537 1283L832 1283C1008 1283 1120 1193 1120 1037C1120 805 960 675 712 675L408 675Z" />
<glyph glyph-name="Q" unicode="&#x51;" horiz-adv-x="1518" d="M1268 -163L1142 80C1378 226 1528 512 1528 837C1528 1217 1290 1466 928 1466C492 1466 177 1078 177 606C177 226 415 -23 777 -23C855 -23 930 -10 999 13L1090 -163ZM777 142C524 142 362 325 362 612C362 992 592 1301 928 1301C1181 1301 1343 1118 1343 831C1343 573 1237 348 1065 230L970 413L792 413L922 162C876 149 828 142 777 142Z" />
<glyph glyph-name="R" unicode="&#x52;" horiz-adv-x="1270" d="M420 731L537 1283L882 1283C1033 1283 1127 1190 1127 1044C1127 860 979 731 767 731ZM387 1443L80 0L265 0L386 571L750 571L940 0L1130 0L928 596C1172 646 1317 838 1317 1062C1317 1292 1164 1443 892 1443Z" />
<glyph glyph-name="S" unicode="&#x53;" horiz-adv-x="1227" d="M100 424C110 144 360 -23 660 -23C1002 -23 1179 197 1179 423C1179 606 1057 726 817 801L721 831C546 886 469 955 469 1066C469 1187 573 1303 780 1303C981 1303 1102 1198 1109 1048L1289 1048C1289 1307 1075 1466 782 1466C488 1466 283 1299 283 1052C283 857 400 742 639 667L735 637C913 581 990 515 990 385C990 227 847 140 662 140C443 140 301 256 281 424Z" />
<glyph glyph-name="T" unicode="&#x54;" horiz-adv-x="1211" d="M638 0L910 1281L1373 1281L1407 1443L297 1443L263 1281L726 1281L454 0Z" />
<glyph glyph-name="U" unicode="&#x55;" horiz-adv-x="1430" d="M691 -23C1052 -23 1263 159 1329 467L1537 1443L1353 1443L1152 502C1104 277 937 143 723 143C493 143 381 257 374 434C373 475 377 520 387 567L571 1443L387 1443L201 555C192 511 187 467 188 425C190 175 364 -23 691 -23Z" />
<glyph glyph-name="V" unicode="&#x56;" horiz-adv-x="1293" d="M678 0L1514 1443L1312 1443L633 237L629 237L447 1443L273 1443L496 0Z" />
<glyph glyph-name="W" unicode="&#x57;" horiz-adv-x="1896" d="M1125 1147L1129 1147L1229 0L1406 0L2096 1443L1906 1443L1367 278L1363 278L1267 1443L1097 1443L525 276L521 276L463 1443L294 1443L381 0L558 0Z" />
<glyph glyph-name="X" unicode="&#x58;" horiz-adv-x="1304" d="M-20 0L212 0L716 582L724 582L986 0L1192 0L860 709L1511 1443L1279 1443L775 862L767 862L505 1443L299 1443L632 734Z" />
<glyph glyph-name="Y" unicode="&#x59;" horiz-adv-x="1256" d="M662 0L788 604L1477 1443L1269 1443L733 785L729 785L463 1443L273 1443L609 630L477 0Z" />
<glyph glyph-name="Z" unicode="&#x5a;" horiz-adv-x="1263" d="M38 0L1105 0L1139 162L317 162L318 166L1367 1315L1394 1443L373 1443L338 1281L1117 1281L1116 1277L65 128Z" />
<glyph glyph-name="bracketleft" unicode="&#x5b;" horiz-adv-x="660" d="M449 1443L75 -308L513 -308L542 -173L272 -173L588 1307L858 1307L887 1443Z" />
<glyph glyph-name="backslash" unicode="&#x5c;" horiz-adv-x="660" d="M345 -308L490 -308L437 1443L292 1443Z" />
<glyph glyph-name="bracketright" unicode="&#x5d;" horiz-adv-x="660" d="M333 -308L707 1443L268 1443L239 1308L510 1308L194 -172L-77 -172L-106 -308Z" />
<glyph glyph-name="asciicircum" unicode="&#x5e;" horiz-adv-x="900" d="M656 1291L672 1291L789 816L956 816L791 1443L601 1443L170 816L337 816Z" />
<glyph glyph-name="underscore" unicode="&#x5f;" horiz-adv-x="1024" d="M-122 -244L922 -244L953 -100L-91 -100Z" />
<glyph glyph-name="grave" unicode="&#x60;" horiz-adv-x="1094" d="M936 1208L790 1508L614 1508L796 1208Z" />
<glyph glyph-name="a" unicode="&#x61;" horiz-adv-x="1018" d="M446 130C330 130 250 192 250 289C250 394 340 458 496 466L780 481L754 365C723 226 595 130 446 130ZM400 -18C528 -18 638 38 709 127L712 127L685 0L852 0L995 673C999 697 1002 728 1002 761C1002 936 856 1058 634 1058C392 1058 224 924 193 737L375 737C396 836 479 905 620 905C754 905 827 840 827 736C827 718 827 702 823 685L809 620L498 604C232 590 74 475 74 271C74 101 221 -18 400 -18Z" />
<glyph glyph-name="b" unicode="&#x62;" horiz-adv-x="1139" d="M611 -18C934 -18 1126 290 1126 602C1126 890 972 1058 736 1058C604 1058 476 982 419 877L416 877L535 1443L363 1443L56 0L221 0L266 215L271 215C305 82 447 -18 611 -18ZM609 136C445 136 335 257 335 428C335 688 480 905 696 905C860 905 952 788 952 598C952 344 818 136 609 136Z" />
<glyph glyph-name="c" unicode="&#x63;" horiz-adv-x="1031" d="M647 1058C334 1058 114 786 114 437C114 172 261 -18 542 -18C761 -18 946 133 996 330L825 330C781 212 680 135 544 135C392 135 292 251 292 443C292 714 438 905 645 905C799 905 887 806 892 689L1061 689C1061 694 1061 692 1061 696C1061 882 922 1058 647 1058Z" />
<glyph glyph-name="d" unicode="&#x64;" horiz-adv-x="1151" d="M502 -18C638 -18 768 62 831 166L835 166L800 0L975 0L1282 1443L1108 1443L975 826L970 826C938 954 802 1058 636 1058C342 1058 115 790 115 430C115 160 264 -18 502 -18ZM542 135C383 135 289 250 289 438C289 712 440 904 638 904C802 904 906 783 906 612C906 339 752 135 542 135Z" />
<glyph glyph-name="e" unicode="&#x65;" horiz-adv-x="1062" d="M314 618C356 780 465 906 627 906C802 906 872 778 872 646C872 637 872 627 871 618ZM542 -20C765 -20 947 128 1001 320L830 320C783 207 684 133 544 133C390 133 291 251 291 443C291 455 291 467 292 479L1040 479C1047 524 1049 576 1049 619C1049 890 888 1058 629 1058C327 1058 114 780 114 438C114 174 259 -20 542 -20Z" />
<glyph glyph-name="f" unicode="&#x66;" horiz-adv-x="615" d="M117 0L292 0L478 896L718 896L749 1040L508 1040L526 1134C548 1248 609 1299 726 1299C751 1299 796 1295 816 1290L845 1434C801 1441 768 1444 723 1444C505 1444 391 1350 351 1139L332 1040L161 1040L130 896L303 896Z" />
<glyph glyph-name="g" unicode="&#x67;" horiz-adv-x="1140" d="M462 -392C722 -392 917 -244 980 54L1188 1040L1017 1040L973 818L968 818C932 954 803 1058 636 1058C298 1058 115 749 115 443C115 173 271 0 506 0C638 0 769 75 833 183L837 183L805 51C757 -146 642 -244 462 -244C327 -244 233 -181 219 -86L40 -86C40 -264 223 -392 462 -392ZM545 153C377 153 289 273 289 447C289 704 426 904 639 904C789 904 906 783 906 612C906 365 771 153 545 153Z" />
<glyph glyph-name="h" unicode="&#x68;" horiz-adv-x="1110" d="M56 0L231 0L364 624C399 789 523 904 684 904C825 904 909 820 909 697C909 667 904 633 896 595L765 0L940 0L1077 625C1086 668 1091 709 1091 746C1091 910 961 1058 758 1058C597 1058 480 974 422 878L418 878L538 1443L363 1443Z" />
<glyph glyph-name="i" unicode="&#x69;" horiz-adv-x="416" d="M60 0L236 0L457 1040L281 1040ZM429 1215C489 1215 538 1264 538 1324C538 1384 489 1433 429 1433C369 1433 320 1384 320 1324C320 1264 369 1215 429 1215Z" />
<glyph glyph-name="j" unicode="&#x6a;" horiz-adv-x="416" d="M437 1215C497 1215 546 1264 546 1324C546 1384 497 1433 437 1433C377 1433 328 1384 328 1324C328 1264 377 1215 437 1215ZM458 1040L282 1040L48 -52C24 -166 -20 -206 -116 -206C-134 -206 -145 -205 -166 -203L-200 -354C-172 -357 -136 -358 -121 -358C67 -357 177 -272 219 -75Z" />
<glyph glyph-name="k" unicode="&#x6b;" horiz-adv-x="961" d="M232 0L317 397L463 511L726 0L921 0L604 611L1123 1040L900 1040L363 599L359 599L539 1443L363 1443L56 0Z" />
<glyph glyph-name="l" unicode="&#x6c;" horiz-adv-x="424" d="M64 0L240 0L547 1443L371 1443Z" />
<glyph glyph-name="m" unicode="&#x6d;" horiz-adv-x="1638" d="M52 0L227 0L366 655C396 800 518 904 638 904C754 904 820 823 820 726C820 696 815 663 807 626L674 0L849 0L988 653C1021 810 1141 904 1261 904C1376 904 1442 823 1442 726C1442 696 1438 663 1430 626L1297 0L1472 0L1611 656C1620 698 1624 738 1624 775C1624 941 1499 1058 1330 1058C1161 1058 1049 964 985 872L982 872C959 965 858 1058 708 1058C574 1058 458 971 408 873L404 873L439 1040L273 1040Z" />
<glyph glyph-name="n" unicode="&#x6e;" horiz-adv-x="1094" d="M52 0L227 0L360 624C397 796 521 904 672 904C805 904 893 828 893 703C893 676 889 637 880 595L753 0L928 0L1061 625C1070 669 1075 716 1075 752C1075 929 931 1058 745 1058C594 1058 478 988 409 878L405 878L439 1040L273 1040Z" />
<glyph glyph-name="o" unicode="&#x6f;" horiz-adv-x="1096" d="M550 135C391 135 290 257 290 444C290 706 440 905 647 905C806 905 907 783 907 596C907 334 757 135 550 135ZM647 1058C344 1058 114 786 114 439C114 163 284 -18 550 -18C853 -18 1083 254 1083 601C1083 877 913 1058 647 1058Z" />
<glyph glyph-name="p" unicode="&#x70;" horiz-adv-x="1137" d="M602 136C440 136 335 257 335 428C335 680 473 905 699 905C858 905 952 790 952 596C952 328 801 136 602 136ZM149 -348L267 208L272 208C312 78 444 -18 606 -18C899 -18 1123 248 1123 608C1123 881 976 1058 739 1058C604 1058 474 980 411 872L408 872L444 1040L273 1040L-22 -348Z" />
<glyph glyph-name="q" unicode="&#x71;" horiz-adv-x="1139" d="M541 135C380 135 289 250 289 438C289 706 438 904 639 904C803 904 906 783 906 612C906 339 751 135 541 135ZM892 -348L1188 1040L1020 1040L975 826L970 826C938 954 804 1058 636 1058C341 1058 115 783 115 430C115 155 264 -18 502 -18C638 -18 768 62 833 173L837 173L721 -348Z" />
<glyph glyph-name="r" unicode="&#x72;" horiz-adv-x="698" d="M52 0L226 0L353 603C393 788 482 888 658 888C706 888 765 876 788 867L825 1032C802 1043 756 1055 705 1055C574 1055 478 996 413 902L409 902L438 1040L273 1040Z" />
<glyph glyph-name="s" unicode="&#x73;" horiz-adv-x="948" d="M186 748C186 605 264 521 453 462L543 434C675 393 710 364 710 297C710 201 616 125 490 125C345 125 256 199 240 304L66 304C72 121 235 -18 482 -18C714 -18 885 120 885 307C885 444 808 525 622 583L532 611C402 651 357 690 357 764C357 851 438 915 570 915C690 915 780 842 789 740L955 740C953 926 797 1057 572 1057C342 1057 186 927 186 748Z" />
<glyph glyph-name="t" unicode="&#x74;" horiz-adv-x="617" d="M416 -8C451 -8 486 -4 521 2L552 147C529 144 511 143 480 143C398 143 345 175 345 254C345 280 349 311 357 348L474 896L697 896L727 1040L504 1040L559 1299L384 1299L331 1040L176 1040L146 896L300 896L171 294C164 262 161 232 161 205C161 62 271 -8 416 -8Z" />
<glyph glyph-name="u" unicode="&#x75;" horiz-adv-x="1093" d="M1142 1040L968 1040L835 416C800 253 675 136 510 136C370 136 302 196 302 327C302 351 308 407 316 445L443 1040L267 1040L137 420C128 377 122 313 122 272C122 111 243 -18 442 -18C601 -18 734 69 784 146L788 146L755 0L921 0Z" />
<glyph glyph-name="v" unicode="&#x76;" horiz-adv-x="974" d="M176 1040L338 0L526 0L1120 1040L928 1040L470 198L466 198L348 1040Z" />
<glyph glyph-name="w" unicode="&#x77;" horiz-adv-x="1450" d="M1586 1040L1414 1040L1026 200L1022 200L966 1040L794 1040L393 200L390 200L343 1040L186 1040L256 0L442 0L835 808L839 808L900 0L1080 0Z" />
<glyph glyph-name="x" unicode="&#x78;" horiz-adv-x="959" d="M508 388L687 0L869 0L626 506L1087 1040L883 1040L556 652L552 652L373 1040L191 1040L434 534L-27 0L177 0L504 388Z" />
<glyph glyph-name="y" unicode="&#x79;" horiz-adv-x="976" d="M102 -379C245 -379 350 -326 470 -114L1120 1040L928 1040L476 192L473 192L348 1040L176 1040L346 6L312 -62C246 -194 172 -233 104 -233C64 -233 32 -226 10 -217L-16 -362C8 -370 54 -379 102 -379Z" />
<glyph glyph-name="z" unicode="&#x7a;" horiz-adv-x="972" d="M25 0L827 0L858 144L280 144L281 148L1018 912L1047 1040L249 1040L217 896L796 896L795 892L52 125Z" />
<glyph glyph-name="braceleft" unicode="&#x7b;" horiz-adv-x="660" d="M238 260L192 44C184 5 180 -29 180 -60C180 -267 350 -309 467 -309L515 -309L544 -173L499 -173C382 -173 348 -109 348 -31C348 -3 353 27 359 56L409 291C416 325 421 356 421 383C421 476 372 529 242 558L245 574C389 588 487 656 520 812L576 1077C610 1237 673 1302 813 1302L857 1302L887 1443L838 1443C612 1443 471 1354 421 1119L369 875C335 714 261 662 102 662L61 471C185 471 249 449 249 347C249 323 245 294 238 260Z" />
<glyph glyph-name="bar" unicode="&#x7c;" horiz-adv-x="660" d="M277 -308L650 1443L504 1443L131 -308Z" />
<glyph glyph-name="braceright" unicode="&#x7d;" horiz-adv-x="660" d="M544 874L590 1090C598 1129 602 1163 602 1194C602 1401 432 1443 315 1443L267 1443L238 1307L283 1307C400 1307 434 1243 434 1165C434 1137 429 1107 423 1078L373 843C366 809 361 778 361 751C361 658 410 605 540 576L537 560C393 546 295 478 262 322L206 57C172 -103 109 -168 -31 -168L-75 -168L-105 -309L-56 -309C170 -309 311 -220 361 15L413 259C447 420 521 472 680 472L721 663C597 663 533 685 533 787C533 811 537 840 544 874Z" />
<glyph glyph-name="asciitilde" unicode="&#x7e;" horiz-adv-x="1240" d="M867 407C1018 407 1154 522 1179 736L1008 736C987 621 942 569 870 569C759 569 709 797 509 797C358 797 222 682 197 468L368 468C389 583 432 635 504 635C615 635 665 407 867 407Z" />
<glyph glyph-name="nonbreakingspace" unicode="&#xa0;" horiz-adv-x="492" d="" />
<glyph glyph-name="exclamdown" unicode="&#xa1;" horiz-adv-x="550" d="M245 -340L433 623L267 623L45 -340ZM427 1113C363 1113 313 1063 313 999C313 935 363 885 427 885C491 885 541 935 541 999C541 1063 491 1113 427 1113Z" />
<glyph glyph-name="cent" unicode="&#xa2;" horiz-adv-x="1239" d="M1143 504L964 504C923 396 823 334 690 334C524 334 420 460 420 661C420 934 580 1142 794 1142C931 1142 1038 1060 1049 948L1225 948C1224 964 1222 980 1220 995C1195 1131 1091 1236 947 1278L982 1443L810 1443L780 1296C466 1280 239 1005 239 638C239 411 357 246 544 194L503 0L675 0L713 178C932 191 1101 318 1143 504Z" />
<glyph glyph-name="sterling" unicode="&#xa3;" horiz-adv-x="1239" d="M1144 154L435 154L436 158C551 226 647 358 647 590C647 603 647 623 645 653L1034 653L1064 797L636 797C629 885 625 951 625 1000C625 1202 779 1308 998 1308C1112 1308 1247 1280 1310 1244L1345 1402C1269 1439 1124 1467 1003 1467C654 1467 435 1297 435 968C435 927 438 883 445 797L176 797L146 653L460 653C463 615 465 588 465 568C465 354 284 178 81 152L49 0L1111 0Z" />
<glyph glyph-name="currency" unicode="&#xa4;" horiz-adv-x="1239" d="M437 656C437 801 556 920 701 920C846 920 965 801 965 656C965 511 846 392 701 392C556 392 437 511 437 656ZM1277 1041L1190 1151L953 955C885 1012 797 1047 701 1047C638 1047 578 1032 526 1005L415 1146L292 1048L403 908C345 840 310 752 310 656C310 587 328 523 359 466L123 270L210 160L449 358C517 300 605 265 701 265C764 265 823 280 875 306L985 167L1108 265L999 403C1057 472 1092 560 1092 656C1092 725 1074 790 1042 847Z" />
<glyph glyph-name="yen" unicode="&#xa5;" horiz-adv-x="1239" d="M982 269L1011 405L737 405L772 571L1046 571L1075 707L868 707L1469 1443L1262 1443L731 790L723 790L452 1443L265 1443L566 707L341 707L312 571L590 571L555 405L277 405L248 269L526 269L469 0L654 0L709 269Z" />
<glyph glyph-name="brokenbar" unicode="&#xa6;" horiz-adv-x="660" d="M509 783L650 1443L504 1443L363 783ZM278 -308L418 353L272 353L132 -308Z" />
<glyph glyph-name="section" unicode="&#xa7;" horiz-adv-x="990" d="M479 407C383 443 338 497 338 563C338 676 444 759 579 771L665 740C763 704 790 647 790 584C790 476 703 396 571 373ZM438 -257C678 -257 852 -124 852 65C852 171 817 236 708 303L709 307C844 346 967 452 967 617C967 762 880 838 720 898L594 945C498 981 453 1025 453 1091C453 1184 539 1251 661 1251C777 1251 860 1191 878 1102L1049 1102C1024 1275 883 1397 664 1397C443 1397 280 1273 280 1081C280 973 320 909 430 844L429 840C299 808 165 711 165 545C165 402 258 309 405 255L550 202C648 166 675 119 675 56C675 -42 582 -112 446 -112C321 -112 236 -44 213 51L36 51C48 -132 221 -257 438 -257Z" />
<glyph glyph-name="dieresis" unicode="&#xa8;" horiz-adv-x="1094" d="M586 1215C646 1215 696 1264 696 1325C696 1386 646 1435 586 1435C526 1435 476 1386 476 1325C476 1264 526 1215 586 1215ZM958 1215C1018 1215 1068 1264 1068 1325C1068 1386 1018 1435 958 1435C898 1435 848 1386 848 1325C848 1264 898 1215 958 1215Z" />
<glyph glyph-name="copyright" unicode="&#xa9;" horiz-adv-x="1656" d="M891 -168C1351 -168 1695 190 1695 669C1695 1115 1377 1420 911 1420C452 1420 107 1061 107 582C107 138 426 -168 891 -168ZM891 -28C506 -28 248 218 248 583C248 982 532 1280 911 1280C1298 1280 1554 1036 1554 668C1554 270 1270 -28 891 -28ZM1271 792C1259 951 1134 1054 953 1054C709 1054 531 845 531 560C531 356 670 214 870 214C1044 214 1175 309 1209 459L1075 459C1043 375 977 332 881 332C752 332 666 430 666 577C666 784 784 938 943 938C1047 938 1131 875 1139 792Z" />
<glyph glyph-name="ordfeminine" unicode="&#xaa;" horiz-adv-x="774" d="M512 1038L705 1038L691 974C672 888 593 829 496 829C433 829 351 854 351 927C351 988 403 1038 512 1038ZM201 909C201 766 337 717 437 717C527 717 611 757 660 822L663 821L642 719L785 719L883 1184C887 1202 889 1219 889 1236C889 1365 774 1452 601 1452C453 1452 332 1372 301 1243L443 1243C466 1298 522 1332 591 1332C681 1332 740 1288 740 1221C740 1210 737 1199 735 1188L726 1140L498 1140C293 1140 201 1036 201 909Z" />
<glyph glyph-name="guillemotleft" unicode="&#xab;" horiz-adv-x="1276" d="M654 145L390 551L390 564L813 985L604 985L196 579L193 558L464 145ZM1079 149L820 531L820 544L1263 985L1054 985L626 559L623 538L889 149Z" />
<glyph glyph-name="logicalnot" unicode="&#xac;" horiz-adv-x="1239" d="M1172 654L224 654L193 506L993 506L912 126L1060 126Z" />
<glyph glyph-name="registered" unicode="&#xae;" horiz-adv-x="1180" d="M618 846L654 1013L733 1013L806 846L925 846L838 1024C914 1036 972 1100 972 1176C972 1241 915 1296 834 1296L619 1296L523 846ZM697 1216L805 1216C845 1216 868 1195 868 1164C868 1120 829 1086 774 1086L669 1086ZM756 592C1024 592 1236 799 1236 1062C1236 1326 1024 1532 756 1532C488 1532 276 1325 276 1062C276 799 489 592 756 592ZM756 692C550 692 386 856 386 1062C386 1269 550 1432 756 1432C963 1432 1126 1269 1126 1062C1126 856 963 692 756 692Z" />
<glyph glyph-name="macron" unicode="&#xaf;" horiz-adv-x="1094" d="M1086 1398L512 1398L488 1282L1062 1282Z" />
<glyph glyph-name="degree" unicode="&#xb0;" horiz-adv-x="734" d="M556 888C714 888 841 1015 841 1173C841 1331 714 1458 556 1458C397 1458 272 1331 272 1173C272 1015 397 888 556 888ZM556 1017C473 1017 399 1088 399 1173C399 1260 473 1330 556 1330C644 1330 714 1260 714 1173C714 1088 644 1017 556 1017Z" />
<glyph glyph-name="plusminus" unicode="&#xb1;" horiz-adv-x="1239" d="M1062 112L1093 260L135 260L104 112ZM776 662L1179 662L1208 798L805 798L868 1089L716 1089L653 798L250 798L221 662L624 662L562 371L714 371Z" />
<glyph glyph-name="two.sups" unicode="&#xb2;" horiz-adv-x="622" d="M328 1602C334 1602 471 1602 476 1602L476 1605C488 1664 532 1702 588 1702C643 1702 681 1670 681 1623C681 1575 650 1542 522 1441L266 1240L241 1125L751 1125L777 1251L484 1251L485 1254L625 1366C789 1492 840 1548 840 1637C840 1746 740 1826 603 1826C453 1826 338 1733 328 1602Z" />
<glyph glyph-name="three.sups" unicode="&#xb3;" horiz-adv-x="642" d="M469 1420L544 1420C606 1420 648 1387 648 1339C648 1279 600 1237 531 1237C460 1237 412 1282 419 1341L419 1342L269 1342C267 1328 266 1318 266 1311C266 1191 373 1109 530 1109C690 1109 808 1199 808 1322C808 1393 763 1450 691 1468L691 1471C785 1485 852 1558 852 1645C852 1751 752 1826 612 1826C473 1826 366 1750 342 1626L489 1626C503 1674 547 1704 599 1704C658 1704 698 1673 698 1626C698 1570 653 1534 581 1534L493 1534Z" />
<glyph glyph-name="acute" unicode="&#xb4;" horiz-adv-x="1094" d="M700 1208L1010 1508L814 1508L540 1208Z" />
<glyph glyph-name="mugreek" unicode="&#xb5;" horiz-adv-x="1152" d="M-18 -348L153 -348L254 129L259 129C290 43 378 -9 469 -9C600 -9 736 61 803 180L805 180L807 180C805 57 861 -2 996 -2C1039 -2 1056 1 1085 8L1116 153C1100 150 1085 149 1068 149C1003 149 974 166 974 215C974 235 977 253 981 271L1144 1040L970 1040L847 460C810 284 665 145 514 145C380 145 313 212 313 345C313 386 323 432 333 479L452 1040L277 1040Z" />
<glyph glyph-name="paragraph" unicode="&#xb6;" horiz-adv-x="1235" d="M689 -220L1043 1443L843 1443C503 1443 265 1240 265 950C265 731 437 575 678 575L509 -220ZM836 -220L1016 -220L1370 1443L1190 1443Z" />
<glyph glyph-name="periodcentered" unicode="&#xb7;" horiz-adv-x="522" d="M311 406C375 406 425 456 425 520C425 584 375 634 311 634C247 634 197 584 197 520C197 456 247 406 311 406Z" />
<glyph glyph-name="cedilla" unicode="&#xb8;" horiz-adv-x="1094" d="M297 -231L356 -231C464 -231 511 -251 511 -296C511 -340 465 -365 386 -365C338 -365 290 -356 247 -340L223 -454C268 -471 341 -483 400 -483C548 -483 646 -404 646 -285C646 -190 576 -136 457 -140L537 0L537 8L404 8L313 -159Z" />
<glyph glyph-name="one.sups" unicode="&#xb9;" horiz-adv-x="496" d="M396 1125L557 1125L703 1810L541 1810L340 1690L309 1542L506 1660L509 1660Z" />
<glyph glyph-name="ordmasculine" unicode="&#xba;" horiz-adv-x="789" d="M531 708C752 708 919 898 919 1150C919 1336 792 1454 597 1454C376 1454 209 1263 209 1011C209 826 336 708 531 708ZM769 1146C769 966 666 830 535 830C429 830 360 900 360 1016C360 1196 462 1332 593 1332C700 1332 769 1262 769 1146Z" />
<glyph glyph-name="guillemotright" unicode="&#xbb;" horiz-adv-x="1276" d="M742 985L1006 579L1006 566L583 145L792 145L1200 551L1203 572L932 985ZM317 981L576 599L576 586L133 145L342 145L770 571L773 592L507 981Z" />
<glyph glyph-name="onequarter" unicode="&#xbc;" horiz-adv-x="1450" d="M318 758L479 758L625 1443L463 1443L262 1323L231 1175L428 1293L431 1293ZM201 0L862 701L1561 1443L1373 1443L729 761L11 0ZM1109 0L1262 0L1287 115L1374 115L1401 243L1314 243L1408 685L1175 685C1021 508 909 374 823 258L796 115L1134 115ZM964 241C1044 348 1150 477 1231 567L1234 567L1164 237L964 237Z" />
<glyph glyph-name="onehalf" unicode="&#xbd;" horiz-adv-x="1485" d="M318 758L479 758L625 1443L463 1443L262 1323L231 1175L428 1293L431 1293ZM201 0L862 701L1561 1443L1373 1443L729 761L11 0ZM952 477C958 477 1095 477 1100 477L1100 480C1112 539 1156 577 1212 577C1267 577 1305 545 1305 498C1305 450 1274 417 1146 316L890 115L865 0L1375 0L1401 126L1108 126L1109 129L1249 241C1413 367 1464 423 1464 512C1464 621 1364 701 1227 701C1077 701 962 608 952 477Z" />
<glyph glyph-name="threequarters" unicode="&#xbe;" horiz-adv-x="1563" d="M391 1053L466 1053C528 1053 570 1020 570 972C570 912 522 870 453 870C382 870 334 915 341 974L341 975L191 975C189 961 188 951 188 944C188 824 295 742 452 742C612 742 730 832 730 955C730 1026 685 1083 613 1101L613 1104C707 1118 774 1191 774 1278C774 1384 674 1459 534 1459C395 1459 288 1383 264 1259L411 1259C425 1307 469 1337 521 1337C580 1337 620 1306 620 1259C620 1203 575 1167 503 1167L415 1167ZM314 0L975 701L1674 1443L1486 1443L842 761L124 0ZM1222 0L1375 0L1400 115L1487 115L1514 243L1427 243L1521 685L1288 685C1134 508 1022 374 936 258L909 115L1247 115ZM1077 241C1157 348 1263 477 1344 567L1347 567L1277 237L1077 237Z" />
<glyph glyph-name="questiondown" unicode="&#xbf;" horiz-adv-x="964" d="M874 14L700 14C661 -118 559 -196 423 -196C269 -196 188 -104 188 -4C188 112 255 198 405 268C560 338 636 405 673 575L691 657L512 657L501 597C482 492 430 439 287 375C120 300 -3 152 -3 -23C-3 -203 162 -353 411 -353C670 -353 830 -206 874 14ZM664 1113C600 1113 550 1063 550 999C550 935 600 885 664 885C728 885 778 935 778 999C778 1063 728 1113 664 1113Z" />
<glyph glyph-name="Agrave" unicode="&#xc0;" horiz-adv-x="1291" d="M850 1224L854 1224L953 566L482 566ZM1035 0L1206 0L982 1443L801 1443L-35 0L163 0L397 413L976 413ZM826 1560L968 1560L809 1849L627 1849Z" />
<glyph glyph-name="Aacute" unicode="&#xc1;" horiz-adv-x="1291" d="M850 1224L854 1224L953 566L482 566ZM1035 0L1206 0L982 1443L801 1443L-35 0L163 0L397 413L976 413ZM994 1560L1315 1849L1113 1849L832 1560Z" />
<glyph glyph-name="Acircumflex" unicode="&#xc2;" horiz-adv-x="1291" d="M850 1224L854 1224L953 566L482 566ZM1035 0L1206 0L982 1443L801 1443L-35 0L163 0L397 413L976 413ZM1030 1858L896 1858L550 1560L728 1560L950 1752L956 1752L1096 1560L1250 1560Z" />
<glyph glyph-name="Atilde" unicode="&#xc3;" horiz-adv-x="1291" d="M850 1224L854 1224L953 566L482 566ZM1035 0L1206 0L982 1443L801 1443L-35 0L163 0L397 413L976 413ZM1056 1546C1165 1546 1254 1646 1286 1802L1168 1802C1148 1706 1107 1659 1065 1659C990 1659 969 1811 828 1811C714 1811 625 1716 596 1556L714 1556C730 1649 773 1698 819 1698C898 1698 924 1546 1056 1546Z" />
<glyph glyph-name="Adieresis" unicode="&#xc4;" horiz-adv-x="1291" d="M850 1224L854 1224L953 566L482 566ZM1035 0L1206 0L982 1443L801 1443L-35 0L163 0L397 413L976 413ZM757 1618C817 1618 867 1667 867 1728C867 1789 817 1838 757 1838C697 1838 647 1789 647 1728C647 1667 697 1618 757 1618ZM1129 1618C1189 1618 1239 1667 1239 1728C1239 1789 1189 1838 1129 1838C1069 1838 1019 1789 1019 1728C1019 1667 1069 1618 1129 1618Z" />
<glyph glyph-name="Aring" unicode="&#xc5;" horiz-adv-x="1291" d="M850 1224L854 1224L953 566L482 566ZM1035 0L1206 0L982 1443L801 1443L-35 0L163 0L397 413L976 413ZM942 1555C1054 1555 1137 1637 1138 1755C1139 1869 1054 1937 950 1937C840 1937 755 1855 755 1737C755 1623 840 1555 942 1555ZM942 1641C886 1641 845 1679 845 1740C845 1809 888 1851 950 1851C1008 1851 1047 1813 1048 1752C1049 1683 1006 1641 942 1641Z" />
<glyph glyph-name="AE" unicode="&#xc6;" horiz-adv-x="1869" d="M1148 1292L1003 612L548 612L1002 1292ZM873 0L1711 0L1745 162L1091 162L1195 648L1812 648L1846 808L1229 808L1329 1281L1983 1281L2018 1443L908 1443L-50 0L144 0L448 459L971 459Z" />
<glyph glyph-name="Ccedilla" unicode="&#xc7;" horiz-adv-x="1402" d="M1474 978C1474 986 1474 990 1473 1005C1454 1289 1230 1466 918 1466C488 1466 178 1094 178 604C178 256 368 23 675 -17L598 -159L582 -231L641 -231C749 -231 796 -251 796 -296C796 -340 750 -365 671 -365C623 -365 575 -356 532 -340L508 -454C553 -471 626 -483 685 -483C833 -483 931 -404 931 -285C931 -190 861 -136 742 -140L809 -22C1079 -7 1298 162 1373 420L1191 420C1123 246 966 142 773 142C519 142 363 320 363 610C363 1010 588 1301 916 1301C1118 1301 1270 1190 1290 1002C1291 994 1292 984 1292 978Z" />
<glyph glyph-name="Egrave" unicode="&#xc8;" horiz-adv-x="1134" d="M1010 162L299 162L404 658L1078 658L1112 818L438 818L537 1281L1248 1281L1283 1443L387 1443L80 0L976 0ZM774 1560L916 1560L757 1849L575 1849Z" />
<glyph glyph-name="Eacute" unicode="&#xc9;" horiz-adv-x="1134" d="M1010 162L299 162L404 658L1078 658L1112 818L438 818L537 1281L1248 1281L1283 1443L387 1443L80 0L976 0ZM942 1560L1263 1849L1061 1849L780 1560Z" />
<glyph glyph-name="Ecircumflex" unicode="&#xca;" horiz-adv-x="1134" d="M1010 162L299 162L404 658L1078 658L1112 818L438 818L537 1281L1248 1281L1283 1443L387 1443L80 0L976 0ZM978 1858L844 1858L498 1560L676 1560L898 1752L904 1752L1044 1560L1198 1560Z" />
<glyph glyph-name="Edieresis" unicode="&#xcb;" horiz-adv-x="1134" d="M1010 162L299 162L404 658L1078 658L1112 818L438 818L537 1281L1248 1281L1283 1443L387 1443L80 0L976 0ZM705 1618C765 1618 815 1667 815 1728C815 1789 765 1838 705 1838C645 1838 595 1789 595 1728C595 1667 645 1618 705 1618ZM1077 1618C1137 1618 1187 1667 1187 1728C1187 1789 1137 1838 1077 1838C1017 1838 967 1789 967 1728C967 1667 1017 1618 1077 1618Z" />
<glyph glyph-name="Igrave" unicode="&#xcc;" horiz-adv-x="464" d="M264 0L571 1443L387 1443L80 0ZM419 1560L561 1560L402 1849L220 1849Z" />
<glyph glyph-name="Iacute" unicode="&#xcd;" horiz-adv-x="464" d="M264 0L571 1443L387 1443L80 0ZM587 1560L908 1849L706 1849L425 1560Z" />
<glyph glyph-name="Icircumflex" unicode="&#xce;" horiz-adv-x="464" d="M264 0L571 1443L387 1443L80 0ZM623 1858L489 1858L143 1560L321 1560L543 1752L549 1752L689 1560L843 1560Z" />
<glyph glyph-name="Idieresis" unicode="&#xcf;" horiz-adv-x="464" d="M264 0L571 1443L387 1443L80 0ZM350 1618C410 1618 460 1667 460 1728C460 1789 410 1838 350 1838C290 1838 240 1789 240 1728C240 1667 290 1618 350 1618ZM722 1618C782 1618 832 1667 832 1728C832 1789 782 1838 722 1838C662 1838 612 1789 612 1728C612 1667 662 1618 722 1618Z" />
<glyph glyph-name="Eth" unicode="&#xd0;" horiz-adv-x="1413" d="M298 160L404 656L730 656L764 818L438 818L537 1283L776 1283C1077 1283 1233 1130 1233 833C1233 441 980 160 628 160ZM387 1443L255 818L114 818L79 656L221 656L82 0L642 0C1102 0 1419 349 1419 855C1419 1224 1191 1443 807 1443Z" />
<glyph glyph-name="Ntilde" unicode="&#xd1;" horiz-adv-x="1434" d="M264 0L513 1173L517 1173L1050 0L1234 0L1541 1443L1357 1443L1108 270L1104 270L571 1443L387 1443L80 0ZM1143 1546C1252 1546 1341 1646 1373 1802L1255 1802C1235 1706 1194 1659 1152 1659C1077 1659 1056 1811 915 1811C801 1811 712 1716 683 1556L801 1556C817 1649 860 1698 906 1698C985 1698 1011 1546 1143 1546Z" />
<glyph glyph-name="Ograve" unicode="&#xd2;" horiz-adv-x="1518" d="M928 1301C1181 1301 1343 1118 1343 831C1343 451 1113 142 777 142C524 142 362 325 362 612C362 992 592 1301 928 1301ZM777 -23C1213 -23 1528 365 1528 837C1528 1217 1290 1466 928 1466C492 1466 177 1078 177 606C177 226 415 -23 777 -23ZM886 1560L1028 1560L869 1849L687 1849Z" />
<glyph glyph-name="Oacute" unicode="&#xd3;" horiz-adv-x="1518" d="M928 1301C1181 1301 1343 1118 1343 831C1343 451 1113 142 777 142C524 142 362 325 362 612C362 992 592 1301 928 1301ZM777 -23C1213 -23 1528 365 1528 837C1528 1217 1290 1466 928 1466C492 1466 177 1078 177 606C177 226 415 -23 777 -23ZM1054 1560L1375 1849L1173 1849L892 1560Z" />
<glyph glyph-name="Ocircumflex" unicode="&#xd4;" horiz-adv-x="1518" d="M928 1301C1181 1301 1343 1118 1343 831C1343 451 1113 142 777 142C524 142 362 325 362 612C362 992 592 1301 928 1301ZM777 -23C1213 -23 1528 365 1528 837C1528 1217 1290 1466 928 1466C492 1466 177 1078 177 606C177 226 415 -23 777 -23ZM1090 1858L956 1858L610 1560L788 1560L1010 1752L1016 1752L1156 1560L1310 1560Z" />
<glyph glyph-name="Otilde" unicode="&#xd5;" horiz-adv-x="1518" d="M928 1301C1181 1301 1343 1118 1343 831C1343 451 1113 142 777 142C524 142 362 325 362 612C362 992 592 1301 928 1301ZM777 -23C1213 -23 1528 365 1528 837C1528 1217 1290 1466 928 1466C492 1466 177 1078 177 606C177 226 415 -23 777 -23ZM1116 1546C1225 1546 1314 1646 1346 1802L1228 1802C1208 1706 1167 1659 1125 1659C1050 1659 1029 1811 888 1811C774 1811 685 1716 656 1556L774 1556C790 1649 833 1698 879 1698C958 1698 984 1546 1116 1546Z" />
<glyph glyph-name="Odieresis" unicode="&#xd6;" horiz-adv-x="1518" d="M928 1301C1181 1301 1343 1118 1343 831C1343 451 1113 142 777 142C524 142 362 325 362 612C362 992 592 1301 928 1301ZM777 -23C1213 -23 1528 365 1528 837C1528 1217 1290 1466 928 1466C492 1466 177 1078 177 606C177 226 415 -23 777 -23ZM817 1618C877 1618 927 1667 927 1728C927 1789 877 1838 817 1838C757 1838 707 1789 707 1728C707 1667 757 1618 817 1618ZM1189 1618C1249 1618 1299 1667 1299 1728C1299 1789 1249 1838 1189 1838C1129 1838 1079 1789 1079 1728C1079 1667 1129 1618 1189 1618Z" />
<glyph glyph-name="multiply" unicode="&#xd7;" horiz-adv-x="1239" d="M900 176L1025 279L794 576L1162 881L1069 996L700 692L463 992L338 889L574 588L205 283L298 168L667 472Z" />
<glyph glyph-name="Oslash" unicode="&#xd8;" horiz-adv-x="1518" d="M1297 1069C1327 1002 1343 921 1343 831C1343 451 1113 142 777 142C657 142 557 183 486 258ZM408 374C378 441 362 522 362 612C362 992 592 1301 928 1301C1048 1301 1148 1260 1219 1185ZM1596 1368L1499 1465L1346 1312C1242 1410 1099 1466 928 1466C492 1466 177 1078 177 606C177 463 211 338 272 238L109 75L206 -22L359 131C463 33 606 -23 777 -23C1213 -23 1528 365 1528 837C1528 980 1494 1105 1433 1205Z" />
<glyph glyph-name="Ugrave" unicode="&#xd9;" horiz-adv-x="1430" d="M691 -23C1052 -23 1263 159 1329 467L1537 1443L1353 1443L1152 502C1104 277 937 143 723 143C493 143 381 257 374 434C373 475 377 520 387 567L571 1443L387 1443L201 555C192 511 187 467 188 425C190 175 364 -23 691 -23ZM886 1560L1028 1560L869 1849L687 1849Z" />
<glyph glyph-name="Uacute" unicode="&#xda;" horiz-adv-x="1430" d="M691 -23C1052 -23 1263 159 1329 467L1537 1443L1353 1443L1152 502C1104 277 937 143 723 143C493 143 381 257 374 434C373 475 377 520 387 567L571 1443L387 1443L201 555C192 511 187 467 188 425C190 175 364 -23 691 -23ZM1054 1560L1375 1849L1173 1849L892 1560Z" />
<glyph glyph-name="Ucircumflex" unicode="&#xdb;" horiz-adv-x="1430" d="M691 -23C1052 -23 1263 159 1329 467L1537 1443L1353 1443L1152 502C1104 277 937 143 723 143C493 143 381 257 374 434C373 475 377 520 387 567L571 1443L387 1443L201 555C192 511 187 467 188 425C190 175 364 -23 691 -23ZM1090 1858L956 1858L610 1560L788 1560L1010 1752L1016 1752L1156 1560L1310 1560Z" />
<glyph glyph-name="Udieresis" unicode="&#xdc;" horiz-adv-x="1430" d="M691 -23C1052 -23 1263 159 1329 467L1537 1443L1353 1443L1152 502C1104 277 937 143 723 143C493 143 381 257 374 434C373 475 377 520 387 567L571 1443L387 1443L201 555C192 511 187 467 188 425C190 175 364 -23 691 -23ZM817 1618C877 1618 927 1667 927 1728C927 1789 877 1838 817 1838C757 1838 707 1789 707 1728C707 1667 757 1618 817 1618ZM1189 1618C1249 1618 1299 1667 1299 1728C1299 1789 1249 1838 1189 1838C1129 1838 1079 1789 1079 1728C1079 1667 1129 1618 1189 1618Z" />
<glyph glyph-name="Yacute" unicode="&#xdd;" horiz-adv-x="1256" d="M662 0L788 604L1477 1443L1269 1443L733 785L729 785L463 1443L273 1443L609 630L477 0ZM981 1560L1302 1849L1100 1849L819 1560Z" />
<glyph glyph-name="Thorn" unicode="&#xde;" horiz-adv-x="1193" d="M80 0L260 0L334 349L674 349C1005 349 1227 539 1227 821C1227 1032 1068 1177 841 1177L509 1177L566 1443L387 1443ZM476 1017L780 1017C951 1017 1039 935 1039 805C1039 618 900 509 663 509L368 509Z" />
<glyph glyph-name="germandbls" unicode="&#xdf;" horiz-adv-x="1252" d="M291 0L513 1047C547 1207 649 1298 795 1298C933 1298 1027 1216 1027 1095C1027 962 904 853 754 853L675 853L639 683L710 683C893 683 1012 592 1012 451C1012 290 869 162 690 162C633 162 551 176 506 194L473 42C528 21 610 8 681 8C972 8 1184 198 1184 457C1184 625 1061 744 867 764L871 782C1066 799 1201 940 1201 1126C1201 1312 1032 1451 805 1451C567 1451 397 1319 350 1098L117 0Z" />
<glyph glyph-name="agrave" unicode="&#xe0;" horiz-adv-x="1018" d="M446 130C330 130 250 192 250 289C250 394 340 458 496 466L780 481L754 365C723 226 595 130 446 130ZM400 -18C528 -18 638 38 709 127L712 127L685 0L852 0L995 673C999 697 1002 728 1002 761C1002 936 856 1058 634 1058C392 1058 224 924 193 737L375 737C396 836 479 905 620 905C754 905 827 840 827 736C827 718 827 702 823 685L809 620L498 604C232 590 74 475 74 271C74 101 221 -18 400 -18ZM767 1208L621 1508L445 1508L627 1208Z" />
<glyph glyph-name="aacute" unicode="&#xe1;" horiz-adv-x="1018" d="M446 130C330 130 250 192 250 289C250 394 340 458 496 466L780 481L754 365C723 226 595 130 446 130ZM400 -18C528 -18 638 38 709 127L712 127L685 0L852 0L995 673C999 697 1002 728 1002 761C1002 936 856 1058 634 1058C392 1058 224 924 193 737L375 737C396 836 479 905 620 905C754 905 827 840 827 736C827 718 827 702 823 685L809 620L498 604C232 590 74 475 74 271C74 101 221 -18 400 -18ZM759 1208L1069 1508L873 1508L599 1208Z" />
<glyph glyph-name="acircumflex" unicode="&#xe2;" horiz-adv-x="1018" d="M446 130C330 130 250 192 250 289C250 394 340 458 496 466L780 481L754 365C723 226 595 130 446 130ZM400 -18C528 -18 638 38 709 127L712 127L685 0L852 0L995 673C999 697 1002 728 1002 761C1002 936 856 1058 634 1058C392 1058 224 924 193 737L375 737C396 836 479 905 620 905C754 905 827 840 827 736C827 718 827 702 823 685L809 620L498 604C232 590 74 475 74 271C74 101 221 -18 400 -18ZM819 1508L685 1508L349 1208L517 1208L731 1400L737 1400L869 1208L1027 1208Z" />
<glyph glyph-name="atilde" unicode="&#xe3;" horiz-adv-x="1018" d="M446 130C330 130 250 192 250 289C250 394 340 458 496 466L780 481L754 365C723 226 595 130 446 130ZM400 -18C528 -18 638 38 709 127L712 127L685 0L852 0L995 673C999 697 1002 728 1002 761C1002 936 856 1058 634 1058C392 1058 224 924 193 737L375 737C396 836 479 905 620 905C754 905 827 840 827 736C827 718 827 702 823 685L809 620L498 604C232 590 74 475 74 271C74 101 221 -18 400 -18ZM827 1216C936 1216 1025 1316 1057 1472L939 1472C919 1376 878 1329 836 1329C761 1329 740 1481 599 1481C485 1481 396 1386 367 1226L485 1226C501 1319 544 1368 590 1368C669 1368 695 1216 827 1216Z" />
<glyph glyph-name="adieresis" unicode="&#xe4;" horiz-adv-x="1018" d="M446 130C330 130 250 192 250 289C250 394 340 458 496 466L780 481L754 365C723 226 595 130 446 130ZM400 -18C528 -18 638 38 709 127L712 127L685 0L852 0L995 673C999 697 1002 728 1002 761C1002 936 856 1058 634 1058C392 1058 224 924 193 737L375 737C396 836 479 905 620 905C754 905 827 840 827 736C827 718 827 702 823 685L809 620L498 604C232 590 74 475 74 271C74 101 221 -18 400 -18ZM521 1215C581 1215 631 1264 631 1325C631 1386 581 1435 521 1435C461 1435 411 1386 411 1325C411 1264 461 1215 521 1215ZM893 1215C953 1215 1003 1264 1003 1325C1003 1386 953 1435 893 1435C833 1435 783 1386 783 1325C783 1264 833 1215 893 1215Z" />
<glyph glyph-name="aring" unicode="&#xe5;" horiz-adv-x="1018" d="M446 130C330 130 250 192 250 289C250 394 340 458 496 466L780 481L754 365C723 226 595 130 446 130ZM400 -18C528 -18 638 38 709 127L712 127L685 0L852 0L995 673C999 697 1002 728 1002 761C1002 936 856 1058 634 1058C392 1058 224 924 193 737L375 737C396 836 479 905 620 905C754 905 827 840 827 736C827 718 827 702 823 685L809 620L498 604C232 590 74 475 74 271C74 101 221 -18 400 -18ZM706 1152C818 1152 901 1234 902 1352C903 1466 818 1534 714 1534C604 1534 519 1452 519 1334C519 1220 604 1152 706 1152ZM706 1238C650 1238 609 1276 609 1337C609 1406 652 1448 714 1448C772 1448 811 1410 812 1349C813 1280 770 1238 706 1238Z" />
<glyph glyph-name="ae" unicode="&#xe6;" horiz-adv-x="1735" d="M1218 -18C1434 -18 1622 122 1675 320L1504 320C1458 203 1357 135 1222 135C1064 135 966 257 966 443C966 461 966 470 967 479L1714 479C1720 517 1723 566 1723 619C1723 888 1568 1058 1321 1058C1176 1058 1058 1000 970 895L966 895C908 998 787 1058 639 1058C397 1058 230 922 202 737L384 737C401 834 484 905 625 905C759 905 837 836 837 736C837 710 836 698 833 685L819 620L509 605C237 593 79 470 79 271C79 112 218 -18 406 -18C601 -18 750 60 852 216L856 216C914 72 1034 -18 1218 -18ZM988 618C1036 793 1151 906 1317 906C1453 906 1546 803 1546 646C1546 632 1546 625 1545 618ZM451 130C330 130 255 199 255 289C255 389 351 459 499 467L790 481L764 365C735 230 609 130 451 130Z" />
<glyph glyph-name="ccedilla" unicode="&#xe7;" horiz-adv-x="1031" d="M1061 689C1061 694 1061 692 1061 696C1061 882 922 1058 647 1058C334 1058 114 786 114 437C114 197 235 18 467 -13L387 -159L371 -231L430 -231C538 -231 585 -251 585 -296C585 -340 539 -365 460 -365C412 -365 364 -356 321 -340L297 -454C342 -471 415 -483 474 -483C622 -483 720 -404 720 -285C720 -190 650 -136 531 -140L603 -14C795 11 951 152 996 330L825 330C781 212 680 135 544 135C392 135 292 251 292 443C292 714 438 905 645 905C799 905 887 806 892 689Z" />
<glyph glyph-name="egrave" unicode="&#xe8;" horiz-adv-x="1062" d="M314 618C356 780 465 906 627 906C802 906 872 778 872 646C872 637 872 627 871 618ZM542 -20C765 -20 947 128 1001 320L830 320C783 207 684 133 544 133C390 133 291 251 291 443C291 455 291 467 292 479L1040 479C1047 524 1049 576 1049 619C1049 890 888 1058 629 1058C327 1058 114 780 114 438C114 174 259 -20 542 -20ZM760 1208L614 1508L438 1508L620 1208Z" />
<glyph glyph-name="eacute" unicode="&#xe9;" horiz-adv-x="1062" d="M314 618C356 780 465 906 627 906C802 906 872 778 872 646C872 637 872 627 871 618ZM542 -20C765 -20 947 128 1001 320L830 320C783 207 684 133 544 133C390 133 291 251 291 443C291 455 291 467 292 479L1040 479C1047 524 1049 576 1049 619C1049 890 888 1058 629 1058C327 1058 114 780 114 438C114 174 259 -20 542 -20ZM752 1208L1062 1508L866 1508L592 1208Z" />
<glyph glyph-name="ecircumflex" unicode="&#xea;" horiz-adv-x="1062" d="M314 618C356 780 465 906 627 906C802 906 872 778 872 646C872 637 872 627 871 618ZM542 -20C765 -20 947 128 1001 320L830 320C783 207 684 133 544 133C390 133 291 251 291 443C291 455 291 467 292 479L1040 479C1047 524 1049 576 1049 619C1049 890 888 1058 629 1058C327 1058 114 780 114 438C114 174 259 -20 542 -20ZM812 1508L678 1508L342 1208L510 1208L724 1400L730 1400L862 1208L1020 1208Z" />
<glyph glyph-name="edieresis" unicode="&#xeb;" horiz-adv-x="1062" d="M314 618C356 780 465 906 627 906C802 906 872 778 872 646C872 637 872 627 871 618ZM542 -20C765 -20 947 128 1001 320L830 320C783 207 684 133 544 133C390 133 291 251 291 443C291 455 291 467 292 479L1040 479C1047 524 1049 576 1049 619C1049 890 888 1058 629 1058C327 1058 114 780 114 438C114 174 259 -20 542 -20ZM514 1215C574 1215 624 1264 624 1325C624 1386 574 1435 514 1435C454 1435 404 1386 404 1325C404 1264 454 1215 514 1215ZM886 1215C946 1215 996 1264 996 1325C996 1386 946 1435 886 1435C826 1435 776 1386 776 1325C776 1264 826 1215 886 1215Z" />
<glyph glyph-name="igrave" unicode="&#xec;" horiz-adv-x="424" d="M64 0L240 0L461 1040L285 1040ZM490 1208L344 1508L168 1508L350 1208Z" />
<glyph glyph-name="iacute" unicode="&#xed;" horiz-adv-x="424" d="M64 0L240 0L461 1040L285 1040ZM482 1208L792 1508L596 1508L322 1208Z" />
<glyph glyph-name="icircumflex" unicode="&#xee;" horiz-adv-x="424" d="M64 0L240 0L461 1040L285 1040ZM542 1508L408 1508L72 1208L240 1208L454 1400L460 1400L592 1208L750 1208Z" />
<glyph glyph-name="idieresis" unicode="&#xef;" horiz-adv-x="424" d="M64 0L240 0L461 1040L285 1040ZM244 1215C304 1215 354 1264 354 1325C354 1386 304 1435 244 1435C184 1435 134 1386 134 1325C134 1264 184 1215 244 1215ZM616 1215C676 1215 726 1264 726 1325C726 1386 676 1435 616 1435C556 1435 506 1386 506 1325C506 1264 556 1215 616 1215Z" />
<glyph glyph-name="eth" unicode="&#xf0;" horiz-adv-x="1113" d="M552 137C384 137 292 272 292 446C292 700 442 866 637 866C801 866 917 749 917 583C917 351 738 137 552 137ZM1165 1295L1157 1423L936 1357C919 1383 896 1412 861 1455L671 1455C728 1389 762 1346 786 1312L505 1228L511 1100L852 1201C916 1076 953 950 958 835L955 834C908 936 785 1025 625 1025C338 1025 110 776 110 422C110 186 266 -18 538 -18C793 -18 992 163 1071 457C1096 548 1109 653 1109 767C1109 931 1076 1073 995 1245Z" />
<glyph glyph-name="ntilde" unicode="&#xf1;" horiz-adv-x="1094" d="M52 0L227 0L360 624C397 796 521 904 672 904C805 904 893 828 893 703C893 676 889 637 880 595L753 0L928 0L1061 625C1070 669 1075 716 1075 752C1075 929 931 1058 745 1058C594 1058 478 988 409 878L405 878L439 1040L273 1040ZM898 1216C1007 1216 1096 1316 1128 1472L1010 1472C990 1376 949 1329 907 1329C832 1329 811 1481 670 1481C556 1481 467 1386 438 1226L556 1226C572 1319 615 1368 661 1368C740 1368 766 1216 898 1216Z" />
<glyph glyph-name="ograve" unicode="&#xf2;" horiz-adv-x="1096" d="M550 135C391 135 290 257 290 444C290 706 440 905 647 905C806 905 907 783 907 596C907 334 757 135 550 135ZM647 1058C344 1058 114 786 114 439C114 163 284 -18 550 -18C853 -18 1083 254 1083 601C1083 877 913 1058 647 1058ZM772 1208L626 1508L450 1508L632 1208Z" />
<glyph glyph-name="oacute" unicode="&#xf3;" horiz-adv-x="1096" d="M550 135C391 135 290 257 290 444C290 706 440 905 647 905C806 905 907 783 907 596C907 334 757 135 550 135ZM647 1058C344 1058 114 786 114 439C114 163 284 -18 550 -18C853 -18 1083 254 1083 601C1083 877 913 1058 647 1058ZM764 1208L1074 1508L878 1508L604 1208Z" />
<glyph glyph-name="ocircumflex" unicode="&#xf4;" horiz-adv-x="1096" d="M550 135C391 135 290 257 290 444C290 706 440 905 647 905C806 905 907 783 907 596C907 334 757 135 550 135ZM647 1058C344 1058 114 786 114 439C114 163 284 -18 550 -18C853 -18 1083 254 1083 601C1083 877 913 1058 647 1058ZM824 1508L690 1508L354 1208L522 1208L736 1400L742 1400L874 1208L1032 1208Z" />
<glyph glyph-name="otilde" unicode="&#xf5;" horiz-adv-x="1096" d="M550 135C391 135 290 257 290 444C290 706 440 905 647 905C806 905 907 783 907 596C907 334 757 135 550 135ZM647 1058C344 1058 114 786 114 439C114 163 284 -18 550 -18C853 -18 1083 254 1083 601C1083 877 913 1058 647 1058ZM832 1216C941 1216 1030 1316 1062 1472L944 1472C924 1376 883 1329 841 1329C766 1329 745 1481 604 1481C490 1481 401 1386 372 1226L490 1226C506 1319 549 1368 595 1368C674 1368 700 1216 832 1216Z" />
<glyph glyph-name="odieresis" unicode="&#xf6;" horiz-adv-x="1096" d="M550 135C391 135 290 257 290 444C290 706 440 905 647 905C806 905 907 783 907 596C907 334 757 135 550 135ZM647 1058C344 1058 114 786 114 439C114 163 284 -18 550 -18C853 -18 1083 254 1083 601C1083 877 913 1058 647 1058ZM526 1215C586 1215 636 1264 636 1325C636 1386 586 1435 526 1435C466 1435 416 1386 416 1325C416 1264 466 1215 526 1215ZM898 1215C958 1215 1008 1264 1008 1325C1008 1386 958 1435 898 1435C838 1435 788 1386 788 1325C788 1264 838 1215 898 1215Z" />
<glyph glyph-name="divide" unicode="&#xf7;" horiz-adv-x="1239" d="M1174 496L1205 644L187 644L156 496ZM748 802C818 802 873 854 873 927C873 1000 818 1052 748 1052C678 1052 623 1000 623 927C623 854 678 802 748 802ZM597 88C668 88 722 140 722 213C722 286 668 338 597 338C526 338 472 286 472 213C472 140 526 88 597 88Z" />
<glyph glyph-name="oslash" unicode="&#xf8;" horiz-adv-x="1096" d="M889 724C901 686 907 643 907 596C907 334 757 135 550 135C477 135 416 161 372 207ZM308 316C296 354 290 397 290 444C290 706 440 905 647 905C720 905 781 879 825 833ZM1144 979L1057 1065L945 953C870 1020 769 1058 647 1058C344 1058 114 786 114 439C114 340 136 254 176 184L53 61L140 -25L252 87C327 20 428 -18 550 -18C853 -18 1083 254 1083 601C1083 700 1061 786 1021 856Z" />
<glyph glyph-name="ugrave" unicode="&#xf9;" horiz-adv-x="1093" d="M1142 1040L968 1040L835 416C800 253 675 136 510 136C370 136 302 196 302 327C302 351 308 407 316 445L443 1040L267 1040L137 420C128 377 122 313 122 272C122 111 243 -18 442 -18C601 -18 734 69 784 146L788 146L755 0L921 0ZM814 1208L668 1508L492 1508L674 1208Z" />
<glyph glyph-name="uacute" unicode="&#xfa;" horiz-adv-x="1093" d="M1142 1040L968 1040L835 416C800 253 675 136 510 136C370 136 302 196 302 327C302 351 308 407 316 445L443 1040L267 1040L137 420C128 377 122 313 122 272C122 111 243 -18 442 -18C601 -18 734 69 784 146L788 146L755 0L921 0ZM806 1208L1116 1508L920 1508L646 1208Z" />
<glyph glyph-name="ucircumflex" unicode="&#xfb;" horiz-adv-x="1093" d="M1142 1040L968 1040L835 416C800 253 675 136 510 136C370 136 302 196 302 327C302 351 308 407 316 445L443 1040L267 1040L137 420C128 377 122 313 122 272C122 111 243 -18 442 -18C601 -18 734 69 784 146L788 146L755 0L921 0ZM866 1508L732 1508L396 1208L564 1208L778 1400L784 1400L916 1208L1074 1208Z" />
<glyph glyph-name="udieresis" unicode="&#xfc;" horiz-adv-x="1093" d="M1142 1040L968 1040L835 416C800 253 675 136 510 136C370 136 302 196 302 327C302 351 308 407 316 445L443 1040L267 1040L137 420C128 377 122 313 122 272C122 111 243 -18 442 -18C601 -18 734 69 784 146L788 146L755 0L921 0ZM568 1215C628 1215 678 1264 678 1325C678 1386 628 1435 568 1435C508 1435 458 1386 458 1325C458 1264 508 1215 568 1215ZM940 1215C1000 1215 1050 1264 1050 1325C1050 1386 1000 1435 940 1435C880 1435 830 1386 830 1325C830 1264 880 1215 940 1215Z" />
<glyph glyph-name="yacute" unicode="&#xfd;" horiz-adv-x="976" d="M102 -379C245 -379 350 -326 470 -114L1120 1040L928 1040L476 192L473 192L348 1040L176 1040L346 6L312 -62C246 -194 172 -233 104 -233C64 -233 32 -226 10 -217L-16 -362C8 -370 54 -379 102 -379ZM744 1208L1054 1508L858 1508L584 1208Z" />
<glyph glyph-name="thorn" unicode="&#xfe;" horiz-adv-x="1141" d="M602 136C440 136 335 257 335 428C335 680 473 905 699 905C858 905 952 790 952 596C952 328 801 136 602 136ZM273 210L277 210C317 80 444 -18 606 -18C899 -18 1123 248 1123 608C1123 881 976 1058 739 1058C604 1058 479 980 416 872L413 872L538 1453L365 1453L-18 -346L155 -346Z" />
<glyph glyph-name="ydieresis" unicode="&#xff;" horiz-adv-x="976" d="M102 -379C245 -379 350 -326 470 -114L1120 1040L928 1040L476 192L473 192L348 1040L176 1040L346 6L312 -62C246 -194 172 -233 104 -233C64 -233 32 -226 10 -217L-16 -362C8 -370 54 -379 102 -379ZM506 1215C566 1215 616 1264 616 1325C616 1386 566 1435 506 1435C446 1435 396 1386 396 1325C396 1264 446 1215 506 1215ZM878 1215C938 1215 988 1264 988 1325C988 1386 938 1435 878 1435C818 1435 768 1386 768 1325C768 1264 818 1215 878 1215Z" />
<glyph glyph-name="Amacron" unicode="&#x0100;" horiz-adv-x="1291" d="M850 1224L854 1224L953 566L482 566ZM1035 0L1206 0L982 1443L801 1443L-35 0L163 0L397 413L976 413ZM1270 1750L636 1750L611 1634L1245 1634Z" />
<glyph glyph-name="amacron" unicode="&#x0101;" horiz-adv-x="1018" d="M446 130C330 130 250 192 250 289C250 394 340 458 496 466L780 481L754 365C723 226 595 130 446 130ZM400 -18C528 -18 638 38 709 127L712 127L685 0L852 0L995 673C999 697 1002 728 1002 761C1002 936 856 1058 634 1058C392 1058 224 924 193 737L375 737C396 836 479 905 620 905C754 905 827 840 827 736C827 718 827 702 823 685L809 620L498 604C232 590 74 475 74 271C74 101 221 -18 400 -18ZM1014 1398L440 1398L416 1282L990 1282Z" />
<glyph glyph-name="Abreve" unicode="&#x0102;" horiz-adv-x="1291" d="M850 1224L854 1224L953 566L482 566ZM1035 0L1206 0L982 1443L801 1443L-35 0L163 0L397 413L976 413ZM652 1848C646 1827 642 1802 642 1774C642 1633 760 1542 910 1542C1114 1542 1253 1654 1294 1848L1168 1848C1141 1722 1043 1650 929 1650C832 1650 770 1703 770 1796C770 1815 774 1834 778 1848Z" />
<glyph glyph-name="abreve" unicode="&#x0103;" horiz-adv-x="1018" d="M446 130C330 130 250 192 250 289C250 394 340 458 496 466L780 481L754 365C723 226 595 130 446 130ZM400 -18C528 -18 638 38 709 127L712 127L685 0L852 0L995 673C999 697 1002 728 1002 761C1002 936 856 1058 634 1058C392 1058 224 924 193 737L375 737C396 836 479 905 620 905C754 905 827 840 827 736C827 718 827 702 823 685L809 620L498 604C232 590 74 475 74 271C74 101 221 -18 400 -18ZM426 1508C420 1487 416 1462 416 1434C416 1293 534 1198 684 1198C888 1198 1027 1314 1068 1508L942 1508C915 1382 817 1306 703 1306C606 1306 544 1363 544 1456C544 1475 548 1494 552 1508Z" />
<glyph glyph-name="Aogonek" unicode="&#x0104;" horiz-adv-x="1291" d="M1128 -288C1108 -297 1083 -301 1055 -301C995 -301 960 -274 960 -228C960 -166 1033 -84 1181 3L1203 16L979 1443L798 1443L-35 0L163 0L394 413L973 413L1034 5C882 -88 804 -184 804 -278C804 -368 879 -427 992 -427C1039 -427 1086 -418 1103 -406ZM847 1224L851 1224L950 566L479 566Z" />
<glyph glyph-name="aogonek" unicode="&#x0105;" horiz-adv-x="1018" d="M444 139C327 139 250 198 250 289C250 392 340 458 492 466L780 481L754 365C725 229 601 139 444 139ZM755 -391L780 -273C759 -282 734 -286 707 -286C647 -286 612 -259 612 -212C612 -143 704 -62 842 -11L850 -8L995 673C1000 695 1002 723 1002 761C1002 932 850 1049 627 1049C397 1049 224 925 193 737L375 737C396 837 484 896 613 896C747 896 827 836 827 736C827 710 826 698 823 685L809 620L502 604C226 590 74 471 74 271C74 112 214 -9 398 -9C531 -9 638 38 709 127L712 127L688 14C531 -72 456 -161 456 -262C456 -352 531 -412 644 -412C691 -412 738 -403 755 -391Z" />
<glyph glyph-name="Cacute" unicode="&#x0106;" horiz-adv-x="1402" d="M1292 978L1474 978C1474 986 1474 990 1473 1005C1454 1289 1230 1466 918 1466C488 1466 178 1094 178 604C178 221 408 -23 771 -23C1058 -23 1294 150 1373 420L1191 420C1123 246 966 142 773 142C519 142 363 320 363 610C363 1010 588 1301 916 1301C1118 1301 1270 1190 1290 1002C1291 994 1292 984 1292 978ZM1024 1562L1345 1851L1143 1851L862 1562Z" />
<glyph glyph-name="cacute" unicode="&#x0107;" horiz-adv-x="1031" d="M647 1058C334 1058 114 786 114 437C114 172 261 -18 542 -18C761 -18 946 133 996 330L825 330C781 212 680 135 544 135C392 135 292 251 292 443C292 714 438 905 645 905C799 905 887 806 892 689L1061 689C1061 694 1061 692 1061 696C1061 882 922 1058 647 1058ZM766 1208L1076 1508L880 1508L606 1208Z" />
<glyph glyph-name="Ccircumflex" unicode="&#x0108;" horiz-adv-x="1402" d="M1292 978L1474 978C1474 986 1474 990 1473 1005C1454 1289 1230 1466 918 1466C488 1466 178 1094 178 604C178 221 408 -23 771 -23C1058 -23 1294 150 1373 420L1191 420C1123 246 966 142 773 142C519 142 363 320 363 610C363 1010 588 1301 916 1301C1118 1301 1270 1190 1290 1002C1291 994 1292 984 1292 978ZM1060 1860L926 1860L580 1562L758 1562L980 1754L986 1754L1126 1562L1280 1562Z" />
<glyph glyph-name="ccircumflex" unicode="&#x0109;" horiz-adv-x="1031" d="M647 1058C334 1058 114 786 114 437C114 172 261 -18 542 -18C761 -18 946 133 996 330L825 330C781 212 680 135 544 135C392 135 292 251 292 443C292 714 438 905 645 905C799 905 887 806 892 689L1061 689C1061 694 1061 692 1061 696C1061 882 922 1058 647 1058ZM826 1508L692 1508L356 1208L524 1208L738 1400L744 1400L876 1208L1034 1208Z" />
<glyph glyph-name="Cdotaccent" unicode="&#x010a;" horiz-adv-x="1402" d="M1292 978L1474 978C1474 986 1474 990 1473 1005C1454 1289 1230 1466 918 1466C488 1466 178 1094 178 604C178 221 408 -23 771 -23C1058 -23 1294 150 1373 420L1191 420C1123 246 966 142 773 142C519 142 363 320 363 610C363 1010 588 1301 916 1301C1118 1301 1270 1190 1290 1002C1291 994 1292 984 1292 978ZM975 1613C1043 1613 1099 1669 1099 1737C1099 1805 1043 1861 975 1861C907 1861 851 1805 851 1737C851 1669 907 1613 975 1613Z" />
<glyph glyph-name="cdotaccent" unicode="&#x010b;" horiz-adv-x="1031" d="M647 1058C334 1058 114 786 114 437C114 172 261 -18 542 -18C761 -18 946 133 996 330L825 330C781 212 680 135 544 135C392 135 292 251 292 443C292 714 438 905 645 905C799 905 887 806 892 689L1061 689C1061 694 1061 692 1061 696C1061 882 922 1058 647 1058ZM716 1208C784 1208 840 1264 840 1332C840 1400 784 1456 716 1456C648 1456 592 1400 592 1332C592 1264 648 1208 716 1208Z" />
<glyph glyph-name="Ccaron" unicode="&#x010c;" horiz-adv-x="1402" d="M1292 978L1474 978C1474 986 1474 990 1473 1005C1454 1289 1230 1466 918 1466C488 1466 178 1094 178 604C178 221 408 -23 771 -23C1058 -23 1294 150 1373 420L1191 420C1123 246 966 142 773 142C519 142 363 320 363 610C363 1010 588 1301 916 1301C1118 1301 1270 1190 1290 1002C1291 994 1292 984 1292 978ZM880 1562L1014 1562L1360 1860L1182 1860L961 1668L955 1668L814 1860L660 1860Z" />
<glyph glyph-name="ccaron" unicode="&#x010d;" horiz-adv-x="1031" d="M647 1058C334 1058 114 786 114 437C114 172 261 -18 542 -18C761 -18 946 133 996 330L825 330C781 212 680 135 544 135C392 135 292 251 292 443C292 714 438 905 645 905C799 905 887 806 892 689L1061 689C1061 694 1061 692 1061 696C1061 882 922 1058 647 1058ZM771 1208L1107 1508L933 1508L718 1312L712 1312L581 1508L429 1508L637 1208Z" />
<glyph glyph-name="Dcaron" unicode="&#x010e;" horiz-adv-x="1413" d="M387 1443L82 0L642 0C1102 0 1419 349 1419 855C1419 1224 1191 1443 807 1443ZM537 1283L776 1283C1077 1283 1233 1130 1233 833C1233 441 980 160 628 160L298 160ZM760 1560L894 1560L1240 1858L1062 1858L841 1666L835 1666L694 1858L540 1858Z" />
<glyph glyph-name="dcaron" unicode="&#x010f;" horiz-adv-x="1356" d="M1432 1443L1328 955L1448 955L1602 1443ZM502 -18C638 -18 768 62 831 166L835 166L800 0L975 0L1282 1443L1108 1443L975 826L970 826C938 954 802 1058 636 1058C342 1058 115 790 115 430C115 160 264 -18 502 -18ZM542 135C383 135 289 250 289 438C289 712 440 904 638 904C802 904 906 783 906 612C906 339 752 135 542 135Z" />
<glyph glyph-name="Dcroat" unicode="&#x0110;" horiz-adv-x="1413" d="M298 160L404 656L730 656L764 818L438 818L537 1283L776 1283C1077 1283 1233 1130 1233 833C1233 441 980 160 628 160ZM387 1443L255 818L114 818L79 656L221 656L82 0L642 0C1102 0 1419 349 1419 855C1419 1224 1191 1443 807 1443Z" />
<glyph glyph-name="dcroat" unicode="&#x0111;" horiz-adv-x="1151" d="M542 135C383 135 289 250 289 438C289 712 440 904 638 904C802 904 906 783 906 612C906 339 752 135 542 135ZM1375 1337L1259 1337L1282 1443L1108 1443L1085 1337L842 1337L811 1193L1054 1193L975 826L970 826C938 954 802 1058 636 1058C342 1058 115 790 115 430C115 160 264 -18 502 -18C638 -18 768 62 831 166L835 166L800 0L975 0L1229 1193L1345 1193Z" />
<glyph glyph-name="Emacron" unicode="&#x0112;" horiz-adv-x="1134" d="M1010 162L299 162L404 658L1078 658L1112 818L438 818L537 1281L1248 1281L1283 1443L387 1443L80 0L976 0ZM1218 1750L584 1750L559 1634L1193 1634Z" />
<glyph glyph-name="emacron" unicode="&#x0113;" horiz-adv-x="1062" d="M314 618C356 780 465 906 627 906C802 906 872 778 872 646C872 637 872 627 871 618ZM542 -20C765 -20 947 128 1001 320L830 320C783 207 684 133 544 133C390 133 291 251 291 443C291 455 291 467 292 479L1040 479C1047 524 1049 576 1049 619C1049 890 888 1058 629 1058C327 1058 114 780 114 438C114 174 259 -20 542 -20ZM1007 1398L433 1398L409 1282L983 1282Z" />
<glyph glyph-name="Ebreve" unicode="&#x0114;" horiz-adv-x="1134" d="M1010 162L299 162L404 658L1078 658L1112 818L438 818L537 1281L1248 1281L1283 1443L387 1443L80 0L976 0ZM600 1848C594 1827 590 1802 590 1774C590 1633 708 1542 858 1542C1062 1542 1201 1654 1242 1848L1116 1848C1089 1722 991 1650 877 1650C780 1650 718 1703 718 1796C718 1815 722 1834 726 1848Z" />
<glyph glyph-name="ebreve" unicode="&#x0115;" horiz-adv-x="1062" d="M314 618C356 780 465 906 627 906C802 906 872 778 872 646C872 637 872 627 871 618ZM542 -20C765 -20 947 128 1001 320L830 320C783 207 684 133 544 133C390 133 291 251 291 443C291 455 291 467 292 479L1040 479C1047 524 1049 576 1049 619C1049 890 888 1058 629 1058C327 1058 114 780 114 438C114 174 259 -20 542 -20ZM419 1508C413 1487 409 1462 409 1434C409 1293 527 1198 677 1198C881 1198 1020 1314 1061 1508L935 1508C908 1382 810 1306 696 1306C599 1306 537 1363 537 1456C537 1475 541 1494 545 1508Z" />
<glyph glyph-name="Edotaccent" unicode="&#x0116;" horiz-adv-x="1134" d="M1010 162L299 162L404 658L1078 658L1112 818L438 818L537 1281L1248 1281L1283 1443L387 1443L80 0L976 0ZM893 1611C961 1611 1017 1667 1017 1735C1017 1803 961 1859 893 1859C825 1859 769 1803 769 1735C769 1667 825 1611 893 1611Z" />
<glyph glyph-name="edotaccent" unicode="&#x0117;" horiz-adv-x="1062" d="M314 618C356 780 465 906 627 906C802 906 872 778 872 646C872 637 872 627 871 618ZM542 -20C765 -20 947 128 1001 320L830 320C783 207 684 133 544 133C390 133 291 251 291 443C291 455 291 467 292 479L1040 479C1047 524 1049 576 1049 619C1049 890 888 1058 629 1058C327 1058 114 780 114 438C114 174 259 -20 542 -20ZM702 1208C770 1208 826 1264 826 1332C826 1400 770 1456 702 1456C634 1456 578 1400 578 1332C578 1264 634 1208 702 1208Z" />
<glyph glyph-name="Eogonek" unicode="&#x0118;" horiz-adv-x="1134" d="M80 0L803 0L803 -4C661 -87 584 -184 584 -278C584 -368 659 -427 772 -427C819 -427 866 -418 883 -406L908 -288C888 -297 863 -301 835 -301C775 -301 740 -274 740 -228C740 -166 815 -86 961 3L979 14L1010 162L298 162L404 658L1078 658L1112 818L437 818L537 1281L1248 1281L1283 1443L387 1443Z" />
<glyph glyph-name="eogonek" unicode="&#x0119;" horiz-adv-x="1062" d="M563 -412C610 -412 657 -403 674 -391L699 -273C681 -282 656 -286 626 -286C566 -286 531 -259 531 -212C531 -137 638 -33 825 75C908 123 970 210 1001 320L830 320C783 207 684 133 544 133C390 133 291 251 291 443C291 455 291 467 292 479L1040 479C1047 524 1049 576 1049 619C1049 890 888 1058 629 1058C327 1058 114 780 114 438C114 174 259 -20 542 -20L548 -20L548 -23C433 -92 375 -170 375 -262C375 -352 450 -412 563 -412ZM314 618C356 780 465 906 627 906C802 906 872 778 872 646C872 637 872 627 871 618Z" />
<glyph glyph-name="Ecaron" unicode="&#x011a;" horiz-adv-x="1134" d="M1010 162L299 162L404 658L1078 658L1112 818L438 818L537 1281L1248 1281L1283 1443L387 1443L80 0L976 0ZM798 1560L932 1560L1278 1858L1100 1858L879 1666L873 1666L732 1858L578 1858Z" />
<glyph glyph-name="ecaron" unicode="&#x011b;" horiz-adv-x="1062" d="M314 618C356 780 465 906 627 906C802 906 872 778 872 646C872 637 872 627 871 618ZM542 -20C765 -20 947 128 1001 320L830 320C783 207 684 133 544 133C390 133 291 251 291 443C291 455 291 467 292 479L1040 479C1047 524 1049 576 1049 619C1049 890 888 1058 629 1058C327 1058 114 780 114 438C114 174 259 -20 542 -20ZM757 1208L1093 1508L919 1508L704 1312L698 1312L567 1508L415 1508L623 1208Z" />
<glyph glyph-name="Gcircumflex" unicode="&#x011c;" horiz-adv-x="1454" d="M1462 736L878 736L844 578L1244 578L1233 523C1187 292 1005 142 772 142C507 142 362 332 362 610C362 922 519 1300 920 1300C1142 1300 1283 1169 1296 963L1478 963C1478 968 1478 973 1478 977C1470 1262 1258 1466 920 1466C405 1466 177 993 177 604C177 235 396 -23 772 -23C1095 -23 1341 173 1415 515ZM1066 1858L932 1858L586 1560L764 1560L986 1752L992 1752L1132 1560L1286 1560Z" />
<glyph glyph-name="gcircumflex" unicode="&#x011d;" horiz-adv-x="1140" d="M462 -392C722 -392 917 -244 980 54L1188 1040L1017 1040L973 818L968 818C932 954 803 1058 636 1058C298 1058 115 749 115 443C115 173 271 0 506 0C638 0 769 75 833 183L837 183L805 51C757 -146 642 -244 462 -244C327 -244 233 -181 219 -86L40 -86C40 -264 223 -392 462 -392ZM545 153C377 153 289 273 289 447C289 704 426 904 639 904C789 904 906 783 906 612C906 365 771 153 545 153ZM886 1508L752 1508L416 1208L584 1208L798 1400L804 1400L936 1208L1094 1208Z" />
<glyph glyph-name="Gbreve" unicode="&#x011e;" horiz-adv-x="1454" d="M1462 736L878 736L844 578L1244 578L1233 523C1187 292 1005 142 772 142C507 142 362 332 362 610C362 922 519 1300 920 1300C1142 1300 1283 1169 1296 963L1478 963C1478 968 1478 973 1478 977C1470 1262 1258 1466 920 1466C405 1466 177 993 177 604C177 235 396 -23 772 -23C1095 -23 1341 173 1415 515ZM688 1848C682 1827 678 1802 678 1774C678 1633 796 1542 946 1542C1150 1542 1289 1654 1330 1848L1204 1848C1177 1722 1079 1650 965 1650C868 1650 806 1703 806 1796C806 1815 810 1834 814 1848Z" />
<glyph glyph-name="gbreve" unicode="&#x011f;" horiz-adv-x="1140" d="M462 -392C722 -392 917 -244 980 54L1188 1040L1017 1040L973 818L968 818C932 954 803 1058 636 1058C298 1058 115 749 115 443C115 173 271 0 506 0C638 0 769 75 833 183L837 183L805 51C757 -146 642 -244 462 -244C327 -244 233 -181 219 -86L40 -86C40 -264 223 -392 462 -392ZM545 153C377 153 289 273 289 447C289 704 426 904 639 904C789 904 906 783 906 612C906 365 771 153 545 153ZM493 1508C487 1487 483 1462 483 1434C483 1293 601 1198 751 1198C955 1198 1094 1314 1135 1508L1009 1508C982 1382 884 1306 770 1306C673 1306 611 1363 611 1456C611 1475 615 1494 619 1508Z" />
<glyph glyph-name="Gdotaccent" unicode="&#x0120;" horiz-adv-x="1454" d="M1462 736L878 736L844 578L1244 578L1233 523C1187 292 1005 142 772 142C507 142 362 332 362 610C362 922 519 1300 920 1300C1142 1300 1283 1169 1296 963L1478 963C1478 968 1478 973 1478 977C1470 1262 1258 1466 920 1466C405 1466 177 993 177 604C177 235 396 -23 772 -23C1095 -23 1341 173 1415 515ZM981 1611C1049 1611 1105 1667 1105 1735C1105 1803 1049 1859 981 1859C913 1859 857 1803 857 1735C857 1667 913 1611 981 1611Z" />
<glyph glyph-name="gdotaccent" unicode="&#x0121;" horiz-adv-x="1140" d="M462 -392C722 -392 917 -244 980 54L1188 1040L1017 1040L973 818L968 818C932 954 803 1058 636 1058C298 1058 115 749 115 443C115 173 271 0 506 0C638 0 769 75 833 183L837 183L805 51C757 -146 642 -244 462 -244C327 -244 233 -181 219 -86L40 -86C40 -264 223 -392 462 -392ZM545 153C377 153 289 273 289 447C289 704 426 904 639 904C789 904 906 783 906 612C906 365 771 153 545 153ZM776 1208C844 1208 900 1264 900 1332C900 1400 844 1456 776 1456C708 1456 652 1400 652 1332C652 1264 708 1208 776 1208Z" />
<glyph glyph-name="Gcommaaccent" unicode="&#x0122;" horiz-adv-x="1454" d="M1462 736L878 736L844 578L1244 578L1233 523C1187 292 1005 142 772 142C507 142 362 332 362 610C362 922 519 1300 920 1300C1142 1300 1283 1169 1296 963L1478 963C1478 968 1478 973 1478 977C1470 1262 1258 1466 920 1466C405 1466 177 993 177 604C177 235 396 -23 772 -23C1095 -23 1341 173 1415 515ZM611 -476L823 -117L659 -117L477 -476Z" />
<glyph glyph-name="gcommaaccent" unicode="&#x0123;" horiz-adv-x="1140" d="M462 -392C722 -392 917 -244 980 54L1188 1040L1017 1040L973 818L968 818C932 954 803 1058 636 1058C298 1058 115 749 115 443C115 173 271 0 506 0C638 0 769 75 833 183L837 183L805 51C757 -146 642 -244 462 -244C327 -244 233 -181 219 -86L40 -86C40 -264 223 -392 462 -392ZM545 153C377 153 289 273 289 447C289 704 426 904 639 904C789 904 906 783 906 612C906 365 771 153 545 153ZM987 1516L775 1157L939 1157L1121 1516Z" />
<glyph glyph-name="Hcircumflex" unicode="&#x0124;" horiz-adv-x="1436" d="M1236 0L1543 1443L1359 1443L1226 819L438 819L571 1443L387 1443L80 0L264 0L404 657L1192 657L1052 0ZM1100 1858L966 1858L620 1560L798 1560L1020 1752L1026 1752L1166 1560L1320 1560Z" />
<glyph glyph-name="hcircumflex" unicode="&#x0125;" horiz-adv-x="1110" d="M56 0L231 0L364 624C399 789 523 904 684 904C825 904 909 820 909 697C909 667 904 633 896 595L765 0L940 0L1077 625C1086 668 1091 709 1091 746C1091 910 961 1058 758 1058C597 1058 480 974 422 878L418 878L538 1443L363 1443ZM594 1858L460 1858L114 1560L292 1560L514 1752L520 1752L660 1560L814 1560Z" />
<glyph glyph-name="Hbar" unicode="&#x0126;" horiz-adv-x="1436" d="M1226 819L438 819L489 1059L1277 1059ZM1598 1221L1496 1221L1543 1443L1359 1443L1312 1221L524 1221L571 1443L387 1443L340 1221L233 1221L199 1059L305 1059L80 0L264 0L404 657L1192 657L1052 0L1236 0L1461 1059L1563 1059Z" />
<glyph glyph-name="hbar" unicode="&#x0127;" horiz-adv-x="1110" d="M418 878L487 1204L729 1204L755 1326L513 1326L538 1443L363 1443L338 1326L222 1326L196 1204L312 1204L56 0L231 0L364 624C399 789 523 904 684 904C825 904 909 820 909 697C909 667 904 633 896 595L765 0L940 0L1077 625C1086 668 1091 709 1091 746C1091 910 961 1058 758 1058C597 1058 480 974 422 878Z" />
<glyph glyph-name="Itilde" unicode="&#x0128;" horiz-adv-x="464" d="M264 0L571 1443L387 1443L80 0ZM649 1546C758 1546 847 1646 879 1802L761 1802C741 1706 700 1659 658 1659C583 1659 562 1811 421 1811C307 1811 218 1716 189 1556L307 1556C323 1649 366 1698 412 1698C491 1698 517 1546 649 1546Z" />
<glyph glyph-name="itilde" unicode="&#x0129;" horiz-adv-x="424" d="M64 0L240 0L461 1040L285 1040ZM550 1216C659 1216 748 1316 780 1472L662 1472C642 1376 601 1329 559 1329C484 1329 463 1481 322 1481C208 1481 119 1386 90 1226L208 1226C224 1319 267 1368 313 1368C392 1368 418 1216 550 1216Z" />
<glyph glyph-name="Imacron" unicode="&#x012a;" horiz-adv-x="464" d="M264 0L571 1443L387 1443L80 0ZM863 1750L229 1750L204 1634L838 1634Z" />
<glyph glyph-name="imacron" unicode="&#x012b;" horiz-adv-x="424" d="M64 0L240 0L461 1040L285 1040ZM658 1398L171 1398L150 1282L638 1282Z" />
<glyph glyph-name="Ibreve" unicode="&#x012c;" horiz-adv-x="464" d="M264 0L571 1443L387 1443L80 0ZM245 1848C239 1827 235 1802 235 1774C235 1633 353 1542 503 1542C707 1542 846 1654 887 1848L761 1848C734 1722 636 1650 522 1650C425 1650 363 1703 363 1796C363 1815 367 1834 371 1848Z" />
<glyph glyph-name="ibreve" unicode="&#x012d;" horiz-adv-x="424" d="M64 0L240 0L461 1040L285 1040ZM149 1508C143 1487 139 1462 139 1434C139 1293 257 1198 407 1198C611 1198 750 1314 791 1508L665 1508C638 1382 540 1306 426 1306C329 1306 267 1363 267 1456C267 1475 271 1494 275 1508Z" />
<glyph glyph-name="Iogonek" unicode="&#x012e;" horiz-adv-x="464" d="M100 -427C147 -427 194 -418 211 -406L236 -288C220 -297 195 -301 163 -301C104 -301 68 -274 68 -224C68 -160 112 -92 251 6L268 18L571 1443L387 1443L76 -18L76 -18C-36 -116 -88 -196 -88 -278C-88 -368 -13 -427 100 -427Z" />
<glyph glyph-name="iogonek" unicode="&#x012f;" horiz-adv-x="400" d="M185 -391L210 -273C191 -282 166 -286 137 -286C77 -286 42 -259 42 -212C42 -149 110 -63 205 -8L229 6L449 1040L273 1040L50 -8C-64 -95 -114 -173 -114 -262C-114 -352 -39 -412 74 -412C121 -412 168 -403 185 -391ZM420 1215C480 1215 529 1264 529 1324C529 1384 480 1433 420 1433C360 1433 311 1384 311 1324C311 1264 360 1215 420 1215Z" />
<glyph glyph-name="Idotaccent" unicode="&#x0130;" horiz-adv-x="464" d="M264 0L571 1443L387 1443L80 0ZM538 1611C606 1611 662 1667 662 1735C662 1803 606 1859 538 1859C470 1859 414 1803 414 1735C414 1667 470 1611 538 1611Z" />
<glyph glyph-name="dotlessi" unicode="&#x0131;" horiz-adv-x="424" d="M64 0L240 0L461 1040L285 1040Z" />
<glyph glyph-name="IJ" unicode="&#x0132;" horiz-adv-x="1490" d="M264 0L571 1443L387 1443L80 0ZM529 330C529 129 692 -24 915 -24C1161 -24 1317 121 1370 373L1597 1443L1413 1443L1195 414C1157 234 1073 145 933 145C798 145 711 223 711 351C711 351 711 352 711 352C711 352 529 352 529 352C529 347 529 338 529 330Z" />
<glyph glyph-name="ij" unicode="&#x0133;" horiz-adv-x="832" d="M60 0L236 0L457 1040L281 1040ZM429 1215C489 1215 538 1264 538 1324C538 1384 489 1433 429 1433C369 1433 320 1384 320 1324C320 1264 369 1215 429 1215ZM853 1215C913 1215 962 1264 962 1324C962 1384 913 1433 853 1433C793 1433 744 1384 744 1324C744 1264 793 1215 853 1215ZM874 1040L698 1040L464 -52C440 -166 396 -206 300 -206C282 -206 271 -205 250 -203L216 -354C244 -357 280 -358 295 -358C483 -357 593 -272 635 -75Z" />
<glyph glyph-name="Jcircumflex" unicode="&#x0134;" horiz-adv-x="1026" d="M65 330C65 129 228 -24 451 -24C697 -24 853 121 906 373L1133 1443L949 1443L731 414C693 234 609 145 469 145C334 145 247 223 247 351C247 351 247 352 247 352C247 352 65 352 65 352C65 347 65 338 65 330ZM1185 1858L1051 1858L705 1560L883 1560L1105 1752L1111 1752L1251 1560L1405 1560Z" />
<glyph glyph-name="jcircumflex" unicode="&#x0135;" horiz-adv-x="416" d="M458 1040L282 1040L48 -52C24 -166 -20 -206 -116 -206C-134 -206 -145 -205 -166 -203L-200 -354C-172 -357 -136 -358 -121 -358C67 -357 177 -272 219 -75ZM543 1508L409 1508L73 1208L241 1208L455 1400L461 1400L593 1208L751 1208Z" />
<glyph glyph-name="Kcommaaccent" unicode="&#x0136;" horiz-adv-x="1259" d="M264 0L369 494L584 683L976 0L1186 0L726 795L1440 1443L1202 1443L426 742L422 742L571 1443L387 1443L80 0ZM450 -476L662 -117L498 -117L316 -476Z" />
<glyph glyph-name="kcommaaccent" unicode="&#x0137;" horiz-adv-x="961" d="M232 0L317 397L463 511L726 0L921 0L604 611L1123 1040L900 1040L363 599L359 599L539 1443L363 1443L56 0ZM329 -476L541 -117L377 -117L195 -476Z" />
<glyph glyph-name="Lacute" unicode="&#x0139;" horiz-adv-x="1078" d="M992 162L299 162L571 1443L387 1443L80 0L958 0ZM586 1560L907 1849L705 1849L424 1560Z" />
<glyph glyph-name="lacute" unicode="&#x013a;" horiz-adv-x="424" d="M64 0L240 0L547 1443L371 1443ZM567 1560L888 1849L686 1849L405 1560Z" />
<glyph glyph-name="Lcommaaccent" unicode="&#x013b;" horiz-adv-x="1078" d="M992 162L299 162L571 1443L387 1443L80 0L958 0ZM370 -476L582 -117L418 -117L236 -476Z" />
<glyph glyph-name="lcommaaccent" unicode="&#x013c;" horiz-adv-x="424" d="M64 0L240 0L547 1443L371 1443ZM4 -476L216 -117L52 -117L-130 -476Z" />
<glyph glyph-name="Lcaron" unicode="&#x013d;" horiz-adv-x="1078" d="M907 1443L803 955L923 955L1077 1443ZM992 162L299 162L571 1443L387 1443L80 0L958 0Z" />
<glyph glyph-name="lcaron" unicode="&#x013e;" horiz-adv-x="621" d="M697 1443L593 955L713 955L867 1443ZM64 0L240 0L547 1443L371 1443Z" />
<glyph glyph-name="Lslash" unicode="&#x0141;" horiz-adv-x="1078" d="M299 162L405 659L744 817L777 969L437 811L571 1443L387 1443L232 715L77 643L44 491L200 564L80 0L958 0L992 162Z" />
<glyph glyph-name="lslash" unicode="&#x0142;" horiz-adv-x="424" d="M547 1443L371 1443L227 764L113 711L76 539L190 592L64 0L240 0L385 683L501 737L538 909L422 855Z" />
<glyph glyph-name="Nacute" unicode="&#x0143;" horiz-adv-x="1434" d="M264 0L513 1173L517 1173L1050 0L1234 0L1541 1443L1357 1443L1108 270L1104 270L571 1443L387 1443L80 0ZM1081 1560L1402 1849L1200 1849L919 1560Z" />
<glyph glyph-name="nacute" unicode="&#x0144;" horiz-adv-x="1094" d="M52 0L227 0L360 624C397 796 521 904 672 904C805 904 893 828 893 703C893 676 889 637 880 595L753 0L928 0L1061 625C1070 669 1075 716 1075 752C1075 929 931 1058 745 1058C594 1058 478 988 409 878L405 878L439 1040L273 1040ZM830 1208L1140 1508L944 1508L670 1208Z" />
<glyph glyph-name="Ncommaaccent" unicode="&#x0145;" horiz-adv-x="1434" d="M264 0L513 1173L517 1173L1050 0L1234 0L1541 1443L1357 1443L1108 270L1104 270L571 1443L387 1443L80 0ZM508 -476L720 -117L556 -117L374 -476Z" />
<glyph glyph-name="ncommaaccent" unicode="&#x0146;" horiz-adv-x="1094" d="M52 0L227 0L360 624C397 796 521 904 672 904C805 904 893 828 893 703C893 676 889 637 880 595L753 0L928 0L1061 625C1070 669 1075 716 1075 752C1075 929 931 1058 745 1058C594 1058 478 988 409 878L405 878L439 1040L273 1040ZM341 -476L553 -117L389 -117L207 -476Z" />
<glyph glyph-name="Ncaron" unicode="&#x0147;" horiz-adv-x="1434" d="M264 0L513 1173L517 1173L1050 0L1234 0L1541 1443L1357 1443L1108 270L1104 270L571 1443L387 1443L80 0ZM937 1560L1071 1560L1417 1858L1239 1858L1018 1666L1012 1666L871 1858L717 1858Z" />
<glyph glyph-name="ncaron" unicode="&#x0148;" horiz-adv-x="1094" d="M52 0L227 0L360 624C397 796 521 904 672 904C805 904 893 828 893 703C893 676 889 637 880 595L753 0L928 0L1061 625C1070 669 1075 716 1075 752C1075 929 931 1058 745 1058C594 1058 478 988 409 878L405 878L439 1040L273 1040ZM835 1208L1171 1508L997 1508L782 1312L776 1312L645 1508L493 1508L701 1208Z" />
<glyph glyph-name="Omacron" unicode="&#x014c;" horiz-adv-x="1518" d="M928 1301C1181 1301 1343 1118 1343 831C1343 451 1113 142 777 142C524 142 362 325 362 612C362 992 592 1301 928 1301ZM777 -23C1213 -23 1528 365 1528 837C1528 1217 1290 1466 928 1466C492 1466 177 1078 177 606C177 226 415 -23 777 -23ZM1330 1750L696 1750L671 1634L1305 1634Z" />
<glyph glyph-name="omacron" unicode="&#x014d;" horiz-adv-x="1096" d="M550 135C391 135 290 257 290 444C290 706 440 905 647 905C806 905 907 783 907 596C907 334 757 135 550 135ZM647 1058C344 1058 114 786 114 439C114 163 284 -18 550 -18C853 -18 1083 254 1083 601C1083 877 913 1058 647 1058ZM1019 1398L445 1398L421 1282L995 1282Z" />
<glyph glyph-name="Obreve" unicode="&#x014e;" horiz-adv-x="1518" d="M928 1301C1181 1301 1343 1118 1343 831C1343 451 1113 142 777 142C524 142 362 325 362 612C362 992 592 1301 928 1301ZM777 -23C1213 -23 1528 365 1528 837C1528 1217 1290 1466 928 1466C492 1466 177 1078 177 606C177 226 415 -23 777 -23ZM712 1848C706 1827 702 1802 702 1774C702 1633 820 1542 970 1542C1174 1542 1313 1654 1354 1848L1228 1848C1201 1722 1103 1650 989 1650C892 1650 830 1703 830 1796C830 1815 834 1834 838 1848Z" />
<glyph glyph-name="obreve" unicode="&#x014f;" horiz-adv-x="1096" d="M550 135C391 135 290 257 290 444C290 706 440 905 647 905C806 905 907 783 907 596C907 334 757 135 550 135ZM647 1058C344 1058 114 786 114 439C114 163 284 -18 550 -18C853 -18 1083 254 1083 601C1083 877 913 1058 647 1058ZM431 1508C425 1487 421 1462 421 1434C421 1293 539 1198 689 1198C893 1198 1032 1314 1073 1508L947 1508C920 1382 822 1306 708 1306C611 1306 549 1363 549 1456C549 1475 553 1494 557 1508Z" />
<glyph glyph-name="Ohungarumlaut" unicode="&#x0150;" horiz-adv-x="1518" d="M928 1301C1181 1301 1343 1118 1343 831C1343 451 1113 142 777 142C524 142 362 325 362 612C362 992 592 1301 928 1301ZM777 -23C1213 -23 1528 365 1528 837C1528 1217 1290 1466 928 1466C492 1466 177 1078 177 606C177 226 415 -23 777 -23ZM1212 1560L1533 1849L1339 1849L1058 1560ZM892 1560L1213 1849L1019 1849L738 1560Z" />
<glyph glyph-name="ohungarumlaut" unicode="&#x0151;" horiz-adv-x="1096" d="M550 135C391 135 290 257 290 444C290 706 440 905 647 905C806 905 907 783 907 596C907 334 757 135 550 135ZM647 1058C344 1058 114 786 114 439C114 163 284 -18 550 -18C853 -18 1083 254 1083 601C1083 877 913 1058 647 1058ZM768 1208L914 1208L1220 1508L1028 1508ZM452 1208L598 1208L904 1508L712 1508Z" />
<glyph glyph-name="OE" unicode="&#x0152;" horiz-adv-x="2246" d="M1192 0L2088 0L2122 162L1409 162L1515 658L2190 658L2224 818L1548 818L1648 1281L2360 1281L2395 1443L1499 1443L1443 1179L1440 1179C1340 1363 1161 1466 928 1466C492 1466 177 1078 177 606C177 226 415 -23 777 -23C945 -23 1100 36 1222 153L1225 153ZM1343 831C1343 451 1113 142 777 142C524 142 362 325 362 612C362 992 592 1301 928 1301C1181 1301 1343 1118 1343 831Z" />
<glyph glyph-name="oe" unicode="&#x0153;" horiz-adv-x="1846" d="M1329 -18C1545 -18 1733 122 1786 320L1615 320C1569 203 1468 135 1333 135C1175 135 1077 257 1077 443C1077 461 1077 470 1078 479L1825 479C1831 517 1834 566 1834 619C1834 888 1679 1058 1432 1058C1266 1058 1106 965 1030 834L1026 834C967 960 852 1058 647 1058C344 1058 114 786 114 439C114 163 284 -18 550 -18C717 -18 874 66 957 208L961 208C1022 66 1151 -18 1329 -18ZM1099 618C1147 793 1262 906 1428 906C1564 906 1657 803 1657 646C1657 632 1657 625 1656 618ZM290 444C290 706 440 905 647 905C806 905 907 783 907 596C907 334 757 135 550 135C391 135 290 257 290 444Z" />
<glyph glyph-name="Racute" unicode="&#x0154;" horiz-adv-x="1270" d="M1219 1849L1017 1849L736 1560L898 1560ZM420 731L537 1283L882 1283C1033 1283 1127 1190 1127 1044C1127 860 979 731 767 731ZM387 1443L80 0L265 0L386 571L750 571L940 0L1130 0L928 596C1172 646 1317 838 1317 1062C1317 1292 1164 1443 892 1443Z" />
<glyph glyph-name="racute" unicode="&#x0155;" horiz-adv-x="698" d="M52 0L226 0L353 603C393 788 482 888 658 888C706 888 765 876 788 867L825 1032C802 1043 756 1055 705 1055C574 1055 478 996 413 902L409 902L438 1040L273 1040ZM632 1208L942 1508L746 1508L472 1208Z" />
<glyph glyph-name="Rcommaaccent" unicode="&#x0156;" horiz-adv-x="1270" d="M320 -476L454 -476L666 -117L502 -117ZM420 731L537 1283L882 1283C1033 1283 1127 1190 1127 1044C1127 860 979 731 767 731ZM387 1443L80 0L265 0L386 571L750 571L940 0L1130 0L928 596C1172 646 1317 838 1317 1062C1317 1292 1164 1443 892 1443Z" />
<glyph glyph-name="rcommaaccent" unicode="&#x0157;" horiz-adv-x="698" d="M52 0L226 0L353 603C393 788 482 888 658 888C706 888 765 876 788 867L825 1032C802 1043 756 1055 705 1055C574 1055 478 996 413 902L409 902L438 1040L273 1040ZM-1 -476L211 -117L47 -117L-135 -476Z" />
<glyph glyph-name="Rcaron" unicode="&#x0158;" horiz-adv-x="1270" d="M888 1560L1234 1858L1056 1858L835 1666L829 1666L688 1858L534 1858L754 1560ZM420 731L537 1283L882 1283C1033 1283 1127 1190 1127 1044C1127 860 979 731 767 731ZM387 1443L80 0L265 0L386 571L750 571L940 0L1130 0L928 596C1172 646 1317 838 1317 1062C1317 1292 1164 1443 892 1443Z" />
<glyph glyph-name="rcaron" unicode="&#x0159;" horiz-adv-x="698" d="M52 0L226 0L353 603C393 788 482 888 658 888C706 888 765 876 788 867L825 1032C802 1043 756 1055 705 1055C574 1055 478 996 413 902L409 902L438 1040L273 1040ZM637 1208L973 1508L799 1508L584 1312L578 1312L447 1508L295 1508L503 1208Z" />
<glyph glyph-name="Sacute" unicode="&#x015a;" horiz-adv-x="1227" d="M100 424C110 144 360 -23 660 -23C1002 -23 1179 197 1179 423C1179 606 1057 726 817 801L721 831C546 886 469 955 469 1066C469 1187 573 1303 780 1303C981 1303 1102 1198 1109 1048L1289 1048C1289 1307 1075 1466 782 1466C488 1466 283 1299 283 1052C283 857 400 742 639 667L735 637C913 581 990 515 990 385C990 227 847 140 662 140C443 140 301 256 281 424ZM944 1560L1265 1849L1063 1849L782 1560Z" />
<glyph glyph-name="sacute" unicode="&#x015b;" horiz-adv-x="948" d="M186 748C186 605 264 521 453 462L543 434C675 393 710 364 710 297C710 201 616 125 490 125C345 125 256 199 240 304L66 304C72 121 235 -18 482 -18C714 -18 885 120 885 307C885 444 808 525 622 583L532 611C402 651 357 690 357 764C357 851 438 915 570 915C690 915 780 842 789 740L955 740C953 926 797 1057 572 1057C342 1057 186 927 186 748ZM686 1208L996 1508L800 1508L526 1208Z" />
<glyph glyph-name="Scircumflex" unicode="&#x015c;" horiz-adv-x="1227" d="M100 424C110 144 360 -23 660 -23C1002 -23 1179 197 1179 423C1179 606 1057 726 817 801L721 831C546 886 469 955 469 1066C469 1187 573 1303 780 1303C981 1303 1102 1198 1109 1048L1289 1048C1289 1307 1075 1466 782 1466C488 1466 283 1299 283 1052C283 857 400 742 639 667L735 637C913 581 990 515 990 385C990 227 847 140 662 140C443 140 301 256 281 424ZM980 1858L846 1858L500 1560L678 1560L900 1752L906 1752L1046 1560L1200 1560Z" />
<glyph glyph-name="scircumflex" unicode="&#x015d;" horiz-adv-x="948" d="M186 748C186 605 264 521 453 462L543 434C675 393 710 364 710 297C710 201 616 125 490 125C345 125 256 199 240 304L66 304C72 121 235 -18 482 -18C714 -18 885 120 885 307C885 444 808 525 622 583L532 611C402 651 357 690 357 764C357 851 438 915 570 915C690 915 780 842 789 740L955 740C953 926 797 1057 572 1057C342 1057 186 927 186 748ZM746 1508L612 1508L276 1208L444 1208L658 1400L664 1400L796 1208L954 1208Z" />
<glyph glyph-name="Scedilla" unicode="&#x015e;" horiz-adv-x="1227" d="M721 831C546 886 469 955 469 1066C469 1187 573 1303 780 1303C981 1303 1102 1198 1109 1048L1289 1048C1289 1307 1075 1466 782 1466C488 1466 283 1299 283 1052C283 857 400 742 639 667L735 637C913 581 990 515 990 385C990 227 847 140 662 140C443 140 301 256 281 424L100 424C109 174 309 14 565 -17L488 -159L472 -231L531 -231C639 -231 686 -251 686 -296C686 -340 640 -365 561 -365C513 -365 465 -356 422 -340L398 -454C443 -471 516 -483 575 -483C723 -483 821 -404 821 -285C821 -190 751 -136 632 -140L699 -22C1016 -6 1179 206 1179 423C1179 606 1057 726 817 801Z" />
<glyph glyph-name="scedilla" unicode="&#x015f;" horiz-adv-x="948" d="M532 611C402 651 357 690 357 764C357 851 438 915 570 915C690 915 780 842 789 740L955 740C953 926 797 1057 572 1057C342 1057 186 927 186 748C186 605 264 521 453 462L543 434C675 393 710 364 710 297C710 201 616 125 490 125C345 125 256 199 240 304L66 304C71 142 199 15 399 -12L319 -159L303 -231L362 -231C470 -231 517 -251 517 -296C517 -340 471 -365 392 -365C344 -365 296 -356 253 -340L229 -454C274 -471 347 -483 406 -483C554 -483 652 -404 652 -285C652 -190 582 -136 463 -140L534 -16C739 3 885 134 885 307C885 444 808 525 622 583Z" />
<glyph glyph-name="Scaron" unicode="&#x0160;" horiz-adv-x="1227" d="M100 424C110 144 360 -23 660 -23C1002 -23 1179 197 1179 423C1179 606 1057 726 817 801L721 831C546 886 469 955 469 1066C469 1187 573 1303 780 1303C981 1303 1102 1198 1109 1048L1289 1048C1289 1307 1075 1466 782 1466C488 1466 283 1299 283 1052C283 857 400 742 639 667L735 637C913 581 990 515 990 385C990 227 847 140 662 140C443 140 301 256 281 424ZM800 1560L934 1560L1280 1858L1102 1858L881 1666L875 1666L734 1858L580 1858Z" />
<glyph glyph-name="scaron" unicode="&#x0161;" horiz-adv-x="948" d="M186 748C186 605 264 521 453 462L543 434C675 393 710 364 710 297C710 201 616 125 490 125C345 125 256 199 240 304L66 304C72 121 235 -18 482 -18C714 -18 885 120 885 307C885 444 808 525 622 583L532 611C402 651 357 690 357 764C357 851 438 915 570 915C690 915 780 842 789 740L955 740C953 926 797 1057 572 1057C342 1057 186 927 186 748ZM691 1208L1027 1508L853 1508L638 1312L632 1312L501 1508L349 1508L557 1208Z" />
<glyph glyph-name="Tcedilla" unicode="&#x0162;" horiz-adv-x="1211" d="M297 1443L263 1281L726 1281L454 0L501 0L414 -159L398 -231L457 -231C565 -231 612 -251 612 -296C612 -340 566 -365 487 -365C439 -365 391 -356 348 -340L324 -454C369 -471 442 -483 501 -483C649 -483 747 -404 747 -285C747 -190 677 -136 558 -140L638 0L910 1281L1373 1281L1407 1443Z" />
<glyph glyph-name="tcedilla" unicode="&#x0163;" horiz-adv-x="617" d="M474 896L697 896L727 1040L504 1040L559 1299L384 1299L331 1040L176 1040L146 896L300 896L171 294C164 262 161 232 161 205C161 101 219 36 306 8L293 8L202 -159L186 -231L245 -231C353 -231 400 -251 400 -296C400 -340 354 -365 275 -365C227 -365 179 -356 136 -340L112 -454C157 -471 230 -483 289 -483C437 -483 535 -404 535 -285C535 -190 465 -136 346 -140L421 -8C455 -8 488 -4 521 2L552 147C529 144 511 143 480 143C398 143 345 175 345 254C345 280 349 311 357 348Z" />
<glyph glyph-name="Tcaron" unicode="&#x0164;" horiz-adv-x="1211" d="M638 0L910 1281L1373 1281L1407 1443L297 1443L263 1281L726 1281L454 0ZM819 1560L953 1560L1299 1858L1121 1858L900 1666L894 1666L753 1858L599 1858Z" />
<glyph glyph-name="tcaron" unicode="&#x0165;" horiz-adv-x="720" d="M797 1688L693 1200L813 1200L967 1688ZM416 -8C451 -8 486 -4 521 2L552 147C529 144 511 143 480 143C398 143 345 175 345 254C345 280 349 311 357 348L474 896L697 896L727 1040L504 1040L559 1299L384 1299L331 1040L176 1040L146 896L300 896L171 294C164 262 161 232 161 205C161 62 271 -8 416 -8Z" />
<glyph glyph-name="Tbar" unicode="&#x0166;" horiz-adv-x="1211" d="M1373 1281L1407 1443L297 1443L263 1281L726 1281L625 804L288 804L254 642L590 642L454 0L638 0L774 642L1142 642L1176 804L809 804L910 1281Z" />
<glyph glyph-name="tbar" unicode="&#x0167;" horiz-adv-x="617" d="M697 896L727 1040L504 1040L559 1299L384 1299L331 1040L176 1040L146 896L300 896L246 644L92 644L61 500L215 500L171 294C164 262 161 232 161 205C161 62 271 -8 416 -8C451 -8 486 -4 521 2L552 147C529 144 511 143 480 143C398 143 345 175 345 254C345 280 349 311 357 348L389 500L627 500L658 644L420 644L474 896Z" />
<glyph glyph-name="Utilde" unicode="&#x0168;" horiz-adv-x="1430" d="M691 -23C1052 -23 1263 159 1329 467L1537 1443L1353 1443L1152 502C1104 277 937 143 723 143C493 143 381 257 374 434C373 475 377 520 387 567L571 1443L387 1443L201 555C192 511 187 467 188 425C190 175 364 -23 691 -23ZM1116 1546C1225 1546 1314 1646 1346 1802L1228 1802C1208 1706 1167 1659 1125 1659C1050 1659 1029 1811 888 1811C774 1811 685 1716 656 1556L774 1556C790 1649 833 1698 879 1698C958 1698 984 1546 1116 1546Z" />
<glyph glyph-name="utilde" unicode="&#x0169;" horiz-adv-x="1093" d="M1142 1040L968 1040L835 416C800 253 675 136 510 136C370 136 302 196 302 327C302 351 308 407 316 445L443 1040L267 1040L137 420C128 377 122 313 122 272C122 111 243 -18 442 -18C601 -18 734 69 784 146L788 146L755 0L921 0ZM874 1216C983 1216 1072 1316 1104 1472L986 1472C966 1376 925 1329 883 1329C808 1329 787 1481 646 1481C532 1481 443 1386 414 1226L532 1226C548 1319 591 1368 637 1368C716 1368 742 1216 874 1216Z" />
<glyph glyph-name="Umacron" unicode="&#x016a;" horiz-adv-x="1430" d="M691 -23C1052 -23 1263 159 1329 467L1537 1443L1353 1443L1152 502C1104 277 937 143 723 143C493 143 381 257 374 434C373 475 377 520 387 567L571 1443L387 1443L201 555C192 511 187 467 188 425C190 175 364 -23 691 -23ZM1330 1750L696 1750L671 1634L1305 1634Z" />
<glyph glyph-name="umacron" unicode="&#x016b;" horiz-adv-x="1093" d="M1142 1040L968 1040L835 416C800 253 675 136 510 136C370 136 302 196 302 327C302 351 308 407 316 445L443 1040L267 1040L137 420C128 377 122 313 122 272C122 111 243 -18 442 -18C601 -18 734 69 784 146L788 146L755 0L921 0ZM1061 1398L487 1398L463 1282L1037 1282Z" />
<glyph glyph-name="Ubreve" unicode="&#x016c;" horiz-adv-x="1430" d="M691 -23C1052 -23 1263 159 1329 467L1537 1443L1353 1443L1152 502C1104 277 937 143 723 143C493 143 381 257 374 434C373 475 377 520 387 567L571 1443L387 1443L201 555C192 511 187 467 188 425C190 175 364 -23 691 -23ZM712 1848C706 1827 702 1802 702 1774C702 1633 820 1542 970 1542C1174 1542 1313 1654 1354 1848L1228 1848C1201 1722 1103 1650 989 1650C892 1650 830 1703 830 1796C830 1815 834 1834 838 1848Z" />
<glyph glyph-name="ubreve" unicode="&#x016d;" horiz-adv-x="1093" d="M1142 1040L968 1040L835 416C800 253 675 136 510 136C370 136 302 196 302 327C302 351 308 407 316 445L443 1040L267 1040L137 420C128 377 122 313 122 272C122 111 243 -18 442 -18C601 -18 734 69 784 146L788 146L755 0L921 0ZM473 1508C467 1487 463 1462 463 1434C463 1293 581 1198 731 1198C935 1198 1074 1314 1115 1508L989 1508C962 1382 864 1306 750 1306C653 1306 591 1363 591 1456C591 1475 595 1494 599 1508Z" />
<glyph glyph-name="Uring" unicode="&#x016e;" horiz-adv-x="1430" d="M691 -23C1052 -23 1263 159 1329 467L1537 1443L1353 1443L1152 502C1104 277 937 143 723 143C493 143 381 257 374 434C373 475 377 520 387 567L571 1443L387 1443L201 555C192 511 187 467 188 425C190 175 364 -23 691 -23ZM1002 1555C1114 1555 1197 1637 1198 1755C1199 1869 1114 1937 1010 1937C900 1937 815 1855 815 1737C815 1623 900 1555 1002 1555ZM1002 1641C946 1641 905 1679 905 1740C905 1809 948 1851 1010 1851C1068 1851 1107 1813 1108 1752C1109 1683 1066 1641 1002 1641Z" />
<glyph glyph-name="uring" unicode="&#x016f;" horiz-adv-x="1093" d="M1142 1040L968 1040L835 416C800 253 675 136 510 136C370 136 302 196 302 327C302 351 308 407 316 445L443 1040L267 1040L137 420C128 377 122 313 122 272C122 111 243 -18 442 -18C601 -18 734 69 784 146L788 146L755 0L921 0ZM753 1152C865 1152 948 1234 949 1352C950 1466 865 1534 761 1534C651 1534 566 1452 566 1334C566 1220 651 1152 753 1152ZM753 1238C697 1238 656 1276 656 1337C656 1406 699 1448 761 1448C819 1448 858 1410 859 1349C860 1280 817 1238 753 1238Z" />
<glyph glyph-name="Uhungarumlaut" unicode="&#x0170;" horiz-adv-x="1430" d="M691 -23C1052 -23 1263 159 1329 467L1537 1443L1353 1443L1152 502C1104 277 937 143 723 143C493 143 381 257 374 434C373 475 377 520 387 567L571 1443L387 1443L201 555C192 511 187 467 188 425C190 175 364 -23 691 -23ZM1212 1560L1533 1849L1339 1849L1058 1560ZM892 1560L1213 1849L1019 1849L738 1560Z" />
<glyph glyph-name="uhungarumlaut" unicode="&#x0171;" horiz-adv-x="1093" d="M1142 1040L968 1040L835 416C800 253 675 136 510 136C370 136 302 196 302 327C302 351 308 407 316 445L443 1040L267 1040L137 420C128 377 122 313 122 272C122 111 243 -18 442 -18C601 -18 734 69 784 146L788 146L755 0L921 0ZM810 1208L956 1208L1262 1508L1070 1508ZM494 1208L640 1208L946 1508L754 1508Z" />
<glyph glyph-name="Uogonek" unicode="&#x0172;" horiz-adv-x="1430" d="M876 -406L901 -288C881 -297 856 -301 828 -301C768 -301 733 -274 733 -227C733 -158 824 -55 998 33C1170 120 1285 259 1329 466L1537 1443L1353 1443L1152 501C1104 276 937 142 723 142C493 142 381 256 374 433C373 474 377 519 387 566L571 1443L387 1443L201 554C192 510 187 466 188 424C190 174 364 -24 691 -24C721 -24 757 -22 768 -20L768 -23C634 -105 577 -187 577 -277C577 -367 652 -427 765 -427C812 -427 859 -418 876 -406Z" />
</font>
</defs>
</svg>
