<?xml version="1.0" standalone="no"?><!DOCTYPE svg PUBLIC "-//W3C//DTD SVG 1.1//EN" "http://www.w3.org/Graphics/SVG/1.1/DTD/svg11.dtd" ><svg xmlns="http://www.w3.org/2000/svg"><metadata></metadata><defs>
<font id="SFProDisplay-HeavyItalic" >
<font-face font-family="SF Pro Display" font-stretch="normal" units-per-em="2048" weight="800" panose-1="0,0,9,0,0,0,0,0,0,0" ascent="1950" descent="-494" x-height="1089" underline-thickness="227" underline-position="-264" unicode-range="U+00000032-00064258" bbox="-613,-535,2873,2206" />
<missing-glyph horiz-adv-x="2048" d="M-88 -494L1759 -494L1794 -329L-53 -329ZM9 -38L1856 -38L1891 127L44 127ZM106 417L1953 417L1988 583L141 583ZM202 874L2050 874L2085 1039L238 1039ZM300 1330L2147 1330L2182 1494L335 1494ZM396 1785L2243 1785L2279 1950L431 1950Z" />
<glyph glyph-name="space" unicode="&#x20;" horiz-adv-x="431" d="" />
<glyph glyph-name="exclam" unicode="&#x21;" horiz-adv-x="707" d="M399 1443L224 473L529 473L767 1443ZM301 -33C405 -33 490 46 490 147C490 247 405 326 301 326C196 326 112 247 112 147C112 46 196 -33 301 -33Z" />
<glyph glyph-name="quotedbl" unicode="&#x22;" horiz-adv-x="975" d="M496 851L621 1443L324 1443L198 851ZM973 851L1099 1443L801 1443L676 851Z" />
<glyph glyph-name="numbersign" unicode="&#x23;" horiz-adv-x="1343" d="M614 0L878 0L997 368L1230 368L1309 621L1078 621L1149 842L1382 842L1460 1093L1231 1093L1345 1444L1081 1444L967 1093L744 1093L858 1444L596 1444L481 1093L258 1093L178 842L400 842L329 621L107 621L27 368L248 368L129 0L391 0L511 368L734 368ZM562 594L651 868L917 868L826 594Z" />
<glyph glyph-name="dollar" unicode="&#x24;" horiz-adv-x="1372" d="M790 549C892 511 924 474 924 416C924 329 849 268 728 261ZM720 900C640 933 600 979 600 1035C600 1118 671 1177 781 1183ZM855 856L920 1160C981 1131 1021 1080 1026 1016L1354 1016C1350 1219 1204 1375 977 1427L1010 1584L866 1584L837 1445C826 1446 815 1446 804 1446C470 1446 246 1267 246 1002C246 826 367 679 589 612L655 592L588 277C508 302 457 355 451 427L113 427C118 208 276 54 531 10L500 -136L644 -136L672 -3C678 -3 683 -3 688 -3C1044 -3 1275 172 1275 457C1275 639 1165 764 920 837Z" />
<glyph glyph-name="percent" unicode="&#x25;" horiz-adv-x="1808" d="M183 1020C183 823 301 708 503 708C729 708 897 898 897 1161C897 1357 778 1470 573 1470C346 1470 183 1284 183 1020ZM504 908C474 908 458 938 458 995C458 1133 515 1270 572 1270C605 1270 622 1242 622 1184C622 1049 562 908 504 908ZM436 0L1089 694L1795 1443L1513 1443L879 770L154 0ZM1053 288C1053 92 1171 -24 1373 -24C1600 -24 1767 167 1767 430C1767 625 1648 739 1443 739C1216 739 1053 552 1053 288ZM1374 177C1344 177 1328 207 1328 264C1328 401 1385 538 1442 538C1475 538 1492 510 1492 452C1492 317 1432 177 1374 177Z" />
<glyph glyph-name="ampersand" unicode="&#x26;" horiz-adv-x="1489" d="M658 1078C658 1166 728 1236 814 1236C891 1236 944 1189 944 1117C944 1027 886 956 742 902C681 980 658 1028 658 1078ZM611 215C471 215 377 290 377 394C377 484 440 558 558 603C564 605 588 614 599 618L829 270C760 232 682 215 611 215ZM1006 0L1357 0L1195 242C1328 380 1411 550 1429 733L1432 762L1147 762L1145 738C1138 641 1103 549 1044 464L864 730C1116 831 1235 974 1235 1148C1235 1327 1052 1461 808 1461C554 1461 364 1308 364 1109C364 1017 399 928 480 812L403 781C172 690 54 547 54 364C54 137 276 -28 578 -28C712 -28 844 6 961 68Z" />
<glyph glyph-name="quotesingle" unicode="&#x27;" horiz-adv-x="497" d="M496 851L621 1443L324 1443L198 851Z" />
<glyph glyph-name="parenleft" unicode="&#x28;" horiz-adv-x="775" d="M592 -312C541 -174 508 31 506 291C502 785 700 1182 965 1443L597 1443C315 1169 147 771 147 351C147 112 196 -157 272 -312Z" />
<glyph glyph-name="parenright" unicode="&#x29;" horiz-adv-x="775" d="M257 1443C308 1305 341 1100 343 840C347 346 149 -51 -116 -312L252 -312C534 -38 702 360 702 780C702 1020 657 1288 577 1443Z" />
<glyph glyph-name="asterisk" unicode="&#x2a;" horiz-adv-x="972" d="M889 788L1017 955L779 1091L1060 1177L986 1372L737 1234L816 1502L601 1524L584 1243L389 1431L260 1262L494 1126L217 1042L291 850L541 989L460 719L672 696L689 982Z" />
<glyph glyph-name="plus" unicode="&#x2b;" horiz-adv-x="1372" d="M847 431L1251 431L1315 736L912 736L1001 1157L682 1157L593 736L203 736L138 431L528 431L440 15L759 15Z" />
<glyph glyph-name="comma" unicode="&#x2c;" horiz-adv-x="593" d="M200 -331L458 261L131 261L-58 -331Z" />
<glyph glyph-name="hyphen" unicode="&#x2d;" horiz-adv-x="830" d="M100 437L750 437L814 739L164 739Z" />
<glyph glyph-name="period" unicode="&#x2e;" horiz-adv-x="595" d="M252 -13C355 -13 438 70 438 173C438 276 355 359 252 359C149 359 66 276 66 173C66 70 149 -13 252 -13Z" />
<glyph glyph-name="slash" unicode="&#x2f;" horiz-adv-x="775" d="M192 -312L999 1443L658 1443L-149 -312Z" />
<glyph glyph-name="zero" unicode="&#x30;" horiz-adv-x="1413" d="M685 -25C1108 -25 1412 362 1412 902C1412 1242 1195 1468 866 1468C444 1468 143 1082 143 543C143 202 359 -25 685 -25ZM514 552C514 892 670 1183 852 1183C973 1183 1041 1080 1041 893C1041 552 883 259 700 259C581 259 514 364 514 552Z" />
<glyph glyph-name="one" unicode="&#x31;" horiz-adv-x="1030" d="M376 0L743 0L1050 1443L684 1443L263 1193L194 865L605 1109L612 1109Z" />
<glyph glyph-name="two" unicode="&#x32;" horiz-adv-x="1284" d="M207 991L541 991C565 1116 653 1187 773 1187C877 1187 950 1125 950 1034C950 937 890 870 611 659L84 256L28 0L1118 0L1178 283L579 283L580 290L853 501C1223 777 1309 884 1309 1067C1309 1300 1095 1468 798 1468C475 1468 228 1268 207 991Z" />
<glyph glyph-name="three" unicode="&#x33;" horiz-adv-x="1332" d="M519 608L681 608C811 608 889 547 889 445C889 335 796 258 663 258C516 258 417 351 432 471L432 471L95 471C90 447 89 427 89 408C87 147 309 -25 656 -25C996 -25 1244 163 1244 421C1244 572 1152 683 997 721L998 728C1196 754 1337 901 1337 1082C1337 1308 1124 1468 822 1468C515 1468 291 1305 242 1047L574 1047C597 1133 681 1187 791 1187C911 1187 989 1127 989 1036C989 932 895 869 744 869L573 869Z" />
<glyph glyph-name="four" unicode="&#x34;" horiz-adv-x="1378" d="M707 0L1054 0L1103 234L1283 234L1344 520L1164 520L1361 1443L832 1443C510 1073 284 803 102 555L41 234L756 234ZM417 514C575 731 795 997 961 1184L968 1184L824 507L416 507Z" />
<glyph glyph-name="five" unicode="&#x35;" horiz-adv-x="1326" d="M1323 1160L1385 1443L429 1443L188 628L520 628C566 687 652 727 727 727C857 727 945 642 945 510C945 367 837 258 696 258C562 258 466 338 457 456L125 456C123 430 123 428 123 428C123 428 123 427 123 421C124 162 356 -25 676 -25C1032 -25 1286 214 1286 544C1286 790 1111 969 874 969C742 969 640 926 567 853L559 853L659 1160Z" />
<glyph glyph-name="six" unicode="&#x36;" horiz-adv-x="1387" d="M1320 513C1322 765 1142 945 889 945C738 945 612 883 530 772L522 772C559 1015 699 1184 866 1184C971 1184 1043 1127 1061 1033L1412 1033C1408 1287 1188 1468 884 1468C462 1468 158 1090 154 591C149 172 392 -25 729 -25C1063 -25 1317 207 1320 513ZM754 695C880 695 971 608 969 486C968 352 867 255 729 255C601 255 506 346 508 466C509 596 616 695 754 695Z" />
<glyph glyph-name="seven" unicode="&#x37;" horiz-adv-x="1187" d="M56 0L455 0L1284 1160L1344 1443L278 1443L218 1161L898 1161L897 1153Z" />
<glyph glyph-name="eight" unicode="&#x38;" horiz-adv-x="1386" d="M1304 408C1304 560 1210 681 1053 729L1054 737C1258 768 1393 909 1393 1090C1393 1304 1161 1467 856 1467C531 1467 288 1295 288 1064C288 942 367 839 494 795L492 788C244 746 83 586 83 381C83 142 326 -25 672 -25C1039 -25 1304 157 1304 408ZM712 622C841 622 932 548 932 442C932 324 828 235 688 235C558 235 468 309 468 414C468 533 573 622 712 622ZM636 1025C636 1129 730 1213 846 1213C953 1213 1031 1146 1031 1054C1031 951 935 866 819 866C713 866 636 933 636 1025Z" />
<glyph glyph-name="nine" unicode="&#x39;" horiz-adv-x="1387" d="M787 742C661 742 573 828 574 950C576 1085 676 1182 813 1182C940 1182 1031 1088 1029 964C1028 835 926 742 787 742ZM222 927C220 678 409 494 665 494C819 494 937 551 1020 667L1027 667C1000 428 855 259 678 259C569 259 488 313 477 394L124 394C136 154 373 -25 676 -25C1087 -25 1373 341 1377 841C1381 1267 1143 1468 817 1468C474 1468 224 1240 222 927Z" />
<glyph glyph-name="colon" unicode="&#x3a;" horiz-adv-x="595" d="M252 -13C355 -13 438 70 438 173C438 276 355 359 252 359C149 359 66 276 66 173C66 70 149 -13 252 -13ZM402 692C505 692 587 774 587 877C587 980 505 1063 402 1063C299 1063 216 980 216 877C216 774 299 692 402 692Z" />
<glyph glyph-name="semicolon" unicode="&#x3b;" horiz-adv-x="595" d="M402 692C505 692 587 774 587 877C587 980 505 1063 402 1063C299 1063 216 980 216 877C216 774 299 692 402 692ZM200 -331L458 261L131 261L-58 -331Z" />
<glyph glyph-name="less" unicode="&#x3c;" horiz-adv-x="1372" d="M1161 294L596 567L599 584L1282 860L1357 1213L260 723L202 452L1092 -39Z" />
<glyph glyph-name="equal" unicode="&#x3d;" horiz-adv-x="1372" d="M1189 176L1253 479L155 479L91 176ZM1298 689L1362 992L265 992L200 689Z" />
<glyph glyph-name="greater" unicode="&#x3e;" horiz-adv-x="1372" d="M294 880L860 607L856 589L173 314L98 -39L1196 451L1253 721L364 1212Z" />
<glyph glyph-name="question" unicode="&#x3f;" horiz-adv-x="1118" d="M188 1039L513 1039C535 1128 607 1184 692 1184C788 1184 847 1131 847 1058C847 973 796 913 628 838C474 770 412 690 385 508L376 453L695 453L702 488C721 580 772 622 923 688C1110 770 1204 918 1204 1085C1204 1302 1009 1456 707 1456C415 1456 216 1281 188 1039ZM448 -33C552 -33 637 46 637 147C637 247 552 326 448 326C343 326 259 247 259 147C259 46 343 -33 448 -33Z" />
<glyph glyph-name="at" unicode="&#x40;" horiz-adv-x="1838" d="M1061 1446C530 1446 130 1055 130 536C130 75 459 -234 949 -234C997 -234 1047 -230 1092 -223L1129 -44C1111 -50 1056 -56 1004 -56C594 -57 334 176 334 543C334 952 646 1268 1049 1268C1386 1268 1611 1063 1611 755C1611 532 1513 338 1399 338C1354 338 1327 367 1327 414C1327 425 1327 437 1331 458L1444 982L1212 982L1186 856L1167 858C1145 955 1054 1017 937 1017C718 1017 545 806 545 538C545 325 662 185 837 185C938 185 1016 229 1073 329L1092 333C1092 326 1091 317 1091 308C1094 217 1197 157 1342 157C1617 157 1818 413 1818 762C1818 1168 1511 1446 1061 1446ZM1109 644C1109 499 1032 386 932 386C854 386 805 448 805 546C805 688 886 802 986 802C1063 802 1109 743 1109 644Z" />
<glyph glyph-name="A" unicode="&#x41;" horiz-adv-x="1446" d="M890 1121L898 1121L938 581L614 581ZM977 0L1350 0L1184 1443L735 1443L-69 0L319 0L482 317L953 317Z" />
<glyph glyph-name="B" unicode="&#x42;" horiz-adv-x="1366" d="M778 0C1095 0 1321 192 1321 460C1321 608 1212 719 1058 752L1059 759C1253 798 1393 942 1393 1133C1393 1310 1245 1443 971 1443L340 1443L33 0ZM648 1205L842 1205C963 1205 1026 1151 1026 1066C1026 953 929 871 785 871L577 871ZM448 260L527 634L748 634C883 634 953 575 953 477C953 347 852 260 694 260Z" />
<glyph glyph-name="C" unicode="&#x43;" horiz-adv-x="1507" d="M1186 889L1543 889C1545 903 1547 922 1546 945C1542 1252 1296 1468 956 1468C462 1468 138 1115 138 586C138 215 384 -25 766 -25C1131 -25 1413 194 1470 521L1113 521C1065 371 942 278 789 278C619 278 515 403 515 607C515 934 683 1168 922 1168C1069 1168 1181 1067 1186 926C1186 901 1187 895 1186 889Z" />
<glyph glyph-name="D" unicode="&#x44;" horiz-adv-x="1473" d="M340 1443L33 0L715 0C1172 0 1479 367 1479 883C1479 1236 1243 1443 897 1443ZM647 1149L813 1149C998 1149 1102 1030 1102 837C1102 504 920 294 665 294L466 294Z" />
<glyph glyph-name="E" unicode="&#x45;" horiz-adv-x="1191" d="M1084 295L462 295L525 590L1109 590L1167 860L583 860L644 1148L1265 1148L1328 1443L340 1443L33 0L1022 0Z" />
<glyph glyph-name="F" unicode="&#x46;" horiz-adv-x="1149" d="M414 0L528 538L1071 538L1132 819L588 819L658 1148L1258 1148L1321 1443L340 1443L33 0Z" />
<glyph glyph-name="G" unicode="&#x47;" horiz-adv-x="1519" d="M1525 777L904 777L850 525L1123 525L1120 512C1087 371 964 270 809 270C616 270 511 404 511 613C511 914 666 1173 928 1173C1081 1173 1183 1083 1192 956L1545 956C1546 963 1547 975 1547 984C1545 1244 1299 1468 937 1468C449 1468 138 1078 138 598C138 224 388 -25 771 -25C1160 -25 1421 199 1494 607Z" />
<glyph glyph-name="H" unicode="&#x48;" horiz-adv-x="1540" d="M1341 0L1648 1443L1273 1443L1152 875L593 875L715 1443L340 1443L33 0L408 0L532 584L1091 584L966 0Z" />
<glyph glyph-name="I" unicode="&#x49;" horiz-adv-x="598" d="M400 0L707 1443L340 1443L33 0Z" />
<glyph glyph-name="J" unicode="&#x4a;" horiz-adv-x="1205" d="M44 409C44 150 245 -25 549 -25C845 -25 1035 136 1097 430L1313 1443L945 1443L739 476C713 352 653 290 555 290C456 290 398 354 398 453L398 469L47 469C45 452 44 426 44 409Z" />
<glyph glyph-name="K" unicode="&#x4b;" horiz-adv-x="1410" d="M400 0L484 398L653 566L907 0L1311 0L957 774L1617 1443L1194 1443L583 827L576 827L707 1443L340 1443L33 0Z" />
<glyph glyph-name="L" unicode="&#x4c;" horiz-adv-x="1136" d="M1077 303L465 303L707 1443L340 1443L33 0L1012 0Z" />
<glyph glyph-name="M" unicode="&#x4d;" horiz-adv-x="1816" d="M359 0L563 959L570 959L714 2L937 2L1485 959L1496 959L1291 0L1618 0L1925 1443L1467 1443L917 465L910 465L762 1443L340 1443L33 0Z" />
<glyph glyph-name="N" unicode="&#x4e;" horiz-adv-x="1491" d="M385 0L572 882L579 882L1005 0L1293 0L1600 1443L1247 1443L1061 561L1054 561L628 1443L340 1443L33 0Z" />
<glyph glyph-name="O" unicode="&#x4f;" horiz-adv-x="1570" d="M918 1170C1089 1170 1201 1038 1201 829C1201 521 1020 273 792 273C621 273 510 407 510 614C510 921 691 1170 918 1170ZM782 -25C1223 -25 1573 333 1573 850C1573 1206 1334 1468 926 1468C484 1468 138 1109 138 593C138 236 382 -25 782 -25Z" />
<glyph glyph-name="P" unicode="&#x50;" horiz-adv-x="1326" d="M340 1443L34 0L401 0L491 423L730 423C1124 423 1381 647 1381 1008C1381 1270 1192 1443 877 1443ZM647 1161L801 1161C935 1161 1012 1099 1012 975C1012 813 901 700 730 700L549 700Z" />
<glyph glyph-name="Q" unicode="&#x51;" horiz-adv-x="1570" d="M1359 -132L1244 130C1451 295 1573 546 1573 850C1573 1206 1334 1468 926 1468C484 1468 138 1109 138 593C138 236 382 -25 782 -25C847 -25 911 -16 971 -1L1028 -132ZM792 273C621 273 510 407 510 614C510 921 691 1170 918 1170C1089 1170 1201 1038 1201 829C1201 685 1158 552 1086 461L1063 504L761 504L857 280C830 275 811 273 792 273Z" />
<glyph glyph-name="R" unicode="&#x52;" horiz-adv-x="1365" d="M562 764L649 1166L854 1166C979 1166 1050 1105 1050 993C1050 859 947 764 788 764ZM340 1443L33 0L400 0L507 505L707 505L856 0L1238 0L1069 541C1294 618 1419 815 1419 1024C1419 1267 1251 1443 955 1443Z" />
<glyph glyph-name="S" unicode="&#x53;" horiz-adv-x="1347" d="M71 425C74 141 308 -25 676 -25C1048 -25 1288 172 1288 457C1288 659 1174 770 919 845L776 888C646 926 597 973 597 1044C597 1124 677 1190 811 1190C950 1190 1040 1122 1044 1020L1382 1020C1381 1300 1157 1468 803 1468C467 1468 224 1281 224 999C224 802 350 676 590 602L728 560C874 515 913 475 913 404C913 312 820 254 683 254C540 254 434 325 420 425Z" />
<glyph glyph-name="T" unicode="&#x54;" horiz-adv-x="1284" d="M743 0L986 1148L1402 1148L1465 1443L266 1443L203 1148L619 1148L375 0Z" />
<glyph glyph-name="U" unicode="&#x55;" horiz-adv-x="1484" d="M732 -25C1070 -25 1319 154 1382 456L1591 1443L1224 1443L1032 536C998 375 898 287 754 287C614 287 517 365 515 494C515 522 518 552 525 585L707 1443L340 1443L157 579C148 536 143 493 144 454C144 174 364 -25 732 -25Z" />
<glyph glyph-name="V" unicode="&#x56;" horiz-adv-x="1409" d="M853 0L1619 1443L1204 1443L705 382L698 382L640 1443L238 1443L404 0Z" />
<glyph glyph-name="W" unicode="&#x57;" horiz-adv-x="1986" d="M1096 898L1103 898L1162 0L1506 0L2187 1443L1809 1443L1414 481L1407 481L1359 1443L1068 1443L623 481L616 481L620 1443L247 1443L318 0L666 0Z" />
<glyph glyph-name="X" unicode="&#x58;" horiz-adv-x="1435" d="M-54 0L366 0L724 458L732 458L926 0L1321 0L1009 717L1632 1443L1203 1443L849 990L841 990L650 1443L255 1443L566 729Z" />
<glyph glyph-name="Y" unicode="&#x59;" horiz-adv-x="1389" d="M796 0L900 492L1599 1443L1199 1443L790 841L782 841L618 1443L238 1443L534 498L429 0Z" />
<glyph glyph-name="Z" unicode="&#x5a;" horiz-adv-x="1277" d="M-5 0L1116 0L1178 295L512 295L512 302L1350 1210L1400 1443L313 1443L249 1148L883 1148L883 1141L45 233Z" />
<glyph glyph-name="bracketleft" unicode="&#x5b;" horiz-adv-x="775" d="M379 1443L5 -312L612 -312L666 -55L399 -55L664 1186L931 1186L986 1443Z" />
<glyph glyph-name="backslash" unicode="&#x5c;" horiz-adv-x="775" d="M286 -312L615 -312L563 1443L235 1443Z" />
<glyph glyph-name="bracketright" unicode="&#x5d;" horiz-adv-x="775" d="M471 -312L845 1443L237 1443L182 1187L450 1187L186 -55L-82 -55L-137 -312Z" />
<glyph glyph-name="asciicircum" unicode="&#x5e;" horiz-adv-x="1039" d="M542 1141L560 1141L648 808L941 808L747 1412L451 1412L-3 808L305 808Z" />
<glyph glyph-name="underscore" unicode="&#x5f;" horiz-adv-x="1024" d="M-208 -400L897 -400L961 -100L-144 -100Z" />
<glyph glyph-name="grave" unicode="&#x60;" horiz-adv-x="1059" d="M980 1259L821 1575L514 1575L707 1259Z" />
<glyph glyph-name="a" unicode="&#x61;" horiz-adv-x="1143" d="M510 223C426 223 368 265 368 329C368 402 436 450 541 454L739 460L721 379C702 289 612 223 510 223ZM358 -16C494 -16 607 42 665 129L672 129L644 0L977 0L1126 698C1130 721 1134 758 1134 787C1134 982 948 1115 671 1115C399 1115 200 975 159 755L475 755C495 822 557 861 647 861C739 861 798 820 798 757C798 747 797 738 794 721L781 657L523 649C221 640 36 503 36 280C36 109 176 -16 358 -16Z" />
<glyph glyph-name="b" unicode="&#x62;" horiz-adv-x="1280" d="M731 -16C1042 -16 1264 292 1264 678C1264 944 1120 1105 892 1105C751 1105 628 1039 563 930L554 930L665 1443L321 1443L13 0L347 0L390 201L397 201C437 71 569 -16 731 -16ZM647 258C537 258 465 343 465 468C465 668 584 840 731 840C841 840 909 757 909 626C909 423 797 258 647 258Z" />
<glyph glyph-name="c" unicode="&#x63;" horiz-adv-x="1160" d="M692 1115C323 1115 88 850 88 444C88 161 277 -26 583 -26C868 -26 1085 154 1122 415L793 415C766 313 695 251 597 251C497 251 432 332 432 458C432 683 532 838 676 838C778 838 839 770 840 672L1169 672C1169 678 1169 681 1169 715C1169 939 975 1115 692 1115Z" />
<glyph glyph-name="d" unicode="&#x64;" horiz-adv-x="1282" d="M454 -16C600 -16 716 45 793 158L800 158L766 0L1103 0L1410 1443L1066 1443L951 903L943 903C907 1027 788 1105 627 1105C315 1105 82 808 82 409C82 148 225 -16 454 -16ZM614 250C506 250 436 334 436 463C436 672 553 831 701 831C810 831 881 746 881 621C881 418 760 250 614 250Z" />
<glyph glyph-name="e" unicode="&#x65;" horiz-adv-x="1193" d="M436 667C466 785 558 869 675 869C789 869 856 793 856 698C856 687 855 673 853 667ZM589 -25C867 -25 1070 128 1126 351L805 351C779 275 705 224 605 224C478 224 401 313 401 436C401 447 402 458 404 469L1155 469C1167 522 1172 591 1172 647C1172 931 977 1115 689 1115C331 1115 90 838 90 469C90 163 281 -25 589 -25Z" />
<glyph glyph-name="f" unicode="&#x66;" horiz-adv-x="778" d="M94 0L439 0L612 820L823 820L878 1075L659 1075L677 1158C689 1220 735 1254 810 1254C863 1254 897 1248 917 1242L966 1465C926 1475 844 1491 756 1491C520 1491 387 1405 346 1205L319 1075L155 1075L100 820L269 820Z" />
<glyph glyph-name="g" unicode="&#x67;" horiz-adv-x="1269" d="M502 -411C821 -411 1040 -269 1094 -17L1329 1089L993 1089L951 896L936 896C899 1022 779 1105 625 1105C315 1105 84 793 84 428C84 182 233 19 456 19C594 19 712 77 776 175L792 175L753 -1C726 -121 648 -181 519 -181C406 -181 332 -136 319 -62L-16 -62C-14 -279 183 -411 502 -411ZM611 255C501 255 433 339 433 465C433 669 547 831 697 831C804 831 878 747 878 621C878 425 762 255 611 255Z" />
<glyph glyph-name="h" unicode="&#x68;" horiz-adv-x="1257" d="M13 0L356 0L492 642C517 761 609 843 720 843C820 843 888 780 888 693C888 670 885 646 879 617L748 0L1090 0L1232 671C1242 718 1247 762 1247 803C1247 981 1114 1110 912 1110C757 1110 634 1037 558 923L551 923L663 1443L320 1443Z" />
<glyph glyph-name="i" unicode="&#x69;" horiz-adv-x="528" d="M8 0L353 0L585 1089L240 1089ZM468 1180C570 1180 648 1255 648 1352C648 1450 570 1525 468 1525C366 1525 288 1450 288 1352C288 1255 366 1180 468 1180Z" />
<glyph glyph-name="j" unicode="&#x6a;" horiz-adv-x="526" d="M470 1180C572 1180 650 1255 650 1352C650 1450 572 1525 470 1525C368 1525 290 1450 290 1352C290 1255 368 1180 470 1180ZM584 1089L240 1089L1 -35C-13 -103 -54 -138 -127 -138C-154 -138 -176 -135 -193 -132L-247 -379C-209 -387 -142 -393 -96 -393C130 -393 293 -275 337 -70Z" />
<glyph glyph-name="k" unicode="&#x6b;" horiz-adv-x="1176" d="M357 0L428 332L533 429L733 0L1106 0L809 616L1306 1089L908 1089L511 690L504 690L664 1443L321 1443L13 0Z" />
<glyph glyph-name="l" unicode="&#x6c;" horiz-adv-x="540" d="M15 0L359 0L666 1443L322 1443Z" />
<glyph glyph-name="m" unicode="&#x6d;" horiz-adv-x="1827" d="M6 0L348 0L487 655C512 771 588 843 678 843C760 843 811 786 811 705C811 681 808 658 802 630L670 0L999 0L1136 655C1161 773 1237 843 1327 843C1409 843 1460 786 1460 705C1460 681 1457 658 1451 630L1319 0L1661 0L1804 679C1814 726 1819 770 1819 810C1819 988 1692 1115 1516 1115C1355 1115 1230 1035 1152 921L1145 921C1110 1036 1006 1115 868 1115C731 1115 605 1036 539 916L532 916L570 1089L238 1089Z" />
<glyph glyph-name="n" unicode="&#x6e;" horiz-adv-x="1241" d="M6 0L348 0L485 642C511 763 600 843 707 843C804 843 872 783 872 695C872 672 869 648 863 617L733 0L1075 0L1216 671C1226 719 1231 764 1231 804C1231 989 1096 1115 899 1115C751 1115 617 1045 541 923L534 923L570 1089L238 1089Z" />
<glyph glyph-name="o" unicode="&#x6f;" horiz-adv-x="1251" d="M613 242C506 242 437 334 437 472C437 687 549 847 703 847C809 847 878 755 878 617C878 405 764 242 613 242ZM718 1115C352 1115 88 841 88 465C88 171 293 -26 599 -26C965 -26 1229 248 1229 624C1229 917 1024 1115 718 1115Z" />
<glyph glyph-name="p" unicode="&#x70;" horiz-adv-x="1273" d="M639 258C529 258 458 343 458 468C458 666 575 840 725 840C834 840 902 756 902 626C902 419 786 258 639 258ZM274 -352L392 200L399 200C442 64 558 -16 715 -16C1026 -16 1256 279 1256 680C1256 942 1114 1105 886 1105C748 1105 627 1046 546 932L539 932L573 1089L238 1089L-69 -352Z" />
<glyph glyph-name="q" unicode="&#x71;" horiz-adv-x="1280" d="M614 250C506 250 437 334 437 463C437 670 553 831 702 831C811 831 882 746 882 621C882 418 761 250 614 250ZM1033 -352L1339 1089L1004 1089L965 903L958 903C910 1027 785 1105 628 1105C316 1105 83 807 83 409C83 147 226 -16 455 -16C596 -16 714 46 794 159L800 159L689 -352Z" />
<glyph glyph-name="r" unicode="&#x72;" horiz-adv-x="848" d="M6 0L351 0L474 573C508 733 602 812 744 812C806 812 857 797 901 776L967 1077C928 1095 883 1105 823 1105C701 1105 603 1035 550 934L543 934L574 1089L239 1089Z" />
<glyph glyph-name="s" unicode="&#x73;" horiz-adv-x="1108" d="M165 757C165 607 258 508 460 441L558 408C664 372 696 349 696 304C696 246 641 208 553 208C441 208 369 264 362 345L35 345C44 121 240 -26 543 -26C840 -26 1037 121 1037 341C1037 487 958 570 752 639L636 677C525 714 492 739 492 787C492 844 548 882 637 882C731 882 797 830 802 755L1112 755C1105 967 914 1114 642 1114C353 1114 165 972 165 757Z" />
<glyph glyph-name="t" unicode="&#x74;" horiz-adv-x="813" d="M524 -14C580 -14 642 -9 673 -1L726 241C712 237 694 235 654 235C565 235 525 261 525 323C525 338 527 362 531 379L623 808L840 808L894 1064L677 1064L732 1326L389 1326L333 1064L171 1064L115 808L278 808L179 340C170 294 168 253 168 226C168 67 302 -14 524 -14Z" />
<glyph glyph-name="u" unicode="&#x75;" horiz-adv-x="1241" d="M1301 1089L956 1089L822 460C795 335 713 257 602 257C498 257 440 312 440 415C440 437 443 464 447 488L576 1089L232 1089L93 432C84 391 78 337 78 291C78 102 210 -26 418 -26C573 -26 703 54 766 172L773 172L736 0L1069 0Z" />
<glyph glyph-name="v" unicode="&#x76;" horiz-adv-x="1131" d="M158 1090L280 0L679 0L1271 1090L903 1090L543 305L536 305L504 1090Z" />
<glyph glyph-name="w" unicode="&#x77;" horiz-adv-x="1691" d="M1822 1089L1467 1089L1166 320L1159 320L1155 1089L819 1089L494 320L487 320L508 1089L167 1089L217 0L596 0L917 735L924 735L940 0L1315 0Z" />
<glyph glyph-name="x" unicode="&#x78;" horiz-adv-x="1161" d="M570 341L679 0L1048 0L837 540L1283 1089L902 1089L664 748L657 748L547 1089L179 1089L390 549L-57 0L324 0L563 341Z" />
<glyph glyph-name="y" unicode="&#x79;" horiz-adv-x="1152" d="M81 -399C373 -399 554 -294 703 -13L1290 1089L923 1089L546 271L539 271L510 1089L158 1089L283 17C284 13 276 -11 276 -17C261 -98 199 -131 96 -131C86 -131 -2 -130 -8 -128L-63 -395C-57 -397 70 -399 81 -399Z" />
<glyph glyph-name="z" unicode="&#x7a;" horiz-adv-x="1074" d="M-19 0L931 0L988 266L505 266L506 273L1099 873L1146 1089L226 1089L169 823L654 823L652 816L21 188Z" />
<glyph glyph-name="braceleft" unicode="&#x7b;" horiz-adv-x="775" d="M178 205L152 85C145 55 137 13 137 -32C137 -178 222 -312 488 -312L612 -312L665 -64L621 -64C529 -64 489 -35 489 44C489 69 494 100 501 135L534 287C539 314 543 341 543 365C543 461 493 537 326 555L331 574C511 590 612 661 645 811L685 995C717 1142 769 1193 889 1193L933 1193L986 1443L862 1443C567 1443 423 1345 360 1059L331 926C297 770 228 720 82 720L17 410C148 410 189 368 189 292C189 266 185 237 178 205Z" />
<glyph glyph-name="bar" unicode="&#x7c;" horiz-adv-x="775" d="M408 -312L781 1443L441 1443L68 -312Z" />
<glyph glyph-name="braceright" unicode="&#x7d;" horiz-adv-x="775" d="M672 926L698 1046C704 1076 712 1118 712 1163C712 1309 627 1443 361 1443L237 1443L185 1195L228 1195C320 1195 360 1166 360 1087C360 1062 356 1031 348 996L316 844C310 817 306 790 306 766C306 670 357 594 523 576L519 557C338 541 237 470 204 320L164 136C132 -11 81 -62 -40 -62L-83 -62L-137 -312L-13 -312C282 -312 426 -214 489 72L518 205C552 361 621 411 767 411L833 721C702 721 660 763 660 839C660 865 665 894 672 926Z" />
<glyph glyph-name="asciitilde" unicode="&#x7e;" horiz-adv-x="1372" d="M954 464C1152 464 1274 617 1324 916L1064 916C1043 810 995 758 936 758C819 758 769 950 558 950C369 950 233 799 182 500L442 500C464 605 510 656 570 656C694 656 742 464 954 464Z" />
<glyph glyph-name="nonbreakingspace" unicode="&#xa0;" horiz-adv-x="431" d="" />
<glyph glyph-name="exclamdown" unicode="&#xa1;" horiz-adv-x="707" d="M376 -340L551 630L246 630L8 -340ZM474 1136C371 1136 285 1057 285 956C285 856 371 777 474 777C580 777 664 856 664 956C664 1057 580 1136 474 1136Z" />
<glyph glyph-name="cent" unicode="&#xa2;" horiz-adv-x="1372" d="M1258 534L927 534C897 434 825 382 728 382C639 382 553 446 553 600C553 826 654 1005 812 1005C907 1005 978 952 981 852L1310 852C1310 866 1310 881 1309 894C1303 1039 1203 1186 1023 1249L1067 1451L787 1451L749 1273C417 1232 204 945 204 578C204 362 320 204 508 141L463 -72L743 -72L781 112C1057 139 1226 320 1258 534Z" />
<glyph glyph-name="sterling" unicode="&#xa3;" horiz-adv-x="1372" d="M1251 305L615 305L615 309C718 360 787 482 800 617C800 620 800 625 799 632L1104 632L1154 872L789 872C786 908 784 940 784 971C784 1117 907 1186 1059 1186C1228 1186 1339 1142 1386 1119L1442 1397C1381 1425 1232 1479 1003 1479C667 1479 432 1319 432 1021C432 977 436 930 440 872L207 872L156 632L455 632C455 623 456 616 456 612C440 443 279 311 94 305L31 8L1187 8Z" />
<glyph glyph-name="currency" unicode="&#xa4;" horiz-adv-x="1372" d="M522 645C522 764 622 866 741 866C860 866 960 764 960 645C960 526 860 425 741 425C622 425 522 526 522 645ZM1384 1012L1227 1211L1019 1039C940 1094 844 1127 741 1127C684 1127 629 1117 579 1099L478 1225L239 1029L337 907C288 832 259 742 259 645C259 575 274 508 301 447L97 278L254 80L462 252C541 196 637 163 741 163C798 163 852 173 903 191L1003 66L1242 262L1145 383C1194 459 1223 549 1223 645C1223 716 1208 783 1180 844Z" />
<glyph glyph-name="yen" unicode="&#xa5;" horiz-adv-x="1372" d="M1093 182L1132 364L865 364L890 484L1157 484L1196 666L1019 666L1590 1443L1195 1443L781 840L776 840L612 1443L229 1443L474 666L294 666L255 484L523 484L498 364L230 364L191 182L459 182L420 0L788 0L826 182Z" />
<glyph glyph-name="brokenbar" unicode="&#xa6;" horiz-adv-x="775" d="M634 755L781 1443L441 1443L294 755ZM409 -312L554 377L214 377L69 -312Z" />
<glyph glyph-name="section" unicode="&#xa7;" horiz-adv-x="972" d="M464 480C401 512 365 557 365 603C365 659 415 711 483 731L595 670C660 638 691 592 691 547C691 493 645 441 578 419ZM407 -301C672 -301 863 -150 863 59C863 156 827 221 726 295L727 311C881 341 995 457 995 604C995 729 917 824 761 904L595 992C532 1023 502 1059 502 1104C502 1166 561 1211 642 1211C725 1211 787 1164 792 1090L1082 1090C1071 1312 897 1449 643 1449C380 1449 190 1303 190 1093C190 994 228 930 330 856L330 840C168 803 60 697 60 547C60 420 137 322 284 249L462 159C525 129 552 92 552 47C552 -16 490 -63 406 -63C323 -63 260 -12 254 56L-38 56C-35 -161 155 -301 407 -301Z" />
<glyph glyph-name="dieresis" unicode="&#xa8;" horiz-adv-x="1059" d="M539 1246C618 1246 678 1305 678 1379C678 1453 618 1513 539 1513C459 1513 399 1453 399 1379C399 1305 459 1246 539 1246ZM946 1246C1026 1246 1086 1305 1086 1379C1086 1453 1026 1513 946 1513C866 1513 806 1453 806 1379C806 1305 866 1246 946 1246Z" />
<glyph glyph-name="copyright" unicode="&#xa9;" horiz-adv-x="1672" d="M884 -120C1323 -120 1680 239 1680 680C1680 1122 1352 1445 904 1445C466 1445 108 1086 108 645C108 204 437 -120 884 -120ZM884 48C535 48 284 299 284 645C284 991 564 1277 904 1277C1254 1277 1504 1027 1504 680C1504 334 1224 48 884 48ZM1263 744C1278 917 1138 1051 938 1051C707 1051 537 864 537 611C537 413 675 275 875 275C1053 275 1180 370 1224 537L1001 537C973 479 937 454 881 454C803 454 758 509 758 605C758 755 834 872 933 872C1004 872 1048 824 1047 744Z" />
<glyph glyph-name="ordfeminine" unicode="&#xaa;" horiz-adv-x="808" d="M510 1009L620 1009L610 962C598 903 552 865 495 865C447 865 406 889 406 933C406 977 443 1009 510 1009ZM152 899C152 768 252 690 379 690C457 690 525 725 565 782L578 781L563 699L811 699L911 1166C915 1186 917 1206 917 1222C917 1364 782 1462 580 1462C401 1462 283 1383 244 1228L482 1228C494 1259 531 1277 574 1277C628 1277 664 1252 664 1211C664 1207 663 1201 659 1185C657 1177 653 1156 650 1145L464 1145C265 1145 152 1048 152 899Z" />
<glyph glyph-name="guillemotleft" unicode="&#xab;" horiz-adv-x="1431" d="M710 153L450 550L450 558L881 979L551 979L146 573L144 562L407 153ZM1257 154L998 546L999 553L1434 979L1104 979L695 568L693 557L954 154Z" />
<glyph glyph-name="logicalnot" unicode="&#xac;" horiz-adv-x="1372" d="M1307 737L211 737L147 436L932 436L846 34L1158 34Z" />
<glyph glyph-name="registered" unicode="&#xae;" horiz-adv-x="1191" d="M630 842L662 996L722 996L786 842L942 842L867 1008C942 1029 993 1092 993 1165C993 1248 925 1313 836 1313L591 1313L492 842ZM708 1205L788 1205C825 1205 846 1187 846 1156C846 1120 817 1095 772 1095L684 1095ZM740 550C1037 550 1264 776 1264 1072C1264 1368 1037 1594 740 1594C443 1594 216 1368 216 1072C216 776 443 550 740 550ZM740 694C527 694 369 854 369 1072C369 1290 527 1450 740 1450C953 1450 1111 1290 1111 1072C1111 854 953 694 740 694Z" />
<glyph glyph-name="macron" unicode="&#xaf;" horiz-adv-x="1059" d="M1093 1442L420 1442L385 1277L1058 1277Z" />
<glyph glyph-name="degree" unicode="&#xb0;" horiz-adv-x="774" d="M542 785C733 785 878 930 878 1121C878 1312 734 1456 542 1456C351 1456 206 1312 206 1121C206 930 352 785 542 785ZM543 980C468 980 405 1045 405 1121C405 1199 468 1262 543 1262C620 1262 680 1199 680 1121C680 1045 621 980 543 980Z" />
<glyph glyph-name="plusminus" unicode="&#xb1;" horiz-adv-x="1372" d="M1099 55L1153 310L182 310L128 55ZM892 645L1228 645L1283 903L947 903L993 1116L688 1116L643 903L308 903L253 645L588 645L543 433L847 433Z" />
<glyph glyph-name="two.sups" unicode="&#xb2;" horiz-adv-x="682" d="M639 1308C839 1438 894 1499 894 1599C894 1725 774 1814 604 1814C419 1814 274 1700 268 1548C269 1548 507 1548 508 1548L509 1555C514 1592 543 1619 577 1619C610 1619 633 1600 633 1572C633 1535 603 1507 449 1403L233 1262L193 1079L788 1079L830 1275L594 1275Z" />
<glyph glyph-name="three.sups" unicode="&#xb3;" horiz-adv-x="715" d="M470 1359L560 1359C591 1359 614 1339 614 1314C614 1283 587 1262 549 1262C507 1262 480 1283 479 1316L479 1317L232 1317C230 1309 230 1304 230 1289C229 1143 348 1055 550 1055C737 1055 863 1146 863 1281C863 1358 816 1416 744 1432L745 1437C836 1449 912 1517 912 1605C912 1729 792 1814 620 1814C447 1814 325 1728 294 1584L533 1584C539 1607 568 1624 599 1624C637 1624 663 1604 663 1576C663 1542 635 1524 584 1524L505 1524Z" />
<glyph glyph-name="acute" unicode="&#xb4;" horiz-adv-x="1059" d="M722 1259L1050 1575L738 1575L445 1259Z" />
<glyph glyph-name="mugreek" unicode="&#xb5;" horiz-adv-x="1328" d="M-68 -352L275 -352L359 40L366 40C395 3 447 -18 507 -18C637 -18 763 69 813 198L820 198C820 197 821 195 821 194C820 62 907 -8 1075 -8C1133 -8 1197 2 1230 12L1281 250C1269 246 1241 241 1225 241C1169 241 1144 262 1144 308C1144 321 1146 334 1151 360L1306 1089L961 1089L832 483C803 348 715 263 606 263C505 263 449 321 449 426C449 453 454 483 461 516L583 1089L238 1089Z" />
<glyph glyph-name="paragraph" unicode="&#xb6;" horiz-adv-x="1582" d="M796 -273L1161 1443L824 1442C450 1427 209 1191 209 853C209 624 357 449 610 415L463 -273ZM976 -273L1309 -273L1674 1443L1341 1443Z" />
<glyph glyph-name="periodcentered" unicode="&#xb7;" horiz-adv-x="595" d="M331 359C434 359 517 441 517 544C517 647 434 730 331 730C228 730 145 647 145 544C145 441 228 359 331 359Z" />
<glyph glyph-name="cedilla" unicode="&#xb8;" horiz-adv-x="1075" d="M243 -216L301 -216C390 -216 422 -228 422 -261C422 -295 382 -313 307 -313C265 -313 220 -307 190 -298L158 -448C187 -459 246 -466 305 -466C485 -466 614 -371 614 -239C614 -153 561 -100 464 -91L530 0L532 14L355 14L269 -103Z" />
<glyph glyph-name="one.sups" unicode="&#xb9;" horiz-adv-x="568" d="M354 1079L624 1079L776 1791L505 1791L308 1680L262 1460L452 1567L458 1567Z" />
<glyph glyph-name="ordmasculine" unicode="&#xba;" horiz-adv-x="857" d="M539 680C786 680 959 861 959 1119C959 1332 827 1462 608 1462C363 1462 186 1277 186 1017C186 809 321 680 539 680ZM700 1130C700 991 629 877 543 877C482 877 447 926 447 1010C447 1148 518 1266 604 1266C663 1266 700 1215 700 1130Z" />
<glyph glyph-name="guillemotright" unicode="&#xbb;" horiz-adv-x="1431" d="M796 979L1056 582L1056 574L625 153L955 153L1360 559L1362 570L1099 979ZM249 978L508 587L507 579L72 153L402 153L811 564L813 575L552 978Z" />
<glyph glyph-name="onequarter" unicode="&#xbc;" horiz-adv-x="1715" d="M281 731L551 731L703 1443L432 1443L235 1332L189 1112L379 1219L385 1219ZM357 0L1010 694L1715 1443L1434 1443L800 770L75 0ZM1266 0L1520 0L1538 85L1614 85L1657 285L1580 285L1671 712L1289 712C1139 537 1067 447 975 315L926 85L1284 85ZM1191 278C1232 348 1315 457 1384 536L1389 536L1333 272L1190 272Z" />
<glyph glyph-name="onehalf" unicode="&#xbd;" horiz-adv-x="1735" d="M385 1219L281 731L551 731L703 1443L432 1443L235 1332L189 1112L379 1219ZM1434 1443L800 770L75 0L357 0L1010 694L1715 1443ZM1463 229C1663 359 1718 420 1718 520C1718 646 1598 735 1428 735C1243 735 1098 621 1092 469C1093 469 1331 469 1332 469L1333 476C1338 513 1367 540 1401 540C1434 540 1457 521 1457 493C1457 456 1427 428 1273 324L1057 183L1017 0L1612 0L1654 196L1418 196Z" />
<glyph glyph-name="threequarters" unicode="&#xbe;" horiz-adv-x="1815" d="M397 1011L487 1011C518 1011 541 991 541 966C541 935 514 914 476 914C434 914 407 935 406 968L406 969L159 969C157 961 157 956 157 941C156 795 275 707 477 707C664 707 790 798 790 933C790 1010 743 1068 671 1084L672 1089C763 1101 839 1169 839 1257C839 1381 719 1466 547 1466C374 1466 252 1380 221 1236L460 1236C466 1259 495 1276 526 1276C564 1276 590 1256 590 1228C590 1194 562 1176 511 1176L432 1176ZM457 0L1110 694L1815 1443L1534 1443L900 770L175 0ZM1366 0L1620 0L1638 85L1714 85L1757 285L1680 285L1771 712L1389 712C1239 537 1167 447 1075 315L1026 85L1384 85ZM1291 278C1332 348 1415 457 1484 536L1489 536L1433 272L1290 272Z" />
<glyph glyph-name="questiondown" unicode="&#xbf;" horiz-adv-x="1118" d="M999 64L674 64C653 -25 580 -81 496 -81C400 -81 340 -28 340 45C340 130 391 190 559 265C714 333 775 413 802 595L811 650L492 650L485 615C466 523 415 481 264 415C77 333 -17 185 -17 18C-17 -199 178 -353 480 -353C772 -353 971 -178 999 64ZM739 1136C635 1136 550 1057 550 956C550 856 635 777 739 777C844 777 929 856 929 956C929 1057 844 1136 739 1136Z" />
<glyph glyph-name="Agrave" unicode="&#xc0;" horiz-adv-x="1446" d="M890 1121L898 1121L938 581L614 581ZM977 0L1350 0L1184 1443L735 1443L-69 0L319 0L482 317L953 317ZM854 1556L1109 1556L946 1870L649 1870Z" />
<glyph glyph-name="Aacute" unicode="&#xc1;" horiz-adv-x="1446" d="M890 1121L898 1121L938 581L614 581ZM977 0L1350 0L1184 1443L735 1443L-69 0L319 0L482 317L953 317ZM1127 1556L1464 1870L1138 1870L843 1556Z" />
<glyph glyph-name="Acircumflex" unicode="&#xc2;" horiz-adv-x="1446" d="M890 1121L898 1121L938 581L614 581ZM977 0L1350 0L1184 1443L735 1443L-69 0L319 0L482 317L953 317ZM1182 1869L911 1869L579 1542L832 1542L1017 1734L1024 1734L1127 1542L1374 1542Z" />
<glyph glyph-name="Atilde" unicode="&#xc3;" horiz-adv-x="1446" d="M890 1121L898 1121L938 581L614 581ZM977 0L1350 0L1184 1443L735 1443L-69 0L319 0L482 317L953 317ZM1150 1546C1282 1546 1392 1660 1429 1834L1245 1834C1226 1759 1195 1719 1153 1719C1074 1719 1042 1846 897 1846C763 1846 654 1736 619 1562L803 1562C820 1632 854 1673 895 1673C974 1673 1008 1546 1150 1546Z" />
<glyph glyph-name="Adieresis" unicode="&#xc4;" horiz-adv-x="1446" d="M890 1121L898 1121L938 581L614 581ZM977 0L1350 0L1184 1443L735 1443L-69 0L319 0L482 317L953 317ZM810 1573C889 1573 949 1632 949 1706C949 1780 889 1840 810 1840C730 1840 670 1780 670 1706C670 1632 730 1573 810 1573ZM1217 1573C1297 1573 1357 1632 1357 1706C1357 1780 1297 1840 1217 1840C1137 1840 1077 1780 1077 1706C1077 1632 1137 1573 1217 1573Z" />
<glyph glyph-name="Aring" unicode="&#xc5;" horiz-adv-x="1446" d="M890 1121L898 1121L938 581L614 581ZM977 0L1350 0L1184 1443L735 1443L-69 0L319 0L482 317L953 317ZM1043 1569C1170 1569 1275 1670 1275 1796C1275 1922 1170 2019 1045 2019C918 2019 812 1919 812 1792C812 1666 918 1569 1043 1569ZM1043 1705C994 1705 953 1743 953 1793C953 1845 994 1885 1045 1885C1094 1885 1135 1846 1135 1795C1135 1744 1094 1705 1043 1705Z" />
<glyph glyph-name="AE" unicode="&#xc6;" horiz-adv-x="2035" d="M1126 1167L1004 592L667 592L1006 1167ZM878 0L1854 0L1916 295L1271 295L1333 588L1942 588L2000 858L1391 858L1452 1148L2098 1148L2161 1443L824 1443L-49 0L322 0L516 327L947 327Z" />
<glyph glyph-name="Ccedilla" unicode="&#xc7;" horiz-adv-x="1507" d="M1543 889C1545 903 1547 922 1546 945C1542 1252 1296 1468 956 1468C462 1468 138 1115 138 586C138 253 336 26 652 -17L589 -103L563 -216L621 -216C710 -216 742 -228 742 -261C742 -295 702 -313 627 -313C585 -313 540 -307 510 -298L478 -448C507 -459 566 -466 625 -466C805 -466 934 -371 934 -239C934 -153 881 -100 784 -91L834 -22C1166 3 1417 215 1470 521L1113 521C1065 371 942 278 789 278C619 278 515 403 515 607C515 934 683 1168 922 1168C1069 1168 1181 1067 1186 926C1186 901 1187 895 1186 889Z" />
<glyph glyph-name="Egrave" unicode="&#xc8;" horiz-adv-x="1191" d="M1084 295L462 295L525 590L1109 590L1167 860L583 860L644 1148L1265 1148L1328 1443L340 1443L33 0L1022 0ZM709 1556L964 1556L801 1870L504 1870Z" />
<glyph glyph-name="Eacute" unicode="&#xc9;" horiz-adv-x="1191" d="M1084 295L462 295L525 590L1109 590L1167 860L583 860L644 1148L1265 1148L1328 1443L340 1443L33 0L1022 0ZM982 1556L1319 1870L993 1870L698 1556Z" />
<glyph glyph-name="Ecircumflex" unicode="&#xca;" horiz-adv-x="1191" d="M1084 295L462 295L525 590L1109 590L1167 860L583 860L644 1148L1265 1148L1328 1443L340 1443L33 0L1022 0ZM1037 1869L766 1869L434 1542L687 1542L872 1734L879 1734L982 1542L1229 1542Z" />
<glyph glyph-name="Edieresis" unicode="&#xcb;" horiz-adv-x="1191" d="M1084 295L462 295L525 590L1109 590L1167 860L583 860L644 1148L1265 1148L1328 1443L340 1443L33 0L1022 0ZM665 1573C744 1573 804 1632 804 1706C804 1780 744 1840 665 1840C585 1840 525 1780 525 1706C525 1632 585 1573 665 1573ZM1072 1573C1152 1573 1212 1632 1212 1706C1212 1780 1152 1840 1072 1840C992 1840 932 1780 932 1706C932 1632 992 1573 1072 1573Z" />
<glyph glyph-name="Igrave" unicode="&#xcc;" horiz-adv-x="598" d="M400 0L707 1443L340 1443L33 0ZM419 1556L674 1556L511 1870L214 1870Z" />
<glyph glyph-name="Iacute" unicode="&#xcd;" horiz-adv-x="598" d="M400 0L707 1443L340 1443L33 0ZM692 1556L1029 1870L703 1870L408 1556Z" />
<glyph glyph-name="Icircumflex" unicode="&#xce;" horiz-adv-x="598" d="M400 0L707 1443L340 1443L33 0ZM747 1869L476 1869L144 1542L397 1542L582 1734L589 1734L692 1542L939 1542Z" />
<glyph glyph-name="Idieresis" unicode="&#xcf;" horiz-adv-x="598" d="M400 0L707 1443L340 1443L33 0ZM375 1573C454 1573 514 1632 514 1706C514 1780 454 1840 375 1840C295 1840 235 1780 235 1706C235 1632 295 1573 375 1573ZM782 1573C862 1573 922 1632 922 1706C922 1780 862 1840 782 1840C702 1840 642 1780 642 1706C642 1632 702 1573 782 1573Z" />
<glyph glyph-name="Eth" unicode="&#xd0;" horiz-adv-x="1473" d="M466 294L527 580L748 580L811 875L589 875L647 1149L813 1149C998 1149 1102 1030 1102 837C1102 504 920 294 665 294ZM340 1443L219 875L103 875L40 580L156 580L33 0L715 0C1172 0 1479 367 1479 883C1479 1236 1243 1443 897 1443Z" />
<glyph glyph-name="Ntilde" unicode="&#xd1;" horiz-adv-x="1491" d="M385 0L572 882L579 882L1005 0L1293 0L1600 1443L1247 1443L1061 561L1054 561L628 1443L340 1443L33 0ZM1129 1546C1261 1546 1371 1660 1408 1834L1224 1834C1205 1759 1174 1719 1132 1719C1053 1719 1021 1846 876 1846C742 1846 633 1736 598 1562L782 1562C799 1632 833 1673 874 1673C953 1673 987 1546 1129 1546Z" />
<glyph glyph-name="Ograve" unicode="&#xd2;" horiz-adv-x="1570" d="M918 1170C1089 1170 1201 1038 1201 829C1201 521 1020 273 792 273C621 273 510 407 510 614C510 921 691 1170 918 1170ZM782 -25C1223 -25 1573 333 1573 850C1573 1206 1334 1468 926 1468C484 1468 138 1109 138 593C138 236 382 -25 782 -25ZM835 1556L1090 1556L927 1870L630 1870Z" />
<glyph glyph-name="Oacute" unicode="&#xd3;" horiz-adv-x="1570" d="M918 1170C1089 1170 1201 1038 1201 829C1201 521 1020 273 792 273C621 273 510 407 510 614C510 921 691 1170 918 1170ZM782 -25C1223 -25 1573 333 1573 850C1573 1206 1334 1468 926 1468C484 1468 138 1109 138 593C138 236 382 -25 782 -25ZM1108 1556L1445 1870L1119 1870L824 1556Z" />
<glyph glyph-name="Ocircumflex" unicode="&#xd4;" horiz-adv-x="1570" d="M918 1170C1089 1170 1201 1038 1201 829C1201 521 1020 273 792 273C621 273 510 407 510 614C510 921 691 1170 918 1170ZM782 -25C1223 -25 1573 333 1573 850C1573 1206 1334 1468 926 1468C484 1468 138 1109 138 593C138 236 382 -25 782 -25ZM1163 1869L892 1869L560 1542L813 1542L998 1734L1005 1734L1108 1542L1355 1542Z" />
<glyph glyph-name="Otilde" unicode="&#xd5;" horiz-adv-x="1570" d="M918 1170C1089 1170 1201 1038 1201 829C1201 521 1020 273 792 273C621 273 510 407 510 614C510 921 691 1170 918 1170ZM782 -25C1223 -25 1573 333 1573 850C1573 1206 1334 1468 926 1468C484 1468 138 1109 138 593C138 236 382 -25 782 -25ZM1131 1546C1263 1546 1373 1660 1410 1834L1226 1834C1207 1759 1176 1719 1134 1719C1055 1719 1023 1846 878 1846C744 1846 635 1736 600 1562L784 1562C801 1632 835 1673 876 1673C955 1673 989 1546 1131 1546Z" />
<glyph glyph-name="Odieresis" unicode="&#xd6;" horiz-adv-x="1570" d="M918 1170C1089 1170 1201 1038 1201 829C1201 521 1020 273 792 273C621 273 510 407 510 614C510 921 691 1170 918 1170ZM782 -25C1223 -25 1573 333 1573 850C1573 1206 1334 1468 926 1468C484 1468 138 1109 138 593C138 236 382 -25 782 -25ZM791 1573C870 1573 930 1632 930 1706C930 1780 870 1840 791 1840C711 1840 651 1780 651 1706C651 1632 711 1573 791 1573ZM1198 1573C1278 1573 1338 1632 1338 1706C1338 1780 1278 1840 1198 1840C1118 1840 1058 1780 1058 1706C1058 1632 1118 1573 1198 1573Z" />
<glyph glyph-name="multiply" unicode="&#xd7;" horiz-adv-x="1372" d="M908 74L1156 245L926 568L1270 827L1105 1059L762 800L546 1102L300 931L524 617L183 356L347 125L687 386Z" />
<glyph glyph-name="Oslash" unicode="&#xd8;" horiz-adv-x="1570" d="M1195 911C1199 885 1201 858 1201 829C1201 521 1020 273 792 273C723 273 664 295 618 334ZM516 532C512 558 510 585 510 614C510 921 691 1170 918 1170C987 1170 1047 1148 1093 1109ZM1627 1343L1477 1493L1334 1350C1229 1425 1091 1468 926 1468C484 1468 138 1109 138 593C138 462 171 345 232 248L84 100L234 -50L377 93C483 18 619 -25 782 -25C1223 -25 1573 333 1573 850C1573 981 1541 1099 1480 1196Z" />
<glyph glyph-name="Ugrave" unicode="&#xd9;" horiz-adv-x="1484" d="M732 -25C1070 -25 1319 154 1382 456L1591 1443L1224 1443L1032 536C998 375 898 287 754 287C614 287 517 365 515 494C515 522 518 552 525 585L707 1443L340 1443L157 579C148 536 143 493 144 454C144 174 364 -25 732 -25ZM850 1556L1105 1556L942 1870L645 1870Z" />
<glyph glyph-name="Uacute" unicode="&#xda;" horiz-adv-x="1484" d="M732 -25C1070 -25 1319 154 1382 456L1591 1443L1224 1443L1032 536C998 375 898 287 754 287C614 287 517 365 515 494C515 522 518 552 525 585L707 1443L340 1443L157 579C148 536 143 493 144 454C144 174 364 -25 732 -25ZM1123 1556L1460 1870L1134 1870L839 1556Z" />
<glyph glyph-name="Ucircumflex" unicode="&#xdb;" horiz-adv-x="1484" d="M732 -25C1070 -25 1319 154 1382 456L1591 1443L1224 1443L1032 536C998 375 898 287 754 287C614 287 517 365 515 494C515 522 518 552 525 585L707 1443L340 1443L157 579C148 536 143 493 144 454C144 174 364 -25 732 -25ZM1178 1869L907 1869L575 1542L828 1542L1013 1734L1020 1734L1123 1542L1370 1542Z" />
<glyph glyph-name="Udieresis" unicode="&#xdc;" horiz-adv-x="1484" d="M732 -25C1070 -25 1319 154 1382 456L1591 1443L1224 1443L1032 536C998 375 898 287 754 287C614 287 517 365 515 494C515 522 518 552 525 585L707 1443L340 1443L157 579C148 536 143 493 144 454C144 174 364 -25 732 -25ZM806 1573C885 1573 945 1632 945 1706C945 1780 885 1840 806 1840C726 1840 666 1780 666 1706C666 1632 726 1573 806 1573ZM1213 1573C1293 1573 1353 1632 1353 1706C1353 1780 1293 1840 1213 1840C1133 1840 1073 1780 1073 1706C1073 1632 1133 1573 1213 1573Z" />
<glyph glyph-name="Yacute" unicode="&#xdd;" horiz-adv-x="1389" d="M796 0L900 492L1599 1443L1199 1443L790 841L782 841L618 1443L238 1443L534 498L429 0ZM1083 1556L1420 1870L1094 1870L799 1556Z" />
<glyph glyph-name="Thorn" unicode="&#xde;" horiz-adv-x="1365" d="M52 0L418 0L475 266L776 266C1126 266 1371 508 1371 811C1371 1050 1180 1224 918 1224L680 1224L727 1443L359 1443ZM617 941L805 941C937 941 1006 881 1006 773C1006 636 902 546 739 546L533 546Z" />
<glyph glyph-name="germandbls" unicode="&#xdf;" horiz-adv-x="1370" d="M387 0L595 979C623 1111 700 1183 810 1183C917 1183 990 1119 990 1024C990 927 904 860 798 860L725 860L667 585L744 585C883 585 968 535 968 439C968 334 883 264 756 264C701 264 639 277 597 298L538 32C609 6 718 -10 813 -10C1117 -10 1322 154 1322 417C1322 575 1223 679 1052 717L1056 736C1220 766 1342 905 1342 1076C1342 1305 1128 1465 818 1465C532 1465 320 1323 271 1100L33 0Z" />
<glyph glyph-name="agrave" unicode="&#xe0;" horiz-adv-x="1143" d="M510 223C426 223 368 265 368 329C368 402 436 450 541 454L739 460L721 379C702 289 612 223 510 223ZM358 -16C494 -16 607 42 665 129L672 129L644 0L977 0L1126 698C1130 721 1134 758 1134 787C1134 982 948 1115 671 1115C399 1115 200 975 159 755L475 755C495 822 557 861 647 861C739 861 798 820 798 757C798 747 797 738 794 721L781 657L523 649C221 640 36 503 36 280C36 109 176 -16 358 -16ZM830 1259L671 1575L364 1575L557 1259Z" />
<glyph glyph-name="aacute" unicode="&#xe1;" horiz-adv-x="1143" d="M510 223C426 223 368 265 368 329C368 402 436 450 541 454L739 460L721 379C702 289 612 223 510 223ZM358 -16C494 -16 607 42 665 129L672 129L644 0L977 0L1126 698C1130 721 1134 758 1134 787C1134 982 948 1115 671 1115C399 1115 200 975 159 755L475 755C495 822 557 861 647 861C739 861 798 820 798 757C798 747 797 738 794 721L781 657L523 649C221 640 36 503 36 280C36 109 176 -16 358 -16ZM899 1259L1227 1575L915 1575L622 1259Z" />
<glyph glyph-name="acircumflex" unicode="&#xe2;" horiz-adv-x="1143" d="M510 223C426 223 368 265 368 329C368 402 436 450 541 454L739 460L721 379C702 289 612 223 510 223ZM358 -16C494 -16 607 42 665 129L672 129L644 0L977 0L1126 698C1130 721 1134 758 1134 787C1134 982 948 1115 671 1115C399 1115 200 975 159 755L475 755C495 822 557 861 647 861C739 861 798 820 798 757C798 747 797 738 794 721L781 657L523 649C221 640 36 503 36 280C36 109 176 -16 358 -16ZM924 1572L652 1572L323 1245L589 1245L764 1428L771 1428L868 1245L1113 1245Z" />
<glyph glyph-name="atilde" unicode="&#xe3;" horiz-adv-x="1143" d="M510 223C426 223 368 265 368 329C368 402 436 450 541 454L739 460L721 379C702 289 612 223 510 223ZM358 -16C494 -16 607 42 665 129L672 129L644 0L977 0L1126 698C1130 721 1134 758 1134 787C1134 982 948 1115 671 1115C399 1115 200 975 159 755L475 755C495 822 557 861 647 861C739 861 798 820 798 757C798 747 797 738 794 721L781 657L523 649C221 640 36 503 36 280C36 109 176 -16 358 -16ZM875 1246C1007 1246 1117 1360 1154 1534L970 1534C951 1459 920 1419 878 1419C799 1419 767 1546 622 1546C488 1546 379 1436 344 1262L528 1262C545 1332 579 1373 620 1373C699 1373 733 1246 875 1246Z" />
<glyph glyph-name="adieresis" unicode="&#xe4;" horiz-adv-x="1143" d="M510 223C426 223 368 265 368 329C368 402 436 450 541 454L739 460L721 379C702 289 612 223 510 223ZM358 -16C494 -16 607 42 665 129L672 129L644 0L977 0L1126 698C1130 721 1134 758 1134 787C1134 982 948 1115 671 1115C399 1115 200 975 159 755L475 755C495 822 557 861 647 861C739 861 798 820 798 757C798 747 797 738 794 721L781 657L523 649C221 640 36 503 36 280C36 109 176 -16 358 -16ZM544 1246C623 1246 683 1305 683 1379C683 1453 623 1513 544 1513C464 1513 404 1453 404 1379C404 1305 464 1246 544 1246ZM951 1246C1031 1246 1091 1305 1091 1379C1091 1453 1031 1513 951 1513C871 1513 811 1453 811 1379C811 1305 871 1246 951 1246Z" />
<glyph glyph-name="aring" unicode="&#xe5;" horiz-adv-x="1143" d="M510 223C426 223 368 265 368 329C368 402 436 450 541 454L739 460L721 379C702 289 612 223 510 223ZM358 -16C494 -16 607 42 665 129L672 129L644 0L977 0L1126 698C1130 721 1134 758 1134 787C1134 982 948 1115 671 1115C399 1115 200 975 159 755L475 755C495 822 557 861 647 861C739 861 798 820 798 757C798 747 797 738 794 721L781 657L523 649C221 640 36 503 36 280C36 109 176 -16 358 -16ZM758 1215C885 1215 990 1316 990 1442C990 1568 885 1665 760 1665C633 1665 527 1565 527 1438C527 1312 633 1215 758 1215ZM758 1351C709 1351 668 1389 668 1439C668 1491 709 1531 760 1531C809 1531 850 1492 850 1441C850 1390 809 1351 758 1351Z" />
<glyph glyph-name="ae" unicode="&#xe6;" horiz-adv-x="1847" d="M1242 -26C1513 -26 1722 121 1780 351L1460 351C1434 267 1365 220 1268 220C1140 220 1059 309 1059 451C1059 456 1059 467 1059 469L1810 469C1819 519 1826 597 1826 648C1826 922 1628 1115 1351 1115C1220 1115 1097 1064 1010 975L994 975C932 1058 792 1115 656 1115C397 1115 203 970 162 755L478 755C498 822 557 861 651 861C741 861 801 818 801 757C801 745 800 731 798 721L785 657L527 649C216 641 40 507 40 280C40 104 207 -26 442 -26C612 -26 773 45 857 163L873 163C928 55 1086 -26 1242 -26ZM1094 667C1125 788 1219 869 1338 869C1442 869 1515 799 1515 698C1515 686 1513 672 1511 667ZM514 218C429 218 373 262 373 323C373 396 440 444 545 448L746 455L728 373C708 284 619 218 514 218Z" />
<glyph glyph-name="ccedilla" unicode="&#xe7;" horiz-adv-x="1160" d="M1169 672C1169 678 1169 681 1169 715C1169 939 975 1115 692 1115C323 1115 88 850 88 444C88 198 231 24 470 -17L407 -103L381 -216L439 -216C528 -216 560 -228 560 -261C560 -295 520 -313 445 -313C403 -313 358 -307 328 -298L296 -448C325 -459 384 -466 443 -466C623 -466 752 -371 752 -239C752 -153 699 -100 602 -91L652 -22C902 4 1088 175 1122 415L793 415C766 313 695 251 597 251C497 251 432 332 432 458C432 683 532 838 676 838C778 838 839 770 840 672Z" />
<glyph glyph-name="egrave" unicode="&#xe8;" horiz-adv-x="1193" d="M436 667C466 785 558 869 675 869C789 869 856 793 856 698C856 687 855 673 853 667ZM589 -25C867 -25 1070 128 1126 351L805 351C779 275 705 224 605 224C478 224 401 313 401 436C401 447 402 458 404 469L1155 469C1167 522 1172 591 1172 647C1172 931 977 1115 689 1115C331 1115 90 838 90 469C90 163 281 -25 589 -25ZM844 1259L685 1575L378 1575L571 1259Z" />
<glyph glyph-name="eacute" unicode="&#xe9;" horiz-adv-x="1193" d="M436 667C466 785 558 869 675 869C789 869 856 793 856 698C856 687 855 673 853 667ZM589 -25C867 -25 1070 128 1126 351L805 351C779 275 705 224 605 224C478 224 401 313 401 436C401 447 402 458 404 469L1155 469C1167 522 1172 591 1172 647C1172 931 977 1115 689 1115C331 1115 90 838 90 469C90 163 281 -25 589 -25ZM913 1259L1241 1575L929 1575L636 1259Z" />
<glyph glyph-name="ecircumflex" unicode="&#xea;" horiz-adv-x="1193" d="M436 667C466 785 558 869 675 869C789 869 856 793 856 698C856 687 855 673 853 667ZM589 -25C867 -25 1070 128 1126 351L805 351C779 275 705 224 605 224C478 224 401 313 401 436C401 447 402 458 404 469L1155 469C1167 522 1172 591 1172 647C1172 931 977 1115 689 1115C331 1115 90 838 90 469C90 163 281 -25 589 -25ZM938 1572L666 1572L337 1245L603 1245L778 1428L785 1428L882 1245L1127 1245Z" />
<glyph glyph-name="edieresis" unicode="&#xeb;" horiz-adv-x="1193" d="M436 667C466 785 558 869 675 869C789 869 856 793 856 698C856 687 855 673 853 667ZM589 -25C867 -25 1070 128 1126 351L805 351C779 275 705 224 605 224C478 224 401 313 401 436C401 447 402 458 404 469L1155 469C1167 522 1172 591 1172 647C1172 931 977 1115 689 1115C331 1115 90 838 90 469C90 163 281 -25 589 -25ZM558 1246C637 1246 697 1305 697 1379C697 1453 637 1513 558 1513C478 1513 418 1453 418 1379C418 1305 478 1246 558 1246ZM965 1246C1045 1246 1105 1305 1105 1379C1105 1453 1045 1513 965 1513C885 1513 825 1453 825 1379C825 1305 885 1246 965 1246Z" />
<glyph glyph-name="igrave" unicode="&#xec;" horiz-adv-x="529" d="M9 0L354 0L586 1089L241 1089ZM571 1259L412 1575L105 1575L298 1259Z" />
<glyph glyph-name="iacute" unicode="&#xed;" horiz-adv-x="529" d="M9 0L354 0L586 1089L241 1089ZM640 1259L968 1575L656 1575L363 1259Z" />
<glyph glyph-name="icircumflex" unicode="&#xee;" horiz-adv-x="529" d="M9 0L354 0L586 1089L241 1089ZM665 1572L393 1572L64 1245L330 1245L505 1428L512 1428L609 1245L854 1245Z" />
<glyph glyph-name="idieresis" unicode="&#xef;" horiz-adv-x="529" d="M9 0L354 0L586 1089L241 1089ZM285 1246C364 1246 424 1305 424 1379C424 1453 364 1513 285 1513C205 1513 145 1453 145 1379C145 1305 205 1246 285 1246ZM692 1246C772 1246 832 1305 832 1379C832 1453 772 1513 692 1513C612 1513 552 1453 552 1379C552 1305 612 1246 692 1246Z" />
<glyph glyph-name="eth" unicode="&#xf0;" horiz-adv-x="1277" d="M628 251C512 251 440 339 440 467C440 651 560 806 697 806C812 806 889 722 889 596C889 415 764 251 628 251ZM1290 1341L1257 1499L1001 1418C985 1437 966 1456 935 1486L544 1486C610 1436 670 1383 718 1330L503 1263L533 1105L821 1193C878 1097 911 999 916 911L901 912C853 992 735 1051 600 1051C308 1051 85 800 85 462C85 184 298 -25 606 -25C891 -25 1122 161 1215 465C1242 554 1256 655 1256 760C1256 946 1206 1120 1103 1283Z" />
<glyph glyph-name="ntilde" unicode="&#xf1;" horiz-adv-x="1241" d="M6 0L348 0L485 642C511 763 600 843 707 843C804 843 872 783 872 695C872 672 869 648 863 617L733 0L1075 0L1216 671C1226 719 1231 764 1231 804C1231 989 1096 1115 899 1115C751 1115 617 1045 541 923L534 923L570 1089L238 1089ZM919 1246C1051 1246 1161 1360 1198 1534L1014 1534C995 1459 964 1419 922 1419C843 1419 811 1546 666 1546C532 1546 423 1436 388 1262L572 1262C589 1332 623 1373 664 1373C743 1373 777 1246 919 1246Z" />
<glyph glyph-name="ograve" unicode="&#xf2;" horiz-adv-x="1251" d="M613 242C506 242 437 334 437 472C437 687 549 847 703 847C809 847 878 755 878 617C878 405 764 242 613 242ZM718 1115C352 1115 88 841 88 465C88 171 293 -26 599 -26C965 -26 1229 248 1229 624C1229 917 1024 1115 718 1115ZM871 1259L712 1575L405 1575L598 1259Z" />
<glyph glyph-name="oacute" unicode="&#xf3;" horiz-adv-x="1251" d="M613 242C506 242 437 334 437 472C437 687 549 847 703 847C809 847 878 755 878 617C878 405 764 242 613 242ZM718 1115C352 1115 88 841 88 465C88 171 293 -26 599 -26C965 -26 1229 248 1229 624C1229 917 1024 1115 718 1115ZM940 1259L1268 1575L956 1575L663 1259Z" />
<glyph glyph-name="ocircumflex" unicode="&#xf4;" horiz-adv-x="1251" d="M613 242C506 242 437 334 437 472C437 687 549 847 703 847C809 847 878 755 878 617C878 405 764 242 613 242ZM718 1115C352 1115 88 841 88 465C88 171 293 -26 599 -26C965 -26 1229 248 1229 624C1229 917 1024 1115 718 1115ZM965 1572L693 1572L364 1245L630 1245L805 1428L812 1428L909 1245L1154 1245Z" />
<glyph glyph-name="otilde" unicode="&#xf5;" horiz-adv-x="1251" d="M613 242C506 242 437 334 437 472C437 687 549 847 703 847C809 847 878 755 878 617C878 405 764 242 613 242ZM718 1115C352 1115 88 841 88 465C88 171 293 -26 599 -26C965 -26 1229 248 1229 624C1229 917 1024 1115 718 1115ZM916 1246C1048 1246 1158 1360 1195 1534L1011 1534C992 1459 961 1419 919 1419C840 1419 808 1546 663 1546C529 1546 420 1436 385 1262L569 1262C586 1332 620 1373 661 1373C740 1373 774 1246 916 1246Z" />
<glyph glyph-name="odieresis" unicode="&#xf6;" horiz-adv-x="1251" d="M613 242C506 242 437 334 437 472C437 687 549 847 703 847C809 847 878 755 878 617C878 405 764 242 613 242ZM718 1115C352 1115 88 841 88 465C88 171 293 -26 599 -26C965 -26 1229 248 1229 624C1229 917 1024 1115 718 1115ZM585 1246C664 1246 724 1305 724 1379C724 1453 664 1513 585 1513C505 1513 445 1453 445 1379C445 1305 505 1246 585 1246ZM992 1246C1072 1246 1132 1305 1132 1379C1132 1453 1072 1513 992 1513C912 1513 852 1453 852 1379C852 1305 912 1246 992 1246Z" />
<glyph glyph-name="divide" unicode="&#xf7;" horiz-adv-x="1372" d="M1256 456L1310 711L198 711L143 456ZM816 813C930 813 1005 885 1005 990C1005 1096 930 1166 816 1166C703 1166 627 1096 627 990C627 885 703 813 816 813ZM644 2C757 2 833 73 833 178C833 284 757 354 644 354C531 354 454 284 454 178C454 73 531 2 644 2Z" />
<glyph glyph-name="oslash" unicode="&#xf8;" horiz-adv-x="1251" d="M889 653C890 643 890 633 890 623C890 396 770 224 610 224C567 224 530 238 500 264ZM425 433C424 444 424 455 424 466C424 696 543 865 706 865C749 865 787 850 816 824ZM1252 1016L1130 1138L1023 1031C941 1085 837 1115 718 1115C352 1115 88 841 88 465C88 354 117 256 170 178L65 73L187 -49L294 58C376 4 480 -26 599 -26C965 -26 1229 248 1229 624C1229 735 1200 832 1146 910Z" />
<glyph glyph-name="ugrave" unicode="&#xf9;" horiz-adv-x="1241" d="M1301 1089L956 1089L822 460C795 335 713 257 602 257C498 257 440 312 440 415C440 437 443 464 447 488L576 1089L232 1089L93 432C84 391 78 337 78 291C78 102 210 -26 418 -26C573 -26 703 54 766 172L773 172L736 0L1069 0ZM922 1259L763 1575L456 1575L649 1259Z" />
<glyph glyph-name="uacute" unicode="&#xfa;" horiz-adv-x="1241" d="M1301 1089L956 1089L822 460C795 335 713 257 602 257C498 257 440 312 440 415C440 437 443 464 447 488L576 1089L232 1089L93 432C84 391 78 337 78 291C78 102 210 -26 418 -26C573 -26 703 54 766 172L773 172L736 0L1069 0ZM991 1259L1319 1575L1007 1575L714 1259Z" />
<glyph glyph-name="ucircumflex" unicode="&#xfb;" horiz-adv-x="1241" d="M1301 1089L956 1089L822 460C795 335 713 257 602 257C498 257 440 312 440 415C440 437 443 464 447 488L576 1089L232 1089L93 432C84 391 78 337 78 291C78 102 210 -26 418 -26C573 -26 703 54 766 172L773 172L736 0L1069 0ZM1016 1572L744 1572L415 1245L681 1245L856 1428L863 1428L960 1245L1205 1245Z" />
<glyph glyph-name="udieresis" unicode="&#xfc;" horiz-adv-x="1241" d="M1301 1089L956 1089L822 460C795 335 713 257 602 257C498 257 440 312 440 415C440 437 443 464 447 488L576 1089L232 1089L93 432C84 391 78 337 78 291C78 102 210 -26 418 -26C573 -26 703 54 766 172L773 172L736 0L1069 0ZM636 1246C715 1246 775 1305 775 1379C775 1453 715 1513 636 1513C556 1513 496 1453 496 1379C496 1305 556 1246 636 1246ZM1043 1246C1123 1246 1183 1305 1183 1379C1183 1453 1123 1513 1043 1513C963 1513 903 1453 903 1379C903 1305 963 1246 1043 1246Z" />
<glyph glyph-name="yacute" unicode="&#xfd;" horiz-adv-x="1152" d="M81 -399C373 -399 554 -294 703 -13L1290 1089L923 1089L546 271L539 271L510 1089L158 1089L283 17C284 13 276 -11 276 -17C261 -98 199 -131 96 -131C86 -131 -2 -130 -8 -128L-63 -395C-57 -397 70 -399 81 -399ZM942 1260L1270 1576L958 1576L665 1260Z" />
<glyph glyph-name="thorn" unicode="&#xfe;" horiz-adv-x="1274" d="M640 258C531 258 460 343 460 468C460 666 577 840 727 840C836 840 905 756 905 626C905 420 787 258 640 258ZM395 200L411 200C448 68 564 -16 717 -16C1027 -16 1257 279 1257 680C1257 940 1114 1105 887 1105C755 1105 636 1040 565 930L550 930L659 1445L316 1445L-62 -330L282 -330Z" />
<glyph glyph-name="ydieresis" unicode="&#xff;" horiz-adv-x="1152" d="M81 -399C373 -399 554 -294 703 -13L1290 1089L923 1089L546 271L539 271L510 1089L158 1089L283 17C284 13 276 -11 276 -17C261 -98 199 -131 96 -131C86 -131 -2 -130 -8 -128L-63 -395C-57 -397 70 -399 81 -399ZM587 1247C666 1247 726 1306 726 1380C726 1454 666 1514 587 1514C507 1514 447 1454 447 1380C447 1306 507 1247 587 1247ZM994 1247C1074 1247 1134 1306 1134 1380C1134 1454 1074 1514 994 1514C914 1514 854 1454 854 1380C854 1306 914 1247 994 1247Z" />
<glyph glyph-name="Amacron" unicode="&#x0100;" horiz-adv-x="1446" d="M890 1121L898 1121L938 581L614 581ZM977 0L1350 0L1184 1443L735 1443L-69 0L319 0L482 317L953 317ZM1391 1778L670 1778L635 1613L1356 1613Z" />
<glyph glyph-name="amacron" unicode="&#x0101;" horiz-adv-x="1143" d="M510 223C426 223 368 265 368 329C368 402 436 450 541 454L739 460L721 379C702 289 612 223 510 223ZM358 -16C494 -16 607 42 665 129L672 129L644 0L977 0L1126 698C1130 721 1134 758 1134 787C1134 982 948 1115 671 1115C399 1115 200 975 159 755L475 755C495 822 557 861 647 861C739 861 798 820 798 757C798 747 797 738 794 721L781 657L523 649C221 640 36 503 36 280C36 109 176 -16 358 -16ZM1102 1442L429 1442L394 1277L1067 1277Z" />
<glyph glyph-name="Abreve" unicode="&#x0102;" horiz-adv-x="1446" d="M890 1121L898 1121L938 581L614 581ZM977 0L1350 0L1184 1443L735 1443L-69 0L319 0L482 317L953 317ZM671 1865C667 1844 664 1822 664 1800C664 1654 774 1537 981 1537C1221 1537 1381 1680 1426 1865L1212 1865C1189 1769 1114 1705 1011 1705C921 1705 873 1753 873 1829C873 1841 874 1853 877 1865Z" />
<glyph glyph-name="abreve" unicode="&#x0103;" horiz-adv-x="1143" d="M510 223C426 223 368 265 368 329C368 402 436 450 541 454L739 460L721 379C702 289 612 223 510 223ZM358 -16C494 -16 607 42 665 129L672 129L644 0L977 0L1126 698C1130 721 1134 758 1134 787C1134 982 948 1115 671 1115C399 1115 200 975 159 755L475 755C495 822 557 861 647 861C739 861 798 820 798 757C798 747 797 738 794 721L781 657L523 649C221 640 36 503 36 280C36 109 176 -16 358 -16ZM413 1571C409 1549 407 1530 407 1511C407 1353 540 1242 723 1242C958 1242 1122 1371 1168 1571L955 1571C931 1471 852 1410 754 1410C667 1410 616 1456 616 1535C616 1547 618 1559 620 1571Z" />
<glyph glyph-name="Aogonek" unicode="&#x0104;" horiz-adv-x="1446" d="M1178 -278C1165 -283 1135 -288 1105 -288C1037 -288 1000 -260 1000 -214C1000 -132 1109 -50 1322 11L1347 19L1183 1443L734 1443L-69 0L319 0L481 317L952 317L977 -3C842 -65 737 -178 737 -284C737 -403 839 -478 980 -478C1047 -478 1104 -469 1141 -453ZM889 1121L897 1121L937 581L613 581Z" />
<glyph glyph-name="aogonek" unicode="&#x0105;" horiz-adv-x="1143" d="M512 225C428 225 371 267 371 329C371 402 438 450 542 454L741 460L723 379C704 289 616 225 512 225ZM841 -444L877 -270C863 -275 835 -280 804 -280C747 -280 701 -252 701 -207C701 -132 822 -39 949 -3L981 6L1128 698C1133 720 1136 757 1136 787C1136 981 949 1112 672 1112C402 1112 203 975 162 755L477 755C498 822 560 859 647 859C740 859 800 819 800 757C800 745 799 737 796 721L783 657L526 649C221 640 38 502 38 280C38 111 177 -14 360 -14C497 -14 609 42 667 129L674 129L643 -13C524 -80 438 -166 438 -280C438 -389 530 -469 679 -469C754 -469 810 -458 841 -444Z" />
<glyph glyph-name="Cacute" unicode="&#x0106;" horiz-adv-x="1507" d="M1186 889L1543 889C1545 903 1547 922 1546 945C1542 1252 1296 1468 956 1468C462 1468 138 1115 138 586C138 215 384 -25 766 -25C1131 -25 1413 194 1470 521L1113 521C1065 371 942 278 789 278C619 278 515 403 515 607C515 934 683 1168 922 1168C1069 1168 1181 1067 1186 926C1186 901 1187 895 1186 889ZM1120 1556L1457 1870L1131 1870L836 1556Z" />
<glyph glyph-name="cacute" unicode="&#x0107;" horiz-adv-x="1160" d="M692 1115C323 1115 88 850 88 444C88 161 277 -26 583 -26C868 -26 1085 154 1122 415L793 415C766 313 695 251 597 251C497 251 432 332 432 458C432 683 532 838 676 838C778 838 839 770 840 672L1169 672C1169 678 1169 681 1169 715C1169 939 975 1115 692 1115ZM928 1260L1256 1576L944 1576L651 1260Z" />
<glyph glyph-name="Ccircumflex" unicode="&#x0108;" horiz-adv-x="1507" d="M1186 889L1543 889C1545 903 1547 922 1546 945C1542 1252 1296 1468 956 1468C462 1468 138 1115 138 586C138 215 384 -25 766 -25C1131 -25 1413 194 1470 521L1113 521C1065 371 942 278 789 278C619 278 515 403 515 607C515 934 683 1168 922 1168C1069 1168 1181 1067 1186 926C1186 901 1187 895 1186 889ZM1175 1869L904 1869L572 1542L825 1542L1010 1734L1017 1734L1120 1542L1367 1542Z" />
<glyph glyph-name="ccircumflex" unicode="&#x0109;" horiz-adv-x="1160" d="M692 1115C323 1115 88 850 88 444C88 161 277 -26 583 -26C868 -26 1085 154 1122 415L793 415C766 313 695 251 597 251C497 251 432 332 432 458C432 683 532 838 676 838C778 838 839 770 840 672L1169 672C1169 678 1169 681 1169 715C1169 939 975 1115 692 1115ZM953 1573L681 1573L352 1246L618 1246L793 1429L800 1429L897 1246L1142 1246Z" />
<glyph glyph-name="Cdotaccent" unicode="&#x010a;" horiz-adv-x="1507" d="M1186 889L1543 889C1545 903 1547 922 1546 945C1542 1252 1296 1468 956 1468C462 1468 138 1115 138 586C138 215 384 -25 766 -25C1131 -25 1413 194 1470 521L1113 521C1065 371 942 278 789 278C619 278 515 403 515 607C515 934 683 1168 922 1168C1069 1168 1181 1067 1186 926C1186 901 1187 895 1186 889ZM1019 1605C1111 1605 1184 1678 1184 1766C1184 1855 1111 1928 1019 1928C927 1928 855 1855 855 1766C855 1678 927 1605 1019 1605Z" />
<glyph glyph-name="cdotaccent" unicode="&#x010b;" horiz-adv-x="1160" d="M692 1115C323 1115 88 850 88 444C88 161 277 -26 583 -26C868 -26 1085 154 1122 415L793 415C766 313 695 251 597 251C497 251 432 332 432 458C432 683 532 838 676 838C778 838 839 770 840 672L1169 672C1169 678 1169 681 1169 715C1169 939 975 1115 692 1115ZM769 1252C862 1252 934 1325 934 1413C934 1502 862 1575 769 1575C677 1575 605 1502 605 1413C605 1325 677 1252 769 1252Z" />
<glyph glyph-name="Ccaron" unicode="&#x010c;" horiz-adv-x="1507" d="M1186 889L1543 889C1545 903 1547 922 1546 945C1542 1252 1296 1468 956 1468C462 1468 138 1115 138 586C138 215 384 -25 766 -25C1131 -25 1413 194 1470 521L1113 521C1065 371 942 278 789 278C619 278 515 403 515 607C515 934 683 1168 922 1168C1069 1168 1181 1067 1186 926C1186 901 1187 895 1186 889ZM838 1542L1109 1542L1441 1869L1188 1869L1004 1677L996 1677L893 1869L646 1869Z" />
<glyph glyph-name="ccaron" unicode="&#x010d;" horiz-adv-x="1160" d="M692 1115C323 1115 88 850 88 444C88 161 277 -26 583 -26C868 -26 1085 154 1122 415L793 415C766 313 695 251 597 251C497 251 432 332 432 458C432 683 532 838 676 838C778 838 839 770 840 672L1169 672C1169 678 1169 681 1169 715C1169 939 975 1115 692 1115ZM885 1246L1214 1573L947 1573L772 1389L765 1389L668 1573L424 1573L614 1246Z" />
<glyph glyph-name="Dcaron" unicode="&#x010e;" horiz-adv-x="1473" d="M340 1443L33 0L715 0C1172 0 1479 367 1479 883C1479 1236 1243 1443 897 1443ZM647 1149L813 1149C998 1149 1102 1030 1102 837C1102 504 920 294 665 294L466 294ZM707 1542L978 1542L1310 1869L1057 1869L873 1677L865 1677L762 1869L515 1869Z" />
<glyph glyph-name="dcaron" unicode="&#x010f;" horiz-adv-x="1584" d="M1522 1443L1414 932L1650 932L1808 1443ZM454 -16C600 -16 716 45 793 158L800 158L766 0L1103 0L1410 1443L1066 1443L951 903L943 903C907 1027 788 1105 627 1105C315 1105 82 808 82 409C82 148 225 -16 454 -16ZM614 250C506 250 436 334 436 463C436 672 553 831 701 831C810 831 881 746 881 621C881 418 760 250 614 250Z" />
<glyph glyph-name="Dcroat" unicode="&#x0110;" horiz-adv-x="1473" d="M466 294L527 580L748 580L811 875L589 875L647 1149L813 1149C998 1149 1102 1030 1102 837C1102 504 920 294 665 294ZM340 1443L219 875L103 875L40 580L156 580L33 0L715 0C1172 0 1479 367 1479 883C1479 1236 1243 1443 897 1443Z" />
<glyph glyph-name="dcroat" unicode="&#x0111;" horiz-adv-x="1282" d="M614 250C506 250 436 334 436 463C436 672 553 831 701 831C810 831 881 746 881 621C881 418 760 250 614 250ZM1487 1354L1391 1354L1410 1443L1066 1443L1047 1354L821 1354L783 1176L1009 1176L951 903L943 903C907 1027 788 1105 627 1105C315 1105 82 808 82 409C82 148 225 -16 454 -16C600 -16 716 45 793 158L800 158L766 0L1103 0L1353 1176L1450 1176Z" />
<glyph glyph-name="Emacron" unicode="&#x0112;" horiz-adv-x="1191" d="M1084 295L462 295L525 590L1109 590L1167 860L583 860L644 1148L1265 1148L1328 1443L340 1443L33 0L1022 0ZM1246 1778L525 1778L490 1613L1211 1613Z" />
<glyph glyph-name="emacron" unicode="&#x0113;" horiz-adv-x="1193" d="M436 667C466 785 558 869 675 869C789 869 856 793 856 698C856 687 855 673 853 667ZM589 -25C867 -25 1070 128 1126 351L805 351C779 275 705 224 605 224C478 224 401 313 401 436C401 447 402 458 404 469L1155 469C1167 522 1172 591 1172 647C1172 931 977 1115 689 1115C331 1115 90 838 90 469C90 163 281 -25 589 -25ZM1116 1442L443 1442L408 1277L1081 1277Z" />
<glyph glyph-name="Ebreve" unicode="&#x0114;" horiz-adv-x="1191" d="M1084 295L462 295L525 590L1109 590L1167 860L583 860L644 1148L1265 1148L1328 1443L340 1443L33 0L1022 0ZM526 1865C522 1844 519 1822 519 1800C519 1654 629 1537 836 1537C1076 1537 1236 1680 1281 1865L1067 1865C1044 1769 969 1705 866 1705C776 1705 728 1753 728 1829C728 1841 729 1853 732 1865Z" />
<glyph glyph-name="ebreve" unicode="&#x0115;" horiz-adv-x="1193" d="M436 667C466 785 558 869 675 869C789 869 856 793 856 698C856 687 855 673 853 667ZM589 -25C867 -25 1070 128 1126 351L805 351C779 275 705 224 605 224C478 224 401 313 401 436C401 447 402 458 404 469L1155 469C1167 522 1172 591 1172 647C1172 931 977 1115 689 1115C331 1115 90 838 90 469C90 163 281 -25 589 -25ZM427 1571C423 1549 421 1530 421 1511C421 1353 554 1242 737 1242C972 1242 1136 1371 1182 1571L969 1571C945 1471 866 1410 768 1410C681 1410 630 1456 630 1535C630 1547 632 1559 634 1571Z" />
<glyph glyph-name="Edotaccent" unicode="&#x0116;" horiz-adv-x="1191" d="M1084 295L462 295L525 590L1109 590L1167 860L583 860L644 1148L1265 1148L1328 1443L340 1443L33 0L1022 0ZM882 1605C974 1605 1047 1678 1047 1766C1047 1855 974 1928 882 1928C790 1928 718 1855 718 1766C718 1678 790 1605 882 1605Z" />
<glyph glyph-name="edotaccent" unicode="&#x0117;" horiz-adv-x="1193" d="M436 667C466 785 558 869 675 869C789 869 856 793 856 698C856 687 855 673 853 667ZM589 -25C867 -25 1070 128 1126 351L805 351C779 275 705 224 605 224C478 224 401 313 401 436C401 447 402 458 404 469L1155 469C1167 522 1172 591 1172 647C1172 931 977 1115 689 1115C331 1115 90 838 90 469C90 163 281 -25 589 -25ZM754 1251C847 1251 919 1324 919 1412C919 1501 847 1574 754 1574C662 1574 590 1501 590 1412C590 1324 662 1251 754 1251Z" />
<glyph glyph-name="Eogonek" unicode="&#x0118;" horiz-adv-x="1191" d="M33 0L708 0L707 -4C572 -65 479 -180 479 -284C479 -400 576 -478 722 -478C788 -478 846 -469 883 -453L920 -278C906 -284 873 -288 846 -288C780 -288 742 -261 742 -214C742 -139 837 -57 979 -9L1023 3L1084 295L462 295L525 590L1109 590L1167 860L583 860L644 1148L1265 1148L1328 1443L340 1443Z" />
<glyph glyph-name="eogonek" unicode="&#x0119;" horiz-adv-x="1193" d="M647 -469C722 -469 778 -459 808 -444L845 -270C832 -275 803 -280 772 -280C715 -280 669 -243 669 -198C669 -116 763 -40 928 65C1039 136 1103 259 1126 351L805 351C779 275 705 224 605 224C478 224 401 313 401 436C401 447 402 458 404 469L1155 469C1167 522 1172 591 1172 647C1172 931 977 1115 689 1115C331 1115 90 838 90 469C90 163 281 -25 589 -25L601 -25L601 -31C499 -78 406 -168 406 -280C406 -389 498 -469 647 -469ZM436 667C466 785 558 869 675 869C789 869 856 793 856 698C856 687 855 673 853 667Z" />
<glyph glyph-name="Ecaron" unicode="&#x011a;" horiz-adv-x="1191" d="M1084 295L462 295L525 590L1109 590L1167 860L583 860L644 1148L1265 1148L1328 1443L340 1443L33 0L1022 0ZM700 1542L971 1542L1303 1869L1050 1869L866 1677L858 1677L755 1869L508 1869Z" />
<glyph glyph-name="ecaron" unicode="&#x011b;" horiz-adv-x="1193" d="M436 667C466 785 558 869 675 869C789 869 856 793 856 698C856 687 855 673 853 667ZM589 -25C867 -25 1070 128 1126 351L805 351C779 275 705 224 605 224C478 224 401 313 401 436C401 447 402 458 404 469L1155 469C1167 522 1172 591 1172 647C1172 931 977 1115 689 1115C331 1115 90 838 90 469C90 163 281 -25 589 -25ZM870 1245L1199 1572L932 1572L757 1388L750 1388L653 1572L409 1572L599 1245Z" />
<glyph glyph-name="Gcircumflex" unicode="&#x011c;" horiz-adv-x="1519" d="M1525 777L904 777L850 525L1123 525L1120 512C1087 371 964 270 809 270C616 270 511 404 511 613C511 914 666 1173 928 1173C1081 1173 1183 1083 1192 956L1545 956C1546 963 1547 975 1547 984C1545 1244 1299 1468 937 1468C449 1468 138 1078 138 598C138 224 388 -25 771 -25C1160 -25 1421 199 1494 607ZM1154 1869L883 1869L551 1542L804 1542L989 1734L996 1734L1099 1542L1346 1542Z" />
<glyph glyph-name="gcircumflex" unicode="&#x011d;" horiz-adv-x="1269" d="M502 -411C821 -411 1040 -269 1094 -17L1329 1089L993 1089L951 896L936 896C899 1022 779 1105 625 1105C315 1105 84 793 84 428C84 182 233 19 456 19C594 19 712 77 776 175L792 175L753 -1C726 -121 648 -181 519 -181C406 -181 332 -136 319 -62L-16 -62C-14 -279 183 -411 502 -411ZM611 255C501 255 433 339 433 465C433 669 547 831 697 831C804 831 878 747 878 621C878 425 762 255 611 255ZM1020 1574L748 1574L419 1247L685 1247L860 1430L867 1430L964 1247L1209 1247Z" />
<glyph glyph-name="Gbreve" unicode="&#x011e;" horiz-adv-x="1519" d="M1525 777L904 777L850 525L1123 525L1120 512C1087 371 964 270 809 270C616 270 511 404 511 613C511 914 666 1173 928 1173C1081 1173 1183 1083 1192 956L1545 956C1546 963 1547 975 1547 984C1545 1244 1299 1468 937 1468C449 1468 138 1078 138 598C138 224 388 -25 771 -25C1160 -25 1421 199 1494 607ZM643 1865C639 1844 636 1822 636 1800C636 1654 746 1537 953 1537C1193 1537 1353 1680 1398 1865L1184 1865C1161 1769 1086 1705 983 1705C893 1705 845 1753 845 1829C845 1841 846 1853 849 1865Z" />
<glyph glyph-name="gbreve" unicode="&#x011f;" horiz-adv-x="1269" d="M502 -411C821 -411 1040 -269 1094 -17L1329 1089L993 1089L951 896L936 896C899 1022 779 1105 625 1105C315 1105 84 793 84 428C84 182 233 19 456 19C594 19 712 77 776 175L792 175L753 -1C726 -121 648 -181 519 -181C406 -181 332 -136 319 -62L-16 -62C-14 -279 183 -411 502 -411ZM611 255C501 255 433 339 433 465C433 669 547 831 697 831C804 831 878 747 878 621C878 425 762 255 611 255ZM509 1573C505 1551 503 1532 503 1513C503 1355 636 1244 819 1244C1054 1244 1218 1373 1264 1573L1051 1573C1027 1473 948 1412 850 1412C763 1412 712 1458 712 1537C712 1549 714 1561 716 1573Z" />
<glyph glyph-name="Gdotaccent" unicode="&#x0120;" horiz-adv-x="1519" d="M1525 777L904 777L850 525L1123 525L1120 512C1087 371 964 270 809 270C616 270 511 404 511 613C511 914 666 1173 928 1173C1081 1173 1183 1083 1192 956L1545 956C1546 963 1547 975 1547 984C1545 1244 1299 1468 937 1468C449 1468 138 1078 138 598C138 224 388 -25 771 -25C1160 -25 1421 199 1494 607ZM998 1605C1090 1605 1163 1678 1163 1766C1163 1855 1090 1928 998 1928C906 1928 834 1855 834 1766C834 1678 906 1605 998 1605Z" />
<glyph glyph-name="gdotaccent" unicode="&#x0121;" horiz-adv-x="1269" d="M502 -411C821 -411 1040 -269 1094 -17L1329 1089L993 1089L951 896L936 896C899 1022 779 1105 625 1105C315 1105 84 793 84 428C84 182 233 19 456 19C594 19 712 77 776 175L792 175L753 -1C726 -121 648 -181 519 -181C406 -181 332 -136 319 -62L-16 -62C-14 -279 183 -411 502 -411ZM611 255C501 255 433 339 433 465C433 669 547 831 697 831C804 831 878 747 878 621C878 425 762 255 611 255ZM836 1253C929 1253 1001 1326 1001 1414C1001 1503 929 1576 836 1576C744 1576 672 1503 672 1414C672 1326 744 1253 836 1253Z" />
<glyph glyph-name="Gcommaaccent" unicode="&#x0122;" horiz-adv-x="1519" d="M1525 777L904 777L850 525L1123 525L1120 512C1087 371 964 270 809 270C616 270 511 404 511 613C511 914 666 1173 928 1173C1081 1173 1183 1083 1192 956L1545 956C1546 963 1547 975 1547 984C1545 1244 1299 1468 937 1468C449 1468 138 1078 138 598C138 224 388 -25 771 -25C1160 -25 1421 199 1494 607ZM635 -475L892 -145L579 -145L368 -475Z" />
<glyph glyph-name="gcommaaccent" unicode="&#x0123;" horiz-adv-x="1269" d="M502 -411C821 -411 1040 -269 1094 -17L1329 1089L993 1089L951 896L936 896C899 1022 779 1105 625 1105C315 1105 84 793 84 428C84 182 233 19 456 19C594 19 712 77 776 175L792 175L753 -1C726 -121 648 -181 519 -181C406 -181 332 -136 319 -62L-16 -62C-14 -279 183 -411 502 -411ZM611 255C501 255 433 339 433 465C433 669 547 831 697 831C804 831 878 747 878 621C878 425 762 255 611 255ZM1097 1565L840 1235L1153 1235L1364 1565Z" />
<glyph glyph-name="Hcircumflex" unicode="&#x0124;" horiz-adv-x="1540" d="M1341 0L1648 1443L1273 1443L1152 875L593 875L715 1443L340 1443L33 0L408 0L532 584L1091 584L966 0ZM1216 1869L945 1869L613 1542L866 1542L1051 1734L1058 1734L1161 1542L1408 1542Z" />
<glyph glyph-name="hcircumflex" unicode="&#x0125;" horiz-adv-x="1257" d="M13 0L356 0L492 642C517 761 609 843 720 843C820 843 888 780 888 693C888 670 885 646 879 617L748 0L1090 0L1232 671C1242 718 1247 762 1247 803C1247 981 1114 1110 912 1110C757 1110 634 1037 558 923L551 923L663 1443L320 1443ZM715 1869L444 1869L112 1542L365 1542L550 1734L557 1734L660 1542L907 1542Z" />
<glyph glyph-name="Hbar" unicode="&#x0126;" horiz-adv-x="1540" d="M1152 875L593 875L629 1043L1188 1043ZM1722 1286L1615 1286L1648 1443L1273 1443L1240 1286L681 1286L715 1443L340 1443L307 1286L198 1286L146 1043L255 1043L33 0L408 0L532 584L1091 584L966 0L1341 0L1563 1043L1670 1043Z" />
<glyph glyph-name="hbar" unicode="&#x0127;" horiz-adv-x="1257" d="M551 923L606 1179L814 1179L851 1351L643 1351L663 1443L320 1443L300 1351L204 1351L168 1179L264 1179L13 0L356 0L492 642C517 761 609 843 720 843C820 843 888 780 888 693C888 670 885 646 879 617L748 0L1090 0L1232 671C1242 718 1247 762 1247 803C1247 981 1114 1110 912 1110C757 1110 634 1037 558 923Z" />
<glyph glyph-name="Itilde" unicode="&#x0128;" horiz-adv-x="598" d="M400 0L707 1443L340 1443L33 0ZM715 1546C847 1546 957 1660 994 1834L810 1834C791 1759 760 1719 718 1719C639 1719 607 1846 462 1846C328 1846 219 1736 184 1562L368 1562C385 1632 419 1673 460 1673C539 1673 573 1546 715 1546Z" />
<glyph glyph-name="itilde" unicode="&#x0129;" horiz-adv-x="529" d="M9 0L354 0L586 1089L241 1089ZM616 1246C748 1246 858 1360 895 1534L711 1534C692 1459 661 1419 619 1419C540 1419 508 1546 363 1546C229 1546 120 1436 85 1262L269 1262C286 1332 320 1373 361 1373C440 1373 474 1246 616 1246Z" />
<glyph glyph-name="Imacron" unicode="&#x012a;" horiz-adv-x="598" d="M400 0L707 1443L340 1443L33 0ZM956 1778L235 1778L200 1613L921 1613Z" />
<glyph glyph-name="imacron" unicode="&#x012b;" horiz-adv-x="529" d="M9 0L354 0L586 1089L241 1089ZM756 1442L184 1442L155 1277L727 1277Z" />
<glyph glyph-name="Ibreve" unicode="&#x012c;" horiz-adv-x="598" d="M400 0L707 1443L340 1443L33 0ZM236 1865C232 1844 229 1822 229 1800C229 1654 339 1537 546 1537C786 1537 946 1680 991 1865L777 1865C754 1769 679 1705 576 1705C486 1705 438 1753 438 1829C438 1841 439 1853 442 1865Z" />
<glyph glyph-name="ibreve" unicode="&#x012d;" horiz-adv-x="529" d="M9 0L354 0L586 1089L241 1089ZM154 1571C150 1549 148 1530 148 1511C148 1353 281 1242 464 1242C699 1242 863 1371 909 1571L696 1571C672 1471 593 1410 495 1410C408 1410 357 1456 357 1535C357 1547 359 1559 361 1571Z" />
<glyph glyph-name="Iogonek" unicode="&#x012e;" horiz-adv-x="598" d="M147 -478C214 -478 272 -469 309 -453L346 -278C332 -284 300 -288 272 -288C207 -288 168 -260 168 -212C168 -141 248 -58 365 -9L401 4L707 1443L340 1443L32 -4L81 -7C-32 -95 -96 -193 -96 -283C-96 -399 3 -478 147 -478Z" />
<glyph glyph-name="iogonek" unicode="&#x012f;" horiz-adv-x="524" d="M232 -444L269 -270C255 -275 227 -280 196 -280C139 -280 93 -252 93 -207C93 -133 216 -41 317 -3L353 9L583 1089L238 1089L1 -24C-88 -90 -170 -173 -170 -280C-170 -389 -78 -469 71 -469C146 -469 202 -458 232 -444ZM466 1180C568 1180 646 1255 646 1352C646 1450 568 1525 466 1525C364 1525 286 1450 286 1352C286 1255 364 1180 466 1180Z" />
<glyph glyph-name="Idotaccent" unicode="&#x0130;" horiz-adv-x="598" d="M400 0L707 1443L340 1443L33 0ZM591 1605C683 1605 756 1678 756 1766C756 1855 683 1928 591 1928C499 1928 427 1855 427 1766C427 1678 499 1605 591 1605Z" />
<glyph glyph-name="dotlessi" unicode="&#x0131;" horiz-adv-x="529" d="M9 0L354 0L586 1089L241 1089Z" />
<glyph glyph-name="IJ" unicode="&#x0132;" horiz-adv-x="1803" d="M400 0L707 1443L340 1443L33 0ZM642 409C642 150 843 -25 1147 -25C1443 -25 1633 136 1695 430L1911 1443L1543 1443L1337 476C1311 352 1251 290 1153 290C1054 290 996 354 996 453L996 469L645 469C643 452 642 426 642 409Z" />
<glyph glyph-name="ij" unicode="&#x0133;" horiz-adv-x="1054" d="M8 0L353 0L585 1089L240 1089ZM468 1180C570 1180 648 1255 648 1352C648 1450 570 1525 468 1525C366 1525 288 1450 288 1352C288 1255 366 1180 468 1180ZM998 1180C1100 1180 1178 1255 1178 1352C1178 1450 1100 1525 998 1525C896 1525 818 1450 818 1352C818 1255 896 1180 998 1180ZM1112 1089L768 1089L529 -35C515 -103 474 -138 401 -138C374 -138 352 -135 335 -132L281 -379C319 -387 386 -393 432 -393C658 -393 821 -275 865 -70Z" />
<glyph glyph-name="Jcircumflex" unicode="&#x0134;" horiz-adv-x="1205" d="M44 409C44 150 245 -25 549 -25C845 -25 1035 136 1097 430L1313 1443L945 1443L739 476C713 352 653 290 555 290C456 290 398 354 398 453L398 469L47 469C45 452 44 426 44 409ZM1353 1869L1082 1869L750 1542L1003 1542L1188 1734L1195 1734L1298 1542L1545 1542Z" />
<glyph glyph-name="jcircumflex" unicode="&#x0135;" horiz-adv-x="526" d="M584 1089L240 1089L1 -35C-13 -103 -54 -138 -127 -138C-154 -138 -176 -135 -193 -132L-247 -379C-209 -387 -142 -393 -96 -393C130 -393 293 -275 337 -70ZM664 1572L392 1572L63 1245L329 1245L504 1428L511 1428L608 1245L853 1245Z" />
<glyph glyph-name="Kcommaaccent" unicode="&#x0136;" horiz-adv-x="1410" d="M400 0L484 398L653 566L907 0L1311 0L957 774L1617 1443L1194 1443L583 827L576 827L707 1443L340 1443L33 0ZM480 -475L737 -145L424 -145L213 -475Z" />
<glyph glyph-name="kcommaaccent" unicode="&#x0137;" horiz-adv-x="1176" d="M357 0L428 332L533 429L733 0L1106 0L809 616L1306 1089L908 1089L511 690L504 690L664 1443L321 1443L13 0ZM375 -475L632 -145L319 -145L108 -475Z" />
<glyph glyph-name="Lacute" unicode="&#x0139;" horiz-adv-x="1136" d="M1077 303L465 303L707 1443L340 1443L33 0L1012 0ZM692 1556L1029 1870L703 1870L408 1556Z" />
<glyph glyph-name="lacute" unicode="&#x013a;" horiz-adv-x="540" d="M15 0L359 0L666 1443L322 1443ZM663 1556L1000 1870L674 1870L379 1556Z" />
<glyph glyph-name="Lcommaaccent" unicode="&#x013b;" horiz-adv-x="1136" d="M1077 303L465 303L707 1443L340 1443L33 0L1012 0ZM372 -475L629 -145L316 -145L105 -475Z" />
<glyph glyph-name="lcommaaccent" unicode="&#x013c;" horiz-adv-x="540" d="M15 0L359 0L666 1443L322 1443ZM24 -475L281 -145L-32 -145L-243 -475Z" />
<glyph glyph-name="Lcaron" unicode="&#x013d;" horiz-adv-x="1136" d="M953 1443L844 932L1080 932L1239 1443ZM1077 303L465 303L707 1443L340 1443L33 0L1012 0Z" />
<glyph glyph-name="lcaron" unicode="&#x013e;" horiz-adv-x="856" d="M793 1443L685 932L921 932L1079 1443ZM15 0L359 0L666 1443L322 1443Z" />
<glyph glyph-name="Lslash" unicode="&#x0141;" horiz-adv-x="1136" d="M465 303L537 641L814 770L879 1071L601 942L707 1443L340 1443L193 752L64 692L0 390L129 450L33 0L1012 0L1077 303Z" />
<glyph glyph-name="lslash" unicode="&#x0142;" horiz-adv-x="540" d="M690 1003L559 942L666 1443L322 1443L177 764L56 707L0 445L122 502L15 0L359 0L504 680L634 741Z" />
<glyph glyph-name="Nacute" unicode="&#x0143;" horiz-adv-x="1491" d="M385 0L572 882L579 882L1005 0L1293 0L1600 1443L1247 1443L1061 561L1054 561L628 1443L340 1443L33 0ZM1106 1556L1443 1870L1117 1870L822 1556Z" />
<glyph glyph-name="nacute" unicode="&#x0144;" horiz-adv-x="1241" d="M6 0L348 0L485 642C511 763 600 843 707 843C804 843 872 783 872 695C872 672 869 648 863 617L733 0L1075 0L1216 671C1226 719 1231 764 1231 804C1231 989 1096 1115 899 1115C751 1115 617 1045 541 923L534 923L570 1089L238 1089ZM943 1259L1271 1575L959 1575L666 1259Z" />
<glyph glyph-name="Ncommaaccent" unicode="&#x0145;" horiz-adv-x="1491" d="M385 0L572 882L579 882L1005 0L1293 0L1600 1443L1247 1443L1061 561L1054 561L628 1443L340 1443L33 0ZM527 -475L784 -145L471 -145L260 -475Z" />
<glyph glyph-name="ncommaaccent" unicode="&#x0146;" horiz-adv-x="1241" d="M6 0L348 0L485 642C511 763 600 843 707 843C804 843 872 783 872 695C872 672 869 648 863 617L733 0L1075 0L1216 671C1226 719 1231 764 1231 804C1231 989 1096 1115 899 1115C751 1115 617 1045 541 923L534 923L570 1089L238 1089ZM378 -475L635 -145L322 -145L111 -475Z" />
<glyph glyph-name="Ncaron" unicode="&#x0147;" horiz-adv-x="1491" d="M385 0L572 882L579 882L1005 0L1293 0L1600 1443L1247 1443L1061 561L1054 561L628 1443L340 1443L33 0ZM824 1542L1095 1542L1427 1869L1174 1869L990 1677L982 1677L879 1869L632 1869Z" />
<glyph glyph-name="ncaron" unicode="&#x0148;" horiz-adv-x="1241" d="M6 0L348 0L485 642C511 763 600 843 707 843C804 843 872 783 872 695C872 672 869 648 863 617L733 0L1075 0L1216 671C1226 719 1231 764 1231 804C1231 989 1096 1115 899 1115C751 1115 617 1045 541 923L534 923L570 1089L238 1089ZM900 1245L1229 1572L962 1572L787 1388L780 1388L683 1572L439 1572L629 1245Z" />
<glyph glyph-name="Omacron" unicode="&#x014c;" horiz-adv-x="1570" d="M918 1170C1089 1170 1201 1038 1201 829C1201 521 1020 273 792 273C621 273 510 407 510 614C510 921 691 1170 918 1170ZM782 -25C1223 -25 1573 333 1573 850C1573 1206 1334 1468 926 1468C484 1468 138 1109 138 593C138 236 382 -25 782 -25ZM1372 1778L651 1778L616 1613L1337 1613Z" />
<glyph glyph-name="omacron" unicode="&#x014d;" horiz-adv-x="1251" d="M613 242C506 242 437 334 437 472C437 687 549 847 703 847C809 847 878 755 878 617C878 405 764 242 613 242ZM718 1115C352 1115 88 841 88 465C88 171 293 -26 599 -26C965 -26 1229 248 1229 624C1229 917 1024 1115 718 1115ZM1143 1442L470 1442L435 1277L1108 1277Z" />
<glyph glyph-name="Obreve" unicode="&#x014e;" horiz-adv-x="1570" d="M918 1170C1089 1170 1201 1038 1201 829C1201 521 1020 273 792 273C621 273 510 407 510 614C510 921 691 1170 918 1170ZM782 -25C1223 -25 1573 333 1573 850C1573 1206 1334 1468 926 1468C484 1468 138 1109 138 593C138 236 382 -25 782 -25ZM652 1865C648 1844 645 1822 645 1800C645 1654 755 1537 962 1537C1202 1537 1362 1680 1407 1865L1193 1865C1170 1769 1095 1705 992 1705C902 1705 854 1753 854 1829C854 1841 855 1853 858 1865Z" />
<glyph glyph-name="obreve" unicode="&#x014f;" horiz-adv-x="1251" d="M613 242C506 242 437 334 437 472C437 687 549 847 703 847C809 847 878 755 878 617C878 405 764 242 613 242ZM718 1115C352 1115 88 841 88 465C88 171 293 -26 599 -26C965 -26 1229 248 1229 624C1229 917 1024 1115 718 1115ZM454 1571C450 1549 448 1530 448 1511C448 1353 581 1242 764 1242C999 1242 1163 1371 1209 1571L996 1571C972 1471 893 1410 795 1410C708 1410 657 1456 657 1535C657 1547 659 1559 661 1571Z" />
<glyph glyph-name="Ohungarumlaut" unicode="&#x0150;" horiz-adv-x="1570" d="M918 1170C1089 1170 1201 1038 1201 829C1201 521 1020 273 792 273C621 273 510 407 510 614C510 921 691 1170 918 1170ZM782 -25C1223 -25 1573 333 1573 850C1573 1206 1334 1468 926 1468C484 1468 138 1109 138 593C138 236 382 -25 782 -25ZM1345 1556L1682 1870L1358 1870L1062 1556ZM872 1556L1209 1870L885 1870L590 1556Z" />
<glyph glyph-name="ohungarumlaut" unicode="&#x0151;" horiz-adv-x="1251" d="M613 242C506 242 437 334 437 472C437 687 549 847 703 847C809 847 878 755 878 617C878 405 764 242 613 242ZM718 1115C352 1115 88 841 88 465C88 171 293 -26 599 -26C965 -26 1229 248 1229 624C1229 917 1024 1115 718 1115ZM897 1260L1146 1260L1431 1575L1150 1575ZM492 1260L740 1260L1026 1575L745 1575Z" />
<glyph glyph-name="OE" unicode="&#x0152;" horiz-adv-x="2236" d="M1142 0L2046 0L2108 295L1486 295L1549 590L2133 590L2191 860L1607 860L1668 1148L2289 1148L2352 1443L1449 1443L1396 1202L1390 1202C1301 1374 1143 1468 936 1468C479 1468 146 1093 146 595C146 226 378 -25 721 -25C905 -25 1074 50 1170 174L1177 174ZM1209 829C1209 524 1030 273 800 273C629 273 518 407 518 614C518 919 697 1170 926 1170C1098 1170 1209 1037 1209 829Z" />
<glyph glyph-name="oe" unicode="&#x0153;" horiz-adv-x="1963" d="M1360 -25C1631 -25 1840 121 1898 351L1578 351C1551 266 1483 220 1383 220C1258 220 1177 309 1177 451C1177 456 1177 467 1177 469L1926 469C1936 525 1944 601 1944 648C1944 925 1745 1115 1460 1115C1309 1115 1170 1041 1091 943L1075 943C999 1047 871 1115 713 1115C356 1115 86 833 86 465C86 168 288 -25 597 -25C757 -25 895 35 982 148L998 148C1050 51 1214 -25 1360 -25ZM1211 667C1242 788 1335 869 1453 869C1558 869 1630 799 1630 698C1630 686 1629 672 1628 667ZM441 465C441 676 560 852 706 852C808 852 869 765 869 622C869 411 752 238 607 238C503 238 441 323 441 465Z" />
<glyph glyph-name="Racute" unicode="&#x0154;" horiz-adv-x="1365" d="M1317 1870L991 1870L696 1556L980 1556ZM562 764L649 1166L854 1166C979 1166 1050 1105 1050 993C1050 859 947 764 788 764ZM340 1443L33 0L400 0L507 505L707 505L856 0L1238 0L1069 541C1294 618 1419 815 1419 1024C1419 1267 1251 1443 955 1443Z" />
<glyph glyph-name="racute" unicode="&#x0155;" horiz-adv-x="848" d="M6 0L351 0L474 573C508 733 602 812 744 812C806 812 857 797 901 776L967 1077C928 1095 883 1105 823 1105C701 1105 603 1035 550 934L543 934L574 1089L239 1089ZM795 1260L1123 1576L811 1576L518 1260Z" />
<glyph glyph-name="Rcommaaccent" unicode="&#x0156;" horiz-adv-x="1365" d="M194 -475L461 -475L718 -145L405 -145ZM562 764L649 1166L854 1166C979 1166 1050 1105 1050 993C1050 859 947 764 788 764ZM340 1443L33 0L400 0L507 505L707 505L856 0L1238 0L1069 541C1294 618 1419 815 1419 1024C1419 1267 1251 1443 955 1443Z" />
<glyph glyph-name="rcommaaccent" unicode="&#x0157;" horiz-adv-x="848" d="M6 0L351 0L474 573C508 733 602 812 744 812C806 812 857 797 901 776L967 1077C928 1095 883 1105 823 1105C701 1105 603 1035 550 934L543 934L574 1089L239 1089ZM17 -475L274 -145L-39 -145L-250 -475Z" />
<glyph glyph-name="Rcaron" unicode="&#x0158;" horiz-adv-x="1365" d="M969 1542L1301 1869L1048 1869L864 1677L856 1677L753 1869L506 1869L698 1542ZM562 764L649 1166L854 1166C979 1166 1050 1105 1050 993C1050 859 947 764 788 764ZM340 1443L33 0L400 0L507 505L707 505L856 0L1238 0L1069 541C1294 618 1419 815 1419 1024C1419 1267 1251 1443 955 1443Z" />
<glyph glyph-name="rcaron" unicode="&#x0159;" horiz-adv-x="848" d="M6 0L351 0L474 573C508 733 602 812 744 812C806 812 857 797 901 776L967 1077C928 1095 883 1105 823 1105C701 1105 603 1035 550 934L543 934L574 1089L239 1089ZM752 1246L1081 1573L814 1573L639 1389L632 1389L535 1573L291 1573L481 1246Z" />
<glyph glyph-name="Sacute" unicode="&#x015a;" horiz-adv-x="1347" d="M71 425C74 141 308 -25 676 -25C1048 -25 1288 172 1288 457C1288 659 1174 770 919 845L776 888C646 926 597 973 597 1044C597 1124 677 1190 811 1190C950 1190 1040 1122 1044 1020L1382 1020C1381 1300 1157 1468 803 1468C467 1468 224 1281 224 999C224 802 350 676 590 602L728 560C874 515 913 475 913 404C913 312 820 254 683 254C540 254 434 325 420 425ZM990 1556L1327 1870L1001 1870L706 1556Z" />
<glyph glyph-name="sacute" unicode="&#x015b;" horiz-adv-x="1108" d="M165 757C165 607 258 508 460 441L558 408C664 372 696 349 696 304C696 246 641 208 553 208C441 208 369 264 362 345L35 345C44 121 240 -26 543 -26C840 -26 1037 121 1037 341C1037 487 958 570 752 639L636 677C525 714 492 739 492 787C492 844 548 882 637 882C731 882 797 830 802 755L1112 755C1105 967 914 1114 642 1114C353 1114 165 972 165 757ZM865 1260L1193 1576L881 1576L588 1260Z" />
<glyph glyph-name="Scircumflex" unicode="&#x015c;" horiz-adv-x="1347" d="M71 425C74 141 308 -25 676 -25C1048 -25 1288 172 1288 457C1288 659 1174 770 919 845L776 888C646 926 597 973 597 1044C597 1124 677 1190 811 1190C950 1190 1040 1122 1044 1020L1382 1020C1381 1300 1157 1468 803 1468C467 1468 224 1281 224 999C224 802 350 676 590 602L728 560C874 515 913 475 913 404C913 312 820 254 683 254C540 254 434 325 420 425ZM1045 1869L774 1869L442 1542L695 1542L880 1734L887 1734L990 1542L1237 1542Z" />
<glyph glyph-name="scircumflex" unicode="&#x015d;" horiz-adv-x="1108" d="M165 757C165 607 258 508 460 441L558 408C664 372 696 349 696 304C696 246 641 208 553 208C441 208 369 264 362 345L35 345C44 121 240 -26 543 -26C840 -26 1037 121 1037 341C1037 487 958 570 752 639L636 677C525 714 492 739 492 787C492 844 548 882 637 882C731 882 797 830 802 755L1112 755C1105 967 914 1114 642 1114C353 1114 165 972 165 757ZM890 1573L618 1573L289 1246L555 1246L730 1429L737 1429L834 1246L1079 1246Z" />
<glyph glyph-name="Scedilla" unicode="&#x015e;" horiz-adv-x="1347" d="M776 888C646 926 597 973 597 1044C597 1124 677 1190 811 1190C950 1190 1040 1122 1044 1020L1382 1020C1381 1300 1157 1468 803 1468C467 1468 224 1281 224 999C224 802 350 676 590 602L728 560C874 515 913 475 913 404C913 312 820 254 683 254C540 254 434 325 420 425L71 425C74 173 257 15 555 -19L493 -103L467 -216L525 -216C614 -216 646 -228 646 -261C646 -295 606 -313 531 -313C489 -313 444 -307 414 -298L382 -448C411 -459 470 -466 529 -466C709 -466 838 -371 838 -239C838 -153 785 -100 688 -91L737 -23C1074 -3 1288 188 1288 457C1288 659 1174 770 919 845Z" />
<glyph glyph-name="scedilla" unicode="&#x015f;" horiz-adv-x="1108" d="M636 677C525 714 492 739 492 787C492 844 548 882 637 882C731 882 797 830 802 755L1112 755C1105 967 914 1114 642 1114C353 1114 165 972 165 757C165 607 258 508 460 441L558 408C664 372 696 349 696 304C696 246 641 208 553 208C441 208 369 264 362 345L35 345C43 150 192 14 430 -19L368 -103L342 -216L400 -216C489 -216 521 -228 521 -261C521 -295 481 -313 406 -313C364 -313 319 -307 289 -298L257 -448C286 -459 345 -466 404 -466C584 -466 713 -371 713 -239C713 -153 660 -100 563 -91L612 -23C870 -2 1037 139 1037 341C1037 487 958 570 752 639Z" />
<glyph glyph-name="Scaron" unicode="&#x0160;" horiz-adv-x="1347" d="M71 425C74 141 308 -25 676 -25C1048 -25 1288 172 1288 457C1288 659 1174 770 919 845L776 888C646 926 597 973 597 1044C597 1124 677 1190 811 1190C950 1190 1040 1122 1044 1020L1382 1020C1381 1300 1157 1468 803 1468C467 1468 224 1281 224 999C224 802 350 676 590 602L728 560C874 515 913 475 913 404C913 312 820 254 683 254C540 254 434 325 420 425ZM708 1542L979 1542L1311 1869L1058 1869L874 1677L866 1677L763 1869L516 1869Z" />
<glyph glyph-name="scaron" unicode="&#x0161;" horiz-adv-x="1108" d="M165 757C165 607 258 508 460 441L558 408C664 372 696 349 696 304C696 246 641 208 553 208C441 208 369 264 362 345L35 345C44 121 240 -26 543 -26C840 -26 1037 121 1037 341C1037 487 958 570 752 639L636 677C525 714 492 739 492 787C492 844 548 882 637 882C731 882 797 830 802 755L1112 755C1105 967 914 1114 642 1114C353 1114 165 972 165 757ZM822 1246L1151 1573L884 1573L709 1389L702 1389L605 1573L361 1573L551 1246Z" />
<glyph glyph-name="Tcedilla" unicode="&#x0162;" horiz-adv-x="1284" d="M266 1443L203 1148L619 1148L375 0L558 0L482 -103L456 -216L514 -216C603 -216 635 -228 635 -261C635 -295 595 -313 520 -313C478 -313 433 -307 403 -298L371 -448C400 -459 459 -466 518 -466C698 -466 827 -371 827 -239C827 -153 774 -100 677 -91L743 0L986 1148L1402 1148L1465 1443Z" />
<glyph glyph-name="tcedilla" unicode="&#x0163;" horiz-adv-x="813" d="M623 808L840 808L894 1064L677 1064L732 1326L389 1326L333 1064L171 1064L115 808L278 808L179 340C170 294 168 253 168 226C168 111 238 37 360 5L281 -103L255 -216L313 -216C402 -216 434 -228 434 -261C434 -295 394 -313 319 -313C277 -313 232 -307 202 -298L170 -448C199 -459 258 -466 317 -466C497 -466 626 -371 626 -239C626 -153 573 -100 476 -91L532 -14C586 -14 643 -9 673 -1L726 241C712 237 694 235 654 235C565 235 525 261 525 323C525 338 527 362 531 379Z" />
<glyph glyph-name="Tcaron" unicode="&#x0164;" horiz-adv-x="1284" d="M743 0L986 1148L1402 1148L1465 1443L266 1443L203 1148L619 1148L375 0ZM753 1542L1024 1542L1356 1869L1103 1869L919 1677L911 1677L808 1869L561 1869Z" />
<glyph glyph-name="tcaron" unicode="&#x0165;" horiz-adv-x="1022" d="M960 1732L851 1221L1087 1221L1246 1732ZM524 -14C580 -14 642 -9 673 -1L726 241C712 237 694 235 654 235C565 235 525 261 525 323C525 338 527 362 531 379L623 808L840 808L894 1064L677 1064L732 1326L389 1326L333 1064L171 1064L115 808L278 808L179 340C170 294 168 253 168 226C168 67 302 -14 524 -14Z" />
<glyph glyph-name="Tbar" unicode="&#x0166;" horiz-adv-x="1284" d="M1402 1148L1465 1443L266 1443L203 1148L619 1148L560 870L287 870L224 576L497 576L375 0L743 0L865 576L1184 576L1246 870L927 870L986 1148Z" />
<glyph glyph-name="tbar" unicode="&#x0167;" horiz-adv-x="813" d="M840 808L894 1064L677 1064L732 1326L389 1326L333 1064L171 1064L115 808L278 808L246 655L83 655L47 489L211 489L179 340C170 294 168 253 168 226C168 67 302 -14 524 -14C580 -14 642 -9 673 -1L726 241C712 237 694 235 654 235C565 235 525 261 525 323C525 338 527 362 531 379L555 489L779 489L815 655L590 655L623 808Z" />
<glyph glyph-name="Utilde" unicode="&#x0168;" horiz-adv-x="1484" d="M732 -25C1070 -25 1319 154 1382 456L1591 1443L1224 1443L1032 536C998 375 898 287 754 287C614 287 517 365 515 494C515 522 518 552 525 585L707 1443L340 1443L157 579C148 536 143 493 144 454C144 174 364 -25 732 -25ZM1146 1546C1278 1546 1388 1660 1425 1834L1241 1834C1222 1759 1191 1719 1149 1719C1070 1719 1038 1846 893 1846C759 1846 650 1736 615 1562L799 1562C816 1632 850 1673 891 1673C970 1673 1004 1546 1146 1546Z" />
<glyph glyph-name="utilde" unicode="&#x0169;" horiz-adv-x="1241" d="M1301 1089L956 1089L822 460C795 335 713 257 602 257C498 257 440 312 440 415C440 437 443 464 447 488L576 1089L232 1089L93 432C84 391 78 337 78 291C78 102 210 -26 418 -26C573 -26 703 54 766 172L773 172L736 0L1069 0ZM967 1246C1099 1246 1209 1360 1246 1534L1062 1534C1043 1459 1012 1419 970 1419C891 1419 859 1546 714 1546C580 1546 471 1436 436 1262L620 1262C637 1332 671 1373 712 1373C791 1373 825 1246 967 1246Z" />
<glyph glyph-name="Umacron" unicode="&#x016a;" horiz-adv-x="1484" d="M732 -25C1070 -25 1319 154 1382 456L1591 1443L1224 1443L1032 536C998 375 898 287 754 287C614 287 517 365 515 494C515 522 518 552 525 585L707 1443L340 1443L157 579C148 536 143 493 144 454C144 174 364 -25 732 -25ZM1387 1778L666 1778L631 1613L1352 1613Z" />
<glyph glyph-name="umacron" unicode="&#x016b;" horiz-adv-x="1241" d="M1301 1089L956 1089L822 460C795 335 713 257 602 257C498 257 440 312 440 415C440 437 443 464 447 488L576 1089L232 1089L93 432C84 391 78 337 78 291C78 102 210 -26 418 -26C573 -26 703 54 766 172L773 172L736 0L1069 0ZM1194 1442L521 1442L486 1277L1159 1277Z" />
<glyph glyph-name="Ubreve" unicode="&#x016c;" horiz-adv-x="1484" d="M732 -25C1070 -25 1319 154 1382 456L1591 1443L1224 1443L1032 536C998 375 898 287 754 287C614 287 517 365 515 494C515 522 518 552 525 585L707 1443L340 1443L157 579C148 536 143 493 144 454C144 174 364 -25 732 -25ZM667 1865C663 1844 660 1822 660 1800C660 1654 770 1537 977 1537C1217 1537 1377 1680 1422 1865L1208 1865C1185 1769 1110 1705 1007 1705C917 1705 869 1753 869 1829C869 1841 870 1853 873 1865Z" />
<glyph glyph-name="ubreve" unicode="&#x016d;" horiz-adv-x="1241" d="M1301 1089L956 1089L822 460C795 335 713 257 602 257C498 257 440 312 440 415C440 437 443 464 447 488L576 1089L232 1089L93 432C84 391 78 337 78 291C78 102 210 -26 418 -26C573 -26 703 54 766 172L773 172L736 0L1069 0ZM505 1571C501 1549 499 1530 499 1511C499 1353 632 1242 815 1242C1050 1242 1214 1371 1260 1571L1047 1571C1023 1471 944 1410 846 1410C759 1410 708 1456 708 1535C708 1547 710 1559 712 1571Z" />
<glyph glyph-name="Uring" unicode="&#x016e;" horiz-adv-x="1484" d="M732 -25C1070 -25 1319 154 1382 456L1591 1443L1224 1443L1032 536C998 375 898 287 754 287C614 287 517 365 515 494C515 522 518 552 525 585L707 1443L340 1443L157 579C148 536 143 493 144 454C144 174 364 -25 732 -25ZM1040 1569C1167 1569 1272 1670 1272 1796C1272 1922 1167 2019 1042 2019C915 2019 809 1919 809 1792C809 1666 915 1569 1040 1569ZM1040 1705C991 1705 950 1743 950 1793C950 1845 991 1885 1042 1885C1091 1885 1132 1846 1132 1795C1132 1744 1091 1705 1040 1705Z" />
<glyph glyph-name="uring" unicode="&#x016f;" horiz-adv-x="1241" d="M1301 1089L956 1089L822 460C795 335 713 257 602 257C498 257 440 312 440 415C440 437 443 464 447 488L576 1089L232 1089L93 432C84 391 78 337 78 291C78 102 210 -26 418 -26C573 -26 703 54 766 172L773 172L736 0L1069 0ZM850 1215C977 1215 1082 1316 1082 1442C1082 1568 977 1665 852 1665C725 1665 619 1565 619 1438C619 1312 725 1215 850 1215ZM850 1351C801 1351 760 1389 760 1439C760 1491 801 1531 852 1531C901 1531 942 1492 942 1441C942 1390 901 1351 850 1351Z" />
<glyph glyph-name="Uhungarumlaut" unicode="&#x0170;" horiz-adv-x="1484" d="M732 -25C1070 -25 1319 154 1382 456L1591 1443L1224 1443L1032 536C998 375 898 287 754 287C614 287 517 365 515 494C515 522 518 552 525 585L707 1443L340 1443L157 579C148 536 143 493 144 454C144 174 364 -25 732 -25ZM1360 1556L1697 1870L1373 1870L1077 1556ZM887 1556L1224 1870L900 1870L605 1556Z" />
<glyph glyph-name="uhungarumlaut" unicode="&#x0171;" horiz-adv-x="1241" d="M1301 1089L956 1089L822 460C795 335 713 257 602 257C498 257 440 312 440 415C440 437 443 464 447 488L576 1089L232 1089L93 432C84 391 78 337 78 291C78 102 210 -26 418 -26C573 -26 703 54 766 172L773 172L736 0L1069 0ZM948 1260L1197 1260L1482 1575L1201 1575ZM543 1260L791 1260L1077 1575L796 1575Z" />
<glyph glyph-name="Uogonek" unicode="&#x0172;" horiz-adv-x="1484" d="M990 -453L1027 -278C1014 -283 984 -288 953 -288C886 -288 849 -260 849 -214C849 -118 949 -33 1098 58C1240 144 1345 276 1382 455L1591 1443L1223 1443L1031 535C997 375 898 287 754 287C614 287 518 364 516 494C516 521 519 552 526 584L709 1443L340 1443L157 578C148 536 143 493 144 454C144 174 374 -25 742 -25C753 -25 766 -24 773 -22L773 -29C658 -95 585 -189 585 -284C585 -403 687 -478 828 -478C896 -478 953 -469 990 -453Z" />
</font>
</defs>
</svg>
