<?xml version="1.0" standalone="no"?><!DOCTYPE svg PUBLIC "-//W3C//DTD SVG 1.1//EN" "http://www.w3.org/Graphics/SVG/1.1/DTD/svg11.dtd" ><svg xmlns="http://www.w3.org/2000/svg"><metadata></metadata><defs>
<font id="SFProDisplay-UltralightItalic" >
<font-face font-family="SF Pro Display" font-stretch="normal" units-per-em="2048" weight="100" panose-1="0,0,2,0,0,0,0,0,0,0" ascent="1950" descent="-494" x-height="1040" underline-thickness="44" underline-position="-347" unicode-range="U+00000032-00064258" bbox="-507,-494,2689,2083" />
<missing-glyph horiz-adv-x="2048" d="M-56 -494L1792 -494L1867 -139L20 -139ZM33 -76L1881 -76L1956 278L108 278ZM122 342L1970 342L2045 696L197 696ZM211 760L2058 760L2134 1114L286 1114ZM300 1178L2147 1178L2223 1532L375 1532ZM388 1595L2236 1595L2311 1950L464 1950Z" />
<glyph glyph-name="space" unicode="&#x20;" horiz-adv-x="453" d="" />
<glyph glyph-name="exclam" unicode="&#x21;" horiz-adv-x="500" d="M479 1443L261 411L314 411L533 1443ZM215 -7C243 -7 267 17 267 45C267 74 243 98 215 98C186 98 162 74 162 45C162 17 186 -7 215 -7Z" />
<glyph glyph-name="quotedbl" unicode="&#x22;" horiz-adv-x="479" d="M310 998L405 1443L356 1443L261 998ZM540 998L635 1443L585 1443L490 998Z" />
<glyph glyph-name="numbersign" unicode="&#x23;" horiz-adv-x="1231" d="M679 0L728 0L879 450L1188 450L1203 496L894 496L1041 952L1343 952L1359 997L1056 997L1206 1450L1158 1450L1007 997L582 997L732 1450L684 1450L534 997L249 997L235 952L519 952L372 496L94 496L80 450L357 450L205 0L253 0L404 450L830 450ZM420 496L567 952L992 952L846 496Z" />
<glyph glyph-name="dollar" unicode="&#x24;" horiz-adv-x="1179" d="M701 771C475 862 388 949 388 1087C388 1280 558 1419 795 1419C810 1419 825 1418 839 1417ZM800 680C986 606 1065 517 1065 375C1065 164 891 22 631 22C616 22 601 22 586 23L732 708ZM921 1596L877 1596L849 1464C833 1465 817 1466 800 1466C529 1466 337 1307 337 1086C337 929 436 826 684 727L691 724L543 28C323 56 166 193 162 372L111 372C115 169 289 13 533 -19L500 -176L544 -176L577 -23C594 -24 611 -25 629 -25C918 -25 1116 136 1116 374C1116 535 1025 642 825 722L742 755L882 1413C1069 1384 1210 1265 1226 1113L1276 1113C1262 1292 1106 1429 892 1460Z" />
<glyph glyph-name="percent" unicode="&#x25;" horiz-adv-x="1462" d="M219 1011C219 865 296 769 417 769C584 769 719 960 719 1209C719 1356 642 1452 521 1452C354 1452 219 1260 219 1011ZM419 811C326 811 268 889 268 1011C268 1230 383 1409 520 1409C611 1409 670 1331 670 1209C670 990 555 811 419 811ZM170 0L852 709L1558 1443L1498 1443L818 735L111 0ZM948 232C948 85 1025 -10 1146 -10C1313 -10 1448 180 1448 429C1448 577 1371 672 1250 672C1083 672 948 481 948 232ZM1148 32C1055 32 997 110 997 232C997 451 1112 630 1249 630C1340 630 1399 552 1399 430C1399 211 1285 32 1148 32Z" />
<glyph glyph-name="ampersand" unicode="&#x26;" horiz-adv-x="1496" d="M537 1155C537 1296 682 1419 855 1419C1012 1419 1115 1327 1115 1196C1115 1053 980 931 690 823C577 984 537 1072 537 1155ZM577 25C360 25 203 160 203 342C203 494 312 617 534 710L667 766L1049 217C911 94 744 25 577 25ZM1200 0L1258 0L1112 211C1237 341 1337 518 1368 669L1387 760L1338 760L1319 671C1291 536 1199 370 1086 247L713 784C1032 908 1166 1035 1166 1208C1166 1355 1040 1464 860 1464C649 1464 487 1323 487 1150C487 1059 531 961 643 804L514 749C266 645 152 513 152 332C152 134 337 -20 577 -20C757 -20 924 50 1075 180Z" />
<glyph glyph-name="quotesingle" unicode="&#x27;" horiz-adv-x="249" d="M310 998L405 1443L356 1443L261 998Z" />
<glyph glyph-name="parenleft" unicode="&#x28;" horiz-adv-x="582" d="M389 -299C318 -160 285 96 285 333C285 750 473 1168 760 1443L700 1443C422 1171 236 763 236 325C236 95 263 -143 338 -299Z" />
<glyph glyph-name="parenright" unicode="&#x29;" horiz-adv-x="582" d="M335 1445C407 1306 439 1050 439 814C439 396 252 -22 -35 -297L25 -297C303 -25 488 383 488 821C488 1052 461 1289 387 1445Z" />
<glyph glyph-name="asterisk" unicode="&#x2a;" horiz-adv-x="944" d="M922 863L949 897L693 1090L1007 1225L993 1264L678 1124L740 1455L696 1459L640 1128L385 1326L359 1292L614 1100L301 967L314 927L628 1065L568 736L613 732L668 1062Z" />
<glyph glyph-name="plus" unicode="&#x2b;" horiz-adv-x="1179" d="M680 554L1141 554L1151 601L690 601L792 1076L744 1076L642 601L181 601L172 554L632 554L527 57L575 57Z" />
<glyph glyph-name="comma" unicode="&#x2c;" horiz-adv-x="489" d="M85 -253L278 174L226 174L41 -253Z" />
<glyph glyph-name="hyphen" unicode="&#x2d;" horiz-adv-x="830" d="M153 539L803 539L813 585L163 585Z" />
<glyph glyph-name="period" unicode="&#x2e;" horiz-adv-x="509" d="M214 -7C242 -7 266 17 266 45C266 74 242 98 214 98C185 98 161 74 161 45C161 17 185 -7 214 -7Z" />
<glyph glyph-name="slash" unicode="&#x2f;" horiz-adv-x="582" d="M-64 -299L838 1443L789 1443L-114 -299Z" />
<glyph glyph-name="zero" unicode="&#x30;" horiz-adv-x="1210" d="M594 -20C953 -20 1243 406 1243 936C1243 1259 1080 1463 821 1463C463 1463 172 1036 172 507C172 184 335 -20 594 -20ZM224 507C224 1005 494 1417 821 1417C1047 1417 1192 1229 1192 935C1192 438 921 26 595 26C368 26 224 214 224 507Z" />
<glyph glyph-name="one" unicode="&#x31;" horiz-adv-x="778" d="M433 0L483 0L790 1443L740 1443C544 1340 396 1256 289 1194L277 1134C434 1224 594 1315 723 1381L727 1381Z" />
<glyph glyph-name="two" unicode="&#x32;" horiz-adv-x="1152" d="M307 1073L358 1073C398 1274 571 1417 779 1417C979 1417 1130 1288 1130 1114C1130 960 1058 863 734 584L104 43L95 0L1016 0L1026 47L184 47L185 51L764 548C1103 839 1180 946 1180 1117C1180 1312 1005 1463 781 1463C544 1463 351 1304 307 1073Z" />
<glyph glyph-name="three" unicode="&#x33;" horiz-adv-x="1145" d="M480 726L639 726C879 726 1032 602 1032 405C1032 184 841 26 572 26C340 26 163 162 162 340C162 362 165 383 170 405L122 405C118 393 113 361 113 334C112 134 312 -20 569 -20C870 -20 1083 159 1083 410C1083 590 963 721 781 743L782 747C1011 772 1159 917 1159 1118C1159 1321 995 1463 761 1463C547 1463 372 1339 314 1148L365 1148C421 1311 575 1417 758 1417C969 1417 1109 1294 1109 1110C1109 915 930 773 685 773L490 773Z" />
<glyph glyph-name="four" unicode="&#x34;" horiz-adv-x="1185" d="M787 0L836 0L917 379L1154 379L1163 426L927 426L1144 1450L1075 1450C378 732 277 624 108 426L99 379L867 379ZM176 430C335 617 402 691 1077 1386L1081 1386L877 426L175 426Z" />
<glyph glyph-name="five" unicode="&#x35;" horiz-adv-x="1174" d="M602 -20C913 -20 1139 209 1139 523C1139 758 958 926 706 926C563 926 402 856 314 752L310 752L510 1396L1219 1396L1229 1443L475 1443L237 674C279 674 292 674 292 675C380 793 552 880 700 880C932 880 1089 733 1089 513C1089 236 881 26 606 26C381 26 204 167 203 347L203 354L154 354L154 341C154 141 354 -20 602 -20Z" />
<glyph glyph-name="six" unicode="&#x36;" horiz-adv-x="1187" d="M1158 528C1159 771 976 946 724 946C506 946 311 841 231 644L226 644C291 1111 510 1417 833 1417C1038 1417 1190 1294 1197 1111L1248 1111C1243 1318 1069 1463 838 1463C359 1463 168 879 167 487C166 187 357 -20 619 -20C932 -20 1158 210 1158 528ZM719 900C947 900 1109 744 1108 519C1108 237 900 26 622 26C389 26 221 217 222 456C222 704 453 900 719 900Z" />
<glyph glyph-name="seven" unicode="&#x37;" horiz-adv-x="1072" d="M189 0L243 0L1236 1393L1247 1443L340 1443L330 1396L1179 1396L1178 1392Z" />
<glyph glyph-name="eight" unicode="&#x38;" horiz-adv-x="1188" d="M1128 414C1128 571 1014 711 853 756L854 760C1072 788 1221 940 1221 1133C1221 1326 1048 1463 806 1463C529 1463 322 1295 322 1070C322 935 416 818 554 781L553 777C297 748 121 577 121 354C121 130 310 -20 589 -20C910 -20 1128 155 1128 414ZM647 745C897 745 1078 606 1078 412C1078 180 883 26 591 26C335 26 172 158 172 365C172 581 375 745 647 745ZM371 1077C371 1270 558 1417 801 1417C1022 1417 1171 1299 1171 1126C1171 932 993 790 750 790C524 790 371 905 371 1077Z" />
<glyph glyph-name="nine" unicode="&#x39;" horiz-adv-x="1175" d="M684 543C460 543 290 714 290 934C291 1209 499 1417 781 1417C1006 1417 1168 1250 1168 1006C1168 739 929 543 684 543ZM240 931C240 686 430 497 677 497C899 497 1091 625 1156 818L1160 818C1098 305 874 26 542 26C342 26 199 147 180 333L129 333C145 123 312 -20 538 -20C1108 -20 1220 700 1221 996C1222 1284 1034 1463 786 1463C470 1463 241 1236 240 931Z" />
<glyph glyph-name="colon" unicode="&#x3a;" horiz-adv-x="509" d="M214 -7C242 -7 266 17 266 45C266 74 242 98 214 98C185 98 161 74 161 45C161 17 185 -7 214 -7ZM381 780C410 780 434 804 434 833C434 862 410 886 381 886C352 886 328 862 328 833C328 804 352 780 381 780Z" />
<glyph glyph-name="semicolon" unicode="&#x3b;" horiz-adv-x="509" d="M381 780C410 780 434 804 434 833C434 862 410 886 381 886C352 886 328 862 328 833C328 804 352 780 381 780ZM85 -253L278 174L226 174L41 -253Z" />
<glyph glyph-name="less" unicode="&#x3c;" horiz-adv-x="1179" d="M955 -5L288 527L289 532L1185 1069L1197 1130L238 556L229 512L943 -62Z" />
<glyph glyph-name="equal" unicode="&#x3d;" horiz-adv-x="1179" d="M1100 368L1109 414L143 414L133 368ZM1179 741L1188 787L222 787L213 741Z" />
<glyph glyph-name="greater" unicode="&#x3e;" horiz-adv-x="1179" d="M349 1073L1016 540L1015 536L119 -1L107 -62L1065 512L1075 555L360 1130Z" />
<glyph glyph-name="question" unicode="&#x3f;" horiz-adv-x="908" d="M255 1129L304 1129C351 1303 487 1416 668 1416C860 1416 972 1294 972 1133C972 984 883 868 702 799C546 740 475 663 443 515L419 398L469 398L493 511C520 637 587 711 730 763C922 834 1023 969 1023 1138C1023 1319 885 1463 672 1463C459 1463 304 1331 255 1129ZM383 -7C412 -7 436 17 436 45C436 74 412 98 383 98C355 98 331 74 331 45C331 17 355 -7 383 -7Z" />
<glyph glyph-name="at" unicode="&#x40;" horiz-adv-x="1727" d="M1059 1431C522 1431 129 1051 129 530C129 64 448 -235 942 -235C1011 -235 1077 -229 1120 -220L1130 -173C1088 -184 1019 -190 948 -190C475 -190 177 89 177 532C177 1027 547 1387 1056 1387C1479 1387 1750 1147 1750 771C1750 466 1584 220 1379 220C1285 220 1227 268 1227 344C1227 363 1229 387 1237 420L1358 987L1309 987L1268 794L1263 794C1248 925 1141 1014 1000 1014C773 1014 576 781 576 512C576 311 693 175 869 175C993 175 1109 247 1178 367L1183 367C1181 355 1180 342 1180 331C1181 238 1260 175 1377 175C1611 175 1798 440 1798 771C1798 1171 1506 1431 1059 1431ZM1237 691C1237 437 1069 220 870 220C720 220 625 335 625 514C625 762 798 969 1005 969C1152 969 1237 866 1237 691Z" />
<glyph glyph-name="A" unicode="&#x41;" horiz-adv-x="1201" d="M844 1375L848 1375L989 547L355 547ZM1082 0L1130 0L882 1443L831 1443L-30 0L29 0L328 502L996 502Z" />
<glyph glyph-name="B" unicode="&#x42;" horiz-adv-x="1169" d="M572 0C909 0 1140 166 1140 426C1140 611 1015 718 849 739L850 743C1052 770 1212 934 1212 1128C1212 1311 1084 1443 853 1443L387 1443L80 0ZM427 1397L845 1397C1054 1397 1162 1287 1162 1121C1162 921 969 765 743 765L293 765ZM140 46L283 719L727 719C930 719 1089 622 1089 423C1089 203 882 46 577 46Z" />
<glyph glyph-name="C" unicode="&#x43;" horiz-adv-x="1342" d="M1375 973L1425 973C1425 974 1425 974 1425 975C1421 1258 1212 1463 894 1463C482 1463 169 1074 169 565C169 216 395 -20 729 -20C1013 -20 1235 134 1323 392L1269 392C1186 163 986 27 733 27C425 27 219 245 219 571C219 1044 514 1416 890 1416C1184 1416 1371 1230 1375 975C1375 974 1375 974 1375 973Z" />
<glyph glyph-name="D" unicode="&#x44;" horiz-adv-x="1348" d="M387 1443L81 0L534 0C1052 0 1387 373 1387 888C1387 1225 1184 1443 812 1443ZM429 1396L806 1396C1156 1396 1337 1200 1337 882C1337 401 1019 47 534 47L143 47Z" />
<glyph glyph-name="E" unicode="&#x45;" horiz-adv-x="1039" d="M916 47L141 47L283 718L1022 718L1033 764L293 764L427 1396L1203 1396L1213 1443L387 1443L80 0L906 0Z" />
<glyph glyph-name="F" unicode="&#x46;" horiz-adv-x="1008" d="M130 0L282 715L987 715L998 762L292 762L427 1396L1194 1396L1204 1443L387 1443L80 0Z" />
<glyph glyph-name="G" unicode="&#x47;" horiz-adv-x="1351" d="M1372 691L818 691L809 645L1313 645L1284 518C1214 208 1009 27 728 27C422 27 219 246 219 571C219 1038 506 1416 884 1416C1148 1416 1331 1264 1361 1023L1411 1023C1411 1023 1411 1023 1411 1024C1382 1291 1178 1463 887 1463C474 1463 169 1067 169 565C169 217 392 -20 725 -20C1036 -20 1257 172 1332 512Z" />
<glyph glyph-name="H" unicode="&#x48;" horiz-adv-x="1310" d="M1128 0L1435 1443L1385 1443L1241 765L293 765L437 1443L387 1443L80 0L130 0L283 718L1231 718L1078 0Z" />
<glyph glyph-name="I" unicode="&#x49;" horiz-adv-x="312" d="M130 0L437 1443L387 1443L80 0Z" />
<glyph glyph-name="J" unicode="&#x4a;" horiz-adv-x="937" d="M64 295C64 109 206 -22 414 -22C625 -22 780 111 827 335L1062 1443L1012 1443L781 356C737 148 603 25 420 25C237 25 115 138 115 300C115 312 116 317 116 317L65 317C64 307 64 300 64 295Z" />
<glyph glyph-name="K" unicode="&#x4b;" horiz-adv-x="1109" d="M130 0L243 535L536 788L995 0L1052 0L573 820L1289 1443L1217 1443L265 615L261 615L437 1443L387 1443L80 0Z" />
<glyph glyph-name="L" unicode="&#x4c;" horiz-adv-x="1002" d="M915 47L140 47L437 1443L387 1443L80 0L905 0Z" />
<glyph glyph-name="M" unicode="&#x4d;" horiz-adv-x="1589" d="M129 0L412 1329L416 1329L719 1L771 1L1637 1329L1641 1329L1358 0L1407 0L1714 1443L1655 1443L757 62L753 62L437 1443L387 1443L80 0Z" />
<glyph glyph-name="N" unicode="&#x4e;" horiz-adv-x="1332" d="M130 0L419 1362L423 1362L1102 0L1150 0L1457 1443L1407 1443L1118 81L1114 81L435 1443L387 1443L80 0Z" />
<glyph glyph-name="O" unicode="&#x4f;" horiz-adv-x="1436" d="M899 1416C1210 1416 1419 1198 1419 853C1419 389 1122 27 742 27C431 27 222 245 222 590C222 1054 519 1416 899 1416ZM738 -20C1153 -20 1469 360 1469 859C1469 1224 1240 1463 903 1463C487 1463 171 1083 171 584C171 219 401 -20 738 -20Z" />
<glyph glyph-name="P" unicode="&#x50;" horiz-adv-x="1138" d="M392 1443L80 0L130 0L261 601L646 601C989 601 1224 781 1224 1067C1224 1285 1068 1443 805 1443ZM432 1396L799 1396C1040 1396 1174 1255 1174 1064C1174 804 949 648 651 648L270 648Z" />
<glyph glyph-name="Q" unicode="&#x51;" horiz-adv-x="1436" d="M1179 -182L1054 60C1304 198 1469 497 1469 859C1469 1224 1240 1463 903 1463C487 1463 171 1083 171 584C171 219 401 -20 738 -20C835 -20 927 1 1011 40L1125 -182ZM742 27C431 27 222 245 222 590C222 1054 519 1416 899 1416C1210 1416 1419 1198 1419 853C1419 516 1263 234 1032 104L899 360L846 360L990 82C913 46 830 27 742 27Z" />
<glyph glyph-name="R" unicode="&#x52;" horiz-adv-x="1142" d="M80 0L130 0L267 632L692 632L731 632L973 0L1026 0L782 638C1051 672 1219 837 1219 1081C1219 1299 1067 1443 786 1443L392 1443ZM432 1396L783 1396C1036 1396 1169 1270 1169 1077C1169 840 977 679 699 679L277 679Z" />
<glyph glyph-name="S" unicode="&#x53;" horiz-adv-x="1187" d="M114 401C123 150 336 -20 640 -20C932 -20 1127 144 1127 379C1127 543 1033 648 814 733L681 785C455 874 366 960 366 1104C366 1287 533 1416 774 1416C1014 1416 1190 1272 1206 1068L1256 1068C1240 1302 1042 1463 775 1463C505 1463 315 1315 315 1103C315 938 414 838 660 740L790 689C991 609 1076 520 1076 378C1076 167 900 27 641 27C367 27 175 178 164 401Z" />
<glyph glyph-name="T" unicode="&#x54;" horiz-adv-x="1143" d="M546 0L843 1396L1364 1396L1374 1443L282 1443L272 1396L793 1396L496 0Z" />
<glyph glyph-name="U" unicode="&#x55;" horiz-adv-x="1337" d="M663 -20C972 -20 1187 154 1251 455L1463 1443L1413 1443L1202 461C1144 190 944 27 667 27C406 27 233 179 233 406C233 452 238 507 246 542L439 1443L389 1443L196 545C187 499 182 452 182 402C183 152 375 -20 663 -20Z" />
<glyph glyph-name="V" unicode="&#x56;" horiz-adv-x="1201" d="M576 0L1437 1443L1379 1443L563 72L559 72L325 1443L277 1443L523 0Z" />
<glyph glyph-name="W" unicode="&#x57;" horiz-adv-x="1744" d="M1103 1341L1107 1341L1220 0L1266 0L1978 1443L1924 1443L1263 101L1259 101L1146 1443L1101 1443L421 101L417 101L327 1443L278 1443L375 0L423 0Z" />
<glyph glyph-name="X" unicode="&#x58;" horiz-adv-x="1156" d="M-29 0L37 0L675 681L676 681L1024 0L1080 0L712 718L1391 1443L1325 1443L689 763L688 763L339 1443L283 1443L652 726Z" />
<glyph glyph-name="Y" unicode="&#x59;" horiz-adv-x="1145" d="M548 0L681 629L1380 1443L1317 1443L666 685L662 685L331 1443L277 1443L631 632L497 0Z" />
<glyph glyph-name="Z" unicode="&#x5a;" horiz-adv-x="1153" d="M16 0L1035 0L1045 46L96 46L96 50L1332 1400L1341 1443L352 1443L342 1397L1262 1397L1262 1393L25 42Z" />
<glyph glyph-name="bracketleft" unicode="&#x5b;" horiz-adv-x="582" d="M456 1443L86 -299L439 -299L448 -254L145 -254L496 1398L799 1398L809 1443Z" />
<glyph glyph-name="backslash" unicode="&#x5c;" horiz-adv-x="582" d="M365 -299L411 -299L360 1443L313 1443Z" />
<glyph glyph-name="bracketright" unicode="&#x5d;" horiz-adv-x="582" d="M268 -299L638 1443L286 1443L276 1398L580 1398L228 -254L-75 -254L-85 -299Z" />
<glyph glyph-name="asciicircum" unicode="&#x5e;" horiz-adv-x="749" d="M609 1328L612 1328L765 798L816 798L640 1394L599 1394L171 798L229 798Z" />
<glyph glyph-name="underscore" unicode="&#x5f;" horiz-adv-x="1024" d="M-91 -145L953 -145L962 -100L-82 -100Z" />
<glyph glyph-name="grave" unicode="&#x60;" horiz-adv-x="811" d="M787 1251L609 1555L554 1555L738 1251Z" />
<glyph glyph-name="a" unicode="&#x61;" horiz-adv-x="966" d="M413 30C246 30 133 121 133 255C133 418 271 518 516 531L879 552L837 361C796 170 615 30 413 30ZM407 -15C571 -15 725 71 801 205L805 204L761 0L810 0L957 688C964 721 967 752 967 778C967 946 835 1056 631 1056C412 1056 249 936 211 749L262 749C296 910 436 1010 628 1010C809 1010 917 921 917 774C917 750 913 721 907 689L887 596L516 574C239 558 83 442 83 251C83 94 216 -15 407 -15Z" />
<glyph glyph-name="b" unicode="&#x62;" horiz-adv-x="1090" d="M562 -15C861 -15 1088 262 1088 615C1088 883 937 1055 705 1055C533 1055 375 954 285 787L281 787L420 1443L370 1443L63 0L111 0L180 325L185 325C201 126 358 -15 562 -15ZM564 30C355 30 215 182 215 408C215 734 435 1010 697 1010C908 1010 1038 859 1038 615C1038 289 830 30 564 30Z" />
<glyph glyph-name="c" unicode="&#x63;" horiz-adv-x="1000" d="M648 1056C348 1056 121 781 121 420C121 160 284 -16 532 -16C728 -16 886 92 958 270L907 270C844 124 701 30 532 30C317 30 171 187 171 422C171 753 379 1010 648 1010C832 1010 965 895 986 725L1035 725C1035 726 1035 725 1035 726C1014 922 861 1056 648 1056Z" />
<glyph glyph-name="d" unicode="&#x64;" horiz-adv-x="1091" d="M490 -15C665 -15 836 88 925 253L929 253L875 0L926 0L1233 1443L1182 1443L1028 719L1024 719C1007 920 855 1055 654 1055C362 1055 112 757 112 401C112 156 267 -15 490 -15ZM499 30C296 30 162 181 162 406C162 727 393 1010 652 1010C859 1010 994 862 994 632C994 314 787 30 499 30Z" />
<glyph glyph-name="e" unicode="&#x65;" horiz-adv-x="1017" d="M183 562C226 826 416 1010 648 1010C856 1010 984 870 984 653C984 610 982 590 975 562ZM518 -16C735 -16 902 99 966 290L914 290C854 125 711 30 522 30C303 30 165 176 165 410C165 435 168 472 175 517L1016 517C1026 554 1032 608 1032 654C1032 901 885 1056 651 1056C344 1056 115 777 115 405C115 149 270 -16 518 -16Z" />
<glyph glyph-name="f" unicode="&#x66;" horiz-adv-x="521" d="M129 0L179 0L391 995L641 995L650 1040L400 1040L432 1192C460 1322 540 1392 650 1392C687 1392 718 1386 744 1377L754 1423C728 1431 688 1437 650 1437C513 1437 416 1355 383 1195L350 1040L187 1040L177 995L340 995Z" />
<glyph glyph-name="g" unicode="&#x67;" horiz-adv-x="1084" d="M454 -371C691 -371 865 -239 913 -19L1141 1040L1090 1040L1020 721L1016 721C1003 921 858 1055 653 1055C356 1055 115 764 115 417C115 163 265 -1 499 -1C677 -1 838 100 920 266L924 266L864 -14C821 -206 667 -326 459 -326C252 -326 120 -218 110 -92L60 -92C62 -240 220 -371 454 -371ZM506 45C294 45 164 188 164 420C164 739 387 1010 651 1010C856 1010 987 864 987 635C987 305 778 45 506 45Z" />
<glyph glyph-name="h" unicode="&#x68;" horiz-adv-x="1040" d="M63 0L113 0L252 645C294 843 460 1010 672 1010C858 1010 979 898 979 727C979 702 975 667 968 629L833 0L881 0L1020 640C1027 677 1029 712 1029 737C1029 923 889 1055 682 1055C507 1055 373 960 294 823L290 823L423 1443L373 1443Z" />
<glyph glyph-name="i" unicode="&#x69;" horiz-adv-x="286" d="M67 0L117 0L338 1040L288 1040ZM369 1259C394 1259 416 1279 416 1305C416 1332 394 1352 369 1352C343 1352 321 1332 321 1305C321 1279 343 1259 369 1259Z" />
<glyph glyph-name="j" unicode="&#x6a;" horiz-adv-x="287" d="M374 1259C399 1259 421 1279 421 1305C421 1332 399 1352 374 1352C348 1352 326 1332 326 1305C326 1279 348 1259 374 1259ZM338 1040L289 1040L43 -112C16 -245 -54 -304 -178 -304C-193 -304 -217 -303 -235 -301L-245 -346C-222 -348 -195 -349 -178 -349C-33 -349 58 -286 93 -117Z" />
<glyph glyph-name="k" unicode="&#x6b;" horiz-adv-x="861" d="M113 0L203 422L390 564L764 0L822 0L431 591L1027 1040L952 1040L222 494L218 494L420 1443L370 1443L63 0Z" />
<glyph glyph-name="l" unicode="&#x6c;" horiz-adv-x="290" d="M70 0L119 0L426 1443L377 1443Z" />
<glyph glyph-name="m" unicode="&#x6d;" horiz-adv-x="1582" d="M63 0L113 0L252 648C299 869 438 1010 608 1010C763 1010 867 907 867 756C867 723 862 669 854 632L720 0L769 0L906 642C954 870 1092 1010 1266 1010C1420 1010 1524 907 1524 756C1524 722 1518 669 1510 632L1376 0L1426 0L1563 642C1569 673 1574 723 1574 766C1574 935 1449 1056 1275 1056C1108 1056 971 942 918 789L914 789C903 945 784 1056 619 1056C474 1056 362 978 293 831L289 831L333 1040L284 1040Z" />
<glyph glyph-name="n" unicode="&#x6e;" horiz-adv-x="1033" d="M63 0L113 0L251 645C293 843 461 1010 672 1010C858 1010 976 899 976 736C976 703 970 668 962 629L828 0L878 0L1015 640C1023 677 1026 712 1026 745C1026 924 888 1056 683 1056C507 1056 371 959 290 818L286 818L333 1040L284 1040Z" />
<glyph glyph-name="o" unicode="&#x6f;" horiz-adv-x="1075" d="M540 30C317 30 171 186 171 422C171 756 381 1010 655 1010C879 1010 1024 854 1024 618C1024 284 814 30 540 30ZM655 1056C351 1056 121 785 121 420C121 158 286 -16 540 -16C845 -16 1074 255 1074 620C1074 882 909 1056 655 1056Z" />
<glyph glyph-name="p" unicode="&#x70;" horiz-adv-x="1086" d="M564 30C354 30 215 182 215 408C215 733 435 1010 697 1010C908 1010 1038 859 1038 615C1038 288 829 30 564 30ZM41 -339L181 324L185 324C201 125 358 -15 561 -15C859 -15 1088 259 1088 615C1088 882 937 1055 706 1055C533 1055 374 954 285 786L279 786L332 1040L284 1040L-9 -339Z" />
<glyph glyph-name="q" unicode="&#x71;" horiz-adv-x="1091" d="M499 30C300 30 162 184 162 405C162 724 393 1010 650 1010C863 1010 994 865 994 632C994 294 776 30 499 30ZM854 -339L1147 1040L1097 1040L1028 715L1025 715C1010 916 859 1055 654 1055C361 1055 112 756 112 405C112 158 268 -15 490 -15C668 -15 838 91 926 254L930 254L804 -339Z" />
<glyph glyph-name="r" unicode="&#x72;" horiz-adv-x="598" d="M63 0L113 0L248 634C296 858 434 1009 589 1009C646 1009 698 996 723 976L735 1026C707 1042 649 1055 596 1055C474 1055 372 988 296 849L292 849L333 1040L284 1040Z" />
<glyph glyph-name="s" unicode="&#x73;" horiz-adv-x="914" d="M233 780C233 664 307 586 473 528L563 495C742 433 802 375 802 267C802 128 672 29 485 29C292 29 147 137 126 299L75 299C94 113 260 -16 482 -16C701 -16 852 100 852 268C852 398 780 471 589 537L500 569C345 623 283 684 283 783C283 913 411 1011 584 1011C762 1011 884 904 902 754L951 754C934 931 790 1056 588 1056C380 1056 233 940 233 780Z" />
<glyph glyph-name="t" unicode="&#x74;" horiz-adv-x="511" d="M368 -1C370 -1 422 0 424 0L434 46C432 45 378 45 376 45C270 45 207 90 207 177C207 199 211 225 218 253L375 995L600 995L610 1040L385 1040L444 1319L394 1319L335 1040L184 1040L175 995L325 995L167 252C160 218 156 189 156 163C156 56 237 -1 368 -1Z" />
<glyph glyph-name="u" unicode="&#x75;" horiz-adv-x="1034" d="M1091 1040L1042 1040L904 395C862 197 694 30 481 30C295 30 179 142 179 305C179 338 184 375 192 411L326 1040L277 1040L140 400C133 363 129 329 129 295C129 118 264 -16 472 -16C648 -16 786 82 866 220L869 220L822 0L870 0Z" />
<glyph glyph-name="v" unicode="&#x76;" horiz-adv-x="872" d="M183 1040L356 0L424 0L1039 1040L982 1040L399 48L395 48L233 1040Z" />
<glyph glyph-name="w" unicode="&#x77;" horiz-adv-x="1380" d="M1546 1040L1491 1040L998 55L994 55L900 1040L834 1040L321 55L317 55L241 1040L193 1040L275 0L344 0L855 980L859 980L953 0L1021 0Z" />
<glyph glyph-name="x" unicode="&#x78;" horiz-adv-x="863" d="M497 476L752 0L808 0L530 515L1030 1040L965 1040L509 561L505 561L248 1040L193 1040L471 523L-26 0L39 0L493 476Z" />
<glyph glyph-name="y" unicode="&#x79;" horiz-adv-x="872" d="M64 -349C176 -349 250 -301 349 -133L1038 1040L982 1040L403 49L399 49L233 1040L183 1040L362 -17L306 -111C225 -250 160 -304 67 -304C58 -304 34 -302 17 -299L8 -343C28 -348 52 -349 64 -349Z" />
<glyph glyph-name="z" unicode="&#x7a;" horiz-adv-x="896" d="M8 0L779 0L788 45L86 45L87 49L991 994L1001 1040L230 1040L221 995L923 995L922 991L18 46Z" />
<glyph glyph-name="braceleft" unicode="&#x7b;" horiz-adv-x="582" d="M258 300L201 41C191 -4 186 -48 186 -87C186 -217 251 -299 407 -299L437 -299L446 -254L421 -254C298 -254 236 -202 236 -79C236 -45 242 -4 252 43L309 308C317 345 321 376 321 403C321 515 256 549 143 560L147 578C306 593 378 635 416 810L490 1156C531 1350 595 1398 754 1398L799 1398L809 1443L755 1443C564 1443 491 1387 441 1156L368 822C332 656 267 616 110 616L91 528C208 518 270 497 270 394C270 368 266 337 258 300Z" />
<glyph glyph-name="bar" unicode="&#x7c;" horiz-adv-x="582" d="M201 -299L571 1443L524 1443L153 -299Z" />
<glyph glyph-name="braceright" unicode="&#x7d;" horiz-adv-x="582" d="M466 845L523 1104C533 1149 539 1193 539 1232C539 1362 473 1444 317 1444L287 1444L278 1399L303 1399C426 1399 488 1347 488 1225C488 1190 482 1149 472 1102L415 837C407 801 403 770 403 743C403 630 468 596 581 585L577 567C418 552 346 510 309 335L235 -11C193 -204 129 -253 -30 -253L-75 -253L-85 -298L-31 -298C161 -298 234 -241 284 -11L356 323C392 489 458 529 614 529L634 617C517 627 454 648 454 752C454 778 458 808 466 845Z" />
<glyph glyph-name="asciitilde" unicode="&#x7e;" horiz-adv-x="1179" d="M861 547C989 547 1070 659 1095 822L1047 822C1027 693 964 593 863 593C726 593 676 830 514 830C383 830 295 710 275 554L323 554C343 682 410 784 511 784C648 784 698 547 861 547Z" />
<glyph glyph-name="nonbreakingspace" unicode="&#xa0;" horiz-adv-x="500" d="" />
<glyph glyph-name="exclamdown" unicode="&#xa1;" horiz-adv-x="500" d="M154 -340L372 692L318 692L99 -340ZM423 1112C395 1112 371 1088 371 1059C371 1031 395 1007 423 1007C452 1007 476 1031 476 1059C476 1088 452 1112 423 1112Z" />
<glyph glyph-name="cent" unicode="&#xa2;" horiz-adv-x="1179" d="M1077 404L1026 404C975 270 821 180 642 180C417 180 275 330 275 567C275 921 499 1199 785 1199C972 1199 1106 1093 1132 936L1181 936C1181 937 1181 938 1181 939C1156 1106 1017 1231 831 1243L876 1452L827 1452L781 1245C465 1240 225 945 225 559C225 322 364 159 584 136L536 -87L586 -87L633 133C852 134 1025 240 1077 404Z" />
<glyph glyph-name="sterling" unicode="&#xa3;" horiz-adv-x="1179" d="M1083 46L166 46L167 50C365 114 517 325 517 583C517 616 515 652 511 690L955 690L964 736L507 736C498 847 476 960 476 1040C476 1268 630 1426 893 1426C1022 1426 1147 1392 1249 1332L1251 1383C1144 1445 1018 1473 896 1473C608 1473 427 1315 427 1036C427 949 447 841 456 736L204 736L194 690L461 690C465 651 468 614 468 580C468 297 287 92 17 44L7 0L1073 0Z" />
<glyph glyph-name="currency" unicode="&#xa4;" horiz-adv-x="1179" d="M353 655C353 837 501 986 682 986C865 986 1012 837 1012 655C1012 475 865 325 682 325C523 325 353 473 353 655ZM1217 1069L1188 1105L955 914C887 986 790 1031 682 1031C602 1031 528 1006 467 963L358 1103L319 1072L430 933C355 865 307 765 307 655C307 574 333 499 377 437L140 241L169 205L407 400C476 326 574 279 682 279C760 279 833 303 893 345L1000 208L1038 239L931 374C1009 443 1059 544 1059 655C1059 739 1032 816 985 879Z" />
<glyph glyph-name="yen" unicode="&#xa5;" horiz-adv-x="1179" d="M1005 391L1015 436L657 436L704 656L1062 656L1071 700L742 700L1398 1443L1335 1443L689 706L685 706L348 1443L293 1443L636 700L304 700L294 656L654 656L607 436L247 436L238 391L598 391L515 0L565 0L648 391Z" />
<glyph glyph-name="brokenbar" unicode="&#xa6;" horiz-adv-x="582" d="M426 760L571 1443L524 1443L379 760ZM201 -299L346 385L299 385L153 -299Z" />
<glyph glyph-name="section" unicode="&#xa7;" horiz-adv-x="944" d="M435 379C282 438 216 501 216 599C216 732 359 854 551 855L667 812C837 748 903 680 903 575C903 433 771 328 588 320ZM409 -235C634 -235 798 -110 798 63C798 157 754 224 654 286L655 290C820 308 955 422 955 577C955 704 873 788 687 857L592 892C438 948 373 1013 373 1111C373 1243 509 1346 681 1346C845 1346 983 1251 999 1128L1047 1128C1033 1280 881 1391 686 1391C478 1391 321 1270 321 1109C321 1012 373 937 485 888L484 882C315 870 164 753 164 596C164 480 241 399 406 338L505 301C677 237 747 161 747 63C747 -83 605 -189 413 -189C227 -189 86 -93 66 45L14 45C28 -118 193 -235 409 -235Z" />
<glyph glyph-name="dieresis" unicode="&#xa8;" horiz-adv-x="811" d="M491 1251C520 1251 545 1275 545 1305C545 1334 520 1358 491 1358C462 1358 437 1334 437 1305C437 1275 462 1251 491 1251ZM768 1251C798 1251 822 1275 822 1305C822 1334 798 1358 768 1358C739 1358 714 1334 714 1305C714 1275 739 1251 768 1251Z" />
<glyph glyph-name="copyright" unicode="&#xa9;" horiz-adv-x="1736" d="M922 -138C1355 -138 1714 222 1714 657C1714 1091 1413 1390 979 1390C546 1390 187 1030 187 595C187 163 489 -138 922 -138ZM922 -92C515 -92 234 188 234 595C234 1005 572 1344 979 1344C1387 1344 1667 1066 1667 657C1667 247 1329 -92 922 -92ZM1331 774C1322 946 1186 1065 999 1065C753 1065 560 850 560 575C560 346 699 197 914 197C1070 197 1198 278 1255 412L1204 412C1156 305 1045 240 915 240C729 240 607 372 607 577C607 828 777 1022 994 1022C1158 1022 1276 922 1286 774Z" />
<glyph glyph-name="ordfeminine" unicode="&#xaa;" horiz-adv-x="678" d="M498 1093L743 1106L717 986C691 864 570 773 435 773C328 773 253 830 253 917C253 1021 341 1085 498 1093ZM206 913C206 805 299 732 425 732C535 732 643 789 692 873L694 873L667 741L712 741L810 1204C814 1225 817 1248 817 1264C817 1378 726 1453 585 1453C437 1453 324 1372 298 1247L345 1247C369 1348 460 1411 582 1411C699 1411 770 1354 770 1259C770 1242 768 1222 763 1205L750 1145L497 1132C312 1123 206 1042 206 913Z" />
<glyph glyph-name="guillemotleft" unicode="&#xab;" horiz-adv-x="1101" d="M575 158L291 560L293 567L755 978L685 978L225 572L224 565L513 158ZM919 158L636 559L638 565L1101 978L1031 978L569 570L568 564L857 158Z" />
<glyph glyph-name="logicalnot" unicode="&#xac;" horiz-adv-x="1179" d="M1175 723L210 723L200 677L1118 677L1012 183L1060 183Z" />
<glyph glyph-name="registered" unicode="&#xae;" horiz-adv-x="1078" d="M551 869L589 1047L715 1047L805 869L850 869L759 1050C843 1063 896 1118 896 1192C896 1267 843 1317 763 1317L606 1317L511 869ZM638 1280L759 1280C819 1280 856 1244 856 1188C856 1124 804 1082 723 1082L596 1082ZM700 668C938 668 1118 851 1118 1092C1118 1316 942 1488 713 1488C477 1488 296 1305 296 1066C296 843 474 668 700 668ZM700 706C499 706 337 865 337 1066C338 1286 500 1451 714 1451C917 1451 1077 1294 1078 1092C1078 871 915 706 700 706Z" />
<glyph glyph-name="macron" unicode="&#xaf;" horiz-adv-x="866" d="M921 1346L418 1346L409 1302L912 1302Z" />
<glyph glyph-name="degree" unicode="&#xb0;" horiz-adv-x="721" d="M564 939C708 939 827 1057 827 1201C827 1345 708 1463 564 1463C420 1463 302 1345 302 1201C302 1057 420 939 564 939ZM564 984C444 984 346 1081 346 1201C346 1320 444 1418 564 1418C685 1418 783 1320 783 1201C783 1081 685 984 564 984Z" />
<glyph glyph-name="plusminus" unicode="&#xb1;" horiz-adv-x="1179" d="M1045 113L1055 159L89 159L80 113ZM710 688L1168 688L1177 733L719 733L793 1077L743 1077L670 733L212 733L202 688L660 688L582 321L631 321Z" />
<glyph glyph-name="two.sups" unicode="&#xb2;" horiz-adv-x="540" d="M354 1633C355 1633 401 1633 401 1633L401 1633C418 1718 489 1776 575 1776C659 1776 721 1724 721 1651C721 1587 690 1546 551 1428L266 1184L258 1146L693 1146L701 1188L338 1188L338 1190L578 1394C729 1522 770 1576 770 1655C770 1747 686 1818 578 1818C464 1818 372 1743 354 1633Z" />
<glyph glyph-name="three.sups" unicode="&#xb3;" horiz-adv-x="542" d="M442 1468L515 1468C615 1468 680 1416 680 1336C680 1243 600 1178 486 1178C388 1178 316 1235 316 1312C316 1316 316 1322 318 1333L272 1333C269 1322 269 1312 269 1305C269 1209 362 1136 484 1136C626 1136 728 1220 728 1337C728 1414 679 1471 598 1484L599 1486C698 1499 766 1568 766 1655C766 1749 684 1818 574 1818C469 1818 383 1755 358 1661L406 1661C428 1730 494 1776 571 1776C656 1776 718 1724 718 1649C718 1569 643 1509 542 1509L451 1509Z" />
<glyph glyph-name="acute" unicode="&#xb4;" horiz-adv-x="811" d="M510 1251L823 1555L759 1555L451 1251Z" />
<glyph glyph-name="mugreek" unicode="&#xb5;" horiz-adv-x="1210" d="M33 -339L82 -339L195 194L199 194C205 75 327 -15 482 -15C650 -15 813 82 896 235L900 235C881 163 878 125 878 108C878 27 923 -9 1008 -9C1034 -9 1061 -6 1080 1L1090 46C1070 39 1044 36 1017 36C953 36 929 63 929 111C929 131 933 159 939 186L1117 1040L1069 1040L937 420C890 195 703 31 493 31C321 31 223 122 223 280C223 313 227 347 234 385L375 1040L326 1040Z" />
<glyph glyph-name="paragraph" unicode="&#xb6;" horiz-adv-x="1157" d="M681 -146L1019 1443L902 1443C619 1443 372 1261 372 966C372 754 530 596 784 572L631 -146ZM863 -146L913 -146L1251 1443L1201 1443Z" />
<glyph glyph-name="periodcentered" unicode="&#xb7;" horiz-adv-x="509" d="M314 463C345 463 371 489 371 520C371 551 345 577 314 577C282 577 257 551 257 520C257 489 282 463 314 463Z" />
<glyph glyph-name="cedilla" unicode="&#xb8;" horiz-adv-x="812" d="M226 -176L276 -181C366 -189 418 -228 418 -297C418 -375 353 -418 263 -418C197 -418 148 -403 106 -378L97 -422C140 -447 193 -463 262 -463C381 -463 466 -399 466 -293C466 -203 398 -150 283 -141L376 0L379 14L339 14L234 -143Z" />
<glyph glyph-name="one.sups" unicode="&#xb9;" horiz-adv-x="383" d="M415 1146L462 1146L604 1810L556 1810C496 1778 383 1711 351 1691L338 1639C387 1666 503 1735 542 1755L544 1755Z" />
<glyph glyph-name="ordmasculine" unicode="&#xba;" horiz-adv-x="725" d="M504 731C710 731 866 916 866 1160C866 1336 753 1453 582 1453C377 1453 221 1267 221 1022C221 846 333 731 504 731ZM818 1158C818 940 684 773 507 773C361 773 268 870 268 1024C268 1243 403 1411 580 1411C724 1411 818 1312 818 1158Z" />
<glyph glyph-name="guillemotright" unicode="&#xbb;" horiz-adv-x="1101" d="M666 978L949 575L947 569L485 158L556 158L1016 564L1017 570L727 978ZM322 977L605 577L603 570L140 158L210 158L671 565L673 572L383 977Z" />
<glyph glyph-name="onequarter" unicode="&#xbc;" horiz-adv-x="1321" d="M337 779L384 779L526 1443L478 1443C418 1411 305 1344 273 1324L260 1272C309 1299 425 1368 464 1388L466 1388ZM61 0L743 709L1449 1443L1389 1443L708 735L2 0ZM1091 0L1138 0L1172 160L1275 160L1284 202L1181 202L1279 664L1210 664C962 404 875 308 790 204L782 160L1125 160ZM843 203C935 315 1006 392 1221 616L1222 616L1134 201L843 201Z" />
<glyph glyph-name="onehalf" unicode="&#xbd;" horiz-adv-x="1359" d="M337 779L384 779L526 1443L478 1443C418 1411 305 1344 273 1324L260 1272C309 1299 425 1368 464 1388L466 1388ZM61 0L743 709L1449 1443L1389 1443L708 735L2 0ZM929 487C930 487 976 487 976 487L976 487C993 572 1064 630 1150 630C1234 630 1296 578 1296 505C1296 441 1265 400 1126 282L841 38L833 0L1268 0L1276 42L913 42L913 44L1153 248C1304 376 1345 430 1345 509C1345 601 1261 672 1153 672C1039 672 947 597 929 487Z" />
<glyph glyph-name="threequarters" unicode="&#xbe;" horiz-adv-x="1450" d="M364 1101L437 1101C537 1101 602 1049 602 969C602 876 522 811 408 811C310 811 238 868 238 945C238 949 238 955 240 966L194 966C191 955 191 945 191 938C191 842 284 769 406 769C548 769 650 853 650 970C650 1047 601 1104 520 1117L521 1119C620 1132 688 1201 688 1288C688 1382 606 1451 496 1451C391 1451 305 1388 280 1294L328 1294C350 1363 416 1409 493 1409C578 1409 640 1357 640 1282C640 1202 565 1142 464 1142L373 1142ZM191 0L873 709L1579 1443L1519 1443L838 735L132 0ZM1219 0L1266 0L1300 160L1403 160L1412 202L1309 202L1407 664L1338 664C1090 404 1003 308 918 204L910 160L1253 160ZM971 203C1063 315 1134 392 1349 616L1350 616L1262 201L971 201Z" />
<glyph glyph-name="questiondown" unicode="&#xbf;" horiz-adv-x="908" d="M788 -19L739 -19C692 -193 555 -307 375 -307C183 -307 71 -185 71 -24C71 125 159 242 341 311C497 370 568 447 600 595L624 712L573 712L549 599C523 472 456 399 313 346C121 276 19 141 19 -29C19 -210 157 -353 371 -353C584 -353 739 -222 788 -19ZM658 1119C630 1119 606 1095 606 1066C606 1037 630 1013 658 1013C687 1013 711 1037 711 1066C711 1095 687 1119 658 1119Z" />
<glyph glyph-name="Agrave" unicode="&#xc0;" horiz-adv-x="1201" d="M844 1375L848 1375L989 547L355 547ZM1082 0L1130 0L882 1443L831 1443L-30 0L29 0L328 502L996 502ZM843 1554L896 1554L721 1841L664 1841Z" />
<glyph glyph-name="Aacute" unicode="&#xc1;" horiz-adv-x="1201" d="M844 1375L848 1375L989 547L355 547ZM1082 0L1130 0L882 1443L831 1443L-30 0L29 0L328 502L996 502ZM907 1554L1266 1841L1196 1841L844 1554Z" />
<glyph glyph-name="Acircumflex" unicode="&#xc2;" horiz-adv-x="1201" d="M844 1375L848 1375L989 547L355 547ZM1082 0L1130 0L882 1443L831 1443L-30 0L29 0L328 502L996 502ZM957 1841L915 1841L596 1554L661 1554L930 1799L933 1799L1099 1554L1154 1554Z" />
<glyph glyph-name="Atilde" unicode="&#xc3;" horiz-adv-x="1201" d="M844 1375L848 1375L989 547L355 547ZM1082 0L1130 0L882 1443L831 1443L-30 0L29 0L328 502L996 502ZM1031 1553C1116 1553 1180 1622 1206 1752L1162 1752C1142 1652 1091 1597 1034 1597C924 1597 902 1764 770 1764C682 1764 610 1690 590 1565L634 1565C653 1663 706 1721 767 1721C877 1721 899 1553 1031 1553Z" />
<glyph glyph-name="Adieresis" unicode="&#xc4;" horiz-adv-x="1201" d="M844 1375L848 1375L989 547L355 547ZM1082 0L1130 0L882 1443L831 1443L-30 0L29 0L328 502L996 502ZM763 1601C792 1601 817 1625 817 1655C817 1684 792 1708 763 1708C734 1708 709 1684 709 1655C709 1625 734 1601 763 1601ZM1040 1601C1070 1601 1094 1625 1094 1655C1094 1684 1070 1708 1040 1708C1011 1708 986 1684 986 1655C986 1625 1011 1601 1040 1601Z" />
<glyph glyph-name="Aring" unicode="&#xc5;" horiz-adv-x="1201" d="M844 1375L848 1375L989 547L355 547ZM1082 0L1130 0L882 1443L831 1443L-30 0L29 0L328 502L996 502ZM917 1566C1008 1566 1081 1641 1081 1732C1081 1823 1008 1896 918 1896C827 1896 753 1822 753 1730C753 1640 827 1566 917 1566ZM917 1605C846 1605 792 1660 792 1731C792 1802 846 1858 918 1858C989 1858 1042 1802 1043 1732C1043 1661 988 1605 917 1605Z" />
<glyph glyph-name="AE" unicode="&#xc6;" horiz-adv-x="1832" d="M1220 1397L1020 458L355 458L1029 1397ZM922 0L1681 0L1691 47L982 47L1124 717L1797 717L1808 763L1135 763L1269 1396L1978 1396L1988 1443L1006 1443L-31 0L28 0L322 411L1010 411Z" />
<glyph glyph-name="Ccedilla" unicode="&#xc7;" horiz-adv-x="1342" d="M601 -143L593 -176L643 -181C733 -189 785 -228 785 -297C785 -375 720 -418 630 -418C564 -418 515 -403 473 -378L464 -422C507 -447 560 -463 629 -463C748 -463 833 -399 833 -293C833 -203 765 -150 650 -141L730 -20C1013 -20 1235 134 1323 392L1269 392C1186 163 986 27 733 27C425 27 219 245 219 571C219 1044 514 1416 890 1416C1184 1416 1371 1230 1375 975C1375 974 1375 974 1375 973L1425 973C1425 974 1425 974 1425 975C1421 1258 1212 1463 894 1463C482 1463 169 1074 169 565C169 232 375 2 684 -19Z" />
<glyph glyph-name="Egrave" unicode="&#xc8;" horiz-adv-x="1038" d="M916 47L141 47L283 718L1022 718L1033 764L293 764L427 1396L1203 1396L1213 1443L387 1443L80 0L906 0ZM788 1554L841 1554L666 1841L609 1841Z" />
<glyph glyph-name="Eacute" unicode="&#xc9;" horiz-adv-x="1038" d="M916 47L141 47L283 718L1022 718L1033 764L293 764L427 1396L1203 1396L1213 1443L387 1443L80 0L906 0ZM851 1554L1210 1841L1140 1841L788 1554Z" />
<glyph glyph-name="Ecircumflex" unicode="&#xca;" horiz-adv-x="1038" d="M916 47L141 47L283 718L1022 718L1033 764L293 764L427 1396L1203 1396L1213 1443L387 1443L80 0L906 0ZM901 1841L859 1841L540 1554L605 1554L874 1799L877 1799L1043 1554L1098 1554Z" />
<glyph glyph-name="Edieresis" unicode="&#xcb;" horiz-adv-x="1038" d="M916 47L141 47L283 718L1022 718L1033 764L293 764L427 1396L1203 1396L1213 1443L387 1443L80 0L906 0ZM707 1601C736 1601 761 1625 761 1655C761 1684 736 1708 707 1708C678 1708 653 1684 653 1655C653 1625 678 1601 707 1601ZM984 1601C1014 1601 1038 1625 1038 1655C1038 1684 1014 1708 984 1708C955 1708 930 1684 930 1655C930 1625 955 1601 984 1601Z" />
<glyph glyph-name="Igrave" unicode="&#xcc;" horiz-adv-x="311" d="M130 0L437 1443L387 1443L80 0ZM399 1554L452 1554L277 1841L220 1841Z" />
<glyph glyph-name="Iacute" unicode="&#xcd;" horiz-adv-x="311" d="M130 0L437 1443L387 1443L80 0ZM462 1554L821 1841L751 1841L399 1554Z" />
<glyph glyph-name="Icircumflex" unicode="&#xce;" horiz-adv-x="311" d="M130 0L437 1443L387 1443L80 0ZM513 1841L471 1841L152 1554L217 1554L486 1799L489 1799L655 1554L710 1554Z" />
<glyph glyph-name="Idieresis" unicode="&#xcf;" horiz-adv-x="311" d="M130 0L437 1443L387 1443L80 0ZM319 1601C348 1601 373 1625 373 1655C373 1684 348 1708 319 1708C290 1708 265 1684 265 1655C265 1625 290 1601 319 1601ZM596 1601C626 1601 650 1625 650 1655C650 1684 626 1708 596 1708C567 1708 542 1684 542 1655C542 1625 567 1601 596 1601Z" />
<glyph glyph-name="Eth" unicode="&#xd0;" horiz-adv-x="1348" d="M143 47L284 714L730 714L740 760L294 760L429 1396L806 1396C1156 1396 1337 1200 1337 882C1337 401 1019 47 534 47ZM387 1443L242 760L111 760L101 714L232 714L81 0L534 0C1052 0 1387 373 1387 888C1387 1225 1184 1443 812 1443Z" />
<glyph glyph-name="Ntilde" unicode="&#xd1;" horiz-adv-x="1332" d="M130 0L419 1362L423 1362L1102 0L1150 0L1457 1443L1407 1443L1118 81L1114 81L435 1443L387 1443L80 0ZM1093 1553C1178 1553 1242 1622 1268 1752L1224 1752C1204 1652 1153 1597 1096 1597C986 1597 964 1764 832 1764C744 1764 672 1690 652 1565L696 1565C715 1663 768 1721 829 1721C939 1721 961 1553 1093 1553Z" />
<glyph glyph-name="Ograve" unicode="&#xd2;" horiz-adv-x="1436" d="M899 1416C1210 1416 1419 1198 1419 853C1419 389 1122 27 742 27C431 27 222 245 222 590C222 1054 519 1416 899 1416ZM738 -20C1153 -20 1469 360 1469 859C1469 1224 1240 1463 903 1463C487 1463 171 1083 171 584C171 219 401 -20 738 -20ZM891 1554L944 1554L769 1841L712 1841Z" />
<glyph glyph-name="Oacute" unicode="&#xd3;" horiz-adv-x="1436" d="M899 1416C1210 1416 1419 1198 1419 853C1419 389 1122 27 742 27C431 27 222 245 222 590C222 1054 519 1416 899 1416ZM738 -20C1153 -20 1469 360 1469 859C1469 1224 1240 1463 903 1463C487 1463 171 1083 171 584C171 219 401 -20 738 -20ZM955 1554L1314 1841L1244 1841L892 1554Z" />
<glyph glyph-name="Ocircumflex" unicode="&#xd4;" horiz-adv-x="1436" d="M899 1416C1210 1416 1419 1198 1419 853C1419 389 1122 27 742 27C431 27 222 245 222 590C222 1054 519 1416 899 1416ZM738 -20C1153 -20 1469 360 1469 859C1469 1224 1240 1463 903 1463C487 1463 171 1083 171 584C171 219 401 -20 738 -20ZM1005 1841L963 1841L644 1554L709 1554L978 1799L981 1799L1147 1554L1202 1554Z" />
<glyph glyph-name="Otilde" unicode="&#xd5;" horiz-adv-x="1436" d="M899 1416C1210 1416 1419 1198 1419 853C1419 389 1122 27 742 27C431 27 222 245 222 590C222 1054 519 1416 899 1416ZM738 -20C1153 -20 1469 360 1469 859C1469 1224 1240 1463 903 1463C487 1463 171 1083 171 584C171 219 401 -20 738 -20ZM1079 1553C1164 1553 1228 1622 1254 1752L1210 1752C1190 1652 1139 1597 1082 1597C972 1597 950 1764 818 1764C730 1764 658 1690 638 1565L682 1565C701 1663 754 1721 815 1721C925 1721 947 1553 1079 1553Z" />
<glyph glyph-name="Odieresis" unicode="&#xd6;" horiz-adv-x="1436" d="M899 1416C1210 1416 1419 1198 1419 853C1419 389 1122 27 742 27C431 27 222 245 222 590C222 1054 519 1416 899 1416ZM738 -20C1153 -20 1469 360 1469 859C1469 1224 1240 1463 903 1463C487 1463 171 1083 171 584C171 219 401 -20 738 -20ZM811 1601C840 1601 865 1625 865 1655C865 1684 840 1708 811 1708C782 1708 757 1684 757 1655C757 1625 782 1601 811 1601ZM1088 1601C1118 1601 1142 1625 1142 1655C1142 1684 1118 1708 1088 1708C1059 1708 1034 1684 1034 1655C1034 1625 1059 1601 1088 1601Z" />
<glyph glyph-name="multiply" unicode="&#xd7;" horiz-adv-x="1179" d="M911 222L950 253L695 576L1092 903L1062 940L666 614L410 938L371 907L627 581L231 255L262 218L657 545Z" />
<glyph glyph-name="Oslash" unicode="&#xd8;" horiz-adv-x="1436" d="M1327 1198C1386 1107 1419 990 1419 853C1419 389 1122 27 742 27C571 27 431 93 339 210ZM314 245C255 336 222 453 222 590C222 1054 519 1416 899 1416C1070 1416 1210 1350 1302 1233ZM1528 1399L1497 1429L1337 1269C1237 1392 1086 1463 903 1463C487 1463 171 1083 171 584C171 435 209 308 277 208L113 44L144 14L303 173C403 51 555 -20 738 -20C1153 -20 1469 360 1469 859C1469 1007 1431 1135 1363 1234Z" />
<glyph glyph-name="Ugrave" unicode="&#xd9;" horiz-adv-x="1337" d="M663 -20C972 -20 1187 154 1251 455L1463 1443L1413 1443L1202 461C1144 190 944 27 667 27C406 27 233 179 233 406C233 452 238 507 246 542L439 1443L389 1443L196 545C187 499 182 452 182 402C183 152 375 -20 663 -20ZM912 1554L965 1554L790 1841L733 1841Z" />
<glyph glyph-name="Uacute" unicode="&#xda;" horiz-adv-x="1337" d="M663 -20C972 -20 1187 154 1251 455L1463 1443L1413 1443L1202 461C1144 190 944 27 667 27C406 27 233 179 233 406C233 452 238 507 246 542L439 1443L389 1443L196 545C187 499 182 452 182 402C183 152 375 -20 663 -20ZM975 1554L1334 1841L1264 1841L912 1554Z" />
<glyph glyph-name="Ucircumflex" unicode="&#xdb;" horiz-adv-x="1337" d="M663 -20C972 -20 1187 154 1251 455L1463 1443L1413 1443L1202 461C1144 190 944 27 667 27C406 27 233 179 233 406C233 452 238 507 246 542L439 1443L389 1443L196 545C187 499 182 452 182 402C183 152 375 -20 663 -20ZM1025 1841L983 1841L664 1554L729 1554L998 1799L1001 1799L1167 1554L1222 1554Z" />
<glyph glyph-name="Udieresis" unicode="&#xdc;" horiz-adv-x="1337" d="M663 -20C972 -20 1187 154 1251 455L1463 1443L1413 1443L1202 461C1144 190 944 27 667 27C406 27 233 179 233 406C233 452 238 507 246 542L439 1443L389 1443L196 545C187 499 182 452 182 402C183 152 375 -20 663 -20ZM831 1601C860 1601 885 1625 885 1655C885 1684 860 1708 831 1708C802 1708 777 1684 777 1655C777 1625 802 1601 831 1601ZM1108 1601C1138 1601 1162 1625 1162 1655C1162 1684 1138 1708 1108 1708C1079 1708 1054 1684 1054 1655C1054 1625 1079 1601 1108 1601Z" />
<glyph glyph-name="Yacute" unicode="&#xdd;" horiz-adv-x="1144" d="M548 0L681 629L1380 1443L1317 1443L666 685L662 685L331 1443L277 1443L631 632L497 0ZM878 1554L1237 1841L1167 1841L815 1554Z" />
<glyph glyph-name="Thorn" unicode="&#xde;" horiz-adv-x="1133" d="M71 0L122 0L197 355L623 355C959 355 1158 546 1158 817C1158 997 1012 1152 768 1152L367 1152L429 1443L378 1443ZM357 1105L758 1105C990 1105 1108 967 1108 810C1108 576 929 401 631 401L208 401Z" />
<glyph glyph-name="germandbls" unicode="&#xdf;" horiz-adv-x="1046" d="M131 0L362 1088C401 1271 536 1386 711 1386C887 1386 1009 1276 1009 1115C1009 932 838 779 635 779L510 779L500 730L601 730C823 730 976 597 976 403C976 185 804 30 563 30C493 30 412 43 340 67L329 20C406 -5 491 -18 568 -18C834 -18 1029 160 1029 404C1029 590 902 730 716 752L717 755C913 778 1061 936 1061 1124C1061 1305 917 1432 712 1432C509 1432 363 1308 317 1096L83 0Z" />
<glyph glyph-name="agrave" unicode="&#xe0;" horiz-adv-x="966" d="M413 30C246 30 133 121 133 255C133 418 271 518 516 531L879 552L837 361C796 170 615 30 413 30ZM407 -15C571 -15 725 71 801 205L805 204L761 0L810 0L957 688C964 721 967 752 967 778C967 946 835 1056 631 1056C412 1056 249 936 211 749L262 749C296 910 436 1010 628 1010C809 1010 917 921 917 774C917 750 913 721 907 689L887 596L516 574C239 558 83 442 83 251C83 94 216 -15 407 -15ZM703 1251L525 1555L470 1555L654 1251Z" />
<glyph glyph-name="aacute" unicode="&#xe1;" horiz-adv-x="966" d="M413 30C246 30 133 121 133 255C133 418 271 518 516 531L879 552L837 361C796 170 615 30 413 30ZM407 -15C571 -15 725 71 801 205L805 204L761 0L810 0L957 688C964 721 967 752 967 778C967 946 835 1056 631 1056C412 1056 249 936 211 749L262 749C296 910 436 1010 628 1010C809 1010 917 921 917 774C917 750 913 721 907 689L887 596L516 574C239 558 83 442 83 251C83 94 216 -15 407 -15ZM706 1251L1019 1555L955 1555L647 1251Z" />
<glyph glyph-name="acircumflex" unicode="&#xe2;" horiz-adv-x="966" d="M413 30C246 30 133 121 133 255C133 418 271 518 516 531L879 552L837 361C796 170 615 30 413 30ZM407 -15C571 -15 725 71 801 205L805 204L761 0L810 0L957 688C964 721 967 752 967 778C967 946 835 1056 631 1056C412 1056 249 936 211 749L262 749C296 910 436 1010 628 1010C809 1010 917 921 917 774C917 750 913 721 907 689L887 596L516 574C239 558 83 442 83 251C83 94 216 -15 407 -15ZM763 1555L711 1555L392 1251L457 1251L731 1514L733 1514L894 1251L951 1251Z" />
<glyph glyph-name="atilde" unicode="&#xe3;" horiz-adv-x="966" d="M413 30C246 30 133 121 133 255C133 418 271 518 516 531L879 552L837 361C796 170 615 30 413 30ZM407 -15C571 -15 725 71 801 205L805 204L761 0L810 0L957 688C964 721 967 752 967 778C967 946 835 1056 631 1056C412 1056 249 936 211 749L262 749C296 910 436 1010 628 1010C809 1010 917 921 917 774C917 750 913 721 907 689L887 596L516 574C239 558 83 442 83 251C83 94 216 -15 407 -15ZM830 1251C915 1251 979 1320 1005 1450L961 1450C941 1350 890 1295 833 1295C723 1295 701 1462 569 1462C481 1462 409 1388 389 1263L433 1263C452 1361 505 1419 566 1419C676 1419 698 1251 830 1251Z" />
<glyph glyph-name="adieresis" unicode="&#xe4;" horiz-adv-x="966" d="M413 30C246 30 133 121 133 255C133 418 271 518 516 531L879 552L837 361C796 170 615 30 413 30ZM407 -15C571 -15 725 71 801 205L805 204L761 0L810 0L957 688C964 721 967 752 967 778C967 946 835 1056 631 1056C412 1056 249 936 211 749L262 749C296 910 436 1010 628 1010C809 1010 917 921 917 774C917 750 913 721 907 689L887 596L516 574C239 558 83 442 83 251C83 94 216 -15 407 -15ZM548 1251C577 1251 602 1275 602 1305C602 1334 577 1358 548 1358C519 1358 494 1334 494 1305C494 1275 519 1251 548 1251ZM825 1251C855 1251 879 1275 879 1305C879 1334 855 1358 825 1358C796 1358 771 1334 771 1305C771 1275 796 1251 825 1251Z" />
<glyph glyph-name="aring" unicode="&#xe5;" horiz-adv-x="966" d="M413 30C246 30 133 121 133 255C133 418 271 518 516 531L879 552L837 361C796 170 615 30 413 30ZM407 -15C571 -15 725 71 801 205L805 204L761 0L810 0L957 688C964 721 967 752 967 778C967 946 835 1056 631 1056C412 1056 249 936 211 749L262 749C296 910 436 1010 628 1010C809 1010 917 921 917 774C917 750 913 721 907 689L887 596L516 574C239 558 83 442 83 251C83 94 216 -15 407 -15ZM692 1163C783 1163 856 1238 856 1329C856 1420 783 1493 693 1493C602 1493 528 1419 528 1327C528 1237 602 1163 692 1163ZM692 1202C621 1202 567 1257 567 1328C567 1399 621 1455 693 1455C764 1455 817 1399 818 1329C818 1258 763 1202 692 1202Z" />
<glyph glyph-name="ae" unicode="&#xe6;" horiz-adv-x="1801" d="M1295 -16C1500 -16 1666 82 1724 238L1673 238C1612 106 1475 30 1299 30C1078 30 938 177 938 399C938 437 944 489 950 530L1800 530C1808 568 1814 603 1814 653C1814 880 1653 1056 1431 1056C1249 1056 1084 950 993 780L989 780C985 946 863 1056 657 1056C438 1056 269 934 233 749L284 749C316 907 463 1010 655 1010C835 1010 944 921 944 774C944 748 940 719 933 689L910 579L525 559C250 545 96 443 96 251C96 95 228 -16 419 -16C593 -16 815 84 896 311L899 311C931 113 1081 -16 1295 -16ZM959 574C1022 842 1215 1010 1428 1010C1624 1010 1765 853 1765 652C1765 612 1761 590 1758 574ZM425 30C258 30 145 122 145 255C145 417 279 501 525 515L902 536L864 361C823 175 633 30 425 30Z" />
<glyph glyph-name="ccedilla" unicode="&#xe7;" horiz-adv-x="1000" d="M401 -143L393 -176L443 -181C533 -189 585 -228 585 -297C585 -375 520 -418 430 -418C364 -418 315 -403 273 -378L264 -422C307 -447 360 -463 429 -463C548 -463 633 -399 633 -293C633 -203 565 -150 450 -141L532 -16C728 -16 886 92 958 270L907 270C844 124 701 30 532 30C317 30 171 187 171 422C171 753 379 1010 648 1010C832 1010 965 895 986 725L1035 725C1035 726 1035 725 1035 726C1014 922 861 1056 648 1056C348 1056 121 781 121 420C121 176 265 6 487 -14Z" />
<glyph glyph-name="egrave" unicode="&#xe8;" horiz-adv-x="1017" d="M183 562C226 826 416 1010 648 1010C856 1010 984 870 984 653C984 610 982 590 975 562ZM518 -16C735 -16 902 99 966 290L914 290C854 125 711 30 522 30C303 30 165 176 165 410C165 435 168 472 175 517L1016 517C1026 554 1032 608 1032 654C1032 901 885 1056 651 1056C344 1056 115 777 115 405C115 149 270 -16 518 -16ZM761 1251L583 1555L528 1555L712 1251Z" />
<glyph glyph-name="eacute" unicode="&#xe9;" horiz-adv-x="1017" d="M183 562C226 826 416 1010 648 1010C856 1010 984 870 984 653C984 610 982 590 975 562ZM518 -16C735 -16 902 99 966 290L914 290C854 125 711 30 522 30C303 30 165 176 165 410C165 435 168 472 175 517L1016 517C1026 554 1032 608 1032 654C1032 901 885 1056 651 1056C344 1056 115 777 115 405C115 149 270 -16 518 -16ZM764 1251L1077 1555L1013 1555L705 1251Z" />
<glyph glyph-name="ecircumflex" unicode="&#xea;" horiz-adv-x="1017" d="M183 562C226 826 416 1010 648 1010C856 1010 984 870 984 653C984 610 982 590 975 562ZM518 -16C735 -16 902 99 966 290L914 290C854 125 711 30 522 30C303 30 165 176 165 410C165 435 168 472 175 517L1016 517C1026 554 1032 608 1032 654C1032 901 885 1056 651 1056C344 1056 115 777 115 405C115 149 270 -16 518 -16ZM821 1555L769 1555L450 1251L515 1251L789 1514L791 1514L952 1251L1009 1251Z" />
<glyph glyph-name="edieresis" unicode="&#xeb;" horiz-adv-x="1017" d="M183 562C226 826 416 1010 648 1010C856 1010 984 870 984 653C984 610 982 590 975 562ZM518 -16C735 -16 902 99 966 290L914 290C854 125 711 30 522 30C303 30 165 176 165 410C165 435 168 472 175 517L1016 517C1026 554 1032 608 1032 654C1032 901 885 1056 651 1056C344 1056 115 777 115 405C115 149 270 -16 518 -16ZM606 1251C635 1251 660 1275 660 1305C660 1334 635 1358 606 1358C577 1358 552 1334 552 1305C552 1275 577 1251 606 1251ZM883 1251C913 1251 937 1275 937 1305C937 1334 913 1358 883 1358C854 1358 829 1334 829 1305C829 1275 854 1251 883 1251Z" />
<glyph glyph-name="igrave" unicode="&#xec;" horiz-adv-x="286" d="M68 0L117 0L338 1040L289 1040ZM385 1251L207 1555L152 1555L336 1251Z" />
<glyph glyph-name="iacute" unicode="&#xed;" horiz-adv-x="286" d="M68 0L117 0L338 1040L289 1040ZM388 1251L701 1555L637 1555L329 1251Z" />
<glyph glyph-name="icircumflex" unicode="&#xee;" horiz-adv-x="286" d="M68 0L117 0L338 1040L289 1040ZM445 1555L393 1555L74 1251L139 1251L413 1514L415 1514L576 1251L633 1251Z" />
<glyph glyph-name="idieresis" unicode="&#xef;" horiz-adv-x="286" d="M68 0L117 0L338 1040L289 1040ZM230 1251C259 1251 284 1275 284 1305C284 1334 259 1358 230 1358C201 1358 176 1334 176 1305C176 1275 201 1251 230 1251ZM507 1251C537 1251 561 1275 561 1305C561 1334 537 1358 507 1358C478 1358 453 1334 453 1305C453 1275 478 1251 507 1251Z" />
<glyph glyph-name="eth" unicode="&#xf0;" horiz-adv-x="1035" d="M498 -16C764 -16 966 183 1029 510C1052 630 1060 720 1060 800C1060 974 1016 1121 924 1254L1198 1363L1191 1403L901 1288C850 1349 798 1396 751 1427L682 1427C740 1391 801 1338 858 1272L565 1160L572 1120L882 1239C969 1116 1013 975 1013 814C1013 798 1012 768 1011 762L1007 762C965 915 827 1018 647 1018C338 1018 112 751 112 383C112 152 271 -16 498 -16ZM987 634C987 297 773 30 506 30C296 30 163 172 163 394C163 723 369 971 641 971C847 971 987 839 987 634Z" />
<glyph glyph-name="ntilde" unicode="&#xf1;" horiz-adv-x="1034" d="M63 0L113 0L251 645C293 843 461 1010 672 1010C858 1010 976 899 976 736C976 703 970 668 962 629L828 0L878 0L1015 640C1023 677 1026 712 1026 745C1026 924 888 1056 683 1056C507 1056 371 959 290 818L286 818L333 1040L284 1040ZM877 1251C962 1251 1026 1320 1052 1450L1008 1450C988 1350 937 1295 880 1295C770 1295 748 1462 616 1462C528 1462 456 1388 436 1263L480 1263C499 1361 552 1419 613 1419C723 1419 745 1251 877 1251Z" />
<glyph glyph-name="ograve" unicode="&#xf2;" horiz-adv-x="1076" d="M540 30C317 30 171 186 171 422C171 756 381 1010 655 1010C879 1010 1024 854 1024 618C1024 284 814 30 540 30ZM655 1056C351 1056 121 785 121 420C121 158 286 -16 540 -16C845 -16 1074 255 1074 620C1074 882 909 1056 655 1056ZM772 1251L594 1555L539 1555L723 1251Z" />
<glyph glyph-name="oacute" unicode="&#xf3;" horiz-adv-x="1076" d="M540 30C317 30 171 186 171 422C171 756 381 1010 655 1010C879 1010 1024 854 1024 618C1024 284 814 30 540 30ZM655 1056C351 1056 121 785 121 420C121 158 286 -16 540 -16C845 -16 1074 255 1074 620C1074 882 909 1056 655 1056ZM775 1251L1088 1555L1024 1555L716 1251Z" />
<glyph glyph-name="ocircumflex" unicode="&#xf4;" horiz-adv-x="1076" d="M540 30C317 30 171 186 171 422C171 756 381 1010 655 1010C879 1010 1024 854 1024 618C1024 284 814 30 540 30ZM655 1056C351 1056 121 785 121 420C121 158 286 -16 540 -16C845 -16 1074 255 1074 620C1074 882 909 1056 655 1056ZM832 1555L780 1555L461 1251L526 1251L800 1514L802 1514L963 1251L1020 1251Z" />
<glyph glyph-name="otilde" unicode="&#xf5;" horiz-adv-x="1076" d="M540 30C317 30 171 186 171 422C171 756 381 1010 655 1010C879 1010 1024 854 1024 618C1024 284 814 30 540 30ZM655 1056C351 1056 121 785 121 420C121 158 286 -16 540 -16C845 -16 1074 255 1074 620C1074 882 909 1056 655 1056ZM899 1251C984 1251 1048 1320 1074 1450L1030 1450C1010 1350 959 1295 902 1295C792 1295 770 1462 638 1462C550 1462 478 1388 458 1263L502 1263C521 1361 574 1419 635 1419C745 1419 767 1251 899 1251Z" />
<glyph glyph-name="odieresis" unicode="&#xf6;" horiz-adv-x="1076" d="M540 30C317 30 171 186 171 422C171 756 381 1010 655 1010C879 1010 1024 854 1024 618C1024 284 814 30 540 30ZM655 1056C351 1056 121 785 121 420C121 158 286 -16 540 -16C845 -16 1074 255 1074 620C1074 882 909 1056 655 1056ZM617 1251C646 1251 671 1275 671 1305C671 1334 646 1358 617 1358C588 1358 563 1334 563 1305C563 1275 588 1251 617 1251ZM894 1251C924 1251 948 1275 948 1305C948 1334 924 1358 894 1358C865 1358 840 1334 840 1305C840 1275 865 1251 894 1251Z" />
<glyph glyph-name="divide" unicode="&#xf7;" horiz-adv-x="1179" d="M1141 555L1151 600L181 600L172 555ZM728 841C767 841 799 873 799 911C799 951 767 981 728 981C690 981 658 951 658 911C658 873 690 841 728 841ZM578 152C617 152 649 184 649 222C649 262 617 292 578 292C540 292 508 262 508 222C508 184 540 152 578 152Z" />
<glyph glyph-name="oslash" unicode="&#xf8;" horiz-adv-x="1076" d="M961 854C1002 791 1024 711 1024 618C1024 284 814 30 540 30C421 30 324 75 259 152ZM234 186C193 249 171 330 171 422C171 756 381 1010 655 1010C775 1010 872 966 936 888ZM1113 1006L1083 1035L971 923C898 1008 789 1056 655 1056C351 1056 121 785 121 420C121 313 148 221 198 150L82 34L112 5L224 117C297 32 406 -16 540 -16C845 -16 1074 255 1074 620C1074 727 1047 819 997 890Z" />
<glyph glyph-name="ugrave" unicode="&#xf9;" horiz-adv-x="1034" d="M1091 1040L1042 1040L904 395C862 197 694 30 481 30C295 30 179 142 179 305C179 338 184 375 192 411L326 1040L277 1040L140 400C133 363 129 329 129 295C129 118 264 -16 472 -16C648 -16 786 82 866 220L869 220L822 0L870 0ZM737 1251L559 1555L504 1555L688 1251Z" />
<glyph glyph-name="uacute" unicode="&#xfa;" horiz-adv-x="1034" d="M1091 1040L1042 1040L904 395C862 197 694 30 481 30C295 30 179 142 179 305C179 338 184 375 192 411L326 1040L277 1040L140 400C133 363 129 329 129 295C129 118 264 -16 472 -16C648 -16 786 82 866 220L869 220L822 0L870 0ZM740 1251L1053 1555L989 1555L681 1251Z" />
<glyph glyph-name="ucircumflex" unicode="&#xfb;" horiz-adv-x="1034" d="M1091 1040L1042 1040L904 395C862 197 694 30 481 30C295 30 179 142 179 305C179 338 184 375 192 411L326 1040L277 1040L140 400C133 363 129 329 129 295C129 118 264 -16 472 -16C648 -16 786 82 866 220L869 220L822 0L870 0ZM797 1555L745 1555L426 1251L491 1251L765 1514L767 1514L928 1251L985 1251Z" />
<glyph glyph-name="udieresis" unicode="&#xfc;" horiz-adv-x="1034" d="M1091 1040L1042 1040L904 395C862 197 694 30 481 30C295 30 179 142 179 305C179 338 184 375 192 411L326 1040L277 1040L140 400C133 363 129 329 129 295C129 118 264 -16 472 -16C648 -16 786 82 866 220L869 220L822 0L870 0ZM582 1251C611 1251 636 1275 636 1305C636 1334 611 1358 582 1358C553 1358 528 1334 528 1305C528 1275 553 1251 582 1251ZM859 1251C889 1251 913 1275 913 1305C913 1334 889 1358 859 1358C830 1358 805 1334 805 1305C805 1275 830 1251 859 1251Z" />
<glyph glyph-name="yacute" unicode="&#xfd;" horiz-adv-x="872" d="M64 -349C176 -349 250 -301 349 -133L1038 1040L982 1040L403 49L399 49L233 1040L183 1040L362 -17L306 -111C225 -250 160 -304 67 -304C58 -304 34 -302 17 -299L8 -343C28 -348 52 -349 64 -349ZM680 1251L993 1555L929 1555L621 1251Z" />
<glyph glyph-name="thorn" unicode="&#xfe;" horiz-adv-x="1096" d="M574 30C365 30 225 182 225 408C225 733 445 1010 707 1010C918 1010 1049 859 1049 615C1049 288 839 30 574 30ZM193 324L195 324C212 126 368 -15 572 -15C869 -15 1098 259 1098 615C1098 882 947 1055 716 1055C544 1055 385 954 295 786L291 786L430 1444L380 1444L-6 -378L43 -378Z" />
<glyph glyph-name="ydieresis" unicode="&#xff;" horiz-adv-x="872" d="M64 -349C176 -349 250 -301 349 -133L1038 1040L982 1040L403 49L399 49L233 1040L183 1040L362 -17L306 -111C225 -250 160 -304 67 -304C58 -304 34 -302 17 -299L8 -343C28 -348 52 -349 64 -349ZM522 1251C551 1251 576 1275 576 1305C576 1334 551 1358 522 1358C493 1358 468 1334 468 1305C468 1275 493 1251 522 1251ZM799 1251C829 1251 853 1275 853 1305C853 1334 829 1358 799 1358C770 1358 745 1334 745 1305C745 1275 770 1251 799 1251Z" />
<glyph glyph-name="Amacron" unicode="&#x0100;" horiz-adv-x="1201" d="M844 1375L848 1375L989 547L355 547ZM1082 0L1130 0L882 1443L831 1443L-30 0L29 0L328 502L996 502ZM1194 1659L611 1659L602 1615L1185 1615Z" />
<glyph glyph-name="amacron" unicode="&#x0101;" horiz-adv-x="966" d="M413 30C246 30 133 121 133 255C133 418 271 518 516 531L879 552L837 361C796 170 615 30 413 30ZM407 -15C571 -15 725 71 801 205L805 204L761 0L810 0L957 688C964 721 967 752 967 778C967 946 835 1056 631 1056C412 1056 249 936 211 749L262 749C296 910 436 1010 628 1010C809 1010 917 921 917 774C917 750 913 721 907 689L887 596L516 574C239 558 83 442 83 251C83 94 216 -15 407 -15ZM946 1346L443 1346L434 1302L937 1302Z" />
<glyph glyph-name="Abreve" unicode="&#x0102;" horiz-adv-x="1201" d="M844 1375L848 1375L989 547L355 547ZM1082 0L1130 0L882 1443L831 1443L-30 0L29 0L328 502L996 502ZM643 1771C642 1769 642 1757 642 1755C642 1633 737 1553 880 1553C1029 1553 1140 1640 1154 1771L1108 1771C1095 1666 1007 1596 889 1596C767 1596 688 1659 688 1759C688 1760 688 1770 689 1771Z" />
<glyph glyph-name="abreve" unicode="&#x0103;" horiz-adv-x="966" d="M413 30C246 30 133 121 133 255C133 418 271 518 516 531L879 552L837 361C796 170 615 30 413 30ZM407 -15C571 -15 725 71 801 205L805 204L761 0L810 0L957 688C964 721 967 752 967 778C967 946 835 1056 631 1056C412 1056 249 936 211 749L262 749C296 910 436 1010 628 1010C809 1010 917 921 917 774C917 750 913 721 907 689L887 596L516 574C239 558 83 442 83 251C83 94 216 -15 407 -15ZM438 1487C437 1475 436 1464 436 1453C436 1330 532 1250 678 1250C829 1250 938 1347 947 1487L901 1487C893 1371 805 1293 683 1293C558 1293 482 1356 482 1456C482 1467 483 1476 484 1487Z" />
<glyph glyph-name="Aogonek" unicode="&#x0104;" horiz-adv-x="1201" d="M1050 -327C1035 -335 1010 -339 982 -339C912 -339 861 -294 861 -235C861 -144 949 -67 1129 -4L1130 -3L882 1443L831 1443L-30 0L30 0L328 502L995 502L1081 12C907 -47 812 -137 812 -243C812 -324 877 -383 968 -383C994 -383 1025 -378 1041 -371ZM843 1374L847 1374L988 547L354 547Z" />
<glyph glyph-name="aogonek" unicode="&#x0105;" horiz-adv-x="966" d="M411 30C245 30 133 122 133 255C133 418 271 518 516 531L879 552L837 361C797 174 620 30 411 30ZM720 -371L729 -329C714 -337 688 -341 659 -341C590 -341 540 -298 540 -239C540 -157 625 -83 809 -4L809 -4L957 688C963 716 967 748 967 778C967 946 834 1056 631 1056C411 1056 249 935 211 749L262 749C296 909 435 1009 628 1009C808 1009 917 921 917 774C917 749 913 720 907 689L887 596L516 574C240 558 83 443 83 251C83 95 215 -15 405 -15C575 -15 727 75 801 205L805 204L765 16C580 -59 491 -145 491 -246C491 -326 556 -384 645 -384C672 -384 704 -379 720 -371Z" />
<glyph glyph-name="Cacute" unicode="&#x0106;" horiz-adv-x="1342" d="M1375 973L1425 973C1425 974 1425 974 1425 975C1421 1258 1212 1463 894 1463C482 1463 169 1074 169 565C169 216 395 -20 729 -20C1013 -20 1235 134 1323 392L1269 392C1186 163 986 27 733 27C425 27 219 245 219 571C219 1044 514 1416 890 1416C1184 1416 1371 1230 1375 975C1375 974 1375 974 1375 973ZM972 1554L1331 1841L1261 1841L909 1554Z" />
<glyph glyph-name="cacute" unicode="&#x0107;" horiz-adv-x="1000" d="M648 1056C348 1056 121 781 121 420C121 160 284 -16 532 -16C728 -16 886 92 958 270L907 270C844 124 701 30 532 30C317 30 171 187 171 422C171 753 379 1010 648 1010C832 1010 965 895 986 725L1035 725C1035 726 1035 725 1035 726C1014 922 861 1056 648 1056ZM774 1251L1087 1555L1023 1555L715 1251Z" />
<glyph glyph-name="Ccircumflex" unicode="&#x0108;" horiz-adv-x="1342" d="M1375 973L1425 973C1425 974 1425 974 1425 975C1421 1258 1212 1463 894 1463C482 1463 169 1074 169 565C169 216 395 -20 729 -20C1013 -20 1235 134 1323 392L1269 392C1186 163 986 27 733 27C425 27 219 245 219 571C219 1044 514 1416 890 1416C1184 1416 1371 1230 1375 975C1375 974 1375 974 1375 973ZM1022 1841L980 1841L661 1554L726 1554L995 1799L998 1799L1164 1554L1219 1554Z" />
<glyph glyph-name="ccircumflex" unicode="&#x0109;" horiz-adv-x="1000" d="M648 1056C348 1056 121 781 121 420C121 160 284 -16 532 -16C728 -16 886 92 958 270L907 270C844 124 701 30 532 30C317 30 171 187 171 422C171 753 379 1010 648 1010C832 1010 965 895 986 725L1035 725C1035 726 1035 725 1035 726C1014 922 861 1056 648 1056ZM831 1555L779 1555L460 1251L525 1251L799 1514L801 1514L962 1251L1019 1251Z" />
<glyph glyph-name="Cdotaccent" unicode="&#x010a;" horiz-adv-x="1342" d="M1375 973L1425 973C1425 974 1425 974 1425 975C1421 1258 1212 1463 894 1463C482 1463 169 1074 169 565C169 216 395 -20 729 -20C1013 -20 1235 134 1323 392L1269 392C1186 163 986 27 733 27C425 27 219 245 219 571C219 1044 514 1416 890 1416C1184 1416 1371 1230 1375 975C1375 974 1375 974 1375 973ZM977 1654C1011 1654 1041 1683 1041 1717C1041 1752 1011 1781 977 1781C942 1781 912 1752 912 1717C912 1683 942 1654 977 1654Z" />
<glyph glyph-name="cdotaccent" unicode="&#x010b;" horiz-adv-x="1000" d="M648 1056C348 1056 121 781 121 420C121 160 284 -16 532 -16C728 -16 886 92 958 270L907 270C844 124 701 30 532 30C317 30 171 187 171 422C171 753 379 1010 648 1010C832 1010 965 895 986 725L1035 725C1035 726 1035 725 1035 726C1014 922 861 1056 648 1056ZM754 1251C789 1251 819 1280 819 1314C819 1349 789 1378 754 1378C720 1378 690 1349 690 1314C690 1280 720 1251 754 1251Z" />
<glyph glyph-name="Ccaron" unicode="&#x010c;" horiz-adv-x="1342" d="M1375 973L1425 973C1425 974 1425 974 1425 975C1421 1258 1212 1463 894 1463C482 1463 169 1074 169 565C169 216 395 -20 729 -20C1013 -20 1235 134 1323 392L1269 392C1186 163 986 27 733 27C425 27 219 245 219 571C219 1044 514 1416 890 1416C1184 1416 1371 1230 1375 975C1375 974 1375 974 1375 973ZM927 1554L970 1554L1288 1841L1224 1841L954 1597L952 1597L787 1841L731 1841Z" />
<glyph glyph-name="ccaron" unicode="&#x010d;" horiz-adv-x="1000" d="M648 1056C348 1056 121 781 121 420C121 160 284 -16 532 -16C728 -16 886 92 958 270L907 270C844 124 701 30 532 30C317 30 171 187 171 422C171 753 379 1010 648 1010C832 1010 965 895 986 725L1035 725C1035 726 1035 725 1035 726C1014 922 861 1056 648 1056ZM772 1251L1092 1555L1027 1555L752 1291L750 1291L590 1555L533 1555L720 1251Z" />
<glyph glyph-name="Dcaron" unicode="&#x010e;" horiz-adv-x="1348" d="M387 1443L81 0L534 0C1052 0 1387 373 1387 888C1387 1225 1184 1443 812 1443ZM429 1396L806 1396C1156 1396 1337 1200 1337 882C1337 401 1019 47 534 47L143 47ZM777 1554L820 1554L1138 1841L1074 1841L804 1597L802 1597L637 1841L581 1841Z" />
<glyph glyph-name="dcaron" unicode="&#x010f;" horiz-adv-x="1204" d="M1412 1443L1335 1088L1373 1088L1461 1443ZM490 -15C665 -15 836 88 925 253L929 253L875 0L926 0L1233 1443L1182 1443L1028 719L1024 719C1007 920 855 1055 654 1055C362 1055 112 757 112 401C112 156 267 -15 490 -15ZM499 30C296 30 162 181 162 406C162 727 393 1010 652 1010C859 1010 994 862 994 632C994 314 787 30 499 30Z" />
<glyph glyph-name="Dcroat" unicode="&#x0110;" horiz-adv-x="1348" d="M143 47L284 714L730 714L740 760L294 760L429 1396L806 1396C1156 1396 1337 1200 1337 882C1337 401 1019 47 534 47ZM387 1443L242 760L111 760L101 714L232 714L81 0L534 0C1052 0 1387 373 1387 888C1387 1225 1184 1443 812 1443Z" />
<glyph glyph-name="dcroat" unicode="&#x0111;" horiz-adv-x="1091" d="M499 30C296 30 162 181 162 406C162 727 393 1010 652 1010C859 1010 994 862 994 632C994 314 787 30 499 30ZM1314 1287L1200 1287L1233 1443L1182 1443L1149 1287L852 1287L843 1243L1139 1243L1028 719L1024 719C1007 920 855 1055 654 1055C362 1055 112 757 112 401C112 156 267 -15 490 -15C665 -15 836 88 925 253L929 253L875 0L926 0L1190 1243L1304 1243Z" />
<glyph glyph-name="Emacron" unicode="&#x0112;" horiz-adv-x="1038" d="M916 47L141 47L283 718L1022 718L1033 764L293 764L427 1396L1203 1396L1213 1443L387 1443L80 0L906 0ZM1138 1659L555 1659L546 1615L1129 1615Z" />
<glyph glyph-name="emacron" unicode="&#x0113;" horiz-adv-x="1017" d="M183 562C226 826 416 1010 648 1010C856 1010 984 870 984 653C984 610 982 590 975 562ZM518 -16C735 -16 902 99 966 290L914 290C854 125 711 30 522 30C303 30 165 176 165 410C165 435 168 472 175 517L1016 517C1026 554 1032 608 1032 654C1032 901 885 1056 651 1056C344 1056 115 777 115 405C115 149 270 -16 518 -16ZM1004 1346L501 1346L492 1302L995 1302Z" />
<glyph glyph-name="Ebreve" unicode="&#x0114;" horiz-adv-x="1038" d="M916 47L141 47L283 718L1022 718L1033 764L293 764L427 1396L1203 1396L1213 1443L387 1443L80 0L906 0ZM587 1771C586 1769 586 1757 586 1755C586 1633 681 1553 824 1553C973 1553 1084 1640 1098 1771L1052 1771C1039 1666 951 1596 833 1596C711 1596 632 1659 632 1759C632 1760 632 1770 633 1771Z" />
<glyph glyph-name="ebreve" unicode="&#x0115;" horiz-adv-x="1017" d="M183 562C226 826 416 1010 648 1010C856 1010 984 870 984 653C984 610 982 590 975 562ZM518 -16C735 -16 902 99 966 290L914 290C854 125 711 30 522 30C303 30 165 176 165 410C165 435 168 472 175 517L1016 517C1026 554 1032 608 1032 654C1032 901 885 1056 651 1056C344 1056 115 777 115 405C115 149 270 -16 518 -16ZM496 1487C495 1475 494 1464 494 1453C494 1330 590 1250 736 1250C887 1250 996 1347 1005 1487L959 1487C951 1371 863 1293 741 1293C616 1293 540 1356 540 1456C540 1467 541 1476 542 1487Z" />
<glyph glyph-name="Edotaccent" unicode="&#x0116;" horiz-adv-x="1038" d="M916 47L141 47L283 718L1022 718L1033 764L293 764L427 1396L1203 1396L1213 1443L387 1443L80 0L906 0ZM856 1654C890 1654 920 1683 920 1717C920 1752 890 1781 856 1781C821 1781 791 1752 791 1717C791 1683 821 1654 856 1654Z" />
<glyph glyph-name="edotaccent" unicode="&#x0117;" horiz-adv-x="1017" d="M183 562C226 826 416 1010 648 1010C856 1010 984 870 984 653C984 610 982 590 975 562ZM518 -16C735 -16 902 99 966 290L914 290C854 125 711 30 522 30C303 30 165 176 165 410C165 435 168 472 175 517L1016 517C1026 554 1032 608 1032 654C1032 901 885 1056 651 1056C344 1056 115 777 115 405C115 149 270 -16 518 -16ZM744 1251C779 1251 809 1280 809 1314C809 1349 779 1378 744 1378C710 1378 680 1349 680 1314C680 1280 710 1251 744 1251Z" />
<glyph glyph-name="Eogonek" unicode="&#x0118;" horiz-adv-x="1038" d="M80 0L824 0L824 0C667 -66 583 -150 583 -243C583 -324 648 -383 739 -383C765 -383 795 -378 811 -371L821 -327C805 -335 780 -339 752 -339C683 -339 632 -294 632 -235C632 -151 715 -80 905 0L906 1L916 47L140 47L282 718L1022 718L1033 764L293 764L427 1396L1203 1396L1213 1443L387 1443Z" />
<glyph glyph-name="eogonek" unicode="&#x0119;" horiz-adv-x="1017" d="M510 -384C537 -384 569 -379 585 -371L594 -329C581 -337 557 -341 524 -341C456 -341 406 -298 406 -239C406 -151 483 -87 710 17C788 49 911 132 964 290L912 290C852 125 709 30 520 30C301 30 163 176 163 410C163 435 166 472 173 517L1014 517C1024 554 1030 608 1030 654C1030 901 883 1056 649 1056C342 1056 113 777 113 405C113 149 268 -16 516 -16C536 -16 563 -15 575 -13L575 -14C423 -87 358 -158 358 -246C358 -326 422 -384 510 -384ZM181 562C224 826 414 1010 647 1010C854 1010 982 870 982 653C982 610 980 590 973 562Z" />
<glyph glyph-name="Ecaron" unicode="&#x011a;" horiz-adv-x="1038" d="M916 47L141 47L283 718L1022 718L1033 764L293 764L427 1396L1203 1396L1213 1443L387 1443L80 0L906 0ZM806 1554L849 1554L1167 1841L1103 1841L833 1597L831 1597L666 1841L610 1841Z" />
<glyph glyph-name="ecaron" unicode="&#x011b;" horiz-adv-x="1017" d="M183 562C226 826 416 1010 648 1010C856 1010 984 870 984 653C984 610 982 590 975 562ZM518 -16C735 -16 902 99 966 290L914 290C854 125 711 30 522 30C303 30 165 176 165 410C165 435 168 472 175 517L1016 517C1026 554 1032 608 1032 654C1032 901 885 1056 651 1056C344 1056 115 777 115 405C115 149 270 -16 518 -16ZM762 1251L1082 1555L1017 1555L742 1291L740 1291L580 1555L523 1555L710 1251Z" />
<glyph glyph-name="Gcircumflex" unicode="&#x011c;" horiz-adv-x="1351" d="M1372 691L818 691L809 645L1313 645L1284 518C1214 208 1009 27 728 27C422 27 219 246 219 571C219 1038 506 1416 884 1416C1148 1416 1331 1264 1361 1023L1411 1023C1411 1023 1411 1023 1411 1024C1382 1291 1178 1463 887 1463C474 1463 169 1067 169 565C169 217 392 -20 725 -20C1036 -20 1257 172 1332 512ZM982 1841L940 1841L621 1554L686 1554L955 1799L958 1799L1124 1554L1179 1554Z" />
<glyph glyph-name="gcircumflex" unicode="&#x011d;" horiz-adv-x="1084" d="M454 -371C691 -371 865 -239 913 -19L1141 1040L1090 1040L1020 721L1016 721C1003 921 858 1055 653 1055C356 1055 115 764 115 417C115 163 265 -1 499 -1C677 -1 838 100 920 266L924 266L864 -14C821 -206 667 -326 459 -326C252 -326 120 -218 110 -92L60 -92C62 -240 220 -371 454 -371ZM506 45C294 45 164 188 164 420C164 739 387 1010 651 1010C856 1010 987 864 987 635C987 305 778 45 506 45ZM827 1555L775 1555L456 1251L521 1251L795 1514L797 1514L958 1251L1015 1251Z" />
<glyph glyph-name="Gbreve" unicode="&#x011e;" horiz-adv-x="1351" d="M1372 691L818 691L809 645L1313 645L1284 518C1214 208 1009 27 728 27C422 27 219 246 219 571C219 1038 506 1416 884 1416C1148 1416 1331 1264 1361 1023L1411 1023C1411 1023 1411 1023 1411 1024C1382 1291 1178 1463 887 1463C474 1463 169 1067 169 565C169 217 392 -20 725 -20C1036 -20 1257 172 1332 512ZM668 1771C667 1769 667 1757 667 1755C667 1633 762 1553 905 1553C1054 1553 1165 1640 1179 1771L1133 1771C1120 1666 1032 1596 914 1596C792 1596 713 1659 713 1759C713 1760 713 1770 714 1771Z" />
<glyph glyph-name="gbreve" unicode="&#x011f;" horiz-adv-x="1084" d="M454 -371C691 -371 865 -239 913 -19L1141 1040L1090 1040L1020 721L1016 721C1003 921 858 1055 653 1055C356 1055 115 764 115 417C115 163 265 -1 499 -1C677 -1 838 100 920 266L924 266L864 -14C821 -206 667 -326 459 -326C252 -326 120 -218 110 -92L60 -92C62 -240 220 -371 454 -371ZM506 45C294 45 164 188 164 420C164 739 387 1010 651 1010C856 1010 987 864 987 635C987 305 778 45 506 45ZM502 1487C501 1475 500 1464 500 1453C500 1330 596 1250 742 1250C893 1250 1002 1347 1011 1487L965 1487C957 1371 869 1293 747 1293C622 1293 546 1356 546 1456C546 1467 547 1476 548 1487Z" />
<glyph glyph-name="Gdotaccent" unicode="&#x0120;" horiz-adv-x="1351" d="M1372 691L818 691L809 645L1313 645L1284 518C1214 208 1009 27 728 27C422 27 219 246 219 571C219 1038 506 1416 884 1416C1148 1416 1331 1264 1361 1023L1411 1023C1411 1023 1411 1023 1411 1024C1382 1291 1178 1463 887 1463C474 1463 169 1067 169 565C169 217 392 -20 725 -20C1036 -20 1257 172 1332 512ZM937 1654C971 1654 1001 1683 1001 1717C1001 1752 971 1781 937 1781C902 1781 872 1752 872 1717C872 1683 902 1654 937 1654Z" />
<glyph glyph-name="gdotaccent" unicode="&#x0121;" horiz-adv-x="1084" d="M454 -371C691 -371 865 -239 913 -19L1141 1040L1090 1040L1020 721L1016 721C1003 921 858 1055 653 1055C356 1055 115 764 115 417C115 163 265 -1 499 -1C677 -1 838 100 920 266L924 266L864 -14C821 -206 667 -326 459 -326C252 -326 120 -218 110 -92L60 -92C62 -240 220 -371 454 -371ZM506 45C294 45 164 188 164 420C164 739 387 1010 651 1010C856 1010 987 864 987 635C987 305 778 45 506 45ZM750 1251C785 1251 815 1280 815 1314C815 1349 785 1378 750 1378C716 1378 686 1349 686 1314C686 1280 716 1251 750 1251Z" />
<glyph glyph-name="Gcommaaccent" unicode="&#x0122;" horiz-adv-x="1351" d="M1372 691L818 691L809 645L1313 645L1284 518C1214 208 1009 27 728 27C422 27 219 246 219 571C219 1038 506 1416 884 1416C1148 1416 1331 1264 1361 1023L1411 1023C1411 1023 1411 1023 1411 1024C1382 1291 1178 1463 887 1463C474 1463 169 1067 169 565C169 217 392 -20 725 -20C1036 -20 1257 172 1332 512ZM542 -475L728 -138L670 -138L497 -475Z" />
<glyph glyph-name="gcommaaccent" unicode="&#x0123;" horiz-adv-x="1084" d="M454 -371C691 -371 865 -239 913 -19L1141 1040L1090 1040L1020 721L1016 721C1003 921 858 1055 653 1055C356 1055 115 764 115 417C115 163 265 -1 499 -1C677 -1 838 100 920 266L924 266L864 -14C821 -206 667 -326 459 -326C252 -326 120 -218 110 -92L60 -92C62 -240 220 -371 454 -371ZM506 45C294 45 164 188 164 420C164 739 387 1010 651 1010C856 1010 987 864 987 635C987 305 778 45 506 45ZM980 1515L794 1178L852 1178L1025 1515Z" />
<glyph glyph-name="Hcircumflex" unicode="&#x0124;" horiz-adv-x="1310" d="M1128 0L1435 1443L1385 1443L1241 765L293 765L437 1443L387 1443L80 0L130 0L283 718L1231 718L1078 0ZM1011 1841L969 1841L650 1554L715 1554L984 1799L987 1799L1153 1554L1208 1554Z" />
<glyph glyph-name="hcircumflex" unicode="&#x0125;" horiz-adv-x="1040" d="M63 0L113 0L252 645C294 843 460 1010 672 1010C858 1010 979 898 979 727C979 702 975 667 968 629L833 0L881 0L1020 640C1027 677 1029 712 1029 737C1029 923 889 1055 682 1055C507 1055 373 960 294 823L290 823L423 1443L373 1443ZM498 1841L456 1841L137 1554L202 1554L471 1799L474 1799L640 1554L695 1554Z" />
<glyph glyph-name="Hbar" unicode="&#x0126;" horiz-adv-x="1310" d="M1241 765L293 765L368 1117L1316 1117ZM1476 1163L1375 1163L1435 1443L1385 1443L1326 1163L378 1163L437 1443L387 1443L327 1163L231 1163L221 1117L318 1117L80 0L130 0L283 718L1231 718L1078 0L1128 0L1366 1117L1466 1117Z" />
<glyph glyph-name="hbar" unicode="&#x0127;" horiz-adv-x="1040" d="M290 823L380 1243L669 1243L678 1287L390 1287L423 1443L373 1443L339 1287L223 1287L214 1243L330 1243L63 0L113 0L252 645C294 843 460 1010 672 1010C858 1010 979 898 979 727C979 702 975 667 968 629L833 0L881 0L1020 640C1027 677 1029 712 1029 737C1029 923 889 1055 682 1055C507 1055 373 960 294 823Z" />
<glyph glyph-name="Itilde" unicode="&#x0128;" horiz-adv-x="311" d="M130 0L437 1443L387 1443L80 0ZM587 1553C672 1553 736 1622 762 1752L718 1752C698 1652 647 1597 590 1597C480 1597 458 1764 326 1764C238 1764 166 1690 146 1565L190 1565C209 1663 262 1721 323 1721C433 1721 455 1553 587 1553Z" />
<glyph glyph-name="itilde" unicode="&#x0129;" horiz-adv-x="286" d="M68 0L117 0L338 1040L289 1040ZM512 1251C597 1251 661 1320 687 1450L643 1450C623 1350 572 1295 515 1295C405 1295 383 1462 251 1462C163 1462 91 1388 71 1263L115 1263C134 1361 187 1419 248 1419C358 1419 380 1251 512 1251Z" />
<glyph glyph-name="Imacron" unicode="&#x012a;" horiz-adv-x="311" d="M130 0L437 1443L387 1443L80 0ZM750 1659L167 1659L158 1615L741 1615Z" />
<glyph glyph-name="imacron" unicode="&#x012b;" horiz-adv-x="286" d="M68 0L117 0L338 1040L289 1040ZM510 1346L129 1346L123 1302L503 1302Z" />
<glyph glyph-name="Ibreve" unicode="&#x012c;" horiz-adv-x="311" d="M130 0L437 1443L387 1443L80 0ZM199 1771C198 1769 198 1757 198 1755C198 1633 293 1553 436 1553C585 1553 696 1640 710 1771L664 1771C651 1666 563 1596 445 1596C323 1596 244 1659 244 1759C244 1760 244 1770 245 1771Z" />
<glyph glyph-name="ibreve" unicode="&#x012d;" horiz-adv-x="286" d="M68 0L117 0L338 1040L289 1040ZM120 1487C119 1475 118 1464 118 1453C118 1330 214 1250 360 1250C511 1250 620 1347 629 1487L583 1487C575 1371 487 1293 365 1293C240 1293 164 1356 164 1456C164 1467 165 1476 166 1487Z" />
<glyph glyph-name="Iogonek" unicode="&#x012e;" horiz-adv-x="311" d="M35 -383C61 -383 92 -378 108 -371L117 -327C104 -335 80 -339 49 -339C-21 -339 -72 -294 -72 -234C-72 -154 -20 -94 128 -3L129 -2L437 1443L387 1443L82 11L82 11C-56 -70 -121 -152 -121 -243C-121 -324 -56 -383 35 -383Z" />
<glyph glyph-name="iogonek" unicode="&#x012f;" horiz-adv-x="285" d="M76 -371L85 -329C73 -337 47 -341 15 -341C-53 -341 -103 -298 -103 -239C-103 -161 -35 -87 114 -4L116 -3L337 1040L288 1040L70 14C-76 -62 -152 -150 -152 -246C-152 -326 -87 -384 1 -384C29 -384 60 -379 76 -371ZM368 1259C394 1259 416 1279 416 1305C416 1332 394 1352 368 1352C342 1352 320 1332 320 1305C320 1279 342 1259 368 1259Z" />
<glyph glyph-name="Idotaccent" unicode="&#x0130;" horiz-adv-x="311" d="M130 0L437 1443L387 1443L80 0ZM468 1654C502 1654 532 1683 532 1717C532 1752 502 1781 468 1781C433 1781 403 1752 403 1717C403 1683 433 1654 468 1654Z" />
<glyph glyph-name="dotlessi" unicode="&#x0131;" horiz-adv-x="286" d="M68 0L117 0L338 1040L289 1040Z" />
<glyph glyph-name="IJ" unicode="&#x0132;" horiz-adv-x="1248" d="M130 0L437 1443L387 1443L80 0ZM375 295C375 109 517 -22 725 -22C936 -22 1091 111 1138 335L1373 1443L1323 1443L1092 356C1048 148 914 25 731 25C548 25 426 138 426 300C426 312 427 317 427 317L376 317C375 307 375 300 375 295Z" />
<glyph glyph-name="ij" unicode="&#x0133;" horiz-adv-x="573" d="M67 0L117 0L338 1040L288 1040ZM369 1259C394 1259 416 1279 416 1305C416 1332 394 1352 369 1352C343 1352 321 1332 321 1305C321 1279 343 1259 369 1259ZM660 1259C685 1259 707 1279 707 1305C707 1332 685 1352 660 1352C634 1352 612 1332 612 1305C612 1279 634 1259 660 1259ZM624 1040L575 1040L329 -112C302 -245 232 -304 108 -304C93 -304 69 -303 51 -301L41 -346C64 -348 91 -349 108 -349C253 -349 344 -286 379 -117Z" />
<glyph glyph-name="Jcircumflex" unicode="&#x0134;" horiz-adv-x="937" d="M64 295C64 109 206 -22 414 -22C625 -22 780 111 827 335L1062 1443L1012 1443L781 356C737 148 603 25 420 25C237 25 115 138 115 300C115 312 116 317 116 317L65 317C64 307 64 300 64 295ZM1138 1841L1096 1841L777 1554L842 1554L1111 1799L1114 1799L1280 1554L1335 1554Z" />
<glyph glyph-name="jcircumflex" unicode="&#x0135;" horiz-adv-x="290" d="M340 1040L290 1040L45 -112C17 -245 -53 -304 -176 -304C-191 -304 -215 -303 -233 -301L-243 -346C-220 -348 -193 -349 -176 -349C-31 -349 60 -286 95 -117ZM447 1555L395 1555L76 1251L141 1251L415 1514L417 1514L578 1251L635 1251Z" />
<glyph glyph-name="Kcommaaccent" unicode="&#x0136;" horiz-adv-x="1109" d="M130 0L243 535L536 788L995 0L1052 0L573 820L1289 1443L1217 1443L265 615L261 615L437 1443L387 1443L80 0ZM359 -475L545 -138L487 -138L314 -475Z" />
<glyph glyph-name="kcommaaccent" unicode="&#x0137;" horiz-adv-x="861" d="M113 0L203 422L390 564L764 0L822 0L431 591L1027 1040L952 1040L222 494L218 494L420 1443L370 1443L63 0ZM218 -475L404 -138L346 -138L173 -475Z" />
<glyph glyph-name="Lacute" unicode="&#x0139;" horiz-adv-x="1002" d="M915 47L140 47L437 1443L387 1443L80 0L905 0ZM462 1554L821 1841L751 1841L399 1554Z" />
<glyph glyph-name="lacute" unicode="&#x013a;" horiz-adv-x="290" d="M70 0L119 0L426 1443L377 1443ZM452 1554L811 1841L741 1841L389 1554Z" />
<glyph glyph-name="Lcommaaccent" unicode="&#x013b;" horiz-adv-x="1002" d="M915 47L140 47L437 1443L387 1443L80 0L905 0ZM310 -475L496 -138L438 -138L265 -475Z" />
<glyph glyph-name="lcommaaccent" unicode="&#x013c;" horiz-adv-x="290" d="M70 0L119 0L426 1443L377 1443ZM-89 -475L97 -138L39 -138L-134 -475Z" />
<glyph glyph-name="Lcaron" unicode="&#x013d;" horiz-adv-x="1002" d="M861 1443L784 1088L822 1088L910 1443ZM915 47L140 47L437 1443L387 1443L80 0L905 0Z" />
<glyph glyph-name="lcaron" unicode="&#x013e;" horiz-adv-x="398" d="M605 1443L529 1088L566 1088L654 1443ZM70 0L119 0L426 1443L377 1443Z" />
<glyph glyph-name="Lslash" unicode="&#x0141;" horiz-adv-x="1002" d="M140 47L268 646L767 879L777 929L278 697L437 1443L387 1443L223 671L77 603L67 553L212 621L80 0L905 0L915 47Z" />
<glyph glyph-name="lslash" unicode="&#x0142;" horiz-adv-x="290" d="M426 1443L377 1443L233 766L100 704L90 652L222 714L70 0L119 0L276 739L406 800L416 851L287 791Z" />
<glyph glyph-name="Nacute" unicode="&#x0143;" horiz-adv-x="1332" d="M130 0L419 1362L423 1362L1102 0L1150 0L1457 1443L1407 1443L1118 81L1114 81L435 1443L387 1443L80 0ZM969 1554L1328 1841L1258 1841L906 1554Z" />
<glyph glyph-name="nacute" unicode="&#x0144;" horiz-adv-x="1034" d="M63 0L113 0L251 645C293 843 461 1010 672 1010C858 1010 976 899 976 736C976 703 970 668 962 629L828 0L878 0L1015 640C1023 677 1026 712 1026 745C1026 924 888 1056 683 1056C507 1056 371 959 290 818L286 818L333 1040L284 1040ZM753 1251L1066 1555L1002 1555L694 1251Z" />
<glyph glyph-name="Ncommaaccent" unicode="&#x0145;" horiz-adv-x="1332" d="M130 0L419 1362L423 1362L1102 0L1150 0L1457 1443L1407 1443L1118 81L1114 81L435 1443L387 1443L80 0ZM432 -475L618 -138L560 -138L387 -475Z" />
<glyph glyph-name="ncommaaccent" unicode="&#x0146;" horiz-adv-x="1034" d="M63 0L113 0L251 645C293 843 461 1010 672 1010C858 1010 976 899 976 736C976 703 970 668 962 629L828 0L878 0L1015 640C1023 677 1026 712 1026 745C1026 924 888 1056 683 1056C507 1056 371 959 290 818L286 818L333 1040L284 1040ZM287 -475L473 -138L415 -138L242 -475Z" />
<glyph glyph-name="Ncaron" unicode="&#x0147;" horiz-adv-x="1332" d="M130 0L419 1362L423 1362L1102 0L1150 0L1457 1443L1407 1443L1118 81L1114 81L435 1443L387 1443L80 0ZM924 1554L967 1554L1285 1841L1221 1841L951 1597L949 1597L784 1841L728 1841Z" />
<glyph glyph-name="ncaron" unicode="&#x0148;" horiz-adv-x="1034" d="M63 0L113 0L251 645C293 843 461 1010 672 1010C858 1010 976 899 976 736C976 703 970 668 962 629L828 0L878 0L1015 640C1023 677 1026 712 1026 745C1026 924 888 1056 683 1056C507 1056 371 959 290 818L286 818L333 1040L284 1040ZM751 1251L1071 1555L1006 1555L731 1291L729 1291L569 1555L512 1555L699 1251Z" />
<glyph glyph-name="Omacron" unicode="&#x014c;" horiz-adv-x="1436" d="M899 1416C1210 1416 1419 1198 1419 853C1419 389 1122 27 742 27C431 27 222 245 222 590C222 1054 519 1416 899 1416ZM738 -20C1153 -20 1469 360 1469 859C1469 1224 1240 1463 903 1463C487 1463 171 1083 171 584C171 219 401 -20 738 -20ZM1242 1659L659 1659L650 1615L1233 1615Z" />
<glyph glyph-name="omacron" unicode="&#x014d;" horiz-adv-x="1076" d="M540 30C317 30 171 186 171 422C171 756 381 1010 655 1010C879 1010 1024 854 1024 618C1024 284 814 30 540 30ZM655 1056C351 1056 121 785 121 420C121 158 286 -16 540 -16C845 -16 1074 255 1074 620C1074 882 909 1056 655 1056ZM1015 1346L512 1346L503 1302L1006 1302Z" />
<glyph glyph-name="Obreve" unicode="&#x014e;" horiz-adv-x="1436" d="M899 1416C1210 1416 1419 1198 1419 853C1419 389 1122 27 742 27C431 27 222 245 222 590C222 1054 519 1416 899 1416ZM738 -20C1153 -20 1469 360 1469 859C1469 1224 1240 1463 903 1463C487 1463 171 1083 171 584C171 219 401 -20 738 -20ZM691 1771C690 1769 690 1757 690 1755C690 1633 785 1553 928 1553C1077 1553 1188 1640 1202 1771L1156 1771C1143 1666 1055 1596 937 1596C815 1596 736 1659 736 1759C736 1760 736 1770 737 1771Z" />
<glyph glyph-name="obreve" unicode="&#x014f;" horiz-adv-x="1076" d="M540 30C317 30 171 186 171 422C171 756 381 1010 655 1010C879 1010 1024 854 1024 618C1024 284 814 30 540 30ZM655 1056C351 1056 121 785 121 420C121 158 286 -16 540 -16C845 -16 1074 255 1074 620C1074 882 909 1056 655 1056ZM507 1487C506 1475 505 1464 505 1453C505 1330 601 1250 747 1250C898 1250 1007 1347 1016 1487L970 1487C962 1371 874 1293 752 1293C627 1293 551 1356 551 1456C551 1467 552 1476 553 1487Z" />
<glyph glyph-name="Ohungarumlaut" unicode="&#x0150;" horiz-adv-x="1436" d="M899 1416C1210 1416 1419 1198 1419 853C1419 389 1122 27 742 27C431 27 222 245 222 590C222 1054 519 1416 899 1416ZM738 -20C1153 -20 1469 360 1469 859C1469 1224 1240 1463 903 1463C487 1463 171 1083 171 584C171 219 401 -20 738 -20ZM1086 1554L1445 1841L1376 1841L1023 1554ZM831 1554L1190 1841L1121 1841L768 1554Z" />
<glyph glyph-name="ohungarumlaut" unicode="&#x0151;" horiz-adv-x="1076" d="M540 30C317 30 171 186 171 422C171 756 381 1010 655 1010C879 1010 1024 854 1024 618C1024 284 814 30 540 30ZM655 1056C351 1056 121 785 121 420C121 158 286 -16 540 -16C845 -16 1074 255 1074 620C1074 882 909 1056 655 1056ZM834 1251L893 1251L1199 1555L1135 1555ZM585 1251L644 1251L950 1555L886 1555Z" />
<glyph glyph-name="OE" unicode="&#x0152;" horiz-adv-x="2220" d="M1244 0L2069 0L2079 47L1304 47L1446 718L2185 718L2196 764L1457 764L1591 1396L2367 1396L2376 1443L1551 1443L1444 936L1440 936C1409 1261 1203 1463 895 1463C483 1463 162 1085 162 600C162 222 379 -20 716 -20C967 -20 1186 123 1316 347L1318 347ZM1400 845C1400 388 1100 27 717 27C409 27 212 250 212 600C212 1056 512 1416 895 1416C1202 1416 1400 1193 1400 845Z" />
<glyph glyph-name="oe" unicode="&#x0153;" horiz-adv-x="1913" d="M1407 -16C1612 -16 1778 82 1836 238L1785 238C1724 106 1587 30 1411 30C1190 30 1050 173 1050 399C1050 437 1057 502 1060 522L1911 522C1921 568 1926 603 1926 653C1926 880 1765 1056 1543 1056C1331 1056 1148 909 1063 689L1059 689C1031 915 876 1056 649 1056C339 1056 116 770 116 417C116 154 280 -16 531 -16C745 -16 931 125 1005 328L1009 328C1027 119 1184 -16 1407 -16ZM1068 566C1129 826 1321 1010 1540 1010C1736 1010 1876 853 1876 652C1876 607 1875 590 1870 566ZM165 418C165 743 368 1010 647 1010C871 1010 1017 860 1017 622C1017 291 812 30 534 30C311 30 165 177 165 418Z" />
<glyph glyph-name="Racute" unicode="&#x0154;" horiz-adv-x="1142" d="M80 0L130 0L267 632L692 632L731 632L973 0L1026 0L782 638C1051 672 1219 837 1219 1081C1219 1299 1067 1443 786 1443L392 1443ZM432 1396L783 1396C1036 1396 1169 1270 1169 1077C1169 840 977 679 699 679L277 679ZM783 1554L1142 1841L1072 1841L720 1554Z" />
<glyph glyph-name="racute" unicode="&#x0155;" horiz-adv-x="598" d="M63 0L113 0L248 634C296 858 434 1009 589 1009C646 1009 698 996 723 976L735 1026C707 1042 649 1055 596 1055C474 1055 372 988 296 849L292 849L333 1040L284 1040ZM584 1251L897 1555L833 1555L525 1251Z" />
<glyph glyph-name="Rcommaaccent" unicode="&#x0156;" horiz-adv-x="1142" d="M80 0L130 0L267 632L692 632L731 632L973 0L1026 0L782 638C1051 672 1219 837 1219 1081C1219 1299 1067 1443 786 1443L392 1443ZM432 1396L783 1396C1036 1396 1169 1270 1169 1077C1169 840 977 679 699 679L277 679ZM341 -475L527 -138L469 -138L296 -475Z" />
<glyph glyph-name="rcommaaccent" unicode="&#x0157;" horiz-adv-x="598" d="M63 0L113 0L248 634C296 858 434 1009 589 1009C646 1009 698 996 723 976L735 1026C707 1042 649 1055 596 1055C474 1055 372 988 296 849L292 849L333 1040L284 1040ZM-91 -475L95 -138L37 -138L-136 -475Z" />
<glyph glyph-name="Rcaron" unicode="&#x0158;" horiz-adv-x="1142" d="M80 0L130 0L267 632L692 632L731 632L973 0L1026 0L782 638C1051 672 1219 837 1219 1081C1219 1299 1067 1443 786 1443L392 1443ZM432 1396L783 1396C1036 1396 1169 1270 1169 1077C1169 840 977 679 699 679L277 679ZM738 1554L781 1554L1099 1841L1035 1841L765 1597L763 1597L598 1841L542 1841Z" />
<glyph glyph-name="rcaron" unicode="&#x0159;" horiz-adv-x="598" d="M63 0L113 0L248 634C296 858 434 1009 589 1009C646 1009 698 996 723 976L735 1026C707 1042 649 1055 596 1055C474 1055 372 988 296 849L292 849L333 1040L284 1040ZM582 1251L902 1555L837 1555L562 1291L560 1291L400 1555L343 1555L530 1251Z" />
<glyph glyph-name="Sacute" unicode="&#x015a;" horiz-adv-x="1187" d="M114 401C123 150 336 -20 640 -20C932 -20 1127 144 1127 379C1127 543 1033 648 814 733L681 785C455 874 366 960 366 1104C366 1287 533 1416 774 1416C1014 1416 1190 1272 1206 1068L1256 1068C1240 1302 1042 1463 775 1463C505 1463 315 1315 315 1103C315 938 414 838 660 740L790 689C991 609 1076 520 1076 378C1076 167 900 27 641 27C367 27 175 178 164 401ZM822 1554L1181 1841L1111 1841L759 1554Z" />
<glyph glyph-name="sacute" unicode="&#x015b;" horiz-adv-x="915" d="M233 780C233 664 307 586 473 528L563 495C742 433 802 375 802 267C802 128 672 29 485 29C292 29 147 137 126 299L75 299C94 113 260 -16 482 -16C701 -16 852 100 852 268C852 398 780 471 589 537L500 569C345 623 283 684 283 783C283 913 411 1011 584 1011C762 1011 884 904 902 754L951 754C934 931 790 1056 588 1056C380 1056 233 940 233 780ZM714 1251L1027 1555L963 1555L655 1251Z" />
<glyph glyph-name="Scircumflex" unicode="&#x015c;" horiz-adv-x="1187" d="M114 401C123 150 336 -20 640 -20C932 -20 1127 144 1127 379C1127 543 1033 648 814 733L681 785C455 874 366 960 366 1104C366 1287 533 1416 774 1416C1014 1416 1190 1272 1206 1068L1256 1068C1240 1302 1042 1463 775 1463C505 1463 315 1315 315 1103C315 938 414 838 660 740L790 689C991 609 1076 520 1076 378C1076 167 900 27 641 27C367 27 175 178 164 401ZM873 1841L831 1841L512 1554L577 1554L846 1799L849 1799L1015 1554L1070 1554Z" />
<glyph glyph-name="scircumflex" unicode="&#x015d;" horiz-adv-x="915" d="M233 780C233 664 307 586 473 528L563 495C742 433 802 375 802 267C802 128 672 29 485 29C292 29 147 137 126 299L75 299C94 113 260 -16 482 -16C701 -16 852 100 852 268C852 398 780 471 589 537L500 569C345 623 283 684 283 783C283 913 411 1011 584 1011C762 1011 884 904 902 754L951 754C934 931 790 1056 588 1056C380 1056 233 940 233 780ZM771 1555L719 1555L400 1251L465 1251L739 1514L741 1514L902 1251L959 1251Z" />
<glyph glyph-name="Scedilla" unicode="&#x015e;" horiz-adv-x="1187" d="M1256 1068C1240 1302 1042 1463 775 1463C505 1463 315 1315 315 1103C315 938 414 838 660 740L790 689C991 609 1076 520 1076 378C1076 167 900 27 641 27C367 27 175 178 164 401L114 401C122 165 312 0 587 -18L504 -143L496 -176L546 -181C636 -189 688 -228 688 -297C688 -375 623 -418 533 -418C467 -418 418 -403 376 -378L367 -422C410 -447 463 -463 532 -463C651 -463 736 -399 736 -293C736 -203 668 -150 553 -141L633 -20C635 -20 638 -20 640 -20C932 -20 1127 144 1127 379C1127 543 1033 648 814 733L681 785C455 874 366 960 366 1104C366 1287 533 1416 774 1416C1014 1416 1190 1272 1206 1068Z" />
<glyph glyph-name="scedilla" unicode="&#x015f;" horiz-adv-x="915" d="M951 754C934 931 790 1056 588 1056C380 1056 233 940 233 780C233 664 307 586 473 528L563 495C742 433 802 375 802 267C802 128 672 29 485 29C292 29 147 137 126 299L75 299C92 132 227 11 415 -12L327 -143L319 -176L369 -181C459 -189 511 -228 511 -297C511 -375 446 -418 356 -418C290 -418 241 -403 199 -378L190 -422C233 -447 286 -463 355 -463C474 -463 559 -399 559 -293C559 -203 491 -150 376 -141L459 -16C466 -16 474 -16 482 -16C701 -16 852 100 852 268C852 398 780 471 589 537L500 569C345 623 283 684 283 783C283 913 411 1011 584 1011C762 1011 884 904 902 754Z" />
<glyph glyph-name="Scaron" unicode="&#x0160;" horiz-adv-x="1187" d="M114 401C123 150 336 -20 640 -20C932 -20 1127 144 1127 379C1127 543 1033 648 814 733L681 785C455 874 366 960 366 1104C366 1287 533 1416 774 1416C1014 1416 1190 1272 1206 1068L1256 1068C1240 1302 1042 1463 775 1463C505 1463 315 1315 315 1103C315 938 414 838 660 740L790 689C991 609 1076 520 1076 378C1076 167 900 27 641 27C367 27 175 178 164 401ZM778 1554L821 1554L1139 1841L1075 1841L805 1597L803 1597L638 1841L582 1841Z" />
<glyph glyph-name="scaron" unicode="&#x0161;" horiz-adv-x="915" d="M233 780C233 664 307 586 473 528L563 495C742 433 802 375 802 267C802 128 672 29 485 29C292 29 147 137 126 299L75 299C94 113 260 -16 482 -16C701 -16 852 100 852 268C852 398 780 471 589 537L500 569C345 623 283 684 283 783C283 913 411 1011 584 1011C762 1011 884 904 902 754L951 754C934 931 790 1056 588 1056C380 1056 233 940 233 780ZM712 1251L1032 1555L967 1555L692 1291L690 1291L530 1555L473 1555L660 1251Z" />
<glyph glyph-name="Tcedilla" unicode="&#x0162;" horiz-adv-x="1143" d="M282 1443L272 1396L793 1396L496 0L502 0L406 -143L398 -176L448 -181C538 -189 590 -228 590 -297C590 -375 525 -418 435 -418C369 -418 320 -403 278 -378L269 -422C312 -447 365 -463 434 -463C553 -463 638 -399 638 -293C638 -203 570 -150 455 -141L548 0L551 14L549 14L843 1396L1364 1396L1374 1443Z" />
<glyph glyph-name="tcedilla" unicode="&#x0163;" horiz-adv-x="511" d="M375 995L600 995L610 1040L385 1040L444 1319L394 1319L335 1040L184 1040L175 995L325 995L167 252C160 218 156 189 156 163C156 83 201 32 277 10L175 -143L167 -176L217 -181C307 -189 359 -228 359 -297C359 -375 294 -418 204 -418C138 -418 89 -403 47 -378L38 -422C81 -447 134 -463 203 -463C322 -463 407 -399 407 -293C407 -203 339 -150 224 -141L317 0L317 2C333 0 350 -1 368 -1C370 -1 422 0 424 0L434 46C432 45 378 45 376 45C270 45 207 90 207 177C207 199 211 225 218 253Z" />
<glyph glyph-name="Tcaron" unicode="&#x0164;" horiz-adv-x="1143" d="M546 0L843 1396L1364 1396L1374 1443L282 1443L272 1396L793 1396L496 0ZM834 1554L877 1554L1195 1841L1131 1841L861 1597L859 1597L694 1841L638 1841Z" />
<glyph glyph-name="tcaron" unicode="&#x0165;" horiz-adv-x="518" d="M637 1549L561 1194L598 1194L686 1549ZM368 -1C370 -1 422 0 424 0L434 46C432 45 378 45 376 45C270 45 207 90 207 177C207 199 211 225 218 253L375 995L600 995L610 1040L385 1040L444 1319L394 1319L335 1040L184 1040L175 995L325 995L167 252C160 218 156 189 156 163C156 56 237 -1 368 -1Z" />
<glyph glyph-name="Tbar" unicode="&#x0166;" horiz-adv-x="1143" d="M1364 1396L1374 1443L282 1443L272 1396L793 1396L655 746L249 746L239 700L645 700L496 0L546 0L695 700L1112 700L1122 746L705 746L843 1396Z" />
<glyph glyph-name="tbar" unicode="&#x0167;" horiz-adv-x="511" d="M600 995L610 1040L385 1040L444 1319L394 1319L335 1040L184 1040L175 995L325 995L240 595L90 595L80 549L230 549L167 252C160 218 156 189 156 163C156 56 237 -1 368 -1C370 -1 422 0 424 0L434 46C432 45 378 45 376 45C270 45 207 90 207 177C207 199 211 225 218 253L281 549L541 549L551 595L290 595L375 995Z" />
<glyph glyph-name="Utilde" unicode="&#x0168;" horiz-adv-x="1337" d="M663 -20C972 -20 1187 154 1251 455L1463 1443L1413 1443L1202 461C1144 190 944 27 667 27C406 27 233 179 233 406C233 452 238 507 246 542L439 1443L389 1443L196 545C187 499 182 452 182 402C183 152 375 -20 663 -20ZM1099 1553C1184 1553 1248 1622 1274 1752L1230 1752C1210 1652 1159 1597 1102 1597C992 1597 970 1764 838 1764C750 1764 678 1690 658 1565L702 1565C721 1663 774 1721 835 1721C945 1721 967 1553 1099 1553Z" />
<glyph glyph-name="utilde" unicode="&#x0169;" horiz-adv-x="1034" d="M1091 1040L1042 1040L904 395C862 197 694 30 481 30C295 30 179 142 179 305C179 338 184 375 192 411L326 1040L277 1040L140 400C133 363 129 329 129 295C129 118 264 -16 472 -16C648 -16 786 82 866 220L869 220L822 0L870 0ZM864 1251C949 1251 1013 1320 1039 1450L995 1450C975 1350 924 1295 867 1295C757 1295 735 1462 603 1462C515 1462 443 1388 423 1263L467 1263C486 1361 539 1419 600 1419C710 1419 732 1251 864 1251Z" />
<glyph glyph-name="Umacron" unicode="&#x016a;" horiz-adv-x="1337" d="M663 -20C972 -20 1187 154 1251 455L1463 1443L1413 1443L1202 461C1144 190 944 27 667 27C406 27 233 179 233 406C233 452 238 507 246 542L439 1443L389 1443L196 545C187 499 182 452 182 402C183 152 375 -20 663 -20ZM1262 1659L679 1659L670 1615L1253 1615Z" />
<glyph glyph-name="umacron" unicode="&#x016b;" horiz-adv-x="1034" d="M1091 1040L1042 1040L904 395C862 197 694 30 481 30C295 30 179 142 179 305C179 338 184 375 192 411L326 1040L277 1040L140 400C133 363 129 329 129 295C129 118 264 -16 472 -16C648 -16 786 82 866 220L869 220L822 0L870 0ZM980 1346L477 1346L468 1302L971 1302Z" />
<glyph glyph-name="Ubreve" unicode="&#x016c;" horiz-adv-x="1337" d="M663 -20C972 -20 1187 154 1251 455L1463 1443L1413 1443L1202 461C1144 190 944 27 667 27C406 27 233 179 233 406C233 452 238 507 246 542L439 1443L389 1443L196 545C187 499 182 452 182 402C183 152 375 -20 663 -20ZM711 1771C710 1769 710 1757 710 1755C710 1633 805 1553 948 1553C1097 1553 1208 1640 1222 1771L1176 1771C1163 1666 1075 1596 957 1596C835 1596 756 1659 756 1759C756 1760 756 1770 757 1771Z" />
<glyph glyph-name="ubreve" unicode="&#x016d;" horiz-adv-x="1034" d="M1091 1040L1042 1040L904 395C862 197 694 30 481 30C295 30 179 142 179 305C179 338 184 375 192 411L326 1040L277 1040L140 400C133 363 129 329 129 295C129 118 264 -16 472 -16C648 -16 786 82 866 220L869 220L822 0L870 0ZM472 1487C471 1475 470 1464 470 1453C470 1330 566 1250 712 1250C863 1250 972 1347 981 1487L935 1487C927 1371 839 1293 717 1293C592 1293 516 1356 516 1456C516 1467 517 1476 518 1487Z" />
<glyph glyph-name="Uring" unicode="&#x016e;" horiz-adv-x="1337" d="M663 -20C972 -20 1187 154 1251 455L1463 1443L1413 1443L1202 461C1144 190 944 27 667 27C406 27 233 179 233 406C233 452 238 507 246 542L439 1443L389 1443L196 545C187 499 182 452 182 402C183 152 375 -20 663 -20ZM985 1566C1076 1566 1149 1641 1149 1732C1149 1823 1076 1896 986 1896C895 1896 821 1822 821 1730C821 1640 895 1566 985 1566ZM985 1605C914 1605 860 1660 860 1731C860 1802 914 1858 986 1858C1057 1858 1110 1802 1111 1732C1111 1661 1056 1605 985 1605Z" />
<glyph glyph-name="uring" unicode="&#x016f;" horiz-adv-x="1034" d="M1091 1040L1042 1040L904 395C862 197 694 30 481 30C295 30 179 142 179 305C179 338 184 375 192 411L326 1040L277 1040L140 400C133 363 129 329 129 295C129 118 264 -16 472 -16C648 -16 786 82 866 220L869 220L822 0L870 0ZM726 1163C817 1163 890 1238 890 1329C890 1420 817 1493 727 1493C636 1493 562 1419 562 1327C562 1237 636 1163 726 1163ZM726 1202C655 1202 601 1257 601 1328C601 1399 655 1455 727 1455C798 1455 851 1399 852 1329C852 1258 797 1202 726 1202Z" />
<glyph glyph-name="Uhungarumlaut" unicode="&#x0170;" horiz-adv-x="1337" d="M663 -20C972 -20 1187 154 1251 455L1463 1443L1413 1443L1202 461C1144 190 944 27 667 27C406 27 233 179 233 406C233 452 238 507 246 542L439 1443L389 1443L196 545C187 499 182 452 182 402C183 152 375 -20 663 -20ZM1107 1554L1466 1841L1397 1841L1044 1554ZM852 1554L1211 1841L1142 1841L789 1554Z" />
<glyph glyph-name="uhungarumlaut" unicode="&#x0171;" horiz-adv-x="1034" d="M1091 1040L1042 1040L904 395C862 197 694 30 481 30C295 30 179 142 179 305C179 338 184 375 192 411L326 1040L277 1040L140 400C133 363 129 329 129 295C129 118 264 -16 472 -16C648 -16 786 82 866 220L869 220L822 0L870 0ZM799 1251L858 1251L1164 1555L1100 1555ZM550 1251L609 1251L915 1555L851 1555Z" />
<glyph glyph-name="Uogonek" unicode="&#x0172;" horiz-adv-x="1337" d="M796 -371L805 -327C792 -335 769 -339 737 -339C668 -339 617 -294 617 -234C617 -116 786 -52 956 48C1084 123 1205 243 1253 464L1464 1443L1413 1443L1203 470C1145 199 936 27 667 27C395 27 232 171 232 407C232 444 238 496 246 537L440 1443L389 1443L195 540C185 494 181 453 181 403C182 144 365 -20 663 -20C695 -20 740 -15 777 -5L777 -9C630 -86 568 -156 568 -243C568 -324 632 -383 723 -383C750 -383 780 -378 796 -371Z" />
</font>
</defs>
</svg>
