<?xml version="1.0" standalone="no"?>
<!DOCTYPE svg PUBLIC "-//W3C//DTD SVG 1.1//EN" "http://www.w3.org/Graphics/SVG/1.1/DTD/svg11.dtd" >
<svg xmlns="http://www.w3.org/2000/svg">
<defs>
  <font id="IconFont" horiz-adv-x="300">
    <font-face font-family="IconFont"
      units-per-em="300" ascent="300"
      descent="0" />
    <missing-glyph horiz-adv-x="0" />
    <glyph glyph-name="users"
      unicode="&#xF101;"
      horiz-adv-x="300" d="M107.8125 269.53125C69.146484375 269.53125 37.5 237.884765625 37.5 199.21875S69.146484375 128.90625 107.8125 128.90625S178.125 160.552734375 178.125 199.21875S146.478515625 269.53125 107.8125 269.53125zM192.1875 269.53125A14.0625 14.0625 0 0 1 178.125 255.46875A14.0625 14.0625 0 0 1 192.1875 241.40625C215.6537109375 241.40625 234.375 222.6849609375 234.375 199.21875S215.6537109375 157.03125 192.1875 157.03125A14.0625 14.0625 0 0 1 178.125 142.96875A14.0625 14.0625 0 0 1 192.1875 128.90625C230.853515625 128.90625 262.5 160.552734375 262.5 199.21875S230.853515625 269.53125 192.1875 269.53125zM107.8125 241.40625C131.2787109375 241.40625 150 222.6849609375 150 199.21875S131.2787109375 157.03125 107.8125 157.03125S65.625 175.7525390625 65.625 199.21875S84.3462890625 241.40625 107.8125 241.40625zM107.8125 114.84375C81.9791015625 114.84375 58.3646484375 108.0205078125 40.34765625 96.0111328125C22.3318359375 84.0017578125 9.3744140625 65.7673828125 9.3744140625 44.53125A14.0625 14.0625 0 0 1 23.4369140625 30.46875A14.0625 14.0625 0 0 1 37.4994140625 44.53125C37.4994140625 54.3732421875 43.4279296875 64.26328125 55.9482421875 72.609375C68.4685546875 80.95546875 87.0421875 86.71875 107.8119140625 86.71875C128.581640625 86.71875 147.1546875 80.95541015625 159.6755859375 72.609375S178.1244140625 54.3732421875 178.1244140625 44.53125A14.0625 14.0625 0 0 1 192.1869140625 30.46875A14.0625 14.0625 0 0 1 206.2494140625 44.53125C206.2494140625 65.7673828125 193.2919921875 84.0017578125 175.276171875 96.0111328125C157.2603515625 108.0205078125 133.6453125 114.84375 107.811328125 114.84375zM223.541015625 111.2755078125A14.0625 14.0625 0 0 1 206.6244140625 100.8200390625A14.0625 14.0625 0 0 1 217.0798828125 83.902265625C231.4470703125 80.510859375 243.3849609375 74.2407421875 251.1650390625 67.0313671875C258.9451171875 59.8219921875 262.4982421875 52.2856640625 262.4982421875 44.5313671875A14.0625 14.0625 0 0 1 276.5607421875 30.4688671875A14.0625 14.0625 0 0 1 290.6232421875 44.5313671875C290.6232421875 61.273359375 282.434765625 76.39875 270.28125 87.66046875S241.939453125 106.9325390625 223.541015625 111.2755078125z" />
    <glyph glyph-name="user-plus"
      unicode="&#xF102;"
      horiz-adv-x="300" d="M122.619140625 290.625C85.233984375 290.625 54.333984375 260.62265625 54.328125 223.587890625C54.32255859375 186.5455078125 85.224609375 156.533203125 122.619140625 156.533203125S190.916015625 186.547265625 190.91015625 223.587890625C190.904607421875 260.62265625 160.0048828125 290.625 122.619140625 290.625zM122.619140625 263.5587890625C145.7103515625 263.5587890625 163.83984375 245.6525390625 163.8427734375 223.583203125C163.8462890625 201.5091796875 145.7150390625 183.596484375 122.619140625 183.596484375C99.5232421875 183.596484375 81.3919921875 201.509765625 81.3955078125 223.583203125C81.3990234375 245.6525390625 99.5279296875 263.5587890625 122.619140625 263.5587890625zM95.2412109375 130.0880859375C57.851953125 130.0880859375 26.9501953125 100.079296875 26.9501953125 63.0392578125V36.2830078125A13.5328125 13.5328125 0 0 1 40.4830078125 22.7490234375A13.5328125 13.5328125 0 0 1 54.0169921875 36.2830078125V63.0392578125C54.0169939453125 85.1103515625 72.1470703125 103.0201171875 95.240625 103.0201171875H149.9970703125A13.5328125 13.5328125 0 0 1 163.5298828125 116.5541015625A13.5328125 13.5328125 0 0 1 149.9970703125 130.0869140625zM218.4462890625 116.7099609375A13.5328125 13.5328125 0 0 1 204.9134765625 103.1759765625V76.5744140625H177.3791015625A13.5328125 13.5328125 0 0 1 163.8451171875 63.0404296875A13.5328125 13.5328125 0 0 1 177.3791015625 49.5076171875H204.9134765625V22.9048828125A13.5328125 13.5328125 0 0 1 218.4462890625 9.3720703125A13.5328125 13.5328125 0 0 1 231.9791015625001 22.9048828125V49.5076171875H259.5146484375001A13.5328125 13.5328125 0 0 1 273.0474609375001 63.0404296875A13.5328125 13.5328125 0 0 1 259.5146484375001 76.5744140625H231.9791015625001V103.1759765625A13.5328125 13.5328125 0 0 1 218.4462890625 116.7099609375z" />
    <glyph glyph-name="tag-add"
      unicode="&#xF103;"
      horiz-adv-x="300" d="M72.65625 248.4375A21.09375 21.09375 0 1 1 93.75 227.34375A21.09375 21.09375 0 0 1 72.65625 248.4375A21.09375 21.09375 0 1 1 93.75 227.34375A21.09375 21.09375 0 0 1 72.65625 248.4375M282.328125 155.90625L155.765625 282.46875A28.125 28.125 0 0 1 135.9375 290.625H37.5A28.125 28.125 0 0 1 9.375 262.5V164.0625A28.125 28.125 0 0 1 17.671875 144.09375L23.4375 138.46875A78.75 78.75 0 0 0 52.6875 148.875L37.5 164.0625V262.5H135.9375L262.5 135.9375L164.0625 37.5L148.875 52.6875A78.75 78.75 0 0 0 138.46875 23.4375L144.234375 17.671875A28.125 28.125 0 0 1 164.0625 9.375A28.125 28.125 0 0 1 183.890625 17.671875L282.328125 116.109375A28.125 28.125 0 0 1 290.6250000000001 135.9375A28.125 28.125 0 0 1 282.328125 155.90625M72.65625 248.4375A21.09375 21.09375 0 1 1 93.75 227.34375A21.09375 21.09375 0 0 1 72.65625 248.4375M121.875 51.5625H79.6875V9.375H51.5625V51.5625H9.375V79.6875H51.5625V121.875H79.6875V79.6875H121.875z" />
    <glyph glyph-name="star"
      unicode="&#xF104;"
      horiz-adv-x="300" d="M296.484375 181.0546875C296.484375 178.125 294.140625 174.609375 292.3828125 172.265625L227.9296875 110.7421875L243.1640625 22.265625C243.75 21.09375 243.75 19.921875 243.75 18.75C243.75 14.0625 241.40625 9.9609375 236.1328125 9.9609375C233.7890625 9.9609375 230.859375 10.546875 229.1015625 11.71875L150 53.3203125L70.8984375 11.71875C68.5546875 10.546875 66.2109375 9.9609375 63.8671875 9.9609375C58.59375 9.9609375 56.484375 14.0625 56.484375 18.75C56.484375 19.921875 56.66015625 21.09375 56.8359375 22.265625L72.0703125 110.7421875L7.91015625 172.265625C5.806640625 174.609375 3.515625 178.125 3.515625 181.0546875C3.515625 186.9140625 8.96484375 188.671875 13.359375 189.2578125L101.953125 202.1484375L141.796875 282.48046875C142.96875 285.87890625 145.8984375 289.74609375 150 289.74609375S157.03125 285.87890625 158.203125 282.48046875L198.6328125 202.1484375L286.5234375 189.2578125C290.625 188.671875 296.484375 186.9140625 296.484375 181.0546875z" />
    <glyph glyph-name="star-o"
      unicode="&#xF105;"
      horiz-adv-x="300" d="M203.3203125 118.359375L257.8125 170.5078125L182.8125 181.640625L150 249.08203125L117.1875 181.640625L42.36328125 170.5078125L96.6796875 118.359375L83.7890625 44.53125L150 79.1015625L216.2109375 44.53125zM296.484375 181.0546875C296.484375 178.125 294.140625 174.609375 292.3828125 172.265625L227.9296875 110.7421875L243.1640625 22.265625C243.75 21.09375 243.75 19.921875 243.75 18.75C243.75 14.0625 241.40625 9.9609375 236.1328125 9.9609375C233.7890625 9.9609375 230.859375 10.546875 229.1015625 11.71875L150 53.3203125L70.8984375 11.71875C68.5546875 10.546875 66.2109375 9.9609375 63.8671875 9.9609375C58.59375 9.9609375 56.484375 14.0625 56.484375 18.75C56.484375 19.921875 56.66015625 21.09375 56.8359375 22.265625L72.0703125 110.7421875L7.91015625 172.265625C5.806640625 174.609375 3.515625 178.125 3.515625 181.0546875C3.515625 186.9140625 8.96484375 188.671875 13.359375 189.2578125L101.953125 202.1484375L141.796875 282.48046875C142.96875 285.87890625 145.8984375 289.74609375 150 289.74609375S157.03125 285.87890625 158.203125 282.48046875L198.6328125 202.1484375L286.5234375 189.2578125C290.625 188.671875 296.484375 186.9140625 296.484375 181.0546875z" />
    <glyph glyph-name="spinner"
      unicode="&#xF106;"
      horiz-adv-x="300" d="M150 0C109.93359375 0 72.2654296875 15.6029296875 43.93359375 43.93359375C15.6029296875 72.2654296875 0 109.93359375 0 150C0 178.3705078125 7.9634765625 205.9962890625 23.0291015625 229.8902343750001C37.6775390625 253.121484375 58.3798828125 271.89375 82.8990234375 284.1773437500001L95.4966796875 259.03125C75.563671875 249.045703125 58.7314453125 233.7814453125 46.819921875 214.8896484375001C34.5896484375 195.4927734375 28.125 173.054296875 28.125 150C28.125 82.7982421875001 82.7982421875 28.1250000000001 150 28.1250000000001S271.875 82.7982421875001 271.875 150C271.875 173.054296875 265.4103515625 195.4927734375 253.1806640625001 214.8896484375001C241.2685546875001 233.7814453125 224.436328125 249.0451171875001 204.50390625 259.0312500000001L217.1015625 284.1773437500001C241.6207031250001 271.89375 262.3236328125 253.121484375 276.9714843750001 229.8902343750001C292.0365234375 205.9962890625 300 178.3705078125 300 150C300 109.93359375 284.3970703125 72.2654296875001 256.06640625 43.93359375C227.7345703125 15.6029296875 190.06640625 0 150 0z" />
    <glyph glyph-name="settings"
      unicode="&#xF107;"
      horiz-adv-x="300" d="M150 98.4375Q171.6796875 98.4375 186.9140625 113.0859375Q201.5625 128.90625 201.5625 150T186.9140625 186.328125Q171.6796875 201.5625 150 201.5625Q128.90625 201.5625 113.671875 186.328125T98.4375 150T113.671875 113.0859375Q128.90625 98.4375 150 98.4375zM259.5703125 135.3515625L290.625 111.328125Q294.7265625 107.8125 291.796875 101.953125L261.9140625 50.9765625Q259.5703125 46.2890625 253.125 48.046875L216.796875 62.6953125Q202.1484375 52.1484375 192.1875 48.046875L186.9140625 9.375Q185.15625 3.515625 179.8828125 3.515625H120.1171875Q114.84375 3.515625 113.671875 9.375L107.8125 48.046875Q94.921875 53.90625 83.203125 62.6953125L47.05078125 48.046875Q40.72265625 46.2890625 37.91015625 50.9765625L8.37890625 101.953125Q4.962890625 107.8125 9.7265625 111.328125L40.72265625 135.3515625Q40.01953125 140.625 40.01953125 150T40.72265625 164.6484375L9.7265625 188.671875Q4.962890625 192.1875 8.37890625 198.046875L37.91015625 249.19921875Q40.72265625 253.76953125 47.05078125 251.8359375L83.203125 237.3046875Q97.8515625 247.67578125 107.8125 251.8359375L113.671875 290.33203125Q114.84375 296.484375 120.1171875 296.484375H179.8828125Q185.15625 296.484375 186.9140625 290.33203125L192.1875 251.8359375Q205.078125 246.15234375 216.796875 237.3046875L253.125 251.8359375Q259.5703125 253.76953125 261.9140625 249.19921875L291.796875 198.046875Q294.7265625 192.1875 290.625 188.671875L259.5703125 164.6484375Q260.15625 159.375 260.15625 150T259.5703125 135.3515625z" />
    <glyph glyph-name="search"
      unicode="&#xF108;"
      horiz-adv-x="300" d="M209.1796875 93.75C208.59375 93.1640625 208.0078125 92.578125 207.421875 92.578125C207.421875 91.9921875 206.8359375 91.40625 206.25 90.8203125C188.0859375 73.2421875 162.890625 62.109375 135.3515625 62.109375C107.2265625 62.109375 81.4453125 73.828125 63.28125 92.578125C44.58984375 110.7421875 32.87109375 136.5234375 32.87109375 164.6484375S44.58984375 218.5546875 63.28125 236.71875C81.4453125 255.41015625 107.2265625 267.12890625 135.3515625 267.12890625S189.2578125 255.41015625 207.421875 236.71875C226.171875 218.5546875 237.890625 192.7734375 237.890625 164.6484375C237.890625 137.109375 226.7578125 111.9140625 209.1796875 93.75zM292.3828125 28.7109375L238.4765625 82.03125C256.0546875 104.8828125 267.1875 133.59375 267.1875 164.6484375C267.1875 200.9765625 252.5390625 234.375 228.515625 257.75390625C205.078125 281.66015625 172.265625 296.4140625 135.3515625 296.4140625C99.0234375 296.4140625 65.625 281.66015625 42.24609375 257.75390625C18.33984375 234.375 3.5859375 200.9765625 3.5859375 164.6484375C3.5859375 127.734375 18.33984375 94.921875 42.24609375 71.484375C65.625 47.4609375 99.0234375 32.8125 135.3515625 32.8125C166.40625 32.8125 195.1171875 43.9453125 217.96875 61.5234375L271.2890625 7.6171875C277.1484375 2.34375 286.5234375 2.34375 292.3828125 7.6171875C297.65625 13.4765625 297.65625 22.8515625 292.3828125 28.7109375z" />
    <glyph glyph-name="machines"
      unicode="&#xF109;"
      horiz-adv-x="300" d="M73.2948046875 281.8265625C52.265150390625 281.8265625 34.9428515625 263.6587119140625 34.9428515625 241.6025390625V120.93046875A12.7852627734375 13.4093486132813 0 0 1 47.7268359375 107.5224609375H124.4307421875A12.783984375 13.4080078125 0 0 1 137.2147265625 120.93046875A12.783984375 13.4080078125 0 0 1 124.4307421875 134.3384765625H60.5108203125V241.6025390625C60.5108203125 249.1663985097657 66.0829755820313 255.010546875 73.2948046875 255.010546875H226.7026171875001C233.9144462929688 255.010546875 239.4866015625001 249.1663985097657 239.4866015625001 241.6025390625V214.7865234375A12.783984375 13.4080078125 0 0 1 252.2705859375 201.378515625A12.783984375 13.4080078125 0 0 1 265.0545703125 214.7865234375V241.6025390625C265.0545703125 263.6587119140625 247.732271484375 281.8265625 226.7026171875 281.8265625zM22.1588671875 94.114453125A12.783984375 13.4080078125 0 0 1 9.3748828125 80.7064453125A12.783984375 13.4080078125 0 0 1 22.1588671875 67.2984375H175.5666796875A12.783984375 13.4080078125 0 0 1 188.3506640625 80.7064453125A12.783984375 13.4080078125 0 0 1 175.5666796875 94.114453125zM192.594946875 228.19453125C176.9678043750001 228.19453125 162.7826953125001 215.6457085781251 162.7826953125001 198.70764046875V47.653024453125C162.7826953125001 30.7146881835938 176.9678043750001 18.1661336718751 192.594946875 18.1661336718751H260.8090091015626C276.4361516015626 18.1661336718751 290.6212606640626 30.71495634375 290.6212606640626 47.653024453125V198.70764046875C290.6212606640626 215.6459767382813 276.4361516015626 228.19453125 260.8090091015626 228.19453125zM192.594946875 201.378515625H260.8090091015626C263.9997637617188 201.378515625 265.0536754335938 199.5480543984375 265.0536754335938 198.7073723085938V47.6527562929688C265.0536754335938 46.812074203125 263.9997637617188 44.9816129765625 260.8090091015626 44.9816129765625H192.594946875C189.4041922148438 44.9816129765625 188.3502805429688 46.812074203125 188.3502805429688 47.6527562929688V198.7073723085938C188.3502805429688 199.5480275824219 189.4042561347657 201.378515625 192.594946875 201.378515625zM226.7026171875001 85.2101951367188A12.783984375 13.4080078125 0 0 1 213.9186328125001 71.8021873242188A12.783984375 13.4080078125 0 0 1 226.7026171875001 58.3941795117188H226.827900234375A12.783984375 13.4080078125 0 0 1 239.611884609375 71.8021873242188A12.783984375 13.4080078125 0 0 1 226.827900234375 85.2101951367188z" />
    <glyph glyph-name="logout"
      unicode="&#xF10A;"
      horiz-adv-x="300" d="M124.606611328125 288.8999267578125A40.9130859375 40.9130859375 0 0 0 177.275390625 249.718828125V50.281171875A40.9130859375 40.9130859375 0 0 0 124.606611328125 11.1000732421875L42.780439453125 35.6479248046875A40.9130859375 40.9130859375 0 0 0 13.623046875 74.8290234375V225.1709765625A40.9130859375 40.9130859375 0 0 0 42.780439453125 264.3520751953125zM190.9130859375 259.1015625A13.6376953125 13.6376953125 0 0 0 204.55078125 272.7392578125H245.4638671875A40.9130859375 40.9130859375 0 0 0 286.376953125 231.826171875V218.1884765625A13.6376953125 13.6376953125 0 1 0 259.1015625 218.1884765625V231.826171875A13.6376953125 13.6376953125 0 0 1 245.4638671875 245.4638671875H204.55078125A13.6376953125 13.6376953125 0 0 0 190.9130859375 259.1015625M272.7392578125 95.4492187500001A13.6376953125 13.6376953125 0 0 0 286.376953125 81.8115234375001V68.1738281250001A40.9130859375 40.9130859375 0 0 0 245.4638671875 27.2607421875001H204.55078125A13.6376953125 13.6376953125 0 1 0 204.55078125 54.5361328125001H245.4638671875A13.6376953125 13.6376953125 0 0 1 259.1015625 68.1738281250001V81.8115234375001A13.6376953125 13.6376953125 0 0 0 272.7392578124999 95.4492187500001M109.0869140624999 163.6376953125001A13.6376953125 13.6376953125 0 1 1 109.0869140624999 136.3623046875001H109.1005517578125A13.6376953125 13.6376953125 0 1 1 109.1005517578125 163.6376953125001zM235.8220166015625 186.9172412109375A13.6376953125 13.6376953125 0 0 1 235.8220166015625 167.6321762695313L239.8174521972656 163.6367406738282H204.5517358886719A13.6376953125 13.6376953125 0 0 1 190.9140405761719 149.9990453613282A13.6376953125 13.6376953125 0 0 1 204.5517358886719 136.3613500488282H239.8174521972656L235.8220166015625 132.3659144531251A13.6376953125 13.6376953125 0 0 1 235.8220166015625 113.0808495117188A13.6376953125 13.6376953125 0 0 1 255.1070815429688 113.0808495117188L282.3824721679688 140.3562401367188A13.6376953125 13.6376953125 0 0 1 285.9251362792969 148.9063932128906A13.6376953125 13.6376953125 0 0 1 286.3779486767578 149.998472578125A13.6376953125 13.6376953125 0 0 1 285.9251771923828 152.2626027539063A13.6376953125 13.6376953125 0 0 1 285.552322602539 154.2070653515625A13.6376953125 13.6376953125 0 0 1 282.3826494580078 159.640868671875L255.1072588330078 186.916259296875A13.6376953125 13.6376953125 0 0 1 235.8221938916015 186.916259296875z" />
    <glyph glyph-name="lock"
      unicode="&#xF10B;"
      horiz-adv-x="300" d="M150 290.625C131.1791015625 290.625 112.1859375 284.4205078125 97.5650390625 271.423828125C82.944140625 258.427734375 73.2955078125 238.4232421875 73.2955078125 213.9205078125V175.56796875A12.783984375 12.783984375 0 0 1 86.0794921875 162.783984375A12.783984375 12.783984375 0 0 1 98.8634765625 175.56796875V213.9205078125C98.8634765625 232.03125 105.19453125 243.9873046875 114.54375 252.29765625S136.8603515625 265.05703125 149.9994140625 265.05703125S176.105859375 260.60830078125 185.455078125 252.29765625C194.804296875 243.9873046875 201.1353515625 232.03125 201.1353515625 213.9205078125V175.56796875A12.783984375 12.783984375 0 0 1 213.9193359375 162.783984375A12.783984375 12.783984375 0 0 1 226.7033203125 175.56796875V213.9205078125C226.7033203125 238.4232421875 217.0546875 258.427734375 202.4337890625 271.423828125C187.812890625 284.419921875 168.8203125 290.625 149.998828125 290.625zM60.509765625 188.349609375C39.483984375 188.349609375 22.1572265625 171.0234375 22.1572265625 149.9970703125V47.7216796875C22.1572265625 26.6958984375 39.4833984375 9.369140625 60.509765625 9.369140625H239.4843750000001C260.51015625 9.369140625 277.8369140625 26.6953125 277.8369140625 47.7216796875V149.9970703125C277.8369140625 171.0228515625 260.5107421875 188.349609375 239.4843750000001 188.349609375zM60.509765625 162.781640625H239.4843750000001C246.7880859375 162.781640625 252.268359375 157.30107421875 252.268359375 149.99765625V47.722265625C252.268359375 40.4185546875 246.78779296875 34.93828125 239.4843750000001 34.93828125H60.509765625C53.2060546875 34.93828125 47.72578125 40.41884765625 47.72578125 47.722265625V149.99765625C47.72578125 157.3013671875 53.20634765625 162.781640625 60.509765625 162.781640625zM150 124.4291015625C136.0306640625 124.4291015625 124.43203125 112.83046875 124.43203125 98.8611328125C124.43203125 84.891796875 136.0306640625 73.2931640625 150 73.2931640625S175.56796875 84.891796875 175.56796875 98.8611328125C175.56796875 112.83046875 163.9693359375 124.4291015625 150 124.4291015625z" />
    <glyph glyph-name="info"
      unicode="&#xF10C;"
      horiz-adv-x="300" d="M150 25.005A124.995 124.995 0 1 0 150 274.995A124.995 124.995 0 1 0 150 25.005zM150 49.995A100.005 100.005 0 1 1 150 250.005A100.005 100.005 0 0 1 150 49.995zM137.49 212.505H162.495V187.5H137.49V212.505zM137.49 162.495H162.495V87.495H137.49V162.495z" />
    <glyph glyph-name="eye"
      unicode="&#xF10D;"
      horiz-adv-x="300" d="M289.453125 155.625C261.0568359375 221.5546875 207.638671875 262.46484375 150 262.46484375C92.363671875 262.46484375 38.947265625 221.55703125 10.546875 155.625A14.0578125 14.0578125 0 0 1 10.546875 144.3791015625C38.9431640625 78.4494140625 92.361328125 37.5392578125 150 37.5392578125C207.636328125 37.5392578125 261.052734375 78.4470703125 289.453125 144.3791015625A14.0578125 14.0578125 0 0 1 289.453125 155.625M150 65.654296875C105.437109375 65.654296875 63.263671875 97.8462890625001 38.947265625 150C63.2671875 202.1537109375 105.439453125 234.3457031250001 150 234.3457031250001C194.5623046875 234.3457031250001 236.736328125 202.1537109375 261.052734375 150C236.7328125 97.8462890625 194.560546875 65.654296875 150 65.654296875M150 206.232421875A56.2306640625 56.2306640625 0 1 1 206.2306640625 150.0017578125A56.2306640625 56.2306640625 0 0 1 150 206.232421875M150 121.88671875A28.1150390625 28.1150390625 0 1 0 178.1150390625 150.0017578125A28.1150390625 28.1150390625 0 0 0 150 121.88671875" />
    <glyph glyph-name="edit-code"
      unicode="&#xF10E;"
      horiz-adv-x="300" d="M199.21875 278.8330078125C185.4087890625 278.83119140625 171.5994140625 273.600234375 161.1462890625 263.1421875L13.4900390625 115.4859375A14.063671875 14.063671875 0 0 1 9.37130859375 105.5419921875V49.2919921875A14.063671875 14.063671875 0 0 1 23.43380859375 35.2294921875H79.68380859375A14.063671875 14.063671875 0 0 1 89.62775390625 39.34822265625L237.28400390625 187.00447265625C258.19787109375 207.91013671875 258.20197265625 242.23962890625 237.291955078125 263.14705078125C226.836486328125 273.60251953125 213.025939453125 278.82966796875 199.216564453125 278.82791015625zM199.222265625 250.884375C205.77421875 250.88525390625 212.326171875 248.34544921875 217.4068359375 243.26484375C227.5681640625 233.103515625 227.5658203125 217.0564453125 217.4021484375 206.898046875A14.063671875 14.063671875 0 0 1 217.3986328125 206.89453125L213.2799023437501 202.77580078125L176.91720703125 239.13849609375L181.0359375 243.25833984375A14.063671875 14.063671875 0 0 1 181.039453125 243.260625C186.11865234375 248.34251953125 192.6697265625 250.883671875 199.2216796875 250.88484375zM157.030078125 219.251953125L193.3927734375 182.8880859375L73.8615234375 63.3568359375H37.498828125V99.71953125zM202.6095703125 105.064453125A14.0625 14.0625 0 0 1 196.3048828125 101.42408203125L168.1798828125 73.29908203125A14.063671875 14.063671875 0 0 1 168.1798828125 53.41177734375L196.3048828125 25.28677734375A14.0625 14.0625 0 0 1 216.1921875 25.28677734375A14.0625 14.0625 0 0 1 216.1921875 45.17408203125L198.0111328125 63.35513671875L216.1921875 81.53619140625A14.0625 14.0625 0 0 1 216.1921875 101.4234960937501A14.0625 14.0625 0 0 1 202.608984375 105.0638671875001zM244.7970703125 105.064453125A14.0625 14.0625 0 0 1 238.4923828125 101.42408203125A14.0625 14.0625 0 0 1 238.4923828125 81.53677734375L256.674609375 63.35572265625L238.4923828125 45.17466796875A14.0625 14.0625 0 0 1 238.4923828125 25.28736328125A14.0625 14.0625 0 0 1 258.3796875 25.28736328125L286.5046875 53.41236328125A14.063671875 14.063671875 0 0 1 286.5046875 73.29966796875L258.3796875 101.42466796875A14.0625 14.0625 0 0 1 244.796484375 105.0650390625z" />
    <glyph glyph-name="dropdown"
      unicode="&#xF10F;"
      horiz-adv-x="300" d="M268.359375 234.375C263.0859375 234.375 258.3984375 232.03125 255.46875 228.515625L150 107.8125L44.765625 228.515625C38.671875 234.9609375 28.0078125 236.1328125 20.9765625 229.6875C14.00390625 223.2421875 13.30078125 213.28125 19.39453125 206.25L137.109375 71.484375C140.625 67.96875 144.7265625 65.625 150 65.625S159.375 67.96875 162.890625 71.484375L280.6640625 206.25C286.5234375 213.28125 285.9375 223.2421875 278.90625 229.6875C275.9765625 232.6171875 271.875 234.375 268.359375 234.375z" />
    <glyph glyph-name="devices"
      unicode="&#xF110;"
      horiz-adv-x="300" d="M56.25 290.625C34.21875 290.625 16.07109375 272.47734375 16.07109375 250.44609375V62.94609375C16.0710931640625 40.91484375 34.21875 22.768359375 56.25 22.768359375H143.302734375A13.3927734375 13.3927734375 0 0 1 156.6943359375 36.1611328125A13.3927734375 13.3927734375 0 0 1 143.302734375 49.55390625H56.25C48.694921875 49.55390625 42.8572265625 55.39048828125 42.8572265625 62.9455078125V250.4455078125C42.8572265625 258.0005859375001 48.69498046875 263.83828125 56.25 263.83828125H216.9667968750001C224.5218750000001 263.8382818359375 230.3595703125001 258.0005859375001 230.3595703125001 250.4455078125V156.6955078125A13.3927734375 13.3927734375 0 0 1 243.75234375 143.30390625A13.3927734375 13.3927734375 0 0 1 257.1451171875 156.6955078125V250.4455078125C257.1451171875 272.4767578125 238.9974609375 290.6244140625 216.9662109375 290.6244140625zM230.35546875 116.51953125A13.3927734375 13.3927734375 0 0 1 216.9626953125 103.1267578125V76.340625H190.177734375A13.3927734375 13.3927734375 0 0 1 176.7849609375 62.9478515625A13.3927734375 13.3927734375 0 0 1 190.177734375 49.55625H216.9626953125V22.7701171875A13.3927734375 13.3927734375 0 0 1 230.35546875 9.37734375A13.3927734375 13.3927734375 0 0 1 243.7482421875 22.7701171875V49.55625H270.534375A13.3927734375 13.3927734375 0 0 1 283.9271484375 62.9478515625A13.3927734375 13.3927734375 0 0 1 270.534375 76.340625H243.7482421875V103.1267578125A13.3927734375 13.3927734375 0 0 1 230.35546875 116.51953125zM96.427734375 89.7333984375A13.3927734375 13.3927734375 0 0 1 83.0349609375 76.340625A13.3927734375 13.3927734375 0 0 1 96.427734375 62.9478515625H136.60546875A13.3927734375 13.3927734375 0 0 1 149.9982421875 76.340625A13.3927734375 13.3927734375 0 0 1 136.60546875 89.7333984375z" />
    <glyph glyph-name="copy"
      unicode="&#xF111;"
      horiz-adv-x="300" d="M124.4307421875 213.9212109375C103.4049230859375 213.9212109375 86.0787890625 196.5950769140625 86.0787890625 175.5692578125V47.7294140625C86.0787890625 26.7035949609375 103.4049230859375 9.3774609375 124.4307421875 9.3774609375H252.2705859375C273.2964050390625 9.3774609375 290.6225390625001 26.7035949609375 290.6225390625001 47.7294140625V175.5692578125C290.6225390625001 196.5950769140625 273.2964050390625 213.9212109375 252.2705859375 213.9212109375zM124.4307421875 188.3532421875H252.2705859375C259.5740762109375 188.3532421875 265.0545703125 182.8727480859375 265.0545703125 175.5692578125V47.7294140625C265.0545703125 40.4259237890625 259.5740762109375 34.9454296875 252.2705859375 34.9454296875H124.4307421875C117.1272519140625 34.9454296875 111.6467578125 40.4259237890625 111.6467578125 47.7294140625V175.5692578125C111.6467578125 182.8727480859375 117.1272519140625 188.3532421875 124.4307421875 188.3532421875zM47.7268359375 290.6251171875C26.6907896484375 290.6251171875 9.3748828125 273.3092103515625 9.3748828125 252.2731640625V124.4333203125C9.3748828125 103.3972740234375 26.6907896484375 86.0813671875 47.7268359375 86.0813671875A12.783984375 12.783984375 0 0 1 60.5108203125 98.8653515625A12.783984375 12.783984375 0 0 1 47.7268359375 111.6493359375C40.6376052421875 111.6493359375 34.9428515625 117.3440896171875 34.9428515625 124.4333203125V252.2731640625C34.9428515625 259.3623947578125 40.6376052421875 265.0571484375 47.7268359375 265.0571484375H175.5666796875C182.6559103828125 265.0571484375 188.3506640625 259.3623947578125 188.3506640625 252.2731640625A12.783984375 12.783984375 0 0 1 201.1346484375 239.4891796875A12.783984375 12.783984375 0 0 1 213.9186328125 252.2731640625C213.9186328125 273.3092103515625 196.6027259765625 290.6251171875 175.5666796875 290.6251171875z" />
    <glyph glyph-name="context-menu"
      unicode="&#xF112;"
      horiz-adv-x="300" d="M150 82.6171875C168.5302734375 82.6171875 183.69140625 67.4560546875 183.69140625 48.92578125S168.5302734375 15.234375 150 15.234375C131.4697265625 15.234375 116.30859375 30.3955078125 116.30859375 48.92578125S131.4697265625 82.6171875 150 82.6171875M150 183.69140625C168.5302734375 183.69140625 183.69140625 168.5302734375 183.69140625 150C183.69140625 131.4697265625 168.5302734375 116.30859375 150 116.30859375C131.4697265625 116.30859375 116.30859375 131.4697265625 116.30859375 150C116.30859375 168.5302734375 131.4697265625 183.69140625 150 183.69140625M150 284.765625C168.5302734375 284.765625 183.69140625 269.6044921875 183.69140625 251.07421875C183.69140625 232.5439453125 168.5302734375 217.3828125 150 217.3828125C131.4697265625 217.3828125 116.30859375 232.5439453125 116.30859375 251.07421875C116.30859375 269.6044921875 131.4697265625 284.765625 150 284.765625M48.92578125 82.6171875C67.4560546875 82.6171875 82.6171875 67.4560546875 82.6171875 48.92578125S67.4560546875 15.234375 48.92578125 15.234375C30.3955078125 15.234375 15.234375 30.3955078125 15.234375 48.92578125S30.3955078125 82.6171875 48.92578125 82.6171875M48.92578125 183.69140625C67.4560546875 183.69140625 82.6171875 168.5302734375 82.6171875 150C82.6171875 131.4697265625 67.4560546875 116.30859375 48.92578125 116.30859375C30.3955078125 116.30859375 15.234375 131.4697265625 15.234375 150C15.234375 168.5302734375 30.3955078125 183.69140625 48.92578125 183.69140625M48.92578125 284.765625C67.4560546875 284.765625 82.6171875 269.6044921875 82.6171875 251.07421875C82.6171875 232.5439453125 67.4560546875 217.3828125 48.92578125 217.3828125C30.3955078125 217.3828125 15.234375 232.5439453125 15.234375 251.07421875C15.234375 269.6044921875 30.3955078125 284.765625 48.92578125 284.765625M251.07421875 82.6171875C269.6044921875 82.6171875 284.765625 67.4560546875 284.765625 48.92578125S269.6044921875 15.234375 251.07421875 15.234375S217.3828125 30.3955078125 217.3828125 48.92578125S232.5439453125 82.6171875 251.07421875 82.6171875M251.07421875 183.69140625C269.6044921875 183.69140625 284.765625 168.5302734375 284.765625 150C284.765625 131.4697265625 269.6044921875 116.30859375 251.07421875 116.30859375S217.3828125 131.4697265625 217.3828125 150C217.3828125 168.5302734375 232.5439453125 183.69140625 251.07421875 183.69140625M251.07421875 284.765625C269.6044921875 284.765625 284.765625 269.6044921875 284.765625 251.07421875C284.765625 232.5439453125 269.6044921875 217.3828125 251.07421875 217.3828125S217.3828125 232.5439453125 217.3828125 251.07421875C217.3828125 269.6044921875 232.5439453125 284.765625 251.07421875 284.765625" />
    <glyph glyph-name="connection"
      unicode="&#xF113;"
      horiz-adv-x="300" d="M287.16796875 70.81640625L262.50234375 107.81484375V234.37734375C262.50234375 249.87421875 249.84609375 262.50234375 234.37734375 262.50234375H65.62734375C50.14453125 262.50234375 37.50234375 249.87421875 37.50234375 234.37734375V107.81484375L12.83671875 70.81640625C9.37734375 65.62734375 9.37734375 62.63203125 9.37734375 58.59609375V51.56484375C9.37734375 44.53359375 16.40859375 37.50234375 23.42578125 37.50234375H276.580078125C283.5972656250001 37.50234375 290.6285156250001 44.53359375 290.6285156250001 51.56484375V58.59609375C290.6285156250001 62.63203125 290.6285156250001 65.62734375 287.169140625 70.81640625M107.813671875 65.62734375L116.251171875 79.68984375H183.751171875L192.188671875 65.62734375zM234.376171875 121.87734375H65.626171875V234.37734375H234.376171875z" />
    <glyph glyph-name="close"
      unicode="&#xF114;"
      horiz-adv-x="300" d="M25.01953125 290.625C20.68359375 290.625 16.81640625 288.8671875 14.00390625 285.99609375C11.1328125 283.18359375 9.375 279.2578125 9.375 274.98046875C9.375 270.64453125 11.1328125 266.66015625 14.00390625 263.84765625L128.3203125 150L14.00390625 36.328125C11.1328125 32.8125 9.375 29.296875 9.375 24.609375C9.375 20.5078125 11.1328125 15.8203125 14.00390625 13.4765625C16.81640625 11.1328125 20.7421875 9.375 25.01953125 9.375C29.35546875 9.375 33.33984375 11.1328125 36.15234375 13.4765625L150 127.1484375L263.671875 13.4765625C267.1875 11.1328125 270.703125 9.375 275.390625 9.375C279.4921875 9.375 284.1796875 11.1328125 286.5234375 13.4765625S290.625 20.5078125 290.625 24.609375C290.625 29.296875 288.8671875 32.8125 286.5234375 36.328125L172.8515625 150L286.5234375 263.84765625C288.8671875 266.66015625 290.625 270.64453125 290.625 274.98046875C290.625 279.2578125 288.8671875 283.18359375 286.5234375 285.99609375C284.1796875 288.8671875 279.4921875 290.625 275.390625 290.625C270.703125 290.625 267.1875 288.8671875 263.671875 285.99609375L150 171.6796875L36.15234375 285.99609375C33.33984375 288.8671875 29.35546875 290.625 25.13671875 290.625H25.01953125z" />
    <glyph glyph-name="check"
      unicode="&#xF115;"
      horiz-adv-x="300" d="M158.4748294921875 23.153698828125L158.320058203125 23.12555859375L157.3210798828125 22.6331044921874L157.0396775390625 22.5768240234375L156.8426958984375 22.6331044921874L155.843717578125 23.12555859375Q155.618595703125 23.1959091796875 155.506034765625 23.0552080078124L155.449754296875 22.9145068359375L155.2105623046875 16.8924966796874L155.280912890625 16.6110943359375L155.4216140625 16.4281828125L156.88490625 15.386994140625L157.0959580078125 15.3307136718749L157.2647994140625 15.386994140625L158.7280916015625 16.4281828125L158.8969330078125 16.6533046875L158.9532134765625 16.8924966796875L158.714021484375 22.90043671875Q158.657741015625 23.12555859375 158.4748294921875 23.153698828125M162.203410546875 24.7436220703125L162.0204990234375 24.7154818359375L159.41752734375 23.4069609375L159.276826171875 23.266259765625L159.2346158203125 23.1114884765625L159.4878779296875 17.0613380859375L159.558228515625 16.8924966796875L159.670789453125 16.794005859375L162.4988830078125 15.4854849609375Q162.766215234375 15.415134375 162.9069164062499 15.5980458984375L162.9631968749999 15.7950275390625L162.4848128906249 24.4340794921875Q162.4144623046874 24.6873416015625 162.203410546875 24.7436220703125M152.1432767578125 24.7154818359375A0.28140234375 0.28140234375 0 0 1 151.76338359375 24.6310611328125L151.678962890625 24.4340794921875L151.20057890625 15.7950275390625Q151.2146490234375 15.5417654296875 151.4397708984375 15.4573447265625L151.65082265625 15.4854849609375L154.4789162109375 16.794005859375L154.6196173828125 16.906566796875L154.6758978515625 17.0613380859375L154.91508984375 23.1114884765624L154.8728794921875 23.2803298828125L154.7321783203125 23.4210310546875zM284.444588671875 278.4841154296875A21.10517578125 21.10517578125 0 0 0 284.444588671875 248.641396875L126.2542611328125 90.4510693359375A22.5121875 22.5121875 0 0 0 94.4135859375 90.4510693359375L15.817911328125 169.032673828125A21.10517578125 21.10517578125 0 1 0 45.6606298828125 198.8753923828125L110.3268884765625 134.2091337890625L254.5878 278.4841154296875A21.10517578125 21.10517578125 0 0 0 284.444588671875 278.4841154296875" />
    <glyph glyph-name="avatar-9"
      unicode="&#xF116;"
      horiz-adv-x="300" d="M133.79296875 239.625C141.6498046875 216.05390625 133.628138671875 192.263671875 115.8814453125 186.439453125C98.1345703125 180.61541015625 77.366015625 195.010546875 69.5091796875 218.581640625C61.65234375 242.152734375 69.674009765625 265.94296875 87.420703125 271.7671875C105.167578125 277.59123046875 125.9361328125 263.19609375 133.79296875 239.625M64.51171875 181.54921875C74.8962890625 163.747265625 72.3685546875 143.0337890625 58.9074609375 135.3416015625C45.4461328125 127.6494140625 26.10609375 135.83609765625 15.7766015625 153.6380859375C5.447109375 171.4400390625 7.8646875 192.153515625 21.3258984375 199.845703125C34.7872265625 207.537890625 54.127265625 199.351212890625 64.4567578125 181.54921875zM47.36953125 70.2328125C76.16015625 147.86953125 127.31484375 167.5921875 150.00234375 167.5921875C172.6939453125 167.5921875 223.848046875 147.8671875 252.63515625 70.2328125C254.6131640625 64.9032421875 255.49224609375 59.1890625 255.49224609375 53.475V52.59591796875C255.49224609375 38.42033203125 244.00904296875 26.93712890625 229.83345703125 26.93712890625C223.51470703125 26.93712890625 217.25162109375 27.70634765625 211.15259765625 29.24478515625L162.80220703125 41.33267578125C154.3957617187501 43.420546875 145.60494140625 43.420546875 137.19849609375 41.33267578125L88.84810546875 29.24478515625C82.74908203125 27.70634765625 76.48599609375 26.93712890625 70.16724609375 26.93712890625C55.99166015625 26.93712890625 44.50845703125 38.42033203125 44.50845703125 52.59591796875V53.475C44.50845703125 59.1891796875 45.3875390625 64.903125 47.365546875 70.2328125M241.099921875 135.3421875C227.63859375 143.034375 225.1114453125 163.7478515625 235.4956640625 181.5498046875C245.880234375 199.3517578125 265.1651953125001 207.5384765625 278.6265234375 199.8462890625C292.0878515625 192.1541015625 294.615 171.440625 284.23078125 153.638671875C273.8462109375 135.83671875 254.56125 127.65 241.099921875 135.3421875M179.728828125 186.4400390625C161.981953125 192.26408203125 153.96046875 216.0544921875 161.8173046875 239.6255859375C169.674140625 263.1966796875 190.44328125 277.5919921875 208.1895703125 271.7677734375C225.9364453125 265.94373046875 233.9579296875 242.1533203125001 226.10109375 218.5822265625C218.2442578125 195.0111328125 197.4751171875 180.6158203125 179.728828125 186.4400390625" />
    <glyph glyph-name="avatar-8"
      unicode="&#xF117;"
      horiz-adv-x="300" d="M95.42578125 79.21875L78.4529296875 96.1916015625C73.78400390625 100.86052734375 72.1359375 107.616796875 74.2233984375 113.8787109375C75.8712890625 118.76736328125 78.0684375 125.1392578125 80.7050390625 132.4447265625H22.5905859375C17.86669921875 132.4447265625 13.4722265625 134.97146484375 11.1103125 139.091015625C8.7483984375 143.21068359375 8.80330078125 148.2638671875 11.220169921875 152.3291015625L40.057669921875 200.9408203125C47.198490234375 212.9701171875 60.106693359375 220.3306640625 74.058451171875 220.3306640625H119.264701171875C120.583001953125 222.5278125 121.901302734375 224.5601953125 123.219544921875 226.5375C168.206068359375 292.8890625 235.221498046875 295.086328125 275.205873046875 287.726953125C281.5773574218751 286.5734765625 286.520912109375 281.5751953125 287.7297011718751 275.203125C295.090248046875 235.16015625 292.838080078125 168.19921875 226.540248046875 123.216796875C224.617728515625 121.89849609375 222.530443359375 120.5801953125 220.333412109375 119.261953125V74.055703125C220.333412109375 60.1039453125 212.972865234375 47.1406640625 200.943568359375 40.054921875L152.331849609375 11.217421875C148.267142578125 8.800546875 143.213490234375 8.74564453125 139.093763671875 11.107564453125C134.974095703125 13.469478515625 132.447474609375 17.808931640625 132.447474609375 22.587837890625V81.468697265625C124.702552734375 78.777193359375 117.946107421875 76.580044921875 112.837904296875 74.931978515625C106.686146484375 72.954556640625 99.984779296875 74.65733203125 95.370521484375 79.216412109375zM220.3359375 198.357421875A21.971484375 21.971484375 0 1 1 220.3359375 242.300390625A21.971484375 21.971484375 0 1 1 220.3359375 198.357421875" />
    <glyph glyph-name="avatar-7"
      unicode="&#xF118;"
      horiz-adv-x="300" d="M96.392578125 272.6859375C99.02888671875 279.4962890625 95.62365234375 287.13046875 88.8134765625 289.712109375C82.003125 292.29345703125 74.3689453125 288.94318359375 71.7873046875 282.1330078125L53.9373046875 235.6681640625C49.5984375 224.29921875 52.2896484375 211.447265625 60.9123046875 202.8791015625L92.4380859375 171.3533203125L48.280078125 186.07265625C46.961953125 186.5120390625 45.9183984375 187.555546875 45.47900390625 188.87373046875L35.09853515625 220.06962890625C32.7917578125 226.99013671875 25.32216796875 230.72490234375 18.40224609375 228.41806640625S7.74697265625 218.64169921875 10.05380859375 211.72177734375L20.43427734375 180.52587890625C23.509921875 171.35361328125 30.70458984375 164.15888671875 39.87685546875 161.08330078125L73.15986328125 149.98916015625L39.93134765625 138.89501953125C30.75908203125 135.819375 23.56435546875 128.6247070312499 20.48876953125 119.4524414062499L10.05322265625 88.25654296875C7.7464453125 81.33603515625 11.4812109375 73.8665039062499 18.40166015625 71.5602539062499S32.79169921875 72.9882421874999 35.09794921875 79.9086914062499L45.47841796875 111.1045898437499C45.91780078125 112.4227148437499 46.96130859375 113.4662695312499 48.2794921875 113.9056640624999L92.4375 128.6249999999999L60.8572265625 97.09921875C52.2890625 88.4765624999999 49.543359375 75.624609375 53.93671875 64.31015625L71.78671875 17.8453124999999C74.42302734375 11.0349609374999 82.0025390625 7.6845703124999 88.812890625 10.2662109374999C95.6232421875 12.84755859375 98.9736328125 20.4820312499999 96.3919921875 27.2923828125L78.5419921875 73.7572265624999C77.93783203125 75.4048828125 78.322306640625 77.21736328125 79.5305859375 78.4256835937499L97.2704296875 96.2206054687499C97.819658203125 67.6057617187499 121.2165234375 44.5385742187499 149.996015625 44.5385742187499C178.7755078125 44.5385742187499 202.172578125 67.5512695312499 202.7216015625 96.2206054687499L220.4614453125 78.4807617187499C221.669765625 77.2724414062499 222.05419921875 75.4050585937499 221.4500390625 73.8123632812499L203.6000390625 27.3475195312499C200.96373046875 20.5371679687499 204.36896484375 12.9029882812499 211.179140625 10.3213476562499C217.9894921875 7.7399999999999 225.623671875 11.0902734374999 228.2053125 17.9004492187499L246.0553125 64.31021484375C250.3941796875 75.6791601562499 247.7029687500001 88.5311132812499 239.0803125 97.0992773437499L207.55453125 128.6250585937499L251.7125390625 113.9057226562499C253.0306640625 113.4663457031249 254.07421875 112.4228320312499 254.5136132812501 111.1046484374999L264.8940820312501 79.9087499999999C267.200859375 72.9882421874999 274.6704492187501 69.2534765624999 281.5903710937501 71.5603124999999C288.51087890625 73.8670898437499 292.2456445312501 81.3366796874999 289.9388085937501 88.2566015624999L279.55833984375 119.4524999999999C276.4826367187501 128.6247656249999 269.28802734375 135.8194921874999 260.11576171875 138.895078125L226.83275390625 149.9892187499999L260.06126953125 161.0833593749999C269.23353515625 164.1590625 276.42826171875 171.353671875 279.50384765625 180.5259375L289.8843164062501 211.7218359374999C292.19109375 218.6423437499999 288.4563281250001 226.111875 281.53587890625 228.4181249999999S267.1458398437501 226.9901367187499 264.83958984375 220.0696874999999L254.45912109375 188.8737890625C254.01973828125 187.5556640625 252.97623046875 186.512109375 251.658046875 186.07271484375L207.5000390625 171.3533789062499L239.0258203125 202.87916015625C247.593984375 211.44732421875 250.3396875000001 224.2992773437499 246.0008203125001 235.66822265625L228.2058984375 282.13306640625C225.56958984375 288.94341796875 217.990078125 292.34888671875 211.1797265625 289.71216796875C204.369375 287.075859375 201.018984375 279.49634765625 203.600625 272.68599609375L221.450625 226.22115234375C222.05478515625 224.57349609375 221.67031640625 222.761015625 220.46203125 221.55275390625L193.934296875 194.96994140625V202.71427734375C193.934296875 220.17990234375 183.7184765625 235.28361328125 168.9446484375 242.36876953125C163.94666015625 244.7853515625 158.78390625 240.55634765625 158.78390625 235.00939453125V229.07794921875C158.78390625 224.2447265625 154.82947265625 220.29005859375 149.996015625 220.29005859375C145.16279296875 220.29005859375 141.208125 224.2444921875 141.208125 229.07794921875V235.00939453125C141.208125 240.55658203125 136.04537109375 244.73068359375 131.0473828125 242.36876953125C116.27296875 235.28361328125 106.057734375 220.17990234375 106.057734375 202.71427734375V194.96994140625L79.53 221.49767578125C78.3216796875 222.70599609375 77.93724609375 224.57337890625 78.54140625 226.1661328125L96.39140625 272.6309765625z" />
    <glyph glyph-name="avatar-6"
      unicode="&#xF119;"
      horiz-adv-x="300" d="M230.583984375 237.837890625C217.07109375 268.92890625 186.0890625 290.62734375 150 290.62734375S82.927734375 268.9294921875 69.416015625 237.837890625C60.4072265625 237.06884765625 53.3208984375 229.543359375 53.3208984375 220.31484375V185.15859375C53.3208984375 175.930078125 60.4072265625 168.404296875 69.416015625 167.635546875C82.92890625 136.54453125 113.9109375 114.84609375 150 114.84609375S217.072265625 136.5439453125 230.583984375 167.635546875C239.5927734375 168.40458984375 246.6791015625 175.930078125 246.6791015625 185.15859375V220.31484375C246.6791015625 229.543359375 239.5927734375 237.069140625 230.583984375 237.837890625M211.5228515625 211.52578125V202.73671875C211.5228515625 173.62265625 187.9025390625 150.00234375 158.7884765625 150.00234375H141.2103515625C112.0962890625 150.00234375 88.4759765625 173.62265625 88.4759765625 202.73671875V211.52578125C88.4759765625 226.0828125 100.2861328125 237.89296875 114.8431640625 237.89296875H185.1556640625C199.7126953125 237.89296875 211.5228515625 226.0828125 211.5228515625 211.52578125M130.9388671875 201.2537109375L127.64296875 212.89921875C127.148583984375 214.7119921875 125.5006640625 215.9204296875 123.6329296875 215.9204296875S120.1173046875 214.71193359375 119.622890625 212.89921875L116.3269921875 201.2537109375L104.681484375 197.9578125C102.8687109375 197.463427734375 101.6602734375 195.8155078125 101.6602734375 193.9477734375S102.86876953125 190.4321484375 104.681484375 189.937734375L116.3269921875 186.6418359375L119.622890625 174.996328125C120.117275390625 173.1835546875 121.7651953125 171.9751171875 123.6329296875 171.9751171875S127.1485546875 173.18361328125 127.64296875 174.996328125L130.9388671875 186.6418359375L142.584375 189.937734375C144.3971484375 190.432119140625 145.6055859375 192.0800390625 145.6055859375 193.9477734375S144.39708984375 197.4633984375 142.584375 197.9578125zM88.8615234375 116.7673828125C52.606640625 102.430078125 26.9513671875 67.0541015625 26.9513671875 25.6892578125C26.9513671875 16.68046875 34.257421875 9.3744140625 43.2662109375 9.3744140625H97.2638671875V44.5306640625C97.2638671875 54.2537109375 105.1189453125 62.1087890625 114.8419921875 62.1087890625H185.1544921875C194.8775390625 62.1087890625 202.7326171875 54.2537109375 202.7326171875 44.5306640625V9.3744140625H256.7302734375C265.7390625 9.3744140625 273.0451171875 16.68046875 273.0451171875 25.6892578125C273.0451171875 67.0529296875 247.3921875 102.4294921875 211.1349609375 116.7673828125C193.8861328125 104.5177734375 172.7923828125 97.266796875 149.9982421875 97.266796875S106.1080078125 104.5177734375 88.8615234375 116.7673828125M123.6333984375 44.5330078125C118.7994140625 44.5330078125 114.8443359375 40.5779296875 114.8443359375 35.7439453125V9.3767578125H132.4224609375V35.7439453125C132.4224609375 40.5779296875 128.4673828125 44.5330078125 123.6333984375 44.5330078125M176.3677734375 26.9548828125A8.7890625 8.7890625 0 1 1 176.3677734375 44.5330078125A8.7890625 8.7890625 0 1 1 176.3677734375 26.9548828125" />
    <glyph glyph-name="avatar-5"
      unicode="&#xF11A;"
      horiz-adv-x="300" d="M237.890625 71.501953125C270.02578125 94.0787109375 290.625 128.6859375 290.625 167.578125C290.625 235.529296875 227.671875 290.625 150 290.625S9.375 235.5287109375 9.375 167.578125C9.375 128.7416015625 29.97421875 94.078125 62.109375 71.501953125V35.7416015625C62.109375 21.1845703125 73.91953125 9.3744140625 88.4765625 9.3744140625H114.84375V35.7416015625C114.84375 40.5755859375 118.798828125 44.5306640625 123.6328125 44.5306640625S132.421875 40.5755859375 132.421875 35.7416015625V9.3744140625H167.578125V35.7416015625C167.578125 40.5755859375 171.533203125 44.5306640625 176.3671875 44.5306640625S185.15625 40.5755859375 185.15625 35.7416015625V9.3744140625H211.5234375C226.08046875 9.3744140625 237.890625 21.1845703125 237.890625 35.7416015625zM62.109375 150A35.15625 35.15625 0 1 0 132.421875 150A35.15625 35.15625 0 1 0 62.109375 150M202.734375 185.15625A35.15625 35.15625 0 1 0 202.734375 114.84375A35.15625 35.15625 0 1 0 202.734375 185.15625" />
    <glyph glyph-name="avatar-4"
      unicode="&#xF11B;"
      horiz-adv-x="300" d="M66.556640625 34.037109375L60.404296875 29.09326171875C58.646484375 27.71994140625 56.5041796875 26.95095703125 54.30703125 26.95095703125C48.92373046875 26.95095703125 44.52890625 31.34548828125 44.52890625 36.72908203125V185.15291015625C44.52890625 243.38044921875 91.7701171875 290.62166015625 149.99765625 290.62166015625S255.46640625 243.38044921875 255.46640625 185.15291015625V36.72908203125C255.46640625 31.34578125 251.071875 26.95095703125 245.68828125 26.95095703125C243.491015625 26.95095703125 241.3487109375 27.72 239.591015625 29.09326171875L233.438671875 34.037109375C226.078125 39.9146484375 215.42109375 38.98095703125 209.213671875 31.8948046875L192.459375 12.6690234375C190.6466015625 10.58162109375 187.95498046875 9.373125 185.1533203125 9.373125S179.7151171875 10.58162109375 177.847265625 12.6690234375L163.23515625 29.4233203125C156.258984375 37.4436328125 143.7890625 37.4436328125 136.7578125 29.4233203125L122.145703125 12.6690234375C120.3329296875001 10.58162109375 117.64130859375 9.373125 114.8396484375 9.373125S109.4014453125 10.58162109375 107.53359375 12.6690234375L90.779296875 31.8948046875C84.571875 38.9811328125 73.9154296875 39.9151171875 66.554296875 34.037109375M132.41953125 185.15625A17.578125 17.578125 0 1 1 97.26328125 185.15625A17.578125 17.578125 0 1 1 132.41953125 185.15625M185.1539062500001 167.578125A17.578125 17.578125 0 1 1 185.1539062500001 202.734375A17.578125 17.578125 0 1 1 185.1539062500001 167.578125" />
    <glyph glyph-name="avatar-3"
      unicode="&#xF11C;"
      horiz-adv-x="300" d="M97.6875 238.400390625C105.378515625 229.0611328125 114.7177734375 221.424609375 124.8814453125 215.2166015625C139.1103515625 206.5365234375 154.3828125 200.9876953125 167.567578125 197.8564453125V215.1615234375C155.3712890625 231.807421875 146.6912109375 252.1341796875 145.9224609375 276.0345703125C145.7027109375 282.242578125 141.8021484375 287.8458984375 135.8138671875 289.4390625C131.63865234375 290.5378125 127.1337890625 289.5489375 124.2767578125 286.252734375C116.9701171875 277.7923828125 106.3125 261.7505859375 97.6869140625 238.34765625zM185.150390625 212.305078125V177.1453125C151.7484375 179.94708984375 83.513671875 201.2080078125 64.67578125 263.506640625C62.86283203125 269.43984375 57.6439453125 273.8349609375 51.4359375 273.8349609375C47.0958984375 273.8349609375 43.0306640625 271.692421875 41.1076171875 267.7916015625C35.0642578125 255.2109375 26.9337890625 229.8298828125 26.9337890625 194.7251953125C26.9337890625 130.5064453125 70.93828125 95.5611328125 91.9787109375 83.3150390625L15.8361328125 62.548828125C13.03435546875 61.7797265625 10.78189453125 59.69208984375 9.8478515625 56.94521484375C8.91392578125 54.19833984375 9.4083515625 51.121875 11.11142578125 48.81474609375C21.27509765625 35.30009765625 51.82001953125 10.13876953125 97.25009765625 10.13876953125C99.22787109375 10.13876953125 101.2055859375 10.7980078125 102.74384765625 12.0615820312501L144.27626953125 45.29830078125H185.14951171875C233.71376953125 45.29830078125 273.0518554687501 84.63345703125 273.0518554687501 133.20064453125V221.10298828125L289.47802734375 245.7697851562501C290.1922265625001 246.8685351562501 290.6316796875001 248.1870117187501 290.6316796875001 249.50548828125C290.6316796875001 253.2411914062501 287.6101171875 256.26251953125 283.8746484375 256.26251953125H229.1023828125001C204.8199609375 256.26251953125 185.1523828125 236.5949414062501 185.1523828125 212.31251953125M229.1023828125001 221.10275390625A8.790234375 8.790234375 0 1 0 229.1023828125001 203.5228710937501A8.790234375 8.790234375 0 1 0 229.1023828125001 221.10275390625" />
    <glyph glyph-name="avatar-2"
      unicode="&#xF11D;"
      horiz-adv-x="300" d="M210.83203125 263.1240234375C189.3603515625 263.1240234375 171.952734375 245.7169921875 171.952734375 224.2447265625V211.344140625L14.8921875 90.553125C8.70703125 85.7816015625 7.5580078125 76.9013671875 12.28552734375 70.7162109375C17.01287109375 64.5310546875 25.93728515625 63.38203125 32.12244140625 68.10955078125L65.08142578125 93.46951171875H123.88611328125L144.47419921875 43.50134765625C146.6832421875 38.06712890625 152.91287109375 35.50447265625 158.30291015625 37.71369140625C163.69294921875 39.922734375 166.29978515625 46.15236328125 164.09056640625 51.54240234375L146.81595703125 93.46974609375H166.29955078125L186.88763671875 43.45705078125C189.0966796875 38.02283203125 195.32630859375 35.46017578125 200.71634765625 37.66939453125C206.10638671875 39.8784375 208.71322265625 46.10806640625 206.50400390625 51.49810546875L187.94794921875 96.56255859375C223.60166015625 106.67994140625 249.71162109375 139.41802734375 249.71162109375 178.29498046875V210.10494140625L285.27685546875 218.98541015625C289.0763671875 219.91318359375 291.37353515625 223.75693359375 290.40181640625 227.5565039062501C287.265 240.14830078125 275.95494140625 248.9842382812501 262.96587890625 248.9842382812501H240.83150390625C233.67427734375 257.5992773437501 222.89419921875 263.12232421875 210.83267578125 263.12232421875M210.83267578125 234.8467382812501A10.6037109375 10.6037109375 0 1 0 210.83267578125 213.6399023437501A10.6037109375 10.6037109375 0 1 0 210.83267578125 234.8467382812501" />
    <glyph glyph-name="avatar-1"
      unicode="&#xF11E;"
      horiz-adv-x="300" d="M150 300C181.0546875 300 206.25 274.8046875 206.25 243.75V241.640625C206.25 232.44140625 198.80859375 225 189.609375 225H110.44921875C101.25 225 93.80859375 232.44140625 93.80859375 241.640625V243.75C93.80859375 274.8046875 119.00390625 300 150.05859375 300zM24.2578125 238.2421875C31.58203125 245.56640625 43.4765625 245.56640625 50.80078125 238.2421875L88.30078125 200.7421875C88.7109375 200.33203125 89.0625 199.921875 89.4140625 199.51171875C97.734375 203.7890625 107.2265625 206.19140625 117.24609375 206.19140625H182.87109375C192.890625 206.19140625 202.32421875 203.7890625 210.703125 199.51171875C211.0546875 199.921875 211.40625 200.33203125 211.81640625 200.7421875L249.31640625 238.2421875C256.640625 245.56640625 268.53515625 245.56640625 275.859375 238.2421875S283.18359375 219.0234375 275.859375 211.69921875L238.359375 174.19921875C237.94921875 173.7890625 237.5390625000001 173.4375 237.12890625 173.0859375C240.76171875 166.0546875 243.046875 158.26171875 243.6328125 149.94140625H281.30859375C291.6796875 149.94140625 300.05859375 141.5625 300.05859375 131.19140625S291.6796875 112.44140625 281.30859375 112.44140625H243.80859375C243.80859375 98.02734375 240.5859375 84.43359375 234.7851562500001 72.24609375Q236.7187500000001 71.103515625 238.3007812500001 69.43359375L275.80078125 31.9335937499999C283.125 24.6093749999999 283.125 12.7148437499999 275.80078125 5.3906249999999S256.58203125 -1.9335937500001 249.2578125000001 5.3906249999999L212.28515625 42.36328125C197.9296875 29.5898437499999 179.58984375 21.15234375 159.375 19.1601562499999V159.375C159.375 164.53125 155.15625 168.75 150 168.75S140.625 164.53125 140.625 159.375V19.21875C120.41015625 21.2109375 102.0703125 29.6484375 87.71484375 42.421875L50.7421875 5.5078125C43.41796875 -1.8164062499999 31.5234375 -1.8164062499999 24.19921875 5.5078125S16.875 24.7265625 24.19921875 32.05078125L61.69921875 69.55078125C62.8125 70.6640625 63.984375 71.54296875 65.21484375 72.36328125C59.47265625 84.4921875 56.25 98.0859375 56.25 112.5H18.75C8.37890625 112.5 0 120.87890625 0 131.25S8.37890625 150 18.75 150H56.42578125C57.0703125 158.26171875 59.35546875 166.11328125 62.9296875 173.14453125C62.51953125 173.49609375 62.109375 173.84765625 61.69921875 174.2578125L24.19921875 211.7578125C16.875 219.08203125 16.875 230.9765625 24.19921875 238.30078125z" />
    <glyph glyph-name="avatar-0"
      unicode="&#xF11F;"
      horiz-adv-x="300" d="M196.775390625 213.392578125C195.67669921875 211.25009765625 195.89642578125 208.6681640625 197.43462890625 206.8001953125C201.280078125 202.13068359375 204.52154296875 196.8568359375 206.88345703125 191.1984375L233.52720703125 202.6248046875V224.7087890625C233.52720703125 232.0154296875 239.40533203125 237.89296875 246.71138671875 237.89296875S259.89556640625 232.01484375 259.89556640625 224.7087890625V213.9416015625L272.2559179687499 219.27029296875C278.9578710937499 222.1269140625 286.70396484375 219.0505546875 289.56041015625 212.34861328125C292.4170312499999 205.64666015625 289.3406718749999 197.90056640625 282.63873046875 195.04412109375L251.8752539062499 181.85994140625L211.4432226562499 164.55544921875Q211.0312089843749 156.72732421875 208.8063281249999 149.55837890625C208.14708984375 147.470859375 208.7513671874999 145.1635546875 210.3445312499999 143.62517578125C227.3197265625 127.52947265625 237.9216796875 104.84080078125 237.9216796875 79.68181640625C237.9216796875 55.12576171875 227.86875 32.9866992187501 211.6628906249999 16.99822265625C206.2243359375 11.66953125 198.643359375 9.36228515625 191.0624999999999 9.36228515625H109.0429687499999C101.4070312499999 9.36228515625 93.8261718749999 11.66958984375 88.4425781249999 16.99822265625C72.1816406249999 32.98435546875 62.1287109375 55.12341796875 62.1287109375 79.68181640625C62.1287109375 104.84197265625 72.73125 127.53005859375 89.6513671874999 143.5724414062501C91.2444726562499 145.1106445312501 91.84875 147.3629882812501 91.1895703125 149.50564453125C89.706328125 154.28501953125 88.82736328125 159.3388476562501 88.55267578125 164.50271484375L48.1206445312499 181.80720703125L17.3571679687499 194.99138671875C10.7102929687499 197.90296875 7.5784570312499 205.64900390625 10.4354882812499 212.35095703125S21.0380273437499 222.12966796875 27.7399804687499 219.27263671875L40.1554101562499 213.9439453125V224.7111328125C40.1554101562499 232.0177734375 46.0335351562499 237.8953125 53.3395898437499 237.8953125C60.6462304687499 237.8953125 66.5237695312499 232.0171875000001 66.5237695312499 224.7111328125V202.6271484375L93.2220117187499 191.20078125C95.5842187499999 196.85912109375 98.77048828125 202.1326171875001 102.67083984375 206.8025390625C104.20904296875 208.6703320312501 104.4837304687499 211.252265625 103.3300781249999 213.394921875C99.4846289062499 220.7560546875 97.2873046875 229.051171875 97.2873046875 237.8958984375C97.2873046875 267.01171875 120.909375 290.6337890625 150.0251953124999 290.6337890625S202.7630859374999 267.01171875 202.7630859374999 237.8958984375C202.7630859374999 229.051171875 200.5657031249999 220.7560546875 196.7753906249999 213.394921875M132.4453124999999 237.8958984375A8.7896484375 8.7896484375 0 1 1 132.4453124999999 255.4751953125001A8.7896484375 8.7896484375 0 1 1 132.4453124999999 237.8958984375M158.8142578124999 167.5775390625A8.7896484375 8.7896484375 0 1 1 141.2349609374999 167.5775390625A8.7896484375 8.7896484375 0 1 1 158.8142578124999 167.5775390625M150.0246093749999 123.629296875A8.7896484375 8.7896484375 0 1 1 150.0246093749999 141.20859375A8.7896484375 8.7896484375 0 1 1 150.0246093749999 123.629296875M158.8142578124999 97.2603515625A8.7896484375 8.7896484375 0 1 1 141.2349609374999 97.2603515625A8.7896484375 8.7896484375 0 1 1 158.8142578124999 97.2603515625M167.6039062499999 237.8970703125001A8.7896484375 8.7896484375 0 1 1 167.6039062499999 255.4763671875001A8.7896484375 8.7896484375 0 1 1 167.6039062499999 237.8970703125001M141.2349609374999 224.712890625V222.9549609375C141.2349609374999 221.19703125 141.6744433593749 219.4940625000001 142.4984765624999 218.0108203125L147.4426171874999 208.726640625C147.9370371093749 207.7927734375001 148.9258593749999 207.1884375 150.0245507812499 207.1884375S152.1120703124999 207.79271484375 152.6064843749999 208.726640625L157.5506249999999 218.0108203125C158.3746289062499 219.5490234375001 158.8141406249999 221.2519921875 158.8141406249999 222.9549609375V224.712890625C158.8141406249999 229.5471679687501 154.8588281249999 233.5025390625001 150.0244921874999 233.5025390625001C145.1902148437499 233.5025390625001 141.2348437499999 229.5472265625001 141.2348437499999 224.712890625" />
    <glyph glyph-name="arrow-up"
      unicode="&#xF120;"
      horiz-adv-x="300" d="M39.3849609375 137.572265625L132.4259765625 230.61328125V26.953125C132.4259765625 17.25 140.3009765625 9.375 150.0041015625 9.375S167.5822265625 17.25 167.5822265625 26.953125V230.61328125L260.6232421875 137.572265625C267.4962890625 130.69921875 278.6232421875 130.69921875 285.4787109375 137.572265625C292.3341796875 144.4453125 292.3517578125 155.572265625 285.4787109375 162.427734375L162.4318359375 285.474609375C160.8146484375001 287.091796875 158.8810546875 288.392578125 156.7365820312501 289.2890625S152.289375 290.625 150.00416015625 290.625C145.50421875 290.625 141.00416015625 288.90234375 137.57642578125 285.47466796875L14.52955078125 162.42779296875C7.65650390625 155.55474609375 7.65650390625 144.42779296875 14.52955078125 137.57232421875S32.52955078125 130.69927734375 39.38501953125 137.57232421875z" />
    <glyph glyph-name="arrow-right"
      unicode="&#xF121;"
      horiz-adv-x="300" d="M137.572265625 260.6173828125L230.61328125 167.5763671875H26.947265625C17.244140625 167.5763671875 9.369140625 159.7013671875 9.369140625 149.9982421875S17.244140625 132.4201171875 26.947265625 132.4201171875H230.61328125L137.572265625 39.3791015625C130.69921875 32.5060546875 130.69921875 21.3791015625 137.572265625 14.523046875C144.4453125 7.667578125 155.572265625 7.65 162.4283203125 14.523046875L285.4751953125001 137.569921875C287.0923828125 139.187109375 288.3932226562501 141.12076171875 289.2897070312501 143.2653515625C291.0650976562501 147.57205078125 291.0650976562501 152.4235546875 289.2897070312501 156.7301953125C288.4283789062501 158.8044140625 287.1627539062501 160.73806640625 285.4751953125001 162.425625L162.4283203125 285.4725C155.5552734375 292.345546875 144.4283203125 292.345546875 137.572265625 285.4725C130.716796875 278.599453125 130.69921875 267.4725 137.572265625 260.6164453125z" />
    <glyph glyph-name="arrow-left"
      unicode="&#xF122;"
      horiz-adv-x="300" d="M162.427734375 39.38671875L69.38671875 132.427734375H273.046875C282.75 132.427734375 290.625 140.302734375 290.625 150.005859375S282.75 167.583984375 273.046875 167.583984375H69.38671875L162.427734375 260.625C169.30078125 267.498046875 169.30078125 278.625 162.427734375 285.48046875S144.427734375 292.353515625 137.572265625 285.48046875L14.525390625 162.43359375C12.837890625 160.74609375 11.572265625 158.8125 10.7109375 156.73828125C9.814453125 154.59375 9.375 152.291015625 9.375 150.005859375C9.375 145.505859375 11.09765625 141.005859375 14.525390625 137.578125L137.572265625 14.53125C144.4453125 7.6582031249999 155.572265625 7.6582031249999 162.427734375 14.53125C169.283203125 21.404296875 169.30078125 32.53125 162.427734375 39.38671875z" />
    <glyph glyph-name="arrow-down"
      unicode="&#xF123;"
      horiz-adv-x="300" d="M260.61328125 162.427734375L167.572265625 69.38671875V273.046875C167.572265625 282.75 159.697265625 290.625 149.994140625 290.625C140.291015625 290.625 132.416015625 282.75 132.416015625 273.046875V69.38671875L39.375 162.427734375C32.501953125 169.30078125 21.375 169.30078125 14.51953125 162.427734375C7.6640625 155.5546875 7.646484375 144.427734375 14.51953125 137.572265625L137.56640625 14.525390625C139.18359375 12.908203125 141.1171875 11.607421875 143.26166015625 10.7109375C147.5682421875 8.9355468750001 152.41986328125 8.9355468750001 156.72650390625 10.7109375C158.80072265625 11.5722656250001 160.73431640625 12.837890625 162.4217578125 14.525390625L285.4686328125 137.572265625C292.3416796875001 144.4453125 292.3416796875001 155.572265625 285.4686328125 162.427734375C278.5955859375 169.283203125 267.4686328125001 169.30078125 260.6131640625 162.427734375z" />
  </font>
</defs>
</svg>
