<?xml version="1.0" standalone="no"?><!DOCTYPE svg PUBLIC "-//W3C//DTD SVG 1.1//EN" "http://www.w3.org/Graphics/SVG/1.1/DTD/svg11.dtd" ><svg xmlns="http://www.w3.org/2000/svg"><metadata></metadata><defs>
<font id="SFMono-Light" >
<font-face font-family="SF Mono" font-stretch="normal" units-per-em="2048" weight="300" panose-1="2,11,0,9,0,0,2,0,0,0" ascent="1950" descent="-494" x-height="1077" underline-thickness="100" underline-position="-150" unicode-range="U+00000032-00064258" bbox="-136,-840,1402,2288" />
<missing-glyph horiz-adv-x="1266" d="" />
<glyph glyph-name="space" unicode="&#x20;" horiz-adv-x="1266" d="" />
<glyph glyph-name="exclam" unicode="&#x21;" horiz-adv-x="1266" d="M556 1443L569 449L698 449L711 1443ZM633 -13C700 -13 754 44 754 114C754 184 700 241 633 241C566 241 512 184 512 114C512 44 566 -13 633 -13Z" />
<glyph glyph-name="quotedbl" unicode="&#x22;" horiz-adv-x="1266" d="M527 820L527 1443L382 1443L382 820ZM887 820L887 1443L740 1443L740 820Z" />
<glyph glyph-name="numbersign" unicode="&#x23;" horiz-adv-x="1266" d="M1154 920L1180 1030L968 1030L1051 1443L937 1443L854 1030L532 1030L614 1443L500 1443L418 1030L204 1030L180 920L394 920L321 537L108 537L81 426L295 426L210 0L325 0L408 426L731 426L646 0L760 0L845 426L1057 426L1082 537L869 537L943 920ZM508 915L826 915L754 541L437 541Z" />
<glyph glyph-name="dollar" unicode="&#x24;" horiz-adv-x="1266" d="M707 658C911 605 996 522 996 378C996 223 881 113 707 93ZM593 818C401 873 326 948 326 1085C326 1234 427 1332 593 1350ZM707 788L707 1349C857 1330 956 1235 974 1090L1106 1090C1093 1305 938 1450 707 1471L707 1584L593 1584L593 1471C348 1451 191 1304 191 1085C191 881 313 759 587 689L593 687L593 93C422 112 304 219 287 375L155 375C171 143 338 -8 593 -28L593 -141L707 -141L707 -28C965 -8 1131 149 1131 378C1131 590 1015 707 728 782Z" />
<glyph glyph-name="percent" unicode="&#x25;" horiz-adv-x="1266" d="M267 748C432 748 534 860 534 1039L534 1165C534 1344 432 1456 267 1456C102 1456 0 1344 0 1165L0 1039C0 860 102 748 267 748ZM267 853C164 853 111 927 111 1069L111 1135C111 1277 164 1351 267 1351C370 1351 423 1277 423 1135L423 1069C423 927 370 853 267 853ZM999 -13C1164 -13 1266 99 1266 278L1266 404C1266 583 1164 695 999 695C834 695 732 583 732 404L732 278C732 99 834 -13 999 -13ZM999 92C896 92 843 166 843 308L843 374C843 516 896 590 999 590C1102 590 1155 516 1155 374L1155 308C1155 166 1102 92 999 92ZM1266 1443L0 154L0 0L1266 1289Z" />
<glyph glyph-name="ampersand" unicode="&#x26;" horiz-adv-x="1266" d="M544 1363C650 1363 729 1282 729 1174C729 1056 678 987 504 870C397 1005 359 1085 359 1174C359 1282 438 1363 544 1363ZM470 733L849 246C771 147 649 92 508 92C331 92 213 205 213 375C213 508 279 609 427 705ZM1044 0L1208 0L992 262C1059 392 1092 535 1099 722L980 722C975 572 954 456 913 351L576 791C783 930 852 1026 852 1174C852 1351 725 1473 543 1473C361 1473 234 1351 234 1174C234 1073 286 958 396 819L353 790C173 668 84 531 84 375C84 139 259 -25 511 -25C669 -25 805 37 922 162Z" />
<glyph glyph-name="quotesingle" unicode="&#x27;" horiz-adv-x="1266" d="M706 820L706 1443L561 1443L561 820Z" />
<glyph glyph-name="parenleft" unicode="&#x28;" horiz-adv-x="1266" d="M439 722C439 397 538 116 731 -106L859 -106C656 169 568 419 568 722C568 1025 656 1275 859 1550L731 1550C538 1328 439 1047 439 722Z" />
<glyph glyph-name="parenright" unicode="&#x29;" horiz-adv-x="1266" d="M407 1550C610 1275 698 1025 698 722C698 419 610 169 407 -106L535 -106C728 116 827 397 827 722C827 1047 728 1328 535 1550Z" />
<glyph glyph-name="asterisk" unicode="&#x2a;" horiz-adv-x="1266" d="M1162 879L1105 977L681 721L690 1217L576 1217L586 721L161 977L104 879L538 639L104 399L161 301L585 557L576 61L690 61L681 557L1105 301L1162 399L728 639Z" />
<glyph glyph-name="plus" unicode="&#x2b;" horiz-adv-x="1266" d="M692 581L1162 581L1162 697L692 697L692 1167L574 1167L574 697L104 697L104 581L574 581L574 113L692 113Z" />
<glyph glyph-name="comma" unicode="&#x2c;" horiz-adv-x="1266" d="M566 -335L744 361L547 361L418 -335Z" />
<glyph glyph-name="hyphen" unicode="&#x2d;" horiz-adv-x="1266" d="M1162 581L1162 697L104 697L104 581Z" />
<glyph glyph-name="period" unicode="&#x2e;" horiz-adv-x="1266" d="M633 0C724 0 799 75 799 166C799 257 724 332 633 332C542 332 467 257 467 166C467 75 542 0 633 0Z" />
<glyph glyph-name="slash" unicode="&#x2f;" horiz-adv-x="1266" d="M340 -99L1051 1542L926 1542L215 -99Z" />
<glyph glyph-name="zero" unicode="&#x30;" horiz-adv-x="1266" d="M951 938C959 873 963 801 963 721C963 304 850 86 634 86C489 86 391 184 342 373ZM317 507C309 571 305 643 305 721C305 1138 418 1356 634 1356C780 1356 878 1257 927 1065ZM634 1476C333 1476 168 1209 168 721C168 233 333 -34 634 -34C935 -34 1100 233 1100 721C1100 1209 935 1476 634 1476Z" />
<glyph glyph-name="one" unicode="&#x31;" horiz-adv-x="1266" d="M753 118L753 1443L618 1443L174 1156L174 1004L602 1280L617 1280L617 118L178 118L178 0L1172 0L1172 118Z" />
<glyph glyph-name="two" unicode="&#x32;" horiz-adv-x="1266" d="M194 1050L194 1044L329 1044L329 1050C329 1234 444 1353 620 1353C798 1353 913 1243 913 1073C913 951 872 874 695 665L200 87L200 0L1074 0L1074 124L402 124L402 140L763 557C988 816 1050 928 1050 1075C1050 1311 876 1473 623 1473C375 1473 194 1295 194 1050Z" />
<glyph glyph-name="three" unicode="&#x33;" horiz-adv-x="1266" d="M457 686L619 686C832 686 967 568 967 382C967 202 837 90 627 90C437 90 300 200 282 369L151 369C164 130 357 -30 631 -30C905 -30 1106 145 1106 385C1106 585 992 722 802 749L802 764C955 804 1044 928 1044 1103C1044 1318 866 1473 621 1473C368 1473 199 1324 179 1083L316 1083C333 1251 445 1353 614 1353C784 1353 899 1246 899 1086C899 922 778 804 610 804L457 804Z" />
<glyph glyph-name="four" unicode="&#x34;" horiz-adv-x="1266" d="M822 0L945 0L945 319L1176 319L1176 441L947 441L947 870L822 870L822 436L304 436L304 446L809 1443L669 1443L160 424L160 319L822 319Z" />
<glyph glyph-name="five" unicode="&#x35;" horiz-adv-x="1266" d="M619 -29C903 -29 1096 165 1096 451C1096 736 909 936 642 936C518 936 418 894 343 810L328 810L371 1320L1018 1320L1018 1443L264 1443L189 637L316 637C375 746 492 811 631 811C827 811 960 664 960 448C960 234 829 91 631 91C449 91 310 207 294 373L163 373C180 132 363 -29 619 -29Z" />
<glyph glyph-name="six" unicode="&#x36;" horiz-adv-x="1266" d="M1104 454C1104 716 914 909 655 909C562 909 452 861 413 803L400 813C406 825 397 811 441 875L846 1443L687 1443L357 960C221 761 165 611 165 445C165 171 363 -30 632 -30C908 -30 1104 171 1104 454ZM635 88C443 88 296 244 296 446C296 648 443 804 635 804C827 804 974 648 974 446C974 244 827 88 635 88Z" />
<glyph glyph-name="seven" unicode="&#x37;" horiz-adv-x="1266" d="M303 0L449 0L1110 1315L1110 1443L170 1443L170 1320L970 1320L970 1309Z" />
<glyph glyph-name="eight" unicode="&#x38;" horiz-adv-x="1266" d="M639 818C461 818 344 924 344 1084C344 1244 461 1350 639 1350C817 1350 934 1244 934 1084C934 924 817 818 639 818ZM639 90C431 90 287 214 287 393C287 572 431 696 639 696C847 696 991 572 991 393C991 214 847 90 639 90ZM639 -33C924 -33 1125 140 1125 385C1125 568 1007 720 838 754L838 769C981 812 1067 935 1067 1094C1067 1318 889 1476 639 1476C389 1476 211 1318 211 1094C211 936 299 811 439 769L439 754C266 712 153 565 153 385C153 140 354 -33 639 -33Z" />
<glyph glyph-name="nine" unicode="&#x39;" horiz-adv-x="1266" d="M159 989C159 727 349 534 608 534C700 534 807 581 846 640L859 630C852 618 847 610 817 568L412 0L571 0L901 483C1041 689 1098 838 1098 998C1098 1272 900 1473 631 1473C355 1473 159 1272 159 989ZM628 1355C820 1355 967 1199 967 997C967 795 820 639 628 639C436 639 289 795 289 997C289 1199 436 1355 628 1355Z" />
<glyph glyph-name="colon" unicode="&#x3a;" horiz-adv-x="1266" d="M633 0C724 0 799 75 799 166C799 257 724 332 633 332C542 332 467 257 467 166C467 75 542 0 633 0ZM633 773C724 773 799 848 799 939C799 1030 724 1105 633 1105C542 1105 467 1030 467 939C467 848 542 773 633 773Z" />
<glyph glyph-name="semicolon" unicode="&#x3b;" horiz-adv-x="1266" d="M633 773C724 773 799 848 799 939C799 1030 724 1105 633 1105C542 1105 467 1030 467 939C467 848 542 773 633 773ZM566 -335L744 361L547 361L418 -335Z" />
<glyph glyph-name="less" unicode="&#x3c;" horiz-adv-x="1266" d="M1049 1068L1049 1204L216 691L216 587L1049 74L1049 210L343 631L343 647Z" />
<glyph glyph-name="equal" unicode="&#x3d;" horiz-adv-x="1266" d="M1162 366L1162 481L104 481L104 366ZM1162 797L1162 912L104 912L104 797Z" />
<glyph glyph-name="greater" unicode="&#x3e;" horiz-adv-x="1266" d="M922 647L922 631L216 210L216 74L1049 587L1049 691L216 1204L216 1068Z" />
<glyph glyph-name="question" unicode="&#x3f;" horiz-adv-x="1266" d="M231 1079L364 1079C377 1238 478 1333 636 1333C788 1333 892 1236 892 1094C892 983 848 912 738 843C602 759 536 669 536 551L536 449L677 449L677 513C677 625 714 683 833 756C966 838 1035 957 1035 1103C1035 1304 867 1453 639 1453C403 1453 246 1309 231 1079ZM613 -13C680 -13 734 44 734 114C734 184 680 241 613 241C546 241 492 184 492 114C492 44 546 -13 613 -13Z" />
<glyph glyph-name="at" unicode="&#x40;" horiz-adv-x="1266" d="M657 -195C759 -195 859 -179 907 -154L907 -49C864 -72 766 -89 677 -89C375 -89 232 118 232 556L232 731C232 1162 366 1367 647 1367C908 1367 1051 1189 1051 866L1051 572C1051 463 1016 424 919 424L745 424L745 829C745 899 711 942 657 942C603 942 569 899 569 829L569 432C569 362 614 319 688 319L934 319C1076 319 1161 414 1161 572L1161 882C1161 1256 972 1473 647 1473C308 1473 120 1213 120 746L120 532C120 62 310 -195 657 -195Z" />
<glyph glyph-name="A" unicode="&#x41;" horiz-adv-x="1266" d="M408 560L632 1264L634 1264L858 560ZM1036 0L1176 0L700 1443L566 1443L90 0L230 0L371 442L895 442Z" />
<glyph glyph-name="B" unicode="&#x42;" horiz-adv-x="1266" d="M649 0C960 0 1141 147 1141 399C1141 595 1018 734 823 756L823 769C967 796 1067 926 1067 1087C1067 1310 910 1443 648 1443L204 1443L204 0ZM341 1322L622 1322C817 1322 929 1228 929 1065C929 897 811 807 589 807L341 807ZM341 121L341 688L623 688C871 688 1001 591 1001 406C1001 221 871 121 630 121Z" />
<glyph glyph-name="C" unicode="&#x43;" horiz-adv-x="1266" d="M666 97C412 97 279 271 279 602L279 841C279 1172 412 1346 666 1346C865 1346 1006 1207 1014 1002L1151 1002C1144 1294 959 1473 666 1473C334 1473 142 1242 142 841L142 602C142 201 334 -30 666 -30C948 -30 1150 154 1150 411L1013 411C1007 216 875 97 666 97Z" />
<glyph glyph-name="D" unicode="&#x44;" horiz-adv-x="1266" d="M174 1443L174 0L557 0C967 0 1172 240 1172 721C1172 1203 967 1443 557 1443ZM311 1319L549 1319C876 1319 1032 1126 1032 721C1032 316 876 124 549 124L311 124Z" />
<glyph glyph-name="E" unicode="&#x45;" horiz-adv-x="1266" d="M1072 124L379 124L379 678L1035 678L1035 800L379 800L379 1319L1072 1319L1072 1443L242 1443L242 0L1072 0Z" />
<glyph glyph-name="F" unicode="&#x46;" horiz-adv-x="1266" d="M405 0L405 655L1039 655L1039 777L405 777L405 1319L1097 1319L1097 1443L268 1443L268 0Z" />
<glyph glyph-name="G" unicode="&#x47;" horiz-adv-x="1266" d="M1004 428C1004 224 871 97 658 97C404 97 271 271 271 602L271 841C271 1172 404 1346 658 1346C857 1346 997 1207 1005 1002L1142 1002C1135 1294 951 1473 658 1473C326 1473 134 1242 134 841L134 602C134 201 326 -30 658 -30C940 -30 1141 152 1141 409L1141 719L648 719L648 597L1004 597Z" />
<glyph glyph-name="H" unicode="&#x48;" horiz-adv-x="1266" d="M1100 0L1100 1443L963 1443L963 801L303 801L303 1443L166 1443L166 0L303 0L303 677L963 677L963 0Z" />
<glyph glyph-name="I" unicode="&#x49;" horiz-adv-x="1266" d="M991 0L991 118L701 118L701 1325L991 1325L991 1443L275 1443L275 1325L565 1325L565 118L275 118L275 0Z" />
<glyph glyph-name="J" unicode="&#x4a;" horiz-adv-x="1266" d="M590 -30C844 -30 1000 130 1000 393L1000 1443L375 1443L375 1325L863 1325L863 398C863 206 764 97 589 97C439 97 331 192 325 330L189 330C191 118 356 -30 590 -30Z" />
<glyph glyph-name="K" unicode="&#x4b;" horiz-adv-x="1266" d="M375 0L375 515L533 700L1053 0L1230 0L624 805L1171 1443L1000 1443L387 697L375 697L375 1443L238 1443L238 0Z" />
<glyph glyph-name="L" unicode="&#x4c;" horiz-adv-x="1266" d="M1114 124L411 124L411 1443L275 1443L275 0L1114 0Z" />
<glyph glyph-name="M" unicode="&#x4d;" horiz-adv-x="1266" d="M232 0L232 1177L242 1177L574 339L692 339L1024 1177L1034 1177L1034 0L1162 0L1162 1443L1004 1443L639 519L628 519L261 1443L104 1443L104 0Z" />
<glyph glyph-name="N" unicode="&#x4e;" horiz-adv-x="1266" d="M290 0L290 1199L303 1199L968 0L1104 0L1104 1443L976 1443L976 245L963 245L301 1443L162 1443L162 0Z" />
<glyph glyph-name="O" unicode="&#x4f;" horiz-adv-x="1266" d="M1152 602L1152 841C1152 1239 954 1473 633 1473C312 1473 114 1239 114 841L114 602C114 204 312 -30 633 -30C954 -30 1152 204 1152 602ZM633 97C397 97 251 282 251 602L251 841C251 1161 397 1346 633 1346C869 1346 1015 1161 1015 841L1015 602C1015 282 869 97 633 97Z" />
<glyph glyph-name="P" unicode="&#x50;" horiz-adv-x="1266" d="M216 1443L216 0L353 0L353 545L678 545C949 545 1130 725 1130 994C1130 1263 949 1443 678 1443ZM353 1321L645 1321C864 1321 991 1201 991 994C991 787 864 667 645 667L353 667Z" />
<glyph glyph-name="Q" unicode="&#x51;" horiz-adv-x="1266" d="M251 841C251 1161 397 1346 633 1346C869 1346 1015 1161 1015 841L1015 602C1015 436 976 306 905 220L746 461L589 461L803 136C754 110 697 97 633 97C397 97 251 282 251 602ZM1162 -169L982 103C1091 211 1152 381 1152 602L1152 841C1152 1239 954 1473 633 1473C312 1473 114 1239 114 841L114 602C114 204 312 -30 633 -30C725 -30 806 -11 876 26L1005 -169Z" />
<glyph glyph-name="R" unicode="&#x52;" horiz-adv-x="1266" d="M330 1321L657 1321C863 1321 979 1211 979 1015C979 820 861 713 647 713L330 713ZM709 595L983 0L1137 0L841 626C1008 676 1115 831 1115 1021C1115 1280 941 1443 666 1443L196 1443L196 0L330 0L330 595Z" />
<glyph glyph-name="S" unicode="&#x53;" horiz-adv-x="1266" d="M155 375C172 126 363 -30 650 -30C940 -30 1131 132 1131 378C1131 594 1015 714 734 787L617 818C417 870 331 950 331 1085C331 1250 450 1348 650 1348C831 1348 949 1253 969 1090L1106 1090C1092 1322 912 1473 650 1473C372 1473 191 1320 191 1085C191 878 310 755 581 684L694 655C900 602 991 516 991 378C991 207 856 95 650 95C448 95 311 202 292 375Z" />
<glyph glyph-name="T" unicode="&#x54;" horiz-adv-x="1266" d="M701 0L701 1319L1145 1319L1145 1443L121 1443L121 1319L565 1319L565 0Z" />
<glyph glyph-name="U" unicode="&#x55;" horiz-adv-x="1266" d="M633 96C405 96 271 248 271 505L271 1443L135 1443L135 496C135 168 322 -30 633 -30C944 -30 1131 168 1131 496L1131 1443L995 1443L995 505C995 248 861 96 633 96Z" />
<glyph glyph-name="V" unicode="&#x56;" horiz-adv-x="1266" d="M634 179L632 179L229 1443L90 1443L566 0L700 0L1176 1443L1037 1443Z" />
<glyph glyph-name="W" unicode="&#x57;" horiz-adv-x="1266" d="M638 915L874 0L1009 0L1266 1443L1133 1443L937 213L928 213L701 1113L565 1113L338 213L329 213L133 1443L0 1443L257 0L392 0L628 915Z" />
<glyph glyph-name="X" unicode="&#x58;" horiz-adv-x="1266" d="M86 0L231 0L623 606L628 606L1015 0L1172 0L707 719L1180 1443L1035 1443L642 834L637 834L248 1443L90 1443L555 724Z" />
<glyph glyph-name="Y" unicode="&#x59;" horiz-adv-x="1266" d="M701 0L701 624L1189 1443L1032 1443L639 763L627 763L234 1443L77 1443L565 624L565 0Z" />
<glyph glyph-name="Z" unicode="&#x5a;" horiz-adv-x="1266" d="M138 0L1122 0L1122 124L318 124L318 136L1110 1343L1110 1443L167 1443L167 1319L933 1319L933 1307L138 99Z" />
<glyph glyph-name="bracketleft" unicode="&#x5b;" horiz-adv-x="1266" d="M388 1542L388 -99L878 -99L878 0L514 0L514 1443L878 1443L878 1542Z" />
<glyph glyph-name="backslash" unicode="&#x5c;" horiz-adv-x="1266" d="M1051 -99L340 1542L215 1542L926 -99Z" />
<glyph glyph-name="bracketright" unicode="&#x5d;" horiz-adv-x="1266" d="M388 1542L388 1443L752 1443L752 0L388 0L388 -99L878 -99L878 1542Z" />
<glyph glyph-name="asciicircum" unicode="&#x5e;" horiz-adv-x="1266" d="M624 1344L641 1344L870 747L994 747L714 1443L551 1443L271 747L395 747Z" />
<glyph glyph-name="underscore" unicode="&#x5f;" horiz-adv-x="1266" d="M1152 -292L1152 -190L114 -190L114 -292Z" />
<glyph glyph-name="grave" unicode="&#x60;" horiz-adv-x="1266" d="M838 1296L600 1628L428 1628L687 1296Z" />
<glyph glyph-name="a" unicode="&#x61;" horiz-adv-x="1266" d="M538 -19C701 -19 820 48 871 169L885 169L885 -1L1011 -1L1011 739C1011 958 869 1086 625 1086C417 1086 255 971 235 810L365 810C395 914 489 972 625 972C790 972 879 888 879 733L879 631L567 617C329 606 194 493 194 304C194 109 331 -19 538 -19ZM570 97C421 97 329 176 329 304C329 430 415 502 576 509L879 522L879 372C879 217 744 97 570 97Z" />
<glyph glyph-name="b" unicode="&#x62;" horiz-adv-x="1266" d="M681 -18C931 -18 1101 166 1101 435L1101 642C1101 911 931 1095 681 1095C525 1095 407 1031 356 918L338 918L338 1506L207 1506L207 0L332 0L332 155L350 155C413 42 528 -18 681 -18ZM652 99C460 99 335 243 335 466L335 610C335 833 460 977 652 977C845 977 970 832 970 610L970 466C970 244 845 99 652 99Z" />
<glyph glyph-name="c" unicode="&#x63;" horiz-adv-x="1266" d="M1067 760C1039 962 875 1095 652 1095C369 1095 199 915 199 615L199 462C199 162 369 -18 652 -18C875 -18 1039 115 1067 317L937 317C915 189 796 100 649 100C444 100 330 237 330 484L330 593C330 840 444 977 649 977C796 977 915 888 937 760Z" />
<glyph glyph-name="d" unicode="&#x64;" horiz-adv-x="1266" d="M296 610C296 832 421 977 614 977C806 977 931 833 931 610L931 466C931 243 806 99 614 99C421 99 296 244 296 466ZM934 155L934 0L1059 0L1059 1506L928 1506L928 918L910 918C859 1031 741 1095 585 1095C335 1095 165 911 165 642L165 435C165 166 335 -18 585 -18C738 -18 853 42 916 155Z" />
<glyph glyph-name="e" unicode="&#x65;" horiz-adv-x="1266" d="M644 979C834 979 948 841 948 612L332 612C332 842 449 979 644 979ZM946 266C913 161 806 99 659 99C459 99 332 242 332 467L332 504L1081 504L1081 589C1081 911 922 1095 644 1095C377 1095 201 909 201 625L201 468C201 161 369 -18 659 -18C876 -18 1040 94 1076 266Z" />
<glyph glyph-name="f" unicode="&#x66;" horiz-adv-x="1266" d="M484 0L615 0L615 966L1106 966L1106 1077L615 1077L615 1197C615 1318 704 1381 874 1381C947 1381 1049 1376 1106 1369L1106 1479C1063 1486 950 1493 874 1493C618 1493 484 1392 484 1201L484 1077L194 1077L194 966L484 966Z" />
<glyph glyph-name="g" unicode="&#x67;" horiz-adv-x="1266" d="M286 466L286 610C286 832 411 977 604 977C796 977 921 833 921 610L921 466C921 243 796 99 604 99C411 99 286 244 286 466ZM601 -404C884 -404 1049 -255 1049 0L1049 1077L918 1077L918 918L900 918C849 1031 731 1095 575 1095C325 1095 155 911 155 642L155 435C155 166 325 -18 575 -18C730 -18 848 45 900 155L918 155L918 7C918 -183 805 -289 603 -289C450 -289 333 -224 309 -126L178 -126C202 -298 363 -404 601 -404Z" />
<glyph glyph-name="h" unicode="&#x68;" horiz-adv-x="1266" d="M207 0L338 0L338 640C338 840 469 977 662 977C843 977 928 878 928 667L928 0L1059 0L1059 700C1059 956 932 1095 697 1095C530 1095 404 1019 345 883L332 883L332 1506L207 1506Z" />
<glyph glyph-name="i" unicode="&#x69;" horiz-adv-x="1266" d="M653 1362C721 1362 777 1418 777 1486C777 1554 721 1610 653 1610C585 1610 529 1554 529 1486C529 1418 585 1362 653 1362ZM1102 0L1102 106L733 106L733 1077L221 1077L221 971L602 971L602 106L223 106L223 0Z" />
<glyph glyph-name="j" unicode="&#x6a;" horiz-adv-x="1266" d="M863 1077L221 1077L221 971L732 971L732 18C732 -155 668 -204 443 -204C363 -204 253 -200 191 -194L191 -304C277 -312 355 -315 446 -315C740 -315 863 -226 863 -12ZM783 1362C851 1362 907 1418 907 1486C907 1554 851 1610 783 1610C715 1610 659 1554 659 1486C659 1418 715 1362 783 1362Z" />
<glyph glyph-name="k" unicode="&#x6b;" horiz-adv-x="1266" d="M1140 0L684 660L1110 1077L944 1077L438 570L426 570L426 1506L295 1506L295 0L426 0L426 408L592 570L982 0Z" />
<glyph glyph-name="l" unicode="&#x6c;" horiz-adv-x="1266" d="M1102 0L1102 106L733 106L733 1506L221 1506L221 1400L602 1400L602 106L223 106L223 0Z" />
<glyph glyph-name="m" unicode="&#x6d;" horiz-adv-x="1266" d="M1143 773C1143 986 1063 1095 906 1095C795 1095 704 1031 675 933L661 933C638 1035 565 1095 462 1095C363 1095 284 1033 256 933L242 933L242 1077L123 1077L123 0L246 0L246 721C246 880 312 977 420 977C522 977 574 898 574 744L574 0L697 0L697 721C697 881 761 977 867 977C968 977 1020 898 1020 743L1020 0L1143 0Z" />
<glyph glyph-name="n" unicode="&#x6e;" horiz-adv-x="1266" d="M207 0L338 0L338 640C338 840 469 977 662 977C843 977 928 878 928 667L928 0L1059 0L1059 700C1059 956 932 1095 697 1095C530 1095 404 1019 345 883L332 883L332 1077L207 1077Z" />
<glyph glyph-name="o" unicode="&#x6f;" horiz-adv-x="1266" d="M633 -18C911 -18 1089 168 1089 458L1089 618C1089 908 911 1094 633 1094C355 1094 177 908 177 618L177 458C177 168 355 -18 633 -18ZM633 977C833 977 958 834 958 601L958 475C958 242 833 99 633 99C433 99 308 242 308 475L308 601C308 834 433 977 633 977Z" />
<glyph glyph-name="p" unicode="&#x70;" horiz-adv-x="1266" d="M681 1095C528 1095 413 1035 350 922L332 922L332 1077L207 1077L207 -365L338 -365L338 159L356 159C407 46 525 -18 681 -18C931 -18 1101 166 1101 435L1101 642C1101 911 931 1095 681 1095ZM652 977C845 977 970 832 970 610L970 466C970 244 845 99 652 99C460 99 335 243 335 466L335 610C335 833 460 977 652 977Z" />
<glyph glyph-name="q" unicode="&#x71;" horiz-adv-x="1266" d="M931 466C931 243 806 99 614 99C421 99 296 244 296 466L296 610C296 832 421 977 614 977C806 977 931 833 931 610ZM165 435C165 166 335 -18 585 -18C741 -18 859 46 910 159L928 159L928 -365L1059 -365L1059 1077L934 1077L934 922L916 922C853 1035 738 1095 585 1095C335 1095 165 911 165 642Z" />
<glyph glyph-name="r" unicode="&#x72;" horiz-adv-x="1266" d="M579 803L579 1077L207 1077L207 971L451 971L451 106L229 106L229 0L924 0L924 106L582 106L582 484C582 779 730 967 962 967C1020 967 1089 955 1139 937L1139 1080C1105 1095 1044 1104 982 1104C772 1104 630 995 593 803Z" />
<glyph glyph-name="s" unicode="&#x73;" horiz-adv-x="1266" d="M257 797C257 650 351 556 543 511L702 473C849 438 906 386 906 288C906 170 803 94 642 94C492 94 388 159 360 270L224 270C244 93 403 -18 636 -18C881 -18 1042 106 1042 296C1042 448 948 539 741 588L595 622C448 656 389 708 389 802C389 914 485 986 635 986C772 986 870 921 893 816L1022 816C999 986 850 1095 639 1095C412 1095 257 974 257 797Z" />
<glyph glyph-name="t" unicode="&#x74;" horiz-adv-x="1266" d="M464 1357L464 1077L174 1077L174 966L464 966L464 311C464 99 592 -6 851 -6C913 -6 1014 0 1046 6L1046 118C1011 113 932 110 858 110C687 110 595 182 595 315L595 966L1046 966L1046 1077L595 1077L595 1357Z" />
<glyph glyph-name="u" unicode="&#x75;" horiz-adv-x="1266" d="M1059 1077L928 1077L928 437C928 237 797 100 604 100C423 100 338 199 338 410L338 1077L207 1077L207 377C207 121 334 -18 569 -18C736 -18 862 58 921 194L934 194L934 0L1059 0Z" />
<glyph glyph-name="v" unicode="&#x76;" horiz-adv-x="1266" d="M161 1077L563 0L703 0L1105 1077L964 1077L639 143L627 143L301 1077Z" />
<glyph glyph-name="w" unicode="&#x77;" horiz-adv-x="1266" d="M1209 1077L1079 1077L908 163L896 163L700 1077L566 1077L370 163L358 163L187 1077L57 1077L295 0L430 0L627 894L640 894L836 0L971 0Z" />
<glyph glyph-name="x" unicode="&#x78;" horiz-adv-x="1266" d="M638 440L931 0L1088 0L706 547L1084 1077L933 1077L642 647L630 647L337 1077L179 1077L562 542L182 0L332 0L626 440Z" />
<glyph glyph-name="y" unicode="&#x79;" horiz-adv-x="1266" d="M337 -381C513 -381 589 -311 685 -52L1104 1077L964 1077L639 143L627 143L301 1077L159 1077L563 -7L541 -74C488 -217 434 -267 335 -267C319 -267 291 -266 276 -263L276 -377C293 -379 321 -381 337 -381Z" />
<glyph glyph-name="z" unicode="&#x7a;" horiz-adv-x="1266" d="M224 0L1042 0L1042 111L383 111L383 123L1041 976L1041 1077L225 1077L225 966L884 966L884 954L224 100Z" />
<glyph glyph-name="braceleft" unicode="&#x7b;" horiz-adv-x="1266" d="M1013 -99L1013 0L899 0C746 0 716 36 716 214L716 476C716 617 609 712 398 714L398 729C609 731 716 826 716 967L716 1229C716 1407 746 1443 899 1443L1013 1443L1013 1542L886 1542C660 1542 590 1471 590 1239L590 1014C590 861 493 759 253 789L253 654C493 684 590 582 590 429L590 204C590 -28 660 -99 886 -99Z" />
<glyph glyph-name="bar" unicode="&#x7c;" horiz-adv-x="1266" d="M690 -483L690 1542L576 1542L576 -483Z" />
<glyph glyph-name="braceright" unicode="&#x7d;" horiz-adv-x="1266" d="M380 -99C606 -99 676 -28 676 204L676 429C676 582 773 684 1013 654L1013 789C773 759 676 861 676 1014L676 1239C676 1471 606 1542 380 1542L253 1542L253 1443L367 1443C520 1443 550 1407 550 1229L550 967C550 826 657 731 868 729L868 714C657 712 550 617 550 476L550 214C550 36 520 0 367 0L253 0L253 -99Z" />
<glyph glyph-name="asciitilde" unicode="&#x7e;" horiz-adv-x="1266" d="M421 879C259 879 149 759 149 582L149 572L283 572C292 690 341 751 427 751C474 751 517 723 591 643C675 556 748 521 846 521C1008 521 1116 639 1116 817L1116 827L984 827C976 712 928 648 848 648C794 648 750 676 676 757C591 844 518 879 421 879Z" />
<glyph glyph-name="exclamdown" unicode="&#xa1;" horiz-adv-x="1266" d="M633 1106C566 1106 512 1049 512 979C512 909 566 852 633 852C700 852 754 909 754 979C754 1049 700 1106 633 1106ZM711 -350L698 644L569 644L556 -350Z" />
<glyph glyph-name="cent" unicode="&#xa2;" horiz-adv-x="1266" d="M917 465C898 373 784 303 652 303C461 303 347 430 347 643L347 823C347 1041 464 1176 652 1176C780 1176 888 1099 909 993L1041 993C1026 1143 897 1257 724 1282L724 1443L579 1443L579 1283C351 1254 214 1088 214 834L214 636C214 382 351 216 579 187L579 23L724 23L724 188C900 214 1046 333 1052 465Z" />
<glyph glyph-name="sterling" unicode="&#xa3;" horiz-adv-x="1266" d="M1141 115L406 115L406 130C523 211 591 340 591 483C591 543 583 597 564 667L976 667L976 782L526 782C472 945 462 989 462 1077C462 1258 573 1353 784 1353C884 1353 947 1341 1042 1304L1042 1429C929 1469 889 1476 786 1476C495 1476 322 1327 322 1077C322 991 338 916 385 782L162 782L162 667L426 667C445 603 454 543 454 474C454 311 333 160 167 115L167 0L1141 0Z" />
<glyph glyph-name="currency" unicode="&#xa4;" horiz-adv-x="1266" d="M1119 1060L1036 1140L861 958C801 1004 726 1028 647 1028C568 1028 493 1004 433 958L257 1140L172 1060L350 877C306 816 283 741 283 660C283 579 306 503 350 441L172 257L257 178L432 361C493 315 568 291 647 291C726 291 800 315 860 360L1036 178L1119 257L944 439C989 502 1012 577 1012 660C1012 740 989 815 945 879ZM647 385C492 385 381 500 381 660C381 820 492 935 647 935C802 935 913 820 913 660C913 500 802 385 647 385Z" />
<glyph glyph-name="yen" unicode="&#xa5;" horiz-adv-x="1266" d="M1189 1443L1032 1443L639 763L627 763L234 1443L77 1443L508 720L294 720L294 598L565 598L565 418L294 418L294 296L565 296L565 0L701 0L701 296L973 296L973 418L701 418L701 598L973 598L973 720L758 720Z" />
<glyph glyph-name="brokenbar" unicode="&#xa6;" horiz-adv-x="1266" d="M690 782L690 1542L576 1542L576 782ZM690 -483L690 277L576 277L576 -483Z" />
<glyph glyph-name="section" unicode="&#xa7;" horiz-adv-x="1266" d="M566 381C457 400 390 471 390 566C390 686 494 775 629 770L701 753C817 726 877 665 877 572C877 449 776 363 638 368ZM640 -245C864 -245 1026 -116 1026 62C1026 197 936 286 769 315L769 330C922 358 1024 468 1024 605C1024 750 921 847 723 888L588 916C450 944 383 1002 383 1093C383 1195 478 1263 618 1263C750 1263 842 1204 857 1110L1000 1110C975 1279 832 1382 623 1382C399 1382 245 1259 245 1079C245 953 320 860 463 807L463 791C319 753 243 667 243 542C243 396 347 298 552 250L682 220C825 187 891 132 891 45C891 -57 794 -126 651 -126C512 -126 412 -61 397 40L251 40C264 -128 423 -245 640 -245Z" />
<glyph glyph-name="dieresis" unicode="&#xa8;" horiz-adv-x="1266" d="M442 1330C498 1330 548 1380 548 1437C548 1494 498 1544 442 1544C386 1544 336 1494 336 1437C336 1380 386 1330 442 1330ZM824 1330C880 1330 930 1380 930 1437C930 1494 880 1544 824 1544C768 1544 718 1494 718 1437C718 1380 768 1330 824 1330Z" />
<glyph glyph-name="copyright" unicode="&#xa9;" horiz-adv-x="1266" d="M875 819C856 933 764 1012 645 1012C487 1012 385 902 385 722C385 542 487 432 645 432C764 432 858 510 875 619L766 619C753 568 708 535 646 535C552 535 497 608 497 722C497 836 552 909 646 909C708 909 748 874 766 819ZM633 172C936 172 1175 411 1175 721C1175 1031 936 1270 633 1270C330 1270 91 1031 91 721C91 411 330 172 633 172ZM633 270C388 270 197 469 197 721C197 973 388 1172 633 1172C878 1172 1069 973 1069 721C1069 469 878 270 633 270Z" />
<glyph glyph-name="ordfeminine" unicode="&#xaa;" horiz-adv-x="1266" d="M605 635C492 635 419 699 419 800C419 901 488 958 620 966L860 985L860 878C860 740 750 635 605 635ZM575 523C696 523 794 576 850 672L864 672L864 551L982 551L982 1164C982 1357 867 1462 655 1462C469 1462 334 1367 319 1226L452 1226C466 1300 544 1348 651 1348C783 1348 858 1278 858 1153L858 1088L606 1071C400 1058 284 960 284 799C284 635 402 523 575 523Z" />
<glyph glyph-name="guillemotleft" unicode="&#xab;" horiz-adv-x="1266" d="M300 640L653 1061L508 1061L155 640L155 638L508 217L653 217L300 638ZM753 640L1106 1061L961 1061L608 640L608 638L961 217L1106 217L753 638Z" />
<glyph glyph-name="logicalnot" unicode="&#xac;" horiz-adv-x="1266" d="M1162 697L104 697L104 581L1038 581L1038 215L1162 215Z" />
<glyph glyph-name="registered" unicode="&#xae;" horiz-adv-x="1266" d="M521 722L521 925L626 925L764 722L887 722L740 936C815 960 860 1021 860 1099C860 1203 791 1266 677 1266L421 1266L421 722ZM521 1173L656 1173C716 1173 751 1145 751 1095C751 1041 716 1010 656 1010L521 1010ZM633 442C938 442 1175 683 1175 991C1175 1299 938 1540 633 1540C328 1540 91 1299 91 991C91 683 328 442 633 442ZM633 540C389 540 197 738 197 991C197 1244 389 1442 633 1442C877 1442 1069 1244 1069 991C1069 738 877 540 633 540Z" />
<glyph glyph-name="macron" unicode="&#xaf;" horiz-adv-x="1266" d="M952 1377L952 1495L314 1495L314 1377Z" />
<glyph glyph-name="degree" unicode="&#xb0;" horiz-adv-x="1266" d="M634 856C809 856 939 984 939 1156C939 1328 809 1456 634 1456C459 1456 329 1328 329 1156C329 984 459 856 634 856ZM634 954C519 954 434 1040 434 1156C434 1272 519 1358 634 1358C749 1358 834 1272 834 1156C834 1040 749 954 634 954Z" />
<glyph glyph-name="plusminus" unicode="&#xb1;" horiz-adv-x="1266" d="M1133 130L1133 240L133 240L133 130ZM689 668L1133 668L1133 766L689 766L689 1081L577 1081L577 766L133 766L133 668L577 668L577 353L689 353Z" />
<glyph glyph-name="acute" unicode="&#xb4;" horiz-adv-x="1266" d="M579 1296L838 1628L666 1628L428 1296Z" />
<glyph glyph-name="mugreek" unicode="&#xb5;" horiz-adv-x="1266" d="M323 -365L323 140L335 140C373 39 468 -18 596 -18C746 -18 849 53 906 194L919 194L920 165C924 43 987 -10 1125 -10C1156 -10 1180 -7 1203 0L1203 112C1182 108 1166 106 1149 106C1072 106 1044 143 1044 243L1044 1077L913 1077L913 437C913 235 777 100 592 100C420 100 323 211 323 414L323 1077L192 1077L192 -365Z" />
<glyph glyph-name="paragraph" unicode="&#xb6;" horiz-adv-x="1266" d="M801 -99L801 1443L634 1443C388 1443 188 1272 188 1029C188 795 383 632 633 632L652 632L652 -99ZM962 -99L1111 -99L1111 1443L962 1443Z" />
<glyph glyph-name="periodcentered" unicode="&#xb7;" horiz-adv-x="1266" d="M634 606C707 606 769 670 769 742C769 817 707 877 634 877C562 877 498 817 498 742C498 670 562 606 634 606Z" />
<glyph glyph-name="cedilla" unicode="&#xb8;" horiz-adv-x="1266" d="M478 -235L535 -235C643 -235 686 -255 686 -305C686 -355 644 -383 569 -383C533 -383 472 -376 448 -369L448 -466C497 -480 528 -484 577 -484C714 -484 807 -411 807 -302C807 -198 735 -142 604 -144L659 0L542 0L478 -164Z" />
<glyph glyph-name="ordmasculine" unicode="&#xba;" horiz-adv-x="1266" d="M633 638C464 638 367 767 367 994C367 1221 464 1350 633 1350C802 1350 899 1221 899 994C899 767 802 638 633 638ZM633 523C882 523 1036 703 1036 994C1036 1285 882 1465 633 1465C384 1465 230 1285 230 994C230 703 384 523 633 523Z" />
<glyph glyph-name="guillemotright" unicode="&#xbb;" horiz-adv-x="1266" d="M508 638L155 217L300 217L653 638L653 640L300 1061L155 1061L508 640ZM961 638L608 217L753 217L1106 638L1106 640L753 1061L608 1061L961 640Z" />
<glyph glyph-name="onequarter" unicode="&#xbc;" horiz-adv-x="1266" d="M1050 0L1166 0L1166 137L1266 137L1266 231L1166 231L1166 678L990 678L702 238L702 137L1050 137ZM821 230L1051 581L1053 581L1053 228L821 228ZM178 766L302 766L302 1443L172 1443L0 1321L0 1199L175 1325L178 1325ZM1266 1443L0 154L0 0L1266 1289Z" />
<glyph glyph-name="onehalf" unicode="&#xbd;" horiz-adv-x="1266" d="M781 475L781 473L907 473L907 475C907 539 954 588 1018 588C1082 588 1127 548 1127 489C1127 444 1104 405 1037 336L789 90L789 0L1266 0L1266 107L968 107L968 110L1134 277C1226 371 1258 426 1258 495C1258 611 1163 691 1024 691C881 691 781 603 781 475ZM178 766L302 766L302 1443L172 1443L0 1321L0 1199L175 1325L178 1325ZM1266 1443L0 154L0 0L1266 1289Z" />
<glyph glyph-name="threequarters" unicode="&#xbe;" horiz-adv-x="1266" d="M136 1063L218 1063C293 1063 339 1024 339 959C339 899 290 857 220 857C148 857 100 896 96 956L-33 956C-28 831 70 751 217 751C373 751 478 832 478 953C478 1045 415 1108 315 1114L315 1118C399 1133 452 1195 452 1277C452 1385 361 1456 222 1456C81 1456 -15 1376 -20 1253L103 1253C107 1313 151 1352 215 1352C282 1352 323 1317 323 1260C323 1200 282 1161 217 1161L136 1161ZM1037 0L1153 0L1153 137L1253 137L1253 231L1153 231L1153 678L977 678L689 238L689 137L1037 137ZM808 230L1038 581L1040 581L1040 228L808 228ZM1266 1443L0 154L0 0L1266 1289Z" />
<glyph glyph-name="questiondown" unicode="&#xbf;" horiz-adv-x="1266" d="M1035 12L902 12C889 -147 788 -242 630 -242C478 -242 374 -145 374 -3C374 108 418 179 528 248C664 332 730 422 730 540L730 642L589 642L589 578C589 466 552 408 433 335C300 253 231 134 231 -12C231 -213 399 -362 627 -362C863 -362 1020 -218 1035 12ZM653 1104C586 1104 532 1047 532 977C532 907 586 850 653 850C720 850 774 907 774 977C774 1047 720 1104 653 1104Z" />
<glyph glyph-name="Agrave" unicode="&#xc0;" horiz-adv-x="1266" d="M737 1617L427 1914L253 1914L579 1617ZM408 560L632 1264L634 1264L858 560ZM1036 0L1176 0L700 1443L566 1443L90 0L230 0L371 442L895 442Z" />
<glyph glyph-name="Aacute" unicode="&#xc1;" horiz-adv-x="1266" d="M1010 1914L836 1914L526 1617L684 1617ZM408 560L632 1264L634 1264L858 560ZM1036 0L1176 0L700 1443L566 1443L90 0L230 0L371 442L895 442Z" />
<glyph glyph-name="Acircumflex" unicode="&#xc2;" horiz-adv-x="1266" d="M627 1819L639 1819L829 1617L984 1617L695 1914L571 1914L282 1617L437 1617ZM408 560L632 1264L634 1264L858 560ZM1036 0L1176 0L700 1443L566 1443L90 0L230 0L371 442L895 442Z" />
<glyph glyph-name="Atilde" unicode="&#xc3;" horiz-adv-x="1266" d="M877 1887C873 1789 836 1733 775 1733C682 1733 651 1899 488 1899C363 1899 284 1800 284 1643L390 1643C393 1744 428 1797 491 1797C598 1797 623 1632 778 1632C901 1632 982 1733 982 1887ZM408 560L632 1264L634 1264L858 560ZM1036 0L1176 0L700 1443L566 1443L90 0L230 0L371 442L895 442Z" />
<glyph glyph-name="Adieresis" unicode="&#xc4;" horiz-adv-x="1266" d="M824 1666C880 1666 930 1716 930 1773C930 1830 880 1880 824 1880C768 1880 718 1830 718 1773C718 1716 768 1666 824 1666ZM442 1666C498 1666 548 1716 548 1773C548 1830 498 1880 442 1880C386 1880 336 1830 336 1773C336 1716 386 1666 442 1666ZM408 560L632 1264L634 1264L858 560ZM1036 0L1176 0L700 1443L566 1443L90 0L230 0L371 442L895 442Z" />
<glyph glyph-name="Aring" unicode="&#xc5;" horiz-adv-x="1266" d="M633 1858C693 1858 738 1814 738 1753C738 1692 693 1648 633 1648C573 1648 528 1692 528 1753C528 1814 573 1858 633 1858ZM633 1564C739 1564 823 1648 823 1753C823 1858 739 1942 633 1942C527 1942 443 1858 443 1753C443 1648 527 1564 633 1564ZM408 560L632 1264L634 1264L858 560ZM1036 0L1176 0L700 1443L566 1443L90 0L230 0L371 442L895 442Z" />
<glyph glyph-name="AE" unicode="&#xc6;" horiz-adv-x="1266" d="M332 589L560 1323L654 1323L654 589ZM1228 1320L1228 1443L468 1443L5 0L149 0L296 472L654 472L654 0L1228 0L1228 124L780 124L780 666L1192 666L1192 791L780 791L780 1320Z" />
<glyph glyph-name="Ccedilla" unicode="&#xc7;" horiz-adv-x="1266" d="M279 841C279 1172 412 1346 666 1346C865 1346 1006 1207 1014 1002L1151 1002C1144 1294 959 1473 666 1473C334 1473 142 1242 142 841L142 602C142 224 312 -2 609 -28L556 -164L556 -235L613 -235C721 -235 764 -255 764 -305C764 -355 722 -383 647 -383C611 -383 550 -376 526 -369L526 -466C575 -480 606 -484 655 -484C792 -484 885 -411 885 -302C885 -198 813 -142 682 -144L727 -27C977 -3 1150 173 1150 411L1013 411C1007 216 875 97 666 97C412 97 279 271 279 602Z" />
<glyph glyph-name="Egrave" unicode="&#xc8;" horiz-adv-x="1266" d="M451 1914L277 1914L603 1617L761 1617ZM1072 124L379 124L379 678L1035 678L1035 800L379 800L379 1319L1072 1319L1072 1443L242 1443L242 0L1072 0Z" />
<glyph glyph-name="Eacute" unicode="&#xc9;" horiz-adv-x="1266" d="M1072 124L379 124L379 678L1035 678L1035 800L379 800L379 1319L1072 1319L1072 1443L242 1443L242 0L1072 0ZM550 1617L708 1617L1034 1914L860 1914Z" />
<glyph glyph-name="Ecircumflex" unicode="&#xca;" horiz-adv-x="1266" d="M1072 124L379 124L379 678L1035 678L1035 800L379 800L379 1319L1072 1319L1072 1443L242 1443L242 0L1072 0ZM719 1914L595 1914L306 1617L461 1617L651 1819L663 1819L853 1617L1008 1617Z" />
<glyph glyph-name="Edieresis" unicode="&#xcb;" horiz-adv-x="1266" d="M1072 124L379 124L379 678L1035 678L1035 800L379 800L379 1319L1072 1319L1072 1443L242 1443L242 0L1072 0ZM466 1666C522 1666 572 1716 572 1773C572 1830 522 1880 466 1880C410 1880 360 1830 360 1773C360 1716 410 1666 466 1666ZM848 1666C904 1666 954 1716 954 1773C954 1830 904 1880 848 1880C792 1880 742 1830 742 1773C742 1716 792 1666 848 1666Z" />
<glyph glyph-name="Igrave" unicode="&#xcc;" horiz-adv-x="1266" d="M427 1914L253 1914L579 1617L737 1617ZM991 0L991 118L701 118L701 1325L991 1325L991 1443L275 1443L275 1325L565 1325L565 118L275 118L275 0Z" />
<glyph glyph-name="Iacute" unicode="&#xcd;" horiz-adv-x="1266" d="M991 0L991 118L701 118L701 1325L991 1325L991 1443L275 1443L275 1325L565 1325L565 118L275 118L275 0ZM526 1617L684 1617L1010 1914L836 1914Z" />
<glyph glyph-name="Icircumflex" unicode="&#xce;" horiz-adv-x="1266" d="M991 0L991 118L701 118L701 1325L991 1325L991 1443L275 1443L275 1325L565 1325L565 118L275 118L275 0ZM695 1914L571 1914L282 1617L437 1617L627 1819L639 1819L829 1617L984 1617Z" />
<glyph glyph-name="Idieresis" unicode="&#xcf;" horiz-adv-x="1266" d="M991 0L991 118L701 118L701 1325L991 1325L991 1443L275 1443L275 1325L565 1325L565 118L275 118L275 0ZM442 1666C498 1666 548 1716 548 1773C548 1830 498 1880 442 1880C386 1880 336 1830 336 1773C336 1716 386 1666 442 1666ZM824 1666C880 1666 930 1716 930 1773C930 1830 880 1880 824 1880C768 1880 718 1830 718 1773C718 1716 768 1666 824 1666Z" />
<glyph glyph-name="Eth" unicode="&#xd0;" horiz-adv-x="1266" d="M311 124L311 678L582 678L582 802L311 802L311 1319L549 1319C876 1319 1032 1126 1032 721C1032 316 876 124 549 124ZM174 1443L174 802L35 802L35 678L174 678L174 0L557 0C967 0 1172 240 1172 721C1172 1203 967 1443 557 1443Z" />
<glyph glyph-name="Ntilde" unicode="&#xd1;" horiz-adv-x="1266" d="M290 0L290 1199L303 1199L968 0L1104 0L1104 1443L976 1443L976 245L963 245L301 1443L162 1443L162 0ZM774 1632C897 1632 978 1733 978 1887L873 1887C869 1789 832 1733 771 1733C678 1733 647 1899 484 1899C359 1899 280 1800 280 1643L386 1643C389 1744 424 1797 487 1797C594 1797 619 1632 774 1632Z" />
<glyph glyph-name="Ograve" unicode="&#xd2;" horiz-adv-x="1266" d="M427 1914L253 1914L579 1617L737 1617ZM251 841C251 1161 397 1346 633 1346C869 1346 1015 1161 1015 841L1015 602C1015 282 869 97 633 97C397 97 251 282 251 602ZM1152 841C1152 1239 954 1473 633 1473C312 1473 114 1239 114 841L114 602C114 204 312 -30 633 -30C954 -30 1152 204 1152 602Z" />
<glyph glyph-name="Oacute" unicode="&#xd3;" horiz-adv-x="1266" d="M1152 602L1152 841C1152 1239 954 1473 633 1473C312 1473 114 1239 114 841L114 602C114 204 312 -30 633 -30C954 -30 1152 204 1152 602ZM633 97C397 97 251 282 251 602L251 841C251 1161 397 1346 633 1346C869 1346 1015 1161 1015 841L1015 602C1015 282 869 97 633 97ZM526 1617L684 1617L1010 1914L836 1914Z" />
<glyph glyph-name="Ocircumflex" unicode="&#xd4;" horiz-adv-x="1266" d="M1152 602L1152 841C1152 1239 954 1473 633 1473C312 1473 114 1239 114 841L114 602C114 204 312 -30 633 -30C954 -30 1152 204 1152 602ZM633 97C397 97 251 282 251 602L251 841C251 1161 397 1346 633 1346C869 1346 1015 1161 1015 841L1015 602C1015 282 869 97 633 97ZM695 1914L571 1914L282 1617L437 1617L627 1819L639 1819L829 1617L984 1617Z" />
<glyph glyph-name="Otilde" unicode="&#xd5;" horiz-adv-x="1266" d="M1152 602L1152 841C1152 1239 954 1473 633 1473C312 1473 114 1239 114 841L114 602C114 204 312 -30 633 -30C954 -30 1152 204 1152 602ZM633 97C397 97 251 282 251 602L251 841C251 1161 397 1346 633 1346C869 1346 1015 1161 1015 841L1015 602C1015 282 869 97 633 97ZM778 1632C901 1632 982 1733 982 1887L877 1887C873 1789 836 1733 775 1733C682 1733 651 1899 488 1899C363 1899 284 1800 284 1643L390 1643C393 1744 428 1797 491 1797C598 1797 623 1632 778 1632Z" />
<glyph glyph-name="Odieresis" unicode="&#xd6;" horiz-adv-x="1266" d="M1152 602L1152 841C1152 1239 954 1473 633 1473C312 1473 114 1239 114 841L114 602C114 204 312 -30 633 -30C954 -30 1152 204 1152 602ZM633 97C397 97 251 282 251 602L251 841C251 1161 397 1346 633 1346C869 1346 1015 1161 1015 841L1015 602C1015 282 869 97 633 97ZM442 1666C498 1666 548 1716 548 1773C548 1830 498 1880 442 1880C386 1880 336 1830 336 1773C336 1716 386 1666 442 1666ZM824 1666C880 1666 930 1716 930 1773C930 1830 880 1880 824 1880C768 1880 718 1830 718 1773C718 1716 768 1666 824 1666Z" />
<glyph glyph-name="multiply" unicode="&#xd7;" horiz-adv-x="1266" d="M634 722L302 1054L218 970L550 638L219 306L301 224L632 556L963 225L1047 309L716 640L1048 972L966 1054Z" />
<glyph glyph-name="Oslash" unicode="&#xd8;" horiz-adv-x="1266" d="M1015 602C1015 282 869 97 633 97C522 97 431 138 365 215L961 1132C996 1054 1015 957 1015 841ZM251 841C251 1161 397 1346 633 1346C743 1346 834 1306 899 1230L304 313C270 391 251 488 251 602ZM1162 1443L1037 1443L975 1347C888 1429 772 1473 633 1473C312 1473 114 1239 114 841L114 602C114 430 151 288 219 183L101 0L226 0L289 98C376 15 493 -30 633 -30C954 -30 1152 204 1152 602L1152 841C1152 1015 1114 1157 1045 1263Z" />
<glyph glyph-name="Ugrave" unicode="&#xd9;" horiz-adv-x="1266" d="M424 1914L250 1914L576 1617L734 1617ZM271 1443L135 1443L135 496C135 168 322 -30 633 -30C944 -30 1131 168 1131 496L1131 1443L995 1443L995 505C995 248 861 96 633 96C405 96 271 248 271 505Z" />
<glyph glyph-name="Uacute" unicode="&#xda;" horiz-adv-x="1266" d="M633 96C405 96 271 248 271 505L271 1443L135 1443L135 496C135 168 322 -30 633 -30C944 -30 1131 168 1131 496L1131 1443L995 1443L995 505C995 248 861 96 633 96ZM523 1617L681 1617L1007 1914L833 1914Z" />
<glyph glyph-name="Ucircumflex" unicode="&#xdb;" horiz-adv-x="1266" d="M633 96C405 96 271 248 271 505L271 1443L135 1443L135 496C135 168 322 -30 633 -30C944 -30 1131 168 1131 496L1131 1443L995 1443L995 505C995 248 861 96 633 96ZM692 1914L568 1914L279 1617L434 1617L624 1819L636 1819L826 1617L981 1617Z" />
<glyph glyph-name="Udieresis" unicode="&#xdc;" horiz-adv-x="1266" d="M633 96C405 96 271 248 271 505L271 1443L135 1443L135 496C135 168 322 -30 633 -30C944 -30 1131 168 1131 496L1131 1443L995 1443L995 505C995 248 861 96 633 96ZM439 1666C495 1666 545 1716 545 1773C545 1830 495 1880 439 1880C383 1880 333 1830 333 1773C333 1716 383 1666 439 1666ZM821 1666C877 1666 927 1716 927 1773C927 1830 877 1880 821 1880C765 1880 715 1830 715 1773C715 1716 765 1666 821 1666Z" />
<glyph glyph-name="Yacute" unicode="&#xdd;" horiz-adv-x="1266" d="M701 0L701 624L1189 1443L1032 1443L639 763L627 763L234 1443L77 1443L565 624L565 0ZM526 1617L684 1617L1010 1914L836 1914Z" />
<glyph glyph-name="Thorn" unicode="&#xde;" horiz-adv-x="1266" d="M195 1443L195 0L331 0L331 369L717 369C956 369 1109 533 1109 768C1109 1001 957 1163 715 1163L330 1163L330 1443ZM331 1040L675 1040C874 1040 968 949 968 768C968 586 874 493 675 493L331 493Z" />
<glyph glyph-name="germandbls" unicode="&#xdf;" horiz-adv-x="1266" d="M390 0L390 1145C390 1301 480 1390 639 1390C789 1390 895 1284 895 1133C895 946 804 843 639 843L589 843L589 705L644 705C868 705 998 594 998 402C998 204 895 101 696 101C652 101 598 106 561 114L561 -2C605 -10 648 -14 696 -14C952 -14 1133 158 1133 402C1133 609 1008 746 795 771L795 789C937 837 1032 975 1032 1133C1032 1359 878 1503 637 1503C406 1503 262 1365 262 1143L262 0Z" />
<glyph glyph-name="agrave" unicode="&#xe0;" horiz-adv-x="1266" d="M538 -19C701 -19 820 48 871 169L885 169L885 -1L1011 -1L1011 739C1011 958 869 1086 625 1086C417 1086 255 971 235 810L365 810C395 914 489 972 625 972C790 972 879 888 879 733L879 631L567 617C329 606 194 493 194 304C194 109 331 -19 538 -19ZM570 97C421 97 329 176 329 304C329 430 415 502 576 509L879 522L879 372C879 217 744 97 570 97ZM747 1296L509 1628L337 1628L596 1296Z" />
<glyph glyph-name="aacute" unicode="&#xe1;" horiz-adv-x="1266" d="M701 1296L960 1628L788 1628L550 1296ZM879 522L879 372C879 217 744 97 570 97C421 97 329 176 329 304C329 430 415 502 576 509ZM885 169L885 -1L1011 -1L1011 739C1011 958 869 1086 625 1086C417 1086 255 971 235 810L365 810C395 914 489 972 625 972C790 972 879 888 879 733L879 631L567 617C329 606 194 493 194 304C194 109 331 -19 538 -19C701 -19 820 48 871 169Z" />
<glyph glyph-name="acircumflex" unicode="&#xe2;" horiz-adv-x="1266" d="M538 -19C701 -19 820 48 871 169L885 169L885 -1L1011 -1L1011 739C1011 958 869 1086 625 1086C417 1086 255 971 235 810L365 810C395 914 489 972 625 972C790 972 879 888 879 733L879 631L567 617C329 606 194 493 194 304C194 109 331 -19 538 -19ZM570 97C421 97 329 176 329 304C329 430 415 502 576 509L879 522L879 372C879 217 744 97 570 97ZM541 1621L265 1286L435 1286L618 1521L632 1521L815 1286L985 1286L709 1621Z" />
<glyph glyph-name="atilde" unicode="&#xe3;" horiz-adv-x="1266" d="M538 -19C701 -19 820 48 871 169L885 169L885 -1L1011 -1L1011 739C1011 958 869 1086 625 1086C417 1086 255 971 235 810L365 810C395 914 489 972 625 972C790 972 879 888 879 733L879 631L567 617C329 606 194 493 194 304C194 109 331 -19 538 -19ZM570 97C421 97 329 176 329 304C329 430 415 502 576 509L879 522L879 372C879 217 744 97 570 97ZM479 1431C567 1431 608 1267 767 1267C903 1267 983 1370 983 1547L860 1547C860 1429 835 1383 771 1383C683 1383 642 1545 483 1545C346 1545 267 1443 267 1266L390 1266C390 1385 415 1431 479 1431Z" />
<glyph glyph-name="adieresis" unicode="&#xe4;" horiz-adv-x="1266" d="M538 -19C701 -19 820 48 871 169L885 169L885 -1L1011 -1L1011 739C1011 958 869 1086 625 1086C417 1086 255 971 235 810L365 810C395 914 489 972 625 972C790 972 879 888 879 733L879 631L567 617C329 606 194 493 194 304C194 109 331 -19 538 -19ZM570 97C421 97 329 176 329 304C329 430 415 502 576 509L879 522L879 372C879 217 744 97 570 97ZM434 1306C490 1306 540 1356 540 1413C540 1470 490 1520 434 1520C378 1520 328 1470 328 1413C328 1356 378 1306 434 1306ZM816 1306C872 1306 922 1356 922 1413C922 1470 872 1520 816 1520C760 1520 710 1470 710 1413C710 1356 760 1306 816 1306Z" />
<glyph glyph-name="aring" unicode="&#xe5;" horiz-adv-x="1266" d="M538 -19C701 -19 820 48 871 169L885 169L885 -1L1011 -1L1011 739C1011 958 869 1086 625 1086C417 1086 255 971 235 810L365 810C395 914 489 972 625 972C790 972 879 888 879 733L879 631L567 617C329 606 194 493 194 304C194 109 331 -19 538 -19ZM570 97C421 97 329 176 329 304C329 430 415 502 576 509L879 522L879 372C879 217 744 97 570 97ZM625 1351C554 1351 501 1407 501 1482C501 1557 554 1613 625 1613C696 1613 749 1557 749 1482C749 1407 696 1351 625 1351ZM625 1256C747 1256 846 1357 846 1482C846 1607 747 1708 625 1708C503 1708 404 1607 404 1482C404 1357 503 1256 625 1256Z" />
<glyph glyph-name="ae" unicode="&#xe6;" horiz-adv-x="1266" d="M1205 257L1097 257C1058 146 1000 98 904 98C767 98 689 241 691 488L691 508L1217 508L1217 555C1217 896 1103 1084 897 1084C790 1084 703 1019 646 894L642 894C604 1009 503 1084 389 1084C229 1084 109 976 92 819L210 819C221 909 288 970 374 970C493 970 566 877 566 726L566 617L358 597C162 579 62 472 62 280C62 105 172 -20 327 -20C462 -20 576 71 626 218L630 218C676 71 779 -20 900 -20C1064 -20 1167 74 1205 257ZM1088 615L693 615C706 845 777 970 894 970C1022 970 1086 852 1088 615ZM354 97C244 97 190 162 190 292C190 411 255 481 377 491L566 508L566 367C566 211 477 97 354 97Z" />
<glyph glyph-name="ccedilla" unicode="&#xe7;" horiz-adv-x="1266" d="M330 593C330 840 444 977 649 977C796 977 915 888 937 760L1067 760C1039 962 875 1095 652 1095C369 1095 199 915 199 615L199 462C199 188 341 14 582 -14L523 -164L523 -235L580 -235C688 -235 731 -255 731 -305C731 -355 689 -383 614 -383C578 -383 517 -376 493 -369L493 -466C542 -480 573 -484 622 -484C759 -484 852 -411 852 -302C852 -198 780 -142 649 -144L698 -16C897 1 1041 129 1067 317L937 317C915 189 796 100 649 100C444 100 330 237 330 484Z" />
<glyph glyph-name="egrave" unicode="&#xe8;" horiz-adv-x="1266" d="M644 979C834 979 948 841 948 612L332 612C332 842 449 979 644 979ZM946 266C913 161 806 99 659 99C459 99 332 242 332 467L332 504L1081 504L1081 589C1081 911 922 1095 644 1095C377 1095 201 909 201 625L201 468C201 161 369 -18 659 -18C876 -18 1040 94 1076 266ZM746 1296L508 1628L336 1628L595 1296Z" />
<glyph glyph-name="eacute" unicode="&#xe9;" horiz-adv-x="1266" d="M717 1296L976 1628L804 1628L566 1296ZM946 266C913 161 806 99 659 99C459 99 332 242 332 467L332 504L1081 504L1081 589C1081 911 922 1095 644 1095C377 1095 201 909 201 625L201 468C201 161 369 -18 659 -18C876 -18 1040 94 1076 266ZM332 612C332 842 449 979 644 979C834 979 948 841 948 612Z" />
<glyph glyph-name="ecircumflex" unicode="&#xea;" horiz-adv-x="1266" d="M644 979C834 979 948 841 948 612L332 612C332 842 449 979 644 979ZM946 266C913 161 806 99 659 99C459 99 332 242 332 467L332 504L1081 504L1081 589C1081 911 922 1095 644 1095C377 1095 201 909 201 625L201 468C201 161 369 -18 659 -18C876 -18 1040 94 1076 266ZM557 1621L281 1286L451 1286L634 1521L648 1521L831 1286L1001 1286L725 1621Z" />
<glyph glyph-name="edieresis" unicode="&#xeb;" horiz-adv-x="1266" d="M644 979C834 979 948 841 948 612L332 612C332 842 449 979 644 979ZM946 266C913 161 806 99 659 99C459 99 332 242 332 467L332 504L1081 504L1081 589C1081 911 922 1095 644 1095C377 1095 201 909 201 625L201 468C201 161 369 -18 659 -18C876 -18 1040 94 1076 266ZM449 1330C505 1330 555 1380 555 1437C555 1494 505 1544 449 1544C393 1544 343 1494 343 1437C343 1380 393 1330 449 1330ZM831 1330C887 1330 937 1380 937 1437C937 1494 887 1544 831 1544C775 1544 725 1494 725 1437C725 1380 775 1330 831 1330Z" />
<glyph glyph-name="igrave" unicode="&#xec;" horiz-adv-x="1266" d="M1102 0L1102 106L733 106L733 1077L221 1077L221 971L602 971L602 106L223 106L223 0ZM762 1286L524 1618L352 1618L611 1286Z" />
<glyph glyph-name="iacute" unicode="&#xed;" horiz-adv-x="1266" d="M733 1286L992 1618L820 1618L582 1286ZM1102 0L1102 106L733 106L733 1077L221 1077L221 971L602 971L602 106L223 106L223 0Z" />
<glyph glyph-name="icircumflex" unicode="&#xee;" horiz-adv-x="1266" d="M1102 0L1102 106L733 106L733 1077L221 1077L221 971L602 971L602 106L223 106L223 0ZM573 1611L297 1276L467 1276L650 1511L664 1511L847 1276L1017 1276L741 1611Z" />
<glyph glyph-name="idieresis" unicode="&#xef;" horiz-adv-x="1266" d="M1102 0L1102 106L733 106L733 1077L221 1077L221 971L602 971L602 106L223 106L223 0ZM465 1320C521 1320 571 1370 571 1427C571 1484 521 1534 465 1534C409 1534 359 1484 359 1427C359 1370 409 1320 465 1320ZM847 1320C903 1320 953 1370 953 1427C953 1484 903 1534 847 1534C791 1534 741 1484 741 1427C741 1370 791 1320 847 1320Z" />
<glyph glyph-name="eth" unicode="&#xf0;" horiz-adv-x="1266" d="M892 470C892 228 780 93 580 93C380 93 268 228 268 470L268 529C268 767 379 898 580 898C781 898 892 767 892 529ZM1061 1443L753 1333C701 1399 641 1460 575 1515L395 1515C482 1447 561 1370 628 1288L417 1213L417 1111L688 1208C764 1099 819 984 847 872L838 872C777 961 684 1007 561 1007C303 1007 135 821 135 534L135 463C135 156 296 -17 580 -17C864 -17 1025 156 1025 463L1025 571C1025 815 950 1051 813 1252L1061 1341Z" />
<glyph glyph-name="ntilde" unicode="&#xf1;" horiz-adv-x="1266" d="M207 0L338 0L338 640C338 840 469 977 662 977C843 977 928 878 928 667L928 0L1059 0L1059 700C1059 956 932 1095 697 1095C530 1095 404 1019 345 883L332 883L332 1077L207 1077ZM487 1435C575 1435 616 1271 775 1271C911 1271 991 1374 991 1551L868 1551C868 1433 843 1387 779 1387C691 1387 650 1549 491 1549C354 1549 275 1447 275 1270L398 1270C398 1389 423 1435 487 1435Z" />
<glyph glyph-name="ograve" unicode="&#xf2;" horiz-adv-x="1266" d="M633 -18C911 -18 1089 168 1089 458L1089 618C1089 908 911 1094 633 1094C355 1094 177 908 177 618L177 458C177 168 355 -18 633 -18ZM633 977C833 977 958 834 958 601L958 475C958 242 833 99 633 99C433 99 308 242 308 475L308 601C308 834 433 977 633 977ZM717 1296L479 1628L307 1628L566 1296Z" />
<glyph glyph-name="oacute" unicode="&#xf3;" horiz-adv-x="1266" d="M709 1296L968 1628L796 1628L558 1296ZM958 475C958 242 833 99 633 99C433 99 308 242 308 475L308 601C308 834 433 977 633 977C833 977 958 834 958 601ZM1089 618C1089 908 911 1094 633 1094C355 1094 177 908 177 618L177 458C177 168 355 -18 633 -18C911 -18 1089 168 1089 458Z" />
<glyph glyph-name="ocircumflex" unicode="&#xf4;" horiz-adv-x="1266" d="M633 -18C911 -18 1089 168 1089 458L1089 618C1089 908 911 1094 633 1094C355 1094 177 908 177 618L177 458C177 168 355 -18 633 -18ZM633 977C833 977 958 834 958 601L958 475C958 242 833 99 633 99C433 99 308 242 308 475L308 601C308 834 433 977 633 977ZM549 1621L273 1286L443 1286L626 1521L640 1521L823 1286L993 1286L717 1621Z" />
<glyph glyph-name="otilde" unicode="&#xf5;" horiz-adv-x="1266" d="M633 -18C911 -18 1089 168 1089 458L1089 618C1089 908 911 1094 633 1094C355 1094 177 908 177 618L177 458C177 168 355 -18 633 -18ZM633 977C833 977 958 834 958 601L958 475C958 242 833 99 633 99C433 99 308 242 308 475L308 601C308 834 433 977 633 977ZM487 1435C575 1435 616 1271 775 1271C911 1271 991 1374 991 1551L868 1551C868 1433 843 1387 779 1387C691 1387 650 1549 491 1549C354 1549 275 1447 275 1270L398 1270C398 1389 423 1435 487 1435Z" />
<glyph glyph-name="odieresis" unicode="&#xf6;" horiz-adv-x="1266" d="M633 -18C911 -18 1089 168 1089 458L1089 618C1089 908 911 1094 633 1094C355 1094 177 908 177 618L177 458C177 168 355 -18 633 -18ZM633 977C833 977 958 834 958 601L958 475C958 242 833 99 633 99C433 99 308 242 308 475L308 601C308 834 433 977 633 977ZM441 1330C497 1330 547 1380 547 1437C547 1494 497 1544 441 1544C385 1544 335 1494 335 1437C335 1380 385 1330 441 1330ZM823 1330C879 1330 929 1380 929 1437C929 1494 879 1544 823 1544C767 1544 717 1494 717 1437C717 1380 767 1330 823 1330Z" />
<glyph glyph-name="divide" unicode="&#xf7;" horiz-adv-x="1266" d="M1119 581L1119 697L147 697L147 581ZM634 872C695 872 742 918 742 981C742 1043 695 1091 634 1091C574 1091 525 1043 525 981C525 918 574 872 634 872ZM634 189C695 189 742 234 742 297C742 359 695 407 634 407C574 407 525 359 525 297C525 234 574 189 634 189Z" />
<glyph glyph-name="oslash" unicode="&#xf8;" horiz-adv-x="1266" d="M958 475C958 242 833 99 633 99C546 99 473 126 418 176L908 823C940 763 958 689 958 601ZM308 601C308 834 433 977 633 977C719 977 792 950 846 902L358 254C326 313 308 388 308 475ZM1100 1077L978 1077L922 1003C847 1062 749 1094 633 1094C355 1094 177 908 177 618L177 458C177 330 212 223 274 142L167 0L285 0L341 74C417 15 516 -18 633 -18C911 -18 1089 168 1089 458L1089 618C1089 746 1054 854 992 934Z" />
<glyph glyph-name="ugrave" unicode="&#xf9;" horiz-adv-x="1266" d="M1059 1077L928 1077L928 437C928 237 797 100 604 100C423 100 338 199 338 410L338 1077L207 1077L207 377C207 121 334 -18 569 -18C736 -18 862 58 921 194L934 194L934 0L1059 0ZM738 1296L500 1628L328 1628L587 1296Z" />
<glyph glyph-name="uacute" unicode="&#xfa;" horiz-adv-x="1266" d="M709 1296L968 1628L796 1628L558 1296ZM1059 1077L928 1077L928 437C928 237 797 100 604 100C423 100 338 199 338 410L338 1077L207 1077L207 377C207 121 334 -18 569 -18C736 -18 862 58 921 194L934 194L934 0L1059 0Z" />
<glyph glyph-name="ucircumflex" unicode="&#xfb;" horiz-adv-x="1266" d="M1059 1077L928 1077L928 437C928 237 797 100 604 100C423 100 338 199 338 410L338 1077L207 1077L207 377C207 121 334 -18 569 -18C736 -18 862 58 921 194L934 194L934 0L1059 0ZM549 1621L273 1286L443 1286L626 1521L640 1521L823 1286L993 1286L717 1621Z" />
<glyph glyph-name="udieresis" unicode="&#xfc;" horiz-adv-x="1266" d="M1059 1077L928 1077L928 437C928 237 797 100 604 100C423 100 338 199 338 410L338 1077L207 1077L207 377C207 121 334 -18 569 -18C736 -18 862 58 921 194L934 194L934 0L1059 0ZM441 1330C497 1330 547 1380 547 1437C547 1494 497 1544 441 1544C385 1544 335 1494 335 1437C335 1380 385 1330 441 1330ZM823 1330C879 1330 929 1380 929 1437C929 1494 879 1544 823 1544C767 1544 717 1494 717 1437C717 1380 767 1330 823 1330Z" />
<glyph glyph-name="yacute" unicode="&#xfd;" horiz-adv-x="1266" d="M708 1296L967 1628L795 1628L557 1296ZM1104 1077L964 1077L639 143L627 143L301 1077L159 1077L563 -7L541 -74C488 -217 434 -267 335 -267C319 -267 291 -266 276 -263L276 -377C293 -379 321 -381 337 -381C513 -381 589 -311 685 -52Z" />
<glyph glyph-name="thorn" unicode="&#xfe;" horiz-adv-x="1266" d="M686 -19C933 -19 1097 160 1097 432L1097 628C1097 898 930 1081 683 1081C533 1081 420 1018 367 904L349 904L349 1456L217 1456L217 -345L349 -345L349 140L367 140C433 31 534 -19 686 -19ZM658 96C466 96 348 236 348 464L348 601C348 826 468 967 659 967C847 967 967 825 967 600L967 464C967 239 847 96 658 96Z" />
<glyph glyph-name="ydieresis" unicode="&#xff;" horiz-adv-x="1266" d="M337 -381C513 -381 589 -311 685 -52L1104 1077L964 1077L639 143L627 143L301 1077L159 1077L563 -7L541 -74C488 -217 434 -267 335 -267C319 -267 291 -266 276 -263L276 -377C293 -379 321 -381 337 -381ZM440 1330C496 1330 546 1380 546 1437C546 1494 496 1544 440 1544C384 1544 334 1494 334 1437C334 1380 384 1330 440 1330ZM822 1330C878 1330 928 1380 928 1437C928 1494 878 1544 822 1544C766 1544 716 1494 716 1437C716 1380 766 1330 822 1330Z" />
<glyph glyph-name="Amacron" unicode="&#x0100;" horiz-adv-x="1266" d="M952 1832L314 1832L314 1714L952 1714ZM408 560L632 1264L634 1264L858 560ZM1036 0L1176 0L700 1443L566 1443L90 0L230 0L371 442L895 442Z" />
<glyph glyph-name="amacron" unicode="&#x0101;" horiz-adv-x="1266" d="M538 -19C701 -19 820 48 871 169L885 169L885 -1L1011 -1L1011 739C1011 958 869 1086 625 1086C417 1086 255 971 235 810L365 810C395 914 489 972 625 972C790 972 879 888 879 733L879 631L567 617C329 606 194 493 194 304C194 109 331 -19 538 -19ZM570 97C421 97 329 176 329 304C329 430 415 502 576 509L879 522L879 372C879 217 744 97 570 97ZM944 1377L944 1495L306 1495L306 1377Z" />
<glyph glyph-name="Abreve" unicode="&#x0102;" horiz-adv-x="1266" d="M845 1914C845 1799 756 1715 633 1715C510 1715 421 1799 421 1914L303 1914C303 1739 439 1617 633 1617C827 1617 963 1739 963 1914ZM408 560L632 1264L634 1264L858 560ZM1036 0L1176 0L700 1443L566 1443L90 0L230 0L371 442L895 442Z" />
<glyph glyph-name="abreve" unicode="&#x0103;" horiz-adv-x="1266" d="M538 -19C701 -19 820 48 871 169L885 169L885 -1L1011 -1L1011 739C1011 958 869 1086 625 1086C417 1086 255 971 235 810L365 810C395 914 489 972 625 972C790 972 879 888 879 733L879 631L567 617C329 606 194 493 194 304C194 109 331 -19 538 -19ZM570 97C421 97 329 176 329 304C329 430 415 502 576 509L879 522L879 372C879 217 744 97 570 97ZM625 1367C488 1367 414 1458 415 1577L282 1577C282 1394 410 1258 625 1258C840 1258 968 1394 968 1577L836 1577C837 1458 763 1367 625 1367Z" />
<glyph glyph-name="Aogonek" unicode="&#x0104;" horiz-adv-x="1266" d="M408 560L632 1264L634 1264L858 560ZM1176 0L700 1443L566 1443L90 0L230 0L371 442L895 442L1031 17C908 -50 857 -122 857 -224C857 -339 944 -416 1073 -416C1110 -416 1152 -410 1176 -402L1176 -298C1157 -302 1131 -305 1109 -305C1037 -305 986 -260 986 -197C986 -116 1044 -54 1167 -4Z" />
<glyph glyph-name="aogonek" unicode="&#x0105;" horiz-adv-x="1266" d="M570 98C421 98 329 177 329 305C329 431 415 503 576 510L879 523L879 373C879 218 744 98 570 98ZM885 0C773 -64 716 -143 716 -235C716 -345 797 -418 918 -418C955 -418 996 -411 1011 -402L1011 -294C999 -300 976 -303 949 -303C882 -303 842 -267 842 -207C842 -132 907 -52 1010 0L1011 0L1011 740C1011 959 869 1087 625 1087C417 1087 255 972 235 811L365 811C395 915 489 973 625 973C790 973 879 889 879 734L879 632L567 618C329 607 194 494 194 305C194 110 331 -18 538 -18C701 -18 820 49 871 170L885 170Z" />
<glyph glyph-name="Cacute" unicode="&#x0106;" horiz-adv-x="1266" d="M666 97C412 97 279 271 279 602L279 841C279 1172 412 1346 666 1346C865 1346 1006 1207 1014 1002L1151 1002C1144 1294 959 1473 666 1473C334 1473 142 1242 142 841L142 602C142 201 334 -30 666 -30C948 -30 1150 154 1150 411L1013 411C1007 216 875 97 666 97ZM559 1617L717 1617L1043 1914L869 1914Z" />
<glyph glyph-name="cacute" unicode="&#x0107;" horiz-adv-x="1266" d="M712 1296L971 1628L799 1628L561 1296ZM1067 760C1039 962 875 1095 652 1095C369 1095 199 915 199 615L199 462C199 162 369 -18 652 -18C875 -18 1039 115 1067 317L937 317C915 189 796 100 649 100C444 100 330 237 330 484L330 593C330 840 444 977 649 977C796 977 915 888 937 760Z" />
<glyph glyph-name="Ccircumflex" unicode="&#x0108;" horiz-adv-x="1266" d="M666 97C412 97 279 271 279 602L279 841C279 1172 412 1346 666 1346C865 1346 1006 1207 1014 1002L1151 1002C1144 1294 959 1473 666 1473C334 1473 142 1242 142 841L142 602C142 201 334 -30 666 -30C948 -30 1150 154 1150 411L1013 411C1007 216 875 97 666 97ZM728 1914L604 1914L315 1617L470 1617L660 1819L672 1819L862 1617L1017 1617Z" />
<glyph glyph-name="ccircumflex" unicode="&#x0109;" horiz-adv-x="1266" d="M1067 760C1039 962 875 1095 652 1095C369 1095 199 915 199 615L199 462C199 162 369 -18 652 -18C875 -18 1039 115 1067 317L937 317C915 189 796 100 649 100C444 100 330 237 330 484L330 593C330 840 444 977 649 977C796 977 915 888 937 760ZM552 1621L276 1286L446 1286L629 1521L643 1521L826 1286L996 1286L720 1621Z" />
<glyph glyph-name="Cdotaccent" unicode="&#x010a;" horiz-adv-x="1266" d="M666 97C412 97 279 271 279 602L279 841C279 1172 412 1346 666 1346C865 1346 1006 1207 1014 1002L1151 1002C1144 1294 959 1473 666 1473C334 1473 142 1242 142 841L142 602C142 201 334 -30 666 -30C948 -30 1150 154 1150 411L1013 411C1007 216 875 97 666 97ZM666 1660C727 1660 780 1712 780 1773C780 1834 727 1886 666 1886C605 1886 552 1834 552 1773C552 1712 605 1660 666 1660Z" />
<glyph glyph-name="cdotaccent" unicode="&#x010b;" horiz-adv-x="1266" d="M1067 760C1039 962 875 1095 652 1095C369 1095 199 915 199 615L199 462C199 162 369 -18 652 -18C875 -18 1039 115 1067 317L937 317C915 189 796 100 649 100C444 100 330 237 330 484L330 593C330 840 444 977 649 977C796 977 915 888 937 760ZM636 1317C697 1317 750 1369 750 1430C750 1491 697 1543 636 1543C575 1543 522 1491 522 1430C522 1369 575 1317 636 1317Z" />
<glyph glyph-name="Ccaron" unicode="&#x010c;" horiz-adv-x="1266" d="M1017 1914L862 1914L672 1712L660 1712L470 1914L315 1914L604 1617L728 1617ZM279 841C279 1172 412 1346 666 1346C865 1346 1006 1207 1014 1002L1151 1002C1144 1294 959 1473 666 1473C334 1473 142 1242 142 841L142 602C142 201 334 -30 666 -30C948 -30 1150 154 1150 411L1013 411C1007 216 875 97 666 97C412 97 279 271 279 602Z" />
<glyph glyph-name="ccaron" unicode="&#x010d;" horiz-adv-x="1266" d="M720 1296L996 1631L826 1631L643 1396L629 1396L446 1631L276 1631L552 1296ZM1067 760C1039 962 875 1095 652 1095C369 1095 199 915 199 615L199 462C199 162 369 -18 652 -18C875 -18 1039 115 1067 317L937 317C915 189 796 100 649 100C444 100 330 237 330 484L330 593C330 840 444 977 649 977C796 977 915 888 937 760Z" />
<glyph glyph-name="Dcaron" unicode="&#x010e;" horiz-adv-x="1266" d="M936 1914L781 1914L591 1712L579 1712L389 1914L234 1914L523 1617L647 1617ZM311 1319L549 1319C876 1319 1032 1126 1032 721C1032 316 876 124 549 124L311 124ZM174 1443L174 0L557 0C967 0 1172 240 1172 721C1172 1203 967 1443 557 1443Z" />
<glyph glyph-name="dcaron" unicode="&#x010f;" horiz-adv-x="1266" d="M234 610C234 844 338 977 522 977C705 977 809 844 809 610L809 466C809 232 705 99 522 99C338 99 234 232 234 466ZM812 155L812 0L937 0L937 1506L806 1506L806 918L788 918C734 1039 640 1095 493 1095C252 1095 103 922 103 642L103 435C103 155 252 -18 493 -18C636 -18 726 34 794 155ZM1092 1506L1092 1062L1184 1062L1222 1506Z" />
<glyph glyph-name="Dcroat" unicode="&#x0110;" horiz-adv-x="1266" d="M311 124L311 681L594 681L594 805L311 805L311 1319L549 1319C876 1319 1032 1126 1032 721C1032 316 876 124 549 124ZM174 1443L174 805L22 805L22 681L174 681L174 0L557 0C967 0 1172 240 1172 721C1172 1203 967 1443 557 1443Z" />
<glyph glyph-name="dcroat" unicode="&#x0111;" horiz-adv-x="1266" d="M931 466C931 243 806 99 614 99C421 99 296 244 296 466L296 610C296 832 421 977 614 977C806 977 931 833 931 610ZM1226 1376L1059 1376L1059 1506L928 1506L928 1376L673 1376L673 1279L928 1279L928 918L910 918C859 1031 741 1095 585 1095C335 1095 165 911 165 642L165 435C165 166 335 -18 585 -18C738 -18 853 42 916 155L934 155L934 0L1059 0L1059 1279L1226 1279Z" />
<glyph glyph-name="Emacron" unicode="&#x0112;" horiz-adv-x="1266" d="M1072 124L379 124L379 678L1035 678L1035 800L379 800L379 1319L1072 1319L1072 1443L242 1443L242 0L1072 0ZM976 1714L976 1832L338 1832L338 1714Z" />
<glyph glyph-name="emacron" unicode="&#x0113;" horiz-adv-x="1266" d="M644 979C834 979 948 841 948 612L332 612C332 842 449 979 644 979ZM946 266C913 161 806 99 659 99C459 99 332 242 332 467L332 504L1081 504L1081 589C1081 911 922 1095 644 1095C377 1095 201 909 201 625L201 468C201 161 369 -18 659 -18C876 -18 1040 94 1076 266ZM960 1377L960 1495L322 1495L322 1377Z" />
<glyph glyph-name="Ebreve" unicode="&#x0114;" horiz-adv-x="1266" d="M1072 124L379 124L379 678L1035 678L1035 800L379 800L379 1319L1072 1319L1072 1443L242 1443L242 0L1072 0ZM327 1914C327 1739 463 1617 657 1617C851 1617 987 1739 987 1914L869 1914C869 1799 780 1715 657 1715C534 1715 445 1799 445 1914Z" />
<glyph glyph-name="ebreve" unicode="&#x0115;" horiz-adv-x="1266" d="M644 979C834 979 948 841 948 612L332 612C332 842 449 979 644 979ZM946 266C913 161 806 99 659 99C459 99 332 242 332 467L332 504L1081 504L1081 589C1081 911 922 1095 644 1095C377 1095 201 909 201 625L201 468C201 161 369 -18 659 -18C876 -18 1040 94 1076 266ZM641 1377C504 1377 430 1468 431 1587L298 1587C298 1404 426 1268 641 1268C856 1268 984 1404 984 1587L852 1587C853 1468 779 1377 641 1377Z" />
<glyph glyph-name="Edotaccent" unicode="&#x0116;" horiz-adv-x="1266" d="M1072 124L379 124L379 678L1035 678L1035 800L379 800L379 1319L1072 1319L1072 1443L242 1443L242 0L1072 0ZM657 1660C718 1660 771 1712 771 1773C771 1834 718 1886 657 1886C596 1886 543 1834 543 1773C543 1712 596 1660 657 1660Z" />
<glyph glyph-name="edotaccent" unicode="&#x0117;" horiz-adv-x="1266" d="M644 979C834 979 948 841 948 612L332 612C332 842 449 979 644 979ZM946 266C913 161 806 99 659 99C459 99 332 242 332 467L332 504L1081 504L1081 589C1081 911 922 1095 644 1095C377 1095 201 909 201 625L201 468C201 161 369 -18 659 -18C876 -18 1040 94 1076 266ZM641 1317C702 1317 755 1369 755 1430C755 1491 702 1543 641 1543C580 1543 527 1491 527 1430C527 1369 580 1317 641 1317Z" />
<glyph glyph-name="Eogonek" unicode="&#x0118;" horiz-adv-x="1266" d="M908 0L908 -12C810 -70 762 -139 762 -224C762 -336 856 -416 988 -416C1023 -416 1056 -411 1082 -402L1082 -298C1065 -302 1039 -305 1015 -305C944 -305 891 -257 891 -193C891 -114 941 -47 1058 3L1072 9L1072 124L379 124L379 678L1035 678L1035 800L379 800L379 1319L1072 1319L1072 1443L242 1443L242 0Z" />
<glyph glyph-name="eogonek" unicode="&#x0119;" horiz-adv-x="1266" d="M836 -416C869 -416 902 -411 929 -402L929 -298C914 -302 888 -305 862 -305C790 -305 739 -260 739 -197C739 -126 783 -68 921 44C1006 113 1059 189 1076 266L946 266C913 161 806 99 659 99C459 99 332 242 332 467L332 504L1081 504L1081 589C1081 911 922 1095 644 1095C377 1095 201 909 201 625L201 468C201 163 368 -18 649 -18C683 -18 724 -10 746 1L746 -12C657 -69 610 -143 610 -224C610 -336 704 -416 836 -416ZM644 979C834 979 948 841 948 612L332 612C332 842 449 979 644 979Z" />
<glyph glyph-name="Ecaron" unicode="&#x011a;" horiz-adv-x="1266" d="M1008 1914L853 1914L663 1712L651 1712L461 1914L306 1914L595 1617L719 1617ZM1072 124L379 124L379 678L1035 678L1035 800L379 800L379 1319L1072 1319L1072 1443L242 1443L242 0L1072 0Z" />
<glyph glyph-name="ecaron" unicode="&#x011b;" horiz-adv-x="1266" d="M725 1296L1001 1631L831 1631L648 1396L634 1396L451 1631L281 1631L557 1296ZM946 266C913 161 806 99 659 99C459 99 332 242 332 467L332 504L1081 504L1081 589C1081 911 922 1095 644 1095C377 1095 201 909 201 625L201 468C201 161 369 -18 659 -18C876 -18 1040 94 1076 266ZM332 612C332 842 449 979 644 979C834 979 948 841 948 612Z" />
<glyph glyph-name="Gcircumflex" unicode="&#x011c;" horiz-adv-x="1266" d="M1004 428C1004 224 871 97 658 97C404 97 271 271 271 602L271 841C271 1172 404 1346 658 1346C857 1346 997 1207 1005 1002L1142 1002C1135 1294 951 1473 658 1473C326 1473 134 1242 134 841L134 602C134 201 326 -30 658 -30C940 -30 1141 152 1141 409L1141 719L648 719L648 597L1004 597ZM710 1914L586 1914L297 1617L452 1617L642 1819L654 1819L844 1617L999 1617Z" />
<glyph glyph-name="gcircumflex" unicode="&#x011d;" horiz-adv-x="1266" d="M286 466L286 610C286 832 411 977 604 977C796 977 921 833 921 610L921 466C921 243 796 99 604 99C411 99 286 244 286 466ZM601 -404C884 -404 1049 -255 1049 0L1049 1077L918 1077L918 918L900 918C849 1031 731 1095 575 1095C325 1095 155 911 155 642L155 435C155 166 325 -18 575 -18C730 -18 848 45 900 155L918 155L918 7C918 -183 805 -289 603 -289C450 -289 333 -224 309 -126L178 -126C202 -298 363 -404 601 -404ZM518 1621L242 1286L412 1286L595 1521L609 1521L792 1286L962 1286L686 1621Z" />
<glyph glyph-name="Gbreve" unicode="&#x011e;" horiz-adv-x="1266" d="M1004 428C1004 224 871 97 658 97C404 97 271 271 271 602L271 841C271 1172 404 1346 658 1346C857 1346 997 1207 1005 1002L1142 1002C1135 1294 951 1473 658 1473C326 1473 134 1242 134 841L134 602C134 201 326 -30 658 -30C940 -30 1141 152 1141 409L1141 719L648 719L648 597L1004 597ZM318 1914C318 1739 454 1617 648 1617C842 1617 978 1739 978 1914L860 1914C860 1799 771 1715 648 1715C525 1715 436 1799 436 1914Z" />
<glyph glyph-name="gbreve" unicode="&#x011f;" horiz-adv-x="1266" d="M286 466L286 610C286 832 411 977 604 977C796 977 921 833 921 610L921 466C921 243 796 99 604 99C411 99 286 244 286 466ZM601 -404C884 -404 1049 -255 1049 0L1049 1077L918 1077L918 918L900 918C849 1031 731 1095 575 1095C325 1095 155 911 155 642L155 435C155 166 325 -18 575 -18C730 -18 848 45 900 155L918 155L918 7C918 -183 805 -289 603 -289C450 -289 333 -224 309 -126L178 -126C202 -298 363 -404 601 -404ZM602 1377C465 1377 391 1468 392 1587L259 1587C259 1404 387 1268 602 1268C817 1268 945 1404 945 1587L813 1587C814 1468 740 1377 602 1377Z" />
<glyph glyph-name="Gdotaccent" unicode="&#x0120;" horiz-adv-x="1266" d="M1004 428C1004 224 871 97 658 97C404 97 271 271 271 602L271 841C271 1172 404 1346 658 1346C857 1346 997 1207 1005 1002L1142 1002C1135 1294 951 1473 658 1473C326 1473 134 1242 134 841L134 602C134 201 326 -30 658 -30C940 -30 1141 152 1141 409L1141 719L648 719L648 597L1004 597ZM648 1660C709 1660 762 1712 762 1773C762 1834 709 1886 648 1886C587 1886 534 1834 534 1773C534 1712 587 1660 648 1660Z" />
<glyph glyph-name="gdotaccent" unicode="&#x0121;" horiz-adv-x="1266" d="M286 466L286 610C286 832 411 977 604 977C796 977 921 833 921 610L921 466C921 243 796 99 604 99C411 99 286 244 286 466ZM601 -404C884 -404 1049 -255 1049 0L1049 1077L918 1077L918 918L900 918C849 1031 731 1095 575 1095C325 1095 155 911 155 642L155 435C155 166 325 -18 575 -18C730 -18 848 45 900 155L918 155L918 7C918 -183 805 -289 603 -289C450 -289 333 -224 309 -126L178 -126C202 -298 363 -404 601 -404ZM602 1317C663 1317 716 1369 716 1430C716 1491 663 1543 602 1543C541 1543 488 1491 488 1430C488 1369 541 1317 602 1317Z" />
<glyph glyph-name="Gcommaaccent" unicode="&#x0122;" horiz-adv-x="1266" d="M1004 428C1004 224 871 97 658 97C404 97 271 271 271 602L271 841C271 1172 404 1346 658 1346C857 1346 997 1207 1005 1002L1142 1002C1135 1294 951 1473 658 1473C326 1473 134 1242 134 841L134 602C134 201 326 -30 658 -30C940 -30 1141 152 1141 409L1141 719L648 719L648 597L1004 597ZM612 -503L728 -139L588 -139L486 -503Z" />
<glyph glyph-name="gcommaaccent" unicode="&#x0123;" horiz-adv-x="1266" d="M286 466L286 610C286 832 411 977 604 977C796 977 921 833 921 610L921 466C921 243 796 99 604 99C411 99 286 244 286 466ZM601 -404C884 -404 1049 -255 1049 0L1049 1077L918 1077L918 918L900 918C849 1031 731 1095 575 1095C325 1095 155 911 155 642L155 435C155 166 325 -18 575 -18C730 -18 848 45 900 155L918 155L918 7C918 -183 805 -289 603 -289C450 -289 333 -224 309 -126L178 -126C202 -298 363 -404 601 -404ZM652 1664L536 1300L676 1300L778 1664Z" />
<glyph glyph-name="Hcircumflex" unicode="&#x0124;" horiz-adv-x="1266" d="M1100 0L1100 1443L963 1443L963 801L303 801L303 1443L166 1443L166 0L303 0L303 677L963 677L963 0ZM695 1914L571 1914L282 1617L437 1617L627 1819L639 1819L829 1617L984 1617Z" />
<glyph glyph-name="hcircumflex" unicode="&#x0125;" horiz-adv-x="1266" d="M207 0L338 0L338 640C338 840 469 977 662 977C843 977 928 878 928 667L928 0L1059 0L1059 700C1059 956 932 1095 697 1095C530 1095 404 1019 345 883L332 883L332 1506L207 1506ZM203 1969L-73 1634L97 1634L280 1869L294 1869L477 1634L647 1634L371 1969Z" />
<glyph glyph-name="Hbar" unicode="&#x0126;" horiz-adv-x="1266" d="M303 801L303 1095L963 1095L963 801ZM303 677L963 677L963 0L1100 0L1100 1095L1225 1095L1225 1206L1100 1206L1100 1443L963 1443L963 1206L303 1206L303 1443L166 1443L166 1206L41 1206L41 1095L166 1095L166 0L303 0Z" />
<glyph glyph-name="hbar" unicode="&#x0127;" horiz-adv-x="1266" d="M332 883L332 1280L582 1280L582 1377L332 1377L332 1506L207 1506L207 1377L30 1377L30 1280L207 1280L207 0L338 0L338 640C338 840 469 977 662 977C843 977 928 878 928 667L928 0L1059 0L1059 700C1059 956 932 1095 697 1095C530 1095 404 1019 345 883Z" />
<glyph glyph-name="Itilde" unicode="&#x0128;" horiz-adv-x="1266" d="M991 0L991 118L701 118L701 1325L991 1325L991 1443L275 1443L275 1325L565 1325L565 118L275 118L275 0ZM778 1632C901 1632 982 1733 982 1887L877 1887C873 1789 836 1733 775 1733C682 1733 651 1899 488 1899C363 1899 284 1800 284 1643L390 1643C393 1744 428 1797 491 1797C598 1797 623 1632 778 1632Z" />
<glyph glyph-name="itilde" unicode="&#x0129;" horiz-adv-x="1266" d="M1102 0L1102 106L733 106L733 1077L221 1077L221 971L602 971L602 106L223 106L223 0ZM511 1425C599 1425 640 1261 799 1261C935 1261 1015 1364 1015 1541L892 1541C892 1423 867 1377 803 1377C715 1377 674 1539 515 1539C378 1539 299 1437 299 1260L422 1260C422 1379 447 1425 511 1425Z" />
<glyph glyph-name="Imacron" unicode="&#x012a;" horiz-adv-x="1266" d="M991 0L991 118L701 118L701 1325L991 1325L991 1443L275 1443L275 1325L565 1325L565 118L275 118L275 0ZM952 1714L952 1832L314 1832L314 1714Z" />
<glyph glyph-name="imacron" unicode="&#x012b;" horiz-adv-x="1266" d="M1102 0L1102 106L733 106L733 1077L221 1077L221 971L602 971L602 106L223 106L223 0ZM976 1367L976 1485L338 1485L338 1367Z" />
<glyph glyph-name="Ibreve" unicode="&#x012c;" horiz-adv-x="1266" d="M991 0L991 118L701 118L701 1325L991 1325L991 1443L275 1443L275 1325L565 1325L565 118L275 118L275 0ZM303 1914C303 1739 439 1617 633 1617C827 1617 963 1739 963 1914L845 1914C845 1799 756 1715 633 1715C510 1715 421 1799 421 1914Z" />
<glyph glyph-name="ibreve" unicode="&#x012d;" horiz-adv-x="1266" d="M1102 0L1102 106L733 106L733 1077L221 1077L221 971L602 971L602 106L223 106L223 0ZM657 1357C520 1357 446 1448 447 1567L314 1567C314 1384 442 1248 657 1248C872 1248 1000 1384 1000 1567L868 1567C869 1448 795 1357 657 1357Z" />
<glyph glyph-name="Iogonek" unicode="&#x012e;" horiz-adv-x="1266" d="M991 1325L991 1443L275 1443L275 1325L565 1325L565 118L275 118L275 0L844 0C747 -58 694 -141 694 -234C694 -344 774 -416 897 -416C932 -416 965 -411 991 -402L991 -298C977 -302 950 -305 933 -305C867 -305 823 -266 823 -207C823 -132 874 -68 986 -3L991 0L991 118L701 118L701 1325Z" />
<glyph glyph-name="iogonek" unicode="&#x012f;" horiz-adv-x="1266" d="M653 1362C721 1362 777 1418 777 1486C777 1554 721 1610 653 1610C585 1610 529 1554 529 1486C529 1418 585 1362 653 1362ZM1102 106L733 106L733 1077L221 1077L221 971L602 971L602 106L223 106L223 0L980 0C856 -65 794 -148 794 -249C794 -351 870 -418 987 -418C1040 -418 1086 -411 1102 -400L1102 -294C1089 -299 1056 -303 1030 -303C957 -303 920 -272 920 -210C920 -131 990 -50 1102 0Z" />
<glyph glyph-name="Idotaccent" unicode="&#x0130;" horiz-adv-x="1266" d="M991 0L991 118L701 118L701 1325L991 1325L991 1443L275 1443L275 1325L565 1325L565 118L275 118L275 0ZM633 1660C694 1660 747 1712 747 1773C747 1834 694 1886 633 1886C572 1886 519 1834 519 1773C519 1712 572 1660 633 1660Z" />
<glyph glyph-name="dotlessi" unicode="&#x0131;" horiz-adv-x="1266" d="M1102 0L1102 106L733 106L733 1077L221 1077L221 971L602 971L602 106L223 106L223 0Z" />
<glyph glyph-name="IJ" unicode="&#x0132;" horiz-adv-x="1266" d="M382 0L382 1443L246 1443L246 0ZM867 -30C1072 -30 1186 117 1186 381L1186 1443L673 1443L673 1322L1055 1322L1055 386C1055 194 992 97 867 97C752 97 680 185 674 330L542 330C544 110 671 -30 867 -30Z" />
<glyph glyph-name="ij" unicode="&#x0133;" horiz-adv-x="1266" d="M423 0L423 1077L292 1077L292 0ZM974 1077L843 1077L843 23C843 -150 779 -199 554 -199C462 -199 357 -195 302 -189L302 -304C378 -312 454 -315 557 -315C851 -315 974 -226 974 -12ZM894 1362C962 1362 1018 1418 1018 1486C1018 1554 962 1610 894 1610C826 1610 770 1554 770 1486C770 1418 826 1362 894 1362ZM356 1362C424 1362 480 1418 480 1486C480 1554 424 1610 356 1610C288 1610 232 1554 232 1486C232 1418 288 1362 356 1362Z" />
<glyph glyph-name="Jcircumflex" unicode="&#x0134;" horiz-adv-x="1266" d="M590 -30C844 -30 1000 130 1000 393L1000 1443L375 1443L375 1325L863 1325L863 398C863 206 764 97 589 97C439 97 331 192 325 330L189 330C191 118 356 -30 590 -30ZM750 1914L626 1914L337 1617L492 1617L682 1819L694 1819L884 1617L1039 1617Z" />
<glyph glyph-name="jcircumflex" unicode="&#x0135;" horiz-adv-x="1266" d="M863 1077L221 1077L221 971L732 971L732 18C732 -155 668 -204 443 -204C363 -204 253 -200 191 -194L191 -304C277 -312 355 -315 446 -315C740 -315 863 -226 863 -12ZM714 1621L438 1286L608 1286L791 1521L805 1521L988 1286L1158 1286L882 1621Z" />
<glyph glyph-name="Kcommaaccent" unicode="&#x0136;" horiz-adv-x="1266" d="M375 0L375 515L533 700L1053 0L1230 0L624 805L1171 1443L1000 1443L387 697L375 697L375 1443L238 1443L238 0ZM638 -503L754 -139L614 -139L512 -503Z" />
<glyph glyph-name="kcommaaccent" unicode="&#x0137;" horiz-adv-x="1266" d="M512 -494L638 -494L754 -130L614 -130ZM684 660L1110 1077L944 1077L438 570L426 570L426 1506L295 1506L295 0L426 0L426 408L592 570L982 0L1140 0Z" />
<glyph glyph-name="Lacute" unicode="&#x0139;" horiz-adv-x="1266" d="M1114 124L411 124L411 1443L275 1443L275 0L1114 0ZM237 1617L395 1617L721 1914L547 1914Z" />
<glyph glyph-name="lacute" unicode="&#x013a;" horiz-adv-x="1266" d="M706 1713L965 2045L793 2045L555 1713ZM1102 0L1102 106L733 106L733 1506L221 1506L221 1400L602 1400L602 106L223 106L223 0Z" />
<glyph glyph-name="Lcommaaccent" unicode="&#x013b;" horiz-adv-x="1266" d="M1114 124L411 124L411 1443L275 1443L275 0L1114 0ZM649 -503L765 -139L625 -139L523 -503Z" />
<glyph glyph-name="lcommaaccent" unicode="&#x013c;" horiz-adv-x="1266" d="M1102 0L1102 106L733 106L733 1506L221 1506L221 1400L602 1400L602 106L223 106L223 0ZM618 -494L734 -130L594 -130L492 -494Z" />
<glyph glyph-name="Lcaron" unicode="&#x013d;" horiz-adv-x="1266" d="M780 1443L780 970L874 970L910 1443ZM1114 124L411 124L411 1443L275 1443L275 0L1114 0Z" />
<glyph glyph-name="lcaron" unicode="&#x013e;" horiz-adv-x="1266" d="M999 1506L999 1062L1092 1062L1129 1506ZM1102 0L1102 106L733 106L733 1506L221 1506L221 1400L602 1400L602 106L223 106L223 0Z" />
<glyph glyph-name="Ldot" unicode="&#x013f;" horiz-adv-x="1266" d="M1114 124L411 124L411 1443L275 1443L275 0L1114 0ZM971 883C1032 883 1085 935 1085 996C1085 1057 1032 1109 971 1109C910 1109 857 1057 857 996C857 935 910 883 971 883Z" />
<glyph glyph-name="ldot" unicode="&#x0140;" horiz-adv-x="1266" d="M1102 0L1102 106L733 106L733 1506L221 1506L221 1400L602 1400L602 106L223 106L223 0ZM1123 710C1184 710 1237 762 1237 823C1237 884 1184 936 1123 936C1062 936 1009 884 1009 823C1009 762 1062 710 1123 710Z" />
<glyph glyph-name="Lslash" unicode="&#x0141;" horiz-adv-x="1266" d="M411 124L411 680L906 964L906 1092L411 802L411 1443L275 1443L275 723L86 612L86 494L275 602L275 0L1114 0L1114 124Z" />
<glyph glyph-name="lslash" unicode="&#x0142;" horiz-adv-x="1266" d="M733 106L733 774L1064 964L1064 1092L733 898L733 1506L221 1506L221 1400L602 1400L602 822L244 612L244 494L602 699L602 106L223 106L223 0L1102 0L1102 106Z" />
<glyph glyph-name="Nacute" unicode="&#x0143;" horiz-adv-x="1266" d="M290 0L290 1199L303 1199L968 0L1104 0L1104 1443L976 1443L976 245L963 245L301 1443L162 1443L162 0ZM522 1617L680 1617L1006 1914L832 1914Z" />
<glyph glyph-name="nacute" unicode="&#x0144;" horiz-adv-x="1266" d="M709 1296L968 1628L796 1628L558 1296ZM207 0L338 0L338 640C338 840 469 977 662 977C843 977 928 878 928 667L928 0L1059 0L1059 700C1059 956 932 1095 697 1095C530 1095 404 1019 345 883L332 883L332 1077L207 1077Z" />
<glyph glyph-name="Ncommaaccent" unicode="&#x0145;" horiz-adv-x="1266" d="M290 0L290 1199L303 1199L968 0L1104 0L1104 1443L976 1443L976 245L963 245L301 1443L162 1443L162 0ZM585 -503L701 -139L561 -139L459 -503Z" />
<glyph glyph-name="ncommaaccent" unicode="&#x0146;" horiz-adv-x="1266" d="M207 0L338 0L338 640C338 840 469 977 662 977C843 977 928 878 928 667L928 0L1059 0L1059 700C1059 956 932 1095 697 1095C530 1095 404 1019 345 883L332 883L332 1077L207 1077ZM598 -494L714 -130L574 -130L472 -494Z" />
<glyph glyph-name="Ncaron" unicode="&#x0147;" horiz-adv-x="1266" d="M980 1914L825 1914L635 1712L623 1712L433 1914L278 1914L567 1617L691 1617ZM290 0L290 1199L303 1199L968 0L1104 0L1104 1443L976 1443L976 245L963 245L301 1443L162 1443L162 0Z" />
<glyph glyph-name="ncaron" unicode="&#x0148;" horiz-adv-x="1266" d="M717 1296L993 1631L823 1631L640 1396L626 1396L443 1631L273 1631L549 1296ZM207 0L338 0L338 640C338 840 469 977 662 977C843 977 928 878 928 667L928 0L1059 0L1059 700C1059 956 932 1095 697 1095C530 1095 404 1019 345 883L332 883L332 1077L207 1077Z" />
<glyph glyph-name="Omacron" unicode="&#x014c;" horiz-adv-x="1266" d="M1152 602L1152 841C1152 1239 954 1473 633 1473C312 1473 114 1239 114 841L114 602C114 204 312 -30 633 -30C954 -30 1152 204 1152 602ZM633 97C397 97 251 282 251 602L251 841C251 1161 397 1346 633 1346C869 1346 1015 1161 1015 841L1015 602C1015 282 869 97 633 97ZM952 1714L952 1832L314 1832L314 1714Z" />
<glyph glyph-name="omacron" unicode="&#x014d;" horiz-adv-x="1266" d="M633 -18C911 -18 1089 168 1089 458L1089 618C1089 908 911 1094 633 1094C355 1094 177 908 177 618L177 458C177 168 355 -18 633 -18ZM633 977C833 977 958 834 958 601L958 475C958 242 833 99 633 99C433 99 308 242 308 475L308 601C308 834 433 977 633 977ZM952 1377L952 1495L314 1495L314 1377Z" />
<glyph glyph-name="Obreve" unicode="&#x014e;" horiz-adv-x="1266" d="M1152 602L1152 841C1152 1239 954 1473 633 1473C312 1473 114 1239 114 841L114 602C114 204 312 -30 633 -30C954 -30 1152 204 1152 602ZM633 97C397 97 251 282 251 602L251 841C251 1161 397 1346 633 1346C869 1346 1015 1161 1015 841L1015 602C1015 282 869 97 633 97ZM303 1914C303 1739 439 1617 633 1617C827 1617 963 1739 963 1914L845 1914C845 1799 756 1715 633 1715C510 1715 421 1799 421 1914Z" />
<glyph glyph-name="obreve" unicode="&#x014f;" horiz-adv-x="1266" d="M633 -18C911 -18 1089 168 1089 458L1089 618C1089 908 911 1094 633 1094C355 1094 177 908 177 618L177 458C177 168 355 -18 633 -18ZM633 977C833 977 958 834 958 601L958 475C958 242 833 99 633 99C433 99 308 242 308 475L308 601C308 834 433 977 633 977ZM633 1377C496 1377 422 1468 423 1587L290 1587C290 1404 418 1268 633 1268C848 1268 976 1404 976 1587L844 1587C845 1468 771 1377 633 1377Z" />
<glyph glyph-name="Ohungarumlaut" unicode="&#x0150;" horiz-adv-x="1266" d="M1152 602L1152 841C1152 1239 954 1473 633 1473C312 1473 114 1239 114 841L114 602C114 204 312 -30 633 -30C954 -30 1152 204 1152 602ZM633 97C397 97 251 282 251 602L251 841C251 1161 397 1346 633 1346C869 1346 1015 1161 1015 841L1015 602C1015 282 869 97 633 97ZM663 1617L821 1617L1147 1914L973 1914ZM299 1617L457 1617L783 1914L609 1914Z" />
<glyph glyph-name="ohungarumlaut" unicode="&#x0151;" horiz-adv-x="1266" d="M633 -18C911 -18 1089 168 1089 458L1089 618C1089 908 911 1094 633 1094C355 1094 177 908 177 618L177 458C177 168 355 -18 633 -18ZM633 977C833 977 958 834 958 601L958 475C958 242 833 99 633 99C433 99 308 242 308 475L308 601C308 834 433 977 633 977ZM750 1296L901 1296L1160 1628L988 1628ZM374 1296L525 1296L784 1628L612 1628Z" />
<glyph glyph-name="OE" unicode="&#x0152;" horiz-adv-x="1266" d="M155 832C155 1212 229 1371 407 1371C581 1371 663 1188 663 801L663 643C663 256 581 73 407 73C229 73 155 232 155 612ZM673 205L688 205L688 0L1255 0L1255 115L804 115L804 681L1221 681L1221 800L804 800L804 1327L1255 1327L1255 1443L688 1443L688 1238L673 1238C632 1397 535 1477 384 1477C136 1477 15 1266 15 833L15 611C15 178 136 -33 384 -33C536 -33 634 48 673 205Z" />
<glyph glyph-name="oe" unicode="&#x0153;" horiz-adv-x="1266" d="M1233 244L1125 244C1099 155 1031 104 937 104C800 104 728 221 728 439L728 505L1246 505L1246 552C1246 903 1139 1085 930 1085C806 1085 689 979 661 836C630 991 525 1085 386 1085C180 1085 60 909 60 609L60 455C60 153 180 -21 387 -21C510 -21 620 78 660 222C696 73 800 -21 929 -21C1090 -21 1207 81 1233 244ZM728 610C734 833 809 961 933 961C1053 961 1106 863 1121 610ZM385 961C512 961 593 823 593 610L593 454C593 240 512 104 385 104C247 104 187 210 187 454L187 610C187 852 248 961 385 961Z" />
<glyph glyph-name="Racute" unicode="&#x0154;" horiz-adv-x="1266" d="M330 1321L657 1321C863 1321 979 1211 979 1015C979 820 861 713 647 713L330 713ZM709 595L983 0L1137 0L841 626C1008 676 1115 831 1115 1021C1115 1280 941 1443 666 1443L196 1443L196 0L330 0L330 595ZM507 1617L665 1617L991 1914L817 1914Z" />
<glyph glyph-name="racute" unicode="&#x0155;" horiz-adv-x="1266" d="M1045 1628L873 1628L635 1296L786 1296ZM579 803L579 1077L207 1077L207 971L451 971L451 106L229 106L229 0L924 0L924 106L582 106L582 484C582 779 730 967 962 967C1020 967 1089 955 1139 937L1139 1080C1105 1095 1044 1104 982 1104C772 1104 630 995 593 803Z" />
<glyph glyph-name="Rcommaaccent" unicode="&#x0156;" horiz-adv-x="1266" d="M330 1321L657 1321C863 1321 979 1211 979 1015C979 820 861 713 647 713L330 713ZM709 595L983 0L1137 0L841 626C1008 676 1115 831 1115 1021C1115 1280 941 1443 666 1443L196 1443L196 0L330 0L330 595ZM591 -503L707 -139L567 -139L465 -503Z" />
<glyph glyph-name="rcommaaccent" unicode="&#x0157;" horiz-adv-x="1266" d="M344 -503L470 -503L586 -139L446 -139ZM579 803L579 1077L207 1077L207 971L451 971L451 106L229 106L229 0L924 0L924 106L582 106L582 484C582 779 730 967 962 967C1020 967 1089 955 1139 937L1139 1080C1105 1095 1044 1104 982 1104C772 1104 630 995 593 803Z" />
<glyph glyph-name="Rcaron" unicode="&#x0158;" horiz-adv-x="1266" d="M965 1914L810 1914L620 1712L608 1712L418 1914L263 1914L552 1617L676 1617ZM709 595L983 0L1137 0L841 626C1008 676 1115 831 1115 1021C1115 1280 941 1443 666 1443L196 1443L196 0L330 0L330 595ZM330 1321L657 1321C863 1321 979 1211 979 1015C979 820 861 713 647 713L330 713Z" />
<glyph glyph-name="rcaron" unicode="&#x0159;" horiz-adv-x="1266" d="M742 1296L1018 1631L848 1631L665 1396L651 1396L468 1631L298 1631L574 1296ZM579 803L579 1077L207 1077L207 971L451 971L451 106L229 106L229 0L924 0L924 106L582 106L582 484C582 779 730 967 962 967C1020 967 1089 955 1139 937L1139 1080C1105 1095 1044 1104 982 1104C772 1104 630 995 593 803Z" />
<glyph glyph-name="Sacute" unicode="&#x015a;" horiz-adv-x="1266" d="M155 375C172 126 363 -30 650 -30C940 -30 1131 132 1131 378C1131 594 1015 714 734 787L617 818C417 870 331 950 331 1085C331 1250 450 1348 650 1348C831 1348 949 1253 969 1090L1106 1090C1092 1322 912 1473 650 1473C372 1473 191 1320 191 1085C191 878 310 755 581 684L694 655C900 602 991 516 991 378C991 207 856 95 650 95C448 95 311 202 292 375ZM543 1617L701 1617L1027 1914L853 1914Z" />
<glyph glyph-name="sacute" unicode="&#x015b;" horiz-adv-x="1266" d="M709 1296L968 1628L796 1628L558 1296ZM702 473C849 438 906 386 906 288C906 170 803 94 642 94C492 94 388 159 360 270L224 270C244 93 403 -18 636 -18C881 -18 1042 106 1042 296C1042 448 948 539 741 588L595 622C448 656 389 708 389 802C389 914 485 986 635 986C772 986 870 921 893 816L1022 816C999 986 850 1095 639 1095C412 1095 257 974 257 797C257 650 351 556 543 511Z" />
<glyph glyph-name="Scircumflex" unicode="&#x015c;" horiz-adv-x="1266" d="M155 375C172 126 363 -30 650 -30C940 -30 1131 132 1131 378C1131 594 1015 714 734 787L617 818C417 870 331 950 331 1085C331 1250 450 1348 650 1348C831 1348 949 1253 969 1090L1106 1090C1092 1322 912 1473 650 1473C372 1473 191 1320 191 1085C191 878 310 755 581 684L694 655C900 602 991 516 991 378C991 207 856 95 650 95C448 95 311 202 292 375ZM712 1914L588 1914L299 1617L454 1617L644 1819L656 1819L846 1617L1001 1617Z" />
<glyph glyph-name="scircumflex" unicode="&#x015d;" horiz-adv-x="1266" d="M257 797C257 650 351 556 543 511L702 473C849 438 906 386 906 288C906 170 803 94 642 94C492 94 388 159 360 270L224 270C244 93 403 -18 636 -18C881 -18 1042 106 1042 296C1042 448 948 539 741 588L595 622C448 656 389 708 389 802C389 914 485 986 635 986C772 986 870 921 893 816L1022 816C999 986 850 1095 639 1095C412 1095 257 974 257 797ZM549 1621L273 1286L443 1286L626 1521L640 1521L823 1286L993 1286L717 1621Z" />
<glyph glyph-name="Scedilla" unicode="&#x015e;" horiz-adv-x="1266" d="M617 818C417 870 331 950 331 1085C331 1250 450 1348 650 1348C831 1348 949 1253 969 1090L1106 1090C1092 1322 912 1473 650 1473C372 1473 191 1320 191 1085C191 878 310 755 581 684L694 655C900 602 991 516 991 378C991 207 856 95 650 95C448 95 311 202 292 375L155 375C171 143 338 -8 593 -28L540 -164L540 -235L597 -235C705 -235 748 -255 748 -305C748 -355 706 -383 631 -383C595 -383 534 -376 510 -369L510 -466C559 -480 590 -484 639 -484C776 -484 869 -411 869 -302C869 -198 797 -142 666 -144L710 -28C966 -6 1131 150 1131 378C1131 594 1015 714 734 787Z" />
<glyph glyph-name="scedilla" unicode="&#x015f;" horiz-adv-x="1266" d="M595 622C448 656 389 708 389 802C389 914 485 986 635 986C772 986 870 921 893 816L1022 816C999 986 850 1095 639 1095C412 1095 257 974 257 797C257 650 351 556 543 511L702 473C849 438 906 386 906 288C906 170 803 94 642 94C492 94 388 159 360 270L224 270C242 108 377 1 578 -16L520 -164L520 -235L577 -235C685 -235 728 -255 728 -305C728 -355 686 -383 611 -383C575 -383 514 -376 490 -369L490 -466C539 -480 570 -484 619 -484C756 -484 849 -411 849 -302C849 -198 777 -142 646 -144L695 -15C907 3 1042 122 1042 296C1042 448 948 539 741 588Z" />
<glyph glyph-name="Scaron" unicode="&#x0160;" horiz-adv-x="1266" d="M1001 1914L846 1914L656 1712L644 1712L454 1914L299 1914L588 1617L712 1617ZM155 375C172 126 363 -30 650 -30C940 -30 1131 132 1131 378C1131 594 1015 714 734 787L617 818C417 870 331 950 331 1085C331 1250 450 1348 650 1348C831 1348 949 1253 969 1090L1106 1090C1092 1322 912 1473 650 1473C372 1473 191 1320 191 1085C191 878 310 755 581 684L694 655C900 602 991 516 991 378C991 207 856 95 650 95C448 95 311 202 292 375Z" />
<glyph glyph-name="scaron" unicode="&#x0161;" horiz-adv-x="1266" d="M717 1296L993 1631L823 1631L640 1396L626 1396L443 1631L273 1631L549 1296ZM702 473C849 438 906 386 906 288C906 170 803 94 642 94C492 94 388 159 360 270L224 270C244 93 403 -18 636 -18C881 -18 1042 106 1042 296C1042 448 948 539 741 588L595 622C448 656 389 708 389 802C389 914 485 986 635 986C772 986 870 921 893 816L1022 816C999 986 850 1095 639 1095C412 1095 257 974 257 797C257 650 351 556 543 511Z" />
<glyph glyph-name="Tcedilla" unicode="&#x0162;" horiz-adv-x="1266" d="M1145 1319L1145 1443L121 1443L121 1319L565 1319L565 0L587 0L523 -164L523 -235L580 -235C688 -235 731 -255 731 -305C731 -355 689 -383 614 -383C578 -383 517 -376 493 -369L493 -466C542 -480 573 -484 622 -484C759 -484 852 -411 852 -302C852 -198 780 -142 649 -144L704 0L701 0L701 1319Z" />
<glyph glyph-name="tcedilla" unicode="&#x0163;" horiz-adv-x="1266" d="M714 -484C851 -484 944 -411 944 -302C944 -201 864 -142 729 -144L783 -3C805 -5 827 -6 851 -6C913 -6 1014 0 1046 6L1046 118C1011 113 932 110 858 110C687 110 595 182 595 315L595 966L1046 966L1046 1077L595 1077L595 1357L464 1357L464 1077L174 1077L174 966L464 966L464 311C464 155 533 57 674 16L603 -164L603 -235L660 -235C768 -235 811 -255 811 -305C811 -355 769 -383 694 -383C658 -383 597 -376 573 -369L573 -466C616 -478 659 -484 714 -484Z" />
<glyph glyph-name="Tcaron" unicode="&#x0164;" horiz-adv-x="1266" d="M984 1914L829 1914L639 1712L627 1712L437 1914L282 1914L571 1617L695 1617ZM701 0L701 1319L1145 1319L1145 1443L121 1443L121 1319L565 1319L565 0Z" />
<glyph glyph-name="tcaron" unicode="&#x0165;" horiz-adv-x="1266" d="M864 1230L901 1674L771 1674L771 1230ZM464 1357L464 1077L174 1077L174 966L464 966L464 311C464 99 592 -6 851 -6C913 -6 1014 0 1046 6L1046 118C1011 113 932 110 858 110C687 110 595 182 595 315L595 966L1046 966L1046 1077L595 1077L595 1357Z" />
<glyph glyph-name="Tbar" unicode="&#x0166;" horiz-adv-x="1266" d="M1145 1319L1145 1443L121 1443L121 1319L565 1319L565 788L261 788L261 678L565 678L565 0L701 0L701 678L1005 678L1005 788L701 788L701 1319Z" />
<glyph glyph-name="tbar" unicode="&#x0167;" horiz-adv-x="1266" d="M1046 966L1046 1077L595 1077L595 1357L464 1357L464 1077L174 1077L174 966L464 966L464 680L174 680L174 569L464 569L464 311C464 99 592 -6 851 -6C913 -6 1014 0 1046 6L1046 118C1011 113 932 110 858 110C687 110 595 182 595 315L595 569L1045 569L1045 680L595 680L595 966Z" />
<glyph glyph-name="Utilde" unicode="&#x0168;" horiz-adv-x="1266" d="M633 96C405 96 271 248 271 505L271 1443L135 1443L135 496C135 168 322 -30 633 -30C944 -30 1131 168 1131 496L1131 1443L995 1443L995 505C995 248 861 96 633 96ZM775 1632C898 1632 979 1733 979 1887L874 1887C870 1789 833 1733 772 1733C679 1733 648 1899 485 1899C360 1899 281 1800 281 1643L387 1643C390 1744 425 1797 488 1797C595 1797 620 1632 775 1632Z" />
<glyph glyph-name="utilde" unicode="&#x0169;" horiz-adv-x="1266" d="M1059 1077L928 1077L928 437C928 237 797 100 604 100C423 100 338 199 338 410L338 1077L207 1077L207 377C207 121 334 -18 569 -18C736 -18 862 58 921 194L934 194L934 0L1059 0ZM487 1435C575 1435 616 1271 775 1271C911 1271 991 1374 991 1551L868 1551C868 1433 843 1387 779 1387C691 1387 650 1549 491 1549C354 1549 275 1447 275 1270L398 1270C398 1389 423 1435 487 1435Z" />
<glyph glyph-name="Umacron" unicode="&#x016a;" horiz-adv-x="1266" d="M633 96C405 96 271 248 271 505L271 1443L135 1443L135 496C135 168 322 -30 633 -30C944 -30 1131 168 1131 496L1131 1443L995 1443L995 505C995 248 861 96 633 96ZM949 1714L949 1832L311 1832L311 1714Z" />
<glyph glyph-name="umacron" unicode="&#x016b;" horiz-adv-x="1266" d="M1059 1077L928 1077L928 437C928 237 797 100 604 100C423 100 338 199 338 410L338 1077L207 1077L207 377C207 121 334 -18 569 -18C736 -18 862 58 921 194L934 194L934 0L1059 0ZM952 1377L952 1495L314 1495L314 1377Z" />
<glyph glyph-name="Ubreve" unicode="&#x016c;" horiz-adv-x="1266" d="M633 96C405 96 271 248 271 505L271 1443L135 1443L135 496C135 168 322 -30 633 -30C944 -30 1131 168 1131 496L1131 1443L995 1443L995 505C995 248 861 96 633 96ZM300 1914C300 1739 436 1617 630 1617C824 1617 960 1739 960 1914L842 1914C842 1799 753 1715 630 1715C507 1715 418 1799 418 1914Z" />
<glyph glyph-name="ubreve" unicode="&#x016d;" horiz-adv-x="1266" d="M1059 1077L928 1077L928 437C928 237 797 100 604 100C423 100 338 199 338 410L338 1077L207 1077L207 377C207 121 334 -18 569 -18C736 -18 862 58 921 194L934 194L934 0L1059 0ZM633 1377C496 1377 422 1468 423 1587L290 1587C290 1404 418 1268 633 1268C848 1268 976 1404 976 1587L844 1587C845 1468 771 1377 633 1377Z" />
<glyph glyph-name="Uring" unicode="&#x016e;" horiz-adv-x="1266" d="M633 96C405 96 271 248 271 505L271 1443L135 1443L135 496C135 168 322 -30 633 -30C944 -30 1131 168 1131 496L1131 1443L995 1443L995 505C995 248 861 96 633 96ZM630 1564C736 1564 820 1648 820 1753C820 1858 736 1942 630 1942C524 1942 440 1858 440 1753C440 1648 524 1564 630 1564ZM630 1648C570 1648 525 1692 525 1753C525 1814 570 1858 630 1858C690 1858 735 1814 735 1753C735 1692 690 1648 630 1648Z" />
<glyph glyph-name="uring" unicode="&#x016f;" horiz-adv-x="1266" d="M1059 1077L928 1077L928 437C928 237 797 100 604 100C423 100 338 199 338 410L338 1077L207 1077L207 377C207 121 334 -18 569 -18C736 -18 862 58 921 194L934 194L934 0L1059 0ZM633 1361C562 1361 509 1417 509 1492C509 1567 562 1623 633 1623C704 1623 757 1567 757 1492C757 1417 704 1361 633 1361ZM633 1266C755 1266 854 1367 854 1492C854 1617 755 1718 633 1718C511 1718 412 1617 412 1492C412 1367 511 1266 633 1266Z" />
<glyph glyph-name="Uhungarumlaut" unicode="&#x0170;" horiz-adv-x="1266" d="M633 96C405 96 271 248 271 505L271 1443L135 1443L135 496C135 168 322 -30 633 -30C944 -30 1131 168 1131 496L1131 1443L995 1443L995 505C995 248 861 96 633 96ZM660 1617L818 1617L1144 1914L970 1914ZM296 1617L454 1617L780 1914L606 1914Z" />
<glyph glyph-name="uhungarumlaut" unicode="&#x0171;" horiz-adv-x="1266" d="M1059 1077L928 1077L928 437C928 237 797 100 604 100C423 100 338 199 338 410L338 1077L207 1077L207 377C207 121 334 -18 569 -18C736 -18 862 58 921 194L934 194L934 0L1059 0ZM750 1296L901 1296L1160 1628L988 1628ZM374 1296L525 1296L784 1628L612 1628Z" />
<glyph glyph-name="Uogonek" unicode="&#x0172;" horiz-adv-x="1266" d="M846 -416C880 -416 914 -411 939 -402L939 -298C922 -302 896 -305 872 -305C798 -305 749 -258 749 -189C749 -117 798 -52 912 28C1062 134 1131 281 1131 496L1131 1443L995 1443L995 505C995 248 861 96 633 96C405 96 271 248 271 505L271 1443L135 1443L135 496C135 172 323 -30 623 -30C673 -30 726 -17 759 3L759 -10C668 -68 620 -142 620 -224C620 -336 714 -416 846 -416Z" />
<glyph glyph-name="uogonek" unicode="&#x0173;" horiz-adv-x="1266" d="M934 0C821 -64 764 -144 764 -235C764 -345 845 -418 966 -418C1003 -418 1044 -411 1059 -402L1059 -294C1047 -300 1025 -303 997 -303C930 -303 890 -267 890 -207C890 -132 955 -52 1059 0L1059 1077L928 1077L928 437C928 237 797 100 604 100C423 100 338 199 338 410L338 1077L207 1077L207 377C207 121 334 -18 569 -18C736 -18 862 58 921 194L934 194Z" />
<glyph glyph-name="Wcircumflex" unicode="&#x0174;" horiz-adv-x="1266" d="M695 1914L571 1914L282 1617L437 1617L627 1819L639 1819L829 1617L984 1617ZM638 915L874 0L1009 0L1266 1443L1133 1443L937 213L928 213L701 1113L565 1113L338 213L329 213L133 1443L0 1443L257 0L392 0L628 915Z" />
<glyph glyph-name="wcircumflex" unicode="&#x0175;" horiz-adv-x="1266" d="M1209 1077L1079 1077L908 163L896 163L700 1077L566 1077L370 163L358 163L187 1077L57 1077L295 0L430 0L627 894L640 894L836 0L971 0ZM549 1621L273 1286L443 1286L626 1521L640 1521L823 1286L993 1286L717 1621Z" />
<glyph glyph-name="Ycircumflex" unicode="&#x0176;" horiz-adv-x="1266" d="M701 0L701 624L1189 1443L1032 1443L639 763L627 763L234 1443L77 1443L565 624L565 0ZM695 1914L571 1914L282 1617L437 1617L627 1819L639 1819L829 1617L984 1617Z" />
<glyph glyph-name="ycircumflex" unicode="&#x0177;" horiz-adv-x="1266" d="M337 -381C513 -381 589 -311 685 -52L1104 1077L964 1077L639 143L627 143L301 1077L159 1077L563 -7L541 -74C488 -217 434 -267 335 -267C319 -267 291 -266 276 -263L276 -377C293 -379 321 -381 337 -381ZM548 1621L272 1286L442 1286L625 1521L639 1521L822 1286L992 1286L716 1621Z" />
<glyph glyph-name="Ydieresis" unicode="&#x0178;" horiz-adv-x="1266" d="M701 0L701 624L1189 1443L1032 1443L639 763L627 763L234 1443L77 1443L565 624L565 0ZM442 1666C498 1666 548 1716 548 1773C548 1830 498 1880 442 1880C386 1880 336 1830 336 1773C336 1716 386 1666 442 1666ZM824 1666C880 1666 930 1716 930 1773C930 1830 880 1880 824 1880C768 1880 718 1830 718 1773C718 1716 768 1666 824 1666Z" />
<glyph glyph-name="Zacute" unicode="&#x0179;" horiz-adv-x="1266" d="M138 0L1122 0L1122 124L318 124L318 136L1110 1343L1110 1443L167 1443L167 1319L933 1319L933 1307L138 99ZM523 1617L681 1617L1007 1914L833 1914Z" />
<glyph glyph-name="zacute" unicode="&#x017a;" horiz-adv-x="1266" d="M709 1296L968 1628L796 1628L558 1296ZM224 0L1042 0L1042 111L383 111L383 123L1041 976L1041 1077L225 1077L225 966L884 966L884 954L224 100Z" />
<glyph glyph-name="Zdotaccent" unicode="&#x017b;" horiz-adv-x="1266" d="M138 0L1122 0L1122 124L318 124L318 136L1110 1343L1110 1443L167 1443L167 1319L933 1319L933 1307L138 99ZM630 1660C691 1660 744 1712 744 1773C744 1834 691 1886 630 1886C569 1886 516 1834 516 1773C516 1712 569 1660 630 1660Z" />
<glyph glyph-name="zdotaccent" unicode="&#x017c;" horiz-adv-x="1266" d="M224 0L1042 0L1042 111L383 111L383 123L1041 976L1041 1077L225 1077L225 966L884 966L884 954L224 100ZM633 1317C694 1317 747 1369 747 1430C747 1491 694 1543 633 1543C572 1543 519 1491 519 1430C519 1369 572 1317 633 1317Z" />
<glyph glyph-name="Zcaron" unicode="&#x017d;" horiz-adv-x="1266" d="M981 1914L826 1914L636 1712L624 1712L434 1914L279 1914L568 1617L692 1617ZM138 0L1122 0L1122 124L318 124L318 136L1110 1343L1110 1443L167 1443L167 1319L933 1319L933 1307L138 99Z" />
<glyph glyph-name="zcaron" unicode="&#x017e;" horiz-adv-x="1266" d="M717 1296L993 1631L823 1631L640 1396L626 1396L443 1631L273 1631L549 1296ZM224 0L1042 0L1042 111L383 111L383 123L1041 976L1041 1077L225 1077L225 966L884 966L884 954L224 100Z" />
</font>
</defs>
</svg>
