<?xml version="1.0" standalone="no"?><!DOCTYPE svg PUBLIC "-//W3C//DTD SVG 1.1//EN" "http://www.w3.org/Graphics/SVG/1.1/DTD/svg11.dtd" ><svg xmlns="http://www.w3.org/2000/svg"><metadata></metadata><defs>
<font id="SFMono-Bold" >
<font-face font-family="SF Mono" font-stretch="normal" units-per-em="2048" weight="700" panose-1="2,11,0,9,0,0,2,0,0,0" ascent="1950" descent="-494" x-height="1103" underline-thickness="100" underline-position="-150" unicode-range="U+00000032-00064258" bbox="-203,-840,1469,2331" />
<missing-glyph horiz-adv-x="1266" d="" />
<glyph glyph-name="space" unicode="&#x20;" horiz-adv-x="1266" d="" />
<glyph glyph-name="exclam" unicode="&#x21;" horiz-adv-x="1266" d="M475 1443L500 449L765 449L792 1443ZM633 -31C734 -31 813 45 813 143C813 241 734 317 633 317C532 317 453 241 453 143C453 45 532 -31 633 -31Z" />
<glyph glyph-name="quotedbl" unicode="&#x22;" horiz-adv-x="1266" d="M530 791L530 1443L263 1443L263 791ZM1004 791L1004 1443L736 1443L736 791Z" />
<glyph glyph-name="numbersign" unicode="&#x23;" horiz-adv-x="1266" d="M1194 853L1235 1081L1032 1081L1102 1444L882 1444L810 1081L587 1081L658 1444L439 1444L367 1081L167 1081L125 853L325 853L275 610L75 610L33 379L233 379L157 0L378 0L452 379L676 379L602 0L821 0L896 379L1101 379L1141 610L938 610L989 853ZM533 873L786 873L728 588L477 588Z" />
<glyph glyph-name="dollar" unicode="&#x24;" horiz-adv-x="1266" d="M710 593C874 552 943 491 943 389C943 278 850 197 710 178ZM579 870C428 911 366 968 366 1064C366 1172 447 1247 579 1265ZM710 840L710 1264C832 1243 915 1167 929 1058L1159 1058C1149 1289 970 1451 710 1475L710 1584L579 1584L579 1476C301 1454 123 1289 123 1045C123 829 250 697 516 638L579 624L579 178C435 197 337 277 324 393L89 393C101 146 289 -14 579 -33L579 -141L710 -141L710 -32C1003 -9 1184 159 1184 416C1184 638 1063 760 774 825Z" />
<glyph glyph-name="percent" unicode="&#x25;" horiz-adv-x="1266" d="M297 744C479 744 594 878 594 1088L594 1141C594 1340 476 1474 297 1474C119 1474 0 1340 0 1141L0 1088C0 878 115 744 297 744ZM297 915C226 915 186 975 186 1082L186 1137C186 1244 226 1304 297 1304C369 1304 408 1244 408 1137L408 1082C408 975 369 915 297 915ZM969 -33C1151 -33 1266 101 1266 311L1266 364C1266 562 1147 697 969 697C790 697 672 562 672 364L672 311C672 101 787 -33 969 -33ZM969 138C897 138 858 198 858 305L858 360C858 467 897 527 969 527C1040 527 1080 467 1080 360L1080 305C1080 198 1040 138 969 138ZM1266 1443L0 158L0 0L1266 1285Z" />
<glyph glyph-name="ampersand" unicode="&#x26;" horiz-adv-x="1266" d="M960 0L1248 0L1007 291C1076 386 1120 539 1122 692L1122 740L907 740L907 712C906 615 892 538 867 492L625 775C796 885 876 1005 876 1142C876 1337 733 1472 528 1472C315 1472 167 1337 167 1142C167 1031 219 920 331 796L275 761C112 660 33 533 33 372C33 140 216 -28 471 -28C620 -28 758 24 862 116ZM413 614L444 634L740 282C680 222 598 189 501 189C368 189 276 275 276 398C276 484 323 560 413 614ZM522 1267C599 1267 657 1211 657 1134C657 1055 611 986 505 915C424 1001 386 1072 386 1134C386 1211 444 1267 522 1267Z" />
<glyph glyph-name="quotesingle" unicode="&#x27;" horiz-adv-x="1266" d="M767 791L767 1443L500 1443L500 791Z" />
<glyph glyph-name="parenleft" unicode="&#x28;" horiz-adv-x="1266" d="M349 721C349 350 462 26 674 -208L955 -208C739 119 652 383 652 721C652 1060 739 1325 955 1652L674 1652C462 1418 349 1093 349 721Z" />
<glyph glyph-name="parenright" unicode="&#x29;" horiz-adv-x="1266" d="M311 1652C527 1325 614 1060 614 721C614 383 527 119 311 -208L592 -208C804 26 917 350 917 721C917 1093 804 1418 592 1652Z" />
<glyph glyph-name="asterisk" unicode="&#x2a;" horiz-adv-x="1266" d="M1199 839L1090 1036L724 803L741 1234L525 1234L542 803L176 1037L67 839L445 642L67 444L176 248L542 481L525 50L741 50L724 481L1090 247L1199 444L821 642Z" />
<glyph glyph-name="plus" unicode="&#x2b;" horiz-adv-x="1266" d="M761 518L1176 518L1176 766L761 766L761 1183L504 1183L504 766L89 766L89 518L504 518L504 101L761 101Z" />
<glyph glyph-name="comma" unicode="&#x2c;" horiz-adv-x="1266" d="M622 -335L812 419L492 419L359 -335Z" />
<glyph glyph-name="hyphen" unicode="&#x2d;" horiz-adv-x="1266" d="M1163 518L1163 766L103 766L103 518Z" />
<glyph glyph-name="period" unicode="&#x2e;" horiz-adv-x="1266" d="M633 -19C754 -19 853 83 853 206C853 330 754 432 633 432C512 432 413 330 413 206C413 83 512 -19 633 -19Z" />
<glyph glyph-name="slash" unicode="&#x2f;" horiz-adv-x="1266" d="M427 -220L1113 1663L832 1663L153 -220Z" />
<glyph glyph-name="zero" unicode="&#x30;" horiz-adv-x="1266" d="M633 1474C287 1474 91 1203 91 722C91 241 287 -30 633 -30C980 -30 1176 241 1176 722C1176 1203 980 1474 633 1474ZM369 686L369 722C369 1057 462 1239 633 1239C746 1239 824 1161 865 1013ZM898 756L898 722C898 386 805 205 633 205C521 205 443 282 402 429Z" />
<glyph glyph-name="one" unicode="&#x31;" horiz-adv-x="1266" d="M824 237L824 1443L546 1443L156 1182L156 914L528 1161L546 1161L546 237L157 237L157 0L1193 0L1193 237Z" />
<glyph glyph-name="two" unicode="&#x32;" horiz-adv-x="1266" d="M115 1008L115 1002L379 1002L379 1009C379 1147 475 1241 618 1241C758 1241 849 1159 849 1034C849 937 798 861 601 664L131 199L131 0L1148 0L1148 239L517 239L517 257L799 526C1043 760 1126 895 1126 1053C1126 1303 925 1472 627 1472C324 1472 115 1284 115 1008Z" />
<glyph glyph-name="three" unicode="&#x33;" horiz-adv-x="1266" d="M457 633L629 633C795 633 902 550 902 421C902 294 797 213 632 213C477 213 373 291 363 414L100 414C113 144 325 -29 640 -29C963 -29 1184 146 1184 402C1184 593 1068 721 873 744L873 762C1031 794 1128 919 1128 1089C1128 1317 929 1472 636 1472C331 1472 138 1306 128 1035L381 1035C390 1162 485 1243 627 1243C772 1243 864 1167 864 1047C864 926 770 847 626 847L457 847Z" />
<glyph glyph-name="four" unicode="&#x34;" horiz-adv-x="1266" d="M747 0L1013 0L1013 273L1205 273L1205 501L1009 501L1009 870L756 870L756 506L404 506L404 524L828 1443L541 1443L102 501L102 273L747 273Z" />
<glyph glyph-name="five" unicode="&#x35;" horiz-adv-x="1266" d="M625 -29C945 -29 1160 176 1160 484C1160 765 974 960 708 960C573 960 464 910 402 819L384 819L415 1204L1072 1204L1072 1443L190 1443L122 609L396 609C448 696 527 740 631 740C785 740 890 634 890 477C890 321 786 216 631 216C497 216 396 294 379 410L105 410C113 149 323 -29 625 -29Z" />
<glyph glyph-name="six" unicode="&#x36;" horiz-adv-x="1266" d="M1192 483C1192 749 1004 947 750 947C660 947 572 914 519 858L499 861C510 885 520 903 564 962L927 1443L606 1443C568 1395 349 1113 302 1042C158 838 97 676 97 502C97 186 321 -29 648 -29C959 -29 1192 191 1192 483ZM643 212C491 212 376 323 376 473C376 623 491 734 643 734C796 734 910 623 910 473C910 323 796 212 643 212Z" />
<glyph glyph-name="seven" unicode="&#x37;" horiz-adv-x="1266" d="M245 0L543 0L1154 1205L1154 1444L128 1444L128 1207L868 1207L868 1190Z" />
<glyph glyph-name="eight" unicode="&#x38;" horiz-adv-x="1266" d="M635 855C496 855 404 937 404 1057C404 1177 496 1259 635 1259C773 1259 865 1177 865 1057C865 937 773 855 635 855ZM635 189C471 189 360 281 360 416C360 551 471 643 635 643C798 643 909 551 909 416C909 281 798 189 635 189ZM635 -30C974 -30 1203 139 1203 389C1203 567 1080 711 890 754L890 772C1046 809 1145 931 1145 1083C1145 1312 933 1473 635 1473C336 1473 124 1312 124 1083C124 931 223 809 379 772L379 754C188 709 66 566 66 389C66 139 295 -30 635 -30Z" />
<glyph glyph-name="nine" unicode="&#x39;" horiz-adv-x="1266" d="M88 961C88 692 274 497 530 497C620 497 707 530 760 585L780 582C769 558 753 534 714 481L352 1L672 1C710 47 929 330 976 401C1122 607 1183 769 1183 942C1183 1258 959 1473 632 1473C322 1473 88 1253 88 961ZM637 1232C790 1232 904 1121 904 971C904 821 790 709 637 709C484 709 370 821 370 971C370 1121 484 1232 637 1232Z" />
<glyph glyph-name="colon" unicode="&#x3a;" horiz-adv-x="1266" d="M633 -19C754 -19 853 83 853 206C853 331 754 432 633 432C512 432 413 331 413 206C413 83 512 -19 633 -19ZM633 738C754 738 853 840 853 964C853 1088 754 1189 633 1189C512 1189 413 1088 413 964C413 840 512 738 633 738Z" />
<glyph glyph-name="semicolon" unicode="&#x3b;" horiz-adv-x="1266" d="M633 738C754 738 853 840 853 964C853 1088 754 1189 633 1189C512 1189 413 1088 413 964C413 840 512 738 633 738ZM622 -326L812 419L492 419L359 -326Z" />
<glyph glyph-name="less" unicode="&#x3c;" horiz-adv-x="1266" d="M1100 947L1100 1259L168 763L168 521L1100 26L1100 337L462 632L462 652Z" />
<glyph glyph-name="equal" unicode="&#x3d;" horiz-adv-x="1266" d="M1163 249L1163 523L103 523L103 249ZM1163 759L1163 1033L103 1033L103 759Z" />
<glyph glyph-name="greater" unicode="&#x3e;" horiz-adv-x="1266" d="M805 652L805 632L168 337L168 26L1100 521L1100 763L168 1259L168 947Z" />
<glyph glyph-name="question" unicode="&#x3f;" horiz-adv-x="1266" d="M164 1042L432 1042C438 1149 511 1218 621 1218C729 1218 803 1156 803 1065C803 974 768 928 639 849C506 769 458 682 465 515L467 449L730 449L730 515C730 609 766 658 895 736C1039 822 1104 929 1104 1074C1104 1309 917 1466 639 1466C350 1466 168 1305 164 1042ZM607 -31C708 -31 787 45 787 143C787 241 708 317 607 317C506 317 427 241 427 143C427 45 506 -31 607 -31Z" />
<glyph glyph-name="at" unicode="&#x40;" horiz-adv-x="1266" d="M681 -205C765 -205 863 -190 911 -170L911 -23C871 -41 783 -52 692 -52C383 -52 256 134 256 589L256 699C256 1147 369 1325 648 1325C912 1325 1030 1160 1030 779L1030 526C1030 447 999 415 920 415L782 415L782 852C782 937 735 992 663 992C591 992 543 937 543 852L543 417C543 333 595 278 674 278L954 278C1101 278 1183 371 1183 540L1183 815C1183 1257 1003 1479 650 1479C277 1479 96 1226 96 696L96 568C96 42 284 -205 681 -205Z" />
<glyph glyph-name="A" unicode="&#x41;" horiz-adv-x="1266" d="M465 575L617 1160L630 1160L780 575ZM927 0L1234 0L801 1443L465 1443L32 0L316 0L408 353L837 353Z" />
<glyph glyph-name="B" unicode="&#x42;" horiz-adv-x="1266" d="M688 0C997 0 1188 158 1188 411C1188 598 1051 743 859 757L859 774C1009 797 1119 928 1119 1084C1119 1309 952 1443 675 1443L144 1443L144 0ZM422 1224L598 1224C750 1224 833 1157 833 1033C833 917 743 849 586 849L422 849ZM422 223L422 641L598 641C793 641 892 573 892 436C892 290 798 223 600 223Z" />
<glyph glyph-name="C" unicode="&#x43;" horiz-adv-x="1266" d="M665 226C486 226 394 345 394 574L394 869C394 1097 486 1217 661 1217C808 1217 906 1105 909 932L1197 932C1195 1273 998 1472 666 1472C309 1472 99 1249 99 869L99 574C99 194 309 -29 666 -29C994 -29 1198 171 1198 498L910 498C907 330 814 226 665 226Z" />
<glyph glyph-name="D" unicode="&#x44;" horiz-adv-x="1266" d="M121 1443L121 0L584 0C991 0 1199 248 1199 732C1199 1199 988 1443 584 1443ZM405 1198L545 1198C791 1198 909 1045 909 727C909 395 795 245 545 245L405 245Z" />
<glyph glyph-name="E" unicode="&#x45;" horiz-adv-x="1266" d="M1108 245L483 245L483 616L1071 616L1071 843L483 843L483 1198L1108 1198L1108 1443L198 1443L198 0L1108 0Z" />
<glyph glyph-name="F" unicode="&#x46;" horiz-adv-x="1266" d="M500 0L500 572L1070 572L1070 807L500 807L500 1198L1127 1198L1127 1443L215 1443L215 0Z" />
<glyph glyph-name="G" unicode="&#x47;" horiz-adv-x="1266" d="M900 473C900 318 808 226 656 226C477 226 385 343 385 574L385 869C385 1099 476 1217 652 1217C793 1217 892 1118 899 967L1188 967C1180 1281 979 1472 660 1472C304 1472 96 1251 96 869L96 574C96 192 304 -29 660 -29C979 -29 1189 166 1189 467L1189 767L631 767L631 553L900 553Z" />
<glyph glyph-name="H" unicode="&#x48;" horiz-adv-x="1266" d="M1148 0L1148 1443L869 1443L869 855L397 855L397 1443L118 1443L118 0L397 0L397 610L869 610L869 0Z" />
<glyph glyph-name="I" unicode="&#x49;" horiz-adv-x="1266" d="M1074 0L1074 244L775 244L775 1199L1074 1199L1074 1443L192 1443L192 1199L491 1199L491 244L192 244L192 0Z" />
<glyph glyph-name="J" unicode="&#x4a;" horiz-adv-x="1266" d="M592 -29C897 -29 1077 148 1077 451L1077 1443L274 1443L274 1199L792 1199L792 455C792 308 720 228 588 228C467 228 384 307 381 428L107 428C108 150 298 -29 592 -29Z" />
<glyph glyph-name="K" unicode="&#x4b;" horiz-adv-x="1266" d="M428 0L428 439L555 601L949 0L1280 0L751 806L1248 1443L948 1443L443 786L428 786L428 1443L158 1443L158 0Z" />
<glyph glyph-name="L" unicode="&#x4c;" horiz-adv-x="1266" d="M1144 251L512 251L512 1443L231 1443L231 0L1144 0Z" />
<glyph glyph-name="M" unicode="&#x4d;" horiz-adv-x="1266" d="M325 476L289 1052L310 1052L537 339L729 339L956 1052L977 1052L941 476L941 0L1179 0L1179 1443L885 1443L642 618L625 618L381 1443L87 1443L87 0L325 0Z" />
<glyph glyph-name="N" unicode="&#x4e;" horiz-adv-x="1266" d="M373 0L373 965L390 965L887 0L1139 0L1139 1443L893 1443L893 484L876 484L380 1443L127 1443L127 0Z" />
<glyph glyph-name="O" unicode="&#x4f;" horiz-adv-x="1266" d="M1188 611L1188 832C1188 1233 979 1472 633 1472C287 1472 78 1233 78 832L78 611C78 210 287 -29 633 -29C979 -29 1188 210 1188 611ZM633 223C459 223 367 354 367 614L367 829C367 1089 459 1220 633 1220C807 1220 899 1089 899 829L899 614C899 354 807 223 633 223Z" />
<glyph glyph-name="P" unicode="&#x50;" horiz-adv-x="1266" d="M149 1443L149 0L433 0L433 458L663 458C974 458 1172 649 1172 949C1172 1252 980 1443 677 1443ZM433 1210L605 1210C791 1210 884 1124 884 951C884 777 791 692 605 692L433 692Z" />
<glyph glyph-name="Q" unicode="&#x51;" horiz-adv-x="1266" d="M812 461L543 461L690 212C672 209 653 207 633 207C455 207 359 342 359 610L359 817C359 1085 455 1220 633 1220C811 1220 907 1085 907 817L907 610C907 510 894 429 868 367ZM1188 832C1188 1233 979 1472 633 1472C287 1472 78 1233 78 832L78 611C78 210 287 -29 633 -29C700 -29 762 -20 818 -3L910 -158L1179 -158L1017 116C1127 225 1188 395 1188 611Z" />
<glyph glyph-name="R" unicode="&#x52;" horiz-adv-x="1266" d="M426 1211L630 1211C790 1211 884 1125 884 982C884 836 788 749 627 749L426 749ZM632 531L886 0L1206 0L917 578C1074 640 1173 796 1173 983C1173 1269 981 1443 667 1443L143 1443L143 0L426 0L426 531Z" />
<glyph glyph-name="S" unicode="&#x53;" horiz-adv-x="1266" d="M95 404C105 134 310 -29 637 -29C974 -29 1178 143 1178 428C1178 649 1056 774 777 836L629 870C473 904 409 960 409 1062C409 1170 498 1237 641 1237C782 1237 873 1164 884 1045L1152 1045C1143 1303 940 1472 638 1472C326 1472 127 1301 127 1032C127 818 255 680 516 621L666 586C833 549 897 497 897 399C897 282 798 207 642 207C478 207 376 279 363 404Z" />
<glyph glyph-name="T" unicode="&#x54;" horiz-adv-x="1266" d="M775 0L775 1198L1188 1198L1188 1443L78 1443L78 1198L491 1198L491 0Z" />
<glyph glyph-name="U" unicode="&#x55;" horiz-adv-x="1266" d="M633 227C471 227 381 334 381 528L381 1443L96 1443L96 511C96 171 295 -29 633 -29C971 -29 1170 171 1170 511L1170 1443L885 1443L885 528C885 334 795 227 633 227Z" />
<glyph glyph-name="V" unicode="&#x56;" horiz-adv-x="1266" d="M649 283L636 283L339 1443L32 1443L465 0L801 0L1234 1443L950 1443Z" />
<glyph glyph-name="W" unicode="&#x57;" horiz-adv-x="1266" d="M641 850L792 0L1042 0L1266 1443L1008 1443L950 945L893 375L877 375L743 1113L523 1113L389 375L373 375L316 945L258 1443L0 1443L224 0L474 0L625 850Z" />
<glyph glyph-name="X" unicode="&#x58;" horiz-adv-x="1266" d="M31 0L316 0L617 500L629 500L930 0L1232 0L795 723L1235 1443L939 1443L648 927L634 927L344 1443L32 1443L459 727Z" />
<glyph glyph-name="Y" unicode="&#x59;" horiz-adv-x="1266" d="M775 0L775 533L1238 1443L931 1443L642 828L624 828L335 1443L28 1443L491 533L491 0Z" />
<glyph glyph-name="Z" unicode="&#x5a;" horiz-adv-x="1266" d="M133 0L1157 0L1157 245L483 245L483 262L1139 1249L1139 1443L150 1443L150 1198L790 1198L790 1181L133 194Z" />
<glyph glyph-name="bracketleft" unicode="&#x5b;" horiz-adv-x="1266" d="M331 1663L331 -220L965 -220L965 0L603 0L603 1443L958 1443L958 1663Z" />
<glyph glyph-name="backslash" unicode="&#x5c;" horiz-adv-x="1266" d="M1113 -220L434 1663L153 1663L839 -220Z" />
<glyph glyph-name="bracketright" unicode="&#x5d;" horiz-adv-x="1266" d="M339 1663L339 1443L693 1443L693 0L331 0L331 -220L965 -220L965 1663Z" />
<glyph glyph-name="asciicircum" unicode="&#x5e;" horiz-adv-x="1266" d="M624 1125L642 1125L869 614L1154 614L762 1443L505 1443L113 614L399 614Z" />
<glyph glyph-name="underscore" unicode="&#x5f;" horiz-adv-x="1266" d="M1152 -354L1152 -110L114 -110L114 -354Z" />
<glyph glyph-name="grave" unicode="&#x60;" horiz-adv-x="1266" d="M904 1296L663 1649L362 1649L642 1296Z" />
<glyph glyph-name="a" unicode="&#x61;" horiz-adv-x="1266" d="M484 -18C628 -18 744 43 798 147L822 147L822 0L1082 0L1082 748C1082 989 923 1124 640 1124C378 1124 197 995 177 795L443 795C466 864 537 906 632 906C745 906 811 850 811 754L811 666L553 650C281 631 136 514 136 315C136 116 276 -18 484 -18ZM578 201C472 201 406 253 406 335C406 420 471 469 599 477L811 490L811 410C811 287 714 201 578 201Z" />
<glyph glyph-name="b" unicode="&#x62;" horiz-adv-x="1266" d="M755 -17C1008 -17 1157 157 1157 457L1157 647C1157 947 1008 1121 755 1121C597 1121 487 1047 450 915L429 915L429 1523L144 1523L144 0L426 0L426 190L446 190C485 56 594 -17 755 -17ZM650 220C509 220 422 313 422 465L422 647C422 799 509 891 650 891C792 891 878 799 878 647L878 465C878 313 792 220 650 220Z" />
<glyph glyph-name="c" unicode="&#x63;" horiz-adv-x="1266" d="M1132 718C1106 988 940 1130 655 1130C330 1130 150 946 150 611L150 495C150 160 330 -24 655 -24C940 -24 1108 116 1132 379L864 379C845 261 773 204 653 204C506 204 425 314 425 516L425 590C425 792 506 902 653 902C772 902 846 842 864 718Z" />
<glyph glyph-name="d" unicode="&#x64;" horiz-adv-x="1266" d="M388 647C388 799 475 891 617 891C758 891 844 799 844 647L844 465C844 313 758 220 617 220C475 220 388 313 388 465ZM841 190L841 0L1123 0L1123 1523L837 1523L837 915L817 915C780 1047 670 1121 511 1121C259 1121 109 947 109 647L109 457C109 157 259 -17 511 -17C673 -17 782 56 820 190Z" />
<glyph glyph-name="e" unicode="&#x65;" horiz-adv-x="1266" d="M646 914C784 914 866 819 866 661L419 661C419 819 504 914 646 914ZM872 310C852 238 765 188 655 188C512 188 419 282 419 426L419 486L1130 486L1130 638C1130 934 943 1126 651 1126C351 1126 151 935 151 646L151 469C151 156 335 -24 656 -24C912 -24 1107 115 1130 310Z" />
<glyph glyph-name="f" unicode="&#x66;" horiz-adv-x="1266" d="M444 0L718 0L718 873L1157 873L1157 1092L712 1092L712 1188C712 1270 765 1312 868 1312C894 1312 1136 1311 1157 1309L1157 1510C1141 1512 887 1514 860 1514C562 1514 444 1420 444 1170L444 1092L150 1092L150 873L444 873Z" />
<glyph glyph-name="g" unicode="&#x67;" horiz-adv-x="1266" d="M376 488L376 647C376 797 467 891 610 891C754 891 845 797 845 647L845 488C845 338 754 244 610 244C467 244 376 338 376 488ZM602 -415C924 -415 1123 -256 1123 1L1123 1103L854 1103L854 915L834 915C798 1040 675 1121 515 1121C251 1121 96 948 96 647L96 480C96 182 248 6 502 6C666 6 794 89 828 213L849 213L849 -4C849 -142 765 -214 606 -214C485 -214 397 -169 378 -98L111 -98C129 -294 316 -415 602 -415Z" />
<glyph glyph-name="h" unicode="&#x68;" horiz-adv-x="1266" d="M138 0L411 0L411 634C411 786 504 884 648 884C787 884 855 805 855 644L855 0L1129 0L1129 711C1129 977 997 1123 758 1123C597 1123 474 1047 421 915L405 915L405 1523L138 1523Z" />
<glyph glyph-name="i" unicode="&#x69;" horiz-adv-x="1266" d="M649 1328C761 1328 837 1397 837 1501C837 1605 761 1674 649 1674C537 1674 462 1605 462 1501C462 1397 537 1328 649 1328ZM1120 0L1120 218L787 218L787 1103L185 1103L185 884L521 884L521 218L167 218L167 0Z" />
<glyph glyph-name="j" unicode="&#x6a;" horiz-adv-x="1266" d="M905 1103L185 1103L185 884L639 884L639 42C639 -72 586 -119 447 -119C419 -119 197 -118 174 -116L174 -357C205 -359 425 -360 458 -360C782 -360 905 -251 905 44ZM757 1328C870 1328 945 1397 945 1501C945 1605 870 1674 757 1674C645 1674 570 1605 570 1501C570 1397 645 1328 757 1328Z" />
<glyph glyph-name="k" unicode="&#x6b;" horiz-adv-x="1266" d="M1216 0L780 644L1188 1103L875 1103L491 660L474 660L474 1523L201 1523L201 0L474 0L474 366L579 472L899 0Z" />
<glyph glyph-name="l" unicode="&#x6c;" horiz-adv-x="1266" d="M1120 0L1120 218L791 218L791 1523L185 1523L185 1305L517 1305L517 218L167 218L167 0Z" />
<glyph glyph-name="m" unicode="&#x6d;" horiz-adv-x="1266" d="M1190 856C1190 1031 1116 1126 980 1126C875 1126 798 1057 775 939L746 939C723 1058 653 1126 553 1126C444 1126 369 1057 344 930L315 930L315 1103L76 1103L76 0L308 0L308 757C308 838 351 890 417 890C482 890 519 843 519 764L519 0L748 0L748 757C748 838 791 890 856 890C919 890 958 843 958 764L958 0L1190 0Z" />
<glyph glyph-name="n" unicode="&#x6e;" horiz-adv-x="1266" d="M142 0L415 0L415 637C415 790 506 887 646 887C785 887 850 810 850 648L850 0L1124 0L1124 713C1124 982 996 1126 756 1126C597 1126 478 1051 424 918L407 918L407 1103L142 1103Z" />
<glyph glyph-name="o" unicode="&#x6f;" horiz-adv-x="1266" d="M633 -24C944 -24 1140 165 1140 466L1140 636C1140 937 944 1126 633 1126C322 1126 126 937 126 636L126 466C126 165 322 -24 633 -24ZM633 902C780 902 871 796 871 625L871 477C871 307 780 200 633 200C486 200 395 307 395 477L395 625C395 796 486 902 633 902Z" />
<glyph glyph-name="p" unicode="&#x70;" horiz-adv-x="1266" d="M756 1120C595 1120 486 1046 447 913L426 913L426 1103L145 1103L145 -367L430 -367L430 187L450 187C487 55 597 -19 756 -19C1009 -19 1158 155 1158 456L1158 646C1158 946 1009 1120 756 1120ZM651 882C792 882 879 789 879 638L879 455C879 304 792 211 651 211C509 211 423 303 423 455L423 638C423 790 509 882 651 882Z" />
<glyph glyph-name="q" unicode="&#x71;" horiz-adv-x="1266" d="M843 455C843 303 757 211 615 211C474 211 387 304 387 455L387 638C387 789 474 882 615 882C757 882 843 790 843 638ZM108 456C108 155 257 -19 510 -19C669 -19 779 55 816 187L836 187L836 -367L1121 -367L1121 1103L840 1103L840 913L819 913C780 1046 671 1120 510 1120C257 1120 108 946 108 646Z" />
<glyph glyph-name="r" unicode="&#x72;" horiz-adv-x="1266" d="M614 820L614 1103L120 1103L120 901L350 901L350 201L140 201L140 0L932 0L932 201L612 201L612 489C612 726 739 844 999 844C1061 844 1133 831 1183 812L1183 1109C1144 1124 1088 1132 1026 1132C818 1132 705 1039 657 820Z" />
<glyph glyph-name="s" unicode="&#x73;" horiz-adv-x="1266" d="M187 781C187 611 292 503 499 458L664 423C780 398 822 368 822 306C822 234 750 187 638 187C524 187 450 229 433 305L163 305C178 98 352 -23 634 -23C921 -23 1103 118 1103 341C1103 509 1004 604 781 650L610 685C503 707 457 743 457 803C457 873 526 920 630 920C732 920 804 875 817 802L1075 802C1062 1009 899 1129 632 1129C359 1129 187 995 187 781Z" />
<glyph glyph-name="t" unicode="&#x74;" horiz-adv-x="1266" d="M405 1418L405 1092L118 1092L118 873L405 873L405 349C405 93 520 -2 820 -2C842 -2 1060 0 1071 2L1071 218C1059 217 868 216 842 216C737 216 678 263 678 346L678 873L1084 873L1084 1092L673 1092L673 1418Z" />
<glyph glyph-name="u" unicode="&#x75;" horiz-adv-x="1266" d="M1124 1103L851 1103L851 465C851 313 760 216 620 216C481 216 416 293 416 455L416 1103L142 1103L142 389C142 120 270 -24 510 -24C669 -24 788 52 842 185L859 185L859 0L1124 0Z" />
<glyph glyph-name="v" unicode="&#x76;" horiz-adv-x="1266" d="M94 1103L478 0L790 0L1172 1103L883 1103L645 267L629 267L388 1103Z" />
<glyph glyph-name="w" unicode="&#x77;" horiz-adv-x="1266" d="M1246 1103L984 1103L900 327L865 327L746 1099L520 1099L401 327L366 327L281 1103L20 1103L241 0L479 0L628 740L638 740L787 0L1025 0Z" />
<glyph glyph-name="x" unicode="&#x78;" horiz-adv-x="1266" d="M635 370L855 0L1160 0L806 558L1158 1103L858 1103L648 731L631 731L422 1103L106 1103L459 546L109 0L399 0L619 370Z" />
<glyph glyph-name="y" unicode="&#x79;" horiz-adv-x="1266" d="M307 -398C577 -398 706 -298 801 -14L1181 1103L891 1103L647 252L630 252L386 1103L84 1103L472 -8L461 -50C435 -137 374 -175 263 -175C248 -175 209 -174 202 -172L202 -396C210 -397 260 -398 307 -398Z" />
<glyph glyph-name="z" unicode="&#x7a;" horiz-adv-x="1266" d="M176 0L1090 0L1090 221L536 221L536 238L1078 919L1078 1103L185 1103L185 882L750 882L750 865L176 163Z" />
<glyph glyph-name="braceleft" unicode="&#x7b;" horiz-adv-x="1266" d="M1051 -220L1051 0L955 0C813 0 785 33 785 198L785 476C785 613 687 701 506 712L506 730C687 741 785 830 785 966L785 1245C785 1410 813 1443 955 1443L1051 1443L1051 1663L890 1663C601 1663 507 1572 507 1292L507 1071C507 913 435 852 215 861L215 582C435 590 507 529 507 371L507 151C507 -129 601 -220 890 -220Z" />
<glyph glyph-name="bar" unicode="&#x7c;" horiz-adv-x="1266" d="M769 -483L769 1663L497 1663L497 -483Z" />
<glyph glyph-name="braceright" unicode="&#x7d;" horiz-adv-x="1266" d="M376 -220C665 -220 759 -129 759 151L759 371C759 529 831 590 1051 582L1051 861C831 852 759 913 759 1071L759 1292C759 1572 665 1663 376 1663L215 1663L215 1443L311 1443C453 1443 481 1410 481 1245L481 966C481 830 579 741 760 730L760 712C579 701 481 613 481 476L481 198C481 33 453 0 311 0L215 0L215 -220Z" />
<glyph glyph-name="asciitilde" unicode="&#x7e;" horiz-adv-x="1266" d="M422 962C234 962 114 810 113 571C113 556 114 538 116 522L341 522C345 642 383 700 456 700C496 700 529 680 588 621C681 527 753 491 848 491C1035 491 1153 645 1154 884C1154 898 1153 916 1151 932L928 932C923 814 886 754 816 754C775 754 740 774 682 832C586 928 517 962 422 962Z" />
<glyph glyph-name="exclamdown" unicode="&#xa1;" horiz-adv-x="1266" d="M633 1124C532 1124 453 1048 453 950C453 852 532 776 633 776C734 776 813 852 813 950C813 1048 734 1124 633 1124ZM792 -350L765 644L500 644L475 -350Z" />
<glyph glyph-name="cent" unicode="&#xa2;" horiz-adv-x="1266" d="M848 511C843 443 793 370 656 370C517 370 443 466 443 627L443 779C443 931 523 1020 656 1020C782 1020 841 947 844 868L1108 868C1105 1072 985 1225 766 1262L766 1450L527 1450L527 1257C327 1214 164 1064 164 781L164 622C164 316 313 168 527 131L527 -58L766 -58L766 133C965 169 1109 297 1112 511Z" />
<glyph glyph-name="sterling" unicode="&#xa3;" horiz-adv-x="1266" d="M1183 268L501 268L501 288C605 343 667 456 660 572C660 594 656 613 649 632L993 632L993 852L590 852C565 914 549 962 549 1030C549 1153 660 1229 839 1229C939 1229 1025 1220 1118 1198L1118 1449C1029 1471 928 1480 794 1480C451 1480 248 1339 248 1099C248 1010 273 932 305 852L86 852L86 632L367 632C373 615 378 595 378 571C374 401 257 273 84 248L84 0L1183 0Z" />
<glyph glyph-name="currency" unicode="&#xa4;" horiz-adv-x="1266" d="M1166 1018L1002 1197L858 1042C793 1083 718 1103 637 1103C560 1103 485 1082 418 1042L274 1197L109 1018L252 871C212 806 191 732 191 648C191 563 211 490 252 423L109 277L274 98L419 253C484 213 559 193 637 193C717 193 792 213 857 254L1002 98L1166 277L1024 423C1065 490 1086 563 1086 648C1086 733 1065 807 1025 871ZM638 423C510 423 414 521 414 648C414 775 510 873 638 873C766 873 862 775 862 648C862 521 766 423 638 423Z" />
<glyph glyph-name="yen" unicode="&#xa5;" horiz-adv-x="1266" d="M1238 1443L931 1443L642 828L624 828L335 1443L28 1443L419 674L220 674L220 501L491 501L491 372L220 372L220 199L491 199L491 0L775 0L775 199L1047 199L1047 372L775 372L775 501L1047 501L1047 674L847 674Z" />
<glyph glyph-name="brokenbar" unicode="&#xa6;" horiz-adv-x="1266" d="M769 782L769 1663L497 1663L497 782ZM769 -484L769 398L497 398L497 -484Z" />
<glyph glyph-name="section" unicode="&#xa7;" horiz-adv-x="1266" d="M578 461C487 488 440 534 440 598C440 663 493 710 578 728L693 687C785 659 829 615 829 549C829 484 779 440 691 419ZM632 -289C890 -289 1065 -152 1065 51C1065 179 999 258 849 319L849 339C985 377 1072 484 1072 611C1072 752 983 843 779 916L609 977C509 1007 468 1042 468 1097C468 1171 534 1220 632 1220C727 1220 796 1173 806 1104L1055 1104C1040 1305 874 1437 634 1437C376 1437 205 1302 205 1097C205 971 266 890 405 823L405 805C273 762 195 663 195 539C195 393 285 301 486 234L660 172C758 144 802 108 802 51C802 -22 735 -73 636 -73C540 -73 467 -23 456 49L207 49C216 -153 388 -289 632 -289Z" />
<glyph glyph-name="dieresis" unicode="&#xa8;" horiz-adv-x="1266" d="M402 1299C482 1299 549 1368 549 1451C549 1534 482 1603 402 1603C322 1603 255 1534 255 1451C255 1368 322 1299 402 1299ZM864 1299C944 1299 1011 1368 1011 1451C1011 1534 944 1603 864 1603C784 1603 717 1534 717 1451C717 1368 784 1299 864 1299Z" />
<glyph glyph-name="copyright" unicode="&#xa9;" horiz-adv-x="1266" d="M888 801C875 932 784 1011 646 1011C472 1011 376 908 376 722C376 536 472 433 646 433C783 433 875 512 888 639L743 639C733 587 696 559 641 559C564 559 521 617 521 722C521 827 564 885 641 885C696 885 732 854 743 801ZM633 173C936 173 1175 412 1175 722C1175 1032 936 1271 633 1271C330 1271 91 1032 91 722C91 412 330 173 633 173ZM633 271C388 271 197 470 197 722C197 974 388 1173 633 1173C878 1173 1069 974 1069 722C1069 470 878 271 633 271Z" />
<glyph glyph-name="ordfeminine" unicode="&#xaa;" horiz-adv-x="1266" d="M616 690C534 690 477 734 477 799C477 865 527 903 623 909L789 921L789 849C789 756 717 690 616 690ZM519 496C634 496 728 545 770 625L787 625L787 513L1041 513L1041 1146C1041 1346 897 1466 655 1466C421 1466 270 1355 258 1173L508 1173C519 1225 572 1259 645 1259C730 1259 781 1219 781 1152L781 1076L580 1065C349 1049 225 951 225 783C225 609 340 496 519 496Z" />
<glyph glyph-name="guillemotleft" unicode="&#xab;" horiz-adv-x="1266" d="M342 643L683 1061L424 1061L83 643L83 636L424 218L683 218L342 636ZM841 643L1181 1061L922 1061L582 643L582 636L922 218L1181 218L841 636Z" />
<glyph glyph-name="logicalnot" unicode="&#xac;" horiz-adv-x="1266" d="M1163 766L103 766L103 518L916 518L916 107L1163 107Z" />
<glyph glyph-name="registered" unicode="&#xae;" horiz-adv-x="1266" d="M542 728L542 906L621 906L736 728L896 728L762 926C830 956 866 1012 866 1088C866 1194 792 1260 673 1260L414 1260L414 728ZM542 1142L644 1142C697 1142 727 1119 727 1077C727 1032 697 1009 644 1009L542 1009ZM633 442C938 442 1175 683 1175 991C1175 1299 938 1540 633 1540C328 1540 91 1299 91 991C91 683 328 442 633 442ZM633 540C389 540 197 738 197 991C197 1244 389 1442 633 1442C877 1442 1069 1244 1069 991C1069 738 877 540 633 540Z" />
<glyph glyph-name="macron" unicode="&#xaf;" horiz-adv-x="1266" d="M992 1356L992 1540L274 1540L274 1356Z" />
<glyph glyph-name="degree" unicode="&#xb0;" horiz-adv-x="1266" d="M633 799C835 799 986 952 986 1156C986 1360 835 1513 633 1513C431 1513 281 1360 281 1156C281 952 431 799 633 799ZM633 974C530 974 456 1050 456 1156C456 1262 530 1338 633 1338C737 1338 811 1262 811 1156C811 1050 737 974 633 974Z" />
<glyph glyph-name="plusminus" unicode="&#xb1;" horiz-adv-x="1266" d="M1133 68L1133 298L133 298L133 68ZM757 650L1133 650L1133 882L757 882L757 1111L509 1111L509 882L133 882L133 650L509 650L509 420L757 420Z" />
<glyph glyph-name="acute" unicode="&#xb4;" horiz-adv-x="1266" d="M624 1296L904 1649L603 1649L362 1296Z" />
<glyph glyph-name="mugreek" unicode="&#xb5;" horiz-adv-x="1266" d="M417 -367L417 63L435 63C466 6 519 -24 604 -24C723 -24 799 49 824 198L843 198L846 178C864 46 946 -10 1092 -10C1134 -10 1192 -4 1225 7L1225 216C1213 212 1183 208 1167 208C1103 208 1075 241 1075 313L1075 1103L807 1103L807 448C807 303 727 217 603 217C484 217 417 296 417 442L417 1103L150 1103L150 -367Z" />
<glyph glyph-name="paragraph" unicode="&#xb6;" horiz-adv-x="1266" d="M801 -220L801 1443L581 1443C285 1443 67 1233 67 932C67 647 291 431 580 431L588 431L588 -220ZM962 -220L1175 -220L1175 1443L962 1443Z" />
<glyph glyph-name="periodcentered" unicode="&#xb7;" horiz-adv-x="1266" d="M634 553C746 553 813 624 813 733C813 841 746 914 634 914C522 914 454 841 454 733C454 624 522 553 634 553Z" />
<glyph glyph-name="cedilla" unicode="&#xb8;" horiz-adv-x="1266" d="M468 -238L527 -238C615 -238 653 -254 653 -294C653 -332 615 -351 545 -351C505 -351 451 -345 431 -337L431 -475C470 -484 516 -491 570 -491C735 -491 831 -416 831 -286C831 -177 766 -114 646 -107L692 0L521 0L468 -120Z" />
<glyph glyph-name="ordmasculine" unicode="&#xba;" horiz-adv-x="1266" d="M633 710C512 710 445 805 445 980C445 1155 512 1250 633 1250C754 1250 821 1155 821 980C821 805 754 710 633 710ZM633 497C910 497 1082 682 1082 980C1082 1278 910 1462 633 1462C356 1462 184 1278 184 980C184 682 356 497 633 497Z" />
<glyph glyph-name="guillemotright" unicode="&#xbb;" horiz-adv-x="1266" d="M423 636L83 218L342 218L683 636L683 643L342 1061L83 1061L423 643ZM922 636L582 218L840 218L1181 636L1181 643L840 1061L582 1061L922 643Z" />
<glyph glyph-name="onequarter" unicode="&#xbc;" horiz-adv-x="1266" d="M972 0L1188 0L1188 138L1266 138L1266 278L1188 278L1188 706L874 706C824 616 656 360 631 303L631 107L972 107ZM816 281C841 345 936 475 976 554L980 554L980 277L816 277ZM172 739L398 739L398 1443L179 1443L0 1309L0 1115L168 1246L172 1246ZM1266 1443L0 158L0 0L1266 1285Z" />
<glyph glyph-name="onehalf" unicode="&#xbd;" horiz-adv-x="1266" d="M690 479L690 474L898 474L898 479C898 522 929 554 972 554C1014 554 1042 530 1042 493C1042 466 1027 441 988 406L704 157L704 0L1266 0L1266 177L997 177L997 181L1138 303C1230 382 1263 437 1263 513C1263 642 1151 726 982 726C804 726 690 630 690 479ZM172 739L398 739L398 1443L179 1443L0 1309L0 1115L168 1246L172 1246ZM1266 1443L0 158L0 0L1266 1285Z" />
<glyph glyph-name="threequarters" unicode="&#xbe;" horiz-adv-x="1266" d="M163 1025L247 1025C294 1025 324 1001 324 963C324 927 293 902 248 902C199 902 167 928 165 967L-45 967C-38 809 71 720 257 720C424 720 547 813 547 939C547 1033 482 1097 380 1101L380 1115C471 1129 525 1188 525 1271C525 1389 418 1468 259 1468C73 1468 -34 1378 -32 1223L163 1223C165 1268 197 1297 246 1297C292 1297 321 1274 321 1238C321 1201 292 1177 247 1177L163 1177ZM968 0L1184 0L1184 138L1261 138L1261 278L1184 278L1184 706L869 706C819 618 669 400 626 303L626 107L968 107ZM811 281C834 334 942 492 971 554L975 554L975 277L811 277ZM1266 1443L0 158L0 0L1266 1285Z" />
<glyph glyph-name="questiondown" unicode="&#xbf;" horiz-adv-x="1266" d="M1104 49L836 49C830 -58 757 -127 647 -127C539 -127 465 -65 465 26C465 117 500 163 629 242C762 322 810 409 803 576L801 642L538 642L538 576C538 482 502 433 373 355C229 269 164 162 164 17C164 -218 351 -375 629 -375C918 -375 1100 -214 1104 49ZM661 1122C560 1122 481 1046 481 948C481 850 560 774 661 774C762 774 841 850 841 948C841 1046 762 1122 661 1122Z" />
<glyph glyph-name="Agrave" unicode="&#xc0;" horiz-adv-x="1266" d="M774 1602L497 1920L202 1920L514 1602ZM465 575L617 1160L630 1160L780 575ZM927 0L1234 0L801 1443L465 1443L32 0L316 0L408 353L837 353Z" />
<glyph glyph-name="Aacute" unicode="&#xc1;" horiz-adv-x="1266" d="M1064 1920L769 1920L493 1602L752 1602ZM465 575L617 1160L630 1160L780 575ZM927 0L1234 0L801 1443L465 1443L32 0L316 0L408 353L837 353Z" />
<glyph glyph-name="Acircumflex" unicode="&#xc2;" horiz-adv-x="1266" d="M624 1796L642 1796L794 1602L1041 1602L761 1937L505 1937L225 1602L472 1602ZM465 575L617 1160L630 1160L780 575ZM927 0L1234 0L801 1443L465 1443L32 0L316 0L408 353L837 353Z" />
<glyph glyph-name="Atilde" unicode="&#xc3;" horiz-adv-x="1266" d="M857 1891C853 1802 819 1765 767 1765C679 1765 640 1903 476 1903C337 1903 238 1793 238 1602L410 1602C413 1692 446 1731 499 1731C595 1731 631 1593 790 1593C929 1593 1028 1704 1028 1891ZM465 575L617 1160L630 1160L780 575ZM927 0L1234 0L801 1443L465 1443L32 0L316 0L408 353L837 353Z" />
<glyph glyph-name="Adieresis" unicode="&#xc4;" horiz-adv-x="1266" d="M864 1619C944 1619 1011 1688 1011 1771C1011 1854 944 1923 864 1923C784 1923 717 1854 717 1771C717 1688 784 1619 864 1619ZM402 1619C482 1619 549 1688 549 1771C549 1854 482 1923 402 1923C322 1923 255 1854 255 1771C255 1688 322 1619 402 1619ZM465 575L617 1160L630 1160L780 575ZM927 0L1234 0L801 1443L465 1443L32 0L316 0L408 353L837 353Z" />
<glyph glyph-name="Aring" unicode="&#xc5;" horiz-adv-x="1266" d="M633 1840C687 1840 728 1801 728 1747C728 1693 689 1653 633 1653C579 1653 538 1693 538 1747C538 1801 579 1840 633 1840ZM634 1549C749 1549 835 1634 835 1748C835 1861 749 1944 634 1944C517 1944 431 1861 431 1748C431 1634 518 1549 634 1549ZM465 575L617 1160L630 1160L780 575ZM927 0L1234 0L801 1443L465 1443L32 0L316 0L408 353L837 353Z" />
<glyph glyph-name="AE" unicode="&#xc6;" horiz-adv-x="1266" d="M403 589L522 1174L608 1174L608 589ZM1247 1198L1247 1443L349 1443L2 0L283 0L355 353L608 353L608 0L1247 0L1247 245L867 245L867 612L1211 612L1211 840L867 840L867 1198Z" />
<glyph glyph-name="Ccedilla" unicode="&#xc7;" horiz-adv-x="1266" d="M910 498C907 330 814 226 665 226C486 226 394 345 394 574L394 869C394 1097 486 1217 661 1217C808 1217 906 1105 909 932L1197 932C1195 1273 998 1472 666 1472C309 1472 99 1249 99 869L99 574C99 234 267 20 558 -22L515 -120L515 -238L574 -238C662 -238 699 -254 699 -294C699 -332 662 -351 591 -351C551 -351 498 -345 478 -337L478 -475C517 -484 563 -491 616 -491C782 -491 878 -416 878 -286C878 -177 813 -114 692 -107L727 -27C1019 -3 1198 192 1198 498Z" />
<glyph glyph-name="Egrave" unicode="&#xc8;" horiz-adv-x="1266" d="M517 1920L222 1920L534 1602L794 1602ZM1108 245L483 245L483 616L1071 616L1071 843L483 843L483 1198L1108 1198L1108 1443L198 1443L198 0L1108 0Z" />
<glyph glyph-name="Eacute" unicode="&#xc9;" horiz-adv-x="1266" d="M1108 245L483 245L483 616L1071 616L1071 843L483 843L483 1198L1108 1198L1108 1443L198 1443L198 0L1108 0ZM500 1602L759 1602L1071 1920L777 1920Z" />
<glyph glyph-name="Ecircumflex" unicode="&#xca;" horiz-adv-x="1266" d="M1108 245L483 245L483 616L1071 616L1071 843L483 843L483 1198L1108 1198L1108 1443L198 1443L198 0L1108 0ZM781 1937L525 1937L245 1602L492 1602L645 1796L662 1796L814 1602L1061 1602Z" />
<glyph glyph-name="Edieresis" unicode="&#xcb;" horiz-adv-x="1266" d="M1108 245L483 245L483 616L1071 616L1071 843L483 843L483 1198L1108 1198L1108 1443L198 1443L198 0L1108 0ZM422 1619C502 1619 569 1688 569 1771C569 1854 502 1923 422 1923C343 1923 275 1854 275 1771C275 1688 343 1619 422 1619ZM884 1619C964 1619 1031 1688 1031 1771C1031 1854 964 1923 884 1923C804 1923 737 1854 737 1771C737 1688 804 1619 884 1619Z" />
<glyph glyph-name="Igrave" unicode="&#xcc;" horiz-adv-x="1266" d="M497 1920L202 1920L514 1602L774 1602ZM1074 0L1074 244L775 244L775 1199L1074 1199L1074 1443L192 1443L192 1199L491 1199L491 244L192 244L192 0Z" />
<glyph glyph-name="Iacute" unicode="&#xcd;" horiz-adv-x="1266" d="M1074 0L1074 244L775 244L775 1199L1074 1199L1074 1443L192 1443L192 1199L491 1199L491 244L192 244L192 0ZM493 1602L752 1602L1064 1920L769 1920Z" />
<glyph glyph-name="Icircumflex" unicode="&#xce;" horiz-adv-x="1266" d="M1074 0L1074 244L775 244L775 1199L1074 1199L1074 1443L192 1443L192 1199L491 1199L491 244L192 244L192 0ZM761 1937L505 1937L225 1602L472 1602L624 1796L642 1796L794 1602L1041 1602Z" />
<glyph glyph-name="Idieresis" unicode="&#xcf;" horiz-adv-x="1266" d="M1074 0L1074 244L775 244L775 1199L1074 1199L1074 1443L192 1443L192 1199L491 1199L491 244L192 244L192 0ZM402 1619C482 1619 549 1688 549 1771C549 1854 482 1923 402 1923C322 1923 255 1854 255 1771C255 1688 322 1619 402 1619ZM864 1619C944 1619 1011 1688 1011 1771C1011 1854 944 1923 864 1923C784 1923 717 1854 717 1771C717 1688 784 1619 864 1619Z" />
<glyph glyph-name="Eth" unicode="&#xd0;" horiz-adv-x="1266" d="M405 245L405 613L640 613L640 843L405 843L405 1198L545 1198C791 1198 909 1045 909 727C909 395 795 245 545 245ZM121 1443L121 843L-2 843L-2 613L121 613L121 0L584 0C991 0 1199 248 1199 732C1199 1199 988 1443 584 1443Z" />
<glyph glyph-name="Ntilde" unicode="&#xd1;" horiz-adv-x="1266" d="M373 0L373 965L390 965L887 0L1139 0L1139 1443L893 1443L893 484L876 484L380 1443L127 1443L127 0ZM789 1593C927 1593 1027 1704 1027 1891L856 1891C852 1802 817 1765 766 1765C678 1765 639 1903 474 1903C335 1903 236 1793 236 1602L408 1602C411 1692 445 1731 497 1731C593 1731 629 1593 789 1593Z" />
<glyph glyph-name="Ograve" unicode="&#xd2;" horiz-adv-x="1266" d="M497 1920L202 1920L514 1602L774 1602ZM367 829C367 1089 459 1220 633 1220C807 1220 899 1089 899 829L899 614C899 354 807 223 633 223C459 223 367 354 367 614ZM1188 832C1188 1233 979 1472 633 1472C287 1472 78 1233 78 832L78 611C78 210 287 -29 633 -29C979 -29 1188 210 1188 611Z" />
<glyph glyph-name="Oacute" unicode="&#xd3;" horiz-adv-x="1266" d="M1188 611L1188 832C1188 1233 979 1472 633 1472C287 1472 78 1233 78 832L78 611C78 210 287 -29 633 -29C979 -29 1188 210 1188 611ZM633 223C459 223 367 354 367 614L367 829C367 1089 459 1220 633 1220C807 1220 899 1089 899 829L899 614C899 354 807 223 633 223ZM493 1602L752 1602L1064 1920L769 1920Z" />
<glyph glyph-name="Ocircumflex" unicode="&#xd4;" horiz-adv-x="1266" d="M1188 611L1188 832C1188 1233 979 1472 633 1472C287 1472 78 1233 78 832L78 611C78 210 287 -29 633 -29C979 -29 1188 210 1188 611ZM633 223C459 223 367 354 367 614L367 829C367 1089 459 1220 633 1220C807 1220 899 1089 899 829L899 614C899 354 807 223 633 223ZM761 1937L505 1937L225 1602L472 1602L624 1796L642 1796L794 1602L1041 1602Z" />
<glyph glyph-name="Otilde" unicode="&#xd5;" horiz-adv-x="1266" d="M1188 611L1188 832C1188 1233 979 1472 633 1472C287 1472 78 1233 78 832L78 611C78 210 287 -29 633 -29C979 -29 1188 210 1188 611ZM633 223C459 223 367 354 367 614L367 829C367 1089 459 1220 633 1220C807 1220 899 1089 899 829L899 614C899 354 807 223 633 223ZM790 1593C929 1593 1028 1704 1028 1891L857 1891C853 1802 819 1765 767 1765C679 1765 640 1903 476 1903C337 1903 238 1793 238 1602L410 1602C413 1692 446 1731 499 1731C595 1731 631 1593 790 1593Z" />
<glyph glyph-name="Odieresis" unicode="&#xd6;" horiz-adv-x="1266" d="M1188 611L1188 832C1188 1233 979 1472 633 1472C287 1472 78 1233 78 832L78 611C78 210 287 -29 633 -29C979 -29 1188 210 1188 611ZM633 223C459 223 367 354 367 614L367 829C367 1089 459 1220 633 1220C807 1220 899 1089 899 829L899 614C899 354 807 223 633 223ZM402 1619C482 1619 549 1688 549 1771C549 1854 482 1923 402 1923C322 1923 255 1854 255 1771C255 1688 322 1619 402 1619ZM864 1619C944 1619 1011 1688 1011 1771C1011 1854 944 1923 864 1923C784 1923 717 1854 717 1771C717 1688 784 1619 864 1619Z" />
<glyph glyph-name="multiply" unicode="&#xd7;" horiz-adv-x="1266" d="M633 836L325 1146L149 952L457 641L150 331L325 139L633 449L941 139L1116 332L809 641L1117 953L942 1146Z" />
<glyph glyph-name="Oslash" unicode="&#xd8;" horiz-adv-x="1266" d="M899 614C899 354 807 223 633 223C547 223 481 255 436 319L886 981C895 937 899 886 899 829ZM367 829C367 1089 459 1220 633 1220C719 1220 784 1188 829 1125L380 463C371 507 367 557 367 614ZM1199 1443L1045 1443L986 1356C895 1431 776 1472 633 1472C287 1472 78 1233 78 832L78 611C78 436 118 292 191 185L66 0L220 0L280 88C371 12 490 -29 633 -29C979 -29 1188 210 1188 611L1188 832C1188 1007 1148 1152 1074 1259Z" />
<glyph glyph-name="Ugrave" unicode="&#xd9;" horiz-adv-x="1266" d="M496 1920L201 1920L513 1602L773 1602ZM381 1443L96 1443L96 511C96 171 295 -29 633 -29C971 -29 1170 171 1170 511L1170 1443L885 1443L885 528C885 334 795 227 633 227C471 227 381 334 381 528Z" />
<glyph glyph-name="Uacute" unicode="&#xda;" horiz-adv-x="1266" d="M633 227C471 227 381 334 381 528L381 1443L96 1443L96 511C96 171 295 -29 633 -29C971 -29 1170 171 1170 511L1170 1443L885 1443L885 528C885 334 795 227 633 227ZM492 1602L751 1602L1063 1920L768 1920Z" />
<glyph glyph-name="Ucircumflex" unicode="&#xdb;" horiz-adv-x="1266" d="M633 227C471 227 381 334 381 528L381 1443L96 1443L96 511C96 171 295 -29 633 -29C971 -29 1170 171 1170 511L1170 1443L885 1443L885 528C885 334 795 227 633 227ZM760 1937L504 1937L224 1602L471 1602L623 1796L640 1796L793 1602L1040 1602Z" />
<glyph glyph-name="Udieresis" unicode="&#xdc;" horiz-adv-x="1266" d="M633 227C471 227 381 334 381 528L381 1443L96 1443L96 511C96 171 295 -29 633 -29C971 -29 1170 171 1170 511L1170 1443L885 1443L885 528C885 334 795 227 633 227ZM401 1619C481 1619 548 1688 548 1771C548 1854 481 1923 401 1923C321 1923 254 1854 254 1771C254 1688 321 1619 401 1619ZM863 1619C942 1619 1010 1688 1010 1771C1010 1854 942 1923 863 1923C783 1923 716 1854 716 1771C716 1688 783 1619 863 1619Z" />
<glyph glyph-name="Yacute" unicode="&#xdd;" horiz-adv-x="1266" d="M775 0L775 533L1238 1443L931 1443L642 828L624 828L335 1443L28 1443L491 533L491 0ZM486 1602L746 1602L1058 1920L763 1920Z" />
<glyph glyph-name="Thorn" unicode="&#xde;" horiz-adv-x="1266" d="M169 1443L169 0L470 0L470 282L707 282C995 282 1189 473 1189 748C1189 1025 1003 1214 723 1214L470 1214L470 1443ZM470 958L640 958C801 958 883 887 883 747C883 608 801 536 640 536L470 536Z" />
<glyph glyph-name="germandbls" unicode="&#xdf;" horiz-adv-x="1266" d="M407 0L407 1028C407 1163 474 1228 605 1228C723 1228 799 1158 799 1047C799 933 727 861 613 861L579 861L579 609L636 609C806 609 900 541 900 415C900 293 826 232 686 232C634 232 590 238 555 251L555 2C601 -9 663 -15 720 -15C1025 -15 1198 132 1198 398C1198 603 1077 734 868 758L868 777C995 818 1083 943 1083 1085C1083 1339 913 1481 615 1481C300 1481 118 1325 118 1052L118 0Z" />
<glyph glyph-name="agrave" unicode="&#xe0;" horiz-adv-x="1266" d="M484 -18C628 -18 744 43 798 147L822 147L822 0L1082 0L1082 748C1082 989 923 1124 640 1124C378 1124 197 995 177 795L443 795C466 864 537 906 632 906C745 906 811 850 811 754L811 666L553 650C281 631 136 514 136 315C136 116 276 -18 484 -18ZM578 201C472 201 406 253 406 335C406 420 471 469 599 477L811 490L811 410C811 287 714 201 578 201ZM854 1296L612 1649L311 1649L592 1296Z" />
<glyph glyph-name="aacute" unicode="&#xe1;" horiz-adv-x="1266" d="M749 1296L1029 1649L728 1649L486 1296ZM811 490L811 410C811 287 714 201 578 201C472 201 406 253 406 335C406 420 471 469 599 477ZM822 147L822 0L1082 0L1082 748C1082 989 923 1124 640 1124C378 1124 197 995 177 795L443 795C466 864 537 906 632 906C745 906 811 850 811 754L811 666L553 650C281 631 136 514 136 315C136 116 276 -18 484 -18C628 -18 744 43 798 147Z" />
<glyph glyph-name="acircumflex" unicode="&#xe2;" horiz-adv-x="1266" d="M484 -18C628 -18 744 43 798 147L822 147L822 0L1082 0L1082 748C1082 989 923 1124 640 1124C378 1124 197 995 177 795L443 795C466 864 537 906 632 906C745 906 811 850 811 754L811 666L553 650C281 631 136 514 136 315C136 116 276 -18 484 -18ZM578 201C472 201 406 253 406 335C406 420 471 469 599 477L811 490L811 410C811 287 714 201 578 201ZM493 1629L225 1273L484 1273L628 1481L645 1481L789 1273L1048 1273L780 1629Z" />
<glyph glyph-name="atilde" unicode="&#xe3;" horiz-adv-x="1266" d="M484 -18C628 -18 744 43 798 147L822 147L822 0L1082 0L1082 748C1082 989 923 1124 640 1124C378 1124 197 995 177 795L443 795C466 864 537 906 632 906C745 906 811 850 811 754L811 666L553 650C281 631 136 514 136 315C136 116 276 -18 484 -18ZM578 201C472 201 406 253 406 335C406 420 471 469 599 477L811 490L811 410C811 287 714 201 578 201ZM505 1407C584 1407 632 1263 779 1263C933 1263 1035 1392 1035 1584L850 1584C850 1496 822 1448 769 1448C689 1448 642 1591 495 1591C341 1591 239 1461 239 1267L423 1267C424 1356 453 1407 505 1407Z" />
<glyph glyph-name="adieresis" unicode="&#xe4;" horiz-adv-x="1266" d="M484 -18C628 -18 744 43 798 147L822 147L822 0L1082 0L1082 748C1082 989 923 1124 640 1124C378 1124 197 995 177 795L443 795C466 864 537 906 632 906C745 906 811 850 811 754L811 666L553 650C281 631 136 514 136 315C136 116 276 -18 484 -18ZM578 201C472 201 406 253 406 335C406 420 471 469 599 477L811 490L811 410C811 287 714 201 578 201ZM421 1287C500 1287 568 1355 568 1439C568 1522 500 1590 421 1590C341 1590 273 1522 273 1439C273 1355 341 1287 421 1287ZM882 1287C962 1287 1029 1355 1029 1439C1029 1522 962 1590 882 1590C802 1590 735 1522 735 1439C735 1355 802 1287 882 1287Z" />
<glyph glyph-name="aring" unicode="&#xe5;" horiz-adv-x="1266" d="M484 -18C628 -18 744 43 798 147L822 147L822 0L1082 0L1082 748C1082 989 923 1124 640 1124C378 1124 197 995 177 795L443 795C466 864 537 906 632 906C745 906 811 850 811 754L811 666L553 650C281 631 136 514 136 315C136 116 276 -18 484 -18ZM578 201C472 201 406 253 406 335C406 420 471 469 599 477L811 490L811 410C811 287 714 201 578 201ZM637 1380C579 1380 534 1425 534 1482C534 1539 579 1584 637 1584C694 1584 739 1539 739 1482C739 1425 694 1380 637 1380ZM637 1240C768 1240 875 1349 875 1482C875 1615 768 1724 637 1724C506 1724 398 1615 398 1482C398 1349 506 1240 637 1240Z" />
<glyph glyph-name="ae" unicode="&#xe6;" horiz-adv-x="1266" d="M1223 358L1023 358C993 255 949 209 880 209C789 209 736 302 733 463L733 476L1221 476L1221 579C1221 928 1100 1131 891 1131C780 1131 695 1077 645 973L639 973C589 1081 513 1131 399 1131C221 1131 91 986 73 768L284 768C293 856 337 909 399 909C476 909 515 854 515 738L515 668L369 653C158 629 50 520 50 328C50 121 169 -16 348 -16C475 -16 568 51 625 186L631 186C679 56 770 -16 886 -16C1061 -16 1177 112 1223 358ZM997 676L741 676C747 822 796 909 873 909C951 909 995 824 997 676ZM370 211C302 211 265 254 265 327C265 401 317 456 398 464L521 477L521 415C521 291 460 211 370 211Z" />
<glyph glyph-name="ccedilla" unicode="&#xe7;" horiz-adv-x="1266" d="M425 590C425 792 506 902 653 902C772 902 846 842 864 718L1132 718C1106 988 940 1130 655 1130C330 1130 150 946 150 611L150 495C150 203 287 25 538 -15L492 -120L492 -238L551 -238C639 -238 676 -254 676 -294C676 -332 639 -351 568 -351C529 -351 475 -345 455 -337L455 -475C494 -484 540 -491 594 -491C759 -491 855 -416 855 -286C855 -177 790 -114 670 -107L706 -22C960 -6 1109 132 1132 379L864 379C845 261 773 204 653 204C506 204 425 314 425 516Z" />
<glyph glyph-name="egrave" unicode="&#xe8;" horiz-adv-x="1266" d="M646 914C784 914 866 819 866 661L419 661C419 819 504 914 646 914ZM872 310C852 238 765 188 655 188C512 188 419 282 419 426L419 486L1130 486L1130 638C1130 934 943 1126 651 1126C351 1126 151 935 151 646L151 469C151 156 335 -24 656 -24C912 -24 1107 115 1130 310ZM802 1296L561 1649L260 1649L540 1296Z" />
<glyph glyph-name="eacute" unicode="&#xe9;" horiz-adv-x="1266" d="M754 1296L1034 1649L733 1649L492 1296ZM872 310C852 238 765 188 655 188C512 188 419 282 419 426L419 486L1130 486L1130 638C1130 934 943 1126 651 1126C351 1126 151 935 151 646L151 469C151 156 335 -24 656 -24C912 -24 1107 115 1130 310ZM419 661C419 819 504 914 646 914C784 914 866 819 866 661Z" />
<glyph glyph-name="ecircumflex" unicode="&#xea;" horiz-adv-x="1266" d="M646 914C784 914 866 819 866 661L419 661C419 819 504 914 646 914ZM872 310C852 238 765 188 655 188C512 188 419 282 419 426L419 486L1130 486L1130 638C1130 934 943 1126 651 1126C351 1126 151 935 151 646L151 469C151 156 335 -24 656 -24C912 -24 1107 115 1130 310ZM497 1629L230 1273L489 1273L632 1481L650 1481L793 1273L1052 1273L785 1629Z" />
<glyph glyph-name="edieresis" unicode="&#xeb;" horiz-adv-x="1266" d="M646 914C784 914 866 819 866 661L419 661C419 819 504 914 646 914ZM872 310C852 238 765 188 655 188C512 188 419 282 419 426L419 486L1130 486L1130 638C1130 934 943 1126 651 1126C351 1126 151 935 151 646L151 469C151 156 335 -24 656 -24C912 -24 1107 115 1130 310ZM410 1299C490 1299 558 1368 558 1451C558 1534 490 1603 410 1603C331 1603 263 1534 263 1451C263 1368 331 1299 410 1299ZM872 1299C952 1299 1019 1368 1019 1451C1019 1534 952 1603 872 1603C792 1603 725 1534 725 1451C725 1368 792 1299 872 1299Z" />
<glyph glyph-name="igrave" unicode="&#xec;" horiz-adv-x="1266" d="M1120 0L1120 218L787 218L787 1103L185 1103L185 884L521 884L521 218L167 218L167 0ZM811 1293L570 1646L269 1646L549 1293Z" />
<glyph glyph-name="iacute" unicode="&#xed;" horiz-adv-x="1266" d="M763 1293L1043 1646L742 1646L500 1293ZM1120 0L1120 218L787 218L787 1103L185 1103L185 884L521 884L521 218L167 218L167 0Z" />
<glyph glyph-name="icircumflex" unicode="&#xee;" horiz-adv-x="1266" d="M1120 0L1120 218L787 218L787 1103L185 1103L185 884L521 884L521 218L167 218L167 0ZM506 1626L238 1270L497 1270L641 1478L659 1478L802 1270L1061 1270L793 1626Z" />
<glyph glyph-name="idieresis" unicode="&#xef;" horiz-adv-x="1266" d="M1120 0L1120 218L787 218L787 1103L185 1103L185 884L521 884L521 218L167 218L167 0ZM419 1297C499 1297 566 1365 566 1448C566 1532 499 1600 419 1600C339 1600 272 1532 272 1448C272 1365 339 1297 419 1297ZM881 1297C960 1297 1028 1365 1028 1448C1028 1532 960 1600 881 1600C801 1600 734 1532 734 1448C734 1365 801 1297 881 1297Z" />
<glyph glyph-name="eth" unicode="&#xf0;" horiz-adv-x="1266" d="M829 486C829 303 749 197 611 197C472 197 393 303 393 486L393 552C393 733 472 838 611 838C750 838 829 733 829 552ZM1083 1384L1083 1552L760 1432C717 1472 671 1509 622 1542L256 1542C359 1479 448 1413 524 1344L314 1266L314 1099L643 1221C720 1128 774 1029 807 925L791 925C728 1007 647 1043 527 1043C264 1043 104 850 104 530L104 501C104 171 290 -20 609 -20C931 -20 1116 175 1116 515L1116 624C1116 866 1026 1111 873 1306Z" />
<glyph glyph-name="ntilde" unicode="&#xf1;" horiz-adv-x="1266" d="M142 0L415 0L415 637C415 790 506 887 646 887C785 887 850 810 850 648L850 0L1124 0L1124 713C1124 982 996 1126 756 1126C597 1126 478 1051 424 918L407 918L407 1103L142 1103ZM500 1414C580 1414 628 1270 775 1270C929 1270 1031 1399 1031 1591L846 1591C846 1503 817 1455 765 1455C685 1455 638 1598 490 1598C337 1598 235 1468 235 1274L419 1274C420 1363 449 1414 500 1414Z" />
<glyph glyph-name="ograve" unicode="&#xf2;" horiz-adv-x="1266" d="M633 -24C944 -24 1140 165 1140 466L1140 636C1140 937 944 1126 633 1126C322 1126 126 937 126 636L126 466C126 165 322 -24 633 -24ZM633 902C780 902 871 796 871 625L871 477C871 307 780 200 633 200C486 200 395 307 395 477L395 625C395 796 486 902 633 902ZM786 1296L545 1649L244 1649L524 1296Z" />
<glyph glyph-name="oacute" unicode="&#xf3;" horiz-adv-x="1266" d="M745 1296L1025 1649L724 1649L483 1296ZM871 477C871 307 780 200 633 200C486 200 395 307 395 477L395 625C395 796 486 902 633 902C780 902 871 796 871 625ZM1140 636C1140 937 944 1126 633 1126C322 1126 126 937 126 636L126 466C126 165 322 -24 633 -24C944 -24 1140 165 1140 466Z" />
<glyph glyph-name="ocircumflex" unicode="&#xf4;" horiz-adv-x="1266" d="M633 -24C944 -24 1140 165 1140 466L1140 636C1140 937 944 1126 633 1126C322 1126 126 937 126 636L126 466C126 165 322 -24 633 -24ZM633 902C780 902 871 796 871 625L871 477C871 307 780 200 633 200C486 200 395 307 395 477L395 625C395 796 486 902 633 902ZM489 1629L222 1273L481 1273L624 1481L642 1481L785 1273L1044 1273L777 1629Z" />
<glyph glyph-name="otilde" unicode="&#xf5;" horiz-adv-x="1266" d="M633 -24C944 -24 1140 165 1140 466L1140 636C1140 937 944 1126 633 1126C322 1126 126 937 126 636L126 466C126 165 322 -24 633 -24ZM633 902C780 902 871 796 871 625L871 477C871 307 780 200 633 200C486 200 395 307 395 477L395 625C395 796 486 902 633 902ZM500 1414C580 1414 628 1270 775 1270C929 1270 1031 1399 1031 1591L846 1591C846 1503 817 1455 765 1455C685 1455 638 1598 490 1598C337 1598 235 1468 235 1274L419 1274C420 1363 449 1414 500 1414Z" />
<glyph glyph-name="odieresis" unicode="&#xf6;" horiz-adv-x="1266" d="M633 -24C944 -24 1140 165 1140 466L1140 636C1140 937 944 1126 633 1126C322 1126 126 937 126 636L126 466C126 165 322 -24 633 -24ZM633 902C780 902 871 796 871 625L871 477C871 307 780 200 633 200C486 200 395 307 395 477L395 625C395 796 486 902 633 902ZM402 1299C482 1299 549 1368 549 1451C549 1534 482 1603 402 1603C322 1603 255 1534 255 1451C255 1368 322 1299 402 1299ZM863 1299C943 1299 1011 1368 1011 1451C1011 1534 943 1603 863 1603C784 1603 716 1534 716 1451C716 1368 784 1299 863 1299Z" />
<glyph glyph-name="divide" unicode="&#xf7;" horiz-adv-x="1266" d="M1161 526L1161 758L105 758L105 526ZM633 872C732 872 798 940 798 1038C798 1136 732 1202 633 1202C535 1202 469 1136 469 1038C469 940 535 872 633 872ZM633 81C732 81 798 148 798 246C798 344 732 411 633 411C535 411 469 344 469 246C469 148 535 81 633 81Z" />
<glyph glyph-name="oslash" unicode="&#xf8;" horiz-adv-x="1266" d="M871 477C871 307 780 200 633 200C569 200 515 220 476 257L856 734C866 702 871 665 871 625ZM395 625C395 796 486 902 633 902C697 902 750 882 790 846L410 368C400 401 395 437 395 477ZM1151 1103L995 1103L945 1041C863 1096 757 1126 633 1126C322 1126 126 937 126 636L126 466C126 335 163 226 230 143L116 0L270 0L320 62C402 6 508 -24 633 -24C944 -24 1140 165 1140 466L1140 636C1140 767 1103 876 1036 959Z" />
<glyph glyph-name="ugrave" unicode="&#xf9;" horiz-adv-x="1266" d="M1124 1103L851 1103L851 465C851 313 760 216 620 216C481 216 416 293 416 455L416 1103L142 1103L142 389C142 120 270 -24 510 -24C669 -24 788 52 842 185L859 185L859 0L1124 0ZM794 1296L553 1649L252 1649L532 1296Z" />
<glyph glyph-name="uacute" unicode="&#xfa;" horiz-adv-x="1266" d="M745 1296L1025 1649L724 1649L483 1296ZM1124 1103L851 1103L851 465C851 313 760 216 620 216C481 216 416 293 416 455L416 1103L142 1103L142 389C142 120 270 -24 510 -24C669 -24 788 52 842 185L859 185L859 0L1124 0Z" />
<glyph glyph-name="ucircumflex" unicode="&#xfb;" horiz-adv-x="1266" d="M1124 1103L851 1103L851 465C851 313 760 216 620 216C481 216 416 293 416 455L416 1103L142 1103L142 389C142 120 270 -24 510 -24C669 -24 788 52 842 185L859 185L859 0L1124 0ZM489 1629L221 1273L480 1273L623 1481L641 1481L784 1273L1044 1273L776 1629Z" />
<glyph glyph-name="udieresis" unicode="&#xfc;" horiz-adv-x="1266" d="M1124 1103L851 1103L851 465C851 313 760 216 620 216C481 216 416 293 416 455L416 1103L142 1103L142 389C142 120 270 -24 510 -24C669 -24 788 52 842 185L859 185L859 0L1124 0ZM402 1299C482 1299 549 1368 549 1451C549 1534 482 1603 402 1603C322 1603 255 1534 255 1451C255 1368 322 1299 402 1299ZM863 1299C943 1299 1011 1368 1011 1451C1011 1534 943 1603 863 1603C784 1603 716 1534 716 1451C716 1368 784 1299 863 1299Z" />
<glyph glyph-name="yacute" unicode="&#xfd;" horiz-adv-x="1266" d="M745 1296L1025 1649L724 1649L483 1296ZM1181 1103L891 1103L647 252L630 252L386 1103L84 1103L472 -8L461 -50C435 -137 374 -175 263 -175C248 -175 209 -174 202 -172L202 -396C210 -397 260 -398 307 -398C577 -398 706 -298 801 -14Z" />
<glyph glyph-name="thorn" unicode="&#xfe;" horiz-adv-x="1266" d="M728 -18C988 -18 1152 164 1152 456L1152 666C1152 960 995 1139 739 1139C588 1139 473 1062 432 935L411 935L411 1474L126 1474L126 -345L411 -345L411 191L432 191C472 58 576 -18 728 -18ZM639 219C496 219 414 308 414 466L414 641C414 799 496 888 640 888C780 888 860 799 860 641L860 466C860 308 780 219 639 219Z" />
<glyph glyph-name="ydieresis" unicode="&#xff;" horiz-adv-x="1266" d="M307 -398C577 -398 706 -298 801 -14L1181 1103L891 1103L647 252L630 252L386 1103L84 1103L472 -8L461 -50C435 -137 374 -175 263 -175C248 -175 209 -174 202 -172L202 -396C210 -397 260 -398 307 -398ZM401 1299C481 1299 549 1368 549 1451C549 1534 481 1603 401 1603C322 1603 254 1534 254 1451C254 1368 322 1299 401 1299ZM863 1299C943 1299 1010 1368 1010 1451C1010 1534 943 1603 863 1603C783 1603 716 1534 716 1451C716 1368 783 1299 863 1299Z" />
<glyph glyph-name="Amacron" unicode="&#x0100;" horiz-adv-x="1266" d="M992 1841L274 1841L274 1656L992 1656ZM465 575L617 1160L630 1160L780 575ZM927 0L1234 0L801 1443L465 1443L32 0L316 0L408 353L837 353Z" />
<glyph glyph-name="amacron" unicode="&#x0101;" horiz-adv-x="1266" d="M484 -18C628 -18 744 43 798 147L822 147L822 0L1082 0L1082 748C1082 989 923 1124 640 1124C378 1124 197 995 177 795L443 795C466 864 537 906 632 906C745 906 811 850 811 754L811 666L553 650C281 631 136 514 136 315C136 116 276 -18 484 -18ZM578 201C472 201 406 253 406 335C406 420 471 469 599 477L811 490L811 410C811 287 714 201 578 201ZM996 1356L996 1540L277 1540L277 1356Z" />
<glyph glyph-name="Abreve" unicode="&#x0102;" horiz-adv-x="1266" d="M826 1927C824 1823 747 1755 633 1755C519 1755 442 1823 440 1927L247 1927C247 1729 398 1591 633 1591C868 1591 1019 1729 1019 1927ZM465 575L617 1160L630 1160L780 575ZM927 0L1234 0L801 1443L465 1443L32 0L316 0L408 353L837 353Z" />
<glyph glyph-name="abreve" unicode="&#x0103;" horiz-adv-x="1266" d="M484 -18C628 -18 744 43 798 147L822 147L822 0L1082 0L1082 748C1082 989 923 1124 640 1124C378 1124 197 995 177 795L443 795C466 864 537 906 632 906C745 906 811 850 811 754L811 666L553 650C281 631 136 514 136 315C136 116 276 -18 484 -18ZM578 201C472 201 406 253 406 335C406 420 471 469 599 477L811 490L811 410C811 287 714 201 578 201ZM617 1437C501 1437 433 1508 431 1614L227 1614C227 1403 379 1259 617 1259C855 1259 1008 1403 1008 1614L804 1614C802 1508 733 1437 617 1437Z" />
<glyph glyph-name="Aogonek" unicode="&#x0104;" horiz-adv-x="1266" d="M465 575L617 1160L630 1160L780 575ZM1234 0L801 1443L465 1443L32 0L316 0L408 353L837 353L926 4C829 -62 788 -129 788 -223C788 -364 907 -461 1079 -461C1135 -461 1192 -453 1222 -440L1222 -283C1211 -287 1172 -291 1140 -291C1056 -291 1003 -250 1003 -184C1003 -98 1073 -41 1224 -3Z" />
<glyph glyph-name="aogonek" unicode="&#x0105;" horiz-adv-x="1266" d="M578 202C472 202 406 253 406 335C406 420 471 469 599 477L811 490L811 411C811 287 714 202 578 202ZM822 0C713 -65 661 -144 661 -242C661 -372 770 -461 929 -461C983 -461 1048 -451 1082 -437L1082 -272C1065 -277 1035 -281 1007 -281C933 -281 888 -244 888 -184C888 -111 953 -42 1057 -7L1082 0L1082 749C1082 989 923 1124 640 1124C378 1124 197 995 177 795L443 795C466 865 537 906 632 906C745 906 811 850 811 755L811 666L553 650C281 631 136 515 136 316C136 116 276 -17 484 -17C628 -17 744 43 798 147L822 147Z" />
<glyph glyph-name="Cacute" unicode="&#x0106;" horiz-adv-x="1266" d="M665 226C486 226 394 345 394 574L394 869C394 1097 486 1217 661 1217C808 1217 906 1105 909 932L1197 932C1195 1273 998 1472 666 1472C309 1472 99 1249 99 869L99 574C99 194 309 -29 666 -29C994 -29 1198 171 1198 498L910 498C907 330 814 226 665 226ZM504 1602L764 1602L1076 1920L781 1920Z" />
<glyph glyph-name="cacute" unicode="&#x0107;" horiz-adv-x="1266" d="M754 1296L1035 1649L734 1649L492 1296ZM1132 718C1106 988 940 1130 655 1130C330 1130 150 946 150 611L150 495C150 160 330 -24 655 -24C940 -24 1108 116 1132 379L864 379C845 261 773 204 653 204C506 204 425 314 425 516L425 590C425 792 506 902 653 902C772 902 846 842 864 718Z" />
<glyph glyph-name="Ccircumflex" unicode="&#x0108;" horiz-adv-x="1266" d="M665 226C486 226 394 345 394 574L394 869C394 1097 486 1217 661 1217C808 1217 906 1105 909 932L1197 932C1195 1273 998 1472 666 1472C309 1472 99 1249 99 869L99 574C99 194 309 -29 666 -29C994 -29 1198 171 1198 498L910 498C907 330 814 226 665 226ZM773 1937L517 1937L237 1602L483 1602L636 1796L653 1796L806 1602L1053 1602Z" />
<glyph glyph-name="ccircumflex" unicode="&#x0109;" horiz-adv-x="1266" d="M1132 718C1106 988 940 1130 655 1130C330 1130 150 946 150 611L150 495C150 160 330 -24 655 -24C940 -24 1108 116 1132 379L864 379C845 261 773 204 653 204C506 204 425 314 425 516L425 590C425 792 506 902 653 902C772 902 846 842 864 718ZM498 1629L230 1273L490 1273L633 1481L651 1481L794 1273L1053 1273L785 1629Z" />
<glyph glyph-name="Cdotaccent" unicode="&#x010a;" horiz-adv-x="1266" d="M665 226C486 226 394 345 394 574L394 869C394 1097 486 1217 661 1217C808 1217 906 1105 909 932L1197 932C1195 1273 998 1472 666 1472C309 1472 99 1249 99 869L99 574C99 194 309 -29 666 -29C994 -29 1198 171 1198 498L910 498C907 330 814 226 665 226ZM645 1597C731 1597 803 1670 803 1760C803 1849 731 1922 645 1922C558 1922 487 1849 487 1760C487 1670 558 1597 645 1597Z" />
<glyph glyph-name="cdotaccent" unicode="&#x010b;" horiz-adv-x="1266" d="M1132 718C1106 988 940 1130 655 1130C330 1130 150 946 150 611L150 495C150 160 330 -24 655 -24C940 -24 1108 116 1132 379L864 379C845 261 773 204 653 204C506 204 425 314 425 516L425 590C425 792 506 902 653 902C772 902 846 842 864 718ZM642 1285C729 1285 801 1358 801 1448C801 1537 729 1610 642 1610C556 1610 484 1537 484 1448C484 1358 556 1285 642 1285Z" />
<glyph glyph-name="Ccaron" unicode="&#x010c;" horiz-adv-x="1266" d="M1053 1929L806 1929L653 1735L636 1735L483 1929L237 1929L517 1594L773 1594ZM394 869C394 1097 486 1217 661 1217C808 1217 906 1105 909 932L1197 932C1195 1273 998 1472 666 1472C309 1472 99 1249 99 869L99 574C99 194 309 -29 666 -29C994 -29 1198 171 1198 498L910 498C907 330 814 226 665 226C486 226 394 345 394 574Z" />
<glyph glyph-name="ccaron" unicode="&#x010d;" horiz-adv-x="1266" d="M785 1296L1053 1652L794 1652L650 1444L633 1444L489 1652L230 1652L498 1296ZM1132 718C1106 988 940 1130 655 1130C330 1130 150 946 150 611L150 495C150 160 330 -24 655 -24C940 -24 1108 116 1132 379L864 379C845 261 773 204 653 204C506 204 425 314 425 516L425 590C425 792 506 902 653 902C772 902 846 842 864 718Z" />
<glyph glyph-name="Dcaron" unicode="&#x010e;" horiz-adv-x="1266" d="M991 1929L744 1929L591 1735L574 1735L421 1929L174 1929L454 1594L711 1594ZM405 1198L545 1198C791 1198 909 1045 909 727C909 395 795 245 545 245L405 245ZM121 1443L121 0L584 0C991 0 1199 248 1199 732C1199 1199 988 1443 584 1443Z" />
<glyph glyph-name="dcaron" unicode="&#x010f;" horiz-adv-x="1266" d="M299 640C299 811 362 891 491 891C620 891 683 811 683 640L683 472C683 300 620 220 491 220C362 220 299 300 299 472ZM711 190L711 0L941 0L941 1523L708 1523L708 915L687 915C649 1051 551 1121 408 1121C170 1121 58 968 58 647L58 457C58 136 170 -17 408 -17C552 -17 650 52 691 190ZM1040 1523L1040 1032L1216 1032L1250 1523Z" />
<glyph glyph-name="Dcroat" unicode="&#x0110;" horiz-adv-x="1266" d="M428 231L428 623L696 623L696 838L428 838L428 1213L553 1213C804 1213 921 1059 921 727C921 377 812 231 560 231ZM170 1443L170 838L29 838L29 623L170 623L170 0L585 0C991 0 1200 248 1200 732C1200 1199 989 1443 585 1443Z" />
<glyph glyph-name="dcroat" unicode="&#x0111;" horiz-adv-x="1266" d="M839 465C839 313 753 220 611 220C470 220 383 313 383 465L383 647C383 799 470 891 611 891C753 891 839 799 839 647ZM1252 1400L1117 1400L1117 1523L832 1523L832 1400L672 1400L672 1256L832 1256L832 915L812 915C775 1047 665 1121 506 1121C253 1121 104 947 104 647L104 457C104 157 253 -17 506 -17C667 -17 777 56 815 190L836 190L836 0L1117 0L1117 1256L1252 1256Z" />
<glyph glyph-name="Emacron" unicode="&#x0112;" horiz-adv-x="1266" d="M1108 245L483 245L483 616L1071 616L1071 843L483 843L483 1198L1108 1198L1108 1443L198 1443L198 0L1108 0ZM1013 1656L1013 1841L294 1841L294 1656Z" />
<glyph glyph-name="emacron" unicode="&#x0113;" horiz-adv-x="1266" d="M646 914C784 914 866 819 866 661L419 661C419 819 504 914 646 914ZM872 310C852 238 765 188 655 188C512 188 419 282 419 426L419 486L1130 486L1130 638C1130 934 943 1126 651 1126C351 1126 151 935 151 646L151 469C151 156 335 -24 656 -24C912 -24 1107 115 1130 310ZM1000 1356L1000 1540L281 1540L281 1356Z" />
<glyph glyph-name="Ebreve" unicode="&#x0114;" horiz-adv-x="1266" d="M1108 245L483 245L483 616L1071 616L1071 843L483 843L483 1198L1108 1198L1108 1443L198 1443L198 0L1108 0ZM267 1927C267 1729 418 1591 653 1591C888 1591 1040 1729 1040 1927L846 1927C844 1823 767 1755 653 1755C539 1755 462 1823 460 1927Z" />
<glyph glyph-name="ebreve" unicode="&#x0115;" horiz-adv-x="1266" d="M646 914C784 914 866 819 866 661L419 661C419 819 504 914 646 914ZM872 310C852 238 765 188 655 188C512 188 419 282 419 426L419 486L1130 486L1130 638C1130 934 943 1126 651 1126C351 1126 151 935 151 646L151 469C151 156 335 -24 656 -24C912 -24 1107 115 1130 310ZM642 1440C526 1440 457 1511 455 1617L251 1617C251 1406 404 1262 642 1262C880 1262 1032 1406 1032 1617L828 1617C827 1511 758 1440 642 1440Z" />
<glyph glyph-name="Edotaccent" unicode="&#x0116;" horiz-adv-x="1266" d="M1108 245L483 245L483 616L1071 616L1071 843L483 843L483 1198L1108 1198L1108 1443L198 1443L198 0L1108 0ZM660 1597C746 1597 818 1670 818 1760C818 1849 746 1922 660 1922C573 1922 501 1849 501 1760C501 1670 573 1597 660 1597Z" />
<glyph glyph-name="edotaccent" unicode="&#x0117;" horiz-adv-x="1266" d="M646 914C784 914 866 819 866 661L419 661C419 819 504 914 646 914ZM872 310C852 238 765 188 655 188C512 188 419 282 419 426L419 486L1130 486L1130 638C1130 934 943 1126 651 1126C351 1126 151 935 151 646L151 469C151 156 335 -24 656 -24C912 -24 1107 115 1130 310ZM642 1285C728 1285 800 1358 800 1448C800 1537 728 1610 642 1610C555 1610 483 1537 483 1448C483 1358 555 1285 642 1285Z" />
<glyph glyph-name="Eogonek" unicode="&#x0118;" horiz-adv-x="1266" d="M846 0L846 -17C756 -75 710 -151 710 -241C710 -372 816 -461 971 -461C1022 -461 1074 -452 1112 -438L1112 -283C1095 -287 1065 -291 1043 -291C971 -291 921 -248 921 -186C921 -110 980 -43 1092 -1L1108 5L1108 245L483 245L483 616L1071 616L1071 843L483 843L483 1198L1108 1198L1108 1443L198 1443L198 0Z" />
<glyph glyph-name="eogonek" unicode="&#x0119;" horiz-adv-x="1266" d="M856 -461C908 -461 955 -454 989 -440L989 -283C978 -288 951 -291 920 -291C844 -291 798 -252 798 -186C798 -123 842 -61 961 40C1061 128 1120 223 1130 310L872 310C852 238 765 188 655 188C512 188 419 282 419 426L419 486L1130 486L1130 638C1130 934 943 1126 651 1126C351 1126 151 935 151 646L151 469C151 158 327 -24 627 -24C662 -24 699 -20 721 -15L721 -32C638 -78 588 -159 588 -241C588 -370 698 -461 856 -461ZM646 914C784 914 866 819 866 661L419 661C419 819 504 914 646 914Z" />
<glyph glyph-name="Ecaron" unicode="&#x011a;" horiz-adv-x="1266" d="M1061 1929L814 1929L662 1735L645 1735L492 1929L245 1929L525 1594L781 1594ZM1108 245L483 245L483 616L1071 616L1071 843L483 843L483 1198L1108 1198L1108 1443L198 1443L198 0L1108 0Z" />
<glyph glyph-name="ecaron" unicode="&#x011b;" horiz-adv-x="1266" d="M784 1296L1052 1652L793 1652L650 1444L632 1444L489 1652L229 1652L497 1296ZM872 310C852 238 765 188 655 188C512 188 419 282 419 426L419 486L1130 486L1130 638C1130 934 943 1126 651 1126C351 1126 151 935 151 646L151 469C151 156 335 -24 656 -24C912 -24 1107 115 1130 310ZM419 661C419 819 504 914 646 914C784 914 866 819 866 661Z" />
<glyph glyph-name="Gcircumflex" unicode="&#x011c;" horiz-adv-x="1266" d="M900 473C900 318 808 226 656 226C477 226 385 343 385 574L385 869C385 1099 476 1217 652 1217C793 1217 892 1118 899 967L1188 967C1180 1281 979 1472 660 1472C304 1472 96 1251 96 869L96 574C96 192 304 -29 660 -29C979 -29 1189 166 1189 467L1189 767L631 767L631 553L900 553ZM771 1937L515 1937L235 1602L482 1602L634 1796L651 1796L804 1602L1051 1602Z" />
<glyph glyph-name="gcircumflex" unicode="&#x011d;" horiz-adv-x="1266" d="M376 488L376 647C376 797 467 891 610 891C754 891 845 797 845 647L845 488C845 338 754 244 610 244C467 244 376 338 376 488ZM602 -415C924 -415 1123 -256 1123 1L1123 1103L854 1103L854 915L834 915C798 1040 675 1121 515 1121C251 1121 96 948 96 647L96 480C96 182 248 6 502 6C666 6 794 89 828 213L849 213L849 -4C849 -142 765 -214 606 -214C485 -214 397 -169 378 -98L111 -98C129 -294 316 -415 602 -415ZM465 1629L198 1273L457 1273L600 1481L618 1481L761 1273L1020 1273L753 1629Z" />
<glyph glyph-name="Gbreve" unicode="&#x011e;" horiz-adv-x="1266" d="M900 473C900 318 808 226 656 226C477 226 385 343 385 574L385 869C385 1099 476 1217 652 1217C793 1217 892 1118 899 967L1188 967C1180 1281 979 1472 660 1472C304 1472 96 1251 96 869L96 574C96 192 304 -29 660 -29C979 -29 1189 166 1189 467L1189 767L631 767L631 553L900 553ZM256 1927C256 1729 408 1591 643 1591C878 1591 1029 1729 1029 1927L836 1927C834 1823 757 1755 643 1755C529 1755 452 1823 450 1927Z" />
<glyph glyph-name="gbreve" unicode="&#x011f;" horiz-adv-x="1266" d="M376 488L376 647C376 797 467 891 610 891C754 891 845 797 845 647L845 488C845 338 754 244 610 244C467 244 376 338 376 488ZM602 -415C924 -415 1123 -256 1123 1L1123 1103L854 1103L854 915L834 915C798 1040 675 1121 515 1121C251 1121 96 948 96 647L96 480C96 182 248 6 502 6C666 6 794 89 828 213L849 213L849 -4C849 -142 765 -214 606 -214C485 -214 397 -169 378 -98L111 -98C129 -294 316 -415 602 -415ZM610 1440C494 1440 425 1511 423 1617L219 1617C219 1406 372 1262 610 1262C848 1262 1000 1406 1000 1617L796 1617C795 1511 726 1440 610 1440Z" />
<glyph glyph-name="Gdotaccent" unicode="&#x0120;" horiz-adv-x="1266" d="M900 473C900 318 808 226 656 226C477 226 385 343 385 574L385 869C385 1099 476 1217 652 1217C793 1217 892 1118 899 967L1188 967C1180 1281 979 1472 660 1472C304 1472 96 1251 96 869L96 574C96 192 304 -29 660 -29C979 -29 1189 166 1189 467L1189 767L631 767L631 553L900 553ZM643 1597C730 1597 801 1670 801 1760C801 1849 730 1922 643 1922C556 1922 485 1849 485 1760C485 1670 556 1597 643 1597Z" />
<glyph glyph-name="gdotaccent" unicode="&#x0121;" horiz-adv-x="1266" d="M376 488L376 647C376 797 467 891 610 891C754 891 845 797 845 647L845 488C845 338 754 244 610 244C467 244 376 338 376 488ZM602 -415C924 -415 1123 -256 1123 1L1123 1103L854 1103L854 915L834 915C798 1040 675 1121 515 1121C251 1121 96 948 96 647L96 480C96 182 248 6 502 6C666 6 794 89 828 213L849 213L849 -4C849 -142 765 -214 606 -214C485 -214 397 -169 378 -98L111 -98C129 -294 316 -415 602 -415ZM610 1285C696 1285 768 1358 768 1448C768 1537 696 1610 610 1610C523 1610 451 1537 451 1448C451 1358 523 1285 610 1285Z" />
<glyph glyph-name="Gcommaaccent" unicode="&#x0122;" horiz-adv-x="1266" d="M900 473C900 318 808 226 656 226C477 226 385 343 385 574L385 869C385 1099 476 1217 652 1217C793 1217 892 1118 899 967L1188 967C1180 1281 979 1472 660 1472C304 1472 96 1251 96 869L96 574C96 192 304 -29 660 -29C979 -29 1189 166 1189 467L1189 767L631 767L631 553L900 553ZM652 -504L817 -150L542 -150L411 -504Z" />
<glyph glyph-name="gcommaaccent" unicode="&#x0123;" horiz-adv-x="1266" d="M376 488L376 647C376 797 467 891 610 891C754 891 845 797 845 647L845 488C845 338 754 244 610 244C467 244 376 338 376 488ZM602 -415C924 -415 1123 -256 1123 1L1123 1103L854 1103L854 915L834 915C798 1040 675 1121 515 1121C251 1121 96 948 96 647L96 480C96 182 248 6 502 6C666 6 794 89 828 213L849 213L849 -4C849 -142 765 -214 606 -214C485 -214 397 -169 378 -98L111 -98C129 -294 316 -415 602 -415ZM630 1648L465 1294L740 1294L872 1648Z" />
<glyph glyph-name="Hcircumflex" unicode="&#x0124;" horiz-adv-x="1266" d="M1148 0L1148 1443L869 1443L869 855L397 855L397 1443L118 1443L118 0L397 0L397 610L869 610L869 0ZM761 1937L505 1937L225 1602L472 1602L624 1796L642 1796L794 1602L1041 1602Z" />
<glyph glyph-name="hcircumflex" unicode="&#x0125;" horiz-adv-x="1266" d="M138 0L411 0L411 634C411 786 504 884 648 884C787 884 855 805 855 644L855 0L1129 0L1129 711C1129 977 997 1123 758 1123C597 1123 474 1047 421 915L405 915L405 1523L138 1523ZM131 1956L-137 1599L123 1599L266 1807L284 1807L427 1599L686 1599L419 1956Z" />
<glyph glyph-name="Hbar" unicode="&#x0126;" horiz-adv-x="1266" d="M420 849L420 1067L842 1067L842 849ZM428 610L834 610L834 0L1119 0L1119 1061L1224 1061L1224 1257L1119 1257L1119 1443L834 1443L834 1257L428 1257L428 1443L144 1443L144 1257L42 1257L42 1061L144 1061L144 0L428 0Z" />
<glyph glyph-name="hbar" unicode="&#x0127;" horiz-adv-x="1266" d="M405 915L405 1256L663 1256L663 1400L405 1400L405 1523L138 1523L138 1400L11 1400L11 1256L138 1256L138 0L411 0L411 634C411 786 504 884 648 884C787 884 855 805 855 644L855 0L1129 0L1129 711C1129 977 997 1123 758 1123C597 1123 474 1047 421 915Z" />
<glyph glyph-name="Itilde" unicode="&#x0128;" horiz-adv-x="1266" d="M1074 0L1074 244L775 244L775 1199L1074 1199L1074 1443L192 1443L192 1199L491 1199L491 244L192 244L192 0ZM790 1593C929 1593 1028 1704 1028 1891L857 1891C853 1802 819 1765 767 1765C679 1765 640 1903 476 1903C337 1903 238 1793 238 1602L410 1602C413 1692 446 1731 499 1731C595 1731 631 1593 790 1593Z" />
<glyph glyph-name="itilde" unicode="&#x0129;" horiz-adv-x="1266" d="M1120 0L1120 218L787 218L787 1103L185 1103L185 884L521 884L521 218L167 218L167 0ZM518 1411C597 1411 645 1267 792 1267C946 1267 1048 1396 1048 1588L863 1588C863 1500 835 1452 782 1452C702 1452 655 1595 508 1595C354 1595 252 1465 252 1271L436 1271C437 1360 466 1411 518 1411Z" />
<glyph glyph-name="Imacron" unicode="&#x012a;" horiz-adv-x="1266" d="M1074 0L1074 244L775 244L775 1199L1074 1199L1074 1443L192 1443L192 1199L491 1199L491 244L192 244L192 0ZM992 1656L992 1841L274 1841L274 1656Z" />
<glyph glyph-name="imacron" unicode="&#x012b;" horiz-adv-x="1266" d="M1120 0L1120 218L787 218L787 1103L185 1103L185 884L521 884L521 218L167 218L167 0ZM1009 1353L1009 1538L290 1538L290 1353Z" />
<glyph glyph-name="Ibreve" unicode="&#x012c;" horiz-adv-x="1266" d="M1074 0L1074 244L775 244L775 1199L1074 1199L1074 1443L192 1443L192 1199L491 1199L491 244L192 244L192 0ZM247 1927C247 1729 398 1591 633 1591C868 1591 1019 1729 1019 1927L826 1927C824 1823 747 1755 633 1755C519 1755 442 1823 440 1927Z" />
<glyph glyph-name="ibreve" unicode="&#x012d;" horiz-adv-x="1266" d="M1120 0L1120 218L787 218L787 1103L185 1103L185 884L521 884L521 218L167 218L167 0ZM657 1427C541 1427 472 1498 471 1604L266 1604C266 1393 419 1249 657 1249C895 1249 1048 1393 1048 1604L844 1604C842 1498 773 1427 657 1427Z" />
<glyph glyph-name="Iogonek" unicode="&#x012e;" horiz-adv-x="1266" d="M1074 1199L1074 1443L192 1443L192 1199L491 1199L491 244L192 244L192 0L869 0C764 -58 705 -152 705 -261C705 -375 802 -461 932 -461C978 -461 1030 -451 1073 -437L1073 -273C1056 -279 1034 -282 1005 -282C941 -282 904 -248 904 -191C904 -121 961 -56 1072 -1L1074 0L1074 244L775 244L775 1199Z" />
<glyph glyph-name="iogonek" unicode="&#x012f;" horiz-adv-x="1266" d="M649 1328C761 1328 837 1397 837 1501C837 1605 761 1674 649 1674C537 1674 462 1605 462 1501C462 1397 537 1328 649 1328ZM1120 218L787 218L787 1103L185 1103L185 884L521 884L521 218L167 218L167 0L925 0C805 -73 748 -159 748 -265C748 -386 833 -461 971 -461C1036 -461 1089 -454 1120 -441L1120 -272C1101 -278 1075 -281 1047 -281C981 -281 946 -250 946 -192C946 -120 1003 -57 1120 0Z" />
<glyph glyph-name="Idotaccent" unicode="&#x0130;" horiz-adv-x="1266" d="M1074 0L1074 244L775 244L775 1199L1074 1199L1074 1443L192 1443L192 1199L491 1199L491 244L192 244L192 0ZM633 1597C720 1597 791 1670 791 1760C791 1849 720 1922 633 1922C546 1922 475 1849 475 1760C475 1670 546 1597 633 1597Z" />
<glyph glyph-name="dotlessi" unicode="&#x0131;" horiz-adv-x="1266" d="M1120 0L1120 218L787 218L787 1103L185 1103L185 884L521 884L521 218L167 218L167 0Z" />
<glyph glyph-name="IJ" unicode="&#x0132;" horiz-adv-x="1266" d="M389 0L389 1443L125 1443L125 0ZM845 -36C1080 -36 1201 116 1201 412L1201 1443L587 1443L587 1198L938 1198L938 437C938 276 908 221 836 221C768 221 733 279 730 421L477 421C477 118 604 -36 845 -36Z" />
<glyph glyph-name="ij" unicode="&#x0133;" horiz-adv-x="1266" d="M479 0L479 1103L222 1103L222 0ZM1067 1103L810 1103L810 27C810 -88 758 -134 619 -134C586 -134 365 -133 346 -131L346 -357C373 -359 583 -360 620 -360C945 -360 1067 -251 1067 44ZM929 1328C1041 1328 1116 1397 1116 1501C1116 1605 1041 1674 929 1674C816 1674 741 1605 741 1501C741 1397 816 1328 929 1328ZM348 1328C460 1328 535 1397 535 1501C535 1605 460 1674 348 1674C235 1674 160 1605 160 1501C160 1397 235 1328 348 1328Z" />
<glyph glyph-name="Jcircumflex" unicode="&#x0134;" horiz-adv-x="1266" d="M592 -29C897 -29 1077 148 1077 451L1077 1443L274 1443L274 1199L792 1199L792 455C792 308 720 228 588 228C467 228 384 307 381 428L107 428C108 150 298 -29 592 -29ZM794 1937L538 1937L258 1602L505 1602L657 1796L675 1796L827 1602L1074 1602Z" />
<glyph glyph-name="jcircumflex" unicode="&#x0135;" horiz-adv-x="1266" d="M905 1103L185 1103L185 884L639 884L639 42C639 -72 586 -119 447 -119C419 -119 197 -118 174 -116L174 -357C205 -359 425 -360 458 -360C782 -360 905 -251 905 44ZM628 1629L360 1273L620 1273L763 1481L781 1481L924 1273L1183 1273L916 1629Z" />
<glyph glyph-name="Kcommaaccent" unicode="&#x0136;" horiz-adv-x="1266" d="M428 0L428 439L555 601L949 0L1280 0L751 806L1248 1443L948 1443L443 786L428 786L428 1443L158 1443L158 0ZM667 -504L832 -150L557 -150L425 -504Z" />
<glyph glyph-name="kcommaaccent" unicode="&#x0137;" horiz-adv-x="1266" d="M411 -494L652 -494L817 -140L542 -140ZM780 644L1188 1103L875 1103L491 660L474 660L474 1523L201 1523L201 0L474 0L474 366L579 472L899 0L1216 0Z" />
<glyph glyph-name="Lacute" unicode="&#x0139;" horiz-adv-x="1266" d="M1144 251L512 251L512 1443L231 1443L231 0L1144 0ZM231 1602L491 1602L803 1920L508 1920Z" />
<glyph glyph-name="lacute" unicode="&#x013a;" horiz-adv-x="1266" d="M764 1713L1044 2066L743 2066L502 1713ZM1120 0L1120 218L791 218L791 1523L185 1523L185 1305L517 1305L517 218L167 218L167 0Z" />
<glyph glyph-name="Lcommaaccent" unicode="&#x013b;" horiz-adv-x="1266" d="M1144 251L512 251L512 1443L231 1443L231 0L1144 0ZM699 -504L864 -150L589 -150L457 -504Z" />
<glyph glyph-name="lcommaaccent" unicode="&#x013c;" horiz-adv-x="1266" d="M1120 0L1120 218L791 218L791 1523L185 1523L185 1305L517 1305L517 218L167 218L167 0ZM619 -494L784 -140L509 -140L378 -494Z" />
<glyph glyph-name="Lcaron" unicode="&#x013d;" horiz-adv-x="1266" d="M780 1443L780 943L965 943L1010 1443ZM1144 251L512 251L512 1443L231 1443L231 0L1144 0Z" />
<glyph glyph-name="lcaron" unicode="&#x013e;" horiz-adv-x="1266" d="M982 1523L982 1032L1172 1032L1217 1523ZM1120 0L1120 218L791 218L791 1523L185 1523L185 1305L517 1305L517 218L167 218L167 0Z" />
<glyph glyph-name="Ldot" unicode="&#x013f;" horiz-adv-x="1266" d="M1144 251L512 251L512 1443L231 1443L231 0L1144 0ZM968 816C1054 816 1126 889 1126 978C1126 1068 1054 1141 968 1141C881 1141 809 1068 809 978C809 889 881 816 968 816Z" />
<glyph glyph-name="ldot" unicode="&#x0140;" horiz-adv-x="1266" d="M1120 0L1120 218L791 218L791 1523L185 1523L185 1305L517 1305L517 218L167 218L167 0ZM1123 765C1210 765 1281 839 1281 928C1281 1017 1210 1091 1123 1091C1036 1091 965 1017 965 928C965 839 1036 765 1123 765Z" />
<glyph glyph-name="Lslash" unicode="&#x0141;" horiz-adv-x="1266" d="M512 251L512 659L1016 933L1016 1169L512 893L512 1443L231 1443L231 739L86 660L86 427L231 506L231 0L1144 0L1144 251Z" />
<glyph glyph-name="lslash" unicode="&#x0142;" horiz-adv-x="1266" d="M791 218L791 763L1104 933L1104 1169L791 998L791 1523L185 1523L185 1305L517 1305L517 848L174 660L174 427L517 614L517 218L167 218L167 0L1120 0L1120 218Z" />
<glyph glyph-name="Nacute" unicode="&#x0143;" horiz-adv-x="1266" d="M373 0L373 965L390 965L887 0L1139 0L1139 1443L893 1443L893 484L876 484L380 1443L127 1443L127 0ZM491 1602L751 1602L1062 1920L768 1920Z" />
<glyph glyph-name="nacute" unicode="&#x0144;" horiz-adv-x="1266" d="M745 1296L1025 1649L724 1649L483 1296ZM142 0L415 0L415 637C415 790 506 887 646 887C785 887 850 810 850 648L850 0L1124 0L1124 713C1124 982 996 1126 756 1126C597 1126 478 1051 424 918L407 918L407 1103L142 1103Z" />
<glyph glyph-name="Ncommaaccent" unicode="&#x0145;" horiz-adv-x="1266" d="M373 0L373 965L390 965L887 0L1139 0L1139 1443L893 1443L893 484L876 484L380 1443L127 1443L127 0ZM609 -504L774 -150L499 -150L367 -504Z" />
<glyph glyph-name="ncommaaccent" unicode="&#x0146;" horiz-adv-x="1266" d="M142 0L415 0L415 637C415 790 506 887 646 887C785 887 850 810 850 648L850 0L1124 0L1124 713C1124 982 996 1126 756 1126C597 1126 478 1051 424 918L407 918L407 1103L142 1103ZM610 -494L775 -140L500 -140L369 -494Z" />
<glyph glyph-name="Ncaron" unicode="&#x0147;" horiz-adv-x="1266" d="M1040 1929L793 1929L640 1735L623 1735L470 1929L223 1929L503 1594L760 1594ZM373 0L373 965L390 965L887 0L1139 0L1139 1443L893 1443L893 484L876 484L380 1443L127 1443L127 0Z" />
<glyph glyph-name="ncaron" unicode="&#x0148;" horiz-adv-x="1266" d="M776 1296L1043 1652L784 1652L641 1444L623 1444L480 1652L221 1652L488 1296ZM142 0L415 0L415 637C415 790 506 887 646 887C785 887 850 810 850 648L850 0L1124 0L1124 713C1124 982 996 1126 756 1126C597 1126 478 1051 424 918L407 918L407 1103L142 1103Z" />
<glyph glyph-name="Omacron" unicode="&#x014c;" horiz-adv-x="1266" d="M1188 611L1188 832C1188 1233 979 1472 633 1472C287 1472 78 1233 78 832L78 611C78 210 287 -29 633 -29C979 -29 1188 210 1188 611ZM633 223C459 223 367 354 367 614L367 829C367 1089 459 1220 633 1220C807 1220 899 1089 899 829L899 614C899 354 807 223 633 223ZM992 1656L992 1841L274 1841L274 1656Z" />
<glyph glyph-name="omacron" unicode="&#x014d;" horiz-adv-x="1266" d="M633 -24C944 -24 1140 165 1140 466L1140 636C1140 937 944 1126 633 1126C322 1126 126 937 126 636L126 466C126 165 322 -24 633 -24ZM633 902C780 902 871 796 871 625L871 477C871 307 780 200 633 200C486 200 395 307 395 477L395 625C395 796 486 902 633 902ZM991 1356L991 1540L273 1540L273 1356Z" />
<glyph glyph-name="Obreve" unicode="&#x014e;" horiz-adv-x="1266" d="M1188 611L1188 832C1188 1233 979 1472 633 1472C287 1472 78 1233 78 832L78 611C78 210 287 -29 633 -29C979 -29 1188 210 1188 611ZM633 223C459 223 367 354 367 614L367 829C367 1089 459 1220 633 1220C807 1220 899 1089 899 829L899 614C899 354 807 223 633 223ZM247 1927C247 1729 398 1591 633 1591C868 1591 1019 1729 1019 1927L826 1927C824 1823 747 1755 633 1755C519 1755 442 1823 440 1927Z" />
<glyph glyph-name="obreve" unicode="&#x014f;" horiz-adv-x="1266" d="M633 -24C944 -24 1140 165 1140 466L1140 636C1140 937 944 1126 633 1126C322 1126 126 937 126 636L126 466C126 165 322 -24 633 -24ZM633 902C780 902 871 796 871 625L871 477C871 307 780 200 633 200C486 200 395 307 395 477L395 625C395 796 486 902 633 902ZM633 1440C517 1440 448 1511 447 1617L242 1617C242 1406 395 1262 633 1262C871 1262 1024 1406 1024 1617L820 1617C818 1511 749 1440 633 1440Z" />
<glyph glyph-name="Ohungarumlaut" unicode="&#x0150;" horiz-adv-x="1266" d="M1188 611L1188 832C1188 1233 979 1472 633 1472C287 1472 78 1233 78 832L78 611C78 210 287 -29 633 -29C979 -29 1188 210 1188 611ZM633 223C459 223 367 354 367 614L367 829C367 1089 459 1220 633 1220C807 1220 899 1089 899 829L899 614C899 354 807 223 633 223ZM694 1602L921 1602L1197 1920L947 1920ZM276 1602L503 1602L779 1920L528 1920Z" />
<glyph glyph-name="ohungarumlaut" unicode="&#x0151;" horiz-adv-x="1266" d="M633 -24C944 -24 1140 165 1140 466L1140 636C1140 937 944 1126 633 1126C322 1126 126 937 126 636L126 466C126 165 322 -24 633 -24ZM633 902C780 902 871 796 871 625L871 477C871 307 780 200 633 200C486 200 395 307 395 477L395 625C395 796 486 902 633 902ZM736 1296L957 1296L1182 1650L933 1650ZM311 1296L532 1296L756 1650L508 1650Z" />
<glyph glyph-name="OE" unicode="&#x0152;" horiz-adv-x="1266" d="M301 801C301 1062 352 1168 480 1168C613 1168 666 1062 666 792L666 651C666 381 613 275 480 275C352 275 301 381 301 642ZM676 205L691 205L691 0L1262 0L1262 263L913 263L913 604L1226 604L1226 851L913 851L913 1179L1262 1179L1262 1443L691 1443L691 1231L676 1231C635 1401 550 1477 390 1477C148 1477 37 1277 37 832L37 611C37 167 148 -34 390 -34C553 -34 637 39 676 205Z" />
<glyph glyph-name="oe" unicode="&#x0153;" horiz-adv-x="1266" d="M1242 331L1044 331C1022 246 977 203 913 203C823 203 776 288 776 448L776 451L1243 451L1243 584C1243 925 1127 1120 920 1120C814 1120 712 1058 666 966C613 1066 524 1120 407 1120C185 1120 66 957 66 650L66 446C66 145 186 -20 403 -20C513 -20 604 35 660 133C715 33 801 -20 912 -20C1080 -20 1209 117 1242 331ZM777 677C775 812 824 896 907 896C986 896 1025 822 1026 677ZM415 898C505 898 551 818 551 653L551 447C551 282 505 203 415 203C326 203 283 282 283 447L283 653C283 817 326 898 415 898Z" />
<glyph glyph-name="Racute" unicode="&#x0154;" horiz-adv-x="1266" d="M426 1211L630 1211C790 1211 884 1125 884 982C884 836 788 749 627 749L426 749ZM632 531L886 0L1206 0L917 578C1074 640 1173 796 1173 983C1173 1269 981 1443 667 1443L143 1443L143 0L426 0L426 531ZM431 1602L691 1602L1003 1920L708 1920Z" />
<glyph glyph-name="racute" unicode="&#x0155;" horiz-adv-x="1266" d="M1128 1649L827 1649L586 1296L848 1296ZM614 820L614 1103L120 1103L120 901L350 901L350 201L140 201L140 0L932 0L932 201L612 201L612 489C612 726 739 844 999 844C1061 844 1133 831 1183 812L1183 1109C1144 1124 1088 1132 1026 1132C818 1132 705 1039 657 820Z" />
<glyph glyph-name="Rcommaaccent" unicode="&#x0156;" horiz-adv-x="1266" d="M426 1211L630 1211C790 1211 884 1125 884 982C884 836 788 749 627 749L426 749ZM632 531L886 0L1206 0L917 578C1074 640 1173 796 1173 983C1173 1269 981 1443 667 1443L143 1443L143 0L426 0L426 531ZM660 -503L824 -149L550 -149L418 -503Z" />
<glyph glyph-name="rcommaaccent" unicode="&#x0157;" horiz-adv-x="1266" d="M243 -504L484 -504L649 -150L374 -150ZM614 820L614 1103L120 1103L120 901L350 901L350 201L140 201L140 0L932 0L932 201L612 201L612 489C612 726 739 844 999 844C1061 844 1133 831 1183 812L1183 1109C1144 1124 1088 1132 1026 1132C818 1132 705 1039 657 820Z" />
<glyph glyph-name="Rcaron" unicode="&#x0158;" horiz-adv-x="1266" d="M980 1929L733 1929L580 1735L563 1735L410 1929L163 1929L444 1594L700 1594ZM632 531L886 0L1206 0L917 578C1074 640 1173 796 1173 983C1173 1269 981 1443 667 1443L143 1443L143 0L426 0L426 531ZM426 1211L630 1211C790 1211 884 1125 884 982C884 836 788 749 627 749L426 749Z" />
<glyph glyph-name="rcaron" unicode="&#x0159;" horiz-adv-x="1266" d="M794 1296L1061 1652L802 1652L659 1444L641 1444L498 1652L239 1652L506 1296ZM614 820L614 1103L120 1103L120 901L350 901L350 201L140 201L140 0L932 0L932 201L612 201L612 489C612 726 739 844 999 844C1061 844 1133 831 1183 812L1183 1109C1144 1124 1088 1132 1026 1132C818 1132 705 1039 657 820Z" />
<glyph glyph-name="Sacute" unicode="&#x015a;" horiz-adv-x="1266" d="M95 404C105 134 310 -29 637 -29C974 -29 1178 143 1178 428C1178 649 1056 774 777 836L629 870C473 904 409 960 409 1062C409 1170 498 1237 641 1237C782 1237 873 1164 884 1045L1152 1045C1143 1303 940 1472 638 1472C326 1472 127 1301 127 1032C127 818 255 680 516 621L666 586C833 549 897 497 897 399C897 282 798 207 642 207C478 207 376 279 363 404ZM499 1602L758 1602L1070 1920L775 1920Z" />
<glyph glyph-name="sacute" unicode="&#x015b;" horiz-adv-x="1266" d="M745 1296L1025 1649L724 1649L483 1296ZM664 423C780 398 822 368 822 306C822 234 750 187 638 187C524 187 450 229 433 305L163 305C178 98 352 -23 634 -23C921 -23 1103 118 1103 341C1103 509 1004 604 781 650L610 685C503 707 457 743 457 803C457 873 526 920 630 920C732 920 804 875 817 802L1075 802C1062 1009 899 1129 632 1129C359 1129 187 995 187 781C187 611 292 503 499 458Z" />
<glyph glyph-name="Scircumflex" unicode="&#x015c;" horiz-adv-x="1266" d="M95 404C105 134 310 -29 637 -29C974 -29 1178 143 1178 428C1178 649 1056 774 777 836L629 870C473 904 409 960 409 1062C409 1170 498 1237 641 1237C782 1237 873 1164 884 1045L1152 1045C1143 1303 940 1472 638 1472C326 1472 127 1301 127 1032C127 818 255 680 516 621L666 586C833 549 897 497 897 399C897 282 798 207 642 207C478 207 376 279 363 404ZM767 1937L511 1937L231 1602L478 1602L631 1796L648 1796L800 1602L1047 1602Z" />
<glyph glyph-name="scircumflex" unicode="&#x015d;" horiz-adv-x="1266" d="M187 781C187 611 292 503 499 458L664 423C780 398 822 368 822 306C822 234 750 187 638 187C524 187 450 229 433 305L163 305C178 98 352 -23 634 -23C921 -23 1103 118 1103 341C1103 509 1004 604 781 650L610 685C503 707 457 743 457 803C457 873 526 920 630 920C732 920 804 875 817 802L1075 802C1062 1009 899 1129 632 1129C359 1129 187 995 187 781ZM489 1629L221 1273L480 1273L623 1481L641 1481L784 1273L1044 1273L776 1629Z" />
<glyph glyph-name="Scedilla" unicode="&#x015e;" horiz-adv-x="1266" d="M629 870C473 904 409 960 409 1062C409 1170 498 1237 641 1237C782 1237 873 1164 884 1045L1152 1045C1143 1303 940 1472 638 1472C326 1472 127 1301 127 1032C127 818 255 680 516 621L666 586C833 549 897 497 897 399C897 282 798 207 642 207C478 207 376 279 363 404L95 404C104 159 274 1 551 -25L509 -120L509 -238L568 -238C656 -238 693 -254 693 -294C693 -332 656 -351 585 -351C546 -351 492 -345 472 -337L472 -475C511 -484 557 -491 611 -491C776 -491 872 -416 872 -286C872 -177 807 -114 687 -107L722 -25C1008 2 1178 168 1178 428C1178 649 1056 774 777 836Z" />
<glyph glyph-name="scedilla" unicode="&#x015f;" horiz-adv-x="1266" d="M610 685C503 707 457 743 457 803C457 873 526 920 630 920C732 920 804 875 817 802L1075 802C1062 1009 899 1129 632 1129C359 1129 187 995 187 781C187 611 292 503 499 458L664 423C780 398 822 368 822 306C822 234 750 187 638 187C524 187 450 229 433 305L163 305C176 125 309 10 529 -17L483 -120L483 -238L542 -238C630 -238 667 -254 667 -294C667 -332 630 -351 559 -351C519 -351 466 -345 446 -337L446 -475C484 -484 531 -491 584 -491C750 -491 846 -416 846 -286C846 -177 781 -114 660 -107L698 -21C948 -1 1103 135 1103 341C1103 509 1004 604 781 650Z" />
<glyph glyph-name="Scaron" unicode="&#x0160;" horiz-adv-x="1266" d="M1047 1929L800 1929L648 1735L631 1735L478 1929L231 1929L511 1594L767 1594ZM95 404C105 134 310 -29 637 -29C974 -29 1178 143 1178 428C1178 649 1056 774 777 836L629 870C473 904 409 960 409 1062C409 1170 498 1237 641 1237C782 1237 873 1164 884 1045L1152 1045C1143 1303 940 1472 638 1472C326 1472 127 1301 127 1032C127 818 255 680 516 621L666 586C833 549 897 497 897 399C897 282 798 207 642 207C478 207 376 279 363 404Z" />
<glyph glyph-name="scaron" unicode="&#x0161;" horiz-adv-x="1266" d="M776 1296L1043 1652L784 1652L641 1444L623 1444L480 1652L221 1652L488 1296ZM664 423C780 398 822 368 822 306C822 234 750 187 638 187C524 187 450 229 433 305L163 305C178 98 352 -23 634 -23C921 -23 1103 118 1103 341C1103 509 1004 604 781 650L610 685C503 707 457 743 457 803C457 873 526 920 630 920C732 920 804 875 817 802L1075 802C1062 1009 899 1129 632 1129C359 1129 187 995 187 781C187 611 292 503 499 458Z" />
<glyph glyph-name="Tcedilla" unicode="&#x0162;" horiz-adv-x="1266" d="M775 0L775 1198L1188 1198L1188 1443L78 1443L78 1198L491 1198L491 0L556 0L503 -120L503 -238L562 -238C650 -238 687 -254 687 -294C687 -332 650 -351 579 -351C539 -351 486 -345 466 -337L466 -475C505 -484 551 -491 605 -491C770 -491 866 -416 866 -286C866 -177 801 -114 680 -107L727 0Z" />
<glyph glyph-name="tcedilla" unicode="&#x0163;" horiz-adv-x="1266" d="M680 -490C844 -490 942 -416 942 -289C942 -182 872 -119 746 -113L790 -1C798 -1 848 -2 857 -2C879 -2 1060 0 1071 2L1071 218C1059 217 868 216 842 216C737 216 678 263 678 346L678 873L1084 873L1084 1092L673 1092L673 1418L405 1418L405 1092L118 1092L118 873L405 873L405 349C405 152 473 53 632 16L572 -127L572 -238L630 -238C723 -238 762 -255 762 -296C762 -336 724 -356 651 -356C610 -356 555 -350 535 -342L535 -473C574 -484 625 -490 680 -490Z" />
<glyph glyph-name="Tcaron" unicode="&#x0164;" horiz-adv-x="1266" d="M1041 1929L794 1929L642 1735L624 1735L472 1929L225 1929L505 1594L761 1594ZM775 0L775 1198L1188 1198L1188 1443L78 1443L78 1198L491 1198L491 0Z" />
<glyph glyph-name="tcaron" unicode="&#x0165;" horiz-adv-x="1266" d="M1021 1230L1066 1722L831 1722L831 1230ZM405 1418L405 1092L118 1092L118 873L405 873L405 349C405 93 520 -2 820 -2C842 -2 1060 0 1071 2L1071 218C1059 217 868 216 842 216C737 216 678 263 678 346L678 873L1084 873L1084 1092L673 1092L673 1418Z" />
<glyph glyph-name="Tbar" unicode="&#x0166;" horiz-adv-x="1266" d="M1188 1198L1188 1443L78 1443L78 1198L491 1198L491 799L208 799L208 592L491 592L491 0L775 0L775 592L1058 592L1058 799L775 799L775 1198Z" />
<glyph glyph-name="tbar" unicode="&#x0167;" horiz-adv-x="1266" d="M1084 873L1084 1092L673 1092L673 1418L405 1418L405 1092L118 1092L118 873L405 873L405 666L118 666L118 514L405 514L405 349C405 93 520 -2 820 -2C842 -2 1060 0 1071 2L1071 218C1059 217 868 216 842 216C737 216 678 263 678 346L678 514L1084 514L1084 666L678 666L678 873Z" />
<glyph glyph-name="Utilde" unicode="&#x0168;" horiz-adv-x="1266" d="M633 227C471 227 381 334 381 528L381 1443L96 1443L96 511C96 171 295 -29 633 -29C971 -29 1170 171 1170 511L1170 1443L885 1443L885 528C885 334 795 227 633 227ZM789 1593C928 1593 1027 1704 1027 1891L856 1891C852 1802 818 1765 766 1765C678 1765 639 1903 475 1903C336 1903 237 1793 237 1602L409 1602C412 1692 445 1731 498 1731C594 1731 630 1593 789 1593Z" />
<glyph glyph-name="utilde" unicode="&#x0169;" horiz-adv-x="1266" d="M1124 1103L851 1103L851 465C851 313 760 216 620 216C481 216 416 293 416 455L416 1103L142 1103L142 389C142 120 270 -24 510 -24C669 -24 788 52 842 185L859 185L859 0L1124 0ZM500 1414C580 1414 628 1270 775 1270C929 1270 1031 1399 1031 1591L846 1591C846 1503 817 1455 765 1455C685 1455 638 1598 490 1598C337 1598 235 1468 235 1274L419 1274C420 1363 449 1414 500 1414Z" />
<glyph glyph-name="Umacron" unicode="&#x016a;" horiz-adv-x="1266" d="M633 227C471 227 381 334 381 528L381 1443L96 1443L96 511C96 171 295 -29 633 -29C971 -29 1170 171 1170 511L1170 1443L885 1443L885 528C885 334 795 227 633 227ZM991 1656L991 1841L272 1841L272 1656Z" />
<glyph glyph-name="umacron" unicode="&#x016b;" horiz-adv-x="1266" d="M1124 1103L851 1103L851 465C851 313 760 216 620 216C481 216 416 293 416 455L416 1103L142 1103L142 389C142 120 270 -24 510 -24C669 -24 788 52 842 185L859 185L859 0L1124 0ZM991 1356L991 1540L273 1540L273 1356Z" />
<glyph glyph-name="Ubreve" unicode="&#x016c;" horiz-adv-x="1266" d="M633 227C471 227 381 334 381 528L381 1443L96 1443L96 511C96 171 295 -29 633 -29C971 -29 1170 171 1170 511L1170 1443L885 1443L885 528C885 334 795 227 633 227ZM245 1927C245 1729 397 1591 632 1591C867 1591 1018 1729 1018 1927L825 1927C823 1823 746 1755 632 1755C518 1755 441 1823 439 1927Z" />
<glyph glyph-name="ubreve" unicode="&#x016d;" horiz-adv-x="1266" d="M1124 1103L851 1103L851 465C851 313 760 216 620 216C481 216 416 293 416 455L416 1103L142 1103L142 389C142 120 270 -24 510 -24C669 -24 788 52 842 185L859 185L859 0L1124 0ZM633 1440C517 1440 448 1511 447 1617L242 1617C242 1406 395 1262 633 1262C871 1262 1024 1406 1024 1617L820 1617C818 1511 749 1440 633 1440Z" />
<glyph glyph-name="Uring" unicode="&#x016e;" horiz-adv-x="1266" d="M633 227C471 227 381 334 381 528L381 1443L96 1443L96 511C96 171 295 -29 633 -29C971 -29 1170 171 1170 511L1170 1443L885 1443L885 528C885 334 795 227 633 227ZM633 1549C748 1549 833 1634 833 1748C833 1861 748 1944 633 1944C516 1944 430 1861 430 1748C430 1634 517 1549 633 1549ZM632 1653C578 1653 537 1693 537 1747C537 1801 578 1840 632 1840C686 1840 727 1801 727 1747C727 1693 687 1653 632 1653Z" />
<glyph glyph-name="uring" unicode="&#x016f;" horiz-adv-x="1266" d="M1124 1103L851 1103L851 465C851 313 760 216 620 216C481 216 416 293 416 455L416 1103L142 1103L142 389C142 120 270 -24 510 -24C669 -24 788 52 842 185L859 185L859 0L1124 0ZM632 1383C575 1383 530 1428 530 1485C530 1541 575 1587 632 1587C690 1587 735 1541 735 1485C735 1428 690 1383 632 1383ZM632 1243C763 1243 871 1352 871 1485C871 1618 763 1727 632 1727C501 1727 394 1618 394 1485C394 1352 501 1243 632 1243Z" />
<glyph glyph-name="Uhungarumlaut" unicode="&#x0170;" horiz-adv-x="1266" d="M633 227C471 227 381 334 381 528L381 1443L96 1443L96 511C96 171 295 -29 633 -29C971 -29 1170 171 1170 511L1170 1443L885 1443L885 528C885 334 795 227 633 227ZM693 1602L920 1602L1196 1920L946 1920ZM275 1602L502 1602L777 1920L527 1920Z" />
<glyph glyph-name="uhungarumlaut" unicode="&#x0171;" horiz-adv-x="1266" d="M1124 1103L851 1103L851 465C851 313 760 216 620 216C481 216 416 293 416 455L416 1103L142 1103L142 389C142 120 270 -24 510 -24C669 -24 788 52 842 185L859 185L859 0L1124 0ZM736 1296L957 1296L1182 1650L933 1650ZM311 1296L532 1296L756 1650L508 1650Z" />
<glyph glyph-name="Uogonek" unicode="&#x0172;" horiz-adv-x="1266" d="M867 -454C920 -454 967 -447 1001 -433L1001 -276C979 -281 958 -284 931 -284C856 -284 809 -240 809 -166C809 -96 854 -34 960 43C1104 150 1170 294 1170 511L1170 1443L885 1443L885 528C885 334 795 227 633 227C471 227 381 334 381 528L381 1443L96 1443L96 511C96 177 290 -29 604 -29C646 -29 701 -20 733 -8L733 -25C640 -91 599 -154 599 -240C599 -366 710 -454 867 -454Z" />
<glyph glyph-name="uogonek" unicode="&#x0173;" horiz-adv-x="1266" d="M859 0L922 0C804 -63 744 -146 744 -245C744 -373 841 -461 983 -461C1036 -461 1090 -452 1124 -437L1124 -272C1105 -280 1086 -283 1057 -283C987 -283 942 -244 942 -184C942 -111 1004 -48 1124 0L1124 1103L851 1103L851 465C851 313 760 216 620 216C481 216 416 293 416 455L416 1103L142 1103L142 389C142 120 270 -24 510 -24C669 -24 788 52 842 185L859 185Z" />
<glyph glyph-name="Wcircumflex" unicode="&#x0174;" horiz-adv-x="1266" d="M641 850L792 0L1042 0L1266 1443L1008 1443L950 945L893 375L877 375L743 1113L523 1113L389 375L373 375L316 945L258 1443L0 1443L224 0L474 0L625 850ZM762 1937L506 1937L226 1602L472 1602L625 1796L642 1796L795 1602L1042 1602Z" />
<glyph glyph-name="wcircumflex" unicode="&#x0175;" horiz-adv-x="1266" d="M1246 1103L984 1103L900 327L865 327L746 1099L520 1099L401 327L366 327L281 1103L20 1103L241 0L479 0L628 740L638 740L787 0L1025 0ZM489 1629L221 1273L480 1273L623 1481L641 1481L784 1273L1044 1273L776 1629Z" />
<glyph glyph-name="Ycircumflex" unicode="&#x0176;" horiz-adv-x="1266" d="M775 0L775 533L1238 1443L931 1443L642 828L624 828L335 1443L28 1443L491 533L491 0ZM761 1937L505 1937L225 1602L472 1602L624 1796L642 1796L794 1602L1041 1602Z" />
<glyph glyph-name="ycircumflex" unicode="&#x0177;" horiz-adv-x="1266" d="M307 -398C577 -398 706 -298 801 -14L1181 1103L891 1103L647 252L630 252L386 1103L84 1103L472 -8L461 -50C435 -137 374 -175 263 -175C248 -175 209 -174 202 -172L202 -396C210 -397 260 -398 307 -398ZM488 1629L221 1273L480 1273L623 1481L641 1481L784 1273L1043 1273L776 1629Z" />
<glyph glyph-name="Ydieresis" unicode="&#x0178;" horiz-adv-x="1266" d="M775 0L775 533L1238 1443L931 1443L642 828L624 828L335 1443L28 1443L491 533L491 0ZM402 1619C482 1619 549 1688 549 1771C549 1854 482 1923 402 1923C322 1923 255 1854 255 1771C255 1688 322 1619 402 1619ZM864 1619C944 1619 1011 1688 1011 1771C1011 1854 944 1923 864 1923C784 1923 717 1854 717 1771C717 1688 784 1619 864 1619Z" />
<glyph glyph-name="Zacute" unicode="&#x0179;" horiz-adv-x="1266" d="M133 0L1157 0L1157 245L483 245L483 262L1139 1249L1139 1443L150 1443L150 1198L790 1198L790 1181L133 194ZM504 1602L764 1602L1076 1920L781 1920Z" />
<glyph glyph-name="zacute" unicode="&#x017a;" horiz-adv-x="1266" d="M745 1296L1025 1649L724 1649L483 1296ZM176 0L1090 0L1090 221L536 221L536 238L1078 919L1078 1103L185 1103L185 882L750 882L750 865L176 163Z" />
<glyph glyph-name="Zdotaccent" unicode="&#x017b;" horiz-adv-x="1266" d="M133 0L1157 0L1157 245L483 245L483 262L1139 1249L1139 1443L150 1443L150 1198L790 1198L790 1181L133 194ZM645 1597C731 1597 803 1670 803 1760C803 1849 731 1922 645 1922C558 1922 486 1849 486 1760C486 1670 558 1597 645 1597Z" />
<glyph glyph-name="zdotaccent" unicode="&#x017c;" horiz-adv-x="1266" d="M176 0L1090 0L1090 221L536 221L536 238L1078 919L1078 1103L185 1103L185 882L750 882L750 865L176 163ZM633 1285C720 1285 791 1358 791 1448C791 1537 720 1610 633 1610C546 1610 475 1537 475 1448C475 1358 546 1285 633 1285Z" />
<glyph glyph-name="Zcaron" unicode="&#x017d;" horiz-adv-x="1266" d="M1053 1929L806 1929L653 1735L636 1735L483 1929L237 1929L517 1594L773 1594ZM133 0L1157 0L1157 245L483 245L483 262L1139 1249L1139 1443L150 1443L150 1198L790 1198L790 1181L133 194Z" />
</font>
</defs>
</svg>
