<?xml version="1.0" standalone="no"?><!DOCTYPE svg PUBLIC "-//W3C//DTD SVG 1.1//EN" "http://www.w3.org/Graphics/SVG/1.1/DTD/svg11.dtd" ><svg xmlns="http://www.w3.org/2000/svg"><metadata></metadata><defs>
<font id="SFMono-Heavy" >
<font-face font-family="SF Mono" font-stretch="normal" units-per-em="2048" weight="900" panose-1="2,11,0,9,0,0,2,0,0,0" ascent="1950" descent="-494" x-height="1113" underline-thickness="100" underline-position="-150" unicode-range="U+00000032-00064258" bbox="-240,-840,1506,2348" />
<missing-glyph horiz-adv-x="1266" d="" />
<glyph glyph-name="space" unicode="&#x20;" horiz-adv-x="1266" d="" />
<glyph glyph-name="exclam" unicode="&#x21;" horiz-adv-x="1266" d="M430 1443L461 449L803 449L837 1443ZM633 -38C753 -38 846 46 846 155C846 264 753 348 633 348C513 348 420 264 420 155C420 46 513 -38 633 -38Z" />
<glyph glyph-name="quotedbl" unicode="&#x22;" horiz-adv-x="1266" d="M532 779L532 1443L196 1443L196 779ZM1070 779L1070 1443L734 1443L734 779Z" />
<glyph glyph-name="numbersign" unicode="&#x23;" horiz-adv-x="1266" d="M1216 826L1265 1102L1067 1102L1131 1445L852 1445L786 1102L617 1102L683 1445L405 1445L339 1102L147 1102L95 826L286 826L250 640L56 640L6 360L198 360L128 0L407 0L476 360L645 360L577 0L855 0L925 360L1125 360L1174 640L977 640L1014 826ZM547 856L764 856L714 607L499 607Z" />
<glyph glyph-name="dollar" unicode="&#x24;" horiz-adv-x="1266" d="M712 566C854 529 913 477 913 394C913 301 833 232 712 214ZM571 892C442 927 388 976 388 1055C388 1147 458 1212 571 1230ZM712 861L712 1228C819 1207 892 1139 904 1045L1188 1045C1180 1282 989 1451 712 1477L712 1584L571 1584L571 1478C275 1455 85 1283 85 1029C85 808 215 672 477 617L571 597L571 214C442 233 356 302 344 401L52 401C62 148 261 -17 571 -35L571 -141L712 -141L712 -34C1025 -9 1214 164 1214 432C1214 657 1089 781 800 842Z" />
<glyph glyph-name="percent" unicode="&#x25;" horiz-adv-x="1266" d="M314 743C505 743 628 886 628 1108L628 1131C628 1338 500 1482 314 1482C128 1482 0 1338 0 1131L0 1108C0 886 123 743 314 743ZM314 941C260 941 228 995 228 1088L228 1138C228 1231 260 1285 314 1285C368 1285 400 1231 400 1138L400 1088C400 995 368 941 314 941ZM952 -41C1143 -41 1266 102 1266 324L1266 347C1266 554 1138 698 952 698C766 698 638 554 638 347L638 324C638 102 761 -41 952 -41ZM952 157C898 157 866 211 866 304L866 354C866 447 898 501 952 501C1006 501 1038 447 1038 354L1038 304C1038 211 1006 157 952 157ZM1266 1443L0 159L0 0L1266 1284Z" />
<glyph glyph-name="ampersand" unicode="&#x26;" horiz-adv-x="1266" d="M913 0L1270 0L1015 303C1085 383 1135 540 1135 680L1135 747L867 747L867 708C867 632 857 571 841 549L653 768C804 866 889 996 889 1129C889 1331 737 1472 519 1472C290 1472 130 1331 130 1129C130 1014 182 905 294 787L231 749C78 657 5 534 5 371C5 140 192 -29 449 -29C592 -29 732 18 829 97ZM405 577L429 594L679 297C630 252 569 229 497 229C389 229 311 303 311 407C311 474 347 540 405 577ZM509 1228C571 1228 617 1182 617 1118C617 1054 574 985 506 934C439 1000 401 1067 401 1118C401 1182 447 1228 509 1228Z" />
<glyph glyph-name="quotesingle" unicode="&#x27;" horiz-adv-x="1266" d="M801 779L801 1443L466 1443L466 779Z" />
<glyph glyph-name="parenleft" unicode="&#x28;" horiz-adv-x="1266" d="M299 721C299 331 420 -11 642 -250L1009 -250C785 99 699 368 699 721C699 1074 785 1345 1009 1693L642 1693C420 1455 299 1112 299 721Z" />
<glyph glyph-name="parenright" unicode="&#x29;" horiz-adv-x="1266" d="M257 1693C481 1345 567 1074 567 721C567 368 481 99 257 -250L624 -250C846 -11 967 331 967 721C967 1112 846 1455 624 1693Z" />
<glyph glyph-name="asterisk" unicode="&#x2a;" horiz-adv-x="1266" d="M1219 823L1082 1060L750 844L770 1241L496 1241L516 844L184 1061L47 823L400 643L47 463L184 226L517 441L496 45L770 45L749 442L1082 225L1219 463L865 643Z" />
<glyph glyph-name="plus" unicode="&#x2b;" horiz-adv-x="1266" d="M800 492L1184 492L1184 794L800 794L800 1190L465 1190L465 794L81 794L81 492L465 492L465 96L800 96Z" />
<glyph glyph-name="comma" unicode="&#x2c;" horiz-adv-x="1266" d="M654 -335L850 442L462 442L326 -335Z" />
<glyph glyph-name="hyphen" unicode="&#x2d;" horiz-adv-x="1266" d="M1163 492L1163 794L103 794L103 492Z" />
<glyph glyph-name="period" unicode="&#x2e;" horiz-adv-x="1266" d="M633 -27C771 -27 883 86 883 223C883 360 771 473 633 473C495 473 383 360 383 223C383 86 495 -27 633 -27Z" />
<glyph glyph-name="slash" unicode="&#x2f;" horiz-adv-x="1266" d="M476 -270L1147 1713L780 1713L119 -270Z" />
<glyph glyph-name="zero" unicode="&#x30;" horiz-adv-x="1266" d="M862 682C855 405 773 253 633 253C539 253 472 321 436 448ZM404 759C411 1037 492 1191 633 1191C727 1191 794 1123 831 995ZM633 1473C261 1473 48 1200 48 722C48 244 261 -29 633 -29C1005 -29 1218 244 1218 722C1218 1200 1005 1473 633 1473Z" />
<glyph glyph-name="one" unicode="&#x31;" horiz-adv-x="1266" d="M863 285L863 1443L506 1443L146 1193L146 877L487 1112L506 1112L506 285L146 285L146 0L1205 0L1205 285Z" />
<glyph glyph-name="two" unicode="&#x32;" horiz-adv-x="1266" d="M71 991L71 985L407 985L407 992C407 1111 493 1195 617 1195C735 1195 814 1124 814 1018C814 931 757 856 548 664L92 245L92 0L1189 0L1189 286L581 286L581 305L819 514C1073 737 1169 882 1169 1044C1169 1300 952 1472 630 1472C296 1472 71 1279 71 991Z" />
<glyph glyph-name="three" unicode="&#x33;" horiz-adv-x="1266" d="M457 611L635 611C774 611 865 542 865 437C865 332 774 263 635 263C499 263 413 328 408 433L72 433C85 150 307 -29 645 -29C995 -29 1228 146 1228 409C1228 596 1110 721 912 742L912 761C1073 790 1175 916 1175 1083C1175 1317 964 1472 645 1472C311 1472 104 1299 99 1015L418 1015C422 1126 507 1198 635 1198C765 1198 844 1135 844 1031C844 927 765 864 635 864L457 864Z" />
<glyph glyph-name="four" unicode="&#x34;" horiz-adv-x="1266" d="M705 0L1051 0L1051 254L1221 254L1221 526L1043 526L1043 870L719 870L719 534L459 534L459 556L839 1443L470 1443L70 532L70 254L705 254Z" />
<glyph glyph-name="five" unicode="&#x35;" horiz-adv-x="1266" d="M628 -29C969 -29 1195 181 1195 498C1195 777 1011 970 745 970C603 970 489 916 435 823L415 823L440 1157L1102 1157L1102 1443L149 1443L85 598L441 598C488 676 547 711 631 711C762 711 851 622 851 489C851 356 762 267 631 267C524 267 444 329 427 425L72 425C75 156 301 -29 628 -29Z" />
<glyph glyph-name="six" unicode="&#x36;" horiz-adv-x="1266" d="M1241 495C1241 763 1054 962 803 962C715 962 639 935 578 881L554 881C568 910 589 941 633 998L972 1443L561 1443C502 1376 344 1175 272 1076C123 870 59 703 59 525C59 192 298 -29 657 -29C987 -29 1241 199 1241 495ZM648 262C517 262 421 355 421 484C421 613 517 706 648 706C779 706 875 613 875 484C875 355 779 262 648 262Z" />
<glyph glyph-name="seven" unicode="&#x37;" horiz-adv-x="1266" d="M212 0L596 0L1179 1160L1179 1444L105 1444L105 1161L811 1161L811 1142Z" />
<glyph glyph-name="eight" unicode="&#x38;" horiz-adv-x="1266" d="M632 870C516 870 437 942 437 1046C437 1150 516 1222 632 1222C748 1222 827 1150 827 1046C827 942 748 870 632 870ZM632 229C494 229 401 308 401 425C401 542 494 621 632 621C770 621 863 542 863 425C863 308 770 229 632 229ZM632 -29C1002 -29 1247 138 1247 390C1247 566 1120 708 919 754L919 773C1083 808 1189 929 1189 1079C1189 1309 958 1472 632 1472C306 1472 75 1309 75 1079C75 929 181 808 345 773L345 754C144 708 17 566 17 390C17 138 262 -29 632 -29Z" />
<glyph glyph-name="nine" unicode="&#x39;" horiz-adv-x="1266" d="M49 949C49 677 232 482 487 482C576 482 651 509 712 563L736 563C722 534 701 503 657 446L318 1L729 1C787 66 944 267 1018 368C1167 574 1231 741 1231 919C1231 1252 992 1473 633 1473C303 1473 49 1245 49 949ZM642 1182C773 1182 869 1089 869 960C869 831 773 738 642 738C511 738 415 831 415 960C415 1089 511 1182 642 1182Z" />
<glyph glyph-name="colon" unicode="&#x3a;" horiz-adv-x="1266" d="M633 -27C771 -27 883 86 883 223C883 361 771 473 633 473C496 473 383 361 383 223C383 86 496 -27 633 -27ZM633 724C771 724 883 837 883 974C883 1112 771 1224 633 1224C496 1224 383 1112 383 974C383 837 496 724 633 724Z" />
<glyph glyph-name="semicolon" unicode="&#x3b;" horiz-adv-x="1266" d="M633 724C771 724 883 837 883 974C883 1112 771 1224 633 1224C496 1224 383 1112 383 974C383 837 496 724 633 724ZM654 -322L850 442L462 442L326 -322Z" />
<glyph glyph-name="less" unicode="&#x3c;" horiz-adv-x="1266" d="M1128 898L1128 1281L141 793L141 494L1128 6L1128 389L529 633L529 654Z" />
<glyph glyph-name="equal" unicode="&#x3d;" horiz-adv-x="1266" d="M1163 201L1163 540L103 540L103 201ZM1163 744L1163 1083L103 1083L103 744Z" />
<glyph glyph-name="greater" unicode="&#x3e;" horiz-adv-x="1266" d="M740 654L740 633L141 389L141 6L1128 494L1128 793L141 1281L141 898Z" />
<glyph glyph-name="question" unicode="&#x3f;" horiz-adv-x="1266" d="M126 1027L470 1027C472 1113 530 1171 613 1171C696 1171 753 1123 753 1053C753 971 723 935 584 851C453 773 414 687 425 500L428 449L759 449L759 516C759 603 795 648 930 728C1079 816 1143 917 1143 1062C1143 1311 945 1472 639 1472C320 1472 125 1303 126 1027ZM603 -38C723 -38 816 46 816 155C816 264 723 348 603 348C483 348 390 264 390 155C390 46 483 -38 603 -38Z" />
<glyph glyph-name="at" unicode="&#x40;" horiz-adv-x="1266" d="M694 -209C769 -209 866 -194 913 -176L913 -13C875 -28 793 -37 701 -37C388 -37 269 140 269 602L269 686C269 1141 371 1308 648 1308C914 1308 1019 1148 1019 743L1019 507C1019 440 990 412 920 412L803 412L803 862C803 952 748 1012 666 1012C584 1012 529 952 529 862L529 411C529 321 584 261 666 261L965 261C1115 261 1195 354 1195 527L1195 787C1195 1258 1020 1482 651 1482C259 1482 83 1232 83 675L83 582C83 34 270 -209 694 -209Z" />
<glyph glyph-name="A" unicode="&#x41;" horiz-adv-x="1266" d="M491 581L609 1118L628 1118L742 581ZM866 0L1266 0L857 1443L408 1443L0 0L364 0L433 317L799 317Z" />
<glyph glyph-name="B" unicode="&#x42;" horiz-adv-x="1266" d="M710 0C1018 0 1214 162 1214 416C1214 599 1069 747 879 757L879 776C1033 797 1148 929 1148 1083C1148 1308 976 1443 690 1443L110 1443L110 0ZM467 1184L584 1184C713 1184 780 1128 780 1020C780 925 705 866 584 866L467 866ZM467 264L467 622L584 622C750 622 831 565 831 448C831 318 758 264 584 264Z" />
<glyph glyph-name="C" unicode="&#x43;" horiz-adv-x="1266" d="M664 278C528 278 458 375 458 562L458 881C458 1067 527 1165 658 1165C776 1165 850 1064 850 903L1223 903C1223 1265 1020 1472 666 1472C295 1472 75 1252 75 881L75 562C75 191 295 -29 666 -29C1020 -29 1225 178 1225 534L852 534C852 376 780 278 664 278Z" />
<glyph glyph-name="D" unicode="&#x44;" horiz-adv-x="1266" d="M91 1443L91 0L599 0C1004 0 1214 251 1214 736C1214 1197 1000 1443 599 1443ZM458 1148L543 1148C744 1148 840 1012 840 729C840 427 750 295 543 295L458 295Z" />
<glyph glyph-name="E" unicode="&#x45;" horiz-adv-x="1266" d="M1128 295L541 295L541 590L1091 590L1091 860L541 860L541 1148L1128 1148L1128 1443L174 1443L174 0L1128 0Z" />
<glyph glyph-name="F" unicode="&#x46;" horiz-adv-x="1266" d="M553 0L553 538L1087 538L1087 819L553 819L553 1148L1144 1148L1144 1443L186 1443L186 0Z" />
<glyph glyph-name="G" unicode="&#x47;" horiz-adv-x="1266" d="M842 491C842 356 773 278 655 278C517 278 448 373 448 562L448 881C448 1069 516 1165 649 1165C758 1165 833 1082 840 952L1213 952C1205 1275 995 1472 661 1472C292 1472 75 1254 75 881L75 562C75 189 292 -29 661 -29C1000 -29 1215 172 1215 491L1215 787L622 787L622 535L842 535Z" />
<glyph glyph-name="H" unicode="&#x48;" horiz-adv-x="1266" d="M1175 0L1175 1443L817 1443L817 877L449 877L449 1443L91 1443L91 0L449 0L449 582L817 582L817 0Z" />
<glyph glyph-name="I" unicode="&#x49;" horiz-adv-x="1266" d="M1120 0L1120 295L816 295L816 1148L1120 1148L1120 1443L146 1443L146 1148L450 1148L450 295L146 295L146 0Z" />
<glyph glyph-name="J" unicode="&#x4a;" horiz-adv-x="1266" d="M593 -29C926 -29 1120 156 1120 475L1120 1443L218 1443L218 1148L753 1148L753 478C753 350 695 282 587 282C482 282 414 354 413 468L61 468C61 163 266 -29 593 -29Z" />
<glyph glyph-name="K" unicode="&#x4b;" horiz-adv-x="1266" d="M457 0L457 408L567 561L891 0L1308 0L822 806L1291 1443L919 1443L475 823L457 823L457 1443L114 1443L114 0Z" />
<glyph glyph-name="L" unicode="&#x4c;" horiz-adv-x="1266" d="M1161 303L568 303L568 1443L207 1443L207 0L1161 0Z" />
<glyph glyph-name="M" unicode="&#x4d;" horiz-adv-x="1266" d="M377 430L321 1001L348 1001L516 339L750 339L918 1001L945 1001L889 430L889 0L1189 0L1189 1443L818 1443L643 658L623 658L448 1443L77 1443L77 0L377 0Z" />
<glyph glyph-name="N" unicode="&#x4e;" horiz-adv-x="1266" d="M419 0L419 870L438 870L842 0L1158 0L1158 1443L847 1443L847 581L828 581L424 1443L108 1443L108 0Z" />
<glyph glyph-name="O" unicode="&#x4f;" horiz-adv-x="1266" d="M1208 615L1208 828C1208 1231 993 1472 633 1472C273 1472 58 1231 58 828L58 615C58 212 273 -29 633 -29C993 -29 1208 212 1208 615ZM633 275C494 275 431 383 431 619L431 824C431 1060 494 1168 633 1168C772 1168 835 1060 835 824L835 619C835 383 772 275 633 275Z" />
<glyph glyph-name="P" unicode="&#x50;" horiz-adv-x="1266" d="M111 1443L111 0L478 0L478 423L654 423C988 423 1196 618 1196 931C1196 1248 998 1443 676 1443ZM478 1164L583 1164C751 1164 825 1093 825 933C825 773 751 702 583 702L478 702Z" />
<glyph glyph-name="Q" unicode="&#x51;" horiz-adv-x="1266" d="M420 807C420 1054 487 1168 633 1168C779 1168 846 1054 846 807L846 613C846 555 842 505 835 461L517 461L633 252C487 252 420 366 420 613ZM1208 828C1208 1231 993 1472 633 1472C273 1472 58 1231 58 828L58 615C58 212 273 -29 633 -29C685 -29 734 -24 780 -14L857 -153L1189 -153L1037 122C1147 233 1208 401 1208 615Z" />
<glyph glyph-name="R" unicode="&#x52;" horiz-adv-x="1266" d="M480 1166L615 1166C749 1166 831 1090 831 968C831 843 748 764 616 764L480 764ZM589 505L832 0L1244 0L960 559C1111 625 1206 782 1206 967C1206 1265 1004 1443 667 1443L113 1443L113 0L480 0L480 505Z" />
<glyph glyph-name="S" unicode="&#x53;" horiz-adv-x="1266" d="M62 416C68 137 280 -29 630 -29C993 -29 1204 147 1204 449C1204 671 1079 798 801 856L636 891C505 918 453 964 453 1052C453 1137 524 1191 636 1191C754 1191 830 1128 836 1027L1177 1027C1172 1295 955 1472 632 1472C300 1472 91 1293 91 1010C91 793 224 650 480 595L651 558C796 527 845 489 845 408C845 312 766 253 638 253C494 253 412 310 403 416Z" />
<glyph glyph-name="T" unicode="&#x54;" horiz-adv-x="1266" d="M816 0L816 1148L1212 1148L1212 1443L54 1443L54 1148L450 1148L450 0Z" />
<glyph glyph-name="U" unicode="&#x55;" horiz-adv-x="1266" d="M633 280C508 280 442 369 442 537L442 1443L75 1443L75 517C75 172 280 -29 633 -29C986 -29 1191 172 1191 517L1191 1443L824 1443L824 537C824 369 758 280 633 280Z" />
<glyph glyph-name="V" unicode="&#x56;" horiz-adv-x="1266" d="M657 325L638 325L400 1443L0 1443L409 0L858 0L1266 1443L902 1443Z" />
<glyph glyph-name="W" unicode="&#x57;" horiz-adv-x="1266" d="M642 824L747 0L1060 0L1266 1443L938 1443L902 993L869 441L849 441L767 1113L499 1113L417 441L397 441L364 993L328 1443L0 1443L206 0L519 0L624 824Z" />
<glyph glyph-name="X" unicode="&#x58;" horiz-adv-x="1266" d="M0 0L363 0L613 457L630 457L882 0L1266 0L844 724L1266 1443L886 1443L651 965L633 965L398 1443L0 1443L405 728Z" />
<glyph glyph-name="Y" unicode="&#x59;" horiz-adv-x="1266" d="M816 0L816 496L1266 1443L875 1443L643 854L623 854L391 1443L0 1443L450 496L450 0Z" />
<glyph glyph-name="Z" unicode="&#x5a;" horiz-adv-x="1266" d="M130 0L1176 0L1176 295L575 295L575 314L1155 1210L1155 1443L141 1443L141 1148L710 1148L710 1129L130 233Z" />
<glyph glyph-name="bracketleft" unicode="&#x5b;" horiz-adv-x="1266" d="M299 1713L299 -270L1014 -270L1014 0L653 0L653 1443L1002 1443L1002 1713Z" />
<glyph glyph-name="backslash" unicode="&#x5c;" horiz-adv-x="1266" d="M1147 -270L486 1713L119 1713L790 -270Z" />
<glyph glyph-name="bracketright" unicode="&#x5d;" horiz-adv-x="1266" d="M311 1713L311 1443L660 1443L660 0L299 0L299 -270L1014 -270L1014 1713Z" />
<glyph glyph-name="asciicircum" unicode="&#x5e;" horiz-adv-x="1266" d="M624 1036L643 1036L868 560L1243 560L788 1443L480 1443L25 560L401 560Z" />
<glyph glyph-name="underscore" unicode="&#x5f;" horiz-adv-x="1266" d="M1152 -380L1152 -78L114 -78L114 -380Z" />
<glyph glyph-name="grave" unicode="&#x60;" horiz-adv-x="1266" d="M941 1296L698 1658L325 1658L617 1296Z" />
<glyph glyph-name="a" unicode="&#x61;" horiz-adv-x="1266" d="M454 -17C588 -17 701 41 757 138L787 138L787 0L1121 0L1121 752C1121 1001 953 1139 648 1139C357 1139 164 1005 144 789L487 789C505 844 563 879 636 879C720 879 773 834 773 763L773 680L545 663C255 641 104 523 104 320C104 119 245 -17 454 -17ZM582 244C501 244 449 284 449 347C449 416 503 455 612 464L773 477L773 426C773 315 698 244 582 244Z" />
<glyph glyph-name="b" unicode="&#x62;" horiz-adv-x="1266" d="M797 -17C1051 -17 1189 153 1189 466L1189 649C1189 962 1051 1132 797 1132C637 1132 531 1054 502 914L480 914L480 1530L109 1530L109 0L478 0L478 204L500 204C525 62 631 -17 797 -17ZM649 270C536 270 471 341 471 464L471 662C471 785 536 856 649 856C762 856 827 785 827 662L827 464C827 341 762 270 649 270Z" />
<glyph glyph-name="c" unicode="&#x63;" horiz-adv-x="1266" d="M1168 701C1144 999 977 1144 656 1144C308 1144 123 959 123 609L123 509C123 159 308 -26 656 -26C976 -26 1146 117 1168 404L823 404C806 290 760 246 656 246C541 246 478 346 478 529L478 589C478 772 541 872 656 872C759 872 808 823 823 701Z" />
<glyph glyph-name="d" unicode="&#x64;" horiz-adv-x="1266" d="M440 662C440 785 505 856 618 856C731 856 796 785 796 662L796 464C796 341 731 270 618 270C505 270 440 341 440 464ZM789 204L789 0L1158 0L1158 1530L787 1530L787 914L765 914C736 1054 630 1132 470 1132C216 1132 78 962 78 649L78 466C78 153 216 -17 470 -17C636 -17 742 62 767 204Z" />
<glyph glyph-name="e" unicode="&#x65;" horiz-adv-x="1266" d="M647 888C756 888 821 810 821 681L467 681C467 810 534 888 647 888ZM830 328C818 269 742 225 653 225C542 225 467 299 467 409L467 478L1158 478L1158 658C1158 944 954 1139 655 1139C336 1139 123 945 123 654L123 470C123 154 316 -26 655 -26C932 -26 1145 124 1160 328Z" />
<glyph glyph-name="f" unicode="&#x66;" horiz-adv-x="1266" d="M422 0L775 0L775 835L1185 835L1185 1098L766 1098L766 1185C766 1250 799 1284 864 1284L1185 1284L1185 1522L852 1522C530 1522 422 1431 422 1158L422 1098L126 1098L126 835L422 835Z" />
<glyph glyph-name="g" unicode="&#x67;" horiz-adv-x="1266" d="M426 497L426 662C426 782 498 856 614 856C730 856 802 782 802 662L802 497C802 377 730 303 614 303C498 303 426 377 426 497ZM603 -419C947 -419 1164 -256 1164 2L1164 1113L819 1113L819 914L797 914C770 1044 643 1132 481 1132C209 1132 63 963 63 649L63 499C63 189 205 16 461 16C630 16 764 107 788 237L810 237L810 -8C810 -125 742 -184 608 -184C504 -184 432 -147 417 -86L73 -86C88 -292 290 -419 603 -419Z" />
<glyph glyph-name="h" unicode="&#x68;" horiz-adv-x="1266" d="M99 0L452 0L452 631C452 764 524 846 640 846C756 846 815 775 815 635L815 0L1168 0L1168 715C1168 985 1034 1134 792 1134C634 1134 513 1058 464 928L445 928L445 1530L99 1530Z" />
<glyph glyph-name="i" unicode="&#x69;" horiz-adv-x="1266" d="M647 1314C784 1314 870 1388 870 1507C870 1626 784 1700 647 1700C510 1700 424 1626 424 1507C424 1388 510 1314 647 1314ZM1130 0L1130 264L817 264L817 1113L165 1113L165 849L476 849L476 264L136 264L136 0Z" />
<glyph glyph-name="j" unicode="&#x6a;" horiz-adv-x="1266" d="M928 1113L165 1113L165 849L587 849L587 52C587 -38 541 -84 450 -84L165 -84L165 -378L464 -378C806 -378 928 -261 928 67ZM743 1314C880 1314 966 1388 966 1507C966 1626 880 1700 743 1700C606 1700 520 1626 520 1507C520 1388 606 1314 743 1314Z" />
<glyph glyph-name="k" unicode="&#x6b;" horiz-adv-x="1266" d="M1259 0L836 636L1232 1113L836 1113L520 697L501 697L501 1530L148 1530L148 0L501 0L501 349L571 429L852 0Z" />
<glyph glyph-name="l" unicode="&#x6c;" horiz-adv-x="1266" d="M1130 0L1130 264L823 264L823 1530L165 1530L165 1266L470 1266L470 264L136 264L136 0Z" />
<glyph glyph-name="m" unicode="&#x6d;" horiz-adv-x="1266" d="M1216 890C1216 1049 1146 1139 1022 1139C920 1139 851 1067 831 941L793 941C770 1068 702 1139 603 1139C489 1139 416 1067 393 929L355 929L355 1113L50 1113L50 0L343 0L343 772C343 821 373 854 416 854C459 854 489 821 489 772L489 0L777 0L777 772C777 820 808 854 850 854C892 854 923 820 923 772L923 0L1216 0Z" />
<glyph glyph-name="n" unicode="&#x6e;" horiz-adv-x="1266" d="M105 0L458 0L458 636C458 769 526 850 637 850C752 850 807 782 807 640L807 0L1161 0L1161 719C1161 993 1031 1139 789 1139C635 1139 519 1064 468 932L449 932L449 1113L105 1113Z" />
<glyph glyph-name="o" unicode="&#x6f;" horiz-adv-x="1266" d="M633 -26C963 -26 1169 164 1169 469L1169 644C1169 949 963 1139 633 1139C303 1139 97 949 97 644L97 469C97 164 303 -26 633 -26ZM633 872C750 872 823 780 823 635L823 478C823 333 750 241 633 241C516 241 443 333 443 478L443 635C443 780 516 872 633 872Z" />
<glyph glyph-name="p" unicode="&#x70;" horiz-adv-x="1266" d="M798 1130C632 1130 526 1051 501 909L479 909L479 1113L110 1113L110 -368L481 -368L481 199L503 199C532 59 637 -19 798 -19C1052 -19 1190 151 1190 464L1190 647C1190 960 1052 1130 798 1130ZM650 843C763 843 828 772 828 649L828 451C828 328 763 257 650 257C537 257 472 328 472 451L472 649C472 772 537 843 650 843Z" />
<glyph glyph-name="q" unicode="&#x71;" horiz-adv-x="1266" d="M794 451C794 328 729 257 616 257C503 257 438 328 438 451L438 649C438 772 503 843 616 843C729 843 794 772 794 649ZM76 464C76 151 214 -19 468 -19C629 -19 734 59 763 199L785 199L785 -368L1156 -368L1156 1113L787 1113L787 909L765 909C740 1051 634 1130 468 1130C214 1130 76 960 76 647Z" />
<glyph glyph-name="r" unicode="&#x72;" horiz-adv-x="1266" d="M633 827L633 1113L71 1113L71 873L293 873L293 240L91 240L91 0L936 0L936 240L629 240L629 491C629 705 744 794 1020 794C1084 794 1158 781 1207 761L1207 1121C1165 1136 1112 1143 1050 1143C844 1143 747 1057 692 827Z" />
<glyph glyph-name="s" unicode="&#x73;" horiz-adv-x="1266" d="M148 774C148 595 259 482 474 437L643 402C742 382 775 360 775 313C775 260 721 225 636 225C542 225 485 258 474 319L129 319C141 100 324 -25 633 -25C944 -25 1137 123 1137 360C1137 534 1036 630 803 675L618 711C533 728 495 757 495 804C495 856 549 893 627 893C710 893 767 856 774 796L1104 796C1097 1019 927 1143 628 1143C330 1143 148 1003 148 774Z" />
<glyph glyph-name="t" unicode="&#x74;" horiz-adv-x="1266" d="M372 1443L372 1098L86 1098L86 835L372 835L372 364C372 91 480 0 802 0L1085 0L1085 259L833 259C765 259 725 296 725 358L725 835L1105 835L1105 1098L716 1098L716 1443Z" />
<glyph glyph-name="u" unicode="&#x75;" horiz-adv-x="1266" d="M1161 1113L808 1113L808 477C808 344 740 263 629 263C514 263 459 331 459 473L459 1113L105 1113L105 394C105 120 235 -26 477 -26C631 -26 747 49 798 181L817 181L817 0L1161 0Z" />
<glyph glyph-name="v" unicode="&#x76;" horiz-adv-x="1266" d="M56 1113L431 0L839 0L1210 1113L838 1113L649 317L630 317L437 1113Z" />
<glyph glyph-name="w" unicode="&#x77;" horiz-adv-x="1266" d="M1266 1113L931 1113L896 394L848 394L772 1108L494 1108L418 394L370 394L334 1113L0 1113L211 0L506 0L629 677L637 677L760 0L1055 0Z" />
<glyph glyph-name="x" unicode="&#x78;" horiz-adv-x="1266" d="M634 341L813 0L1200 0L862 562L1199 1113L816 1113L651 766L632 766L469 1113L66 1113L401 547L68 0L437 0L615 341Z" />
<glyph glyph-name="y" unicode="&#x79;" horiz-adv-x="1266" d="M290 -405C612 -405 772 -292 866 2L1224 1113L850 1113L651 297L632 297L433 1113L42 1113L422 -9L417 -40C405 -105 341 -137 223 -137C208 -137 164 -136 161 -135L161 -404C164 -405 226 -405 290 -405Z" />
<glyph glyph-name="z" unicode="&#x7a;" horiz-adv-x="1266" d="M150 0L1116 0L1116 266L621 266L621 285L1099 896L1099 1113L162 1113L162 847L675 847L675 828L150 189Z" />
<glyph glyph-name="braceleft" unicode="&#x7b;" horiz-adv-x="1266" d="M1072 -270L1072 0L986 0C851 0 824 32 824 191L824 476C824 611 730 697 567 711L567 731C730 745 824 831 824 966L824 1252C824 1411 851 1443 986 1443L1072 1443L1072 1713L892 1713C568 1713 460 1613 460 1314L460 1094C460 934 403 890 194 890L194 552C403 552 460 508 460 348L460 129C460 -170 568 -270 892 -270Z" />
<glyph glyph-name="bar" unicode="&#x7c;" horiz-adv-x="1266" d="M813 -483L813 1713L453 1713L453 -483Z" />
<glyph glyph-name="braceright" unicode="&#x7d;" horiz-adv-x="1266" d="M374 -270C698 -270 806 -170 806 129L806 348C806 508 863 552 1072 552L1072 890C863 890 806 934 806 1094L806 1314C806 1613 698 1713 374 1713L194 1713L194 1443L280 1443C415 1443 442 1411 442 1252L442 966C442 831 536 745 699 731L699 711C536 697 442 611 442 476L442 191C442 32 415 0 280 0L194 0L194 -270Z" />
<glyph glyph-name="asciitilde" unicode="&#x7e;" horiz-adv-x="1266" d="M423 996C220 996 94 831 93 567C93 545 95 524 97 501L374 501C374 623 406 679 472 679C509 679 535 663 586 612C685 515 756 479 849 479C1050 479 1174 648 1175 911C1175 931 1173 952 1171 975L896 975C894 855 863 797 798 797C764 797 734 814 685 862C583 962 516 996 423 996Z" />
<glyph glyph-name="exclamdown" unicode="&#xa1;" horiz-adv-x="1266" d="M633 1131C513 1131 420 1047 420 938C420 829 513 745 633 745C753 745 846 829 846 938C846 1047 753 1131 633 1131ZM837 -350L803 644L461 644L430 -350Z" />
<glyph glyph-name="cent" unicode="&#xa2;" horiz-adv-x="1266" d="M1145 817C1149 1043 1034 1211 790 1254L790 1453L498 1453L498 1244C307 1194 136 1047 136 759L136 616C136 294 289 150 498 109L498 -91L790 -91L790 111C1000 152 1145 285 1145 530L810 530C813 472 798 398 659 398C549 398 497 481 497 620L497 761C497 886 556 956 658 956C783 956 815 885 808 817Z" />
<glyph glyph-name="sterling" unicode="&#xa3;" horiz-adv-x="1266" d="M554 331L554 352C651 397 709 503 699 609C699 613 698 616 698 617L1003 617L1003 880L625 880C617 901 598 951 598 1011C598 1110 709 1179 869 1179C969 1179 1069 1170 1161 1155L1161 1457C1085 1472 950 1482 798 1482C426 1482 207 1344 207 1108C207 1018 236 939 260 880L44 880L44 617L334 617C333 620 335 616 335 610C330 438 214 319 37 303L37 0L1206 0L1206 331Z" />
<glyph glyph-name="currency" unicode="&#xa4;" horiz-adv-x="1266" d="M1192 1001L983 1220L856 1077C789 1115 713 1134 632 1134C555 1134 480 1114 409 1076L284 1220L74 1001L198 869C159 802 140 728 140 643C140 556 158 484 198 416L74 285L284 66L411 209C479 172 554 153 632 153C712 153 788 172 856 210L983 66L1192 285L1068 417C1108 485 1127 557 1127 643C1127 730 1108 804 1069 868ZM633 438C520 438 433 530 433 643C433 756 520 848 633 848C746 848 833 756 833 643C833 530 746 438 633 438Z" />
<glyph glyph-name="yen" unicode="&#xa5;" horiz-adv-x="1266" d="M1266 1443L875 1443L643 854L623 854L391 1443L0 1443L374 655L179 655L179 462L450 462L450 353L179 353L179 160L450 160L450 0L816 0L816 160L1089 160L1089 353L816 353L816 462L1089 462L1089 655L892 655Z" />
<glyph glyph-name="brokenbar" unicode="&#xa6;" horiz-adv-x="1266" d="M813 782L813 1713L453 1713L453 782ZM813 -484L813 447L453 447L453 -484Z" />
<glyph glyph-name="section" unicode="&#xa7;" horiz-adv-x="1266" d="M584 493C503 524 468 560 468 611C468 654 492 683 550 711L688 660C767 631 802 594 802 540C802 498 781 472 720 440ZM628 -307C905 -307 1086 -167 1086 47C1086 172 1034 247 894 321L894 342C1020 385 1099 490 1099 613C1099 753 1018 841 811 927L620 1002C542 1033 515 1058 515 1099C515 1161 566 1203 640 1203C714 1203 771 1160 777 1101L1085 1101C1077 1315 898 1459 640 1459C363 1459 183 1320 183 1105C183 979 236 902 372 830L372 811C247 766 169 661 169 538C169 392 250 302 449 228L647 152C721 127 752 98 752 54C752 -8 702 -51 628 -51C556 -51 497 -8 489 52L182 52C189 -163 368 -307 628 -307Z" />
<glyph glyph-name="dieresis" unicode="&#xa8;" horiz-adv-x="1266" d="M380 1287C473 1287 550 1363 550 1457C550 1551 473 1627 380 1627C287 1627 210 1551 210 1457C210 1363 287 1287 380 1287ZM886 1287C979 1287 1056 1363 1056 1457C1056 1551 979 1627 886 1627C793 1627 716 1551 716 1457C716 1363 793 1287 886 1287Z" />
<glyph glyph-name="copyright" unicode="&#xa9;" horiz-adv-x="1266" d="M896 794C885 931 795 1010 646 1010C464 1010 371 910 371 722C371 534 464 434 646 434C794 434 885 513 896 647L730 647C722 595 690 569 638 569C570 569 535 621 535 722C535 823 570 875 638 875C690 875 723 846 730 794ZM633 173C936 173 1175 412 1175 722C1175 1032 936 1271 633 1271C330 1271 91 1032 91 722C91 412 330 173 633 173ZM633 271C388 271 197 470 197 722C197 974 388 1173 633 1173C878 1173 1069 974 1069 722C1069 470 878 271 633 271Z" />
<glyph glyph-name="ordfeminine" unicode="&#xaa;" horiz-adv-x="1266" d="M622 713C557 713 510 748 510 798C510 850 549 880 624 886L750 895L750 837C750 763 698 713 622 713ZM487 485C599 485 691 532 725 606L744 606L744 497L1074 497L1074 1138C1074 1341 913 1467 655 1467C394 1467 235 1350 224 1151L540 1151C549 1195 587 1222 641 1222C701 1222 738 1195 738 1152L738 1071L566 1062C320 1046 192 948 192 776C192 598 306 485 487 485Z" />
<glyph glyph-name="guillemotleft" unicode="&#xab;" horiz-adv-x="1266" d="M366 644L699 1061L377 1061L43 644L43 635L377 218L699 218L366 635ZM890 644L1223 1061L901 1061L567 644L567 635L901 218L1223 218L890 635Z" />
<glyph glyph-name="logicalnot" unicode="&#xac;" horiz-adv-x="1266" d="M1163 794L103 794L103 492L848 492L848 63L1163 63Z" />
<glyph glyph-name="registered" unicode="&#xae;" horiz-adv-x="1266" d="M553 731L553 898L618 898L721 731L901 731L775 922C838 955 870 1009 870 1083C870 1190 792 1258 671 1258L410 1258L410 731ZM553 1130L638 1130C687 1130 713 1109 713 1069C713 1029 687 1008 638 1008L553 1008ZM633 442C938 442 1175 683 1175 991C1175 1299 938 1540 633 1540C328 1540 91 1299 91 991C91 683 328 442 633 442ZM633 540C389 540 197 738 197 991C197 1244 389 1442 633 1442C877 1442 1069 1244 1069 991C1069 738 877 540 633 540Z" />
<glyph glyph-name="macron" unicode="&#xaf;" horiz-adv-x="1266" d="M1015 1347L1015 1559L251 1559L251 1347Z" />
<glyph glyph-name="degree" unicode="&#xb0;" horiz-adv-x="1266" d="M633 776C850 776 1012 939 1012 1156C1012 1373 850 1536 633 1536C416 1536 254 1373 254 1156C254 939 416 776 633 776ZM633 982C536 982 468 1054 468 1156C468 1258 536 1330 633 1330C730 1330 798 1258 798 1156C798 1054 730 982 633 982Z" />
<glyph glyph-name="plusminus" unicode="&#xb1;" horiz-adv-x="1266" d="M1133 42L1133 322L133 322L133 42ZM795 642L1133 642L1133 929L795 929L795 1123L471 1123L471 929L133 929L133 642L471 642L471 448L795 448Z" />
<glyph glyph-name="acute" unicode="&#xb4;" horiz-adv-x="1266" d="M649 1296L941 1658L568 1658L325 1296Z" />
<glyph glyph-name="mugreek" unicode="&#xb5;" horiz-adv-x="1266" d="M469 -368L469 32L491 32C518 -7 547 -26 608 -26C710 -26 771 48 779 199L801 199L804 184C831 47 923 -10 1074 -10C1122 -10 1199 -3 1238 10L1238 258C1230 255 1193 249 1177 249C1121 249 1092 281 1092 342L1092 1113L748 1113L748 453C748 331 699 265 609 265C519 265 470 331 470 453L470 1113L126 1113L126 -368Z" />
<glyph glyph-name="paragraph" unicode="&#xb6;" horiz-adv-x="1266" d="M801 -270L801 1443L552 1443C227 1443 0 1217 0 893C0 586 240 349 551 349L553 349L553 -270ZM962 -270L1210 -270L1210 1443L962 1443Z" />
<glyph glyph-name="periodcentered" unicode="&#xb7;" horiz-adv-x="1266" d="M634 531C767 531 838 605 838 730C838 851 767 929 634 929C500 929 429 851 429 730C429 605 500 531 634 531Z" />
<glyph glyph-name="cedilla" unicode="&#xb8;" horiz-adv-x="1266" d="M463 -239L523 -239C600 -239 634 -254 634 -289C634 -322 599 -338 531 -338C489 -338 440 -332 422 -324L422 -478C455 -486 510 -494 566 -494C747 -494 845 -418 845 -280C845 -168 784 -103 669 -92L711 0L510 0L463 -102Z" />
<glyph glyph-name="ordmasculine" unicode="&#xba;" horiz-adv-x="1266" d="M633 739C538 739 488 820 488 974C488 1128 538 1209 633 1209C728 1209 778 1128 778 974C778 820 728 739 633 739ZM633 487C926 487 1107 673 1107 974C1107 1275 926 1461 633 1461C340 1461 159 1275 159 974C159 673 340 487 633 487Z" />
<glyph glyph-name="guillemotright" unicode="&#xbb;" horiz-adv-x="1266" d="M376 635L43 218L365 218L699 635L699 644L365 1061L43 1061L376 644ZM900 635L567 218L889 218L1223 635L1223 644L889 1061L567 1061L900 644Z" />
<glyph glyph-name="onequarter" unicode="&#xbc;" horiz-adv-x="1266" d="M929 0L1201 0L1201 139L1266 139L1266 297L1201 297L1201 717L809 717C732 591 630 410 591 330L591 95L929 95ZM813 302C852 392 872 432 934 543L939 543L939 297L813 297ZM168 728L451 728L451 1443L183 1443L0 1304L0 1081L164 1214L168 1214ZM1266 1443L0 159L0 0L1266 1284Z" />
<glyph glyph-name="onehalf" unicode="&#xbd;" horiz-adv-x="1266" d="M639 481L639 475L893 475L893 481C893 515 915 540 946 540C976 540 995 522 995 495C995 475 984 456 960 435L657 185L657 0L1266 0L1266 206L1013 206L1013 210L1140 314C1232 386 1266 441 1266 521C1266 654 1145 740 959 740C761 740 639 641 639 481ZM168 728L451 728L451 1443L183 1443L0 1304L0 1081L164 1214L168 1214ZM1266 1443L0 159L0 0L1266 1284Z" />
<glyph glyph-name="threequarters" unicode="&#xbe;" horiz-adv-x="1266" d="M178 1009L263 1009C295 1009 316 992 316 965C316 938 295 921 263 921C228 921 205 941 204 971L-52 971C-44 800 72 708 279 708C453 708 585 805 585 933C585 1028 519 1092 417 1096L417 1114C511 1128 565 1185 565 1268C565 1391 450 1473 279 1473C69 1473 -45 1379 -39 1211L197 1211C198 1250 223 1275 263 1275C298 1275 320 1257 320 1229C320 1201 298 1183 263 1183L178 1183ZM929 0L1201 0L1201 139L1266 139L1266 297L1201 297L1201 717L809 717C731 594 658 466 591 330L591 95L929 95ZM813 302C848 376 888 456 934 543L939 543L939 297L813 297ZM1266 1443L0 159L0 0L1266 1284Z" />
<glyph glyph-name="questiondown" unicode="&#xbf;" horiz-adv-x="1266" d="M1143 64L799 64C797 -22 739 -80 656 -80C573 -80 516 -32 516 38C516 120 546 156 685 240C816 318 855 404 844 591L841 642L510 642L510 575C510 488 474 443 339 363C190 275 126 174 126 29C126 -220 324 -381 630 -381C949 -381 1144 -212 1143 64ZM666 1129C546 1129 453 1045 453 936C453 827 546 743 666 743C786 743 879 827 879 936C879 1045 786 1129 666 1129Z" />
<glyph glyph-name="Agrave" unicode="&#xc0;" horiz-adv-x="1266" d="M794 1596L536 1922L174 1922L478 1596ZM491 581L609 1118L628 1118L742 581ZM866 0L1266 0L857 1443L408 1443L0 0L364 0L433 317L799 317Z" />
<glyph glyph-name="Aacute" unicode="&#xc1;" horiz-adv-x="1266" d="M1094 1922L732 1922L474 1596L790 1596ZM491 581L609 1118L628 1118L742 581ZM866 0L1266 0L857 1443L408 1443L0 0L364 0L433 317L799 317Z" />
<glyph glyph-name="Acircumflex" unicode="&#xc2;" horiz-adv-x="1266" d="M623 1786L643 1786L775 1596L1073 1596L798 1946L468 1946L193 1596L491 1596ZM491 581L609 1118L628 1118L742 581ZM866 0L1266 0L857 1443L408 1443L0 0L364 0L433 317L799 317Z" />
<glyph glyph-name="Atilde" unicode="&#xc3;" horiz-adv-x="1266" d="M846 1893C842 1807 809 1778 763 1778C678 1778 634 1905 469 1905C322 1905 212 1790 212 1585L421 1585C424 1671 456 1704 503 1704C593 1704 635 1577 797 1577C944 1577 1054 1692 1054 1893ZM491 581L609 1118L628 1118L742 581ZM866 0L1266 0L857 1443L408 1443L0 0L364 0L433 317L799 317Z" />
<glyph glyph-name="Adieresis" unicode="&#xc4;" horiz-adv-x="1266" d="M886 1600C979 1600 1056 1676 1056 1770C1056 1864 979 1940 886 1940C793 1940 716 1864 716 1770C716 1676 793 1600 886 1600ZM380 1600C473 1600 550 1676 550 1770C550 1864 473 1940 380 1940C287 1940 210 1864 210 1770C210 1676 287 1600 380 1600ZM491 581L609 1118L628 1118L742 581ZM866 0L1266 0L857 1443L408 1443L0 0L364 0L433 317L799 317Z" />
<glyph glyph-name="Aring" unicode="&#xc5;" horiz-adv-x="1266" d="M633 1833C684 1833 723 1795 723 1744C723 1694 686 1655 633 1655C582 1655 543 1693 543 1744C543 1795 582 1833 633 1833ZM634 1543C754 1543 841 1628 841 1746C841 1862 754 1945 634 1945C512 1945 425 1862 425 1746C425 1628 513 1543 634 1543ZM491 581L609 1118L628 1118L742 581ZM866 0L1266 0L857 1443L408 1443L0 0L364 0L433 317L799 317Z" />
<glyph glyph-name="AE" unicode="&#xc6;" horiz-adv-x="1266" d="M434 589L501 1113L583 1113L583 589ZM1258 1148L1258 1443L282 1443L0 0L358 0L397 305L583 305L583 0L1258 0L1258 295L915 295L915 590L1222 590L1222 860L915 860L915 1148Z" />
<glyph glyph-name="Ccedilla" unicode="&#xc7;" horiz-adv-x="1266" d="M852 534C852 376 780 278 664 278C528 278 458 375 458 562L458 881C458 1067 527 1165 658 1165C776 1165 850 1064 850 903L1223 903C1223 1265 1020 1472 666 1472C295 1472 75 1252 75 881L75 562C75 239 242 30 531 -18L492 -102L492 -239L552 -239C629 -239 663 -254 663 -289C663 -322 628 -338 560 -338C518 -338 469 -332 451 -324L451 -478C484 -486 539 -494 595 -494C776 -494 874 -418 874 -280C874 -168 813 -103 698 -92L728 -27C1044 -4 1225 199 1225 534Z" />
<glyph glyph-name="Egrave" unicode="&#xc8;" horiz-adv-x="1266" d="M554 1922L192 1922L496 1596L812 1596ZM1128 295L541 295L541 590L1091 590L1091 860L541 860L541 1148L1128 1148L1128 1443L174 1443L174 0L1128 0Z" />
<glyph glyph-name="Eacute" unicode="&#xc9;" horiz-adv-x="1266" d="M1128 295L541 295L541 590L1091 590L1091 860L541 860L541 1148L1128 1148L1128 1443L174 1443L174 0L1128 0ZM472 1596L788 1596L1092 1922L730 1922Z" />
<glyph glyph-name="Ecircumflex" unicode="&#xca;" horiz-adv-x="1266" d="M1128 295L541 295L541 590L1091 590L1091 860L541 860L541 1148L1128 1148L1128 1443L174 1443L174 0L1128 0ZM816 1946L486 1946L211 1596L509 1596L641 1786L661 1786L793 1596L1091 1596Z" />
<glyph glyph-name="Edieresis" unicode="&#xcb;" horiz-adv-x="1266" d="M1128 295L541 295L541 590L1091 590L1091 860L541 860L541 1148L1128 1148L1128 1443L174 1443L174 0L1128 0ZM398 1600C491 1600 568 1676 568 1770C568 1864 491 1940 398 1940C305 1940 228 1864 228 1770C228 1676 305 1600 398 1600ZM904 1600C997 1600 1074 1676 1074 1770C1074 1864 997 1940 904 1940C811 1940 734 1864 734 1770C734 1676 811 1600 904 1600Z" />
<glyph glyph-name="Igrave" unicode="&#xcc;" horiz-adv-x="1266" d="M536 1922L174 1922L478 1596L794 1596ZM1120 0L1120 295L816 295L816 1148L1120 1148L1120 1443L146 1443L146 1148L450 1148L450 295L146 295L146 0Z" />
<glyph glyph-name="Iacute" unicode="&#xcd;" horiz-adv-x="1266" d="M1120 0L1120 295L816 295L816 1148L1120 1148L1120 1443L146 1443L146 1148L450 1148L450 295L146 295L146 0ZM474 1596L790 1596L1094 1922L732 1922Z" />
<glyph glyph-name="Icircumflex" unicode="&#xce;" horiz-adv-x="1266" d="M1120 0L1120 295L816 295L816 1148L1120 1148L1120 1443L146 1443L146 1148L450 1148L450 295L146 295L146 0ZM798 1946L468 1946L193 1596L491 1596L623 1786L643 1786L775 1596L1073 1596Z" />
<glyph glyph-name="Idieresis" unicode="&#xcf;" horiz-adv-x="1266" d="M1120 0L1120 295L816 295L816 1148L1120 1148L1120 1443L146 1443L146 1148L450 1148L450 295L146 295L146 0ZM380 1600C473 1600 550 1676 550 1770C550 1864 473 1940 380 1940C287 1940 210 1864 210 1770C210 1676 287 1600 380 1600ZM886 1600C979 1600 1056 1676 1056 1770C1056 1864 979 1940 886 1940C793 1940 716 1864 716 1770C716 1676 793 1600 886 1600Z" />
<glyph glyph-name="Eth" unicode="&#xd0;" horiz-adv-x="1266" d="M458 295L458 587L673 587L673 860L458 860L458 1148L543 1148C744 1148 840 1012 840 729C840 427 750 295 543 295ZM91 1443L91 860L-22 860L-22 587L91 587L91 0L599 0C1004 0 1214 251 1214 736C1214 1197 1000 1443 599 1443Z" />
<glyph glyph-name="Ntilde" unicode="&#xd1;" horiz-adv-x="1266" d="M419 0L419 870L438 870L842 0L1158 0L1158 1443L847 1443L847 581L828 581L424 1443L108 1443L108 0ZM797 1577C944 1577 1054 1692 1054 1893L846 1893C842 1807 809 1778 763 1778C678 1778 634 1905 469 1905C322 1905 212 1790 212 1585L421 1585C424 1671 456 1704 503 1704C593 1704 635 1577 797 1577Z" />
<glyph glyph-name="Ograve" unicode="&#xd2;" horiz-adv-x="1266" d="M536 1922L174 1922L478 1596L794 1596ZM431 824C431 1060 494 1168 633 1168C772 1168 835 1060 835 824L835 619C835 383 772 275 633 275C494 275 431 383 431 619ZM1208 828C1208 1231 993 1472 633 1472C273 1472 58 1231 58 828L58 615C58 212 273 -29 633 -29C993 -29 1208 212 1208 615Z" />
<glyph glyph-name="Oacute" unicode="&#xd3;" horiz-adv-x="1266" d="M1208 615L1208 828C1208 1231 993 1472 633 1472C273 1472 58 1231 58 828L58 615C58 212 273 -29 633 -29C993 -29 1208 212 1208 615ZM633 275C494 275 431 383 431 619L431 824C431 1060 494 1168 633 1168C772 1168 835 1060 835 824L835 619C835 383 772 275 633 275ZM474 1596L790 1596L1094 1922L732 1922Z" />
<glyph glyph-name="Ocircumflex" unicode="&#xd4;" horiz-adv-x="1266" d="M1208 615L1208 828C1208 1231 993 1472 633 1472C273 1472 58 1231 58 828L58 615C58 212 273 -29 633 -29C993 -29 1208 212 1208 615ZM633 275C494 275 431 383 431 619L431 824C431 1060 494 1168 633 1168C772 1168 835 1060 835 824L835 619C835 383 772 275 633 275ZM798 1946L468 1946L193 1596L491 1596L623 1786L643 1786L775 1596L1073 1596Z" />
<glyph glyph-name="Otilde" unicode="&#xd5;" horiz-adv-x="1266" d="M1208 615L1208 828C1208 1231 993 1472 633 1472C273 1472 58 1231 58 828L58 615C58 212 273 -29 633 -29C993 -29 1208 212 1208 615ZM633 275C494 275 431 383 431 619L431 824C431 1060 494 1168 633 1168C772 1168 835 1060 835 824L835 619C835 383 772 275 633 275ZM797 1577C944 1577 1054 1692 1054 1893L846 1893C842 1807 809 1778 763 1778C678 1778 634 1905 469 1905C322 1905 212 1790 212 1585L421 1585C424 1671 456 1704 503 1704C593 1704 635 1577 797 1577Z" />
<glyph glyph-name="Odieresis" unicode="&#xd6;" horiz-adv-x="1266" d="M1208 615L1208 828C1208 1231 993 1472 633 1472C273 1472 58 1231 58 828L58 615C58 212 273 -29 633 -29C993 -29 1208 212 1208 615ZM633 275C494 275 431 383 431 619L431 824C431 1060 494 1168 633 1168C772 1168 835 1060 835 824L835 619C835 383 772 275 633 275ZM380 1600C473 1600 550 1676 550 1770C550 1864 473 1940 380 1940C287 1940 210 1864 210 1770C210 1676 287 1600 380 1600ZM886 1600C979 1600 1056 1676 1056 1770C1056 1864 979 1940 886 1940C793 1940 716 1864 716 1770C716 1676 793 1600 886 1600Z" />
<glyph glyph-name="multiply" unicode="&#xd7;" horiz-adv-x="1266" d="M633 882L338 1183L111 945L405 642L111 341L338 104L633 405L928 104L1155 341L861 642L1155 945L928 1183Z" />
<glyph glyph-name="Oslash" unicode="&#xd8;" horiz-adv-x="1266" d="M835 619C835 383 772 275 633 275C559 275 507 306 474 370L833 888C834 867 835 846 835 824ZM431 824C431 1060 494 1168 633 1168C707 1168 759 1137 792 1073L433 555C432 576 431 597 431 619ZM1219 1443L1049 1443L992 1361C899 1433 777 1472 633 1472C273 1472 58 1231 58 828L58 615C58 439 99 293 176 185L47 0L217 0L274 82C367 10 489 -29 633 -29C993 -29 1208 212 1208 615L1208 828C1208 1004 1167 1150 1090 1258Z" />
<glyph glyph-name="Ugrave" unicode="&#xd9;" horiz-adv-x="1266" d="M536 1922L174 1922L478 1596L794 1596ZM442 1443L75 1443L75 517C75 172 280 -29 633 -29C986 -29 1191 172 1191 517L1191 1443L824 1443L824 537C824 369 758 280 633 280C508 280 442 369 442 537Z" />
<glyph glyph-name="Uacute" unicode="&#xda;" horiz-adv-x="1266" d="M633 280C508 280 442 369 442 537L442 1443L75 1443L75 517C75 172 280 -29 633 -29C986 -29 1191 172 1191 517L1191 1443L824 1443L824 537C824 369 758 280 633 280ZM474 1596L790 1596L1094 1922L732 1922Z" />
<glyph glyph-name="Ucircumflex" unicode="&#xdb;" horiz-adv-x="1266" d="M633 280C508 280 442 369 442 537L442 1443L75 1443L75 517C75 172 280 -29 633 -29C986 -29 1191 172 1191 517L1191 1443L824 1443L824 537C824 369 758 280 633 280ZM798 1946L468 1946L193 1596L491 1596L623 1786L643 1786L775 1596L1073 1596Z" />
<glyph glyph-name="Udieresis" unicode="&#xdc;" horiz-adv-x="1266" d="M633 280C508 280 442 369 442 537L442 1443L75 1443L75 517C75 172 280 -29 633 -29C986 -29 1191 172 1191 517L1191 1443L824 1443L824 537C824 369 758 280 633 280ZM380 1600C473 1600 550 1676 550 1770C550 1864 473 1940 380 1940C287 1940 210 1864 210 1770C210 1676 287 1600 380 1600ZM886 1600C979 1600 1056 1676 1056 1770C1056 1864 979 1940 886 1940C793 1940 716 1864 716 1770C716 1676 793 1600 886 1600Z" />
<glyph glyph-name="Yacute" unicode="&#xdd;" horiz-adv-x="1266" d="M816 0L816 496L1266 1443L875 1443L643 854L623 854L391 1443L0 1443L450 496L450 0ZM464 1596L780 1596L1084 1922L722 1922Z" />
<glyph glyph-name="Thorn" unicode="&#xde;" horiz-adv-x="1266" d="M155 1443L155 0L548 0L548 247L702 247C1017 247 1233 448 1233 740C1233 1035 1029 1235 727 1235L548 1235L548 1443ZM548 925L620 925C761 925 835 861 835 739C835 617 761 553 620 553L548 553Z" />
<glyph glyph-name="germandbls" unicode="&#xdf;" horiz-adv-x="1266" d="M417 0L417 980C417 1106 471 1162 586 1162C686 1162 745 1107 745 1012C745 928 684 869 598 869L573 869L573 570L631 570C771 570 845 519 845 420C845 330 788 286 680 286C624 286 585 292 551 307L551 3C598 -8 671 -16 734 -16C1065 -16 1235 122 1235 397C1235 601 1116 729 908 753L908 772C1027 810 1112 930 1112 1065C1112 1331 933 1472 602 1472C241 1472 38 1309 38 1015L38 0Z" />
<glyph glyph-name="agrave" unicode="&#xe0;" horiz-adv-x="1266" d="M454 -17C588 -17 701 41 757 138L787 138L787 0L1121 0L1121 752C1121 1001 953 1139 648 1139C357 1139 164 1005 144 789L487 789C505 844 563 879 636 879C720 879 773 834 773 763L773 680L545 663C255 641 104 523 104 320C104 119 245 -17 454 -17ZM582 244C501 244 449 284 449 347C449 416 503 455 612 464L773 477L773 426C773 315 698 244 582 244ZM913 1296L670 1658L297 1658L589 1296Z" />
<glyph glyph-name="aacute" unicode="&#xe1;" horiz-adv-x="1266" d="M775 1296L1067 1658L694 1658L451 1296ZM773 477L773 426C773 315 698 244 582 244C501 244 449 284 449 347C449 416 503 455 612 464ZM787 138L787 0L1121 0L1121 752C1121 1001 953 1139 648 1139C357 1139 164 1005 144 789L487 789C505 844 563 879 636 879C720 879 773 834 773 763L773 680L545 663C255 641 104 523 104 320C104 119 245 -17 454 -17C588 -17 701 41 757 138Z" />
<glyph glyph-name="acircumflex" unicode="&#xe2;" horiz-adv-x="1266" d="M454 -17C588 -17 701 41 757 138L787 138L787 0L1121 0L1121 752C1121 1001 953 1139 648 1139C357 1139 164 1005 144 789L487 789C505 844 563 879 636 879C720 879 773 834 773 763L773 680L545 663C255 641 104 523 104 320C104 119 245 -17 454 -17ZM582 244C501 244 449 284 449 347C449 416 503 455 612 464L773 477L773 426C773 315 698 244 582 244ZM466 1632L203 1267L512 1267L633 1464L653 1464L774 1267L1083 1267L820 1632Z" />
<glyph glyph-name="atilde" unicode="&#xe3;" horiz-adv-x="1266" d="M454 -17C588 -17 701 41 757 138L787 138L787 0L1121 0L1121 752C1121 1001 953 1139 648 1139C357 1139 164 1005 144 789L487 789C505 844 563 879 636 879C720 879 773 834 773 763L773 680L545 663C255 641 104 523 104 320C104 119 245 -17 454 -17ZM582 244C501 244 449 284 449 347C449 416 503 455 612 464L773 477L773 426C773 315 698 244 582 244ZM519 1397C594 1397 645 1262 786 1262C950 1262 1064 1401 1064 1599L845 1599C844 1524 814 1475 768 1475C693 1475 642 1610 501 1610C338 1610 223 1469 223 1267L442 1267C443 1344 474 1397 519 1397Z" />
<glyph glyph-name="adieresis" unicode="&#xe4;" horiz-adv-x="1266" d="M454 -17C588 -17 701 41 757 138L787 138L787 0L1121 0L1121 752C1121 1001 953 1139 648 1139C357 1139 164 1005 144 789L487 789C505 844 563 879 636 879C720 879 773 834 773 763L773 680L545 663C255 641 104 523 104 320C104 119 245 -17 454 -17ZM582 244C501 244 449 284 449 347C449 416 503 455 612 464L773 477L773 426C773 315 698 244 582 244ZM413 1279C506 1279 583 1355 583 1449C583 1543 506 1619 413 1619C320 1619 243 1543 243 1449C243 1355 320 1279 413 1279ZM919 1279C1012 1279 1089 1355 1089 1449C1089 1543 1012 1619 919 1619C826 1619 749 1543 749 1449C749 1355 826 1279 919 1279Z" />
<glyph glyph-name="aring" unicode="&#xe5;" horiz-adv-x="1266" d="M454 -17C588 -17 701 41 757 138L787 138L787 0L1121 0L1121 752C1121 1001 953 1139 648 1139C357 1139 164 1005 144 789L487 789C505 844 563 879 636 879C720 879 773 834 773 763L773 680L545 663C255 641 104 523 104 320C104 119 245 -17 454 -17ZM582 244C501 244 449 284 449 347C449 416 503 455 612 464L773 477L773 426C773 315 698 244 582 244ZM643 1392C593 1392 553 1433 553 1482C553 1531 593 1572 643 1572C693 1572 733 1531 733 1482C733 1433 693 1392 643 1392ZM643 1234C779 1234 891 1346 891 1482C891 1618 779 1730 643 1730C507 1730 395 1618 395 1482C395 1346 507 1234 643 1234Z" />
<glyph glyph-name="ae" unicode="&#xe6;" horiz-adv-x="1266" d="M1233 399L982 399C956 299 921 255 866 255C802 255 762 327 756 453L756 463L1223 463L1223 589C1223 941 1098 1150 888 1150C775 1150 691 1100 644 1005L637 1005C580 1111 518 1150 404 1150C216 1150 81 990 63 747L326 747C333 834 364 884 413 884C467 884 487 845 487 743L487 689L375 676C155 650 44 540 44 348C44 127 167 -15 359 -15C483 -15 564 43 624 173L631 173C680 50 765 -15 878 -15C1059 -15 1182 128 1233 399ZM946 701L767 701C770 813 807 884 862 884C911 884 944 812 946 701ZM379 258C335 258 307 291 307 341C307 397 352 446 409 453L496 465L496 434C496 324 451 258 379 258Z" />
<glyph glyph-name="ccedilla" unicode="&#xe7;" horiz-adv-x="1266" d="M478 589C478 772 541 872 656 872C759 872 808 823 823 701L1168 701C1144 999 977 1144 656 1144C308 1144 123 959 123 609L123 509C123 210 258 31 515 -14L475 -102L475 -239L535 -239C612 -239 646 -254 646 -289C646 -322 611 -338 543 -338C501 -338 452 -332 434 -324L434 -478C467 -486 522 -494 578 -494C759 -494 857 -418 857 -280C857 -168 796 -103 681 -92L712 -24C996 -8 1147 134 1168 404L823 404C806 290 760 246 656 246C541 246 478 346 478 529Z" />
<glyph glyph-name="egrave" unicode="&#xe8;" horiz-adv-x="1266" d="M647 888C756 888 821 810 821 681L467 681C467 810 534 888 647 888ZM830 328C818 269 742 225 653 225C542 225 467 299 467 409L467 478L1158 478L1158 658C1158 944 954 1139 655 1139C336 1139 123 945 123 654L123 470C123 154 316 -26 655 -26C932 -26 1145 124 1160 328ZM834 1296L591 1658L218 1658L510 1296Z" />
<glyph glyph-name="eacute" unicode="&#xe9;" horiz-adv-x="1266" d="M774 1296L1066 1658L693 1658L450 1296ZM830 328C818 269 742 225 653 225C542 225 467 299 467 409L467 478L1158 478L1158 658C1158 944 954 1139 655 1139C336 1139 123 945 123 654L123 470C123 154 316 -26 655 -26C932 -26 1145 124 1160 328ZM467 681C467 810 534 888 647 888C756 888 821 810 821 681Z" />
<glyph glyph-name="ecircumflex" unicode="&#xea;" horiz-adv-x="1266" d="M647 888C756 888 821 810 821 681L467 681C467 810 534 888 647 888ZM830 328C818 269 742 225 653 225C542 225 467 299 467 409L467 478L1158 478L1158 658C1158 944 954 1139 655 1139C336 1139 123 945 123 654L123 470C123 154 316 -26 655 -26C932 -26 1145 124 1160 328ZM464 1632L201 1267L510 1267L631 1464L651 1464L772 1267L1081 1267L818 1632Z" />
<glyph glyph-name="edieresis" unicode="&#xeb;" horiz-adv-x="1266" d="M647 888C756 888 821 810 821 681L467 681C467 810 534 888 647 888ZM830 328C818 269 742 225 653 225C542 225 467 299 467 409L467 478L1158 478L1158 658C1158 944 954 1139 655 1139C336 1139 123 945 123 654L123 470C123 154 316 -26 655 -26C932 -26 1145 124 1160 328ZM389 1287C482 1287 559 1363 559 1457C559 1551 482 1627 389 1627C296 1627 219 1551 219 1457C219 1363 296 1287 389 1287ZM895 1287C988 1287 1065 1363 1065 1457C1065 1551 988 1627 895 1627C802 1627 725 1551 725 1457C725 1363 802 1287 895 1287Z" />
<glyph glyph-name="igrave" unicode="&#xec;" horiz-adv-x="1266" d="M1130 0L1130 264L817 264L817 1113L165 1113L165 849L476 849L476 264L136 264L136 0ZM839 1296L596 1658L223 1658L515 1296Z" />
<glyph glyph-name="iacute" unicode="&#xed;" horiz-adv-x="1266" d="M779 1296L1071 1658L698 1658L455 1296ZM1130 0L1130 264L817 264L817 1113L165 1113L165 849L476 849L476 264L136 264L136 0Z" />
<glyph glyph-name="icircumflex" unicode="&#xee;" horiz-adv-x="1266" d="M1130 0L1130 264L817 264L817 1113L165 1113L165 849L476 849L476 264L136 264L136 0ZM469 1632L206 1267L515 1267L636 1464L656 1464L777 1267L1086 1267L823 1632Z" />
<glyph glyph-name="idieresis" unicode="&#xef;" horiz-adv-x="1266" d="M1130 0L1130 264L817 264L817 1113L165 1113L165 849L476 849L476 264L136 264L136 0ZM394 1287C487 1287 564 1363 564 1457C564 1551 487 1627 394 1627C301 1627 224 1551 224 1457C224 1363 301 1287 394 1287ZM900 1287C993 1287 1070 1363 1070 1457C1070 1551 993 1627 900 1627C807 1627 730 1551 730 1457C730 1363 807 1287 900 1287Z" />
<glyph glyph-name="eth" unicode="&#xf0;" horiz-adv-x="1266" d="M794 492C794 334 732 239 628 239C524 239 462 334 462 492L462 561C462 719 524 814 628 814C732 814 794 719 794 561ZM1095 1402L1095 1596L761 1473C725 1503 687 1529 648 1553L178 1553C290 1492 386 1430 467 1365L256 1288L256 1094L616 1226C694 1139 749 1047 784 947L765 947C701 1026 627 1058 508 1058C243 1058 87 862 87 528L87 516C87 177 286 -21 625 -21C968 -21 1166 183 1166 536L1166 646C1166 888 1066 1139 904 1332Z" />
<glyph glyph-name="ntilde" unicode="&#xf1;" horiz-adv-x="1266" d="M105 0L458 0L458 636C458 769 526 850 637 850C752 850 807 782 807 640L807 0L1161 0L1161 719C1161 993 1031 1139 789 1139C635 1139 519 1064 468 932L449 932L449 1113L105 1113ZM508 1405C583 1405 634 1270 775 1270C939 1270 1053 1409 1053 1607L834 1607C833 1532 803 1483 757 1483C682 1483 631 1618 490 1618C327 1618 212 1477 212 1275L431 1275C432 1352 463 1405 508 1405Z" />
<glyph glyph-name="ograve" unicode="&#xf2;" horiz-adv-x="1266" d="M633 -26C963 -26 1169 164 1169 469L1169 644C1169 949 963 1139 633 1139C303 1139 97 949 97 644L97 469C97 164 303 -26 633 -26ZM633 872C750 872 823 780 823 635L823 478C823 333 750 241 633 241C516 241 443 333 443 478L443 635C443 780 516 872 633 872ZM825 1296L582 1658L209 1658L501 1296Z" />
<glyph glyph-name="oacute" unicode="&#xf3;" horiz-adv-x="1266" d="M765 1296L1057 1658L684 1658L441 1296ZM823 478C823 333 750 241 633 241C516 241 443 333 443 478L443 635C443 780 516 872 633 872C750 872 823 780 823 635ZM1169 644C1169 949 963 1139 633 1139C303 1139 97 949 97 644L97 469C97 164 303 -26 633 -26C963 -26 1169 164 1169 469Z" />
<glyph glyph-name="ocircumflex" unicode="&#xf4;" horiz-adv-x="1266" d="M633 -26C963 -26 1169 164 1169 469L1169 644C1169 949 963 1139 633 1139C303 1139 97 949 97 644L97 469C97 164 303 -26 633 -26ZM633 872C750 872 823 780 823 635L823 478C823 333 750 241 633 241C516 241 443 333 443 478L443 635C443 780 516 872 633 872ZM456 1632L193 1267L502 1267L623 1464L643 1464L764 1267L1073 1267L810 1632Z" />
<glyph glyph-name="otilde" unicode="&#xf5;" horiz-adv-x="1266" d="M633 -26C963 -26 1169 164 1169 469L1169 644C1169 949 963 1139 633 1139C303 1139 97 949 97 644L97 469C97 164 303 -26 633 -26ZM633 872C750 872 823 780 823 635L823 478C823 333 750 241 633 241C516 241 443 333 443 478L443 635C443 780 516 872 633 872ZM508 1405C583 1405 634 1270 775 1270C939 1270 1053 1409 1053 1607L834 1607C833 1532 803 1483 757 1483C682 1483 631 1618 490 1618C327 1618 212 1477 212 1275L431 1275C432 1352 463 1405 508 1405Z" />
<glyph glyph-name="odieresis" unicode="&#xf6;" horiz-adv-x="1266" d="M633 -26C963 -26 1169 164 1169 469L1169 644C1169 949 963 1139 633 1139C303 1139 97 949 97 644L97 469C97 164 303 -26 633 -26ZM633 872C750 872 823 780 823 635L823 478C823 333 750 241 633 241C516 241 443 333 443 478L443 635C443 780 516 872 633 872ZM380 1287C473 1287 550 1363 550 1457C550 1551 473 1627 380 1627C287 1627 210 1551 210 1457C210 1363 287 1287 380 1287ZM886 1287C979 1287 1056 1363 1056 1457C1056 1551 979 1627 886 1627C793 1627 716 1551 716 1457C716 1363 793 1287 886 1287Z" />
<glyph glyph-name="divide" unicode="&#xf7;" horiz-adv-x="1266" d="M1184 503L1184 783L82 783L82 503ZM632 872C752 872 830 949 830 1061C830 1174 752 1248 632 1248C514 1248 437 1174 437 1061C437 949 514 872 632 872ZM632 37C752 37 830 113 830 225C830 338 752 413 632 413C514 413 437 338 437 225C437 113 514 37 632 37Z" />
<glyph glyph-name="oslash" unicode="&#xf8;" horiz-adv-x="1266" d="M823 478C823 333 750 241 633 241C580 241 536 260 504 294L821 678C822 664 823 650 823 635ZM443 635C443 780 516 872 633 872C686 872 730 853 762 819L445 435C444 449 443 463 443 478ZM1179 1113L1004 1113L958 1057C872 1110 762 1139 633 1139C303 1139 97 949 97 644L97 469C97 337 135 227 206 144L87 0L262 0L308 56C394 3 504 -26 633 -26C963 -26 1169 164 1169 469L1169 644C1169 776 1131 886 1060 969Z" />
<glyph glyph-name="ugrave" unicode="&#xf9;" horiz-adv-x="1266" d="M1161 1113L808 1113L808 477C808 344 740 263 629 263C514 263 459 331 459 473L459 1113L105 1113L105 394C105 120 235 -26 477 -26C631 -26 747 49 798 181L817 181L817 0L1161 0ZM825 1296L582 1658L209 1658L501 1296Z" />
<glyph glyph-name="uacute" unicode="&#xfa;" horiz-adv-x="1266" d="M765 1296L1057 1658L684 1658L441 1296ZM1161 1113L808 1113L808 477C808 344 740 263 629 263C514 263 459 331 459 473L459 1113L105 1113L105 394C105 120 235 -26 477 -26C631 -26 747 49 798 181L817 181L817 0L1161 0Z" />
<glyph glyph-name="ucircumflex" unicode="&#xfb;" horiz-adv-x="1266" d="M1161 1113L808 1113L808 477C808 344 740 263 629 263C514 263 459 331 459 473L459 1113L105 1113L105 394C105 120 235 -26 477 -26C631 -26 747 49 798 181L817 181L817 0L1161 0ZM455 1632L192 1267L501 1267L622 1464L642 1464L763 1267L1072 1267L809 1632Z" />
<glyph glyph-name="udieresis" unicode="&#xfc;" horiz-adv-x="1266" d="M1161 1113L808 1113L808 477C808 344 740 263 629 263C514 263 459 331 459 473L459 1113L105 1113L105 394C105 120 235 -26 477 -26C631 -26 747 49 798 181L817 181L817 0L1161 0ZM380 1287C473 1287 550 1363 550 1457C550 1551 473 1627 380 1627C287 1627 210 1551 210 1457C210 1363 287 1287 380 1287ZM886 1287C979 1287 1056 1363 1056 1457C1056 1551 979 1627 886 1627C793 1627 716 1551 716 1457C716 1363 793 1287 886 1287Z" />
<glyph glyph-name="yacute" unicode="&#xfd;" horiz-adv-x="1266" d="M765 1296L1057 1658L684 1658L441 1296ZM1224 1113L850 1113L651 297L632 297L433 1113L42 1113L422 -9L417 -40C405 -105 341 -137 223 -137C208 -137 164 -136 161 -135L161 -404C164 -405 226 -405 290 -405C612 -405 772 -292 866 2Z" />
<glyph glyph-name="thorn" unicode="&#xfe;" horiz-adv-x="1266" d="M751 -17C1019 -17 1182 166 1182 466L1182 682C1182 986 1031 1163 771 1163C619 1163 502 1080 469 947L446 947L446 1482L75 1482L75 -345L446 -345L446 212L469 212C493 69 600 -17 751 -17ZM629 269C512 269 451 337 451 467L451 658C451 788 512 856 629 856C743 856 801 789 801 658L801 467C801 336 743 269 629 269Z" />
<glyph glyph-name="ydieresis" unicode="&#xff;" horiz-adv-x="1266" d="M290 -405C612 -405 772 -292 866 2L1224 1113L850 1113L651 297L632 297L433 1113L42 1113L422 -9L417 -40C405 -105 341 -137 223 -137C208 -137 164 -136 161 -135L161 -404C164 -405 226 -405 290 -405ZM380 1287C473 1287 550 1363 550 1457C550 1551 473 1627 380 1627C287 1627 210 1551 210 1457C210 1363 287 1287 380 1287ZM886 1287C979 1287 1056 1363 1056 1457C1056 1551 979 1627 886 1627C793 1627 716 1551 716 1457C716 1363 793 1287 886 1287Z" />
<glyph glyph-name="Amacron" unicode="&#x0100;" horiz-adv-x="1266" d="M1015 1844L251 1844L251 1632L1015 1632ZM491 581L609 1118L628 1118L742 581ZM866 0L1266 0L857 1443L408 1443L0 0L364 0L433 317L799 317Z" />
<glyph glyph-name="amacron" unicode="&#x0101;" horiz-adv-x="1266" d="M454 -17C588 -17 701 41 757 138L787 138L787 0L1121 0L1121 752C1121 1001 953 1139 648 1139C357 1139 164 1005 144 789L487 789C505 844 563 879 636 879C720 879 773 834 773 763L773 680L545 663C255 641 104 523 104 320C104 119 245 -17 454 -17ZM582 244C501 244 449 284 449 347C449 416 503 455 612 464L773 477L773 426C773 315 698 244 582 244ZM1025 1347L1025 1559L261 1559L261 1347Z" />
<glyph glyph-name="Abreve" unicode="&#x0102;" horiz-adv-x="1266" d="M815 1932C812 1833 742 1771 633 1771C524 1771 454 1833 451 1932L215 1932C215 1725 375 1581 633 1581C891 1581 1051 1725 1051 1932ZM491 581L609 1118L628 1118L742 581ZM866 0L1266 0L857 1443L408 1443L0 0L364 0L433 317L799 317Z" />
<glyph glyph-name="abreve" unicode="&#x0103;" horiz-adv-x="1266" d="M454 -17C588 -17 701 41 757 138L787 138L787 0L1121 0L1121 752C1121 1001 953 1139 648 1139C357 1139 164 1005 144 789L487 789C505 844 563 879 636 879C720 879 773 834 773 763L773 680L545 663C255 641 104 523 104 320C104 119 245 -17 454 -17ZM582 244C501 244 449 284 449 347C449 416 503 455 612 464L773 477L773 426C773 315 698 244 582 244ZM613 1466C509 1466 443 1529 440 1629L196 1629C196 1407 362 1260 613 1260C864 1260 1030 1407 1030 1629L786 1629C783 1529 717 1466 613 1466Z" />
<glyph glyph-name="Aogonek" unicode="&#x0104;" horiz-adv-x="1266" d="M491 581L609 1118L628 1118L742 581ZM1266 0L857 1443L408 1443L0 0L364 0L433 317L799 317L866 0C785 -66 750 -132 750 -222C750 -374 886 -479 1082 -479C1149 -479 1215 -470 1248 -456L1248 -277C1241 -281 1195 -285 1157 -285C1066 -285 1013 -246 1013 -179C1013 -91 1089 -36 1256 -2Z" />
<glyph glyph-name="aogonek" unicode="&#x0105;" horiz-adv-x="1266" d="M582 244C501 244 449 284 449 347C449 416 503 455 612 464L773 477L773 426C773 315 698 244 582 244ZM787 0C679 -66 630 -144 630 -245C630 -383 755 -479 935 -479C998 -479 1077 -467 1121 -451L1121 -263C1102 -268 1068 -272 1039 -272C962 -272 913 -234 913 -175C913 -103 979 -38 1083 -10L1121 0L1121 752C1121 1001 953 1139 648 1139C357 1139 164 1005 144 789L487 789C505 844 563 879 636 879C720 879 773 834 773 763L773 680L545 663C255 641 104 523 104 320C104 119 245 -17 454 -17C588 -17 701 41 757 138L787 138Z" />
<glyph glyph-name="Cacute" unicode="&#x0106;" horiz-adv-x="1266" d="M664 278C528 278 458 375 458 562L458 881C458 1067 527 1165 658 1165C776 1165 850 1064 850 903L1223 903C1223 1265 1020 1472 666 1472C295 1472 75 1252 75 881L75 562C75 191 295 -29 666 -29C1020 -29 1225 178 1225 534L852 534C852 376 780 278 664 278ZM474 1596L790 1596L1094 1922L732 1922Z" />
<glyph glyph-name="cacute" unicode="&#x0107;" horiz-adv-x="1266" d="M778 1296L1070 1658L697 1658L454 1296ZM1168 701C1144 999 977 1144 656 1144C308 1144 123 959 123 609L123 509C123 159 308 -26 656 -26C976 -26 1146 117 1168 404L823 404C806 290 760 246 656 246C541 246 478 346 478 529L478 589C478 772 541 872 656 872C759 872 808 823 823 701Z" />
<glyph glyph-name="Ccircumflex" unicode="&#x0108;" horiz-adv-x="1266" d="M664 278C528 278 458 375 458 562L458 881C458 1067 527 1165 658 1165C776 1165 850 1064 850 903L1223 903C1223 1265 1020 1472 666 1472C295 1472 75 1252 75 881L75 562C75 191 295 -29 666 -29C1020 -29 1225 178 1225 534L852 534C852 376 780 278 664 278ZM798 1946L468 1946L193 1596L491 1596L623 1786L643 1786L775 1596L1073 1596Z" />
<glyph glyph-name="ccircumflex" unicode="&#x0109;" horiz-adv-x="1266" d="M1168 701C1144 999 977 1144 656 1144C308 1144 123 959 123 609L123 509C123 159 308 -26 656 -26C976 -26 1146 117 1168 404L823 404C806 290 760 246 656 246C541 246 478 346 478 529L478 589C478 772 541 872 656 872C759 872 808 823 823 701ZM468 1632L205 1267L514 1267L635 1464L655 1464L776 1267L1085 1267L822 1632Z" />
<glyph glyph-name="Cdotaccent" unicode="&#x010a;" horiz-adv-x="1266" d="M664 278C528 278 458 375 458 562L458 881C458 1067 527 1165 658 1165C776 1165 850 1064 850 903L1223 903C1223 1265 1020 1472 666 1472C295 1472 75 1252 75 881L75 562C75 191 295 -29 666 -29C1020 -29 1225 178 1225 534L852 534C852 376 780 278 664 278ZM633 1571C734 1571 816 1653 816 1754C816 1855 734 1937 633 1937C532 1937 450 1855 450 1754C450 1653 532 1571 633 1571Z" />
<glyph glyph-name="cdotaccent" unicode="&#x010b;" horiz-adv-x="1266" d="M1168 701C1144 999 977 1144 656 1144C308 1144 123 959 123 609L123 509C123 159 308 -26 656 -26C976 -26 1146 117 1168 404L823 404C806 290 760 246 656 246C541 246 478 346 478 529L478 589C478 772 541 872 656 872C759 872 808 823 823 701ZM646 1272C747 1272 829 1354 829 1455C829 1556 747 1638 646 1638C545 1638 463 1556 463 1455C463 1354 545 1272 646 1272Z" />
<glyph glyph-name="Ccaron" unicode="&#x010c;" horiz-adv-x="1266" d="M1073 1935L775 1935L643 1745L623 1745L491 1935L193 1935L468 1585L798 1585ZM458 881C458 1067 527 1165 658 1165C776 1165 850 1064 850 903L1223 903C1223 1265 1020 1472 666 1472C295 1472 75 1252 75 881L75 562C75 191 295 -29 666 -29C1020 -29 1225 178 1225 534L852 534C852 376 780 278 664 278C528 278 458 375 458 562Z" />
<glyph glyph-name="ccaron" unicode="&#x010d;" horiz-adv-x="1266" d="M822 1296L1085 1661L776 1661L655 1464L635 1464L514 1661L205 1661L468 1296ZM1168 701C1144 999 977 1144 656 1144C308 1144 123 959 123 609L123 509C123 159 308 -26 656 -26C976 -26 1146 117 1168 404L823 404C806 290 760 246 656 246C541 246 478 346 478 529L478 589C478 772 541 872 656 872C759 872 808 823 823 701Z" />
<glyph glyph-name="Dcaron" unicode="&#x010e;" horiz-adv-x="1266" d="M1021 1935L723 1935L591 1745L571 1745L439 1935L141 1935L416 1585L746 1585ZM458 1148L543 1148C744 1148 840 1012 840 729C840 427 750 295 543 295L458 295ZM91 1443L91 0L599 0C1004 0 1214 251 1214 736C1214 1197 1000 1443 599 1443Z" />
<glyph glyph-name="dcaron" unicode="&#x010f;" horiz-adv-x="1266" d="M336 652C336 798 375 856 474 856C573 856 612 798 612 652L612 474C612 328 573 270 474 270C375 270 336 328 336 474ZM655 204L655 0L944 0L944 1530L653 1530L653 914L631 914C602 1056 501 1132 361 1132C125 1132 33 987 33 649L33 466C33 128 125 -17 361 -17C505 -17 607 60 633 204ZM1011 1530L1011 1020L1234 1020L1266 1530Z" />
<glyph glyph-name="Dcroat" unicode="&#x0110;" horiz-adv-x="1266" d="M494 274L494 600L753 600L753 852L494 852L494 1169L556 1169C764 1169 859 1032 859 729C859 402 777 274 566 274ZM167 1443L167 852L33 852L33 600L167 600L167 0L600 0C1005 0 1215 251 1215 736C1215 1197 1001 1443 600 1443Z" />
<glyph glyph-name="dcroat" unicode="&#x0111;" horiz-adv-x="1266" d="M788 464C788 341 723 270 610 270C497 270 432 341 432 464L432 662C432 785 497 856 610 856C723 856 788 785 788 662ZM1266 1410L1150 1410L1150 1530L779 1530L779 1410L672 1410L672 1246L779 1246L779 914L757 914C728 1054 622 1132 462 1132C208 1132 70 962 70 649L70 466C70 153 208 -17 462 -17C628 -17 734 62 759 204L781 204L781 0L1150 0L1150 1246L1266 1246Z" />
<glyph glyph-name="Emacron" unicode="&#x0112;" horiz-adv-x="1266" d="M1128 295L541 295L541 590L1091 590L1091 860L541 860L541 1148L1128 1148L1128 1443L174 1443L174 0L1128 0ZM1033 1632L1033 1844L269 1844L269 1632Z" />
<glyph glyph-name="emacron" unicode="&#x0113;" horiz-adv-x="1266" d="M647 888C756 888 821 810 821 681L467 681C467 810 534 888 647 888ZM830 328C818 269 742 225 653 225C542 225 467 299 467 409L467 478L1158 478L1158 658C1158 944 954 1139 655 1139C336 1139 123 945 123 654L123 470C123 154 316 -26 655 -26C932 -26 1145 124 1160 328ZM1023 1347L1023 1559L259 1559L259 1347Z" />
<glyph glyph-name="Ebreve" unicode="&#x0114;" horiz-adv-x="1266" d="M1128 295L541 295L541 590L1091 590L1091 860L541 860L541 1148L1128 1148L1128 1443L174 1443L174 0L1128 0ZM233 1932C233 1725 393 1581 651 1581C909 1581 1069 1725 1069 1932L833 1932C830 1833 760 1771 651 1771C542 1771 472 1833 469 1932Z" />
<glyph glyph-name="ebreve" unicode="&#x0115;" horiz-adv-x="1266" d="M647 888C756 888 821 810 821 681L467 681C467 810 534 888 647 888ZM830 328C818 269 742 225 653 225C542 225 467 299 467 409L467 478L1158 478L1158 658C1158 944 954 1139 655 1139C336 1139 123 945 123 654L123 470C123 154 316 -26 655 -26C932 -26 1145 124 1160 328ZM642 1466C538 1466 472 1529 469 1629L225 1629C225 1407 391 1260 642 1260C893 1260 1059 1407 1059 1629L815 1629C812 1529 746 1466 642 1466Z" />
<glyph glyph-name="Edotaccent" unicode="&#x0116;" horiz-adv-x="1266" d="M1128 295L541 295L541 590L1091 590L1091 860L541 860L541 1148L1128 1148L1128 1443L174 1443L174 0L1128 0ZM661 1571C762 1571 844 1653 844 1754C844 1855 762 1937 661 1937C560 1937 478 1855 478 1754C478 1653 560 1571 661 1571Z" />
<glyph glyph-name="edotaccent" unicode="&#x0117;" horiz-adv-x="1266" d="M647 888C756 888 821 810 821 681L467 681C467 810 534 888 647 888ZM830 328C818 269 742 225 653 225C542 225 467 299 467 409L467 478L1158 478L1158 658C1158 944 954 1139 655 1139C336 1139 123 945 123 654L123 470C123 154 316 -26 655 -26C932 -26 1145 124 1160 328ZM642 1272C743 1272 825 1354 825 1455C825 1556 743 1638 642 1638C541 1638 459 1556 459 1455C459 1354 541 1272 642 1272Z" />
<glyph glyph-name="Eogonek" unicode="&#x0118;" horiz-adv-x="1266" d="M811 0L811 -19C726 -77 681 -156 681 -248C681 -386 794 -479 962 -479C1021 -479 1084 -469 1128 -453L1128 -277C1112 -281 1079 -285 1058 -285C986 -285 937 -244 937 -183C937 -108 1001 -42 1111 -3L1128 3L1128 295L541 295L541 590L1091 590L1091 860L541 860L541 1148L1128 1148L1128 1443L174 1443L174 0Z" />
<glyph glyph-name="eogonek" unicode="&#x0119;" horiz-adv-x="1266" d="M867 -479C930 -479 984 -471 1023 -456L1023 -277C1013 -282 986 -285 952 -285C874 -285 831 -249 831 -182C831 -122 875 -58 984 39C1091 134 1154 237 1160 328L830 328C818 269 742 225 653 225C542 225 467 299 467 409L467 478L1158 478L1158 658C1158 944 954 1139 655 1139C336 1139 123 945 123 654L123 470C123 156 304 -26 615 -26C651 -26 685 -24 707 -21L707 -40C628 -82 575 -166 575 -248C575 -384 695 -479 867 -479ZM647 888C756 888 821 810 821 681L467 681C467 810 534 888 647 888Z" />
<glyph glyph-name="Ecaron" unicode="&#x011a;" horiz-adv-x="1266" d="M1091 1935L793 1935L661 1745L641 1745L509 1935L211 1935L486 1585L816 1585ZM1128 295L541 295L541 590L1091 590L1091 860L541 860L541 1148L1128 1148L1128 1443L174 1443L174 0L1128 0Z" />
<glyph glyph-name="ecaron" unicode="&#x011b;" horiz-adv-x="1266" d="M818 1296L1081 1661L772 1661L651 1464L631 1464L510 1661L201 1661L464 1296ZM830 328C818 269 742 225 653 225C542 225 467 299 467 409L467 478L1158 478L1158 658C1158 944 954 1139 655 1139C336 1139 123 945 123 654L123 470C123 154 316 -26 655 -26C932 -26 1145 124 1160 328ZM467 681C467 810 534 888 647 888C756 888 821 810 821 681Z" />
<glyph glyph-name="Gcircumflex" unicode="&#x011c;" horiz-adv-x="1266" d="M842 491C842 356 773 278 655 278C517 278 448 373 448 562L448 881C448 1069 516 1165 649 1165C758 1165 833 1082 840 952L1213 952C1205 1275 995 1472 661 1472C292 1472 75 1254 75 881L75 562C75 189 292 -29 661 -29C1000 -29 1215 172 1215 491L1215 787L622 787L622 535L842 535ZM805 1946L475 1946L200 1596L498 1596L630 1786L650 1786L782 1596L1080 1596Z" />
<glyph glyph-name="gcircumflex" unicode="&#x011d;" horiz-adv-x="1266" d="M426 497L426 662C426 782 498 856 614 856C730 856 802 782 802 662L802 497C802 377 730 303 614 303C498 303 426 377 426 497ZM603 -419C947 -419 1164 -256 1164 2L1164 1113L819 1113L819 914L797 914C770 1044 643 1132 481 1132C209 1132 63 963 63 649L63 499C63 189 205 16 461 16C630 16 764 107 788 237L810 237L810 -8C810 -125 742 -184 608 -184C504 -184 432 -147 417 -86L73 -86C88 -292 290 -419 603 -419ZM436 1632L173 1267L482 1267L603 1464L623 1464L744 1267L1053 1267L790 1632Z" />
<glyph glyph-name="Gbreve" unicode="&#x011e;" horiz-adv-x="1266" d="M842 491C842 356 773 278 655 278C517 278 448 373 448 562L448 881C448 1069 516 1165 649 1165C758 1165 833 1082 840 952L1213 952C1205 1275 995 1472 661 1472C292 1472 75 1254 75 881L75 562C75 189 292 -29 661 -29C1000 -29 1215 172 1215 491L1215 787L622 787L622 535L842 535ZM222 1932C222 1725 382 1581 640 1581C898 1581 1058 1725 1058 1932L822 1932C819 1833 749 1771 640 1771C531 1771 461 1833 458 1932Z" />
<glyph glyph-name="gbreve" unicode="&#x011f;" horiz-adv-x="1266" d="M426 497L426 662C426 782 498 856 614 856C730 856 802 782 802 662L802 497C802 377 730 303 614 303C498 303 426 377 426 497ZM603 -419C947 -419 1164 -256 1164 2L1164 1113L819 1113L819 914L797 914C770 1044 643 1132 481 1132C209 1132 63 963 63 649L63 499C63 189 205 16 461 16C630 16 764 107 788 237L810 237L810 -8C810 -125 742 -184 608 -184C504 -184 432 -147 417 -86L73 -86C88 -292 290 -419 603 -419ZM614 1466C510 1466 444 1529 441 1629L197 1629C197 1407 363 1260 614 1260C865 1260 1031 1407 1031 1629L787 1629C784 1529 718 1466 614 1466Z" />
<glyph glyph-name="Gdotaccent" unicode="&#x0120;" horiz-adv-x="1266" d="M842 491C842 356 773 278 655 278C517 278 448 373 448 562L448 881C448 1069 516 1165 649 1165C758 1165 833 1082 840 952L1213 952C1205 1275 995 1472 661 1472C292 1472 75 1254 75 881L75 562C75 189 292 -29 661 -29C1000 -29 1215 172 1215 491L1215 787L622 787L622 535L842 535ZM640 1571C741 1571 823 1653 823 1754C823 1855 741 1937 640 1937C539 1937 457 1855 457 1754C457 1653 539 1571 640 1571Z" />
<glyph glyph-name="gdotaccent" unicode="&#x0121;" horiz-adv-x="1266" d="M426 497L426 662C426 782 498 856 614 856C730 856 802 782 802 662L802 497C802 377 730 303 614 303C498 303 426 377 426 497ZM603 -419C947 -419 1164 -256 1164 2L1164 1113L819 1113L819 914L797 914C770 1044 643 1132 481 1132C209 1132 63 963 63 649L63 499C63 189 205 16 461 16C630 16 764 107 788 237L810 237L810 -8C810 -125 742 -184 608 -184C504 -184 432 -147 417 -86L73 -86C88 -292 290 -419 603 -419ZM614 1272C715 1272 797 1354 797 1455C797 1556 715 1638 614 1638C513 1638 431 1556 431 1455C431 1354 513 1272 614 1272Z" />
<glyph glyph-name="Gcommaaccent" unicode="&#x0122;" horiz-adv-x="1266" d="M842 491C842 356 773 278 655 278C517 278 448 373 448 562L448 881C448 1069 516 1165 649 1165C758 1165 833 1082 840 952L1213 952C1205 1275 995 1472 661 1472C292 1472 75 1254 75 881L75 562C75 189 292 -29 661 -29C1000 -29 1215 172 1215 491L1215 787L622 787L622 535L842 535ZM675 -504L867 -154L517 -154L369 -504Z" />
<glyph glyph-name="gcommaaccent" unicode="&#x0123;" horiz-adv-x="1266" d="M426 497L426 662C426 782 498 856 614 856C730 856 802 782 802 662L802 497C802 377 730 303 614 303C498 303 426 377 426 497ZM603 -419C947 -419 1164 -256 1164 2L1164 1113L819 1113L819 914L797 914C770 1044 643 1132 481 1132C209 1132 63 963 63 649L63 499C63 189 205 16 461 16C630 16 764 107 788 237L810 237L810 -8C810 -125 742 -184 608 -184C504 -184 432 -147 417 -86L73 -86C88 -292 290 -419 603 -419ZM618 1642L426 1292L776 1292L924 1642Z" />
<glyph glyph-name="Hcircumflex" unicode="&#x0124;" horiz-adv-x="1266" d="M1175 0L1175 1443L817 1443L817 877L449 877L449 1443L91 1443L91 0L449 0L449 582L817 582L817 0ZM798 1946L468 1946L193 1596L491 1596L623 1786L643 1786L775 1596L1073 1596Z" />
<glyph glyph-name="hcircumflex" unicode="&#x0125;" horiz-adv-x="1266" d="M99 0L452 0L452 631C452 764 524 846 640 846C756 846 815 775 815 635L815 0L1168 0L1168 715C1168 985 1034 1134 792 1134C634 1134 513 1058 464 928L445 928L445 1530L99 1530ZM91 1950L-172 1585L137 1585L258 1782L278 1782L399 1585L708 1585L445 1950Z" />
<glyph glyph-name="Hbar" unicode="&#x0126;" horiz-adv-x="1266" d="M485 869L485 1056L775 1056L775 869ZM498 582L762 582L762 0L1129 0L1129 1047L1224 1047L1224 1278L1129 1278L1129 1443L762 1443L762 1278L498 1278L498 1443L131 1443L131 1278L42 1278L42 1047L131 1047L131 0L498 0Z" />
<glyph glyph-name="hbar" unicode="&#x0127;" horiz-adv-x="1266" d="M445 928L445 1246L708 1246L708 1410L445 1410L445 1530L99 1530L99 1410L0 1410L0 1246L99 1246L99 0L452 0L452 631C452 764 524 846 640 846C756 846 815 775 815 635L815 0L1168 0L1168 715C1168 985 1034 1134 792 1134C634 1134 513 1058 464 928Z" />
<glyph glyph-name="Itilde" unicode="&#x0128;" horiz-adv-x="1266" d="M1120 0L1120 295L816 295L816 1148L1120 1148L1120 1443L146 1443L146 1148L450 1148L450 295L146 295L146 0ZM797 1577C944 1577 1054 1692 1054 1893L846 1893C842 1807 809 1778 763 1778C678 1778 634 1905 469 1905C322 1905 212 1790 212 1585L421 1585C424 1671 456 1704 503 1704C593 1704 635 1577 797 1577Z" />
<glyph glyph-name="itilde" unicode="&#x0129;" horiz-adv-x="1266" d="M1130 0L1130 264L817 264L817 1113L165 1113L165 849L476 849L476 264L136 264L136 0ZM522 1405C597 1405 648 1270 789 1270C953 1270 1067 1409 1067 1607L848 1607C847 1532 817 1483 771 1483C696 1483 645 1618 504 1618C341 1618 226 1477 226 1275L445 1275C446 1352 477 1405 522 1405Z" />
<glyph glyph-name="Imacron" unicode="&#x012a;" horiz-adv-x="1266" d="M1120 0L1120 295L816 295L816 1148L1120 1148L1120 1443L146 1443L146 1148L450 1148L450 295L146 295L146 0ZM1015 1632L1015 1844L251 1844L251 1632Z" />
<glyph glyph-name="imacron" unicode="&#x012b;" horiz-adv-x="1266" d="M1130 0L1130 264L817 264L817 1113L165 1113L165 849L476 849L476 264L136 264L136 0ZM1027 1347L1027 1559L263 1559L263 1347Z" />
<glyph glyph-name="Ibreve" unicode="&#x012c;" horiz-adv-x="1266" d="M1120 0L1120 295L816 295L816 1148L1120 1148L1120 1443L146 1443L146 1148L450 1148L450 295L146 295L146 0ZM215 1932C215 1725 375 1581 633 1581C891 1581 1051 1725 1051 1932L815 1932C812 1833 742 1771 633 1771C524 1771 454 1833 451 1932Z" />
<glyph glyph-name="ibreve" unicode="&#x012d;" horiz-adv-x="1266" d="M1130 0L1130 264L817 264L817 1113L165 1113L165 849L476 849L476 264L136 264L136 0ZM657 1456C553 1456 487 1519 484 1619L240 1619C240 1397 406 1250 657 1250C908 1250 1074 1397 1074 1619L830 1619C827 1519 761 1456 657 1456Z" />
<glyph glyph-name="Iogonek" unicode="&#x012e;" horiz-adv-x="1266" d="M1120 1148L1120 1443L146 1443L146 1148L450 1148L450 295L146 295L146 0L883 0C773 -57 711 -156 711 -272C711 -387 818 -479 951 -479C1003 -479 1067 -468 1119 -451L1119 -263C1100 -270 1081 -272 1045 -272C983 -272 949 -241 949 -185C949 -117 1010 -51 1120 0L1120 295L816 295L816 1148Z" />
<glyph glyph-name="iogonek" unicode="&#x012f;" horiz-adv-x="1266" d="M647 1314C784 1314 870 1388 870 1507C870 1626 784 1700 647 1700C510 1700 424 1626 424 1507C424 1388 510 1314 647 1314ZM1130 264L817 264L817 1113L165 1113L165 849L476 849L476 264L136 264L136 0L894 0C777 -76 722 -163 722 -271C722 -400 813 -479 962 -479C1034 -479 1091 -472 1130 -458L1130 -263C1108 -269 1086 -272 1056 -272C995 -272 960 -241 960 -185C960 -116 1011 -60 1130 0Z" />
<glyph glyph-name="Idotaccent" unicode="&#x0130;" horiz-adv-x="1266" d="M1120 0L1120 295L816 295L816 1148L1120 1148L1120 1443L146 1443L146 1148L450 1148L450 295L146 295L146 0ZM633 1571C734 1571 816 1653 816 1754C816 1855 734 1937 633 1937C532 1937 450 1855 450 1754C450 1653 532 1571 633 1571Z" />
<glyph glyph-name="dotlessi" unicode="&#x0131;" horiz-adv-x="1266" d="M1130 0L1130 264L817 264L817 1113L165 1113L165 849L476 849L476 264L136 264L136 0Z" />
<glyph glyph-name="IJ" unicode="&#x0132;" horiz-adv-x="1266" d="M393 0L393 1443L57 1443L57 0ZM832 -39C1084 -39 1209 115 1209 425L1209 1443L539 1443L539 1148L872 1148L872 458C872 310 861 272 818 272C777 272 763 318 762 458L440 458C440 121 566 -39 832 -39Z" />
<glyph glyph-name="ij" unicode="&#x0133;" horiz-adv-x="1266" d="M510 0L510 1113L183 1113L183 0ZM1119 1113L792 1113L792 28C792 -62 746 -108 655 -108L370 -108L370 -378L655 -378C997 -378 1119 -261 1119 67ZM948 1314C1085 1314 1171 1388 1171 1507C1171 1626 1085 1700 948 1700C811 1700 725 1626 725 1507C725 1388 811 1314 948 1314ZM343 1314C480 1314 566 1388 566 1507C566 1626 480 1700 343 1700C206 1700 120 1626 120 1507C120 1388 206 1314 343 1314Z" />
<glyph glyph-name="Jcircumflex" unicode="&#x0134;" horiz-adv-x="1266" d="M593 -29C926 -29 1120 156 1120 475L1120 1443L218 1443L218 1148L753 1148L753 478C753 350 695 282 587 282C482 282 414 354 413 468L61 468C61 163 266 -29 593 -29ZM819 1946L489 1946L214 1596L512 1596L644 1786L664 1786L796 1596L1094 1596Z" />
<glyph glyph-name="jcircumflex" unicode="&#x0135;" horiz-adv-x="1266" d="M928 1113L165 1113L165 849L587 849L587 52C587 -38 541 -84 450 -84L165 -84L165 -378L464 -378C806 -378 928 -261 928 67ZM581 1632L318 1267L627 1267L748 1464L768 1464L889 1267L1198 1267L935 1632Z" />
<glyph glyph-name="Kcommaaccent" unicode="&#x0136;" horiz-adv-x="1266" d="M457 0L457 408L567 561L891 0L1308 0L822 806L1291 1443L919 1443L475 823L457 823L457 1443L114 1443L114 0ZM683 -504L875 -154L525 -154L377 -504Z" />
<glyph glyph-name="kcommaaccent" unicode="&#x0137;" horiz-adv-x="1266" d="M354 -494L660 -494L852 -144L502 -144ZM836 636L1232 1113L836 1113L520 697L501 697L501 1530L148 1530L148 0L501 0L501 349L571 429L852 0L1259 0Z" />
<glyph glyph-name="Lacute" unicode="&#x0139;" horiz-adv-x="1266" d="M1161 303L568 303L568 1443L207 1443L207 0L1161 0ZM229 1596L545 1596L849 1922L487 1922Z" />
<glyph glyph-name="lacute" unicode="&#x013a;" horiz-adv-x="1266" d="M796 1713L1088 2075L715 2075L472 1713ZM1130 0L1130 264L823 264L823 1530L165 1530L165 1266L470 1266L470 264L136 264L136 0Z" />
<glyph glyph-name="Lcommaaccent" unicode="&#x013b;" horiz-adv-x="1266" d="M1161 303L568 303L568 1443L207 1443L207 0L1161 0ZM727 -504L919 -154L569 -154L421 -504Z" />
<glyph glyph-name="lcommaaccent" unicode="&#x013c;" horiz-adv-x="1266" d="M1130 0L1130 264L823 264L823 1530L165 1530L165 1266L470 1266L470 264L136 264L136 0ZM620 -494L812 -144L462 -144L314 -494Z" />
<glyph glyph-name="Lcaron" unicode="&#x013d;" horiz-adv-x="1266" d="M780 1443L780 932L1016 932L1066 1443ZM1161 303L568 303L568 1443L207 1443L207 0L1161 0Z" />
<glyph glyph-name="lcaron" unicode="&#x013e;" horiz-adv-x="1266" d="M972 1530L972 1020L1216 1020L1266 1530ZM1130 0L1130 264L823 264L823 1530L165 1530L165 1266L470 1266L470 264L136 264L136 0Z" />
<glyph glyph-name="Ldot" unicode="&#x013f;" horiz-adv-x="1266" d="M1161 303L568 303L568 1443L207 1443L207 0L1161 0ZM966 788C1067 788 1149 870 1149 971C1149 1072 1067 1154 966 1154C865 1154 783 1072 783 971C783 870 865 788 966 788Z" />
<glyph glyph-name="ldot" unicode="&#x0140;" horiz-adv-x="1266" d="M1130 0L1130 264L823 264L823 1530L165 1530L165 1266L470 1266L470 264L136 264L136 0ZM1123 788C1224 788 1306 870 1306 971C1306 1072 1224 1154 1123 1154C1022 1154 940 1072 940 971C940 870 1022 788 1123 788Z" />
<glyph glyph-name="Lslash" unicode="&#x0141;" horiz-adv-x="1266" d="M568 303L568 653L1078 921L1078 1201L568 933L568 1443L207 1443L207 743L86 679L86 399L207 463L207 0L1161 0L1161 303Z" />
<glyph glyph-name="lslash" unicode="&#x0142;" horiz-adv-x="1266" d="M823 264L823 761L1127 921L1127 1201L823 1041L823 1530L165 1530L165 1266L470 1266L470 855L135 679L135 399L470 575L470 264L136 264L136 0L1130 0L1130 264Z" />
<glyph glyph-name="Nacute" unicode="&#x0143;" horiz-adv-x="1266" d="M419 0L419 870L438 870L842 0L1158 0L1158 1443L847 1443L847 581L828 581L424 1443L108 1443L108 0ZM474 1596L790 1596L1094 1922L732 1922Z" />
<glyph glyph-name="nacute" unicode="&#x0144;" horiz-adv-x="1266" d="M765 1296L1057 1658L684 1658L441 1296ZM105 0L458 0L458 636C458 769 526 850 637 850C752 850 807 782 807 640L807 0L1161 0L1161 719C1161 993 1031 1139 789 1139C635 1139 519 1064 468 932L449 932L449 1113L105 1113Z" />
<glyph glyph-name="Ncommaaccent" unicode="&#x0145;" horiz-adv-x="1266" d="M419 0L419 870L438 870L842 0L1158 0L1158 1443L847 1443L847 581L828 581L424 1443L108 1443L108 0ZM622 -504L814 -154L464 -154L316 -504Z" />
<glyph glyph-name="ncommaaccent" unicode="&#x0146;" horiz-adv-x="1266" d="M105 0L458 0L458 636C458 769 526 850 637 850C752 850 807 782 807 640L807 0L1161 0L1161 719C1161 993 1031 1139 789 1139C635 1139 519 1064 468 932L449 932L449 1113L105 1113ZM617 -494L809 -144L459 -144L311 -494Z" />
<glyph glyph-name="Ncaron" unicode="&#x0147;" horiz-adv-x="1266" d="M1073 1935L775 1935L643 1745L623 1745L491 1935L193 1935L468 1585L798 1585ZM419 0L419 870L438 870L842 0L1158 0L1158 1443L847 1443L847 581L828 581L424 1443L108 1443L108 0Z" />
<glyph glyph-name="ncaron" unicode="&#x0148;" horiz-adv-x="1266" d="M809 1296L1072 1661L763 1661L642 1464L622 1464L501 1661L192 1661L455 1296ZM105 0L458 0L458 636C458 769 526 850 637 850C752 850 807 782 807 640L807 0L1161 0L1161 719C1161 993 1031 1139 789 1139C635 1139 519 1064 468 932L449 932L449 1113L105 1113Z" />
<glyph glyph-name="Omacron" unicode="&#x014c;" horiz-adv-x="1266" d="M1208 615L1208 828C1208 1231 993 1472 633 1472C273 1472 58 1231 58 828L58 615C58 212 273 -29 633 -29C993 -29 1208 212 1208 615ZM633 275C494 275 431 383 431 619L431 824C431 1060 494 1168 633 1168C772 1168 835 1060 835 824L835 619C835 383 772 275 633 275ZM1015 1632L1015 1844L251 1844L251 1632Z" />
<glyph glyph-name="omacron" unicode="&#x014d;" horiz-adv-x="1266" d="M633 -26C963 -26 1169 164 1169 469L1169 644C1169 949 963 1139 633 1139C303 1139 97 949 97 644L97 469C97 164 303 -26 633 -26ZM633 872C750 872 823 780 823 635L823 478C823 333 750 241 633 241C516 241 443 333 443 478L443 635C443 780 516 872 633 872ZM1014 1347L1014 1559L250 1559L250 1347Z" />
<glyph glyph-name="Obreve" unicode="&#x014e;" horiz-adv-x="1266" d="M1208 615L1208 828C1208 1231 993 1472 633 1472C273 1472 58 1231 58 828L58 615C58 212 273 -29 633 -29C993 -29 1208 212 1208 615ZM633 275C494 275 431 383 431 619L431 824C431 1060 494 1168 633 1168C772 1168 835 1060 835 824L835 619C835 383 772 275 633 275ZM215 1932C215 1725 375 1581 633 1581C891 1581 1051 1725 1051 1932L815 1932C812 1833 742 1771 633 1771C524 1771 454 1833 451 1932Z" />
<glyph glyph-name="obreve" unicode="&#x014f;" horiz-adv-x="1266" d="M633 -26C963 -26 1169 164 1169 469L1169 644C1169 949 963 1139 633 1139C303 1139 97 949 97 644L97 469C97 164 303 -26 633 -26ZM633 872C750 872 823 780 823 635L823 478C823 333 750 241 633 241C516 241 443 333 443 478L443 635C443 780 516 872 633 872ZM633 1466C529 1466 463 1529 460 1629L216 1629C216 1407 382 1260 633 1260C884 1260 1050 1407 1050 1629L806 1629C803 1529 737 1466 633 1466Z" />
<glyph glyph-name="Ohungarumlaut" unicode="&#x0150;" horiz-adv-x="1266" d="M1208 615L1208 828C1208 1231 993 1472 633 1472C273 1472 58 1231 58 828L58 615C58 212 273 -29 633 -29C993 -29 1208 212 1208 615ZM633 275C494 275 431 383 431 619L431 824C431 1060 494 1168 633 1168C772 1168 835 1060 835 824L835 619C835 383 772 275 633 275ZM712 1596L977 1596L1225 1922L933 1922ZM263 1596L528 1596L776 1922L483 1922Z" />
<glyph glyph-name="ohungarumlaut" unicode="&#x0151;" horiz-adv-x="1266" d="M633 -26C963 -26 1169 164 1169 469L1169 644C1169 949 963 1139 633 1139C303 1139 97 949 97 644L97 469C97 164 303 -26 633 -26ZM633 872C750 872 823 780 823 635L823 478C823 333 750 241 633 241C516 241 443 333 443 478L443 635C443 780 516 872 633 872ZM728 1296L989 1296L1194 1659L903 1659ZM276 1296L536 1296L741 1659L450 1659Z" />
<glyph glyph-name="OE" unicode="&#x0152;" horiz-adv-x="1266" d="M382 789C382 1001 421 1085 520 1085C631 1085 668 1011 668 789L668 654C668 432 631 358 520 358C421 358 382 442 382 654ZM678 205L693 205L693 0L1266 0L1266 323L974 323L974 572L1229 572L1229 872L974 872L974 1119L1266 1119L1266 1443L693 1443L693 1228L678 1228C636 1403 559 1477 394 1477C154 1477 50 1281 50 832L50 611C50 162 154 -34 394 -34C562 -34 638 36 678 205Z" />
<glyph glyph-name="oe" unicode="&#x0153;" horiz-adv-x="1266" d="M805 705C798 804 833 869 893 869C949 869 980 805 973 705ZM527 444C527 299 501 243 432 243C370 243 337 312 337 444L337 671C337 803 370 872 432 872C501 872 527 816 527 671ZM999 366C979 283 947 243 900 243C840 243 806 308 802 429L1242 429L1242 597C1242 934 1120 1134 915 1134C819 1134 725 1090 669 1019C604 1097 523 1134 419 1134C188 1134 70 976 70 667L70 443C70 142 189 -20 412 -20C514 -20 595 18 660 97C725 17 801 -20 902 -20C1074 -20 1210 132 1247 366Z" />
<glyph glyph-name="Racute" unicode="&#x0154;" horiz-adv-x="1266" d="M480 1166L615 1166C749 1166 831 1090 831 968C831 843 748 764 616 764L480 764ZM589 505L832 0L1244 0L960 559C1111 625 1206 782 1206 967C1206 1265 1004 1443 667 1443L113 1443L113 0L480 0L480 505ZM389 1596L705 1596L1009 1922L647 1922Z" />
<glyph glyph-name="racute" unicode="&#x0155;" horiz-adv-x="1266" d="M1174 1658L801 1658L558 1296L882 1296ZM633 827L633 1113L71 1113L71 873L293 873L293 240L91 240L91 0L936 0L936 240L629 240L629 491C629 705 744 794 1020 794C1084 794 1158 781 1207 761L1207 1121C1165 1136 1112 1143 1050 1143C844 1143 747 1057 692 827Z" />
<glyph glyph-name="Rcommaaccent" unicode="&#x0156;" horiz-adv-x="1266" d="M480 1166L615 1166C749 1166 831 1090 831 968C831 843 748 764 616 764L480 764ZM589 505L832 0L1244 0L960 559C1111 625 1206 782 1206 967C1206 1265 1004 1443 667 1443L113 1443L113 0L480 0L480 505ZM698 -503L890 -153L540 -153L392 -503Z" />
<glyph glyph-name="rcommaaccent" unicode="&#x0157;" horiz-adv-x="1266" d="M187 -504L493 -504L685 -154L335 -154ZM633 827L633 1113L71 1113L71 873L293 873L293 240L91 240L91 0L936 0L936 240L629 240L629 491C629 705 744 794 1020 794C1084 794 1158 781 1207 761L1207 1121C1165 1136 1112 1143 1050 1143C844 1143 747 1057 692 827Z" />
<glyph glyph-name="Rcaron" unicode="&#x0158;" horiz-adv-x="1266" d="M988 1935L690 1935L558 1745L538 1745L406 1935L108 1935L383 1585L713 1585ZM589 505L832 0L1244 0L960 559C1111 625 1206 782 1206 967C1206 1265 1004 1443 667 1443L113 1443L113 0L480 0L480 505ZM480 1166L615 1166C749 1166 831 1090 831 968C831 843 748 764 616 764L480 764Z" />
<glyph glyph-name="rcaron" unicode="&#x0159;" horiz-adv-x="1266" d="M823 1296L1086 1661L777 1661L656 1464L636 1464L515 1661L206 1661L469 1296ZM633 827L633 1113L71 1113L71 873L293 873L293 240L91 240L91 0L936 0L936 240L629 240L629 491C629 705 744 794 1020 794C1084 794 1158 781 1207 761L1207 1121C1165 1136 1112 1143 1050 1143C844 1143 747 1057 692 827Z" />
<glyph glyph-name="Sacute" unicode="&#x015a;" horiz-adv-x="1266" d="M62 416C68 137 280 -29 630 -29C993 -29 1204 147 1204 449C1204 671 1079 798 801 856L636 891C505 918 453 964 453 1052C453 1137 524 1191 636 1191C754 1191 830 1128 836 1027L1177 1027C1172 1295 955 1472 632 1472C300 1472 91 1293 91 1010C91 793 224 650 480 595L651 558C796 527 845 489 845 408C845 312 766 253 638 253C494 253 412 310 403 416ZM474 1596L790 1596L1094 1922L732 1922Z" />
<glyph glyph-name="sacute" unicode="&#x015b;" horiz-adv-x="1266" d="M765 1296L1057 1658L684 1658L441 1296ZM643 402C742 382 775 360 775 313C775 260 721 225 636 225C542 225 485 258 474 319L129 319C141 100 324 -25 633 -25C944 -25 1137 123 1137 360C1137 534 1036 630 803 675L618 711C533 728 495 757 495 804C495 856 549 893 627 893C710 893 767 856 774 796L1104 796C1097 1019 927 1143 628 1143C330 1143 148 1003 148 774C148 595 259 482 474 437Z" />
<glyph glyph-name="Scircumflex" unicode="&#x015c;" horiz-adv-x="1266" d="M62 416C68 137 280 -29 630 -29C993 -29 1204 147 1204 449C1204 671 1079 798 801 856L636 891C505 918 453 964 453 1052C453 1137 524 1191 636 1191C754 1191 830 1128 836 1027L1177 1027C1172 1295 955 1472 632 1472C300 1472 91 1293 91 1010C91 793 224 650 480 595L651 558C796 527 845 489 845 408C845 312 766 253 638 253C494 253 412 310 403 416ZM798 1946L468 1946L193 1596L491 1596L623 1786L643 1786L775 1596L1073 1596Z" />
<glyph glyph-name="scircumflex" unicode="&#x015d;" horiz-adv-x="1266" d="M148 774C148 595 259 482 474 437L643 402C742 382 775 360 775 313C775 260 721 225 636 225C542 225 485 258 474 319L129 319C141 100 324 -25 633 -25C944 -25 1137 123 1137 360C1137 534 1036 630 803 675L618 711C533 728 495 757 495 804C495 856 549 893 627 893C710 893 767 856 774 796L1104 796C1097 1019 927 1143 628 1143C330 1143 148 1003 148 774ZM455 1632L192 1267L501 1267L622 1464L642 1464L763 1267L1072 1267L809 1632Z" />
<glyph glyph-name="Scedilla" unicode="&#x015e;" horiz-adv-x="1266" d="M636 891C505 918 453 964 453 1052C453 1137 524 1191 636 1191C754 1191 830 1128 836 1027L1177 1027C1172 1295 955 1472 632 1472C300 1472 91 1293 91 1010C91 793 224 650 480 595L651 558C796 527 845 489 845 408C845 312 766 253 638 253C494 253 412 310 403 416L62 416C67 165 239 6 528 -24L492 -102L492 -239L552 -239C629 -239 663 -254 663 -289C663 -322 628 -338 560 -338C518 -338 469 -332 451 -324L451 -478C484 -486 539 -494 595 -494C776 -494 874 -418 874 -280C874 -168 813 -103 698 -92L729 -24C1031 5 1204 176 1204 449C1204 671 1079 798 801 856Z" />
<glyph glyph-name="scedilla" unicode="&#x015f;" horiz-adv-x="1266" d="M618 711C533 728 495 757 495 804C495 856 549 893 627 893C710 893 767 856 774 796L1104 796C1097 1019 927 1143 628 1143C330 1143 148 1003 148 774C148 595 259 482 474 437L643 402C742 382 775 360 775 313C775 260 721 225 636 225C542 225 485 258 474 319L129 319C139 133 272 15 501 -17L462 -102L462 -239L522 -239C599 -239 633 -254 633 -289C633 -322 598 -338 530 -338C488 -338 439 -332 421 -324L421 -478C454 -486 509 -494 565 -494C746 -494 844 -418 844 -280C844 -168 783 -103 668 -92L700 -23C971 -3 1137 140 1137 360C1137 534 1036 630 803 675Z" />
<glyph glyph-name="Scaron" unicode="&#x0160;" horiz-adv-x="1266" d="M1073 1935L775 1935L643 1745L623 1745L491 1935L193 1935L468 1585L798 1585ZM62 416C68 137 280 -29 630 -29C993 -29 1204 147 1204 449C1204 671 1079 798 801 856L636 891C505 918 453 964 453 1052C453 1137 524 1191 636 1191C754 1191 830 1128 836 1027L1177 1027C1172 1295 955 1472 632 1472C300 1472 91 1293 91 1010C91 793 224 650 480 595L651 558C796 527 845 489 845 408C845 312 766 253 638 253C494 253 412 310 403 416Z" />
<glyph glyph-name="scaron" unicode="&#x0161;" horiz-adv-x="1266" d="M809 1296L1072 1661L763 1661L642 1464L622 1464L501 1661L192 1661L455 1296ZM643 402C742 382 775 360 775 313C775 260 721 225 636 225C542 225 485 258 474 319L129 319C141 100 324 -25 633 -25C944 -25 1137 123 1137 360C1137 534 1036 630 803 675L618 711C533 728 495 757 495 804C495 856 549 893 627 893C710 893 767 856 774 796L1104 796C1097 1019 927 1143 628 1143C330 1143 148 1003 148 774C148 595 259 482 474 437Z" />
<glyph glyph-name="Tcedilla" unicode="&#x0162;" horiz-adv-x="1266" d="M816 0L816 1148L1212 1148L1212 1443L54 1443L54 1148L450 1148L450 0L539 0L492 -102L492 -239L552 -239C629 -239 663 -254 663 -289C663 -322 628 -338 560 -338C518 -338 469 -332 451 -324L451 -478C484 -486 539 -494 595 -494C776 -494 874 -418 874 -280C874 -168 813 -103 698 -92L740 0Z" />
<glyph glyph-name="tcedilla" unicode="&#x0163;" horiz-adv-x="1266" d="M794 0L1085 0L1085 259L833 259C765 259 725 296 725 358L725 835L1105 835L1105 1098L716 1098L716 1443L372 1443L372 1098L86 1098L86 835L372 835L372 364C372 151 439 52 608 16L554 -112L554 -239L614 -239C698 -239 734 -255 734 -292C734 -328 699 -345 627 -345C583 -345 532 -339 514 -331L514 -476C550 -487 606 -493 661 -493C840 -493 941 -418 941 -283C941 -174 876 -110 755 -101Z" />
<glyph glyph-name="Tcaron" unicode="&#x0164;" horiz-adv-x="1266" d="M1073 1935L775 1935L643 1745L623 1745L491 1935L193 1935L468 1585L798 1585ZM816 0L816 1148L1212 1148L1212 1443L54 1443L54 1148L450 1148L450 0Z" />
<glyph glyph-name="tcaron" unicode="&#x0165;" horiz-adv-x="1266" d="M1108 1230L1158 1741L864 1741L864 1230ZM372 1443L372 1098L86 1098L86 835L372 835L372 364C372 91 480 0 802 0L1085 0L1085 259L833 259C765 259 725 296 725 358L725 835L1105 835L1105 1098L716 1098L716 1443Z" />
<glyph glyph-name="Tbar" unicode="&#x0166;" horiz-adv-x="1266" d="M1212 1148L1212 1443L54 1443L54 1148L450 1148L450 804L178 804L178 557L450 557L450 0L816 0L816 557L1088 557L1088 804L816 804L816 1148Z" />
<glyph glyph-name="tbar" unicode="&#x0167;" horiz-adv-x="1266" d="M1105 835L1105 1098L716 1098L716 1443L372 1443L372 1098L86 1098L86 835L372 835L372 660L86 660L86 491L372 491L372 364C372 91 480 0 802 0L1085 0L1085 259L833 259C765 259 725 296 725 358L725 491L1105 491L1105 660L725 660L725 835Z" />
<glyph glyph-name="Utilde" unicode="&#x0168;" horiz-adv-x="1266" d="M633 280C508 280 442 369 442 537L442 1443L75 1443L75 517C75 172 280 -29 633 -29C986 -29 1191 172 1191 517L1191 1443L824 1443L824 537C824 369 758 280 633 280ZM797 1577C944 1577 1054 1692 1054 1893L846 1893C842 1807 809 1778 763 1778C678 1778 634 1905 469 1905C322 1905 212 1790 212 1585L421 1585C424 1671 456 1704 503 1704C593 1704 635 1577 797 1577Z" />
<glyph glyph-name="utilde" unicode="&#x0169;" horiz-adv-x="1266" d="M1161 1113L808 1113L808 477C808 344 740 263 629 263C514 263 459 331 459 473L459 1113L105 1113L105 394C105 120 235 -26 477 -26C631 -26 747 49 798 181L817 181L817 0L1161 0ZM508 1405C583 1405 634 1270 775 1270C939 1270 1053 1409 1053 1607L834 1607C833 1532 803 1483 757 1483C682 1483 631 1618 490 1618C327 1618 212 1477 212 1275L431 1275C432 1352 463 1405 508 1405Z" />
<glyph glyph-name="Umacron" unicode="&#x016a;" horiz-adv-x="1266" d="M633 280C508 280 442 369 442 537L442 1443L75 1443L75 517C75 172 280 -29 633 -29C986 -29 1191 172 1191 517L1191 1443L824 1443L824 537C824 369 758 280 633 280ZM1015 1632L1015 1844L251 1844L251 1632Z" />
<glyph glyph-name="umacron" unicode="&#x016b;" horiz-adv-x="1266" d="M1161 1113L808 1113L808 477C808 344 740 263 629 263C514 263 459 331 459 473L459 1113L105 1113L105 394C105 120 235 -26 477 -26C631 -26 747 49 798 181L817 181L817 0L1161 0ZM1014 1347L1014 1559L250 1559L250 1347Z" />
<glyph glyph-name="Ubreve" unicode="&#x016c;" horiz-adv-x="1266" d="M633 280C508 280 442 369 442 537L442 1443L75 1443L75 517C75 172 280 -29 633 -29C986 -29 1191 172 1191 517L1191 1443L824 1443L824 537C824 369 758 280 633 280ZM215 1932C215 1725 375 1581 633 1581C891 1581 1051 1725 1051 1932L815 1932C812 1833 742 1771 633 1771C524 1771 454 1833 451 1932Z" />
<glyph glyph-name="ubreve" unicode="&#x016d;" horiz-adv-x="1266" d="M1161 1113L808 1113L808 477C808 344 740 263 629 263C514 263 459 331 459 473L459 1113L105 1113L105 394C105 120 235 -26 477 -26C631 -26 747 49 798 181L817 181L817 0L1161 0ZM633 1466C529 1466 463 1529 460 1629L216 1629C216 1407 382 1260 633 1260C884 1260 1050 1407 1050 1629L806 1629C803 1529 737 1466 633 1466Z" />
<glyph glyph-name="Uring" unicode="&#x016e;" horiz-adv-x="1266" d="M633 280C508 280 442 369 442 537L442 1443L75 1443L75 517C75 172 280 -29 633 -29C986 -29 1191 172 1191 517L1191 1443L824 1443L824 537C824 369 758 280 633 280ZM634 1543C754 1543 841 1628 841 1746C841 1862 754 1945 634 1945C512 1945 425 1862 425 1746C425 1628 513 1543 634 1543ZM633 1655C582 1655 543 1693 543 1744C543 1795 582 1833 633 1833C684 1833 723 1795 723 1744C723 1694 686 1655 633 1655Z" />
<glyph glyph-name="uring" unicode="&#x016f;" horiz-adv-x="1266" d="M1161 1113L808 1113L808 477C808 344 740 263 629 263C514 263 459 331 459 473L459 1113L105 1113L105 394C105 120 235 -26 477 -26C631 -26 747 49 798 181L817 181L817 0L1161 0ZM632 1392C582 1392 542 1433 542 1482C542 1531 582 1572 632 1572C682 1572 722 1531 722 1482C722 1433 682 1392 632 1392ZM632 1234C768 1234 880 1346 880 1482C880 1618 768 1730 632 1730C496 1730 384 1618 384 1482C384 1346 496 1234 632 1234Z" />
<glyph glyph-name="Uhungarumlaut" unicode="&#x0170;" horiz-adv-x="1266" d="M633 280C508 280 442 369 442 537L442 1443L75 1443L75 517C75 172 280 -29 633 -29C986 -29 1191 172 1191 517L1191 1443L824 1443L824 537C824 369 758 280 633 280ZM712 1596L977 1596L1225 1922L933 1922ZM263 1596L528 1596L776 1922L483 1922Z" />
<glyph glyph-name="uhungarumlaut" unicode="&#x0171;" horiz-adv-x="1266" d="M1161 1113L808 1113L808 477C808 344 740 263 629 263C514 263 459 331 459 473L459 1113L105 1113L105 394C105 120 235 -26 477 -26C631 -26 747 49 798 181L817 181L817 0L1161 0ZM728 1296L989 1296L1194 1659L903 1659ZM276 1296L536 1296L741 1659L450 1659Z" />
<glyph glyph-name="Uogonek" unicode="&#x0172;" horiz-adv-x="1266" d="M879 -469C942 -469 996 -461 1035 -446L1035 -267C1011 -273 993 -275 964 -275C888 -275 843 -232 843 -157C843 -87 885 -27 986 49C1128 156 1191 300 1191 517L1191 1443L824 1443L824 537C824 369 758 280 633 280C508 280 442 369 442 537L442 1443L75 1443L75 517C75 179 272 -29 594 -29C631 -29 687 -21 719 -12L719 -31C624 -100 588 -159 588 -246C588 -378 707 -469 879 -469Z" />
<glyph glyph-name="uogonek" unicode="&#x0173;" horiz-adv-x="1266" d="M817 0L915 0C795 -62 733 -147 733 -249C733 -385 839 -479 993 -479C1055 -479 1115 -469 1161 -451L1161 -263C1138 -272 1120 -275 1090 -275C1019 -275 971 -234 971 -175C971 -103 1032 -47 1161 0L1161 1113L808 1113L808 477C808 344 740 263 629 263C514 263 459 331 459 473L459 1113L105 1113L105 394C105 120 235 -26 477 -26C631 -26 747 49 798 181L817 181Z" />
<glyph glyph-name="Wcircumflex" unicode="&#x0174;" horiz-adv-x="1266" d="M642 824L747 0L1060 0L1266 1443L938 1443L902 993L869 441L849 441L767 1113L499 1113L417 441L397 441L364 993L328 1443L0 1443L206 0L519 0L624 824ZM799 1946L469 1946L194 1596L492 1596L624 1786L644 1786L776 1596L1074 1596Z" />
<glyph glyph-name="wcircumflex" unicode="&#x0175;" horiz-adv-x="1266" d="M1266 1113L931 1113L896 394L848 394L772 1108L494 1108L418 394L370 394L334 1113L0 1113L211 0L506 0L629 677L637 677L760 0L1055 0ZM455 1632L192 1267L501 1267L622 1464L642 1464L763 1267L1072 1267L809 1632Z" />
<glyph glyph-name="Ycircumflex" unicode="&#x0176;" horiz-adv-x="1266" d="M816 0L816 496L1266 1443L875 1443L643 854L623 854L391 1443L0 1443L450 496L450 0ZM798 1946L468 1946L193 1596L491 1596L623 1786L643 1786L775 1596L1073 1596Z" />
<glyph glyph-name="ycircumflex" unicode="&#x0177;" horiz-adv-x="1266" d="M290 -405C612 -405 772 -292 866 2L1224 1113L850 1113L651 297L632 297L433 1113L42 1113L422 -9L417 -40C405 -105 341 -137 223 -137C208 -137 164 -136 161 -135L161 -404C164 -405 226 -405 290 -405ZM455 1632L192 1267L501 1267L622 1464L642 1464L763 1267L1072 1267L809 1632Z" />
<glyph glyph-name="Ydieresis" unicode="&#x0178;" horiz-adv-x="1266" d="M816 0L816 496L1266 1443L875 1443L643 854L623 854L391 1443L0 1443L450 496L450 0ZM380 1600C473 1600 550 1676 550 1770C550 1864 473 1940 380 1940C287 1940 210 1864 210 1770C210 1676 287 1600 380 1600ZM886 1600C979 1600 1056 1676 1056 1770C1056 1864 979 1940 886 1940C793 1940 716 1864 716 1770C716 1676 793 1600 886 1600Z" />
<glyph glyph-name="Zacute" unicode="&#x0179;" horiz-adv-x="1266" d="M130 0L1176 0L1176 295L575 295L575 314L1155 1210L1155 1443L141 1443L141 1148L710 1148L710 1129L130 233ZM494 1596L810 1596L1114 1922L752 1922Z" />
<glyph glyph-name="zacute" unicode="&#x017a;" horiz-adv-x="1266" d="M765 1296L1057 1658L684 1658L441 1296ZM150 0L1116 0L1116 266L621 266L621 285L1099 896L1099 1113L162 1113L162 847L675 847L675 828L150 189Z" />
<glyph glyph-name="Zdotaccent" unicode="&#x017b;" horiz-adv-x="1266" d="M130 0L1176 0L1176 295L575 295L575 314L1155 1210L1155 1443L141 1443L141 1148L710 1148L710 1129L130 233ZM653 1571C754 1571 836 1653 836 1754C836 1855 754 1937 653 1937C552 1937 470 1855 470 1754C470 1653 552 1571 653 1571Z" />
<glyph glyph-name="zdotaccent" unicode="&#x017c;" horiz-adv-x="1266" d="M150 0L1116 0L1116 266L621 266L621 285L1099 896L1099 1113L162 1113L162 847L675 847L675 828L150 189ZM633 1272C734 1272 816 1354 816 1455C816 1556 734 1638 633 1638C532 1638 450 1556 450 1455C450 1354 532 1272 633 1272Z" />
<glyph glyph-name="Zcaron" unicode="&#x017d;" horiz-adv-x="1266" d="M1093 1935L795 1935L663 1745L643 1745L511 1935L213 1935L488 1585L818 1585ZM130 0L1176 0L1176 295L575 295L575 314L1155 1210L1155 1443L141 1443L141 1148L710 1148L710 1129L130 233Z" />
<glyph glyph-name="zcaron" unicode="&#x017e;" horiz-adv-x="1266" d="M809 1296L1072 1661L763 1661L642 1464L622 1464L501 1661L192 1661L455 1296ZM150 0L1116 0L1116 266L621 266L621 285L1099 896L1099 1113L162 1113L162 847L675 847L675 828L150 189Z" />
<glyph glyph-name="florin" unicode="&#x0192;" horiz-adv-x="1266" d="M249 -24C566 -24 736 118 785 428L814 602L1182 602L1182 870L857 870L875 981C894 1097 958 1149 1080 1149C1122 1149 1193 1143 1226 1135L1226 1442C1180 1449 1113 1454 1038 1454C710 1454 531 1315 484 1031L459 870L123 870L123 602L416 602L389 445C371 341 301 279 196 279C145 279 90 287 41 299L41 -4C86 -15 168 -24 249 -24Z" />
</font>
</defs>
</svg>
