<svg version="1.1" viewBox="0 0 330 284" xmlns="http://www.w3.org/2000/svg">
   <path d="m138.44 13.08 0.60185 1.22 1.3542 0.2a0.40124 0.4 0 0 1 0.22068 0.69l-1.0031 0.95 0.23072 1.34a0.41127 0.41 0 0 1-0.59183 0.43l-1.2037-0.64-1.2037 0.64a0.41127 0.41 0 0 1-0.59182-0.43l0.22068-1.34-1.0031-0.95a0.40124 0.4 0 0 1 0.23071-0.69l1.3441-0.2 0.60186-1.22a0.41127 0.41 0 0 1 0.79244 0z" fill="#ebebeb" stroke-width="1.0015"/>
  <path d="m88.159 258.46 0.60186 1.21 1.3441 0.2a0.41127 0.41 0 0 1 0.23071 0.7l-1.0031 0.94 0.23071 1.34a0.41127 0.41 0 0 1-0.59182 0.43l-1.2037-0.63-1.2037 0.63a0.41127 0.41 0 0 1-0.59182-0.43l0.23071-1.34-1.0031-0.94a0.41127 0.41 0 0 1 0.22068-0.7l1.3441-0.2 0.61188-1.21a0.41127 0.41 0 0 1 0.78241 0z" fill="#f5f5f5" stroke-width="1.0015"/>
  <g fill="#ebebeb" stroke-width="1.0015">
    <path d="m285.17 2.5412 0.60186 1.22 1.3542 0.19a0.41127 0.41 0 0 1 0.22068 0.7l-1.0031 1 0.23071 1.33a0.40124 0.4 0 0 1-0.59182 0.43l-1.2037-0.63-1.2037 0.63a0.40124 0.4 0 0 1-0.59183-0.43l0.22068-1.33-1.0031-1a0.41127 0.41 0 0 1 0.23071-0.7l1.3442-0.19 0.64197-1.22a0.41127 0.41 0 0 1 0.75232 0z"/>
    <path d="m31.881 281.48a1.3341 1.33 0 1 1-1.3341-1.32 1.3341 1.33 0 0 1 1.3341 1.32z"/>
    <path d="m188.33 74.82a1.3341 1.33 0 1 1-1.3341-1.32 1.3241 1.32 0 0 1 1.3341 1.32z"/>
  </g>
  <g stroke-width="1.0015">
    <path d="m119.15 1.33a1.3341 1.33 0 1 1-1.3341-1.33 1.3441 1.34 0 0 1 1.3341 1.33z" fill="#f5f5f5"/>
    <ellipse transform="matrix(.97342 -.22904 .23038 .9731 0 0)" cx="79.158" cy="264.19" rx="7.3715" ry="7.3512" fill="#f0f0f0"/>
    <path d="m135.38 234.66a7.1119 7.09 0 0 0-4.203 1.36 7.3627 7.34 0 0 0 10.532 9.23 7.1922 7.17 0 0 0-6.3295-10.58z" fill="#e6e6e6"/>
  </g>
  <g transform="translate(-86.83,-97.07)" fill="#2691ff">
    <path d="m147.68 287.64h-60.85v-27.47l60.85-72.34h29.12v73.9h15.09v25.91h-15.09v22.48h-29.12zm0-25.91v-37.84l-32.16 37.84z"/>
    <path d="m202.3 249.51q0-34.29 12.34-48t37.61-13.7q12.13 0 19.93 3a36.79 36.79 0 0 1 12.71 7.79 41.59 41.59 0 0 1 7.75 10.09 52.38 52.38 0 0 1 4.55 12.34 115.36 115.36 0 0 1 3.36 28q0 32.72-11.07 47.89t-38.13 15.18q-15.18 0-24.53-4.84a39.76 39.76 0 0 1-15.33-14.19q-4.35-6.64-6.77-18.17a124.33 124.33 0 0 1-2.42-25.39zm33.14 0.08q0 23 4.05 31.37t11.77 8.41a12.34 12.34 0 0 0 8.82-3.57q3.74-3.57 5.5-11.28t1.76-24q0-23.94-4.06-32.19t-12.18-8.24q-8.28 0-12 8.41t-3.66 31.09z"/>
    <path d="m371.74 287.64h-60.85v-27.47l60.85-72.34h29.12v73.9h15.14v25.91h-15.14v22.48h-29.12zm0-25.91v-37.84l-32.15 37.84z"/>
  </g>
  <g fill="#2691ff" stroke-width="1.0015">
    <path d="m113.43 48.55a1.8758 1.87 0 1 1-1.8658-1.87 1.8657 1.86 0 0 1 1.8658 1.87z" opacity=".3"/>
    <ellipse cx="8.4619" cy="109.22" rx="1.3241" ry="1.32" opacity=".3"/>
    <ellipse cx="184.55" cy="250.24" rx="1.8958" ry="1.89" opacity=".3"/>
    <ellipse cx="249.34" cy="234.93" rx="1.3241" ry="1.32" opacity=".3"/>
    <path d="m259.53 23.981a1.3241 1.32 0 1 1-1.3241-1.32 1.3241 1.32 0 0 1 1.3241 1.32z" opacity=".3"/>
    <path d="m260.03 59.828a1.3241 1.32 0 1 1-1.3241-1.32 1.3341 1.33 0 0 1 1.3241 1.32z" opacity=".3"/>
    <ellipse cx="190.36" cy="39.87" rx="1.3241" ry="1.32" opacity=".3"/>
  </g>
  <g transform="translate(6.4003 -10.189)" stroke-width="1.0015">
    <ellipse cx="53.471" cy="48.68" rx="21.978" ry="21.91" fill="#2691ff"/>
    <ellipse cx="53.471" cy="48.68" rx="21.978" ry="21.91" fill="#fff" opacity=".7"/>
    <g fill="#2691ff">
      <path d="m45.897 32.15a21.908 21.84 0 0 0-8.7068 1.77 21.988 21.92 0 0 0 24.947 34.89 21.988 21.92 0 0 0-16.28-36.65z" opacity=".2"/>
      <path d="m43.71 37.94a2.0062 2 0 1 1-2.0062-2 2.0062 2 0 0 1 2.0062 2z" opacity=".2"/>
      <path d="m67.343 35.94a2.0062 2 0 1 1-2.0062-2 2.0062 2 0 0 1 2.0062 2z" opacity=".2"/>
      <path d="m63.331 50.22a3.2901 3.28 0 1 1-3.2901-3.28 3.2901 3.28 0 0 1 3.2901 3.28z" opacity=".2"/>
      <path d="m52.879 59.57a4.3935 4.38 0 1 1-4.3935-4.38 4.3935 4.38 0 0 1 4.3935 4.38z" opacity=".2"/>
    </g>
  </g>
  <g stroke-width="1.0015">
    <ellipse transform="matrix(.23038 -.9731 .97342 .22904 0 0)" cx="-185.57" cy="321.25" rx="19.233" ry="19.286" fill="#2691ff"/>
    <ellipse transform="matrix(.23038 -.9731 .97342 .22904 0 0)" cx="-185.57" cy="321.25" rx="19.233" ry="19.286" fill="#fff" opacity=".3"/>
    <path d="m282.14 239.27a19.279 19.22 0 0 0-17.725 33.32 19.059 19 0 0 0 5.5471 0.82 19.289 19.23 0 0 0 12.178-34.14z" fill="#2691ff" opacity=".4"/>
    <path d="m251.55 259.93c-20.593 9.66-5.2361 17.11 23.783 6.71 26.873-9.63 37.114-21.77 13.04-18 1.294 5.05-32.36 18.12-36.823 11.29z" fill="#2691ff"/>
  </g>
</svg>
