<svg version="1.1" viewBox="0 0 480 217.57" xmlns="http://www.w3.org/2000/svg">
  <g fill="#2691ff" stroke-width="856.14">
    <path d="m72.236 110.5q-15.766 0-23.936 8.4562l-36.835-12.899 16.913-101.19h97.892v34.255h-67.22l-7.8829 41.708q5.4464-3.1532 21.069-3.1532 20.496 0 36.978 8.5996 16.483 8.4563 26.085 24.509 9.7462 16.053 9.7462 36.692 0 20.639-9.7462 36.692-9.6029 16.053-26.085 24.652-16.483 8.4562-36.978 8.4562-12.899 0-24.365-3.7264-11.323-3.8697-19.349-9.7462-7.8829-6.0196-14.046-13.616-6.163-7.7395-9.6029-14.906-3.4398-7.3097-4.8731-14.189l37.981-6.593q0.57337 2.7232 2.0065 6.3063 1.5765 3.44 4.5864 7.3097 3.0099 3.8697 6.7363 7.1664 3.7265 3.153 9.1729 5.3029 5.5897 2.0058 11.753 2.0058 15.766 0 25.369-10.033 9.6029-10.033 9.6029-25.082 0-15.336-9.7462-26.085-9.6029-10.893-25.225-10.893z"/>
    <path d="m166.69 105.2q0-49.448 19.349-77.253 19.349-27.949 53.747-27.949 34.255 0 52.887 27.805 18.632 27.662 18.632 77.396 0 32.965-8.4562 58.334-8.3129 25.225-24.795 39.701-16.483 14.332-38.985 14.332h-0.14432q-22.502 0-38.985-14.332-16.483-14.476-24.939-39.701-8.3129-25.225-8.3129-58.334zm38.411 0q0 15.766 0.86005 27.519 1.0034 11.609 3.1532 21.499 2.2932 9.7462 6.0197 15.909 3.8698 6.0196 9.7462 9.4596 6.0197 3.2964 14.046 3.2964 10.033 0 16.769-4.8729 6.7363-5.0165 10.463-15.336 3.7265-10.319 5.1598-23.935 1.5765-13.759 1.5765-33.538 0-39.271-6.7364-54.894-6.593-15.623-26.372-15.623-19.922 0-27.375 15.909-7.3097 15.909-7.3097 54.607z"/>
    <path d="m335.38 105.2q0-49.448 19.349-77.253 19.349-27.949 53.747-27.949 34.255 0 52.887 27.805 18.632 27.662 18.632 77.396 0 32.965-8.4562 58.334-8.3129 25.225-24.795 39.701-16.483 14.332-38.985 14.332h-0.14432q-22.502 0-38.985-14.332-16.483-14.476-24.939-39.701-8.3129-25.225-8.3129-58.334zm38.411 0q0 15.766 0.86005 27.519 1.0034 11.609 3.1532 21.499 2.2932 9.7462 6.0197 15.909 3.8698 6.0196 9.7462 9.4596 6.0197 3.2964 14.046 3.2964 10.033 0 16.769-4.8729 6.7363-5.0165 10.463-15.336 3.7265-10.319 5.1597-23.935 1.5765-13.759 1.5765-33.538 0-39.271-6.7363-54.894-6.593-15.623-26.372-15.623-19.922 0-27.375 15.909-7.3096 15.909-7.3097 54.607z"/>
  </g>
</svg>
