<svg class="" enable-background="new 0 0 512 512" fill-rule="evenodd" version="1.1" viewBox="0 0 512 512" xml:space="preserve" xmlns="http://www.w3.org/2000/svg" xmlns:xlink="http://www.w3.org/1999/xlink"><defs><linearGradient id="linearGradient1083" x2="1" gradientTransform="matrix(19.724 23.273 -23.273 19.724 20.991 6.8308)" gradientUnits="userSpaceOnUse" xlink:href="#l"/></defs><g transform="matrix(8.12 0 0 8.1155 -3.8392 -3.3394)"><linearGradient id="a"><stop stop-color="#cadcf0" offset="0"/><stop stop-color="#a4bbdb" offset="1"/></linearGradient><linearGradient id="d" x2="1" gradientTransform="matrix(40,0,0,25.912,12,48.573)" gradientUnits="userSpaceOnUse" xlink:href="#a"/><linearGradient id="b"><stop stop-color="#a4bbdb" offset="0"/>
    <stop stop-color="#8da3be" offset="1"/></linearGradient><linearGradient id="e" x2="1" gradientTransform="matrix(20.086,0,0,25.912,31.914,48.573)" gradientUnits="userSpaceOnUse" xlink:href="#b"/><linearGradient id="c"><stop stop-color="#e9f3fc" offset="0"/>
    <stop stop-color="#cadcf0" offset="1"/></linearGradient><linearGradient id="f" x2="1" y2=".337" gradientTransform="matrix(14.679,14.768,-21.492,8.973,12.133,35.609)" gradientUnits="userSpaceOnUse" xlink:href="#c"/><linearGradient id="g" x2="1" y2=".227" gradientTransform="matrix(25.743,1.634,-3.837,17.203,32.081,42.038)" gradientUnits="userSpaceOnUse" xlink:href="#c"/><linearGradient id="h" x2="1" y2="-.619" gradientTransform="matrix(20.007,-6.501,5.236,7.762,9.382,31.736)" gradientUnits="userSpaceOnUse" xlink:href="#c"/><linearGradient id="i" x2="1" y2=".429" gradientTransform="matrix(15.249,13.945,-20.61,7.651,37.354,21.357)" gradientUnits="userSpaceOnUse" xlink:href="#c"/><linearGradient id="j" x2="1" gradientTransform="matrix(40,0,0,13,12,35.606)" gradientUnits="userSpaceOnUse" xlink:href="#a"/><linearGradient id="k" x2="1" gradientTransform="matrix(.43089 16.153 -16.153 .43089 34.057 28.818)" gradientUnits="userSpaceOnUse" xlink:href="#b"/><linearGradient id="l" x2="1" gradientTransform="matrix(19.724 23.273 -23.273 19.724 20.991 6.8308)" gradientUnits="userSpaceOnUse"><stop stop-color="#559aff" offset="0"/>
    <stop stop-color="#2e69ef" offset="1"/></linearGradient><linearGradient id="m" x2="1" gradientTransform="matrix(6.695,0,0,4.448,30.933,4.607)" gradientUnits="userSpaceOnUse" xlink:href="#c"/><linearGradient id="n" x2="1" gradientTransform="matrix(6.695,0,0,-4.448,30.933,10.607)" gradientUnits="userSpaceOnUse" xlink:href="#c"/><path class="" d="m52 35.617h-40v18.512a2 2 0 0 0 1.425 1.916l18 5.4a2.01 2.01 0 0 0 1.15 0l18-5.4a2 2 0 0 0 1.425-1.916z" fill="url(#d)" data-original="url(#d)"/><path class="" d="m52 35.617h-20s-0.194 25.912 0 25.912 0.387-0.028 0.575-0.084l18-5.4a2 2 0 0 0 1.425-1.916z" fill="url(#e)" data-original="url(#e)"/><path class="" d="m32 42.106-20-6.489-5.075 7.524a1 1 0 0 0 0.52 1.511l17.995 5.846a1 1 0 0 0 1.137-0.39z" fill="url(#f)" data-original="url(#f)"/><path class="" d="m52 35.617-20 6.489 5.423 8.002a1 1 0 0 0 1.137 0.39l17.995-5.846a1 1 0 0 0 0.52-1.511z" fill="url(#g)" data-original="url(#g)"/><path class="" d="m27.159 21.986a1 1 0 0 0-1.136-0.388l-17.996 5.847a0.998 0.998 0 0 0-0.52 1.51l4.493 6.662 20-6.511z" fill="url(#h)" data-original="url(#h)"/><path d="m56.493 28.955a1 1 0 0 0-0.52-1.51l-17.996-5.847a1 1 0 0 0-1.136 0.388l-4.841 7.12 20 6.511z" fill="url(#i)" data-original="url(#i)"/><path class="" d="m52 35.617-20-6.511-20 6.511 20 6.489z" fill="url(#j)" data-original="url(#j)"/><path class="" d="m32 42.106v-13l-20 6.511z" fill="url(#k)" data-original="url(#k)"/><g fill="url(#linearGradient1083)"><path d="m27.982 31.978a8.757 8.757 0 0 1-1.124-0.868 1 1 0 0 0-1.352 1.473c0.409 0.376 0.87 0.734 1.382 1.069a1 1 0 0 0 1.094-1.674zm-3.116-3.072a8.689 8.689 0 0 1-0.754-1.213 1.0002 1.0002 0 0 0-1.783 0.907c0.254 0.498 0.562 0.997 0.927 1.492a1 1 0 0 0 1.61-1.186zm-1.462-4.081c0.01-0.403 0.069-0.794 0.177-1.169a1.0002 1.0002 0 0 0-1.923-0.551 6.71 6.71 0 0 0-0.254 1.67 1.0003 1.0003 0 0 0 2 0.05zm1.538-3.34c0.257-0.238 0.545-0.458 0.86-0.657a1.0002 1.0002 0 0 0-1.067-1.692 7.855 7.855 0 0 0-1.152 0.882 1 1 0 0 0 1.359 1.467zm3.719-1.725a11.338 11.338 0 0 1 1.598-0.176 1.001 1.001 0 0 0-0.085-1.999c-0.66 0.028-1.286 0.099-1.877 0.208a1.0002 1.0002 0 0 0 0.364 1.967zm5.212-0.059c0.853 0.01 1.647-0.02 2.384-0.085a1 1 0 0 0-0.177-1.992c-0.675 0.059-1.402 0.087-2.184 0.077a1.0001 1.0001 0 0 0-0.023 2zm5.671-0.698c0.99-0.303 1.826-0.691 2.526-1.136a1.0002 1.0002 0 0 0-1.075-1.687 8.302 8.302 0 0 1-2.036 0.91 1.0002 1.0002 0 0 0 0.585 1.913zm5.09-3.935a6.21 6.21 0 0 0 0.607-3.003 1.0001 1.0001 0 0 0-1.998 0.093 4.215 4.215 0 0 1-0.41 2.04 1.001 1.001 0 0 0 1.801 0.87zm-0.637-6.539c-0.729-0.985-1.718-1.671-2.796-1.892a1.001 1.001 0 0 0-0.402 1.96c0.622 0.127 1.17 0.554 1.591 1.123a1.0001 1.0001 0 1 0 1.607-1.191z" fill="url(#linearGradient1083)"/></g><path d="m30.933 6.831c1.082-6.127 10.459-5.731 5 0z" fill="url(#m)" data-original="url(#m)"/><path class="" d="m30.933 8.383c1.082 6.126 10.459 5.731 5 0z" fill="url(#n)" data-original="url(#n)"/><path class="" d="m30.843 8.617h6.696a1 1 0 0 0 0-2h-6.696a1.001 1.001 0 0 0 0 2z" fill="url(#linearGradient1083)" data-original="url(#l)"/></g></svg>
