<svg version="1.1" viewBox="0 0 1961 2500" xmlns="http://www.w3.org/2000/svg">
  <path d="m980 0.41c327 93.9 981 283 981 283s0 596-32.2 974-510 1157-949 1242c-423-81-917-863-948-1242-31.7-379-31.7-974-31.7-974s689-199 980-283z" fill="#4688f1"/>
  <path d="m1562 1038a588 589 0 0 1-588 589 588 589 0 0 1-588-589 588 589 0 0 1 588-589 588 589 0 0 1 588 589z" fill="#3566b8" fill-rule="evenodd" stroke-linecap="round" stroke-linejoin="round" style="paint-order:fill markers stroke"/>
  <path d="m1198 832a224 225 0 0 1-224 225 224 225 0 0 1-224-225 224 225 0 0 1 224-225 224 225 0 0 1 224 225zm-218 367c140 0 340 63 442 220-85.5 106-253 208-442 208-189 0-361-83.4-455-208 89.7-157 315-220 455-220z" fill="#fff" fill-rule="evenodd" stroke-linecap="round" stroke-linejoin="round" style="paint-order:fill markers stroke"/>
</svg>
