<svg version="1.1" viewBox="0 0 512 512" xmlns="http://www.w3.org/2000/svg">
  <path d="m255.45 16c-62.861 0-114.11 51.336-114.11 113.86 0 62.722 51.45 113.86 114.11 113.86 62.861 0 114.11-51.336 114.11-113.86 0-62.722-51.45-113.86-114.11-113.86zm0 45.643c38.137 0 68.666 30.362 68.666 68.514 0 38.052-30.429 68.514-68.666 68.514-38.137 0-68.666-30.362-68.666-68.514 0-38.052 30.429-68.514 68.666-68.514zm-125.34 228.71c-62.861 0-114.11 51.336-114.11 113.86v45.643c0 12.632 10.263 22.871 22.922 22.871s22.922-10.24 22.922-22.871v-45.643c0-38.052 30.429-68.514 68.666-68.514h188.47c12.66 0 22.922-10.24 22.922-22.871s-10.263-22.871-22.922-22.871zm274.3 22.871c-12.66 0-22.922 10.24-22.922 22.871v45.643h-45.744c-12.66 0-22.922 10.24-22.922 22.871s10.263 22.871 22.922 22.871h45.744v45.643c0 12.632 10.263 22.871 22.922 22.871 12.66 0 22.922-10.24 22.922-22.871v-45.643h45.744c12.66 0 22.922-10.24 22.922-22.871s-10.263-22.871-22.922-22.871h-45.744v-45.643c0-12.632-10.263-22.871-22.922-22.871z" color="#000000" fill="currentColor" stroke-linecap="round" stroke-linejoin="round" stroke-width=".99986" style="-inkscape-stroke:none"/>
</svg>
