<svg version="1.1" viewBox="0 0 512 512" xmlns="http://www.w3.org/2000/svg">
  <path d="m69.715 42c-24.977 0-45.715 20.738-45.715 45.715v228.57c-8e-6 24.977 20.738 45.713 45.715 45.713h91.428v45.715h-22.857a22.857 22.857 0 0 0-22.857 22.857 22.857 22.857 0 0 0 22.857 22.857h114.29a22.857 22.857 0 0 0 22.855-22.857 22.857 22.857 0 0 0-22.855-22.857h-45.715v-45.715h80a22.857 22.857 0 0 0 22.857-22.855 22.857 22.857 0 0 0-22.857-22.857h-217.14v-228.57h365.71v171.43a22.857 22.857 0 0 0 22.857 22.855 22.857 22.857 0 0 0 22.857-22.855v-171.43c0-24.977-20.738-45.715-45.715-45.715zm342.86 274.29a22.857 22.857 0 0 0-22.857 22.857v45.713h-45.715a22.857 22.857 0 0 0-22.857 22.857 22.857 22.857 0 0 0 22.857 22.857h45.715v45.715a22.857 22.857 0 0 0 22.857 22.857 22.857 22.857 0 0 0 22.855-22.857v-45.715h45.715a22.857 22.857 0 0 0 22.857-22.857 22.857 22.857 0 0 0-22.857-22.857h-45.715v-45.713a22.857 22.857 0 0 0-22.855-22.857z" color="#000000" fill="currentColor" stroke-linecap="round" stroke-linejoin="round" style="-inkscape-stroke:none"/>
</svg>
