<svg version="1.1" viewBox="0 0 512 512" xmlns="http://www.w3.org/2000/svg">
  <path d="m47 491a18 18 0 0 1-26-26l50-50c-19-26-22-56-19-81 4.4-29 18-54 31-66l37-37a18 18 0 0 1 26 0l135 135a18 18 0 0 1 0 26l-37 37c-12 12-38 26-66 31-25 3.8-55 0.49-81-19zm185-271a18 18 0 1 1-26-26l36-36-12-12a18 18 0 0 1 0-26l37-37c12-12 38-26 66-31 25-3.8 55-0.49 81 19l50-50a18 18 0 1 1 26 26l-50 50c19 26 22 56 19 81-4.4 29-18 54-31 66l-37 37a18 18 0 0 1-26 0l-12-12-36 36a18 18 0 1 1-26-26l36-36-60-60z" fill="currentColor" stroke-width="25"/>
</svg>
