<svg version="1.1" viewBox="0 0 512 512" xmlns="http://www.w3.org/2000/svg">
 <path d="m113.59 453.91-10.5 8.4375c-3 2.3438-6.6562 3.6562-10.406 3.6562-9.1875 0-16.688-7.5-16.688-16.688v-253.31c0-99.375 80.625-180 180-180s180 80.625 180 180v253.31c0 9.1875-7.5 16.688-16.688 16.688-3.75 0-7.4062-1.3125-10.406-3.6562l-10.5-8.4375c-12.562-10.031-30.75-8.4375-41.344 3.6562l-28.594 32.812c-3.0938 3.5625-7.6875 5.625-12.469 5.625s-9.2812-2.0625-12.469-5.625l-24.938-28.594c-11.906-13.688-33.188-13.688-45.188 0l-24.938 28.594c-3.0938 3.5625-7.6875 5.625-12.469 5.625s-9.2812-2.0625-12.469-5.625l-28.594-32.812c-10.594-12.094-28.781-13.688-41.344-3.6562m112.41-257.91a30 30 0 1 0-60 0 30 30 0 1 0 60 0m90 30a30 30 0 1 0 0-60 30 30 0 1 0 0 60" fill="currentColor" stroke-width=".9375"/>
</svg>
