<svg version="1.1" viewBox="0 0 512 512" xmlns="http://www.w3.org/2000/svg">
 <path d="m406 389.97c54.844-38.531 90-97.594 90-163.97 0-115.97-107.44-210-240-210s-240 94.031-240 210c0 66.281 35.156 125.44 90 163.97v61.031c0 24.844 20.156 45 45 45h45v-45c0-8.25 6.75-15 15-15s15 6.75 15 15v45h60v-45c0-8.25 6.75-15 15-15s15 6.75 15 15v45h45c24.844 0 45-20.156 45-45zm-300-133.97a60 60 0 1 1 120 0 60 60 0 1 1-120 0m240-60a60 60 0 1 1 0 120 60 60 0 1 1 0-120" fill="currentColor" stroke-width=".9375"/>
</svg>
