<svg version="1.1" viewBox="0 0 512 512" xmlns="http://www.w3.org/2000/svg">
 <path d="m228.34 103.04c13.409 40.228-0.28131 80.83-30.569 90.77-30.288 9.9397-65.733-14.628-79.142-54.856-13.409-40.228 0.28131-80.83 30.569-90.77 30.288-9.9397 65.733 14.628 79.142 54.856m-118.24 99.116c17.723 30.382 13.409 65.733-9.5646 78.861-22.974 13.128-55.981-0.84394-73.61-31.226-17.629-30.382-13.503-65.733 9.4708-78.861 22.974-13.128 55.981 0.84393 73.61 31.226zm-29.256 189.98c49.136-132.5 136.44-166.16 175.16-166.16 38.727 0 126.03 33.664 175.16 166.16 3.3758 9.0958 4.8761 18.848 4.8761 28.6v1.5003c0 24.193-19.598 43.791-43.791 43.791-10.784 0-21.473-1.3128-31.882-3.9384l-82.518-20.63c-14.347-3.5633-29.35-3.5633-43.697 0l-82.518 20.63c-10.409 2.6256-21.098 3.9384-31.882 3.9384-24.193 0-43.791-19.598-43.791-43.791v-1.5003c0-9.7522 1.5003-19.504 4.8761-28.6m330.64-111.12c-22.974-13.128-27.287-48.479-9.5646-78.861 17.723-30.382 50.636-44.354 73.61-31.226 22.974 13.128 27.287 48.479 9.5646 78.861-17.723 30.382-50.636 44.354-73.61 31.226m-104.74-87.207c-30.288-9.9397-43.978-50.542-30.569-90.77 13.409-40.228 48.855-64.796 79.142-54.856 30.288 9.9397 43.978 50.542 30.569 90.77-13.409 40.228-48.855 64.796-79.142 54.856" fill="currentColor" stroke-width=".93771"/>
</svg>
