<svg version="1.1" viewBox="0 0 512 512" xmlns="http://www.w3.org/2000/svg">
 <path d="m335.83 147.81c-1.8751 3.6565-1.5001 8.063 1.1251 11.251 6.5629 7.9693 12.095 16.97 16.126 26.627l45.472-19.501v-37.69c0-12.47 10.032-22.501 22.501-22.501s22.501 10.032 22.501 22.501v18.376l21.095-9.0943c11.438-4.8753 24.658 0.37502 29.533 11.813 4.8753 11.438-0.37502 24.658-11.813 29.533l-52.503 22.501-69.004 29.533q-0.70317 13.36-4.5003 25.595c-1.1251 3.5627-0.0938 7.5005 2.6252 10.126 28.971 27.47 47.065 66.192 47.065 109.13 0 41.909-17.157 79.693-44.815 106.98-9.2818 9.0943-22.22 13.032-35.158 13.032h-139.98c-13.032 0-25.97-3.9378-35.158-13.032-27.752-27.283-44.909-65.067-44.909-106.98 0-42.94 18.095-81.661 46.972-109.04 2.7189-2.6252 3.7502-6.4692 2.6252-10.126-2.5314-8.1568-4.0315-16.782-4.5003-25.595l-69.004-29.533-52.503-22.501c-11.344-4.9691-16.689-18.189-11.813-29.627s18.095-16.689 29.533-11.813l21.189 9.0943v-18.376c0-12.47 10.032-22.501 22.501-22.501 12.47 0 22.501 10.032 22.501 22.501v37.69l45.565 19.501c4.0315-9.6569 9.4694-18.657 16.126-26.627 2.6252-3.1877 3.094-7.5942 1.1251-11.251-6.5629-12.563-10.313-26.72-10.313-41.815 0-49.691 40.315-90.006 90.006-90.006s90.006 40.315 90.006 90.006c0 15.095-3.7502 29.252-10.219 41.815m-109.79-41.815a15.001 15.001 0 1 0 0-30.002 15.001 15.001 0 1 0 0 30.002m45.003 120.01a15.001 15.001 0 1 0-30.002 0 15.001 15.001 0 1 0 30.002 0m-15.001 75.005a15.001 15.001 0 1 0 0-30.002 15.001 15.001 0 1 0 0 30.002m15.001 45.003a15.001 15.001 0 1 0-30.002 0 15.001 15.001 0 1 0 30.002 0m15.001-240.02a15.001 15.001 0 1 0 0-30.002 15.001 15.001 0 1 0 0 30.002m-45.003 22.501v3.0002c0 3.0002 0.75005 5.9066 2.1564 8.438l8.438 15.845c0.84381 1.5938 2.5314 2.6252 4.4065 2.6252s3.5627-1.0313 4.4065-2.6252l8.438-15.845c1.4063-2.6252 2.1564-5.5316 2.1564-8.438v-3.0002c0-8.2505-6.7504-15.001-15.001-15.001-8.2505 0-15.001 6.7504-15.001 15.001" fill="currentColor" stroke-width=".93756"/>
</svg>
