<svg version="1.1" viewBox="0 0 512 512" xmlns="http://www.w3.org/2000/svg">
 <path d="m393.53 106.09c-23.062-53.062-75.938-90.094-137.53-90.094s-114.47 37.031-137.53 90.094c-15.375 1.3125-27.469 14.156-27.469 29.906v60c0 15.75 12.094 28.594 27.469 29.906 23.062 53.062 75.938 90.094 137.53 90.094s114.47-37.031 137.53-90.094c15.375-1.3125 27.469-14.156 27.469-29.906v-60c0-15.75-12.094-28.594-27.469-29.906m-32.531 44.906v15c0 49.688-40.312 90-90 90h-30c-49.688 0-90-40.312-90-90v-15c0-24.844 20.156-45 45-45h120c24.844 0 45 20.156 45 45m-137.53 17.531-5.625-19.875c-0.84375-3.0938-3.6562-5.1562-6.8438-5.1562s-6 2.0625-6.8438 5.1562l-5.625 19.875-19.875 5.625c-3.0938 0.84375-5.1562 3.6562-5.1562 6.8438s2.0625 6 5.1562 6.8438l19.875 5.625 5.625 19.875c0.84375 3.0938 3.6562 5.1562 6.8438 5.1562s6-2.0625 6.8438-5.1562l5.625-19.875 19.875-5.625c3.0938-0.84375 5.1562-3.6562 5.1562-6.8438s-2.0625-6-5.1562-6.8438zm-71.812 144.19c-61.875 24.469-105.66 84.844-105.66 155.44 0 15.375 12.469 27.844 27.844 27.844h92.156v-60c0-16.594 13.406-30 30-30h120c16.594 0 30 13.406 30 30v60h92.156c15.375 0 27.844-12.469 27.844-27.844 0-70.594-43.781-130.97-105.66-155.44-29.438 20.906-65.438 33.281-104.34 33.281s-74.906-12.375-104.34-33.281m59.344 123.28c-8.25 0-15 6.75-15 15v45h30v-45c0-8.25-6.75-15-15-15m90 30a15 15 0 1 0 0-30 15 15 0 1 0 0 30" fill="currentColor" stroke-width=".9375"/>
</svg>
