<svg version="1.1" viewBox="0 0 512 512" xmlns="http://www.w3.org/2000/svg">
 <path d="m166.72 105.13c13.126 15.939 29.065 28.972 46.411 39.567 24.284 14.814 50.349 24.284 72.851 29.628v-29.534c-20.815-28.409-35.629-63.1-36.941-103.89-0.37504-10.595-7.032-20.158-17.252-22.877-7.1257-1.8752-14.814-0.18752-19.69 5.438-12.47 14.439-30.659 41.817-45.38 81.758zm149.27 44.536v60.006c-57.006-4.7817-173.46-41.067-205.61-147.39-3.0941-10.126-12.001-17.627-22.596-17.627-7.407 0-14.345 3.6566-17.627 10.314-10.314 21.471-24.19 64.788-24.19 124.7 0 109.6 75.101 169.24 111.01 190.14l-129.95 35.441c-4.7817 1.3126-8.6259 4.8755-10.22 9.5635-1.5939 4.688-0.75008 9.9385 2.1565 13.876 17.346 23.065 69.476 66.007 147.01 66.007 3.3754 0 6.7507-1.1251 9.376-3.2816l70.882-56.724h69.757c82.883 0 150.02-67.132 150.02-150.02v-150.02l28.034-42.098c1.2189-1.8752 1.9689-4.1254 1.9689-6.3756 0-6.3756-5.1568-11.532-11.532-11.532h-93.478c-41.442 0-75.008 33.566-75.008 75.008m75.008-15.002a15.002 15.002 0 1 1 0 30.003 15.002 15.002 0 1 1 0-30.003" fill="currentColor" stroke-width=".9376"/>
</svg>
