<svg version="1.1" viewBox="0 0 512 512" xmlns="http://www.w3.org/2000/svg">
 <path d="m164.51 46.616c4.4993-11.623-1.3123-24.652-12.935-29.058-11.623-4.4055-24.652 1.3123-29.058 12.935l-30.464 79.3c-7.405 19.403-2.812 41.337 11.904 55.96l53.804 53.804-75.363-25.121c-2.2496-0.74988-4.0306-2.5308-4.7805-4.7805l-17.716-53.241c-3.9369-11.811-16.685-18.185-28.495-14.248s-18.185 16.685-14.248 28.495l17.716 53.241c5.2491 15.654 17.528 27.933 33.182 33.182l56.803 18.934-56.71 18.934c-15.654 5.2491-27.933 17.528-33.182 33.182l-17.81 53.241c-3.9369 11.811 2.4371 24.559 14.248 28.495s24.559-2.4371 28.495-14.248l17.716-53.241c0.74988-2.2496 2.5308-4.0306 4.7805-4.7805l75.363-25.121-53.897 53.804c-14.623 14.716-19.309 36.65-11.811 55.96l30.464 79.3c4.4993 11.623 17.435 17.341 29.058 12.935 11.623-4.4055 17.341-17.435 12.935-29.058l-30.464-79.3c-1.0311-2.812-0.37493-5.9053 1.6872-7.9675l30.276-30.37c0.93735 48.836 40.868 88.204 89.985 88.204 49.117 0 89.048-39.275 89.985-88.204l30.276 30.276c2.0622 2.0622 2.7183 5.2492 1.6872 7.9674l-30.464 79.3c-4.4993 11.623 1.3123 24.652 12.935 29.058 11.623 4.4055 24.652-1.3123 29.058-12.935l30.464-79.206c7.405-19.403 2.812-41.337-11.904-55.96l-53.804-53.804 75.363 25.121c2.2496 0.74987 4.0306 2.5308 4.7805 4.7805l17.716 53.241c3.9369 11.811 16.685 18.185 28.495 14.248 11.811-3.9369 18.185-16.685 14.248-28.495l-17.716-53.241c-5.2492-15.654-17.528-27.933-33.182-33.182l-56.803-18.934 56.71-18.934c15.654-5.2492 27.933-17.528 33.182-33.182l17.716-53.241c3.9369-11.811-2.4371-24.559-14.248-28.495s-24.559 2.4371-28.495 14.248l-17.716 53.241c-0.74988 2.2496-2.5308 4.0306-4.7805 4.7805l-75.363 25.121 53.804-53.804c14.623-14.623 19.309-36.557 11.904-55.96l-30.37-79.3c-4.4993-11.623-17.435-17.435-29.058-12.935-11.623 4.4993-17.341 17.435-12.935 29.058l30.464 79.3c1.0311 2.812 0.37494 5.9053-1.6872 7.9674l-45.274 45.368v-13.217c0-29.808-17.435-55.585-42.649-67.677-8.5299-4.1243-17.341 3.0932-17.341 12.56v10.123c0 8.2487-6.7489 14.998-14.998 14.998-8.2487 0-14.998-6.7489-14.998-14.998v-10.123c0-9.4672-8.8111-16.591-17.341-12.56-25.215 12.092-42.649 37.869-42.649 67.677v13.217l-45.274-45.274c-2.0622-2.0622-2.7183-5.2492-1.6872-7.9675l30.464-79.3z" fill="currentColor" stroke-width=".93735"/>
</svg>
