<svg version="1.1" viewBox="0 0 512 512" xmlns="http://www.w3.org/2000/svg">
  <path d="m83.5 37.5a46 46 0 0 0-46 46 46 46 0 0 0 46 46 46 46 0 0 0 46-46 46 46 0 0 0-46-46zm172.5 0a46 46 0 0 0-46 46 46 46 0 0 0 46 46 46 46 0 0 0 46-46 46 46 0 0 0-46-46zm172.5 0a46 46 0 0 0-46 46 46 46 0 0 0 46 46 46 46 0 0 0 46-46 46 46 0 0 0-46-46zm-345 172.5a46 46 0 0 0-46 46 46 46 0 0 0 46 46 46 46 0 0 0 46-46 46 46 0 0 0-46-46zm172.5 0a46 46 0 0 0-46 46 46 46 0 0 0 46 46 46 46 0 0 0 46-46 46 46 0 0 0-46-46zm172.5 0a46 46 0 0 0-46 46 46 46 0 0 0 46 46 46 46 0 0 0 46-46 46 46 0 0 0-46-46zm-345 172.5a46 46 0 0 0-46 46 46 46 0 0 0 46 46 46 46 0 0 0 46-46 46 46 0 0 0-46-46zm172.5 0a46 46 0 0 0-46 46 46 46 0 0 0 46 46 46 46 0 0 0 46-46 46 46 0 0 0-46-46zm172.5 0a46 46 0 0 0-46 46 46 46 0 0 0 46 46 46 46 0 0 0 46-46 46 46 0 0 0-46-46z" fill="#09090b" stroke-width="35"/>
</svg>
