<svg version="1.1" viewBox="0 0 512 512" xmlns="http://www.w3.org/2000/svg">
  <path d="m81.4538 15.9998c-35.9015 0-65.454 29.5525-65.454 65.454v218.18c0 35.9015 29.5525 65.454 65.454 65.454a21.818 21.818 0 0 0 21.818-21.818 21.818 21.818 0 0 0-21.818-21.818c-12.099 0-21.818-9.71905-21.818-21.818v-218.18c0-12.099 9.71905-21.818 21.818-21.818h218.18c12.099 0 21.818 9.71905 21.818 21.818a21.818 21.818 0 0 0 21.818 21.818 21.818 21.818 0 0 0 21.818-21.818c0-35.9015-29.5525-65.454-65.454-65.454zm130.908 130.908c-35.8841 0-65.454 29.5699-65.454 65.454v218.18c0 35.8841 29.5699 65.454 65.454 65.454h218.18c35.8841 0 65.454-29.5699 65.454-65.454v-218.18c0-35.8841-29.5699-65.454-65.454-65.454zm0 43.636h218.18c12.4646 0 21.818 9.35338 21.818 21.818v218.18c0 12.4646-9.35338 21.818-21.818 21.818h-218.18c-12.4646 0-21.818-9.35338-21.818-21.818v-218.18c0-12.4646 9.35338-21.818 21.818-21.818z" stroke-linecap="round" stroke-linejoin="round" stroke-width="43.636" style="-inkscape-stroke:none"/>
</svg>
