<svg version="1.1" viewBox="0 0 512 512" xmlns="http://www.w3.org/2000/svg">
  <path d="m63.298 329.74v-236.45h385.41v236.45zm432.7-236.45c0-25.838-21.453-47.291-47.291-47.291l-385.42-1e-3c-25.838 0-47.291 21.453-47.291 47.291v236.45c-8e-6 25.838 21.453 47.289 47.291 47.289l166.71-0.0921v41.769h-36.355c-13.059 0-23.645 10.586-23.645 23.645 0 13.059 10.586 23.645 23.645 23.645h124.71c13.058-1e-3 23.643-10.587 23.643-23.645 0-13.058-10.585-23.644-23.643-23.645h-36.357v-41.769c78.817 0.0482 87.892 5e-3 166.71-2e-5 30.39-2e-3 47.29-23.051 47.29-47.196z" style="-inkscape-stroke:none"/>
</svg>
