<svg version="1.1" viewBox="0 0 600 600" xml:space="preserve" xmlns="http://www.w3.org/2000/svg" xmlns:xlink="http://www.w3.org/1999/xlink"><path d="m197.1 192.3c15.24-8.482 33.78-30.42 52-30.42 8.257 0 15.22 5.175 22 9.22 11.62 6.938 23.29 13.83 35 20.62 4.44 2.577 9.874 7.432 15 8.304 10.25 1.744 20.19-15.61 32-15.65 18.03-0.063 35.97 19.01 52 25.92-0.313-41.06 5.815-83.86-20.9-119-41.2-54.18-128-54.23-167.7 2-21.46 30.41-19.44 63.85-19.44 99m31 6-32.32 22.4c-2.459 10.12-5.13 17.64-9.018 23.86-7.548 12.06-16.67 28.74-16.67 28.74l165 97.01 75 44 40 22.99c17.17-52.77 10.97-107.6-13.75-157-5.868-11.74-11.99-28.27-21.64-37.39-7.98-7.542-28.79-21.1-39.61-23.01-11.42-2.008-18.78 16.79-27.12 2.401-1.125-1.94-2.016-3.943-2.879-6.005-25.83 9.402-47.8 31.68-71 46l32-45-26.68-15.19s-13.88 4.571-19.09 6.332c-14.68 4.957-40.23 22.85-40.23 22.85l8-33m46 64-1 1 1-1m-113 27c-0.945 3.305-3.747 7.506-3.068 11 0.996 5.125 8.358 9.407 12.07 12.58 10.72 9.168 21.29 18.51 32 27.69 48.48 41.55 96.48 83.65 145 125.2 14.04 12.01 27.96 24.15 42 36.16 3.302 2.824 10.07 11.4 14.98 10.08 2.652-0.71 4.578-3.663 6.211-5.659 3.922-4.795 18.95-19.18 13.47-25.54-4.838-5.603-12.75-9.671-18.66-14.09-13.91-10.38-27.93-20.64-42-30.8-42.23-30.49-84.07-61.56-126-92.46-16.65-12.27-33.4-24.41-50-36.75-7.681-5.705-16.68-14.95-26-17.37m-13 40c-21.28 56.41 3.825 124.9 38.13 170 10.36 13.62 24.3 32.78 39.87 40.57 8.164 4.085 19.07 5.028 28 6.507 28.24 4.678 54.78 1.998 83 1.92-2.294-8.177-11.37-15.71-16.95-22-11.72-13.21-23.19-26.67-34.77-40-30.39-34.99-60.91-69.88-91.15-105-14.37-16.69-28.66-38.64-46.13-52z" fill="#080808"/></svg>
