<svg version="1.1" viewBox="0 0 512 512" xmlns="http://www.w3.org/2000/svg">
  <path d="m496 165.88a120.15 120.15 0 0 0-120.15-120.15h-60.076l-3.0038 0.21027a22.529 22.529 0 0 0 3.0038 44.847h60.076l4.9563 0.1502a75.095 75.095 0 0 1 70.139 74.945v0.69088a85.909 85.909 0 0 1 43.495 18.744q1.532-9.492 1.562-19.435m-277.79-97.624a22.529 22.529 0 0 0-22.529-22.529h-60.076l-6.0076 0.15019a120.15 120.15 0 0 0 6.0076 240.12h60.076l3.0639-0.21028a22.529 22.529 0 0 0-3.0639-44.817h-60.076l-4.9262-0.15016a75.095 75.095 0 0 1 4.9262-150.04h60.076l3.0338-0.21027a22.529 22.529 0 0 0 19.465-22.318m150.19 75.095h-225.29l-3.0338 0.18023a22.529 22.529 0 0 0 3.0639 44.877h225.26l3.0338-0.18023a22.529 22.529 0 0 0-3.0338-44.847m-113.24 214.05 145.05-145.05a56.171 56.171 0 0 1 79.42 79.451l-145.05 145.02a66.084 66.084 0 0 1-30.639 17.362l-44.997 11.264a26.734 26.734 0 0 1-32.381-32.411l11.234-44.967c2.9137-11.625 8.8912-22.228 17.362-30.669" fill="currentColor" stroke-width="30.038"/>
</svg>
