<svg version="1.1" viewBox="0 0 512 512" xmlns="http://www.w3.org/2000/svg">
 <path d="m494 246.4c-48.463-112.52-139.63-182.34-238-182.34-98.366 0-189.53 69.816-238 182.34a23.992 23.992 0 0 0 0 19.193c48.463 112.52 139.63 182.34 238 182.34 98.366 0 189.53-69.816 238-182.34a23.992 23.992 0 0 0 0-19.193m-238 153.55c-76.054 0-148.03-54.941-189.53-143.95 41.506-89.009 113.48-143.95 189.53-143.95 76.053 0 148.03 54.941 189.53 143.95-41.506 89.009-113.48 143.95-189.53 143.95m0-239.92a95.967 95.967 0 1 0 95.967 95.967 95.967 95.967 0 0 0-95.967-95.967m0 143.95a47.983 47.983 0 1 1 47.983-47.983 47.983 47.983 0 0 1-47.983 47.983" fill="currentColor" stroke-width="23.992"/>
</svg>
