<svg version="1.1" viewBox="0 0 512 512" xmlns="http://www.w3.org/2000/svg">
  <path d="m309.885 56.2777c-15.811-53.7036-91.9561-53.7036-107.767 0l-2.82019 9.57064a26.1917 26.1917 0 0 1-37.6525 15.601l-8.76058-4.80032c-49.2033-26.7618-102.997 27.0618-76.2051 76.2351l4.77032 8.76058a26.1917 26.1917 0 0 1-15.601 37.6525l-9.57064 2.82019c-53.7036 15.811-53.7036 91.9561 0 107.767l9.57064 2.82019a26.1917 26.1917 0 0 1 15.601 37.6525l-4.80032 8.76058c-26.7618 49.2033 27.0318 103.027 76.2351 76.2051l8.76058-4.77031a26.1917 26.1917 0 0 1 37.6525 15.601l2.82019 9.57063c15.811 53.7036 91.9561 53.7036 107.767 0l2.82019-9.57063a26.1917 26.1917 0 0 1 37.6525-15.601l8.76058 4.80032c49.2033 26.7918 103.027-27.0618 76.2051-76.2351l-4.77031-8.76058a26.1917 26.1917 0 0 1 15.601-37.6525l9.57063-2.82019c53.7036-15.811 53.7036-91.9561 0-107.767l-9.57063-2.82019a26.1917 26.1917 0 0 1-15.601-37.6525l4.80032-8.76058c26.7918-49.2033-27.0618-102.997-76.2351-76.2051l-8.76058 4.77032a26.1917 26.1917 0 0 1-37.6525-15.601zm-78.9953 8.49057c7.38049-25.0517 42.8428-25.0517 50.2233 0l2.82019 9.57064a56.1937 56.1937 0 0 0 80.7954 33.4522l8.73058-4.80032c22.9215-12.4508 48.0032 12.6008 35.5224 35.5524l-4.77032 8.76058a56.1937 56.1937 0 0 0 33.4822 80.7654l9.54064 2.82019c25.0517 7.38049 25.0517 42.8428 0 50.2233l-9.57064 2.82019a56.1937 56.1937 0 0 0-33.4522 80.7954l4.80032 8.73058c12.4508 22.9215-12.6008 48.0032-35.5524 35.5224l-8.73058-4.77032a56.1937 56.1937 0 0 0-80.7954 33.4822l-2.82019 9.54064c-7.38049 25.0517-42.8428 25.0517-50.2233 0l-2.82019-9.57064a56.1937 56.1937 0 0 0-80.7654-33.4522l-8.76058 4.80032c-22.9215 12.4508-48.0032-12.6008-35.5224-35.5524l4.77032-8.73058a56.1937 56.1937 0 0 0-33.4522-80.8254l-9.57064-2.82019c-25.0517-7.38049-25.0517-42.8428 0-50.2234l9.57064-2.82018a56.1937 56.1937 0 0 0 33.4522-80.7354l-4.80032-8.76058c-12.4508-22.9215 12.6008-48.0032 35.5524-35.5224l8.76058 4.77032a56.1937 56.1937 0 0 0 80.7654-33.4522zm25.1117 93.8463a97.3865 97.3865 0 1 0 0 194.773 97.3865 97.3865 0 0 0 0-194.773m-67.3845 97.3865a67.3845 67.3845 0 1 1 134.769 0 67.3845 67.3845 0 0 1-134.769 0" stroke-width="30.002"/>
</svg>
