<svg version="1.1" viewBox="0 0 512 512" xmlns="http://www.w3.org/2000/svg">
  <path d="m330.981 16.0078c-31.5456 0.109867-62.4029 9.2786-88.369 25.5591-54.6154 34.2437-87.8794 101.918-71.2877 175.447l-134.832 134.876c-13.0963 13.093-20.4883 30.871-20.4922 49.3893v46.0349c0 26.5566 22.127 48.6865 48.6826 48.6865h63.5866c26.5555 0 48.6826-22.1299 48.6826-48.6865v-14.9027h14.9021c26.5555 0 48.6845-22.128 48.6845-48.6846v-15.4432c17.5219-0.69417 34.2931-7.50511 46.7366-19.9525l7.70064-7.65968c73.5254 16.5924 141.197-16.6711 175.44-71.2887 37.2115-59.3535 37.3584-144.169-23.1408-204.681-30.2496-30.2509-66.5693-45.31-102.749-48.1873-4.52237-0.359746-9.04406-0.529471-13.5504-0.513775zm1.55443 53.961c2.21472 0.0087 4.43395 0.08885 6.65626 0.245636 23.7043 1.67239 47.7322 11.8843 69.216 33.3691 42.9677 42.9695 40.8787 96.0424 15.4406 136.614-25.4381 40.5751-72.2486 65.5102-129.696 45.4973a27.48 27.4811 0 0 0-28.4813 6.54027l-17.2205 17.2634c-2.80359 2.80447-6.59088 4.34562-10.5562 4.34649h-3.64311c-26.5555 0-48.6845 22.1299-48.6845 48.6865v14.9027h-14.9021c-26.5555 0-48.6826 22.128-48.6826 48.6846v14.9027h-51.0019v-39.7418c8.48e-4 -3.96554 1.54186-7.753 4.34621-10.5566l144.432-144.4a27.48 27.4811 0 0 0 6.54183-28.4825c-20.0122-57.4517 4.92115-104.26 45.4954-129.701 18.385-11.5272 39.3302-18.2552 60.7392-18.1716zm18.289 53.1133c-20.7034 0-38.0851 17.3825-38.0851 38.0867 0 20.7042 17.3818 38.0867 38.0851 38.0867s38.0851-17.3825 38.0851-38.0867c0-20.7033-17.3818-38.0867-38.0851-38.0867zm0 21.1958c8.99703 0 16.8902 7.89326 16.8902 16.891 0 8.99739-7.89293 16.8909-16.8902 16.8909-8.99702 0-16.8902-7.89326-16.8902-16.8909 0-8.9974 7.89293-16.891 16.8902-16.891zm0 6.29278a10.5974 10.5979 0 0 0-10.5974 10.5979 10.5974 10.5979 0 0 0 10.5974 10.5979 10.5974 10.5979 0 0 0 10.5974-10.5979 10.5974 10.5979 0 0 0-10.5974-10.5979zm67.487 199.506a19.2 19.2008 0 0 0-19.2 19.2008v33.5582h-33.4646a19.2 19.2008 0 0 0-19.2 19.2008 19.2 19.2008 0 0 0 19.2 19.2008h33.4646v33.6148a19.2 19.2008 0 0 0 19.2 19.2008 19.2 19.2008 0 0 0 19.2-19.2008v-33.6148h33.7046a19.2 19.2008 0 0 0 19.2-19.2008 19.2 19.2008 0 0 0-19.2-19.2008h-33.7046v-33.5582a19.2 19.2008 0 0 0-19.2-19.2008zm-9e-3 124.776v-105.576m-52.656 52.7638h105.571" stroke-linecap="round" stroke-width=".96002" style="-inkscape-stroke:none"/>
</svg>
