<svg version="1.1" viewBox="0 0 512 512" xmlns="http://www.w3.org/2000/svg">
  <path d="m332.59 16.002c-31.158 0.1423-61.616 9.2803-87.346 25.412-55.422 34.748-91.131 103.4-71.648 178.42l-138.29 138.29c-12.348 12.345-19.295 29.11-19.299 46.57a22.502 22.502 0 0 0 0 0.00586v47.105c0 24.138 20.05 44.188 44.188 44.188h65.062c24.138 0 44.188-20.05 44.188-44.188v-20.875h20.877c24.138 0 44.188-20.05 44.188-44.188v-20.875h2.918a22.502 22.502 0 0 0 0.00391 0c17.461-3e-3 34.228-6.9535 46.572-19.301l0.00196-0.00195 8.1621-8.1621c1.5944 0.41777 3.1931 0.87847 4.7832 1.248a22.5 22.5 0 0 0 27.01-16.822 22.5 22.5 0 0 0-16.822-27.01c-4.5847-1.0656-9.2496-2.4112-13.99-4.0625a22.502 22.502 0 0 0-23.311 5.3379l-17.654 17.654a22.502 22.502 0 0 0-0.00195 0.00195c-3.9204 3.9216-9.2143 6.1162-14.758 6.1172h-3.7266c-24.138 0-44.188 20.05-44.188 44.188v20.875h-20.877c-24.138 0-44.188 20.05-44.188 44.188v20.875h-63.438v-46.289-0.00391c0.0022-5.5432 2.1969-10.835 6.1172-14.754a22.502 22.502 0 0 0 0.001953-0.00195l147.78-147.78a22.502 22.502 0 0 0 5.3379-23.311c-21.31-61.175 5.473-112.09 48.908-139.32 43.435-27.232 100.96-29.158 146.71 16.6 44.852 44.852 43.853 100.92 18.188 144.12a22.5 22.5 0 0 0 7.8516 30.836 22.5 22.5 0 0 0 30.836-7.8516c34.753-58.498 33.869-140-25.055-198.92-33.814-33.814-75.033-48.501-115.09-48.318zm20.385 109.68c-18.149 0-33.344 15.195-33.344 33.344 1e-5 18.149 15.195 33.344 33.344 33.344 18.149-1e-5 33.344-15.195 33.344-33.344s-15.195-33.344-33.344-33.344zm0 21.688c6.171 0 11.656 5.4852 11.656 11.656 0 6.171-5.4852 11.656-11.656 11.656-6.171-1e-5 -11.656-5.4852-11.656-11.656 1e-5 -6.171 5.4852-11.656 11.656-11.656zm47.375 161.55a22.857 22.857 0 0 0-22.857 22.857v45.713h-45.715a22.857 22.857 0 0 0-22.855 22.857 22.857 22.857 0 0 0 22.855 22.857h45.715v45.715a22.857 22.857 0 0 0 22.857 22.857 22.857 22.857 0 0 0 22.855-22.857v-45.715h45.715a22.857 22.857 0 0 0 22.857-22.857 22.857 22.857 0 0 0-22.857-22.857h-45.715v-45.713a22.857 22.857 0 0 0-22.855-22.857z" style="-inkscape-stroke:none"/>
</svg>
