<svg version="1.1" viewBox="0 0 512 512" xmlns="http://www.w3.org/2000/svg">
  <path d="m337.3 16.076c-31.585-0.96202-63.592 7.1726-91.82 24.881-60.412 37.897-88.878 110.46-71.695 178.59l-138.47 138.47c-12.358 12.354-19.313 29.133-19.316 46.607a22.502 22.502 0 0 0 0 0.00586v47.158c-8e-6 24.151 20.06 44.211 44.211 44.211h65.137c24.151 1e-5 44.211-20.06 44.211-44.211v-20.924h20.924c24.151 1e-5 44.213-20.062 44.213-44.213v-20.924h2.9453a22.502 22.502 0 0 0 0.00586 0c17.473-4e-3 34.252-6.9559 46.605-19.312l8.1992-8.1992c68.134 17.182 140.69-11.284 178.59-71.695 40.476-64.523 30.933-148.78-22.926-202.64-30.295-30.295-70.209-46.57-110.82-47.807zm-1.3164 44.867c29.396 0.88245 58.265 12.706 80.316 34.758 39.203 39.203 46.081 99.951 16.625 146.91-29.456 46.956-87.155 67.214-139.51 48.977a22.502 22.502 0 0 0-23.311 5.3379l-17.674 17.674a22.502 22.502 0 0 0-0.00195 0.00196c-3.9291 3.9303-9.2355 6.1297-14.793 6.1309h-3.7305c-24.151 0-44.211 20.062-44.211 44.213v20.924h-20.924c-24.151 1e-5 -44.213 20.06-44.213 44.211v20.924h-63.559v-46.365-0.00391c0.0022-5.556 2.2015-10.861 6.1309-14.789a22.502 22.502 0 0 0 0.001953-0.00196l147.95-147.95a22.502 22.502 0 0 0 5.3379-23.311c-18.237-52.353 2.0204-110.05 48.977-139.51 20.543-12.887 43.726-18.819 66.59-18.133zm17.309 65.125c-17.769 0-32.643 14.871-32.643 32.641 0 17.769 14.873 32.643 32.643 32.643 17.769 0 32.641-14.873 32.641-32.643 0-17.769-14.871-32.641-32.641-32.641zm0 21.762c5.7513 0 10.879 5.1276 10.879 10.879 0 5.7513-5.1276 10.881-10.879 10.881-5.7513 0-10.881-5.1296-10.881-10.881 0-5.7513 5.1296-10.879 10.881-10.879z" color="#000000" stroke-linecap="round" stroke-linejoin="round" style="-inkscape-stroke:none"/>
</svg>
