<svg version="1.1" viewBox="0 0 512 512" xmlns="http://www.w3.org/2000/svg">
 <path d="m316.58 15.983c-23.874 0-47.714 9.0724-65.789 27.15l-63.445 63.445c-32.704 32.699-34.243 83.58-7.7841 119.9l-36.482 36.482a24.011 24.011 0 0 0-7.0338 16.975v24.009h-24.009a24.011 24.011 0 0 0-24.009 24.009v24.009h-24.009a24.011 24.011 0 0 0-16.975 7.0338l-9.9411 9.9411a24.011 24.011 0 0 0-0.75027 0.75028l-2.8604 3.1418a24.011 24.011 0 0 0-0.65649 0.79709c-10.857 12.958-16.83 29.331-16.834 46.236v28.135a24.011 24.011 0 0 0 0.04682 1.4537l0.14069 2.7666a24.011 24.011 0 0 0 0.14069 1.4067c2.8255 23.984 23.54 42.387 47.689 42.39h28.135a24.011 24.011 0 0 0 1.0785-0.048l4.2203-0.18727a24.011 24.011 0 0 0 0.98474-0.048c16.852-1.4811 32.678-8.8591 44.641-20.82l142.46-142.46c36.323 26.459 87.204 24.92 119.9-7.7841l63.445-63.445c36.156-36.151 36.156-95.475 0-131.63l-86.469-86.469c-18.075-18.078-41.962-27.15-65.836-27.15zm0 47.736c11.484 0 22.986 4.4627 31.887 13.364l86.469 86.469c17.803 17.8 17.803 45.926 0 63.726l-63.445 63.445c-17.8 17.803-45.926 17.803-63.726 0l-7.2214-7.2214a24.011 24.011 0 0 0-33.95 0l-157.46 157.46c-3.9669 3.9663-9.1876 6.3772-14.771 6.8931l-2.7666 0.14067h-27.526l-0.04689-0.70338v-27.432c0.0014-5.6266 2.0222-11.062 5.627-15.381 0.0097-0.0116-0.0097-0.036 0-0.048l1.7819-1.9214 2.5322-2.5322h38.076a24.011 24.011 0 0 0 24.009-24.009v-24.009h24.009a24.011 24.011 0 0 0 24.009-24.009v-38.076l44.454-44.454a24.011 24.011 0 0 0 0-33.95l-7.2214-7.2214c-17.803-17.8-17.803-45.926 0-63.726l63.445-63.445c8.9002-8.9016 20.356-13.364 31.84-13.364zm11.535 96.175a24.009 24.009 0 0 0-24.009 24.009 24.009 24.009 0 0 0 24.009 24.009h0.23528a24.009 24.009 0 0 0 24.009-24.009 24.009 24.009 0 0 0-24.009-24.009z" color="#000000" fill="currentColor" stroke-linecap="round" stroke-linejoin="round" stroke-width="24.009" style="-inkscape-stroke:none"/>
</svg>
