<svg version="1.1" viewBox="0 0 512 512" xmlns="http://www.w3.org/2000/svg">
 <path d="m256 16q4.5252 0 9.0504 0.36767a155.55 155.55 0 0 0-65.615 126.9c0 37.248 13.095 71.442 34.929 98.225l-20.788 20.759v47.882a16.97 16.97 0 0 1-16.969 16.97h-53.737v39.596a16.97 16.97 0 0 1-16.97 16.97h-79.191a16.97 16.97 0 0 1-16.97-16.97v-80.86a16.97 16.97 0 0 1 4.9777-11.992l112.73-112.73a113.13 113.13 0 0 1 108.55-145.12m-28.282 127.27a127.27 127.27 0 1 1 197.98 105.83v57.979l22.145 22.173a16.97 16.97 0 0 1 0 23.984l-30.432 30.432 30.206 30.177a16.97 16.97 0 0 1-1.4141 25.256l-66.464 53.171a16.97 16.97 0 0 1-21.212 0l-67.878-54.302a16.97 16.97 0 0 1-6.3636-13.236v-175.63a127.27 127.27 0 0 1-56.565-105.83m148.48-28.282a21.212 21.212 0 1 0-42.424 0 21.212 21.212 0 0 0 42.424 0" fill="currentColor" stroke-width="28.282"/>
</svg>
