<svg version="1.1" viewBox="0 0 512 512" xmlns="http://www.w3.org/2000/svg">
  <path d="m147.61 55.436a22.5 22.5 0 0 0-4.6465 0.73633 22.5 22.5 0 0 0-10.086 5.8242l-46.947 46.947-15.52-15.52a22.5 22.5 0 0 0-31.818 0 22.5 22.5 0 0 0 0 31.82l31.428 31.428a22.502 22.502 0 0 0 31.82 0l62.857-62.857a22.5 22.5 0 0 0 0-31.818 22.5 22.5 0 0 0-17.088-6.5605zm104.39 27.564c-13.254 0-24 10.746-24 24 0 13.254 10.746 24 24 24h204c13.254 0 24-10.746 24-24 0-13.254-10.746-24-24-24h-204zm-104.39 119.1a22.5 22.5 0 0 0-4.6465 0.73633 22.5 22.5 0 0 0-10.086 5.8242l-46.947 46.947-15.52-15.52a22.5 22.5 0 0 0-31.818 0 22.5 22.5 0 0 0 0 31.82l31.428 31.43a22.502 22.502 0 0 0 31.82 0l62.857-62.857a22.5 22.5 0 0 0 0-31.82 22.5 22.5 0 0 0-17.088-6.5606zm104.39 29.898c-13.254 0-23.998 10.746-23.998 24 0 13.254 10.744 24 23.998 24h204c13.254 0 24-10.746 24-24 0-13.254-10.746-24-24-24h-204zm-104.39 116.77a22.5 22.5 0 0 0-4.6465 0.73633 22.5 22.5 0 0 0-10.086 5.8223l-46.947 46.947-15.52-15.518a22.5 22.5 0 0 0-31.818 0 22.5 22.5 0 0 0 0 31.818l31.428 31.43a22.502 22.502 0 0 0 31.82 0l62.857-62.857a22.5 22.5 0 0 0 0-31.82 22.5 22.5 0 0 0-17.088-6.5586zm104.39 31.23c-13.254 0-23.998 10.746-23.998 24 0 13.254 10.744 24 23.998 24h204c13.254 0 24-10.746 24-24 0-13.254-10.746-24-24-24h-204z" style="-inkscape-stroke:none"/>
</svg>
