<svg version="1.1" viewBox="0 0 512 512" xmlns="http://www.w3.org/2000/svg">
  <path d="m61.998 60c-16.62 0-30 13.38-30 30v90c0 16.62 13.38 30 30 30h120c16.62 0 30-13.38 30-30v-90c0-16.62-13.38-30-30-30h-120zm268 0c-16.62 0-30 13.38-30 30v90c0 16.62 13.38 30 30 30h120c16.62 0 30-13.38 30-30v-90c0-16.62-13.38-30-30-30h-120zm-268 242c-16.62 0-30 13.38-30 30v90c0 16.62 13.38 30 30 30h120c16.62 0 30-13.38 30-30v-90c0-16.62-13.38-30-30-30h-120zm268 0c-16.62 0-30 13.38-30 30v90c0 16.62 13.38 30 30 30h120c16.62 0 30-13.38 30-30v-90c0-16.62-13.38-30-30-30h-120z" stroke-linecap="round" stroke-linejoin="round" stroke-width="45" style="paint-order:stroke fill markers"/>
</svg>
