<svg version="1.1" viewBox="0 0 512 512" xmlns="http://www.w3.org/2000/svg">
  <path d="m383.583 166.898a24.036 24.036 0 0 0 0 33.9893l31.0786 31.0785h-230.407a24.036 24.036 0 0 0-24.036 24.036 24.036 24.036 0 0 0 24.036 24.036h230.407l-31.0786 31.0786a24.036 24.036 0 0 0 0 33.9893 24.036 24.036 0 0 0 33.9893 0l72.108-72.108a24.036 24.036 0 0 0 6.24383-15.0694 24.0384 24.0384 0 0 0 0-3.84961 24.036 24.036 0 0 0-6.24383-15.0694l-72.108-72.108a24.036 24.036 0 0 0-33.9893 0zm-295.475-127.223c-39.5392 0-72.108 32.5688-72.108 72.108v288.432c0 39.5392 32.5688 72.108 72.108 72.108h168.252c39.5392 0 72.108-32.5688 72.108-72.108v-48.072a24.036 24.036 0 0 0-24.036-24.036 24.036 24.036 0 0 0-24.036 24.036v48.072c0 13.5594-10.4766 24.036-24.036 24.036h-168.252c-13.5594 0-24.036-10.4766-24.036-24.036v-288.432c0-13.5594 10.4766-24.036 24.036-24.036h168.252c13.5594 0 24.036 10.4766 24.036 24.036v48.072a24.036 24.036 0 0 0 24.036 24.036 24.036 24.036 0 0 0 24.036-24.036v-48.072c0-39.5392-32.5688-72.108-72.108-72.108z" stroke-linecap="round" stroke-linejoin="round" stroke-width="48.072" style="-inkscape-stroke:none"/>
</svg>
