<svg version="1.1" viewBox="0 0 512 512" xmlns="http://www.w3.org/2000/svg">
  <path d="m158.24 16c-34.646 0-62.242 29.482-62.242 64.238v351.52c0 34.757 27.596 64.238 62.242 64.238h195.52c34.646 0 62.242-29.482 62.242-64.238v-351.52c0-34.757-27.596-64.238-62.242-64.238h-195.52zm0 40h195.52c11.989 0 22.242 10.143 22.242 24.238v351.52c0 14.095-10.253 24.238-22.242 24.238h-195.52c-11.989 0-22.242-10.143-22.242-24.238v-351.52c0-14.095 10.253-24.238 22.242-24.238zm49.758 24a20 20 0 0 0-20 20 20 20 0 0 0 20 20h96a20 20 0 0 0 20-20 20 20 0 0 0-20-20h-96zm47.699 280c-0.57942 0.00443-1.1597 0.0262-1.7441 0.0625-17.2 1.0683-30.955 15.703-30.955 32.938 0 17.234 13.755 31.869 30.955 32.938 18.703 1.1616 35.045-14.198 35.045-32.938 0-18.154-15.339-33.137-33.301-33z" color="#000000" stroke-linecap="round" stroke-linejoin="round" style="-inkscape-stroke:none"/>
</svg>
