<svg version="1.1" viewBox="0 0 512 512" xmlns="http://www.w3.org/2000/svg">
  <path d="m416.03 16a26.667 26.667 0 0 0-26.668 26.666v42.541c-51.763-40.382-120.06-55.932-185.63-39.643-83.524 20.749-146.98 89.113-161.46 173.95a26.667 26.667 0 0 0 21.799 30.773 26.667 26.667 0 0 0 30.773-21.801c10.94-64.09 58.647-115.48 121.75-131.16 47.051-11.689 95.818-1.7967 134.03 25.34h-41.264a26.667 26.667 0 0 0-26.666 26.668 26.667 26.667 0 0 0 26.666 26.666h106.67a26.669 26.669 0 0 0 26.666-26.666v-106.67a26.667 26.667 0 0 0-26.666-26.666zm31.891 245.71a26.667 26.667 0 0 0-30.766 21.809c-10.921 64.102-58.627 115.51-121.73 131.19-47.07 11.693-95.857 1.7859-134.07-25.379h41.32a26.667 26.667 0 0 0 26.668-26.668 26.667 26.667 0 0 0-26.668-26.666h-106.67a26.669 26.669 0 0 0-26.666 26.666v106.67a26.667 26.667 0 0 0 26.666 26.666 26.667 26.667 0 0 0 26.666-26.666v-42.502c51.757 40.38 120.05 55.929 185.61 39.641 83.538-20.753 147-89.139 161.45-173.99a26.667 26.667 0 0 0-21.811-30.766z" color="#000000" fill="currentColor" stroke-linecap="round" stroke-linejoin="round" style="-inkscape-stroke:none"/>
</svg>
