<svg version="1.1" viewBox="0 0 512 512" xmlns="http://www.w3.org/2000/svg">
  <path d="m357 352c-1 1-2 2-3 2 0 1-1 2-2 3-31 30-74 49-121 49-48 0-92-20-123-52-31.9-31-51.9-75-51.9-123s20-92 51.9-123c31-31.9 75-51.9 123-51.9s92 20 123 51.9c32 31 52 75 52 123 0 47-19 90-49 121zm142 111-92-91c30-39 49-88 49-141 0-62-25-119-66-158.9-40-40.8-96-65.98-159-65.98-62 0-119 25.18-158.9 65.98-40.8 39.9-65.98 96.9-65.98 158.9 0 63 25.18 119 65.98 159 39.9 41 96.9 66 158.9 66 53 0 102-19 141-49l91 92c10 9 26 9 36 0 9-10 9-26 0-36z" stroke-width=".78125"/>
</svg>
