<svg version="1.1" viewBox="0 0 512 512" xmlns="http://www.w3.org/2000/svg">
  <g transform="matrix(22.326 0 0 22.326 -11.907 -11.907)" clip-rule="evenodd" fill="currentColor" fill-rule="evenodd">
    <path d="m12 8.25a3.75 3.75 0 1 0 0 7.5 3.75 3.75 0 0 0 0-7.5m-2.25 3.75a2.25 2.25 0 1 1 4.5 0 2.25 2.25 0 0 1-4.5 0"/>
    <path d="m11.975 1.25c-0.445 0-0.816 0-1.12 0.02a2.8 2.8 0 0 0-0.907 0.19 2.75 2.75 0 0 0-1.489 1.488c-0.145 0.35-0.184 0.72-0.2 1.122a0.87 0.87 0 0 1-0.415 0.731 0.87 0.87 0 0 1-0.841-5e-3c-0.356-0.188-0.696-0.339-1.072-0.389a2.75 2.75 0 0 0-2.033 0.545 2.8 2.8 0 0 0-0.617 0.691c-0.17 0.254-0.356 0.575-0.578 0.96l-0.025 0.044c-0.223 0.385-0.408 0.706-0.542 0.98-0.14 0.286-0.25 0.568-0.29 0.88a2.75 2.75 0 0 0 0.544 2.033c0.231 0.301 0.532 0.52 0.872 0.734a0.87 0.87 0 0 1 0.426 0.726 0.87 0.87 0 0 1-0.426 0.726c-0.34 0.214-0.64 0.433-0.872 0.734a2.75 2.75 0 0 0-0.545 2.033c0.041 0.312 0.15 0.594 0.29 0.88 0.135 0.274 0.32 0.595 0.543 0.98l0.025 0.044c0.222 0.385 0.408 0.706 0.578 0.96 0.177 0.263 0.367 0.5 0.617 0.69a2.75 2.75 0 0 0 2.033 0.546c0.376-0.05 0.716-0.2 1.072-0.389a0.87 0.87 0 0 1 0.84-5e-3 0.86 0.86 0 0 1 0.417 0.731c0.015 0.402 0.054 0.772 0.2 1.122a2.75 2.75 0 0 0 1.488 1.489c0.29 0.12 0.59 0.167 0.907 0.188 0.304 0.021 0.675 0.021 1.12 0.021h0.05c0.445 0 0.816 0 1.12-0.02 0.318-0.022 0.617-0.069 0.907-0.19a2.75 2.75 0 0 0 1.489-1.488c0.145-0.35 0.184-0.72 0.2-1.122a0.87 0.87 0 0 1 0.415-0.732 0.87 0.87 0 0 1 0.841 6e-3c0.356 0.188 0.696 0.339 1.072 0.388a2.75 2.75 0 0 0 2.033-0.544c0.25-0.192 0.44-0.428 0.617-0.691 0.17-0.254 0.356-0.575 0.578-0.96l0.025-0.044c0.223-0.385 0.408-0.706 0.542-0.98 0.14-0.286 0.25-0.569 0.29-0.88a2.75 2.75 0 0 0-0.544-2.033c-0.231-0.301-0.532-0.52-0.872-0.734a0.87 0.87 0 0 1-0.426-0.726c0-0.278 0.152-0.554 0.426-0.726 0.34-0.214 0.64-0.433 0.872-0.734a2.75 2.75 0 0 0 0.545-2.033 2.8 2.8 0 0 0-0.29-0.88 18 18 0 0 0-0.543-0.98l-0.025-0.044a18 18 0 0 0-0.578-0.96 2.8 2.8 0 0 0-0.617-0.69 2.75 2.75 0 0 0-2.033-0.546c-0.376 0.05-0.716 0.2-1.072 0.389a0.87 0.87 0 0 1-0.84 5e-3 0.87 0.87 0 0 1-0.417-0.731c-0.015-0.402-0.054-0.772-0.2-1.122a2.75 2.75 0 0 0-1.488-1.489c-0.29-0.12-0.59-0.167-0.907-0.188-0.304-0.021-0.675-0.021-1.12-0.021zm-1.453 1.595c0.077-0.032 0.194-0.061 0.435-0.078 0.247-0.017 0.567-0.017 1.043-0.017s0.796 0 1.043 0.017c0.241 0.017 0.358 0.046 0.435 0.078 0.307 0.127 0.55 0.37 0.677 0.677 0.04 0.096 0.073 0.247 0.086 0.604 0.03 0.792 0.439 1.555 1.165 1.974s1.591 0.392 2.292 0.022c0.316-0.167 0.463-0.214 0.567-0.227a1.25 1.25 0 0 1 0.924 0.247c0.066 0.051 0.15 0.138 0.285 0.338 0.139 0.206 0.299 0.483 0.537 0.895s0.397 0.69 0.506 0.912c0.107 0.217 0.14 0.333 0.15 0.416a1.25 1.25 0 0 1-0.247 0.924c-0.064 0.083-0.178 0.187-0.48 0.377-0.672 0.422-1.128 1.158-1.128 1.996s0.456 1.574 1.128 1.996c0.302 0.19 0.416 0.294 0.48 0.377 0.202 0.263 0.29 0.595 0.247 0.924-0.01 0.083-0.044 0.2-0.15 0.416-0.109 0.223-0.268 0.5-0.506 0.912s-0.399 0.689-0.537 0.895c-0.135 0.2-0.219 0.287-0.285 0.338a1.25 1.25 0 0 1-0.924 0.247c-0.104-0.013-0.25-0.06-0.567-0.227-0.7-0.37-1.566-0.398-2.292 0.021s-1.135 1.183-1.165 1.975c-0.013 0.357-0.046 0.508-0.086 0.604a1.25 1.25 0 0 1-0.677 0.677c-0.077 0.032-0.194 0.061-0.435 0.078-0.247 0.017-0.567 0.017-1.043 0.017s-0.796 0-1.043-0.017c-0.241-0.017-0.358-0.046-0.435-0.078a1.25 1.25 0 0 1-0.677-0.677c-0.04-0.096-0.073-0.247-0.086-0.604-0.03-0.792-0.439-1.555-1.165-1.974s-1.591-0.392-2.292-0.022c-0.316 0.167-0.463 0.214-0.567 0.227a1.25 1.25 0 0 1-0.924-0.247c-0.066-0.051-0.15-0.138-0.285-0.338a17 17 0 0 1-0.537-0.895c-0.238-0.412-0.397-0.69-0.506-0.912-0.107-0.217-0.14-0.333-0.15-0.416a1.25 1.25 0 0 1 0.247-0.924c0.064-0.083 0.178-0.187 0.48-0.377 0.672-0.422 1.128-1.158 1.128-1.996s-0.456-1.574-1.128-1.996c-0.302-0.19-0.416-0.294-0.48-0.377a1.25 1.25 0 0 1-0.247-0.924c0.01-0.083 0.044-0.2 0.15-0.416 0.109-0.223 0.268-0.5 0.506-0.912s0.399-0.689 0.537-0.895c0.135-0.2 0.219-0.287 0.285-0.338a1.25 1.25 0 0 1 0.924-0.247c0.104 0.013 0.25 0.06 0.567 0.227 0.7 0.37 1.566 0.398 2.292-0.022 0.726-0.419 1.135-1.182 1.165-1.974 0.013-0.357 0.046-0.508 0.086-0.604 0.127-0.307 0.37-0.55 0.677-0.677"/>
  </g>
</svg>
