<svg version="1.1" viewBox="0 0 512 512" xmlns="http://www.w3.org/2000/svg">
  <path d="m256.007 37.7569a21.825 21.825 0 0 0-21.825 21.825v21.825a21.825 21.825 0 0 0 21.825 21.825 21.825 21.825 0 0 0 21.825-21.825v-21.825a21.825 21.825 0 0 0-21.825-21.825zm180.995 6.39407-335.21 335.254-57.6311 57.5896a21.825 21.825 0 0 0 0 30.8627 21.825 21.825 0 0 0 30.8627 0l44.1607-44.1607c110.801 90.338 282.001 51.6685 338.418-84.1026a21.8272 21.8272 0 0 0-28.3463-28.6017c-56.2452 22.7766-119.073 6.07019-158.615-38.7481l197.235-197.235a21.825 21.825 0 0 0 0-30.8627 21.825 21.825 0 0 0-30.8627 0zm-320.675 50.3415a21.825 21.825 0 0 0-15.4309 6.39408 21.825 21.825 0 0 0 0 30.8627l15.303 15.303a21.825 21.825 0 0 0 30.8627 0 21.825 21.825 0 0 0 0-30.8627l-15.303-15.303a21.825 21.825 0 0 0-15.4309-6.39408zm-56.7363 139.689a21.825 21.825 0 0 0-21.825 21.825 21.825 21.825 0 0 0 21.825 21.825h21.825a21.825 21.825 0 0 0 21.825-21.825 21.825 21.825 0 0 0-21.825-21.825zm180.611 68.5021c39.7935 43.7046 96.3574 65.8024 153.969 60.1475-57.6049 75.3683-166.946 90.1591-244.134 30.0094zm10.6986-157.166c-27.8749 1.63954-53.1766 14.5141-72.04 33.377-18.8629 18.8629-31.6986 44.1214-33.3333 71.9963-1.63605 27.8749 8.93581 57.8777 33.377 82.313a21.825 21.825 0 0 0 30.8627 0 21.825 21.825 0 0 0 0-30.8627c-16.7249-16.7201-21.6046-33.0409-20.6742-48.8924 0.9304-15.8522 8.6283-31.6899 20.6314-43.6936 12.0031-12.0031 27.8792-19.7414 43.7351-20.6742 15.8567-0.93262 32.1679 3.95382 48.8924 20.6742a21.825 21.825 0 0 0 30.8627 0 21.825 21.825 0 0 0 0-30.9042c-24.4418-24.4353-54.4359-34.9746-82.313-33.3333z" stroke-linecap="round" stroke-linejoin="round" stroke-width="43.65" style="-inkscape-stroke:none"/>
</svg>
