<svg version="1.1" viewBox="0 0 512 512" xmlns="http://www.w3.org/2000/svg">
  <path d="m86 58c-38.434 0-70 31.566-70 70v256c0 38.434 31.566 70 70 70h340c38.434 0 70-31.566 70-70v-256c0-38.434-31.566-70-70-70zm0 40h340c16.966 0 30 13.034 30 30v256c0 16.966-13.034 30-30 30h-340c-16.966 0-30-13.034-30-30v-256c0-16.966 13.034-30 30-30zm124 236a20 20 0 0 0-20 20 20 20 0 0 0 20 20h96a20 20 0 0 0 20-20 20 20 0 0 0-20-20z" color="#000000" stroke-linecap="round" stroke-linejoin="round" style="-inkscape-stroke:none"/>
</svg>
