<svg version="1.1" viewBox="0 0 512 512" xmlns="http://www.w3.org/2000/svg">
 <path d="m124 88a36 36 0 1 0 36 36 36 36 0 0 0-36-36 36 36 0 1 0 36 36 36 36 0 0 0-36-36m357.84 157.92-216-216a48 48 0 0 0-33.84-13.92h-168a48 48 0 0 0-48 48v168a48 48 0 0 0 14.16 34.08l9.84 9.6a134.4 134.4 0 0 1 49.92-17.76l-25.92-25.92v-168h168l216 216-168 168-25.92-25.92a134.4 134.4 0 0 1-17.76 49.92l9.84 9.84a48 48 0 0 0 33.84 14.16 48 48 0 0 0 33.84-14.16l168-168a48 48 0 0 0 14.16-33.84 48 48 0 0 0-14.16-34.08m-357.84-157.92a36 36 0 1 0 36 36 36 36 0 0 0-36-36m84 336h-72v72h-48v-72h-72v-48h72v-72h48v72h72z" fill="currentColor" stroke-width="24"/>
</svg>
