<svg version="1.1" viewBox="0 0 512 512" xmlns="http://www.w3.org/2000/svg">
  <path d="m209.05469 11.5c-13.28551 0-24.05469 10.769174-24.05469 24.054688 0 13.285512 10.76918 24.05664 24.05469 24.05664h93.89062c13.28552 0 24.05469-10.771128 24.05469-24.05664 0-13.285514-10.76917-24.054688-24.05469-24.054688h-93.89062zm46.94531 64c-32.3057 0-62.94584 7.297799-90.4043 20.279297l36.67774 36.675783c16.82872-5.7783 34.88831-8.95508 53.72656-8.95508 91.13565 0 164.50195 73.36435 164.50195 164.5 0 18.83694-3.17743 36.89492-8.95507 53.72266l36.67773 36.67382c12.97916-27.45643 20.27539-58.09387 20.27539-90.39648 0-50.61055-17.83247-97.17589-47.53711-133.73438l18.02149-16.19531c9.85837-8.85953 10.70979-24.01706 1.86718-33.89062-8.84261-9.873572-24.0151-10.707863-33.88867-1.86524l-20.31055 18.26563c-36.077-28.228163-81.45307-45.08008-130.65234-45.08008zm-180.00781 8.447266c-2.087817-0.004617-4.193199 0.263567-6.263672 0.818359-4.068859 1.090344-7.779082 3.232411-10.757813 6.210937-9.372761 9.372608-9.372761 24.568798 0 33.941408l30.908203 30.9082c-28.988131 36.31539-46.378906 82.25472-46.378906 132.17383 0 117.07588 95.42412 212.5 212.5 212.5 49.92176 0 95.86346-17.39382 132.17969-46.38477l31.0625 31.06055c9.37238 9.37146 24.56707 9.37146 33.93945 0 9.37276-9.37261 9.37276-24.5688 0-33.9414l-31.04687-31.04688-33.98633-33.98438-108.14453-108.14062-48-47.99805-74.21289-74.20898-33.98633-33.98438-30.894534-30.894528c-4.547266-4.546895-10.654518-7.015447-16.917968-7.029296zm180.01172 85.994144c-4.63462 0-8.92289 1.37506-12.5918 3.65039l36.5918 36.59179v-16.24218c0-13.25479-10.74525-24-24-24zm-132.13282 19.87304 230.31641 230.31055c-27.37112 20.33972-61.3137 32.37695-98.1875 32.37695-91.13565 0-164.50195-73.3663-164.50195-164.50195 0-36.87217 12.035043-70.81499 32.373043-98.18555z" color="#000000" fill="#010000" stroke-linecap="round" stroke-linejoin="round" style="-inkscape-stroke:none"/>
</svg>
