<svg version="1.1" viewBox="0 0 512 512" xmlns="http://www.w3.org/2000/svg">
  <path d="m209.0556 11.5c-13.28553 0-24.05559 10.770058-24.05559 24.055598s10.77006 24.055598 24.05559 24.055598h93.8888c13.28554 0 24.0556-10.770058 24.0556-24.055598s-10.77006-24.055598-24.0556-24.055598zm46.9444 64c-117.07612 0-212.5 95.42388-212.5 212.5s95.42388 212.5 212.5 212.5 212.5-95.42388 212.5-212.5c0-50.61065-17.83241-97.17582-47.53711-133.73437l18.02149-16.19532c9.85839-8.85955 10.70981-24.01704 1.86718-33.89062-8.84263-9.873586-24.01508-10.707877-33.88867-1.86523l-20.31055 18.26562c-36.07708-28.228215-81.45297-45.08008-130.65234-45.08008zm0 48c91.13583 0 164.50195 73.36417 164.50195 164.5s-73.36612 164.50196-164.50195 164.50196-164.50195-73.36613-164.50195-164.50196c0-91.13583 73.366123-164.5 164.50195-164.5zm4e-3 46.44141c-13.25481 0-24 10.74519-24 24v93.67187c0 13.25481 10.74519 24 24 24 13.25479 0 24-10.74519 24-24v-93.67187c0-13.25481-10.74521-24-24-24z" color="#000000" fill="#010000" stroke-linecap="round" stroke-linejoin="round" style="-inkscape-stroke:none"/>
</svg>
