<svg version="1.1" viewBox="0 0 512 512" xmlns="http://www.w3.org/2000/svg">
  <path d="m222.65 53.223q-10.035 0-16.812-6.8002-6.7766-6.8002-6.8002-16.812-0.0237-10.011 6.8002-16.812 6.8238-6.8002 16.812-6.8002h94.448q10.035 0 16.835 6.8002 6.8002 6.8002 6.7766 16.812-0.0237 10.011-6.8002 16.835-6.7766 6.8238-16.812 6.7766zm47.224 259.73q10.035 0 16.835-6.8002t6.7766-16.812v-94.448q0-10.035-6.8002-16.812-6.8002-6.7766-16.812-6.8002-10.011-0.0237-16.812 6.8002-6.8002 6.8239-6.8002 16.812v94.448q0 10.035 6.8002 16.835 6.8002 6.8002 16.812 6.7766m0 188.9q-43.682 0-82.358-16.812-38.676-16.812-67.577-45.76-28.901-28.948-45.736-67.601t-16.835-82.335q0-43.682 16.835-82.358 16.835-38.676 45.736-67.577 28.901-28.901 67.601-45.736 38.7-16.835 82.335-16.835 36.598 0 70.245 11.806 33.647 11.806 63.162 34.237l16.528-16.528q6.4933-6.4933 16.528-6.4933t16.528 6.4933q6.4933 6.4933 6.4933 16.528 0 10.035-6.4933 16.528l-16.528 16.528q22.431 29.515 34.237 63.162t11.806 70.245q0 43.682-16.835 82.358-16.835 38.676-45.736 67.577t-67.601 45.76-82.335 16.812m0-47.224q68.475 0 116.88-48.404t48.404-116.88q0-68.475-48.404-116.88-48.404-48.404-116.88-48.404-68.475 0-116.88 48.404-48.404 48.404-48.404 116.88 0 68.475 48.404 116.88 48.404 48.404 116.88 48.404" fill="currentColor"/>
</svg>
