<svg version="1.1" viewBox="0 0 512 512" xmlns="http://www.w3.org/2000/svg">
  <path d="m209.05469 11.5c-13.28551 0-24.05469 10.769174-24.05469 24.054688 0 13.285512 10.76918 24.05664 24.05469 24.05664h93.89062c13.28552 0 24.05469-10.771128 24.05469-24.05664 0-13.285514-10.76917-24.054688-24.05469-24.054688h-93.89062zm46.94531 64c-117.07588 0-212.5 95.42412-212.5 212.5s95.42412 212.5 212.5 212.5c10.45293 0 20.72407-0.79288 30.7793-2.26172a127.22072 127.22072 0 0 1-31.86719-45.76367c-90.6281-0.58431-163.41406-73.70389-163.41406-164.47461 0-91.13565 73.366303-164.5 164.50195-164.5 90.68032 0 163.74069 72.64033 164.46875 163.14258a127.22072 127.22072 0 0 1 45.79883 31.9043c1.44682-9.98163 2.23242-20.17402 2.23242-30.54688 0-50.61055-17.83247-97.17589-47.53711-133.73438l18.02149-16.19531c9.85837-8.85953 10.70979-24.01706 1.86718-33.89062-8.84261-9.873572-24.0151-10.707863-33.88867-1.86524l-20.31055 18.26563c-36.077-28.228163-81.45307-45.08008-130.65234-45.08008zm0.00391 94.44141c-13.25479 0-24 10.74521-24 24v93.67187c0 13.25479 10.74521 24 24 24 13.25475 0 24-10.74521 24-24v-93.67187c0-13.25479-10.74525-24-24-24zm65.49609 174.55859c-3.324 0-6 2.676-6 6v109c0 3.324 2.676 6 6 6h109c3.324 0 6-2.676 6-6v-109c0-3.324-2.676-6-6-6h-109z" style="-inkscape-stroke:none"/>
</svg>
