<svg version="1.1" viewBox="0 0 512 512" xmlns="http://www.w3.org/2000/svg">
 <path d="m184 16c-29.333 0-58.989 9.6484-81.937 30.047-22.948 20.399-38.062 51.953-38.062 89.953 0 38 15.114 69.555 38.062 89.953s52.604 30.047 81.937 30.047c29.333 0 58.989-9.6484 81.938-30.047 22.948-20.399 38.062-51.953 38.062-89.953 0-38-15.114-69.555-38.062-89.953-22.948-20.399-52.604-30.047-81.938-30.047zm173.95 3.8906a24 24 0 0 0-29.203 17.297 24 24 0 0 0 17.297 29.203c37.795 9.677 54.141 38.955 54.141 69.75 0 30.795-16.346 60.073-54.141 69.75a24 24 0 0 0-17.297 29.203 24 24 0 0 0 29.203 17.297c58.456-14.967 90.234-66.367 90.234-116.25 0-49.883-31.778-101.28-90.234-116.25zm-173.95 44.109c18.667 0 37.011 6.3517 50.062 17.953 13.052 11.601 21.937 28.047 21.937 54.047 0 26-8.8859 42.445-21.937 54.047-13.052 11.601-31.396 17.953-50.062 17.953-18.667 0-37.011-6.3517-50.062-17.953-13.052-11.601-21.937-28.047-21.937-54.047 0-26 8.8859-42.445 21.937-54.047 13.052-11.601 31.396-17.953 50.062-17.953zm-48 240c-65.99 0-120 54.01-120 120v48a24 24 0 0 0 24 24 24 24 0 0 0 24-24v-48c0-40.049 31.951-72 72-72h96c40.049 0 72 31.951 72 72v48a24 24 0 0 0 24 24 24 24 0 0 0 24-24v-48c0-65.99-54.01-120-120-120zm270 4.3594a24 24 0 0 0-29.25 17.25 24 24 0 0 0 17.25 29.25c31.754 8.1984 53.811 36.486 54 69.281v47.859a24 24 0 0 0 24 24 24 24 0 0 0 24-24v-48a24.002 24.002 0 0 0 0-0.1416c-0.31248-54.345-37.379-101.91-90-115.5z" color="#000000" fill="currentColor" stroke-linecap="round" stroke-linejoin="round" stroke-width="24" style="-inkscape-stroke:none"/>
</svg>
