<svg version="1.1" viewBox="0 0 512 512" xmlns="http://www.w3.org/2000/svg">
  <path d="m210 16c-62.8 0-114 51.4-114 114 0 62.8 51.4 114 114 114 62.8 0 114-51.4 114-114 0-62.8-51.4-114-114-114zm0 45.7c38.1 0 68.6 30.4 68.6 68.6 0 38.1-30.4 68.6-68.6 68.6-38.1 0-68.6-30.4-68.6-68.6 0-38.1 30.4-68.6 68.6-68.6zm-45.7 229c-62.8 0-114 51.4-114 114v45.7a22.9 22.9 0 0 0 22.9 22.9 22.9 22.9 0 0 0 22.9-22.9v-45.7c0-38.1 30.4-68.6 68.6-68.6h91.4a22.9 22.9 0 0 0 22.9-22.9 22.9 22.9 0 0 0-22.9-22.9zm206 22.9a22.9 22.9 0 0 0-22.9 22.9v45.7h-45.7a22.9 22.9 0 0 0-22.9 22.9 22.9 22.9 0 0 0 22.9 22.9h45.7v45.7a22.9 22.9 0 0 0 22.9 22.9 22.9 22.9 0 0 0 22.9-22.9v-45.7h45.7a22.9 22.9 0 0 0 22.9-22.9 22.9 22.9 0 0 0-22.9-22.9h-45.7v-45.7a22.9 22.9 0 0 0-22.9-22.9z" color="#000000" fill="currentColor" stroke-linecap="round" stroke-linejoin="round" style="-inkscape-stroke:none"/>
</svg>
