<?xml version="1.0" standalone="no"?><!DOCTYPE svg PUBLIC "-//W3C//DTD SVG 1.1//EN" "http://www.w3.org/Graphics/SVG/1.1/DTD/svg11.dtd" ><svg xmlns="http://www.w3.org/2000/svg"><metadata></metadata><defs>
<font id="SFProText-Medium" >
<font-face font-family="SF Pro Text" font-stretch="normal" units-per-em="2048" weight="500" panose-1="0,0,6,0,0,0,0,0,0,0" ascent="1950" descent="-494" x-height="1089" underline-thickness="154" underline-position="-450" unicode-range="U+00000032-00127369" bbox="-620,-572,2731,2212" />
<missing-glyph horiz-adv-x="2048" d="M100 -494L100 -247L1948 -247L1948 -494ZM100 -55L100 192L1948 192L1948 -55ZM100 385L100 632L1948 632L1948 385ZM100 824L100 1071L1948 1071L1948 824ZM100 1264L100 1511L1948 1511L1948 1264ZM100 1703L100 1950L1948 1950L1948 1703Z" />
<glyph glyph-name="space" unicode="&#x20;" horiz-adv-x="560" d="" />
<glyph glyph-name="exclam" unicode="&#x21;" horiz-adv-x="670" d="M213 1444L456 1444L436 478L234 478ZM336 -23Q266 -23 223.5 19Q181 61 181 129Q181 199 223.5 241Q266 283 336 283Q405 283 447 241Q489 199 489 129Q489 61 447 19Q405 -23 336 -23Z" />
<glyph glyph-name="quotedbl" unicode="&#x22;" horiz-adv-x="938" d="M362 872L169 872L169 1443L362 1443ZM769 872L577 872L577 1443L769 1443Z" />
<glyph glyph-name="numbersign" unicode="&#x23;" horiz-adv-x="1319" d="M662 0L742 392L439 392L359 0L189 0L268 392L37 392L70 570L303 570L369 889L128 889L162 1066L403 1066L482 1443L652 1443L576 1066L878 1066L956 1443L1127 1443L1050 1066L1294 1066L1262 889L1015 889L947 570L1201 570L1169 392L914 392L834 0ZM466 560L780 560L851 899L536 899Z" />
<glyph glyph-name="dollar" unicode="&#x24;" horiz-adv-x="1359" d="M751 -136L614 -136L614 -6Q399 8 273.5 118Q148 228 147 402L359 402Q367 313 434.5 254.5Q502 196 614 183L614 639L525 662Q357 705 268.5 803.5Q180 902 180 1048Q180 1221 295.5 1329.5Q411 1438 614 1457L614 1595L751 1595L751 1457Q945 1440 1063 1330Q1181 1220 1186 1053L977 1053Q974 1136 912 1194.5Q850 1253 751 1265L751 834L844 813Q1032 767 1122.5 670Q1213 573 1213 418Q1213 235 1092 124.5Q971 14 751 -5ZM1000 395Q1000 481 939.5 534Q879 587 751 613L751 181Q870 188 935 244Q1000 300 1000 395ZM394 1066Q394 989 450 937Q506 885 614 863L614 1266Q518 1261 456 1204.5Q394 1148 394 1066Z" />
<glyph glyph-name="percent" unicode="&#x25;" horiz-adv-x="1643" d="M622.5 1373Q622.5 1373 666.75 1323.5Q711 1274 711 1116Q711 958 622.5 859Q534 760 393 760Q253 760 164 859.5Q75 959 75 1116Q75 1274 163.5 1373Q252 1472 393 1472Q534 1472 622.5 1373ZM294 971Q294 971 312.5 943.5Q331 916 393 916Q455 916 492 971Q529 1026 529 1117Q529 1210 492.5 1263Q456 1316 393 1316Q331 1316 294 1262Q257 1208 257 1117Q257 1026 294 971ZM420 0L201 0L750 754L1230 1443L1448 1443L890 679ZM1568 328Q1568 170 1479.5 70.5Q1391 -29 1250 -29Q1109 -29 1020 70.5Q931 170 931 328Q931 485 1020 584Q1109 683 1250 683Q1391 683 1479.5 584Q1568 485 1568 328ZM1250 127Q1311 127 1348 181.5Q1385 236 1385 328Q1385 421 1348.5 474Q1312 527 1250 527Q1188 527 1151 473Q1114 419 1114 328Q1114 237 1151 182Q1188 127 1250 127Z" />
<glyph glyph-name="ampersand" unicode="&#x26;" horiz-adv-x="1481" d="M1192 0L1067 132Q978 57 857.5 15Q737 -27 606 -27Q385 -27 248.5 86Q112 199 112 382Q112 508 180.5 604Q249 700 392 776Q396 778 420 791.5Q444 805 451 808Q352 911 311 987Q270 1063 270 1142Q270 1284 379.5 1378Q489 1472 654 1472Q820 1472 927.5 1380Q1035 1288 1035 1144Q1035 1032 962.5 943Q890 854 729 769L1060 425Q1122 541 1122 758L1122 804L1317 804L1317 750Q1317 448 1197 275L1454 0ZM516 654Q326 555 326 399Q326 289 409 221.5Q492 154 627 154Q719 154 805 186Q891 218 944 272L563 676Q539 666 516 654ZM618 888Q738 948 788.5 1003.5Q839 1059 839 1131Q839 1208 788 1256Q737 1304 655 1304Q575 1304 523 1255Q471 1206 471 1130Q471 1075 504 1021Q537 967 618 888Z" />
<glyph glyph-name="quotesingle" unicode="&#x27;" horiz-adv-x="531" d="M362 872L169 872L169 1443L362 1443Z" />
<glyph glyph-name="parenleft" unicode="&#x28;" horiz-adv-x="817" d="M524 -308Q235 60 235 603Q235 1146 524 1514L714 1514Q605 1374 531 1116Q457 858 457 604Q457 348 530.5 89.5Q604 -169 714 -308L524 -308Z" />
<glyph glyph-name="parenright" unicode="&#x29;" horiz-adv-x="817" d="M293 1514Q581 1146 581 603Q581 60 293 -308L103 -308Q212 -168 286 90.5Q360 349 360 604Q360 858 286 1116Q212 1374 103 1514L293 1514Z" />
<glyph glyph-name="asterisk" unicode="&#x2a;" horiz-adv-x="1032" d="M811 801L571 968L596 680L436 680L461 969L221 801L143 944L407 1065L143 1187L221 1332L461 1160L436 1453L596 1453L571 1160L811 1332L889 1187L626 1065L889 944Z" />
<glyph glyph-name="plus" unicode="&#x2b;" horiz-adv-x="1359" d="M773 484L773 60L586 60L586 484L160 484L160 680L586 680L586 1103L773 1103L773 680L1200 680L1200 484Z" />
<glyph glyph-name="comma" unicode="&#x2c;" horiz-adv-x="645" d="M294 -377L142 -377L235 216L460 216Z" />
<glyph glyph-name="hyphen" unicode="&#x2d;" horiz-adv-x="975" d="M816 476L160 476L160 687L816 687Z" />
<glyph glyph-name="period" unicode="&#x2e;" horiz-adv-x="645" d="M428 26Q428 26 407 4.5Q386 -17 323 -17Q260 -17 218 26Q176 69 176 132Q176 195 218 238Q260 281 323 281Q386 281 428 238Q470 195 470 132Q470 69 428 26Z" />
<glyph glyph-name="slash" unicode="&#x2f;" horiz-adv-x="722" d="M195 -308L0 -308L527 1514L722 1514Z" />
<glyph glyph-name="zero" unicode="&#x30;" horiz-adv-x="1330" d="M666 -35Q413 -35 272.5 164Q132 363 132 723Q132 1080 273 1279Q414 1478 666 1478Q916 1478 1057 1278.5Q1198 1079 1198 721Q1198 362 1058 163.5Q918 -35 666 -35ZM438 306Q438 306 478 233.5Q518 161 666 161Q814 161 893 305.5Q972 450 972 723Q972 993 892 1137.5Q812 1282 666 1282Q520 1282 439 1137Q358 992 358 723Q358 451 438 306Z" />
<glyph glyph-name="one" unicode="&#x31;" horiz-adv-x="989" d="M502 0L502 1202L485 1202L123 946L123 1175L503 1443L726 1443L726 0Z" />
<glyph glyph-name="two" unicode="&#x32;" horiz-adv-x="1266" d="M144 1026Q144 1225 280 1351.5Q416 1478 629 1478Q835 1478 970 1361Q1105 1244 1105 1066Q1105 951 1037.5 838.5Q970 726 789 543L468 218L468 201L1128 201L1128 0L156 0L156 162L644 670Q788 820 836 896.5Q884 973 884 1053Q884 1152 809 1218Q734 1284 622 1284Q503 1284 429.5 1213Q356 1142 356 1026L356 1023L144 1023Z" />
<glyph glyph-name="three" unicode="&#x33;" horiz-adv-x="1315" d="M471 648L471 833L646 833Q762 833 835 897Q908 961 908 1063Q908 1164 837 1224.5Q766 1285 648 1285Q530 1285 457.5 1224Q385 1163 376 1056L163 1056Q174 1252 306 1365Q438 1478 655 1478Q856 1478 992.5 1368.5Q1129 1259 1129 1096Q1129 969 1059.5 879Q990 789 871 762L871 745Q1018 728 1103 633.5Q1188 539 1188 394Q1188 273 1119 175Q1050 77 928.5 21Q807 -35 659 -35Q432 -35 288.5 82Q145 199 135 392L350 392Q361 287 444.5 225Q528 163 659 163Q791 163 875 231Q959 299 959 406Q959 518 877 583Q795 648 653 648Z" />
<glyph glyph-name="four" unicode="&#x34;" horiz-adv-x="1351" d="M820 0L820 279L116 279L116 487Q284 794 717 1443L1036 1443L1036 479L1235 479L1235 279L1036 279L1036 0ZM331 488L331 474L823 474L823 1246L810 1246Q556 878 331 488Z" />
<glyph glyph-name="five" unicode="&#x35;" horiz-adv-x="1300" d="M656 -35Q441 -35 302 85Q163 205 153 395L366 395Q379 290 459 226Q539 162 658 162Q793 162 876 244Q959 326 959 461Q959 596 876 680.5Q793 765 661 765Q569 765 496 726Q423 687 381 617L176 617L252 1443L1094 1443L1094 1243L427 1243L389 820L406 820Q508 951 711 951Q917 951 1047.5 815.5Q1178 680 1178 467Q1178 243 1033.5 104Q889 -35 656 -35Z" />
<glyph glyph-name="six" unicode="&#x36;" horiz-adv-x="1339" d="M689 -35Q529 -35 407.5 42Q286 119 215 264Q127 437 127 703Q127 1070 277.5 1274Q428 1478 699 1478Q890 1478 1024 1372.5Q1158 1267 1191 1090L966 1090Q939 1178 867 1229Q795 1280 697 1280Q531 1280 438.5 1136.5Q346 993 342 732L359 732Q411 836 510.5 893Q610 950 738 950Q944 950 1078 814Q1212 678 1212 469Q1212 248 1065 106.5Q918 -35 689 -35ZM471 249.5Q471 249.5 514.5 205.75Q558 162 687 162Q816 162 903 248Q990 334 990 462Q990 593 905.5 677Q821 761 688 761Q556 761 470 677.5Q384 594 384 466Q384 337 471 249.5Z" />
<glyph glyph-name="seven" unicode="&#x37;" horiz-adv-x="1193" d="M217 0L853 1228L853 1244L97 1244L97 1443L1080 1443L1080 1240L452 0Z" />
<glyph glyph-name="eight" unicode="&#x38;" horiz-adv-x="1349" d="M1066 82.5Q1066 82.5 990.5 23.75Q915 -35 674 -35Q433 -35 282.5 82Q132 199 132 386Q132 524 215.5 625Q299 726 438 754L438 771Q325 800 257.5 886.5Q190 973 190 1089Q190 1260 326 1369Q462 1478 674 1478Q886 1478 1022 1369Q1158 1260 1158 1089Q1158 972 1091 886Q1024 800 910 771L910 754Q1049 728 1133 627.5Q1217 527 1217 387Q1217 200 1066 82.5ZM448 221.5Q448 221.5 491.5 186.25Q535 151 674 151Q813 151 900 221.5Q987 292 987 405Q987 518 900 589Q813 660 674 660Q535 660 448 589Q361 518 361 405Q361 292 448 221.5ZM483.5 905Q483.5 905 519.75 874Q556 843 674 843Q792 843 865 905Q938 967 938 1067Q938 1168 865 1231Q792 1294 674 1294Q556 1294 483.5 1231Q411 1168 411 1067Q411 967 483.5 905Z" />
<glyph glyph-name="nine" unicode="&#x39;" horiz-adv-x="1339" d="M641 -35Q449 -35 315 71Q181 177 148 354L374 354Q400 266 472 215Q544 164 643 164Q809 164 901.5 307.5Q994 451 997 712L989 712L984 712L980 712Q928 608 829 550.5Q730 493 602 493Q396 493 261.5 629Q127 765 127 974Q127 1195 273.5 1336.5Q420 1478 650 1478Q810 1478 932 1401.5Q1054 1325 1124 1180Q1213 1005 1213 741Q1213 374 1062.5 169.5Q912 -35 641 -35ZM651 683Q783 683 869 766Q955 849 955 977Q955 1107 868 1194Q781 1281 653 1281Q524 1281 437 1195Q350 1109 350 982Q350 851 434 767Q518 683 651 683Z" />
<glyph glyph-name="colon" unicode="&#x3a;" horiz-adv-x="645" d="M428 26Q428 26 407 4.5Q386 -17 323 -17Q260 -17 218 26Q176 69 176 132Q176 195 218 238Q260 281 323 281Q386 281 428 238Q470 195 470 132Q470 69 428 26ZM428 781Q428 781 407 759.5Q386 738 323 738Q260 738 218 781Q176 824 176 887Q176 951 218 993.5Q260 1036 323 1036Q387 1036 428.5 993.5Q470 951 470 887Q470 824 428 781Z" />
<glyph glyph-name="semicolon" unicode="&#x3b;" horiz-adv-x="645" d="M428 781Q428 781 407 759.5Q386 738 323 738Q260 738 218 781Q176 824 176 887Q176 951 218 993.5Q260 1036 323 1036Q387 1036 428.5 993.5Q470 951 470 887Q470 824 428 781ZM275 -377L119 -377L214 216L439 216Z" />
<glyph glyph-name="less" unicode="&#x3c;" horiz-adv-x="1359" d="M1133 953L443 603L443 586L1133 236L1133 0L227 503L227 686L1133 1189Z" />
<glyph glyph-name="equal" unicode="&#x3d;" horiz-adv-x="1359" d="M1195 270L164 270L164 467L1195 467ZM1195 698L164 698L164 895L1195 895Z" />
<glyph glyph-name="greater" unicode="&#x3e;" horiz-adv-x="1359" d="M227 953L227 1189L1133 686L1133 503L227 0L227 236L916 586L916 603Z" />
<glyph glyph-name="question" unicode="&#x3f;" horiz-adv-x="1083" d="M79 1053Q86 1232 204 1343.5Q322 1455 533 1455Q730 1455 852.5 1350Q975 1245 975 1081Q975 865 765 739Q669 682 634 633.5Q599 585 599 509L599 449L392 449L391 525Q387 631 433 704.5Q479 778 584 841Q676 896 712 946.5Q748 997 748 1072Q748 1155 686 1208.5Q624 1262 522 1262Q419 1262 356 1205.5Q293 1149 286 1053ZM619.5 19Q619.5 19 598.25 -2Q577 -23 508 -23Q439 -23 396 19Q353 61 353 129Q353 198 396 240.5Q439 283 508 283Q577 283 619.5 241Q662 199 662 129Q662 61 619.5 19Z" />
<glyph glyph-name="at" unicode="&#x40;" horiz-adv-x="1887" d="M936 858Q843 858 791 790.5Q739 723 739 602Q739 481 791 412.5Q843 344 934 344Q1029 344 1085 413.5Q1141 483 1141 602Q1141 720 1085.5 789Q1030 858 936 858ZM970 1442Q1205 1442 1388 1349Q1571 1256 1672.5 1087Q1774 918 1774 702Q1774 461 1671 319Q1568 177 1392 177Q1302 177 1239.5 221.5Q1177 266 1165 339L1148 339Q1117 263 1053.5 223Q990 183 902 183Q746 183 650.5 299.5Q555 416 555 606Q555 788 650.5 903Q746 1018 899 1018Q978 1018 1040.5 980Q1103 942 1132 876L1149 876L1149 997L1319 997L1319 435Q1319 382 1346.5 352.5Q1374 323 1425 323Q1513 323 1565.5 424.5Q1618 526 1618 696Q1618 967 1436 1133.5Q1254 1300 959 1300Q767 1300 615 1211.5Q463 1123 378 963.5Q293 804 293 602Q293 289 483.5 103Q674 -83 994 -83Q1088 -83 1174.5 -71.5Q1261 -60 1306 -41L1306 -183Q1171 -227 987 -227Q599 -227 368 0Q137 227 137 607Q137 790 198 945.5Q259 1101 368 1210.5Q477 1320 632 1381Q787 1442 970 1442Z" />
<glyph glyph-name="A" unicode="&#x41;" horiz-adv-x="1423" d="M1115 0L983 383L433 383L300 0L70 0L591 1443L832 1443L1353 0ZM700 1181L490 571L926 571L717 1181Z" />
<glyph glyph-name="B" unicode="&#x42;" horiz-adv-x="1373" d="M774 0L181 0L181 1443L761 1443Q964 1443 1079.5 1346.5Q1195 1250 1195 1083Q1195 970 1122 880.5Q1049 791 942 773L942 756Q1088 741 1177.5 645.5Q1267 550 1267 409Q1267 218 1136 109Q1005 0 774 0ZM405 1253L405 832L671 832Q819 832 895.5 885.5Q972 939 972 1042Q972 1142 902.5 1197.5Q833 1253 709 1253ZM405 190L729 190Q880 190 959 250Q1038 310 1038 425Q1038 538 956 596.5Q874 655 716 655L405 655Z" />
<glyph glyph-name="C" unicode="&#x43;" horiz-adv-x="1485" d="M773 -35Q472 -35 297 168Q122 371 122 721Q122 1072 296.5 1275Q471 1478 772 1478Q1010 1478 1177.5 1338.5Q1345 1199 1372 978L1149 978Q1117 1111 1015.5 1190Q914 1269 772 1269Q578 1269 464.5 1121.5Q351 974 351 721Q351 469 464.5 321.5Q578 174 773 174Q916 174 1017.5 246Q1119 318 1149 440L1372 440Q1342 226 1178 95.5Q1014 -35 773 -35Z" />
<glyph glyph-name="D" unicode="&#x44;" horiz-adv-x="1502" d="M181 1443L702 1443Q1023 1443 1202 1254.5Q1381 1066 1381 726Q1381 380 1203 190Q1025 0 702 0L181 0ZM405 1239L405 204L677 204Q904 204 1028.5 339.5Q1153 475 1153 723Q1153 967 1027.5 1103Q902 1239 677 1239Z" />
<glyph glyph-name="E" unicode="&#x45;" horiz-adv-x="1239" d="M1097 204L1097 0L181 0L181 1443L1097 1443L1097 1239L405 1239L405 831L1060 831L1060 637L405 637L405 204Z" />
<glyph glyph-name="F" unicode="&#x46;" horiz-adv-x="1191" d="M405 0L181 0L181 1443L1082 1443L1082 1239L405 1239L405 796L1025 796L1025 598L405 598Z" />
<glyph glyph-name="G" unicode="&#x47;" horiz-adv-x="1539" d="M1412 571Q1412 294 1242.5 129.5Q1073 -35 789 -35Q482 -35 302 169Q122 373 122 722Q122 1067 303 1272.5Q484 1478 787 1478Q1033 1478 1199 1348.5Q1365 1219 1402 1000L1177 1000Q1135 1131 1035 1200Q935 1269 787 1269Q587 1269 469 1121.5Q351 974 351 724Q351 469 469.5 321.5Q588 174 792 174Q969 174 1080 273Q1191 372 1192 532L1192 563L820 563L820 751L1412 751Z" />
<glyph glyph-name="H" unicode="&#x48;" horiz-adv-x="1550" d="M1369 0L1146 0L1146 633L405 633L405 0L181 0L181 1443L405 1443L405 837L1146 837L1146 1443L1369 1443Z" />
<glyph glyph-name="I" unicode="&#x49;" horiz-adv-x="585" d="M405 0L181 0L181 1443L405 1443Z" />
<glyph glyph-name="J" unicode="&#x4a;" horiz-adv-x="1148" d="M82 375L302 375Q304 286 364 231Q424 176 520 176Q628 176 686 239.5Q744 303 744 423L744 1443L968 1443L968 422Q968 205 849.5 85Q731 -35 522 -35Q325 -35 203.5 77.5Q82 190 82 375Z" />
<glyph glyph-name="K" unicode="&#x4b;" horiz-adv-x="1386" d="M405 0L181 0L181 1443L405 1443L405 767L421 767L1018 1443L1283 1443L725 816L1331 0L1051 0L567 655L405 474Z" />
<glyph glyph-name="L" unicode="&#x4c;" horiz-adv-x="1183" d="M1081 206L1081 0L181 0L181 1443L405 1443L405 206Z" />
<glyph glyph-name="M" unicode="&#x4d;" horiz-adv-x="1822" d="M1641 0L1433 0L1433 1042L1419 1042L996 42L826 42L403 1042L389 1042L389 0L181 0L181 1443L443 1443L902 347L919 347L1379 1443L1641 1443Z" />
<glyph glyph-name="N" unicode="&#x4e;" horiz-adv-x="1539" d="M399 0L181 0L181 1443L383 1443L1124 418L1140 418L1140 1443L1358 1443L1358 0L1156 0L415 1025L399 1025Z" />
<glyph glyph-name="O" unicode="&#x4f;" horiz-adv-x="1590" d="M796 1478Q1108 1478 1288 1274.5Q1468 1071 1468 722Q1468 373 1288 169Q1108 -35 796 -35Q483 -35 302.5 168.5Q122 372 122 722Q122 1071 303.5 1274.5Q485 1478 796 1478ZM796 1269Q592 1269 471.5 1121Q351 973 351 722Q351 471 470 322.5Q589 174 796 174Q1001 174 1120 322.5Q1239 471 1239 722Q1239 974 1120 1121.5Q1001 1269 796 1269Z" />
<glyph glyph-name="P" unicode="&#x50;" horiz-adv-x="1329" d="M181 1443L746 1443Q958 1443 1090 1309.5Q1222 1176 1222 962Q1222 751 1087 618.5Q952 486 739 486L405 486L405 0L181 0ZM405 1245L405 683L687 683Q832 683 912.5 755.5Q993 828 993 962Q993 1099 914 1172Q835 1245 687 1245Z" />
<glyph glyph-name="Q" unicode="&#x51;" horiz-adv-x="1590" d="M796 -35Q484 -35 303 167.5Q122 370 122 721Q122 1071 303.5 1274.5Q485 1478 796 1478Q1106 1478 1287 1274.5Q1468 1071 1468 721Q1468 515 1404.5 357.5Q1341 200 1223 109L1404 -153L1170 -153L1052 6Q937 -35 796 -35ZM797 174Q867 174 933 192L752 443L981 443L1089 309Q1161 371 1200 477Q1239 583 1239 721Q1239 973 1119 1121Q999 1269 796 1269Q592 1269 472 1121.5Q352 974 352 721Q352 468 471.5 321Q591 174 797 174Z" />
<glyph glyph-name="R" unicode="&#x52;" horiz-adv-x="1368" d="M405 1246L405 741L727 741Q857 741 928.5 807Q1000 873 1000 994Q1000 1112 925.5 1179Q851 1246 721 1246ZM405 550L405 0L181 0L181 1443L752 1443Q970 1443 1100 1322.5Q1230 1202 1230 999Q1230 853 1155.5 742.5Q1081 632 950 587L1274 0L1015 0L721 550Z" />
<glyph glyph-name="S" unicode="&#x53;" horiz-adv-x="1333" d="M113 388L335 388Q349 285 442.5 224.5Q536 164 681 164Q816 164 904.5 226.5Q993 289 993 385Q993 467 927.5 519.5Q862 572 718 606L532 651Q336 697 244 794Q152 891 152 1050Q152 1243 296.5 1360.5Q441 1478 677 1478Q897 1478 1042 1362Q1187 1246 1197 1064L979 1064Q963 1164 881.5 1222Q800 1280 674 1280Q541 1280 460 1221Q379 1162 379 1065Q379 988 440.5 940Q502 892 643 859L802 820Q1024 768 1122 672.5Q1220 577 1220 414Q1220 207 1070 86Q920 -35 664 -35Q424 -35 274.5 80Q125 195 113 388Z" />
<glyph glyph-name="T" unicode="&#x54;" horiz-adv-x="1317" d="M771 0L547 0L547 1239L93 1239L93 1443L1224 1443L1224 1239L771 1239Z" />
<glyph glyph-name="U" unicode="&#x55;" horiz-adv-x="1538" d="M409 1443L409 517Q409 363 504.5 269Q600 175 769 175Q939 175 1034.5 269Q1130 363 1130 517L1130 1443L1354 1443L1354 497Q1354 259 1195.5 112Q1037 -35 769 -35Q501 -35 343 112Q185 259 185 497L185 1443Z" />
<glyph glyph-name="V" unicode="&#x56;" horiz-adv-x="1415" d="M832 0L586 0L70 1443L314 1443L703 280L720 280L1107 1443L1345 1443Z" />
<glyph glyph-name="W" unicode="&#x57;" horiz-adv-x="2013" d="M999 1059L690 0L478 0L89 1443L322 1443L587 338L601 338L902 1443L1110 1443L1413 338L1427 338L1691 1443L1924 1443L1534 0L1323 0L1013 1059Z" />
<glyph glyph-name="X" unicode="&#x58;" horiz-adv-x="1427" d="M89 0L571 726L94 1443L361 1443L712 899L729 899L1086 1443L1338 1443L848 720L1329 0L1067 0L713 534L696 534L337 0Z" />
<glyph glyph-name="Y" unicode="&#x59;" horiz-adv-x="1383" d="M803 0L579 0L579 582L71 1443L320 1443L683 818L700 818L1063 1443L1312 1443L803 582Z" />
<glyph glyph-name="Z" unicode="&#x5a;" horiz-adv-x="1365" d="M141 0L141 161L925 1222L925 1239L165 1239L165 1443L1206 1443L1206 1282L426 221L426 204L1225 204L1225 0Z" />
<glyph glyph-name="bracketleft" unicode="&#x5b;" horiz-adv-x="817" d="M262 1514L739 1514L739 1340L471 1340L471 -135L739 -135L739 -308L262 -308Z" />
<glyph glyph-name="backslash" unicode="&#x5c;" horiz-adv-x="722" d="M525 -308L0 1514L197 1514L722 -308Z" />
<glyph glyph-name="bracketright" unicode="&#x5d;" horiz-adv-x="817" d="M555 1514L555 -308L77 -308L77 -135L346 -135L346 1340L77 1340L77 1514Z" />
<glyph glyph-name="asciicircum" unicode="&#x5e;" horiz-adv-x="1014" d="M498 1237L292 776L95 776L399 1414L614 1414L918 776L722 776L515 1237Z" />
<glyph glyph-name="underscore" unicode="&#x5f;" horiz-adv-x="926" d="M934 -278L-7 -278L-7 -107L934 -107Z" />
<glyph glyph-name="grave" unicode="&#x60;" horiz-adv-x="1095" d="M798 1271L577 1271L295 1615L547 1615Z" />
<glyph glyph-name="a" unicode="&#x61;" horiz-adv-x="1158" d="M512 163Q633 163 713.5 231Q794 299 794 401L794 492L528 475Q416 468 363 429Q310 390 310 318Q310 246 366 204.5Q422 163 512 163ZM457 -18Q297 -18 195.5 71.5Q94 161 94 308Q94 454 199 537.5Q304 621 499 633L794 650L794 744Q794 831 737 877.5Q680 924 571 924Q481 924 421.5 892.5Q362 861 344 803L136 803Q152 943 273.5 1026.5Q395 1110 581 1110Q785 1110 896.5 1013.5Q1008 917 1008 744L1008 0L801 0L801 153L784 153Q735 71 649.5 26.5Q564 -18 457 -18Z" />
<glyph glyph-name="b" unicode="&#x62;" horiz-adv-x="1285" d="M733 -18Q619 -18 528.5 32Q438 82 389 172L373 172L373 0L166 0L166 1514L381 1514L381 916L398 916Q441 1005 531 1056Q621 1107 733 1107Q940 1107 1061.5 955.5Q1183 804 1183 545Q1183 286 1061 134Q939 -18 733 -18ZM671 914Q536 914 457 814.5Q378 715 377 544Q378 373 456.5 274Q535 175 671 175Q807 175 884.5 273.5Q962 372 962 545Q962 717 884.5 815.5Q807 914 671 914Z" />
<glyph glyph-name="c" unicode="&#x63;" horiz-adv-x="1167" d="M1078 733L869 733Q849 816 782.5 867Q716 918 612 918Q477 918 399.5 820Q322 722 322 548Q322 372 399.5 271.5Q477 171 612 171Q715 171 781.5 217Q848 263 869 350L1078 350Q1057 182 934 80.5Q811 -21 613 -21Q375 -21 238.5 130.5Q102 282 102 548Q102 810 238 960Q374 1110 612 1110Q811 1110 933.5 1006Q1056 902 1078 733Z" />
<glyph glyph-name="d" unicode="&#x64;" horiz-adv-x="1285" d="M554 -18Q346 -18 224 134Q102 286 102 545Q102 803 224.5 955Q347 1107 554 1107Q666 1107 755 1056.5Q844 1006 888 916L904 916L904 1514L1119 1514L1119 0L913 0L913 172L896 172Q847 83 756.5 32.5Q666 -18 554 -18ZM615 914Q479 914 401.5 815.5Q324 717 324 545Q324 372 401.5 273.5Q479 175 615 175Q751 175 829.5 274Q908 373 908 544Q908 714 829 814Q750 914 615 914Z" />
<glyph glyph-name="e" unicode="&#x65;" horiz-adv-x="1192" d="M794.5 850.5Q794.5 850.5 758.25 888.75Q722 927 603 927Q484 927 407 850Q330 773 321 645L871 645Q867 774 794.5 850.5ZM870 294L1077 294Q1040 147 915.5 63Q791 -21 605 -21Q371 -21 236.5 129.5Q102 280 102 541Q102 802 238 956Q374 1110 604 1110Q831 1110 960.5 964Q1090 818 1090 561L1090 486L321 486L321 474Q326 330 404 246Q482 162 611 162Q808 162 870 294Z" />
<glyph glyph-name="f" unicode="&#x66;" horiz-adv-x="775" d="M233 0L233 903L54 903L54 1084L233 1084L233 1201Q233 1524 569 1524Q639 1524 697 1513L697 1344Q667 1350 614 1350Q525 1350 485 1310Q445 1270 445 1188L445 1084L688 1084L688 903L448 903L448 0Z" />
<glyph glyph-name="g" unicode="&#x67;" horiz-adv-x="1274" d="M399 297.5Q399 297.5 437 249.75Q475 202 612 202Q749 202 828 298Q907 394 907 558Q907 721 828 817.5Q749 914 612 914Q475 914 399 818.5Q323 723 323 558Q323 393 399 297.5ZM615 -416Q413 -416 287 -332.5Q161 -249 144 -109L364 -109Q378 -169 444.5 -204Q511 -239 618 -239Q752 -239 827.5 -178.5Q903 -118 903 -10L903 199L887 199Q838 111 751 63.5Q664 16 551 16Q344 16 222.5 163.5Q101 311 101 557Q101 807 223 957Q345 1107 553 1107Q665 1107 757 1055.5Q849 1004 895 915L912 915L912 1089L1118 1089L1118 -9Q1118 -196 982 -306Q846 -416 615 -416Z" />
<glyph glyph-name="h" unicode="&#x68;" horiz-adv-x="1249" d="M166 0L166 1514L379 1514L379 914L396 914Q436 1007 521.5 1058Q607 1109 728 1109Q903 1109 1003 1002.5Q1103 896 1103 703L1103 0L888 0L888 650Q888 780 829 846Q770 912 655 912Q525 912 453 837Q381 762 381 636L381 0Z" />
<glyph glyph-name="i" unicode="&#x69;" horiz-adv-x="534" d="M160 0L160 1089L374 1089L374 0ZM366.5 1317.5Q366.5 1317.5 346.75 1298.75Q327 1280 267 1280Q207 1280 167.5 1317.5Q128 1355 128 1411Q128 1467 167.5 1505Q207 1543 267 1543Q327 1543 366.5 1505Q406 1467 406 1411Q406 1355 366.5 1317.5Z" />
<glyph glyph-name="j" unicode="&#x6a;" horiz-adv-x="534" d="M374 1089L374 -45Q374 -212 287.5 -292Q201 -372 23 -372Q-20 -372 -25 -371L-25 -191L5 -191Q90 -191 125 -157Q160 -123 160 -43L160 1089ZM366.5 1317.5Q366.5 1317.5 346.75 1298.75Q327 1280 267 1280Q207 1280 167.5 1317.5Q128 1355 128 1411Q128 1467 167.5 1505Q207 1543 267 1543Q327 1543 366.5 1505Q406 1467 406 1411Q406 1355 366.5 1317.5Z" />
<glyph glyph-name="k" unicode="&#x6b;" horiz-adv-x="1155" d="M398 635L830 1089L1084 1089L636 622L1114 0L850 0L476 480L381 390L381 0L166 0L166 1514L381 1514L381 635Z" />
<glyph glyph-name="l" unicode="&#x6c;" horiz-adv-x="547" d="M166 0L166 1514L381 1514L381 0Z" />
<glyph glyph-name="m" unicode="&#x6d;" horiz-adv-x="1824" d="M156 0L156 1089L363 1089L363 914L379 914Q415 1007 494.5 1058.5Q574 1110 682 1110Q791 1110 868 1058Q945 1006 982 914L999 914Q1041 1004 1129.5 1057Q1218 1110 1330 1110Q1495 1110 1586.5 1015Q1678 920 1678 750L1678 0L1463 0L1463 694Q1463 913 1252 913Q1149 913 1085.5 848Q1022 783 1022 685L1022 0L811 0L811 715Q811 807 754 860Q697 913 601 913Q503 913 437 842Q371 771 371 666L371 0Z" />
<glyph glyph-name="n" unicode="&#x6e;" horiz-adv-x="1227" d="M156 0L156 1089L363 1089L363 916L379 916Q464 1110 704 1110Q886 1110 983.5 1005Q1081 900 1081 705L1081 0L866 0L866 651Q866 913 631 913Q512 913 441.5 838.5Q371 764 371 637L371 0Z" />
<glyph glyph-name="o" unicode="&#x6f;" horiz-adv-x="1231" d="M616 -21Q376 -21 239 130Q102 281 102 545Q102 808 239.5 959Q377 1110 616 1110Q854 1110 991.5 959Q1129 808 1129 545Q1129 281 992 130Q855 -21 616 -21ZM616 170Q755 170 831.5 268.5Q908 367 908 545Q908 722 831.5 820.5Q755 919 616 919Q476 919 400 821Q324 723 324 545Q324 366 400 268Q476 170 616 170Z" />
<glyph glyph-name="p" unicode="&#x70;" horiz-adv-x="1275" d="M721 1107Q929 1107 1051 955.5Q1173 804 1173 545Q1173 286 1051.5 134Q930 -18 723 -18Q607 -18 519 30.5Q431 79 388 165L371 165L371 -362L156 -362L156 1089L363 1089L363 909L379 909Q428 1002 519 1054.5Q610 1107 721 1107ZM660 175Q797 175 874.5 273.5Q952 372 952 545Q952 718 874.5 816Q797 914 661 914Q525 914 446 814.5Q367 715 367 544Q367 374 446 274.5Q525 175 660 175Z" />
<glyph glyph-name="q" unicode="&#x71;" horiz-adv-x="1275" d="M553 1107Q664 1107 755.5 1053.5Q847 1000 894 909L911 909L911 1089L1119 1089L1119 -362L903 -362L903 165L886 165Q784 -18 551 -18Q344 -18 223 133.5Q102 285 102 545Q102 802 224.5 954.5Q347 1107 553 1107ZM612 175Q749 175 828 274Q907 373 907 544Q907 714 828 814Q749 914 613 914Q477 914 400.5 816Q324 718 324 545Q324 371 400 273Q476 175 612 175Z" />
<glyph glyph-name="r" unicode="&#x72;" horiz-adv-x="820" d="M156 0L156 1089L363 1089L363 922L379 922Q402 1003 484.5 1055Q567 1107 673 1107Q734 1107 769 1098L769 886Q730 899 649 899Q526 899 448.5 828Q371 757 371 643L371 0Z" />
<glyph glyph-name="s" unicode="&#x73;" horiz-adv-x="1104" d="M131 781Q131 925 250 1017.5Q369 1110 554 1110Q738 1110 851 1029Q964 948 980 804L774 804Q759 865 701.5 900Q644 935 554 935Q463 935 403 895.5Q343 856 343 793Q343 744 385 712Q427 680 516 660L697 618Q854 582 927.5 511Q1001 440 1001 321Q1001 169 874 74Q747 -21 550 -21Q356 -21 236.5 61.5Q117 144 103 289L318 289Q339 225 399 189Q459 153 555 153Q656 153 720 194Q784 235 784 300Q784 395 624 433L434 477Q278 514 204.5 587Q131 660 131 781Z" />
<glyph glyph-name="t" unicode="&#x74;" horiz-adv-x="780" d="M232 1360L447 1360L447 1084L683 1084L683 903L447 903L447 343Q447 258 484 218.5Q521 179 601 179Q633 179 683 184L683 5Q619 -6 566 -6Q387 -6 309.5 62Q232 130 232 288L232 903L59 903L59 1084L232 1084Z" />
<glyph glyph-name="u" unicode="&#x75;" horiz-adv-x="1230" d="M1074 1089L1074 0L867 0L867 173L850 173Q767 -21 521 -21Q341 -21 243.5 84Q146 189 146 382L146 1089L361 1089L361 438Q361 305 416.5 241.5Q472 178 590 178Q719 178 789 250.5Q859 323 859 452L859 1089Z" />
<glyph glyph-name="v" unicode="&#x76;" horiz-adv-x="1140" d="M1078 1089L686 0L455 0L62 1089L292 1089L563 230L580 230L850 1089Z" />
<glyph glyph-name="w" unicode="&#x77;" horiz-adv-x="1640" d="M1574 1089L1275 0L1052 0L827 802L810 802L586 0L365 0L65 1089L283 1089L478 258L494 258L718 1089L924 1089L1148 258L1165 258L1359 1089Z" />
<glyph glyph-name="x" unicode="&#x78;" horiz-adv-x="1117" d="M563 386L547 386L309 0L73 0L434 542L70 1089L321 1089L555 705L572 705L804 1089L1043 1089L684 551L1047 0L800 0Z" />
<glyph glyph-name="y" unicode="&#x79;" horiz-adv-x="1152" d="M264 -395Q208 -395 175 -390L175 -205Q198 -209 245 -209Q322 -209 368 -174Q414 -139 442 -57L458 -4L64 1089L298 1089L571 224L588 224L860 1089L1088 1089L682 -45Q612 -243 521.5 -319Q431 -395 264 -395Z" />
<glyph glyph-name="z" unicode="&#x7a;" horiz-adv-x="1124" d="M131 0L131 146L730 890L730 907L135 907L135 1089L987 1089L987 932L401 199L401 182L993 182L993 0Z" />
<glyph glyph-name="braceleft" unicode="&#x7b;" horiz-adv-x="817" d="M274 590Q508 564 508 349L508 77Q508 -36 552 -84.5Q596 -133 698 -133L739 -133L739 -308L677 -308Q484 -308 393.5 -221Q303 -134 303 52L303 279Q303 395 253 441Q203 487 77 488L77 720Q203 721 253 767Q303 813 303 929L303 1156Q303 1341 393.5 1427.5Q484 1514 677 1514L739 1514L739 1338L698 1338Q596 1338 552 1289.5Q508 1241 508 1128L508 859Q508 644 274 618Z" />
<glyph glyph-name="bar" unicode="&#x7c;" horiz-adv-x="722" d="M457 -308L265 -308L265 1514L457 1514Z" />
<glyph glyph-name="braceright" unicode="&#x7d;" horiz-adv-x="817" d="M543 590L543 618Q308 644 308 859L308 1128Q308 1241 264.5 1289.5Q221 1338 119 1338L77 1338L77 1514L139 1514Q332 1514 422.5 1427.5Q513 1341 513 1156L513 929Q513 814 563.5 767.5Q614 721 739 720L739 488Q614 487 563.5 440.5Q513 394 513 279L513 52Q513 -134 422.5 -221Q332 -308 139 -308L77 -308L77 -133L119 -133Q220 -133 264 -84.5Q308 -36 308 77L308 349Q308 564 543 590Z" />
<glyph glyph-name="asciitilde" unicode="&#x7e;" horiz-adv-x="1210" d="M560 630Q508 682 475 702Q442 722 408 722Q284 722 275 544L91 544Q90 727 169.5 826.5Q249 926 402 926Q467 926 526 896Q585 866 652 798Q702 748 736 727.5Q770 707 802 707Q927 707 936 886L1119 886Q1120 700 1042 602Q964 504 814 504Q746 504 686.5 533.5Q627 563 560 630Z" />
<glyph glyph-name="nonbreakingspace" unicode="&#xa0;" horiz-adv-x="560" d="" />
<glyph glyph-name="exclamdown" unicode="&#xa1;" horiz-adv-x="670" d="M213 -333L234 633L436 633L456 -333ZM336 828Q266 828 223.5 870Q181 912 181 981Q181 1050 223.5 1092Q266 1134 336 1134Q405 1134 447 1092Q489 1050 489 981Q489 912 447 870Q405 828 336 828Z" />
<glyph glyph-name="cent" unicode="&#xa2;" horiz-adv-x="1359" d="M1198 517Q1178 368 1069 271.5Q960 175 794 153L794 -23L597 -23L597 156Q400 190 280 338.5Q160 487 160 714Q160 937 280.5 1085Q401 1233 597 1267L597 1445L794 1445L794 1270Q957 1245 1067.5 1146Q1178 1047 1198 900L989 900Q961 986 885 1035.5Q809 1085 702 1085Q563 1085 471.5 983.5Q380 882 380 714Q380 543 471.5 440.5Q563 338 702 338Q818 338 892 385Q966 432 989 517Z" />
<glyph glyph-name="sterling" unicode="&#xa3;" horiz-adv-x="1359" d="M457 199L1217 199L1217 0L133 0L133 190Q266 216 352.5 311Q439 406 439 528Q439 581 424 644L134 644L134 818L365 818Q304 976 304 1072Q304 1263 444.5 1370.5Q585 1478 836 1478Q925 1478 1010 1463.5Q1095 1449 1147 1427L1147 1230Q1105 1252 1022 1267.5Q939 1283 855 1283Q703 1283 617 1222Q531 1161 531 1053Q531 966 585 818L1036 818L1036 644L641 644Q654 589 654 541Q654 432 598 345Q542 258 457 215Z" />
<glyph glyph-name="currency" unicode="&#xa4;" horiz-adv-x="1359" d="M427 653Q427 550 501.5 476Q576 402 680 402Q784 402 859 476Q934 550 934 653Q934 755 859 829Q784 903 680 903Q577 903 502 829Q427 755 427 653ZM1190 1033L1031 873Q1093 771 1093 653Q1093 534 1031 432L1190 271L1062 136L901 299Q800 233 680 233Q560 233 459 299L297 136L170 271L330 433Q268 535 268 653Q268 771 330 873L170 1033L297 1168L459 1006Q560 1072 680 1072Q800 1072 902 1006L1062 1168Z" />
<glyph glyph-name="yen" unicode="&#xa5;" horiz-adv-x="1359" d="M1066 242L792 242L792 0L568 0L568 242L293 242L293 392L568 392L568 544L293 544L293 694L506 694L59 1443L308 1443L671 818L688 818L1051 1443L1300 1443L854 694L1066 694L1066 544L792 544L792 392L1066 392Z" />
<glyph glyph-name="brokenbar" unicode="&#xa6;" horiz-adv-x="722" d="M457 786L265 786L265 1514L457 1514ZM457 -308L265 -308L265 420L457 420Z" />
<glyph glyph-name="section" unicode="&#xa7;" horiz-adv-x="1032" d="M456 424L548 397Q628 401 683 449.5Q738 498 738 565Q738 621 696.5 661Q655 701 578 719L486 746Q407 742 351 693Q295 644 295 578Q295 523 337.5 482.5Q380 442 456 424ZM519 -270Q342 -270 225.5 -182.5Q109 -95 100 45L304 45Q313 -18 374.5 -57Q436 -96 526 -96Q619 -96 677 -56Q735 -16 735 49Q735 99 692.5 133Q650 167 555 193L401 240Q239 288 164.5 358Q90 428 90 534Q90 629 148.5 699Q207 769 311 799L311 816Q96 906 96 1089Q96 1234 210.5 1323.5Q325 1413 511 1413Q683 1413 794 1329.5Q905 1246 920 1106L719 1106Q710 1166 652.5 1202.5Q595 1239 508 1239Q416 1239 359.5 1199.5Q303 1160 303 1095Q303 1045 344.5 1011Q386 977 480 950L632 903Q794 854 868 785.5Q942 717 942 615Q942 515 874 437.5Q806 360 696 334L696 317Q939 247 939 56Q939 -89 822 -179.5Q705 -270 519 -270Z" />
<glyph glyph-name="dieresis" unicode="&#xa8;" horiz-adv-x="1122" d="M348 1265Q291 1265 252.5 1303.5Q214 1342 214 1399Q214 1456 252.5 1495Q291 1534 348 1534Q404 1534 442.5 1495Q481 1456 481 1399Q481 1342 442.5 1303.5Q404 1265 348 1265ZM869.5 1303.5Q869.5 1303.5 850.25 1284.25Q831 1265 775 1265Q719 1265 680 1303.5Q641 1342 641 1399Q641 1456 680 1495Q719 1534 775 1534Q831 1534 869.5 1495Q908 1456 908 1399Q908 1342 869.5 1303.5Z" />
<glyph glyph-name="copyright" unicode="&#xa9;" horiz-adv-x="1742" d="M871 -154Q707 -154 560 -92.5Q413 -31 308 74.5Q203 180 141.5 327Q80 474 80 638Q80 802 141.5 949Q203 1096 308 1201Q413 1306 560 1367.5Q707 1429 871 1429Q1091 1429 1272.5 1325Q1454 1221 1558 1039.5Q1662 858 1662 638Q1662 418 1558 236.5Q1454 55 1272.5 -49.5Q1091 -154 871 -154ZM871 -3Q1005 -3 1124 46.5Q1243 96 1328.5 181.5Q1414 267 1463.5 386Q1513 505 1513 638Q1513 771 1463.5 890Q1414 1009 1328.5 1094Q1243 1179 1124 1228.5Q1005 1278 871 1278Q692 1278 544.5 1193.5Q397 1109 313 962Q229 815 229 638Q229 460 313.5 313Q398 166 545.5 81.5Q693 -3 871 -3ZM1245 764L1088 764Q1072 829 1018 868Q964 907 888 907Q783 907 722 835Q661 763 661 639Q661 513 722 440.5Q783 368 888 368Q968 368 1020 404Q1072 440 1088 505L1245 505Q1228 377 1131.5 302Q1035 227 888 227Q708 227 602.5 338Q497 449 497 639Q497 826 602.5 937Q708 1048 887 1048Q1031 1048 1129 970.5Q1227 893 1245 764Z" />
<glyph glyph-name="ordfeminine" unicode="&#xaa;" horiz-adv-x="974" d="M457 670Q550 670 611.5 724Q673 778 673 860L673 945L467 930Q294 918 294 800Q294 740 338 705Q382 670 457 670ZM391 507Q255 507 173 584Q91 661 91 789Q91 914 180.5 985.5Q270 1057 439 1067L670 1081L670 1158Q671 1222 623.5 1258Q576 1294 491 1294Q422 1294 377 1268Q332 1242 322 1196L126 1196Q136 1320 236.5 1392Q337 1464 498 1464Q672 1464 770.5 1381.5Q869 1299 869 1153L869 529L677 529L677 646L660 646Q623 580 552 543.5Q481 507 391 507Z" />
<glyph glyph-name="guillemotleft" unicode="&#xab;" horiz-adv-x="1411" d="M399 573L399 559L749 148L519 148L171 561L171 569L521 983L749 983ZM890 573L890 559L1240 148L1009 148L661 561L661 569L1012 983L1240 983Z" />
<glyph glyph-name="logicalnot" unicode="&#xac;" horiz-adv-x="1359" d="M1171 680L1171 97L985 97L985 484L188 484L188 680Z" />
<glyph glyph-name="registered" unicode="&#xae;" horiz-adv-x="1260" d="M630 444Q486 444 365.5 514Q245 584 175 705Q105 826 105 970Q105 1114 175 1235Q245 1356 365.5 1426Q486 1496 630 1496Q774 1496 895 1426Q1016 1356 1085.5 1235Q1155 1114 1155 970Q1155 751 1002 597.5Q849 444 630 444ZM630 562Q802 562 921 681Q1040 800 1040 970Q1040 1141 921 1259.5Q802 1378 630 1378Q459 1378 339.5 1259.5Q220 1141 220 970Q220 800 339.5 681Q459 562 630 562ZM534 733L426 733L426 1227L677 1227Q754 1227 804 1183.5Q854 1140 854 1072Q854 953 742 923L876 733L746 733L623 908L534 908ZM534 1131L534 998L649 998Q736 998 736 1066Q736 1131 651 1131Z" />
<glyph glyph-name="macron" unicode="&#xaf;" horiz-adv-x="1048" d="M872 1454L872 1299L176 1299L176 1454Z" />
<glyph glyph-name="degree" unicode="&#xb0;" horiz-adv-x="909" d="M454 782Q310 782 213.5 880.5Q117 979 117 1122Q117 1266 213.5 1364.5Q310 1463 454 1463Q599 1463 695.5 1364.5Q792 1266 792 1122Q792 979 695.5 880.5Q599 782 454 782ZM315.5 986Q315.5 986 341.75 958.5Q368 931 454 931Q540 931 593.5 986Q647 1041 647 1122Q647 1204 593.5 1258.5Q540 1313 454 1313Q369 1313 316 1258.5Q263 1204 263 1122Q263 1041 315.5 986Z" />
<glyph glyph-name="plusminus" unicode="&#xb1;" horiz-adv-x="1359" d="M1185 94L174 94L174 276L1185 276ZM772 657L772 390L587 390L587 657L174 657L174 831L587 831L587 1097L772 1097L772 831L1185 831L1185 657Z" />
<glyph glyph-name="two.sups" unicode="&#xb2;" horiz-adv-x="857" d="M90 1535Q90 1669 182.5 1752Q275 1835 425 1835Q570 1835 660.5 1760.5Q751 1686 751 1566Q751 1487 704.5 1413.5Q658 1340 535 1231L375 1084L375 1067L765 1067L765 898L102 898L102 1042L394 1321Q490 1412 522.5 1458Q555 1504 555 1550Q555 1603 516.5 1637Q478 1671 417 1671Q354 1671 314.5 1633.5Q275 1596 275 1535L275 1531L90 1531Z" />
<glyph glyph-name="three.sups" unicode="&#xb3;" horiz-adv-x="888" d="M326 1290L326 1436L437 1436Q500 1436 539 1469Q578 1502 578 1555Q578 1607 539 1638.5Q500 1670 436 1670Q372 1670 332 1636.5Q292 1603 287 1546L103 1546Q107 1677 198.5 1755Q290 1833 441 1833Q584 1833 676 1763.5Q768 1694 768 1585Q768 1507 721 1450.5Q674 1394 598 1380L598 1363Q692 1355 747.5 1296.5Q803 1238 803 1148Q803 1027 701.5 949.5Q600 872 442 872Q285 872 188.5 952Q92 1032 88 1165L276 1165Q281 1109 325.5 1075Q370 1041 442 1041Q513 1041 557 1076Q601 1111 601 1166Q601 1224 558 1257Q515 1290 439 1290Z" />
<glyph glyph-name="acute" unicode="&#xb4;" horiz-adv-x="1095" d="M498 1271L276 1271L527 1615L779 1615Z" />
<glyph glyph-name="mugreek" unicode="&#xb5;" horiz-adv-x="1296" d="M156 -362L156 1089L371 1089L371 439Q371 178 599 178Q717 178 788 252Q859 326 859 451L859 1089L1074 1089L1074 301Q1074 230 1095.5 203Q1117 176 1170 176Q1193 176 1220 181L1220 3Q1177 -10 1121 -10Q1008 -10 953 30Q898 70 879 166L876 179L859 179Q824 79 759 29Q694 -21 590 -21Q443 -21 388 86L371 86L371 -362Z" />
<glyph glyph-name="paragraph" unicode="&#xb6;" horiz-adv-x="1414" d="M882 -237L666 -237L666 517L646 517Q436 517 295 648Q154 779 154 975Q154 1178 294 1310.5Q434 1443 647 1443L882 1443ZM1036 -237L1036 1443L1252 1443L1252 -237Z" />
<glyph glyph-name="periodcentered" unicode="&#xb7;" horiz-adv-x="663" d="M439 628Q439 628 417.5 606Q396 584 332 584Q268 584 225 628Q182 672 182 736Q182 801 225 844.5Q268 888 332 888Q396 888 439 844.5Q482 801 482 736Q482 672 439 628Z" />
<glyph glyph-name="cedilla" unicode="&#xb8;" horiz-adv-x="1095" d="M398 -235L398 -138L466 24L602 24L602 0L554 -122Q653 -124 707.5 -168Q762 -212 762 -291Q762 -380 695 -433Q628 -486 510 -486Q425 -486 363 -469L363 -349Q409 -363 483 -363Q599 -363 599 -296Q599 -264 566 -249.5Q533 -235 457 -235Z" />
<glyph glyph-name="one.sups" unicode="&#xb9;" horiz-adv-x="699" d="M321 898L321 1613L304 1613Q293 1606 190.5 1535Q88 1464 86 1462L86 1650Q175 1717 320 1812L517 1812L517 898Z" />
<glyph glyph-name="ordmasculine" unicode="&#xba;" horiz-adv-x="1054" d="M847 634Q847 634 789 570.5Q731 507 527 507Q323 507 206.5 634.5Q90 762 90 985Q90 1206 207.5 1334.5Q325 1463 527 1463Q730 1463 846.5 1335.5Q963 1208 963 985Q963 761 847 634ZM527 681Q635 681 694.5 760.5Q754 840 754 985Q754 1130 694.5 1209.5Q635 1289 527 1289Q419 1289 359.5 1209Q300 1129 300 985Q300 840 359 760.5Q418 681 527 681Z" />
<glyph glyph-name="guillemotright" unicode="&#xbb;" horiz-adv-x="1411" d="M521 573L171 983L399 983L750 569L750 561L402 148L171 148L521 559ZM1012 573L662 983L890 983L1240 569L1240 561L892 148L662 148L1012 559Z" />
<glyph glyph-name="onequarter" unicode="&#xbc;" horiz-adv-x="2051" d="M321 529L321 1244L304 1244Q293 1237 190.5 1166Q88 1095 86 1093L86 1281Q175 1348 320 1443L517 1443L517 529ZM733 0L528 0L884 754L1187 1443L1392 1443L1045 713ZM1663 0L1663 154L1200 154L1200 327Q1248 420 1325.5 543Q1403 666 1571 914L1851 914L1851 319L1968 319L1968 158L1848 158L1848 0ZM1379 320L1379 314L1664 314L1664 755L1656 755Q1446 441 1379 320Z" />
<glyph glyph-name="onehalf" unicode="&#xbd;" horiz-adv-x="2055" d="M321 529L321 1244L304 1244Q293 1237 190.5 1166Q88 1095 86 1093L86 1281Q175 1348 320 1443L517 1443L517 529ZM733 0L528 0L884 754L1187 1443L1392 1443L1045 713ZM1288 637Q1288 771 1380.5 854Q1473 937 1623 937Q1768 937 1858.5 862.5Q1949 788 1949 668Q1949 589 1902.5 515.5Q1856 442 1733 333L1573 186L1573 169L1963 169L1963 0L1300 0L1300 144L1592 423Q1688 514 1720.5 560Q1753 606 1753 652Q1753 705 1714.5 739Q1676 773 1615 773Q1552 773 1512.5 735.5Q1473 698 1473 637L1473 633L1288 633Z" />
<glyph glyph-name="threequarters" unicode="&#xbe;" horiz-adv-x="2230" d="M326 921L326 1067L437 1067Q500 1067 539 1100Q578 1133 578 1186Q578 1238 539 1269.5Q500 1301 436 1301Q372 1301 332 1267.5Q292 1234 287 1177L103 1177Q107 1308 198.5 1386Q290 1464 441 1464Q584 1464 676 1394.5Q768 1325 768 1216Q768 1138 721.5 1081.5Q675 1025 598 1011L598 994Q692 986 747.5 927.5Q803 869 803 779Q803 658 701.5 580.5Q600 503 442 503Q285 503 188.5 583Q92 663 88 796L276 796Q281 740 325.5 706Q370 672 442 672Q513 672 557 707Q601 742 601 797Q601 855 558 888Q515 921 439 921ZM912 0L707 0L1063 754L1366 1443L1571 1443L1224 713ZM1843 0L1843 154L1380 154L1380 327Q1428 420 1505.5 543Q1583 666 1751 914L2031 914L2031 319L2148 319L2148 158L2028 158L2028 0ZM1559 320L1559 314L1844 314L1844 755L1836 755Q1626 441 1559 320Z" />
<glyph glyph-name="questiondown" unicode="&#xbf;" horiz-adv-x="1083" d="M1004 58Q997 -122 879 -234Q761 -346 551 -346Q353 -346 230 -240.5Q107 -135 107 30Q107 244 318 370Q414 428 448.5 476Q483 524 483 601L483 660L690 660L691 585Q695 478 649.5 405Q604 332 499 269Q408 213 371.5 162.5Q335 112 335 39Q335 -46 397 -99.5Q459 -153 561 -153Q664 -153 726.5 -96.5Q789 -40 796 58ZM687 869Q687 869 666 848Q645 827 576 827Q507 827 464 869Q421 911 421 980Q421 1048 464 1090.5Q507 1133 576 1133Q645 1133 687 1090.5Q729 1048 729 980Q729 911 687 869Z" />
<glyph glyph-name="Agrave" unicode="&#xc0;" horiz-adv-x="1423" d="M1115 0L983 383L433 383L300 0L70 0L591 1443L832 1443L1353 0ZM700 1181L490 571L926 571L717 1181ZM599 1582L273 1888L531 1888L829 1582Z" />
<glyph glyph-name="Aacute" unicode="&#xc1;" horiz-adv-x="1423" d="M1115 0L983 383L433 383L300 0L70 0L591 1443L832 1443L1353 0ZM700 1181L490 571L926 571L717 1181ZM824 1582L594 1582L891 1888L1149 1888Z" />
<glyph glyph-name="Acircumflex" unicode="&#xc2;" horiz-adv-x="1423" d="M1115 0L983 383L433 383L300 0L70 0L591 1443L832 1443L1353 0ZM700 1181L490 571L926 571L717 1181ZM611 1896L813 1896L1108 1582L883 1582L720 1763L704 1763L541 1582L316 1582Z" />
<glyph glyph-name="Atilde" unicode="&#xc3;" horiz-adv-x="1423" d="M1115 0L983 383L433 383L300 0L70 0L591 1443L832 1443L1353 0ZM700 1181L490 571L926 571L717 1181ZM858 1577Q814 1577 776.5 1592.5Q739 1608 713 1630Q687 1652 665 1674.5Q643 1697 620 1712.5Q597 1728 576 1728Q527 1728 504.5 1692Q482 1656 482 1578L324 1578Q324 1718 389 1800Q454 1882 566 1882Q610 1882 647.5 1866.5Q685 1851 711 1828.5Q737 1806 759 1784Q781 1762 804 1746.5Q827 1731 848 1731Q897 1731 919.5 1766Q942 1801 942 1879L1100 1879Q1100 1739 1035 1658Q970 1577 858 1577Z" />
<glyph glyph-name="Adieresis" unicode="&#xc4;" horiz-adv-x="1423" d="M1115 0L983 383L433 383L300 0L70 0L591 1443L832 1443L1353 0ZM700 1181L490 571L926 571L717 1181ZM499 1577Q442 1577 403.5 1615.5Q365 1654 365 1711Q365 1768 403.5 1807Q442 1846 499 1846Q555 1846 593.5 1807Q632 1768 632 1711Q632 1654 593.5 1615.5Q555 1577 499 1577ZM1020.5 1615.5Q1020.5 1615.5 1001.25 1596.25Q982 1577 926 1577Q870 1577 831 1615.5Q792 1654 792 1711Q792 1768 831 1807Q870 1846 926 1846Q982 1846 1020.5 1807Q1059 1768 1059 1711Q1059 1654 1020.5 1615.5Z" />
<glyph glyph-name="Aring" unicode="&#xc5;" horiz-adv-x="1423" d="M1115 0L983 383L433 383L300 0L70 0L591 1443L832 1443L1353 0ZM700 1181L490 571L926 571L717 1181ZM712 1549Q628 1549 569.5 1606Q511 1663 511 1747Q511 1831 569 1888Q627 1945 712 1945Q797 1945 855 1888Q913 1831 913 1747Q913 1663 855 1606Q797 1549 712 1549ZM639.5 1675.5Q639.5 1675.5 653.75 1661.25Q668 1647 712 1647Q756 1647 784.5 1675.5Q813 1704 813 1747Q813 1791 784.5 1819Q756 1847 712 1847Q668 1847 639.5 1819Q611 1791 611 1747Q611 1704 639.5 1675.5Z" />
<glyph glyph-name="AE" unicode="&#xc6;" horiz-adv-x="1999" d="M847 1253L559 606L987 606L987 1253ZM987 0L987 417L483 417L294 0L70 0L701 1443L1857 1443L1857 1239L1202 1239L1202 824L1820 824L1820 629L1202 629L1202 204L1857 204L1857 0Z" />
<glyph glyph-name="Ccedilla" unicode="&#xc7;" horiz-adv-x="1485" d="M1372 978L1149 978Q1117 1111 1015.5 1190Q914 1269 772 1269Q578 1269 464.5 1121.5Q351 974 351 721Q351 469 464.5 321.5Q578 174 773 174Q916 174 1017.5 246Q1119 318 1149 440L1372 440Q1344 242 1200 114.5Q1056 -13 841 -32L806 -122Q905 -124 959.5 -168Q1014 -212 1014 -291Q1014 -380 947 -433Q880 -486 762 -486Q677 -486 615 -469L615 -349Q661 -363 735 -363Q851 -363 851 -296Q851 -264 818 -249.5Q785 -235 709 -235L650 -235L650 -138L695 -31Q428 -5 275 195Q122 395 122 721Q122 1072 296.5 1275Q471 1478 772 1478Q1010 1478 1177.5 1338.5Q1345 1199 1372 978Z" />
<glyph glyph-name="Egrave" unicode="&#xc8;" horiz-adv-x="1239" d="M1097 204L1097 0L181 0L181 1443L1097 1443L1097 1239L405 1239L405 831L1060 831L1060 637L405 637L405 204ZM526 1582L200 1888L458 1888L756 1582Z" />
<glyph glyph-name="Eacute" unicode="&#xc9;" horiz-adv-x="1239" d="M1097 204L1097 0L181 0L181 1443L1097 1443L1097 1239L405 1239L405 831L1060 831L1060 637L405 637L405 204ZM751 1582L521 1582L818 1888L1076 1888Z" />
<glyph glyph-name="Ecircumflex" unicode="&#xca;" horiz-adv-x="1239" d="M1097 204L1097 0L181 0L181 1443L1097 1443L1097 1239L405 1239L405 831L1060 831L1060 637L405 637L405 204ZM538 1896L740 1896L1035 1582L810 1582L647 1763L631 1763L468 1582L243 1582Z" />
<glyph glyph-name="Edieresis" unicode="&#xcb;" horiz-adv-x="1239" d="M1097 204L1097 0L181 0L181 1443L1097 1443L1097 1239L405 1239L405 831L1060 831L1060 637L405 637L405 204ZM426 1577Q369 1577 330.5 1615.5Q292 1654 292 1711Q292 1768 330.5 1807Q369 1846 426 1846Q482 1846 520.5 1807Q559 1768 559 1711Q559 1654 520.5 1615.5Q482 1577 426 1577ZM947.5 1615.5Q947.5 1615.5 928.25 1596.25Q909 1577 853 1577Q797 1577 758 1615.5Q719 1654 719 1711Q719 1768 758 1807Q797 1846 853 1846Q909 1846 947.5 1807Q986 1768 986 1711Q986 1654 947.5 1615.5Z" />
<glyph glyph-name="Igrave" unicode="&#xcc;" horiz-adv-x="585" d="M405 0L181 0L181 1443L405 1443ZM180 1582L-146 1888L112 1888L410 1582Z" />
<glyph glyph-name="Iacute" unicode="&#xcd;" horiz-adv-x="585" d="M405 0L181 0L181 1443L405 1443ZM405 1582L175 1582L472 1888L730 1888Z" />
<glyph glyph-name="Icircumflex" unicode="&#xce;" horiz-adv-x="585" d="M405 0L181 0L181 1443L405 1443ZM192 1896L394 1896L689 1582L464 1582L301 1763L285 1763L122 1582L-103 1582Z" />
<glyph glyph-name="Idieresis" unicode="&#xcf;" horiz-adv-x="585" d="M405 0L181 0L181 1443L405 1443ZM80 1577Q23 1577 -15.5 1615.5Q-54 1654 -54 1711Q-54 1768 -15.5 1807Q23 1846 80 1846Q136 1846 174.5 1807Q213 1768 213 1711Q213 1654 174.5 1615.5Q136 1577 80 1577ZM601.5 1615.5Q601.5 1615.5 582.25 1596.25Q563 1577 507 1577Q451 1577 412 1615.5Q373 1654 373 1711Q373 1768 412 1807Q451 1846 507 1846Q563 1846 601.5 1807Q640 1768 640 1711Q640 1654 601.5 1615.5Z" />
<glyph glyph-name="Eth" unicode="&#xd0;" horiz-adv-x="1502" d="M405 204L677 204Q904 204 1028.5 339.5Q1153 475 1153 723Q1153 967 1027.5 1103Q902 1239 677 1239L405 1239L405 834L645 834L645 643L405 643ZM181 1443L702 1443Q1023 1443 1202 1254.5Q1381 1066 1381 726Q1381 380 1203 190Q1025 0 702 0L181 0L181 643L35 643L35 834L181 834Z" />
<glyph glyph-name="Ntilde" unicode="&#xd1;" horiz-adv-x="1539" d="M399 0L181 0L181 1443L383 1443L1124 418L1140 418L1140 1443L1358 1443L1358 0L1156 0L415 1025L399 1025ZM914 1577Q870 1577 832.5 1592.5Q795 1608 769 1630Q743 1652 721 1674.5Q699 1697 676 1712.5Q653 1728 632 1728Q583 1728 560.5 1692Q538 1656 538 1578L380 1578Q380 1718 445 1800Q510 1882 622 1882Q666 1882 703.5 1866.5Q741 1851 767 1828.5Q793 1806 815 1784Q837 1762 860 1746.5Q883 1731 904 1731Q953 1731 975.5 1766Q998 1801 998 1879L1156 1879Q1156 1739 1091 1658Q1026 1577 914 1577Z" />
<glyph glyph-name="Ograve" unicode="&#xd2;" horiz-adv-x="1590" d="M796 1478Q1108 1478 1288 1274.5Q1468 1071 1468 722Q1468 373 1288 169Q1108 -35 796 -35Q483 -35 302.5 168.5Q122 372 122 722Q122 1071 303.5 1274.5Q485 1478 796 1478ZM796 1269Q592 1269 471.5 1121Q351 973 351 722Q351 471 470 322.5Q589 174 796 174Q1001 174 1120 322.5Q1239 471 1239 722Q1239 974 1120 1121.5Q1001 1269 796 1269ZM683 1582L357 1888L615 1888L913 1582Z" />
<glyph glyph-name="Oacute" unicode="&#xd3;" horiz-adv-x="1590" d="M796 1478Q1108 1478 1288 1274.5Q1468 1071 1468 722Q1468 373 1288 169Q1108 -35 796 -35Q483 -35 302.5 168.5Q122 372 122 722Q122 1071 303.5 1274.5Q485 1478 796 1478ZM796 1269Q592 1269 471.5 1121Q351 973 351 722Q351 471 470 322.5Q589 174 796 174Q1001 174 1120 322.5Q1239 471 1239 722Q1239 974 1120 1121.5Q1001 1269 796 1269ZM908 1582L678 1582L975 1888L1233 1888Z" />
<glyph glyph-name="Ocircumflex" unicode="&#xd4;" horiz-adv-x="1590" d="M796 1478Q1108 1478 1288 1274.5Q1468 1071 1468 722Q1468 373 1288 169Q1108 -35 796 -35Q483 -35 302.5 168.5Q122 372 122 722Q122 1071 303.5 1274.5Q485 1478 796 1478ZM796 1269Q592 1269 471.5 1121Q351 973 351 722Q351 471 470 322.5Q589 174 796 174Q1001 174 1120 322.5Q1239 471 1239 722Q1239 974 1120 1121.5Q1001 1269 796 1269ZM695 1896L897 1896L1192 1582L967 1582L804 1763L788 1763L625 1582L400 1582Z" />
<glyph glyph-name="Otilde" unicode="&#xd5;" horiz-adv-x="1590" d="M796 1478Q1108 1478 1288 1274.5Q1468 1071 1468 722Q1468 373 1288 169Q1108 -35 796 -35Q483 -35 302.5 168.5Q122 372 122 722Q122 1071 303.5 1274.5Q485 1478 796 1478ZM796 1269Q592 1269 471.5 1121Q351 973 351 722Q351 471 470 322.5Q589 174 796 174Q1001 174 1120 322.5Q1239 471 1239 722Q1239 974 1120 1121.5Q1001 1269 796 1269ZM942 1577Q898 1577 860.5 1592.5Q823 1608 797 1630Q771 1652 749 1674.5Q727 1697 704 1712.5Q681 1728 660 1728Q611 1728 588.5 1692Q566 1656 566 1578L408 1578Q408 1718 473 1800Q538 1882 650 1882Q694 1882 731.5 1866.5Q769 1851 795 1828.5Q821 1806 843 1784Q865 1762 888 1746.5Q911 1731 932 1731Q981 1731 1003.5 1766Q1026 1801 1026 1879L1184 1879Q1184 1739 1119 1658Q1054 1577 942 1577Z" />
<glyph glyph-name="Odieresis" unicode="&#xd6;" horiz-adv-x="1590" d="M796 1478Q1108 1478 1288 1274.5Q1468 1071 1468 722Q1468 373 1288 169Q1108 -35 796 -35Q483 -35 302.5 168.5Q122 372 122 722Q122 1071 303.5 1274.5Q485 1478 796 1478ZM796 1269Q592 1269 471.5 1121Q351 973 351 722Q351 471 470 322.5Q589 174 796 174Q1001 174 1120 322.5Q1239 471 1239 722Q1239 974 1120 1121.5Q1001 1269 796 1269ZM583 1577Q526 1577 487.5 1615.5Q449 1654 449 1711Q449 1768 487.5 1807Q526 1846 583 1846Q639 1846 677.5 1807Q716 1768 716 1711Q716 1654 677.5 1615.5Q639 1577 583 1577ZM1104.5 1615.5Q1104.5 1615.5 1085.25 1596.25Q1066 1577 1010 1577Q954 1577 915 1615.5Q876 1654 876 1711Q876 1768 915 1807Q954 1846 1010 1846Q1066 1846 1104.5 1807Q1143 1768 1143 1711Q1143 1654 1104.5 1615.5Z" />
<glyph glyph-name="multiply" unicode="&#xd7;" horiz-adv-x="1359" d="M680 443L373 138L243 276L549 582L243 888L373 1026L680 721L986 1026L1116 888L810 582L1116 276L986 138Z" />
<glyph glyph-name="Oslash" unicode="&#xd8;" horiz-adv-x="1566" d="M1133 1105L524 267Q634 174 796 174Q1001 174 1120 322.5Q1239 471 1239 722Q1239 958 1133 1105ZM442 362L1047 1192Q942 1269 796 1269Q592 1269 471.5 1121Q351 973 351 722Q351 505 442 362ZM1370 1432L1270 1294Q1468 1090 1468 722Q1468 373 1288 169Q1108 -35 796 -35Q560 -35 392 86L289 -56L188 15L301 170Q122 372 122 722Q122 1071 303.5 1274.5Q485 1478 796 1478Q1019 1478 1178 1371L1269 1496Z" />
<glyph glyph-name="Ugrave" unicode="&#xd9;" horiz-adv-x="1539" d="M409 1443L409 517Q409 363 504.5 269Q600 175 769 175Q939 175 1034.5 269Q1130 363 1130 517L1130 1443L1354 1443L1354 497Q1354 259 1195.5 112Q1037 -35 769 -35Q501 -35 343 112Q185 259 185 497L185 1443ZM656 1582L330 1888L588 1888L886 1582Z" />
<glyph glyph-name="Uacute" unicode="&#xda;" horiz-adv-x="1539" d="M409 1443L409 517Q409 363 504.5 269Q600 175 769 175Q939 175 1034.5 269Q1130 363 1130 517L1130 1443L1354 1443L1354 497Q1354 259 1195.5 112Q1037 -35 769 -35Q501 -35 343 112Q185 259 185 497L185 1443ZM881 1582L651 1582L948 1888L1206 1888Z" />
<glyph glyph-name="Ucircumflex" unicode="&#xdb;" horiz-adv-x="1539" d="M409 1443L409 517Q409 363 504.5 269Q600 175 769 175Q939 175 1034.5 269Q1130 363 1130 517L1130 1443L1354 1443L1354 497Q1354 259 1195.5 112Q1037 -35 769 -35Q501 -35 343 112Q185 259 185 497L185 1443ZM668 1896L870 1896L1165 1582L940 1582L777 1763L761 1763L598 1582L373 1582Z" />
<glyph glyph-name="Udieresis" unicode="&#xdc;" horiz-adv-x="1539" d="M409 1443L409 517Q409 363 504.5 269Q600 175 769 175Q939 175 1034.5 269Q1130 363 1130 517L1130 1443L1354 1443L1354 497Q1354 259 1195.5 112Q1037 -35 769 -35Q501 -35 343 112Q185 259 185 497L185 1443ZM556 1577Q499 1577 460.5 1615.5Q422 1654 422 1711Q422 1768 460.5 1807Q499 1846 556 1846Q612 1846 650.5 1807Q689 1768 689 1711Q689 1654 650.5 1615.5Q612 1577 556 1577ZM1077.5 1615.5Q1077.5 1615.5 1058.25 1596.25Q1039 1577 983 1577Q927 1577 888 1615.5Q849 1654 849 1711Q849 1768 888 1807Q927 1846 983 1846Q1039 1846 1077.5 1807Q1116 1768 1116 1711Q1116 1654 1077.5 1615.5Z" />
<glyph glyph-name="Yacute" unicode="&#xdd;" horiz-adv-x="1383" d="M803 0L579 0L579 582L71 1443L320 1443L683 818L700 818L1063 1443L1312 1443L803 582ZM803 1582L573 1582L870 1888L1128 1888Z" />
<glyph glyph-name="Thorn" unicode="&#xde;" horiz-adv-x="1315" d="M181 1443L405 1443L405 1192L755 1192Q941 1192 1068.5 1073.5Q1196 955 1196 756Q1196 624 1134 523Q1072 422 971 371Q870 320 748 320L405 320L405 0L181 0ZM405 993L405 517L692 517Q817 517 892 578.5Q967 640 967 756Q967 872 892 932.5Q817 993 692 993Z" />
<glyph glyph-name="germandbls" unicode="&#xdf;" horiz-adv-x="1320" d="M427 0L213 0L213 1091Q213 1275 335.5 1382.5Q458 1490 661 1490Q857 1490 981 1385Q1105 1280 1105 1114Q1105 994 1041.5 904Q978 814 880 785L880 766Q1034 753 1124.5 658Q1215 563 1215 404Q1215 220 1087 103Q959 -14 750 -14Q651 -14 592 0L592 191Q652 176 723 176Q854 176 926.5 241Q999 306 999 414Q999 524 915.5 587.5Q832 651 683 651L618 651L618 853L668 853Q772 853 833.5 914Q895 975 895 1086Q895 1178 833 1237.5Q771 1297 665 1297Q552 1297 489.5 1234Q427 1171 427 1055Z" />
<glyph glyph-name="agrave" unicode="&#xe0;" horiz-adv-x="1158" d="M512 163Q633 163 713.5 231Q794 299 794 401L794 492L528 475Q416 468 363 429Q310 390 310 318Q310 246 366 204.5Q422 163 512 163ZM457 -18Q297 -18 195.5 71.5Q94 161 94 308Q94 454 199 537.5Q304 621 499 633L794 650L794 744Q794 831 737 877.5Q680 924 571 924Q481 924 421.5 892.5Q362 861 344 803L136 803Q152 943 273.5 1026.5Q395 1110 581 1110Q785 1110 896.5 1013.5Q1008 917 1008 744L1008 0L801 0L801 153L784 153Q735 71 649.5 26.5Q564 -18 457 -18ZM716 1271L495 1271L213 1615L465 1615Z" />
<glyph glyph-name="aacute" unicode="&#xe1;" horiz-adv-x="1158" d="M512 163Q633 163 713.5 231Q794 299 794 401L794 492L528 475Q416 468 363 429Q310 390 310 318Q310 246 366 204.5Q422 163 512 163ZM457 -18Q297 -18 195.5 71.5Q94 161 94 308Q94 454 199 537.5Q304 621 499 633L794 650L794 744Q794 831 737 877.5Q680 924 571 924Q481 924 421.5 892.5Q362 861 344 803L136 803Q152 943 273.5 1026.5Q395 1110 581 1110Q785 1110 896.5 1013.5Q1008 917 1008 744L1008 0L801 0L801 153L784 153Q735 71 649.5 26.5Q564 -18 457 -18ZM674 1271L452 1271L703 1615L955 1615Z" />
<glyph glyph-name="acircumflex" unicode="&#xe2;" horiz-adv-x="1158" d="M512 163Q633 163 713.5 231Q794 299 794 401L794 492L528 475Q416 468 363 429Q310 390 310 318Q310 246 366 204.5Q422 163 512 163ZM457 -18Q297 -18 195.5 71.5Q94 161 94 308Q94 454 199 537.5Q304 621 499 633L794 650L794 744Q794 831 737 877.5Q680 924 571 924Q481 924 421.5 892.5Q362 861 344 803L136 803Q152 943 273.5 1026.5Q395 1110 581 1110Q785 1110 896.5 1013.5Q1008 917 1008 744L1008 0L801 0L801 153L784 153Q735 71 649.5 26.5Q564 -18 457 -18ZM698 1584L977 1238L756 1238L589 1457L573 1457L406 1238L184 1238L464 1584Z" />
<glyph glyph-name="atilde" unicode="&#xe3;" horiz-adv-x="1158" d="M512 163Q633 163 713.5 231Q794 299 794 401L794 492L528 475Q416 468 363 429Q310 390 310 318Q310 246 366 204.5Q422 163 512 163ZM457 -18Q297 -18 195.5 71.5Q94 161 94 308Q94 454 199 537.5Q304 621 499 633L794 650L794 744Q794 831 737 877.5Q680 924 571 924Q481 924 421.5 892.5Q362 861 344 803L136 803Q152 943 273.5 1026.5Q395 1110 581 1110Q785 1110 896.5 1013.5Q1008 917 1008 744L1008 0L801 0L801 153L784 153Q735 71 649.5 26.5Q564 -18 457 -18ZM729 1241Q685 1241 647.5 1256.5Q610 1272 584 1294Q558 1316 536 1338.5Q514 1361 491 1376.5Q468 1392 447 1392Q398 1392 375.5 1356Q353 1320 353 1242L195 1242Q195 1382 260 1464Q325 1546 437 1546Q481 1546 518.5 1530.5Q556 1515 582 1492.5Q608 1470 630 1448Q652 1426 675 1410.5Q698 1395 719 1395Q768 1395 790.5 1430Q813 1465 813 1543L971 1543Q971 1403 906 1322Q841 1241 729 1241Z" />
<glyph glyph-name="adieresis" unicode="&#xe4;" horiz-adv-x="1158" d="M512 163Q633 163 713.5 231Q794 299 794 401L794 492L528 475Q416 468 363 429Q310 390 310 318Q310 246 366 204.5Q422 163 512 163ZM457 -18Q297 -18 195.5 71.5Q94 161 94 308Q94 454 199 537.5Q304 621 499 633L794 650L794 744Q794 831 737 877.5Q680 924 571 924Q481 924 421.5 892.5Q362 861 344 803L136 803Q152 943 273.5 1026.5Q395 1110 581 1110Q785 1110 896.5 1013.5Q1008 917 1008 744L1008 0L801 0L801 153L784 153Q735 71 649.5 26.5Q564 -18 457 -18ZM368 1238Q311 1238 272.5 1276.5Q234 1315 234 1372Q234 1429 272.5 1468Q311 1507 368 1507Q424 1507 462.5 1468Q501 1429 501 1372Q501 1315 462.5 1276.5Q424 1238 368 1238ZM889.5 1276.5Q889.5 1276.5 870.25 1257.25Q851 1238 795 1238Q739 1238 700 1276.5Q661 1315 661 1372Q661 1429 700 1468Q739 1507 795 1507Q851 1507 889.5 1468Q928 1429 928 1372Q928 1315 889.5 1276.5Z" />
<glyph glyph-name="aring" unicode="&#xe5;" horiz-adv-x="1158" d="M512 163Q633 163 713.5 231Q794 299 794 401L794 492L528 475Q416 468 363 429Q310 390 310 318Q310 246 366 204.5Q422 163 512 163ZM457 -18Q297 -18 195.5 71.5Q94 161 94 308Q94 454 199 537.5Q304 621 499 633L794 650L794 744Q794 831 737 877.5Q680 924 571 924Q481 924 421.5 892.5Q362 861 344 803L136 803Q152 943 273.5 1026.5Q395 1110 581 1110Q785 1110 896.5 1013.5Q1008 917 1008 744L1008 0L801 0L801 153L784 153Q735 71 649.5 26.5Q564 -18 457 -18ZM749 1305.5Q749 1305.5 714.5 1271.75Q680 1238 581 1238Q482 1238 413 1305.5Q344 1373 344 1472Q344 1571 412.5 1638Q481 1705 581 1705Q681 1705 749.5 1638Q818 1571 818 1472Q818 1373 749 1305.5ZM498 1389.5Q498 1389.5 514.5 1373.25Q531 1357 581 1357Q631 1357 664 1389.5Q697 1422 697 1472Q697 1521 664 1553.5Q631 1586 581 1586Q531 1586 498 1553.5Q465 1521 465 1472Q465 1422 498 1389.5Z" />
<glyph glyph-name="ae" unicode="&#xe6;" horiz-adv-x="1865" d="M1297 -21Q1168 -21 1061.5 38.5Q955 98 909 195L892 195Q836 94 730.5 36.5Q625 -21 486 -21Q309 -21 201.5 69Q94 159 94 308Q94 454 199 537.5Q304 621 499 633L794 650L794 737Q794 828 736.5 876Q679 924 571 924Q480 924 421 892.5Q362 861 344 803L136 803Q152 940 272 1025Q392 1110 570 1110Q696 1110 785.5 1063Q875 1016 921 937L938 937Q990 1014 1085.5 1062Q1181 1110 1294 1110Q1513 1110 1638 966.5Q1763 823 1763 572L1763 493L1003 493L1003 472Q1008 331 1088.5 247Q1169 163 1299 163Q1479 163 1544 294L1751 294Q1713 145 1593.5 62Q1474 -21 1297 -21ZM1282 928Q1162 928 1086.5 853Q1011 778 1003 652L1545 652Q1541 774 1468 851Q1395 928 1282 928ZM520 161Q639 161 716.5 232Q794 303 794 404L794 492L528 475Q416 468 363 429Q310 390 310 317Q310 244 367.5 202.5Q425 161 520 161Z" />
<glyph glyph-name="ccedilla" unicode="&#xe7;" horiz-adv-x="1167" d="M1078 733L869 733Q849 816 782.5 867Q716 918 612 918Q477 918 399.5 820Q322 722 322 548Q322 372 399.5 271.5Q477 171 612 171Q715 171 781.5 217Q848 263 869 350L1078 350Q1059 199 956.5 100.5Q854 2 688 -17L647 -122Q746 -124 800.5 -168Q855 -212 855 -291Q855 -380 788 -433Q721 -486 603 -486Q518 -486 456 -469L456 -349Q502 -363 576 -363Q692 -363 692 -296Q692 -264 659 -249.5Q626 -235 550 -235L491 -235L491 -138L542 -17Q335 6 218.5 154.5Q102 303 102 548Q102 810 238 960Q374 1110 612 1110Q811 1110 933.5 1006Q1056 902 1078 733Z" />
<glyph glyph-name="egrave" unicode="&#xe8;" horiz-adv-x="1192" d="M794.5 850.5Q794.5 850.5 758.25 888.75Q722 927 603 927Q484 927 407 850Q330 773 321 645L871 645Q867 774 794.5 850.5ZM870 294L1077 294Q1040 147 915.5 63Q791 -21 605 -21Q371 -21 236.5 129.5Q102 280 102 541Q102 802 238 956Q374 1110 604 1110Q831 1110 960.5 964Q1090 818 1090 561L1090 486L321 486L321 474Q326 330 404 246Q482 162 611 162Q808 162 870 294ZM739 1271L518 1271L236 1615L488 1615Z" />
<glyph glyph-name="eacute" unicode="&#xe9;" horiz-adv-x="1192" d="M794.5 850.5Q794.5 850.5 758.25 888.75Q722 927 603 927Q484 927 407 850Q330 773 321 645L871 645Q867 774 794.5 850.5ZM870 294L1077 294Q1040 147 915.5 63Q791 -21 605 -21Q371 -21 236.5 129.5Q102 280 102 541Q102 802 238 956Q374 1110 604 1110Q831 1110 960.5 964Q1090 818 1090 561L1090 486L321 486L321 474Q326 330 404 246Q482 162 611 162Q808 162 870 294ZM697 1271L475 1271L726 1615L978 1615Z" />
<glyph glyph-name="ecircumflex" unicode="&#xea;" horiz-adv-x="1192" d="M794.5 850.5Q794.5 850.5 758.25 888.75Q722 927 603 927Q484 927 407 850Q330 773 321 645L871 645Q867 774 794.5 850.5ZM870 294L1077 294Q1040 147 915.5 63Q791 -21 605 -21Q371 -21 236.5 129.5Q102 280 102 541Q102 802 238 956Q374 1110 604 1110Q831 1110 960.5 964Q1090 818 1090 561L1090 486L321 486L321 474Q326 330 404 246Q482 162 611 162Q808 162 870 294ZM721 1584L1000 1238L779 1238L612 1457L596 1457L429 1238L207 1238L487 1584Z" />
<glyph glyph-name="edieresis" unicode="&#xeb;" horiz-adv-x="1192" d="M794.5 850.5Q794.5 850.5 758.25 888.75Q722 927 603 927Q484 927 407 850Q330 773 321 645L871 645Q867 774 794.5 850.5ZM870 294L1077 294Q1040 147 915.5 63Q791 -21 605 -21Q371 -21 236.5 129.5Q102 280 102 541Q102 802 238 956Q374 1110 604 1110Q831 1110 960.5 964Q1090 818 1090 561L1090 486L321 486L321 474Q326 330 404 246Q482 162 611 162Q808 162 870 294ZM391 1238Q334 1238 295.5 1276.5Q257 1315 257 1372Q257 1429 295.5 1468Q334 1507 391 1507Q447 1507 485.5 1468Q524 1429 524 1372Q524 1315 485.5 1276.5Q447 1238 391 1238ZM912.5 1276.5Q912.5 1276.5 893.25 1257.25Q874 1238 818 1238Q762 1238 723 1276.5Q684 1315 684 1372Q684 1429 723 1468Q762 1507 818 1507Q874 1507 912.5 1468Q951 1429 951 1372Q951 1315 912.5 1276.5Z" />
<glyph glyph-name="igrave" unicode="&#xec;" horiz-adv-x="534" d="M160 0L160 1089L374 1089L374 0ZM402 1271L181 1271L-101 1615L151 1615Z" />
<glyph glyph-name="iacute" unicode="&#xed;" horiz-adv-x="534" d="M160 0L160 1089L374 1089L374 0ZM360 1271L138 1271L389 1615L641 1615Z" />
<glyph glyph-name="icircumflex" unicode="&#xee;" horiz-adv-x="534" d="M160 0L160 1089L374 1089L374 0ZM384 1584L663 1238L442 1238L275 1457L259 1457L92 1238L-130 1238L150 1584Z" />
<glyph glyph-name="idieresis" unicode="&#xef;" horiz-adv-x="534" d="M160 0L160 1089L374 1089L374 0ZM54 1238Q-3 1238 -41.5 1276.5Q-80 1315 -80 1372Q-80 1429 -41.5 1468Q-3 1507 54 1507Q110 1507 148.5 1468Q187 1429 187 1372Q187 1315 148.5 1276.5Q110 1238 54 1238ZM575.5 1276.5Q575.5 1276.5 556.25 1257.25Q537 1238 481 1238Q425 1238 386 1276.5Q347 1315 347 1372Q347 1429 386 1468Q425 1507 481 1507Q537 1507 575.5 1468Q614 1429 614 1372Q614 1315 575.5 1276.5Z" />
<glyph glyph-name="eth" unicode="&#xf0;" horiz-adv-x="1220" d="M614 -18Q379 -18 241.5 129Q104 276 104 526Q104 763 229.5 909Q355 1055 559 1055Q656 1055 741.5 1013Q827 971 864 905L880 905Q836 1070 702 1226L421 1134L379 1259L609 1335Q545 1402 394 1522L657 1522Q727 1466 792 1398L1047 1483L1090 1357L883 1289Q998 1141 1058.5 960.5Q1119 780 1119 585Q1119 308 982.5 145Q846 -18 614 -18ZM830 780.5Q830 780.5 790 828.25Q750 876 617 876Q484 876 404.5 781Q325 686 325 526Q325 366 404 270.5Q483 175 617 175Q751 175 830.5 270Q910 365 910 525Q910 685 830 780.5Z" />
<glyph glyph-name="ntilde" unicode="&#xf1;" horiz-adv-x="1227" d="M156 0L156 1089L363 1089L363 916L379 916Q464 1110 704 1110Q886 1110 983.5 1005Q1081 900 1081 705L1081 0L866 0L866 651Q866 913 631 913Q512 913 441.5 838.5Q371 764 371 637L371 0ZM770 1241Q726 1241 688.5 1256.5Q651 1272 625 1294Q599 1316 577 1338.5Q555 1361 532 1376.5Q509 1392 488 1392Q439 1392 416.5 1356Q394 1320 394 1242L236 1242Q236 1382 301 1464Q366 1546 478 1546Q522 1546 559.5 1530.5Q597 1515 623 1492.5Q649 1470 671 1448Q693 1426 716 1410.5Q739 1395 760 1395Q809 1395 831.5 1430Q854 1465 854 1543L1012 1543Q1012 1403 947 1322Q882 1241 770 1241Z" />
<glyph glyph-name="ograve" unicode="&#xf2;" horiz-adv-x="1231" d="M616 -21Q376 -21 239 130Q102 281 102 545Q102 808 239.5 959Q377 1110 616 1110Q854 1110 991.5 959Q1129 808 1129 545Q1129 281 992 130Q855 -21 616 -21ZM616 170Q755 170 831.5 268.5Q908 367 908 545Q908 722 831.5 820.5Q755 919 616 919Q476 919 400 821Q324 723 324 545Q324 366 400 268Q476 170 616 170ZM751 1271L530 1271L248 1615L500 1615Z" />
<glyph glyph-name="oacute" unicode="&#xf3;" horiz-adv-x="1231" d="M616 -21Q376 -21 239 130Q102 281 102 545Q102 808 239.5 959Q377 1110 616 1110Q854 1110 991.5 959Q1129 808 1129 545Q1129 281 992 130Q855 -21 616 -21ZM616 170Q755 170 831.5 268.5Q908 367 908 545Q908 722 831.5 820.5Q755 919 616 919Q476 919 400 821Q324 723 324 545Q324 366 400 268Q476 170 616 170ZM709 1271L487 1271L738 1615L990 1615Z" />
<glyph glyph-name="ocircumflex" unicode="&#xf4;" horiz-adv-x="1231" d="M616 -21Q376 -21 239 130Q102 281 102 545Q102 808 239.5 959Q377 1110 616 1110Q854 1110 991.5 959Q1129 808 1129 545Q1129 281 992 130Q855 -21 616 -21ZM616 170Q755 170 831.5 268.5Q908 367 908 545Q908 722 831.5 820.5Q755 919 616 919Q476 919 400 821Q324 723 324 545Q324 366 400 268Q476 170 616 170ZM733 1584L1012 1238L791 1238L624 1457L608 1457L441 1238L219 1238L499 1584Z" />
<glyph glyph-name="otilde" unicode="&#xf5;" horiz-adv-x="1231" d="M616 -21Q376 -21 239 130Q102 281 102 545Q102 808 239.5 959Q377 1110 616 1110Q854 1110 991.5 959Q1129 808 1129 545Q1129 281 992 130Q855 -21 616 -21ZM616 170Q755 170 831.5 268.5Q908 367 908 545Q908 722 831.5 820.5Q755 919 616 919Q476 919 400 821Q324 723 324 545Q324 366 400 268Q476 170 616 170ZM764 1241Q720 1241 682.5 1256.5Q645 1272 619 1294Q593 1316 571 1338.5Q549 1361 526 1376.5Q503 1392 482 1392Q433 1392 410.5 1356Q388 1320 388 1242L230 1242Q230 1382 295 1464Q360 1546 472 1546Q516 1546 553.5 1530.5Q591 1515 617 1492.5Q643 1470 665 1448Q687 1426 710 1410.5Q733 1395 754 1395Q803 1395 825.5 1430Q848 1465 848 1543L1006 1543Q1006 1403 941 1322Q876 1241 764 1241Z" />
<glyph glyph-name="odieresis" unicode="&#xf6;" horiz-adv-x="1231" d="M616 -21Q376 -21 239 130Q102 281 102 545Q102 808 239.5 959Q377 1110 616 1110Q854 1110 991.5 959Q1129 808 1129 545Q1129 281 992 130Q855 -21 616 -21ZM616 170Q755 170 831.5 268.5Q908 367 908 545Q908 722 831.5 820.5Q755 919 616 919Q476 919 400 821Q324 723 324 545Q324 366 400 268Q476 170 616 170ZM403 1238Q346 1238 307.5 1276.5Q269 1315 269 1372Q269 1429 307.5 1468Q346 1507 403 1507Q459 1507 497.5 1468Q536 1429 536 1372Q536 1315 497.5 1276.5Q459 1238 403 1238ZM924.5 1276.5Q924.5 1276.5 905.25 1257.25Q886 1238 830 1238Q774 1238 735 1276.5Q696 1315 696 1372Q696 1429 735 1468Q774 1507 830 1507Q886 1507 924.5 1468Q963 1429 963 1372Q963 1315 924.5 1276.5Z" />
<glyph glyph-name="divide" unicode="&#xf7;" horiz-adv-x="1359" d="M680 813Q619 813 579.5 852.5Q540 892 540 954Q540 1016 579.5 1055.5Q619 1095 680 1095Q742 1095 781 1055.5Q820 1016 820 954Q820 892 781 852.5Q742 813 680 813ZM680 68Q619 68 579.5 107.5Q540 147 540 210Q540 271 579.5 311Q619 351 680 351Q741 351 780.5 311.5Q820 272 820 210Q820 147 781 107.5Q742 68 680 68ZM1200 491L160 491L160 673L1200 673Z" />
<glyph glyph-name="oslash" unicode="&#xf8;" horiz-adv-x="1231" d="M849 795L466 209Q529 170 616 170Q755 170 831.5 268.5Q908 367 908 545Q908 701 849 795ZM379 300L762 882Q699 919 616 919Q476 919 400 821Q324 723 324 545Q324 393 379 300ZM1035 1080L970 981Q1129 828 1129 545Q1129 281 992 130Q855 -21 616 -21Q469 -21 355 39L295 -53L191 14L256 113Q102 264 102 545Q102 808 239.5 959Q377 1110 616 1110Q763 1110 873 1051L933 1142Z" />
<glyph glyph-name="ugrave" unicode="&#xf9;" horiz-adv-x="1230" d="M1074 1089L1074 0L867 0L867 173L850 173Q767 -21 521 -21Q341 -21 243.5 84Q146 189 146 382L146 1089L361 1089L361 438Q361 305 416.5 241.5Q472 178 590 178Q719 178 789 250.5Q859 323 859 452L859 1089ZM745 1271L524 1271L242 1615L494 1615Z" />
<glyph glyph-name="uacute" unicode="&#xfa;" horiz-adv-x="1230" d="M1074 1089L1074 0L867 0L867 173L850 173Q767 -21 521 -21Q341 -21 243.5 84Q146 189 146 382L146 1089L361 1089L361 438Q361 305 416.5 241.5Q472 178 590 178Q719 178 789 250.5Q859 323 859 452L859 1089ZM703 1271L481 1271L732 1615L984 1615Z" />
<glyph glyph-name="ucircumflex" unicode="&#xfb;" horiz-adv-x="1230" d="M1074 1089L1074 0L867 0L867 173L850 173Q767 -21 521 -21Q341 -21 243.5 84Q146 189 146 382L146 1089L361 1089L361 438Q361 305 416.5 241.5Q472 178 590 178Q719 178 789 250.5Q859 323 859 452L859 1089ZM727 1584L1006 1238L785 1238L618 1457L602 1457L435 1238L213 1238L493 1584Z" />
<glyph glyph-name="udieresis" unicode="&#xfc;" horiz-adv-x="1230" d="M1074 1089L1074 0L867 0L867 173L850 173Q767 -21 521 -21Q341 -21 243.5 84Q146 189 146 382L146 1089L361 1089L361 438Q361 305 416.5 241.5Q472 178 590 178Q719 178 789 250.5Q859 323 859 452L859 1089ZM397 1238Q340 1238 301.5 1276.5Q263 1315 263 1372Q263 1429 301.5 1468Q340 1507 397 1507Q453 1507 491.5 1468Q530 1429 530 1372Q530 1315 491.5 1276.5Q453 1238 397 1238ZM918.5 1276.5Q918.5 1276.5 899.25 1257.25Q880 1238 824 1238Q768 1238 729 1276.5Q690 1315 690 1372Q690 1429 729 1468Q768 1507 824 1507Q880 1507 918.5 1468Q957 1429 957 1372Q957 1315 918.5 1276.5Z" />
<glyph glyph-name="yacute" unicode="&#xfd;" horiz-adv-x="1152" d="M264 -395Q208 -395 175 -390L175 -205Q198 -209 245 -209Q322 -209 368 -174Q414 -139 442 -57L458 -4L64 1089L298 1089L571 224L588 224L860 1089L1088 1089L682 -45Q612 -243 521.5 -319Q431 -395 264 -395ZM667 1271L445 1271L696 1615L948 1615Z" />
<glyph glyph-name="thorn" unicode="&#xfe;" horiz-adv-x="1287" d="M730 1107Q938 1107 1060 955.5Q1182 804 1182 545Q1182 286 1060 134Q938 -18 731 -18Q615 -18 527 30.5Q439 79 396 165L379 165L379 -353L164 -353L164 1506L373 1506L373 909L389 909Q439 1002 529 1054.5Q619 1107 730 1107ZM668 175Q805 175 882.5 273.5Q960 372 960 545Q960 718 882.5 816Q805 914 669 914Q533 914 454 814.5Q375 715 375 544Q375 374 454 274.5Q533 175 668 175Z" />
<glyph glyph-name="ydieresis" unicode="&#xff;" horiz-adv-x="1152" d="M264 -395Q208 -395 175 -390L175 -205Q198 -209 245 -209Q322 -209 368 -174Q414 -139 442 -57L458 -4L64 1089L298 1089L571 224L588 224L860 1089L1088 1089L682 -45Q612 -243 521.5 -319Q431 -395 264 -395ZM361 1238Q304 1238 265.5 1276.5Q227 1315 227 1372Q227 1429 265.5 1468Q304 1507 361 1507Q417 1507 455.5 1468Q494 1429 494 1372Q494 1315 455.5 1276.5Q417 1238 361 1238ZM882.5 1276.5Q882.5 1276.5 863.25 1257.25Q844 1238 788 1238Q732 1238 693 1276.5Q654 1315 654 1372Q654 1429 693 1468Q732 1507 788 1507Q844 1507 882.5 1468Q921 1429 921 1372Q921 1315 882.5 1276.5Z" />
<glyph glyph-name="Amacron" unicode="&#x0100;" horiz-adv-x="1423" d="M1115 0L983 383L433 383L300 0L70 0L591 1443L832 1443L1353 0ZM700 1181L490 571L926 571L717 1181ZM1062 1781L1062 1625L362 1625L362 1781Z" />
<glyph glyph-name="amacron" unicode="&#x0101;" horiz-adv-x="1158" d="M512 163Q633 163 713.5 231Q794 299 794 401L794 492L528 475Q416 468 363 429Q310 390 310 318Q310 246 366 204.5Q422 163 512 163ZM457 -18Q297 -18 195.5 71.5Q94 161 94 308Q94 454 199 537.5Q304 621 499 633L794 650L794 744Q794 831 737 877.5Q680 924 571 924Q481 924 421.5 892.5Q362 861 344 803L136 803Q152 943 273.5 1026.5Q395 1110 581 1110Q785 1110 896.5 1013.5Q1008 917 1008 744L1008 0L801 0L801 153L784 153Q735 71 649.5 26.5Q564 -18 457 -18ZM929 1454L929 1299L233 1299L233 1454Z" />
<glyph glyph-name="Abreve" unicode="&#x0102;" horiz-adv-x="1423" d="M1115 0L983 383L433 383L300 0L70 0L591 1443L832 1443L1353 0ZM700 1181L490 571L926 571L717 1181ZM335 1891L508 1891Q509 1813 564 1767.5Q619 1722 712 1722Q805 1722 860 1767.5Q915 1813 916 1891L1089 1891Q1089 1749 987.5 1663Q886 1577 712 1577Q538 1577 436.5 1663Q335 1749 335 1891Z" />
<glyph glyph-name="abreve" unicode="&#x0103;" horiz-adv-x="1158" d="M512 163Q633 163 713.5 231Q794 299 794 401L794 492L528 475Q416 468 363 429Q310 390 310 318Q310 246 366 204.5Q422 163 512 163ZM457 -18Q297 -18 195.5 71.5Q94 161 94 308Q94 454 199 537.5Q304 621 499 633L794 650L794 744Q794 831 737 877.5Q680 924 571 924Q481 924 421.5 892.5Q362 861 344 803L136 803Q152 943 273.5 1026.5Q395 1110 581 1110Q785 1110 896.5 1013.5Q1008 917 1008 744L1008 0L801 0L801 153L784 153Q735 71 649.5 26.5Q564 -18 457 -18ZM202 1576L375 1576Q376 1491 430 1438.5Q484 1386 579 1386Q674 1386 728 1438.5Q782 1491 783 1576L956 1576Q956 1426 854 1332Q752 1238 579 1238Q406 1238 304 1332Q202 1426 202 1576Z" />
<glyph glyph-name="Aogonek" unicode="&#x0104;" horiz-adv-x="1423" d="M700 1181L490 571L926 571L717 1181ZM1317 -428Q1268 -447 1201 -447Q1087 -447 1017 -386.5Q947 -326 947 -234Q947 -164 993.5 -101Q1040 -38 1114 1L983 383L433 383L300 0L70 0L591 1443L832 1443L1353 0L1328 -5Q1247 -34 1191.5 -81.5Q1136 -129 1136 -190Q1136 -235 1168.5 -261Q1201 -287 1250 -287Q1298 -287 1317 -280Z" />
<glyph glyph-name="aogonek" unicode="&#x0105;" horiz-adv-x="1158" d="M512 163Q633 163 713.5 231Q794 299 794 401L794 492L528 475Q417 467 363.5 429Q310 391 310 318Q310 248 365.5 205.5Q421 163 512 163ZM990 -428Q938 -447 873 -447Q761 -447 690 -387.5Q619 -328 619 -234Q619 -157 670.5 -92Q722 -27 801 4L801 153L784 153Q735 71 649.5 26.5Q564 -18 457 -18Q295 -18 194.5 72Q94 162 94 308Q94 454 198.5 537.5Q303 621 499 633L794 650L794 744Q794 831 737 877.5Q680 924 571 924Q480 924 421 892.5Q362 861 344 803L136 803Q153 943 274 1026.5Q395 1110 581 1110Q784 1110 896 1014Q1008 918 1008 744L1008 0L987 -6Q906 -34 857 -83.5Q808 -133 808 -190Q808 -233 839.5 -260Q871 -287 923 -287Q970 -287 990 -280Z" />
<glyph glyph-name="Cacute" unicode="&#x0106;" horiz-adv-x="1485" d="M773 -35Q472 -35 297 168Q122 371 122 721Q122 1072 296.5 1275Q471 1478 772 1478Q1010 1478 1177.5 1338.5Q1345 1199 1372 978L1149 978Q1117 1111 1015.5 1190Q914 1269 772 1269Q578 1269 464.5 1121.5Q351 974 351 721Q351 469 464.5 321.5Q578 174 773 174Q916 174 1017.5 246Q1119 318 1149 440L1372 440Q1342 226 1178 95.5Q1014 -35 773 -35ZM884 1584L654 1584L951 1890L1209 1890Z" />
<glyph glyph-name="cacute" unicode="&#x0107;" horiz-adv-x="1167" d="M1078 733L869 733Q849 816 782.5 867Q716 918 612 918Q477 918 399.5 820Q322 722 322 548Q322 372 399.5 271.5Q477 171 612 171Q715 171 781.5 217Q848 263 869 350L1078 350Q1057 182 934 80.5Q811 -21 613 -21Q375 -21 238.5 130.5Q102 282 102 548Q102 810 238 960Q374 1110 612 1110Q811 1110 933.5 1006Q1056 902 1078 733ZM704 1271L482 1271L733 1615L985 1615Z" />
<glyph glyph-name="Ccircumflex" unicode="&#x0108;" horiz-adv-x="1485" d="M773 -35Q472 -35 297 168Q122 371 122 721Q122 1072 296.5 1275Q471 1478 772 1478Q1010 1478 1177.5 1338.5Q1345 1199 1372 978L1149 978Q1117 1111 1015.5 1190Q914 1269 772 1269Q578 1269 464.5 1121.5Q351 974 351 721Q351 469 464.5 321.5Q578 174 773 174Q916 174 1017.5 246Q1119 318 1149 440L1372 440Q1342 226 1178 95.5Q1014 -35 773 -35ZM671 1898L873 1898L1168 1584L943 1584L780 1765L764 1765L601 1584L376 1584Z" />
<glyph glyph-name="ccircumflex" unicode="&#x0109;" horiz-adv-x="1167" d="M1078 733L869 733Q849 816 782.5 867Q716 918 612 918Q477 918 399.5 820Q322 722 322 548Q322 372 399.5 271.5Q477 171 612 171Q715 171 781.5 217Q848 263 869 350L1078 350Q1057 182 934 80.5Q811 -21 613 -21Q375 -21 238.5 130.5Q102 282 102 548Q102 810 238 960Q374 1110 612 1110Q811 1110 933.5 1006Q1056 902 1078 733ZM728 1584L1007 1238L786 1238L619 1457L603 1457L436 1238L214 1238L494 1584Z" />
<glyph glyph-name="Cdotaccent" unicode="&#x010a;" horiz-adv-x="1485" d="M773 -35Q472 -35 297 168Q122 371 122 721Q122 1072 296.5 1275Q471 1478 772 1478Q1010 1478 1177.5 1338.5Q1345 1199 1372 978L1149 978Q1117 1111 1015.5 1190Q914 1269 772 1269Q578 1269 464.5 1121.5Q351 974 351 721Q351 469 464.5 321.5Q578 174 773 174Q916 174 1017.5 246Q1119 318 1149 440L1372 440Q1342 226 1178 95.5Q1014 -35 773 -35ZM867.5 1618.5Q867.5 1618.5 848.25 1598.75Q829 1579 772 1579Q715 1579 676.5 1618.5Q638 1658 638 1716Q638 1774 676.5 1813.5Q715 1853 772 1853Q829 1853 867.5 1813.5Q906 1774 906 1716Q906 1658 867.5 1618.5Z" />
<glyph glyph-name="cdotaccent" unicode="&#x010b;" horiz-adv-x="1167" d="M1078 733L869 733Q849 816 782.5 867Q716 918 612 918Q477 918 399.5 820Q322 722 322 548Q322 372 399.5 271.5Q477 171 612 171Q715 171 781.5 217Q848 263 869 350L1078 350Q1057 182 934 80.5Q811 -21 613 -21Q375 -21 238.5 130.5Q102 282 102 548Q102 810 238 960Q374 1110 612 1110Q811 1110 933.5 1006Q1056 902 1078 733ZM611 1283Q552 1283 511.5 1324.5Q471 1366 471 1425Q471 1484 511.5 1525.5Q552 1567 611 1567Q669 1567 710 1525.5Q751 1484 751 1425Q751 1366 710 1324.5Q669 1283 611 1283Z" />
<glyph glyph-name="Ccaron" unicode="&#x010c;" horiz-adv-x="1485" d="M773 -35Q472 -35 297 168Q122 371 122 721Q122 1072 296.5 1275Q471 1478 772 1478Q1010 1478 1177.5 1338.5Q1345 1199 1372 978L1149 978Q1117 1111 1015.5 1190Q914 1269 772 1269Q578 1269 464.5 1121.5Q351 974 351 721Q351 469 464.5 321.5Q578 174 773 174Q916 174 1017.5 246Q1119 318 1149 440L1372 440Q1342 226 1178 95.5Q1014 -35 773 -35ZM674 1584L381 1890L601 1890L763 1715L781 1715L943 1890L1163 1890L870 1584Z" />
<glyph glyph-name="ccaron" unicode="&#x010d;" horiz-adv-x="1167" d="M1078 733L869 733Q849 816 782.5 867Q716 918 612 918Q477 918 399.5 820Q322 722 322 548Q322 372 399.5 271.5Q477 171 612 171Q715 171 781.5 217Q848 263 869 350L1078 350Q1057 182 934 80.5Q811 -21 613 -21Q375 -21 238.5 130.5Q102 282 102 548Q102 810 238 960Q374 1110 612 1110Q811 1110 933.5 1006Q1056 902 1078 733ZM728 1238L494 1238L214 1584L436 1584L603 1365L619 1365L786 1584L1007 1584Z" />
<glyph glyph-name="Dcaron" unicode="&#x010e;" horiz-adv-x="1502" d="M181 1443L702 1443Q1023 1443 1202 1254.5Q1381 1066 1381 726Q1381 380 1203 190Q1025 0 702 0L181 0ZM405 1239L405 204L677 204Q904 204 1028.5 339.5Q1153 475 1153 723Q1153 967 1027.5 1103Q902 1239 677 1239ZM512 1582L219 1888L439 1888L601 1713L619 1713L781 1888L1001 1888L708 1582Z" />
<glyph glyph-name="dcaron" unicode="&#x010f;" horiz-adv-x="1440" d="M1265 1514L1464 1514L1414 1018L1265 1018ZM554 -18Q346 -18 224 134Q102 286 102 545Q102 803 224.5 955Q347 1107 554 1107Q666 1107 755 1056.5Q844 1006 888 916L904 916L904 1514L1119 1514L1119 0L913 0L913 172L896 172Q847 83 756.5 32.5Q666 -18 554 -18ZM615 914Q479 914 401.5 815.5Q324 717 324 545Q324 372 401.5 273.5Q479 175 615 175Q751 175 829.5 274Q908 373 908 544Q908 714 829 814Q750 914 615 914Z" />
<glyph glyph-name="Dcroat" unicode="&#x0110;" horiz-adv-x="1507" d="M409 204L681 204Q908 204 1032.5 339.5Q1157 475 1157 723Q1157 967 1031.5 1103Q906 1239 681 1239L409 1239L409 834L645 834L645 643L409 643ZM185 1443L706 1443Q1027 1443 1206 1254.5Q1385 1066 1385 726Q1385 380 1207 190Q1029 0 706 0L185 0L185 643L35 643L35 834L185 834Z" />
<glyph glyph-name="dcroat" unicode="&#x0111;" horiz-adv-x="1290" d="M405.5 273.5Q405.5 273.5 444.25 224.25Q483 175 619 175Q755 175 833.5 274Q912 373 912 544Q912 715 833.5 814.5Q755 914 619 914Q483 914 405.5 815.5Q328 717 328 545Q328 372 405.5 273.5ZM1267 1404L1267 1267L1123 1267L1123 0L917 0L917 172L900 172Q851 83 760.5 32.5Q670 -18 558 -18Q350 -18 228 134Q106 286 106 545Q106 803 228.5 955Q351 1107 558 1107Q671 1107 759.5 1056.5Q848 1006 893 916L909 916L909 1267L658 1267L658 1404L909 1404L909 1514L1123 1514L1123 1404Z" />
<glyph glyph-name="Emacron" unicode="&#x0112;" horiz-adv-x="1239" d="M1097 204L1097 0L181 0L181 1443L1097 1443L1097 1239L405 1239L405 831L1060 831L1060 637L405 637L405 204ZM989 1781L989 1625L289 1625L289 1781Z" />
<glyph glyph-name="emacron" unicode="&#x0113;" horiz-adv-x="1192" d="M794.5 850.5Q794.5 850.5 758.25 888.75Q722 927 603 927Q484 927 407 850Q330 773 321 645L871 645Q867 774 794.5 850.5ZM870 294L1077 294Q1040 147 915.5 63Q791 -21 605 -21Q371 -21 236.5 129.5Q102 280 102 541Q102 802 238 956Q374 1110 604 1110Q831 1110 960.5 964Q1090 818 1090 561L1090 486L321 486L321 474Q326 330 404 246Q482 162 611 162Q808 162 870 294ZM952 1454L952 1299L256 1299L256 1454Z" />
<glyph glyph-name="Ebreve" unicode="&#x0114;" horiz-adv-x="1239" d="M1097 204L1097 0L181 0L181 1443L1097 1443L1097 1239L405 1239L405 831L1060 831L1060 637L405 637L405 204ZM262 1891L435 1891Q436 1813 491 1767.5Q546 1722 639 1722Q732 1722 787 1767.5Q842 1813 843 1891L1016 1891Q1016 1749 914.5 1663Q813 1577 639 1577Q465 1577 363.5 1663Q262 1749 262 1891Z" />
<glyph glyph-name="ebreve" unicode="&#x0115;" horiz-adv-x="1192" d="M794.5 850.5Q794.5 850.5 758.25 888.75Q722 927 603 927Q484 927 407 850Q330 773 321 645L871 645Q867 774 794.5 850.5ZM870 294L1077 294Q1040 147 915.5 63Q791 -21 605 -21Q371 -21 236.5 129.5Q102 280 102 541Q102 802 238 956Q374 1110 604 1110Q831 1110 960.5 964Q1090 818 1090 561L1090 486L321 486L321 474Q326 330 404 246Q482 162 611 162Q808 162 870 294ZM225 1576L398 1576Q399 1491 453 1438.5Q507 1386 602 1386Q697 1386 751 1438.5Q805 1491 806 1576L979 1576Q979 1426 877 1332Q775 1238 602 1238Q429 1238 327 1332Q225 1426 225 1576Z" />
<glyph glyph-name="Edotaccent" unicode="&#x0116;" horiz-adv-x="1239" d="M1097 204L1097 0L181 0L181 1443L1097 1443L1097 1239L405 1239L405 831L1060 831L1060 637L405 637L405 204ZM734.5 1616.5Q734.5 1616.5 715.25 1596.75Q696 1577 639 1577Q582 1577 543.5 1616.5Q505 1656 505 1714Q505 1772 543.5 1811.5Q582 1851 639 1851Q696 1851 734.5 1811.5Q773 1772 773 1714Q773 1656 734.5 1616.5Z" />
<glyph glyph-name="edotaccent" unicode="&#x0117;" horiz-adv-x="1192" d="M794.5 850.5Q794.5 850.5 758.25 888.75Q722 927 603 927Q484 927 407 850Q330 773 321 645L871 645Q867 774 794.5 850.5ZM870 294L1077 294Q1040 147 915.5 63Q791 -21 605 -21Q371 -21 236.5 129.5Q102 280 102 541Q102 802 238 956Q374 1110 604 1110Q831 1110 960.5 964Q1090 818 1090 561L1090 486L321 486L321 474Q326 330 404 246Q482 162 611 162Q808 162 870 294ZM604 1283Q545 1283 504.5 1324.5Q464 1366 464 1425Q464 1484 504.5 1525.5Q545 1567 604 1567Q662 1567 703 1525.5Q744 1484 744 1425Q744 1366 703 1324.5Q662 1283 604 1283Z" />
<glyph glyph-name="Eogonek" unicode="&#x0118;" horiz-adv-x="1239" d="M181 0L181 1443L1097 1443L1097 1239L405 1239L405 831L1060 831L1060 637L405 637L405 204L1097 204L1097 9L1054 -5Q976 -31 921.5 -79.5Q867 -128 867 -190Q867 -235 899.5 -261Q932 -287 981 -287Q1029 -287 1048 -280L1048 -428Q999 -447 932 -447Q818 -447 747.5 -386.5Q677 -326 677 -234Q677 -167 716 -109.5Q755 -52 819 -17L819 0Z" />
<glyph glyph-name="eogonek" unicode="&#x0119;" horiz-adv-x="1192" d="M808 -447Q694 -447 624 -386.5Q554 -326 554 -234Q554 -174 588 -119.5Q622 -65 685 -26L685 -9Q659 -21 605 -21Q371 -21 236.5 129.5Q102 280 102 541Q102 802 238 956Q374 1110 604 1110Q831 1110 960.5 964Q1090 818 1090 561L1090 486L321 486L321 474Q326 330 404 246Q482 162 611 162Q808 162 870 294L1077 294Q1065 237 1018.5 165.5Q972 94 908 42Q823 -27 783 -80.5Q743 -134 743 -188Q743 -235 775.5 -261Q808 -287 857 -287Q905 -287 924 -280L924 -428Q875 -447 808 -447ZM794.5 850.5Q794.5 850.5 758.25 888.75Q722 927 603 927Q484 927 407 850Q330 773 321 645L871 645Q867 774 794.5 850.5Z" />
<glyph glyph-name="Ecaron" unicode="&#x011a;" horiz-adv-x="1239" d="M1097 204L1097 0L181 0L181 1443L1097 1443L1097 1239L405 1239L405 831L1060 831L1060 637L405 637L405 204ZM541 1582L248 1888L468 1888L630 1713L648 1713L810 1888L1030 1888L737 1582Z" />
<glyph glyph-name="ecaron" unicode="&#x011b;" horiz-adv-x="1192" d="M794.5 850.5Q794.5 850.5 758.25 888.75Q722 927 603 927Q484 927 407 850Q330 773 321 645L871 645Q867 774 794.5 850.5ZM870 294L1077 294Q1040 147 915.5 63Q791 -21 605 -21Q371 -21 236.5 129.5Q102 280 102 541Q102 802 238 956Q374 1110 604 1110Q831 1110 960.5 964Q1090 818 1090 561L1090 486L321 486L321 474Q326 330 404 246Q482 162 611 162Q808 162 870 294ZM721 1238L487 1238L207 1584L429 1584L596 1365L612 1365L779 1584L1000 1584Z" />
<glyph glyph-name="Gcircumflex" unicode="&#x011c;" horiz-adv-x="1539" d="M1412 571Q1412 294 1242.5 129.5Q1073 -35 789 -35Q482 -35 302 169Q122 373 122 722Q122 1067 303 1272.5Q484 1478 787 1478Q1033 1478 1199 1348.5Q1365 1219 1402 1000L1177 1000Q1135 1131 1035 1200Q935 1269 787 1269Q587 1269 469 1121.5Q351 974 351 724Q351 469 469.5 321.5Q588 174 792 174Q969 174 1080 273Q1191 372 1192 532L1192 563L820 563L820 751L1412 751ZM686 1896L888 1896L1183 1582L958 1582L795 1763L779 1763L616 1582L391 1582Z" />
<glyph glyph-name="gcircumflex" unicode="&#x011d;" horiz-adv-x="1274" d="M399 297.5Q399 297.5 437 249.75Q475 202 612 202Q749 202 828 298Q907 394 907 558Q907 721 828 817.5Q749 914 612 914Q475 914 399 818.5Q323 723 323 558Q323 393 399 297.5ZM615 -416Q413 -416 287 -332.5Q161 -249 144 -109L364 -109Q378 -169 444.5 -204Q511 -239 618 -239Q752 -239 827.5 -178.5Q903 -118 903 -10L903 199L887 199Q838 111 751 63.5Q664 16 551 16Q344 16 222.5 163.5Q101 311 101 557Q101 807 223 957Q345 1107 553 1107Q665 1107 757 1055.5Q849 1004 895 915L912 915L912 1089L1118 1089L1118 -9Q1118 -196 982 -306Q846 -416 615 -416ZM729 1584L1008 1238L787 1238L620 1457L604 1457L437 1238L215 1238L495 1584Z" />
<glyph glyph-name="Gbreve" unicode="&#x011e;" horiz-adv-x="1539" d="M1412 571Q1412 294 1242.5 129.5Q1073 -35 789 -35Q482 -35 302 169Q122 373 122 722Q122 1067 303 1272.5Q484 1478 787 1478Q1033 1478 1199 1348.5Q1365 1219 1402 1000L1177 1000Q1135 1131 1035 1200Q935 1269 787 1269Q587 1269 469 1121.5Q351 974 351 724Q351 469 469.5 321.5Q588 174 792 174Q969 174 1080 273Q1191 372 1192 532L1192 563L820 563L820 751L1412 751ZM410 1891L583 1891Q584 1813 639 1767.5Q694 1722 787 1722Q880 1722 935 1767.5Q990 1813 991 1891L1164 1891Q1164 1749 1062.5 1663Q961 1577 787 1577Q613 1577 511.5 1663Q410 1749 410 1891Z" />
<glyph glyph-name="gbreve" unicode="&#x011f;" horiz-adv-x="1274" d="M399 297.5Q399 297.5 437 249.75Q475 202 612 202Q749 202 828 298Q907 394 907 558Q907 721 828 817.5Q749 914 612 914Q475 914 399 818.5Q323 723 323 558Q323 393 399 297.5ZM615 -416Q413 -416 287 -332.5Q161 -249 144 -109L364 -109Q378 -169 444.5 -204Q511 -239 618 -239Q752 -239 827.5 -178.5Q903 -118 903 -10L903 199L887 199Q838 111 751 63.5Q664 16 551 16Q344 16 222.5 163.5Q101 311 101 557Q101 807 223 957Q345 1107 553 1107Q665 1107 757 1055.5Q849 1004 895 915L912 915L912 1089L1118 1089L1118 -9Q1118 -196 982 -306Q846 -416 615 -416ZM233 1576L406 1576Q407 1491 461 1438.5Q515 1386 610 1386Q705 1386 759 1438.5Q813 1491 814 1576L987 1576Q987 1426 885 1332Q783 1238 610 1238Q437 1238 335 1332Q233 1426 233 1576Z" />
<glyph glyph-name="Gdotaccent" unicode="&#x0120;" horiz-adv-x="1539" d="M1412 571Q1412 294 1242.5 129.5Q1073 -35 789 -35Q482 -35 302 169Q122 373 122 722Q122 1067 303 1272.5Q484 1478 787 1478Q1033 1478 1199 1348.5Q1365 1219 1402 1000L1177 1000Q1135 1131 1035 1200Q935 1269 787 1269Q587 1269 469 1121.5Q351 974 351 724Q351 469 469.5 321.5Q588 174 792 174Q969 174 1080 273Q1191 372 1192 532L1192 563L820 563L820 751L1412 751ZM882.5 1616.5Q882.5 1616.5 863.25 1596.75Q844 1577 787 1577Q730 1577 691.5 1616.5Q653 1656 653 1714Q653 1772 691.5 1811.5Q730 1851 787 1851Q844 1851 882.5 1811.5Q921 1772 921 1714Q921 1656 882.5 1616.5Z" />
<glyph glyph-name="gdotaccent" unicode="&#x0121;" horiz-adv-x="1274" d="M399 297.5Q399 297.5 437 249.75Q475 202 612 202Q749 202 828 298Q907 394 907 558Q907 721 828 817.5Q749 914 612 914Q475 914 399 818.5Q323 723 323 558Q323 393 399 297.5ZM615 -416Q413 -416 287 -332.5Q161 -249 144 -109L364 -109Q378 -169 444.5 -204Q511 -239 618 -239Q752 -239 827.5 -178.5Q903 -118 903 -10L903 199L887 199Q838 111 751 63.5Q664 16 551 16Q344 16 222.5 163.5Q101 311 101 557Q101 807 223 957Q345 1107 553 1107Q665 1107 757 1055.5Q849 1004 895 915L912 915L912 1089L1118 1089L1118 -9Q1118 -196 982 -306Q846 -416 615 -416ZM612 1283Q553 1283 512.5 1324.5Q472 1366 472 1425Q472 1484 512.5 1525.5Q553 1567 612 1567Q670 1567 711 1525.5Q752 1484 752 1425Q752 1366 711 1324.5Q670 1283 612 1283Z" />
<glyph glyph-name="Gcommaaccent" unicode="&#x0122;" horiz-adv-x="1539" d="M1412 571Q1412 294 1242.5 129.5Q1073 -35 789 -35Q482 -35 302 169Q122 373 122 722Q122 1067 303 1272.5Q484 1478 787 1478Q1033 1478 1199 1348.5Q1365 1219 1402 1000L1177 1000Q1135 1131 1035 1200Q935 1269 787 1269Q587 1269 469 1121.5Q351 974 351 724Q351 469 469.5 321.5Q588 174 792 174Q969 174 1080 273Q1191 372 1192 532L1192 563L820 563L820 751L1412 751ZM793 -514L593 -514L706 -146L928 -146Z" />
<glyph glyph-name="gcommaaccent" unicode="&#x0123;" horiz-adv-x="1274" d="M399 297.5Q399 297.5 437 249.75Q475 202 612 202Q749 202 828 298Q907 394 907 558Q907 721 828 817.5Q749 914 612 914Q475 914 399 818.5Q323 723 323 558Q323 393 399 297.5ZM615 -416Q413 -416 287 -332.5Q161 -249 144 -109L364 -109Q378 -169 444.5 -204Q511 -239 618 -239Q752 -239 827.5 -178.5Q903 -118 903 -10L903 199L887 199Q838 111 751 63.5Q664 16 551 16Q344 16 222.5 163.5Q101 311 101 557Q101 807 223 957Q345 1107 553 1107Q665 1107 757 1055.5Q849 1004 895 915L912 915L912 1089L1118 1089L1118 -9Q1118 -196 982 -306Q846 -416 615 -416ZM627 1657L827 1657L714 1289L492 1289Z" />
<glyph glyph-name="Hcircumflex" unicode="&#x0124;" horiz-adv-x="1550" d="M1369 0L1146 0L1146 633L405 633L405 0L181 0L181 1443L405 1443L405 837L1146 837L1146 1443L1369 1443ZM674 1896L876 1896L1171 1582L946 1582L783 1763L767 1763L604 1582L379 1582Z" />
<glyph glyph-name="hcircumflex" unicode="&#x0125;" horiz-adv-x="1249" d="M166 0L166 1514L379 1514L379 914L396 914Q436 1007 521.5 1058Q607 1109 728 1109Q903 1109 1003 1002.5Q1103 896 1103 703L1103 0L888 0L888 650Q888 780 829 846Q770 912 655 912Q525 912 453 837Q381 762 381 636L381 0ZM172 1967L374 1967L669 1653L444 1653L281 1834L265 1834L102 1653L-123 1653Z" />
<glyph glyph-name="Hbar" unicode="&#x0126;" horiz-adv-x="1550" d="M1146 837L1146 1066L405 1066L405 837ZM1503 1237L1503 1066L1369 1066L1369 0L1146 0L1146 633L405 633L405 0L181 0L181 1066L48 1066L48 1237L181 1237L181 1443L405 1443L405 1237L1146 1237L1146 1443L1369 1443L1369 1237Z" />
<glyph glyph-name="hbar" unicode="&#x0127;" horiz-adv-x="1249" d="M379 914L396 914Q436 1007 521.5 1058Q607 1109 728 1109Q903 1109 1003 1002.5Q1103 896 1103 703L1103 0L888 0L888 650Q888 780 829 846Q770 912 655 912Q525 912 453 837Q381 762 381 636L381 0L166 0L166 1267L22 1267L22 1404L166 1404L166 1514L379 1514L379 1404L630 1404L630 1267L379 1267Z" />
<glyph glyph-name="Itilde" unicode="&#x0128;" horiz-adv-x="585" d="M405 0L181 0L181 1443L405 1443ZM439 1577Q395 1577 357.5 1592.5Q320 1608 294 1630Q268 1652 246 1674.5Q224 1697 201 1712.5Q178 1728 157 1728Q108 1728 85.5 1692Q63 1656 63 1578L-95 1578Q-95 1718 -30 1800Q35 1882 147 1882Q191 1882 228.5 1866.5Q266 1851 292 1828.5Q318 1806 340 1784Q362 1762 385 1746.5Q408 1731 429 1731Q478 1731 500.5 1766Q523 1801 523 1879L681 1879Q681 1739 616 1658Q551 1577 439 1577Z" />
<glyph glyph-name="itilde" unicode="&#x0129;" horiz-adv-x="534" d="M160 0L160 1089L374 1089L374 0ZM415 1241Q371 1241 333.5 1256.5Q296 1272 270 1294Q244 1316 222 1338.5Q200 1361 177 1376.5Q154 1392 133 1392Q84 1392 61.5 1356Q39 1320 39 1242L-119 1242Q-119 1382 -54 1464Q11 1546 123 1546Q167 1546 204.5 1530.5Q242 1515 268 1492.5Q294 1470 316 1448Q338 1426 361 1410.5Q384 1395 405 1395Q454 1395 476.5 1430Q499 1465 499 1543L657 1543Q657 1403 592 1322Q527 1241 415 1241Z" />
<glyph glyph-name="Imacron" unicode="&#x012a;" horiz-adv-x="585" d="M405 0L181 0L181 1443L405 1443ZM643 1781L643 1625L-57 1625L-57 1781Z" />
<glyph glyph-name="imacron" unicode="&#x012b;" horiz-adv-x="534" d="M160 0L160 1089L374 1089L374 0ZM563 1454L563 1299L-29 1299L-29 1454Z" />
<glyph glyph-name="Ibreve" unicode="&#x012c;" horiz-adv-x="585" d="M405 0L181 0L181 1443L405 1443ZM-84 1891L89 1891Q90 1813 145 1767.5Q200 1722 293 1722Q386 1722 441 1767.5Q496 1813 497 1891L670 1891Q670 1749 568.5 1663Q467 1577 293 1577Q119 1577 17.5 1663Q-84 1749 -84 1891Z" />
<glyph glyph-name="ibreve" unicode="&#x012d;" horiz-adv-x="534" d="M160 0L160 1089L374 1089L374 0ZM-112 1576L61 1576Q62 1491 116 1438.5Q170 1386 265 1386Q360 1386 414 1438.5Q468 1491 469 1576L642 1576Q642 1426 540 1332Q438 1238 265 1238Q92 1238 -10 1332Q-112 1426 -112 1576Z" />
<glyph glyph-name="Iogonek" unicode="&#x012e;" horiz-adv-x="585" d="M181 -14L181 1443L405 1443L405 0L393 -4Q238 -82 238 -188Q238 -232 270 -259.5Q302 -287 354 -287Q399 -287 421 -280L421 -428Q372 -447 303 -447Q191 -447 120 -387.5Q49 -328 49 -234Q49 -167 83.5 -110Q118 -53 181 -14Z" />
<glyph glyph-name="iogonek" unicode="&#x012f;" horiz-adv-x="534" d="M366.5 1317.5Q366.5 1317.5 346.75 1298.75Q327 1280 267 1280Q207 1280 167.5 1317.5Q128 1355 128 1411Q128 1467 167.5 1505Q207 1543 267 1543Q327 1543 366.5 1505Q406 1467 406 1411Q406 1355 366.5 1317.5ZM160 -7L160 1089L374 1089L374 0L359 -4Q208 -79 208 -188Q208 -234 241.5 -260.5Q275 -287 324 -287Q361 -287 391 -281L391 -428Q342 -447 275 -447Q159 -447 88.5 -386Q18 -325 18 -232Q18 -165 54.5 -106.5Q91 -48 160 -7Z" />
<glyph glyph-name="Idotaccent" unicode="&#x0130;" horiz-adv-x="585" d="M405 0L181 0L181 1443L405 1443ZM388.5 1616.5Q388.5 1616.5 369.25 1596.75Q350 1577 293 1577Q236 1577 197.5 1616.5Q159 1656 159 1714Q159 1772 197.5 1811.5Q236 1851 293 1851Q350 1851 388.5 1811.5Q427 1772 427 1714Q427 1656 388.5 1616.5Z" />
<glyph glyph-name="dotlessi" unicode="&#x0131;" horiz-adv-x="534" d="M160 0L160 1089L374 1089L374 0Z" />
<glyph glyph-name="IJ" unicode="&#x0132;" horiz-adv-x="1734" d="M405 0L181 0L181 1443L405 1443ZM667 375L887 375Q889 286 949 231Q1009 176 1105 176Q1213 176 1271 239.5Q1329 303 1329 423L1329 1443L1553 1443L1553 422Q1553 205 1434.5 85Q1316 -35 1107 -35Q910 -35 788.5 77.5Q667 190 667 375Z" />
<glyph glyph-name="ij" unicode="&#x0133;" horiz-adv-x="1090" d="M160 0L160 1089L374 1089L374 0ZM366.5 1317.5Q366.5 1317.5 346.75 1298.75Q327 1280 267 1280Q207 1280 167.5 1317.5Q128 1355 128 1411Q128 1467 167.5 1505Q207 1543 267 1543Q327 1543 366.5 1505Q406 1467 406 1411Q406 1355 366.5 1317.5ZM919 1089L919 -45Q919 -212 832.5 -292Q746 -372 568 -372Q525 -372 520 -371L520 -191L550 -191Q635 -191 670 -157Q705 -123 705 -43L705 1089ZM911.5 1317.5Q911.5 1317.5 891.75 1298.75Q872 1280 812 1280Q752 1280 712.5 1317.5Q673 1355 673 1411Q673 1467 712.5 1505Q752 1543 812 1543Q872 1543 911.5 1505Q951 1467 951 1411Q951 1355 911.5 1317.5Z" />
<glyph glyph-name="Jcircumflex" unicode="&#x0134;" horiz-adv-x="1148" d="M82 375L302 375Q304 286 364 231Q424 176 520 176Q628 176 686 239.5Q744 303 744 423L744 1443L968 1443L968 422Q968 205 849.5 85Q731 -35 522 -35Q325 -35 203.5 77.5Q82 190 82 375ZM755 1896L957 1896L1252 1582L1027 1582L864 1763L848 1763L685 1582L460 1582Z" />
<glyph glyph-name="jcircumflex" unicode="&#x0135;" horiz-adv-x="534" d="M369 1089L369 -45Q369 -212 282.5 -292Q196 -372 18 -372Q-25 -372 -30 -371L-30 -191L0 -191Q85 -191 120 -157Q155 -123 155 -43L155 1089ZM386 1584L665 1238L444 1238L277 1457L261 1457L94 1238L-128 1238L152 1584Z" />
<glyph glyph-name="Kcommaaccent" unicode="&#x0136;" horiz-adv-x="1386" d="M405 0L181 0L181 1443L405 1443L405 767L421 767L1018 1443L1283 1443L725 816L1331 0L1051 0L567 655L405 474ZM670 -514L470 -514L583 -146L805 -146Z" />
<glyph glyph-name="kcommaaccent" unicode="&#x0137;" horiz-adv-x="1155" d="M398 635L830 1089L1084 1089L636 622L1114 0L850 0L476 480L381 390L381 0L166 0L166 1514L381 1514L381 635ZM620 -514L420 -514L533 -146L755 -146Z" />
<glyph glyph-name="Lacute" unicode="&#x0139;" horiz-adv-x="1183" d="M1081 206L1081 0L181 0L181 1443L405 1443L405 206ZM405 1582L175 1582L472 1888L730 1888Z" />
<glyph glyph-name="lacute" unicode="&#x013a;" horiz-adv-x="547" d="M166 0L166 1514L381 1514L381 0ZM386 1653L156 1653L453 1959L711 1959Z" />
<glyph glyph-name="Lcommaaccent" unicode="&#x013b;" horiz-adv-x="1183" d="M1081 206L1081 0L181 0L181 1443L405 1443L405 206ZM629 -514L429 -514L542 -146L764 -146Z" />
<glyph glyph-name="lcommaaccent" unicode="&#x013c;" horiz-adv-x="547" d="M166 0L166 1514L381 1514L381 0ZM274 -514L74 -514L187 -146L409 -146Z" />
<glyph glyph-name="Lcaron" unicode="&#x013d;" horiz-adv-x="1183" d="M620 1443L817 1443L767 948L620 948ZM1081 206L1081 0L181 0L181 1443L405 1443L405 206Z" />
<glyph glyph-name="lcaron" unicode="&#x013e;" horiz-adv-x="702" d="M527 1514L726 1514L676 1018L527 1018ZM166 0L166 1514L381 1514L381 0Z" />
<glyph glyph-name="Lslash" unicode="&#x0141;" horiz-adv-x="1183" d="M405 206L1081 206L1081 0L181 0L181 695L20 617L20 787L181 865L181 1443L405 1443L405 974L677 1106L677 935L405 803Z" />
<glyph glyph-name="lslash" unicode="&#x0142;" horiz-adv-x="547" d="M508 1038L508 868L381 803L381 0L166 0L166 692L40 627L40 797L166 862L166 1514L381 1514L381 973Z" />
<glyph glyph-name="Nacute" unicode="&#x0143;" horiz-adv-x="1539" d="M399 0L181 0L181 1443L383 1443L1124 418L1140 418L1140 1443L1358 1443L1358 0L1156 0L415 1025L399 1025ZM880 1582L650 1582L947 1888L1205 1888Z" />
<glyph glyph-name="nacute" unicode="&#x0144;" horiz-adv-x="1227" d="M156 0L156 1089L363 1089L363 916L379 916Q464 1110 704 1110Q886 1110 983.5 1005Q1081 900 1081 705L1081 0L866 0L866 651Q866 913 631 913Q512 913 441.5 838.5Q371 764 371 637L371 0ZM715 1271L493 1271L744 1615L996 1615Z" />
<glyph glyph-name="Ncommaaccent" unicode="&#x0145;" horiz-adv-x="1539" d="M399 0L181 0L181 1443L383 1443L1124 418L1140 418L1140 1443L1358 1443L1358 0L1156 0L415 1025L399 1025ZM768 -514L568 -514L681 -146L903 -146Z" />
<glyph glyph-name="ncommaaccent" unicode="&#x0146;" horiz-adv-x="1227" d="M156 0L156 1089L363 1089L363 916L379 916Q464 1110 704 1110Q886 1110 983.5 1005Q1081 900 1081 705L1081 0L866 0L866 651Q866 913 631 913Q512 913 441.5 838.5Q371 764 371 637L371 0ZM622 -514L422 -514L535 -146L757 -146Z" />
<glyph glyph-name="Ncaron" unicode="&#x0147;" horiz-adv-x="1539" d="M399 0L181 0L181 1443L383 1443L1124 418L1140 418L1140 1443L1358 1443L1358 0L1156 0L415 1025L399 1025ZM670 1582L377 1888L597 1888L759 1713L777 1713L939 1888L1159 1888L866 1582Z" />
<glyph glyph-name="ncaron" unicode="&#x0148;" horiz-adv-x="1227" d="M156 0L156 1089L363 1089L363 916L379 916Q464 1110 704 1110Q886 1110 983.5 1005Q1081 900 1081 705L1081 0L866 0L866 651Q866 913 631 913Q512 913 441.5 838.5Q371 764 371 637L371 0ZM739 1238L505 1238L225 1584L447 1584L614 1365L630 1365L797 1584L1018 1584Z" />
<glyph glyph-name="Omacron" unicode="&#x014c;" horiz-adv-x="1590" d="M796 1478Q1108 1478 1288 1274.5Q1468 1071 1468 722Q1468 373 1288 169Q1108 -35 796 -35Q483 -35 302.5 168.5Q122 372 122 722Q122 1071 303.5 1274.5Q485 1478 796 1478ZM796 1269Q592 1269 471.5 1121Q351 973 351 722Q351 471 470 322.5Q589 174 796 174Q1001 174 1120 322.5Q1239 471 1239 722Q1239 974 1120 1121.5Q1001 1269 796 1269ZM1146 1781L1146 1625L446 1625L446 1781Z" />
<glyph glyph-name="omacron" unicode="&#x014d;" horiz-adv-x="1231" d="M616 -21Q376 -21 239 130Q102 281 102 545Q102 808 239.5 959Q377 1110 616 1110Q854 1110 991.5 959Q1129 808 1129 545Q1129 281 992 130Q855 -21 616 -21ZM616 170Q755 170 831.5 268.5Q908 367 908 545Q908 722 831.5 820.5Q755 919 616 919Q476 919 400 821Q324 723 324 545Q324 366 400 268Q476 170 616 170ZM964 1454L964 1299L268 1299L268 1454Z" />
<glyph glyph-name="Obreve" unicode="&#x014e;" horiz-adv-x="1590" d="M796 1478Q1108 1478 1288 1274.5Q1468 1071 1468 722Q1468 373 1288 169Q1108 -35 796 -35Q483 -35 302.5 168.5Q122 372 122 722Q122 1071 303.5 1274.5Q485 1478 796 1478ZM796 1269Q592 1269 471.5 1121Q351 973 351 722Q351 471 470 322.5Q589 174 796 174Q1001 174 1120 322.5Q1239 471 1239 722Q1239 974 1120 1121.5Q1001 1269 796 1269ZM419 1891L592 1891Q593 1813 648 1767.5Q703 1722 796 1722Q889 1722 944 1767.5Q999 1813 1000 1891L1173 1891Q1173 1749 1071.5 1663Q970 1577 796 1577Q622 1577 520.5 1663Q419 1749 419 1891Z" />
<glyph glyph-name="obreve" unicode="&#x014f;" horiz-adv-x="1231" d="M616 -21Q376 -21 239 130Q102 281 102 545Q102 808 239.5 959Q377 1110 616 1110Q854 1110 991.5 959Q1129 808 1129 545Q1129 281 992 130Q855 -21 616 -21ZM616 170Q755 170 831.5 268.5Q908 367 908 545Q908 722 831.5 820.5Q755 919 616 919Q476 919 400 821Q324 723 324 545Q324 366 400 268Q476 170 616 170ZM237 1576L410 1576Q411 1491 465 1438.5Q519 1386 614 1386Q709 1386 763 1438.5Q817 1491 818 1576L991 1576Q991 1426 889 1332Q787 1238 614 1238Q441 1238 339 1332Q237 1426 237 1576Z" />
<glyph glyph-name="Ohungarumlaut" unicode="&#x0150;" horiz-adv-x="1590" d="M796 1478Q1108 1478 1288 1274.5Q1468 1071 1468 722Q1468 373 1288 169Q1108 -35 796 -35Q483 -35 302.5 168.5Q122 372 122 722Q122 1071 303.5 1274.5Q485 1478 796 1478ZM796 1269Q592 1269 471.5 1121Q351 973 351 722Q351 471 470 322.5Q589 174 796 174Q1001 174 1120 322.5Q1239 471 1239 722Q1239 974 1120 1121.5Q1001 1269 796 1269ZM1071 1582L853 1582L1142 1888L1384 1888ZM649 1582L431 1582L719 1888L961 1888Z" />
<glyph glyph-name="ohungarumlaut" unicode="&#x0151;" horiz-adv-x="1231" d="M616 -21Q376 -21 239 130Q102 281 102 545Q102 808 239.5 959Q377 1110 616 1110Q854 1110 991.5 959Q1129 808 1129 545Q1129 281 992 130Q855 -21 616 -21ZM616 170Q755 170 831.5 268.5Q908 367 908 545Q908 722 831.5 820.5Q755 919 616 919Q476 919 400 821Q324 723 324 545Q324 366 400 268Q476 170 616 170ZM685 1271L923 1615L1151 1615L884 1271ZM272 1271L510 1615L738 1615L471 1271Z" />
<glyph glyph-name="OE" unicode="&#x0152;" horiz-adv-x="2306" d="M808 1269Q599 1269 477 1122Q355 975 355 722Q355 468 476.5 321Q598 174 808 174Q1010 174 1127 321Q1244 468 1244 722Q1244 976 1127 1122.5Q1010 1269 808 1269ZM1276 0L1276 241L1260 241Q1198 117 1065 41Q932 -35 777 -35Q474 -35 299.5 167.5Q125 370 125 722Q125 1073 300 1275.5Q475 1478 777 1478Q929 1478 1064 1403.5Q1199 1329 1260 1211L1276 1211L1276 1443L2178 1443L2178 1239L1471 1239L1471 831L2141 831L2141 637L1471 637L1471 204L2178 204L2178 0Z" />
<glyph glyph-name="oe" unicode="&#x0153;" horiz-adv-x="1998" d="M1417 -21Q1284 -21 1178 36Q1072 93 1026 189L1009 189Q962 93 855 36Q748 -21 613 -21Q377 -21 240.5 130.5Q104 282 104 544Q104 807 240 958.5Q376 1110 613 1110Q746 1110 850 1054Q954 998 1010 896L1027 896Q1082 997 1184.5 1053.5Q1287 1110 1416 1110Q1637 1110 1766.5 962.5Q1896 815 1896 562L1896 486L1128 486L1128 475Q1133 331 1211 247Q1289 163 1417 163Q1615 163 1676 294L1883 294Q1846 147 1721.5 63Q1597 -21 1417 -21ZM1677 646Q1674 774 1601 851Q1528 928 1410 928Q1291 928 1214 851Q1137 774 1128 646ZM401.5 820.5Q401.5 820.5 363.25 771.25Q325 722 325 544Q325 366 401.5 268Q478 170 617 170Q756 170 832.5 268Q909 366 909 544Q909 723 832.5 821Q756 919 617 919Q478 919 401.5 820.5Z" />
</font>
</defs>
</svg>
