<?xml version="1.0" standalone="no"?><!DOCTYPE svg PUBLIC "-//W3C//DTD SVG 1.1//EN" "http://www.w3.org/Graphics/SVG/1.1/DTD/svg11.dtd" ><svg xmlns="http://www.w3.org/2000/svg"><metadata></metadata><defs>
<font id="SFProText-HeavyItalic" >
<font-face font-family="SF Pro Text" font-stretch="normal" units-per-em="2048" weight="800" panose-1="0,0,9,0,0,0,0,0,0,0" ascent="1950" descent="-494" x-height="1113" underline-thickness="227" underline-position="-490" unicode-range="U+00000032-00064258" bbox="-633,-569,3047,2255" />
<missing-glyph horiz-adv-x="2048" d="M-88 -494L-53 -329L1795 -329L1760 -494ZM9 -38L44 127L1892 127L1857 -38ZM106 418L141 583L1989 583L1954 418ZM203 873L238 1038L2086 1038L2051 873ZM300 1329L335 1494L2183 1494L2148 1329ZM397 1785L432 1950L2280 1950L2245 1785Z" />
<glyph glyph-name="space" unicode="&#x20;" horiz-adv-x="502" d="" />
<glyph glyph-name="exclam" unicode="&#x21;" horiz-adv-x="777" d="M427 1443L810 1443L572 473L252 473ZM336 -35Q243 -35 187.5 16Q132 67 132 140Q132 224 187 277Q242 330 336 330Q429 330 484.5 279Q540 228 540 155Q540 71 485 18Q430 -35 336 -35Z" />
<glyph glyph-name="quotedbl" unicode="&#x22;" horiz-adv-x="1079" d="M522 802L225 802L361 1443L659 1443ZM1030 802L732 802L869 1443L1166 1443Z" />
<glyph glyph-name="numbersign" unicode="&#x23;" horiz-adv-x="1394" d="M639 0L759 368L536 368L416 0L154 0L273 368L53 368L132 621L354 621L425 842L204 842L283 1093L506 1093L621 1444L883 1444L769 1093L992 1093L1106 1444L1370 1444L1256 1093L1485 1093L1407 842L1175 842L1103 621L1334 621L1255 368L1022 368L903 0ZM587 594L851 594L942 868L676 868Z" />
<glyph glyph-name="dollar" unicode="&#x24;" horiz-adv-x="1461" d="M835 549L773 261Q863 266 916 308Q969 350 969 416Q969 461 939.5 491Q910 521 835 549ZM765 900L826 1183Q744 1179 694.5 1138Q645 1097 645 1035Q645 950 765 900ZM900 856L965 837Q1147 783 1233.5 689Q1320 595 1320 457Q1320 244 1160.5 120.5Q1001 -3 733 -3L717 -3L689 -136L545 -136L576 10Q384 43 273 153Q162 263 158 427L496 427Q500 374 536 335Q572 296 633 277L700 592L634 612Q470 662 380.5 765Q291 868 291 1002Q291 1201 445 1323.5Q599 1446 849 1446Q871 1446 882 1445L911 1584L1055 1584L1022 1427Q1193 1388 1294.5 1278Q1396 1168 1399 1016L1071 1016Q1063 1113 965 1160Z" />
<glyph glyph-name="percent" unicode="&#x25;" horiz-adv-x="1909" d="M240 1064Q240 1240 351 1359.5Q462 1479 627 1479Q777 1479 865.5 1389.5Q954 1300 954 1148Q954 971 842 851Q730 731 564 731Q415 731 327.5 821Q240 911 240 1064ZM574 949Q626 949 663 1007.5Q700 1066 700 1148Q700 1203 679.5 1233Q659 1263 621 1263Q569 1263 532 1205.5Q495 1148 495 1067Q495 1011 516 980Q537 949 574 949ZM580 0L200 0L941 765L1481 1443L1862 1443L1106 672ZM1101 295Q1101 472 1212 591.5Q1323 711 1488 711Q1638 711 1726.5 621.5Q1815 532 1815 380Q1815 203 1702.5 83Q1590 -37 1425 -37Q1276 -37 1188.5 52.5Q1101 142 1101 295ZM1435 181Q1487 181 1523.5 239.5Q1560 298 1560 380Q1560 435 1539.5 465Q1519 495 1482 495Q1430 495 1393 437Q1356 379 1356 298Q1356 242 1376.5 211.5Q1397 181 1435 181Z" />
<glyph glyph-name="ampersand" unicode="&#x26;" horiz-adv-x="1560" d="M693 1078Q693 1009 777 902Q979 978 979 1117Q979 1171 943 1203.5Q907 1236 850 1236Q785 1236 739 1190Q693 1144 693 1078ZM646 215Q764 215 864 270L635 618Q628 616 611.5 610Q595 604 593 603Q505 569 458.5 515.5Q412 462 412 394Q412 315 477 265Q542 215 646 215ZM1042 0L996 68Q816 -28 614 -28Q387 -28 238.5 83Q90 194 90 364Q90 644 438 781L515 812Q399 978 399 1109Q399 1259 526.5 1360Q654 1461 844 1461Q1026 1461 1148 1371.5Q1270 1282 1270 1148Q1270 879 900 730L1079 464Q1171 597 1180 738L1182 762L1467 762L1464 733Q1438 458 1230 242L1393 0Z" />
<glyph glyph-name="quotesingle" unicode="&#x27;" horiz-adv-x="571" d="M522 802L225 802L361 1443L659 1443Z" />
<glyph glyph-name="parenleft" unicode="&#x28;" horiz-adv-x="929" d="M706 -312L386 -312Q329 -190 295 2.5Q261 195 261 385Q261 708 387.5 1009Q514 1310 730 1530L1098 1530Q995 1424 910.5 1297.5Q826 1171 759 1019.5Q692 868 655.5 689Q619 510 620 321Q623 -76 706 -312Z" />
<glyph glyph-name="parenright" unicode="&#x29;" horiz-adv-x="929" d="M316 1530L635 1530Q692 1409 726 1216.5Q760 1024 760 834Q760 511 634 210Q508 -91 292 -312L-76 -312Q63 -168 167 7Q271 182 337 415.5Q403 649 401 898Q400 1288 316 1530Z" />
<glyph glyph-name="asterisk" unicode="&#x2a;" horiz-adv-x="1032" d="M898 741L706 957L707 659L473 682L581 969L319 799L238 1014L541 1087L276 1213L423 1403L617 1183L621 1486L855 1463L743 1172L1008 1346L1089 1131L780 1059L1045 931Z" />
<glyph glyph-name="plus" unicode="&#x2b;" horiz-adv-x="1461" d="M893 436L809 36L490 36L575 436L184 436L248 737L639 737L723 1134L1042 1134L957 737L1360 737L1296 436Z" />
<glyph glyph-name="comma" unicode="&#x2c;" horiz-adv-x="767" d="M223 -400L-21 -400L213 246L548 246Z" />
<glyph glyph-name="hyphen" unicode="&#x2d;" horiz-adv-x="1006" d="M181 425L249 741L907 741L839 425Z" />
<glyph glyph-name="period" unicode="&#x2e;" horiz-adv-x="767" d="M328 -33Q237 -33 181.5 20.5Q126 74 126 150Q126 236 181 292Q236 348 328 348Q419 348 474.5 294.5Q530 241 530 165Q530 79 475 23Q420 -33 328 -33Z" />
<glyph glyph-name="slash" unicode="&#x2f;" horiz-adv-x="857" d="M198 -312L-146 -312L752 1530L1096 1530Z" />
<glyph glyph-name="zero" unicode="&#x30;" horiz-adv-x="1460" d="M711 -39Q461 -39 316.5 115.5Q172 270 172 538Q172 741 226.5 916.5Q281 1092 376 1216Q471 1340 604.5 1411Q738 1482 891 1482Q1142 1482 1287.5 1328Q1433 1174 1433 907Q1433 704 1378 528Q1323 352 1227.5 227.5Q1132 103 998 32Q864 -39 711 -39ZM541 514Q541 387 587.5 316Q634 245 717 245Q806 245 886.5 340Q967 435 1015.5 594.5Q1064 754 1064 931Q1064 1057 1017 1127Q970 1197 886 1197Q797 1197 717 1102.5Q637 1008 589 849.5Q541 691 541 514Z" />
<glyph glyph-name="one" unicode="&#x31;" horiz-adv-x="1101" d="M406 0L640 1100L621 1100L223 866L293 1193L714 1443L1080 1443L773 0Z" />
<glyph glyph-name="two" unicode="&#x32;" horiz-adv-x="1360" d="M249 1004Q265 1212 432 1347Q599 1482 840 1482Q1063 1482 1207.5 1367.5Q1352 1253 1352 1077Q1352 1004 1330.5 944.5Q1309 885 1250.5 816.5Q1192 748 1111.5 679.5Q1031 611 891 504L632 302L628 283L1220 283L1160 0L70 0L126 257L652 667Q862 830 927.5 901.5Q993 973 993 1047Q993 1116 941 1159.5Q889 1203 807 1203Q776 1203 745 1194Q714 1185 681 1164Q648 1143 621.5 1102Q595 1061 583 1004Z" />
<glyph glyph-name="three" unicode="&#x33;" horiz-adv-x="1409" d="M562 615L615 869L798 869Q908 869 970.5 917.5Q1033 966 1033 1050Q1033 1121 978 1164Q923 1207 833 1207Q755 1207 697 1166.5Q639 1126 616 1056L283 1056Q324 1252 480.5 1367Q637 1482 864 1482Q1090 1482 1235.5 1372.5Q1381 1263 1381 1093Q1381 956 1281.5 852Q1182 748 1036 734L1033 714Q1156 686 1221.5 608Q1287 530 1287 412Q1287 284 1211 180.5Q1135 77 999.5 19Q864 -39 696 -39Q441 -39 284.5 80Q128 199 128 392Q128 420 134 463L476 463L476 462Q462 373 526 312Q590 251 697 251Q798 251 862 307.5Q926 364 926 453Q926 526 869.5 570.5Q813 615 722 615Z" />
<glyph glyph-name="four" unicode="&#x34;" horiz-adv-x="1463" d="M743 0L793 234L81 234L142 555Q383 883 870 1443L1397 1443L1201 520L1380 520L1320 234L1140 234L1090 0ZM460 525L457 507L861 507L1004 1181L986 1181Q722 875 460 525Z" />
<glyph glyph-name="five" unicode="&#x35;" horiz-adv-x="1411" d="M714 -39Q558 -39 433 18Q308 75 237.5 176Q167 277 167 402Q167 411 169 443L501 443L501 442Q506 354 570 299.5Q634 245 734 245Q842 245 914.5 320.5Q987 396 987 507Q987 605 928 663Q869 721 773 721Q715 721 657 693Q599 665 564 622L234 622L476 1443L1428 1443L1366 1157L704 1157L605 845L623 845Q736 964 920 964Q1095 964 1212 844.5Q1329 725 1329 545Q1329 290 1157 125.5Q985 -39 714 -39Z" />
<glyph glyph-name="six" unicode="&#x36;" horiz-adv-x="1459" d="M1356 517Q1356 363 1277.5 235Q1199 107 1062.5 34Q926 -39 761 -39Q491 -39 338.5 120Q186 279 186 562Q186 709 219 846.5Q252 984 315.5 1099Q379 1214 466.5 1300Q554 1386 670.5 1434Q787 1482 918 1482Q1147 1482 1296.5 1357.5Q1446 1233 1448 1042L1096 1042Q1085 1114 1032.5 1156Q980 1198 901 1198Q776 1198 681.5 1081Q587 964 557 773L576 772Q637 857 727.5 902.5Q818 948 926 948Q1114 948 1235 827Q1356 706 1356 517ZM791 695Q685 695 613 624Q541 553 541 449Q541 359 603 300Q665 241 760 241Q864 241 934.5 312Q1005 383 1005 488Q1005 578 944.5 636.5Q884 695 791 695Z" />
<glyph glyph-name="seven" unicode="&#x37;" horiz-adv-x="1277" d="M105 0L946 1141L951 1161L266 1161L326 1443L1392 1443L1332 1160L503 0Z" />
<glyph glyph-name="eight" unicode="&#x38;" horiz-adv-x="1472" d="M1346 405Q1346 211 1168 86Q990 -39 715 -39Q456 -39 291 76Q126 191 126 373Q126 529 237.5 641.5Q349 754 533 783L537 802Q444 836 388.5 909.5Q333 983 333 1070Q333 1248 494 1365Q655 1482 900 1482Q1048 1482 1171 1431.5Q1294 1381 1364.5 1293Q1435 1205 1435 1098Q1435 962 1342.5 864.5Q1250 767 1099 744L1095 725Q1212 685 1279 599.5Q1346 514 1346 405ZM754 622Q650 622 580.5 560Q511 498 511 405Q511 323 571.5 272Q632 221 730 221Q835 221 904.5 282Q974 343 974 435Q974 517 912.5 569.5Q851 622 754 622ZM680 1031Q680 960 731.5 914Q783 868 863 868Q950 868 1011.5 926Q1073 984 1073 1064Q1073 1135 1020.5 1181.5Q968 1228 889 1228Q802 1228 741 1170.5Q680 1113 680 1031Z" />
<glyph glyph-name="nine" unicode="&#x39;" horiz-adv-x="1457" d="M809 743Q914 743 985.5 813.5Q1057 884 1057 989Q1057 1080 997 1138Q937 1196 842 1196Q738 1196 667.5 1125.5Q597 1055 597 950Q597 859 657 801Q717 743 809 743ZM244 923Q244 1081 321.5 1209Q399 1337 536 1409.5Q673 1482 843 1482Q1112 1482 1262 1321.5Q1412 1161 1412 875Q1412 732 1378.5 596Q1345 460 1281 345.5Q1217 231 1130 144.5Q1043 58 928 9.5Q813 -39 686 -39Q462 -39 309.5 81.5Q157 202 149 385L502 385Q509 321 564 282.5Q619 244 704 244Q836 244 933 361.5Q1030 479 1052 666L1034 666Q906 490 686 490Q495 490 369.5 613Q244 736 244 923Z" />
<glyph glyph-name="colon" unicode="&#x3a;" horiz-adv-x="767" d="M328 -33Q237 -33 181.5 20.5Q126 74 126 150Q126 236 181 292Q236 348 328 348Q419 348 474.5 294.5Q530 241 530 165Q530 79 475 23Q420 -33 328 -33ZM481 693Q390 693 335 746Q280 799 280 875Q280 962 334 1017.5Q388 1073 481 1073Q573 1073 628 1020Q683 967 683 891Q683 804 628.5 748.5Q574 693 481 693Z" />
<glyph glyph-name="semicolon" unicode="&#x3b;" horiz-adv-x="767" d="M482 693Q391 693 335.5 746Q280 799 280 875Q280 962 334.5 1017.5Q389 1073 482 1073Q573 1073 628.5 1020Q684 967 684 891Q684 804 629.5 748.5Q575 693 482 693ZM223 -400L-21 -400L213 246L548 246Z" />
<glyph glyph-name="less" unicode="&#x3c;" horiz-adv-x="1461" d="M1207 288L1136 -45L248 463L305 734L1402 1206L1327 854L640 594L636 575Z" />
<glyph glyph-name="equal" unicode="&#x3d;" horiz-adv-x="1461" d="M1239 178L132 178L196 480L1303 480ZM1349 692L241 692L305 994L1413 994Z" />
<glyph glyph-name="greater" unicode="&#x3e;" horiz-adv-x="1461" d="M336 873L406 1206L1295 698L1237 427L140 -45L215 307L903 567L906 586Z" />
<glyph glyph-name="question" unicode="&#x3f;" horiz-adv-x="1189" d="M223 1039Q244 1224 385.5 1340Q527 1456 743 1456Q967 1456 1103 1352.5Q1239 1249 1239 1085Q1239 957 1167.5 852.5Q1096 748 959 688Q844 638 798 597Q752 556 738 488L730 453L412 453L420 508Q441 644 494 715.5Q547 787 663 838Q787 893 835 942.5Q883 992 883 1058Q883 1114 840.5 1149Q798 1184 727 1184Q663 1184 614 1144.5Q565 1105 549 1039ZM513 -33Q420 -33 362 14.5Q304 62 304 139Q304 223 362.5 278.5Q421 334 513 334Q602 334 662 286Q722 238 722 162Q722 80 663.5 23.5Q605 -33 513 -33Z" />
<glyph glyph-name="at" unicode="&#x40;" horiz-adv-x="1908" d="M1116 1446Q1335 1446 1506.5 1359.5Q1678 1273 1773 1117Q1868 961 1868 762Q1868 588 1806 447Q1744 306 1635 225.5Q1526 145 1392 145Q1279 145 1208.5 188.5Q1138 232 1138 304Q1138 310 1138.5 319.5Q1139 329 1139 333L1120 329Q1038 185 888 185Q755 185 675 280Q595 375 595 533Q595 666 647.5 777.5Q700 889 790.5 953Q881 1017 988 1017Q1076 1017 1138.5 974Q1201 931 1218 858L1237 856L1262 982L1495 982L1379 442Q1374 417 1374 402Q1374 365 1394 344.5Q1414 324 1449 324Q1503 324 1552.5 384.5Q1602 445 1632 545Q1662 645 1662 755Q1662 983 1507 1125.5Q1352 1268 1104 1268Q955 1268 821.5 1211Q688 1154 592 1056.5Q496 959 440 822.5Q384 686 384 534Q384 262 566.5 102.5Q749 -57 1060 -56Q1142 -56 1180 -45L1142 -223Q1079 -234 998 -234Q756 -234 570 -139.5Q384 -45 282.5 126.5Q181 298 181 522Q181 716 253 887.5Q325 1059 448.5 1181.5Q572 1304 746 1375Q920 1446 1116 1446ZM1160 644Q1160 718 1127 760Q1094 802 1037 802Q962 802 909 725.5Q856 649 856 542Q856 470 890 428Q924 386 983 386Q1057 386 1108.5 460.5Q1160 535 1160 644Z" />
<glyph glyph-name="A" unicode="&#x41;" horiz-adv-x="1564" d="M933 1117L659 581L992 581L953 1117ZM1026 0L1003 317L530 317L368 0L-10 0L796 1443L1242 1443L1408 0Z" />
<glyph glyph-name="B" unicode="&#x42;" horiz-adv-x="1459" d="M831 0L87 0L394 1443L1030 1443Q1217 1443 1332 1357.5Q1447 1272 1447 1134Q1447 990 1351.5 885Q1256 780 1113 765L1112 746Q1233 724 1304 645.5Q1375 567 1375 456Q1375 256 1222 128Q1069 0 831 0ZM709 1193L638 863L847 863Q949 863 1014.5 917.5Q1080 972 1080 1056Q1080 1121 1033.5 1157Q987 1193 902 1193ZM511 267L756 267Q868 267 939 327Q1010 387 1010 483Q1010 557 957 598.5Q904 640 808 640L590 640Z" />
<glyph glyph-name="C" unicode="&#x43;" horiz-adv-x="1569" d="M1224 908Q1225 911 1225 927Q1222 1037 1148 1105.5Q1074 1174 957 1174Q841 1174 746 1099Q651 1024 596.5 891Q542 758 542 595Q542 444 615.5 356Q689 268 815 268Q927 268 1015.5 330.5Q1104 393 1138 496L1494 496Q1450 254 1256.5 107.5Q1063 -39 787 -39Q505 -39 337 128Q169 295 169 574Q169 837 272.5 1044.5Q376 1252 560.5 1367Q745 1482 979 1482Q1146 1482 1284 1414Q1422 1346 1501 1227.5Q1580 1109 1580 966Q1580 929 1577 908Z" />
<glyph glyph-name="D" unicode="&#x44;" horiz-adv-x="1561" d="M394 1443L963 1443Q1227 1443 1380.5 1292Q1534 1141 1534 873Q1534 622 1439 423.5Q1344 225 1170.5 112.5Q997 0 776 0L88 0ZM701 1149L521 294L731 294Q919 294 1038 440.5Q1157 587 1157 830Q1157 977 1080 1063Q1003 1149 867 1149Z" />
<glyph glyph-name="E" unicode="&#x45;" horiz-adv-x="1302" d="M1139 295L1076 0L87 0L394 1443L1383 1443L1319 1148L698 1148L637 860L1221 860L1164 590L580 590L517 295Z" />
<glyph glyph-name="F" unicode="&#x46;" horiz-adv-x="1269" d="M454 0L87 0L394 1443L1375 1443L1312 1148L698 1148L628 819L1186 819L1126 538L568 538Z" />
<glyph glyph-name="G" unicode="&#x47;" horiz-adv-x="1588" d="M1557 770L1522 590Q1464 284 1277.5 122.5Q1091 -39 797 -39Q514 -39 342.5 130Q171 299 171 579Q171 842 273 1048Q375 1254 558.5 1368Q742 1482 976 1482Q1139 1482 1277.5 1418Q1416 1354 1497 1244Q1578 1134 1580 1004Q1581 990 1579 971L1226 971Q1223 1058 1146 1115Q1069 1172 954 1172Q777 1172 660.5 1010.5Q544 849 544 600Q544 449 620 360Q696 271 826 271Q951 271 1038.5 334.5Q1126 398 1147 504L1149 517L891 517L944 770Z" />
<glyph glyph-name="H" unicode="&#x48;" horiz-adv-x="1649" d="M1396 0L1028 0L1151 582L577 582L453 0L87 0L394 1443L761 1443L641 877L1215 877L1336 1443L1703 1443Z" />
<glyph glyph-name="I" unicode="&#x49;" horiz-adv-x="707" d="M454 0L87 0L394 1443L761 1443Z" />
<glyph glyph-name="J" unicode="&#x4a;" horiz-adv-x="1295" d="M78 400Q78 422 81 443L432 443L432 430Q433 360 475 318Q517 276 589 276Q735 276 774 462L983 1443L1349 1443L1131 416Q1084 195 944 78Q804 -39 582 -39Q353 -39 214.5 82Q76 203 78 400Z" />
<glyph glyph-name="K" unicode="&#x4b;" horiz-adv-x="1509" d="M454 0L87 0L394 1443L760 1443L630 834L649 834L1250 1443L1672 1443L1019 783L1366 0L957 0L711 570L538 398Z" />
<glyph glyph-name="L" unicode="&#x4c;" horiz-adv-x="1247" d="M1131 303L1067 0L87 0L394 1443L761 1443L518 303Z" />
<glyph glyph-name="M" unicode="&#x4d;" horiz-adv-x="1924" d="M427 0L87 0L394 1443L819 1443L978 561L997 561L1533 1443L1978 1443L1671 0L1332 0L1525 911L1507 911L1016 111L790 111L639 911L621 911Z" />
<glyph glyph-name="N" unicode="&#x4e;" horiz-adv-x="1600" d="M439 0L87 0L394 1443L654 1443L1104 601L1123 601L1302 1443L1654 1443L1347 0L1091 0L635 834L616 834Z" />
<glyph glyph-name="O" unicode="&#x4f;" horiz-adv-x="1638" d="M954 1169Q843 1169 748.5 1094.5Q654 1020 599 890.5Q544 761 544 606Q544 454 620.5 362.5Q697 271 825 271Q995 271 1115 434.5Q1235 598 1235 836Q1235 988 1158 1078.5Q1081 1169 954 1169ZM815 -39Q668 -39 546 8.5Q424 56 342 139Q260 222 215 335.5Q170 449 170 581Q170 777 231.5 946Q293 1115 399 1232Q505 1349 651.5 1415.5Q798 1482 965 1482Q1114 1482 1236.5 1434.5Q1359 1387 1439.5 1304Q1520 1221 1564 1107.5Q1608 994 1608 862Q1608 665 1547 496Q1486 327 1380 210Q1274 93 1127.5 27Q981 -39 815 -39Z" />
<glyph glyph-name="P" unicode="&#x50;" horiz-adv-x="1402" d="M394 1443L932 1443Q1166 1443 1301 1324.5Q1436 1206 1436 1008Q1436 739 1259.5 581Q1083 423 787 423L545 423L455 0L89 0ZM701 1161L603 700L786 700Q913 700 990 776.5Q1067 853 1067 975Q1067 1067 1012.5 1114Q958 1161 856 1161Z" />
<glyph glyph-name="Q" unicode="&#x51;" horiz-adv-x="1638" d="M1396 -132L1057 -132L1005 -15Q913 -39 815 -39Q668 -39 546 8.5Q424 56 342 138.5Q260 221 215 335Q170 449 170 581Q170 777 231.5 946Q293 1115 399 1232Q505 1349 651.5 1415.5Q798 1482 965 1482Q1114 1482 1236.5 1435Q1359 1388 1439.5 1304.5Q1520 1221 1564 1107.5Q1608 994 1608 862Q1608 625 1522.5 434Q1437 243 1284 123ZM824 265Q858 265 887 272L785 507L1102 507L1124 463Q1240 612 1240 837Q1240 992 1162 1084Q1084 1176 955 1176Q842 1176 746.5 1100.5Q651 1025 595 893Q539 761 539 604Q539 450 617 357.5Q695 265 824 265Z" />
<glyph glyph-name="R" unicode="&#x52;" horiz-adv-x="1459" d="M87 0L394 1443L1003 1443Q1206 1443 1336 1325Q1466 1207 1466 1024Q1466 866 1374 733Q1282 600 1125 542L1319 0L925 0L762 505L562 505L454 0ZM703 1166L616 764L835 764Q953 764 1025 828Q1097 892 1097 993Q1097 1077 1045.5 1121.5Q994 1166 900 1166Z" />
<glyph glyph-name="S" unicode="&#x53;" horiz-adv-x="1407" d="M101 416L451 416Q461 338 535 288.5Q609 239 711 239Q819 239 886.5 284Q954 329 954 401Q954 455 911 490Q868 525 763 557L606 604Q439 654 349 758Q259 862 259 1008Q259 1213 429 1347.5Q599 1482 858 1482Q1112 1482 1269.5 1354.5Q1427 1227 1429 1023L1090 1023Q1083 1102 1014.5 1153.5Q946 1205 845 1205Q753 1205 690.5 1161Q628 1117 628 1051Q628 996 669 956.5Q710 917 801 890L959 844Q1146 789 1232 695Q1318 601 1318 451Q1318 229 1144.5 95Q971 -39 686 -39Q426 -39 266 83.5Q106 206 101 416Z" />
<glyph glyph-name="T" unicode="&#x54;" horiz-adv-x="1380" d="M791 0L424 0L667 1148L252 1148L315 1443L1513 1443L1450 1148L1035 1148Z" />
<glyph glyph-name="U" unicode="&#x55;" horiz-adv-x="1585" d="M796 -39Q523 -39 360.5 94Q198 227 198 440Q198 503 211 565L397 1443L765 1443L580 571Q570 524 570 480Q571 384 636.5 328.5Q702 273 808 273Q916 273 988 337Q1060 401 1085 522L1280 1443L1648 1443L1437 441Q1389 215 1219 88Q1049 -39 796 -39Z" />
<glyph glyph-name="V" unicode="&#x56;" horiz-adv-x="1528" d="M920 0L456 0L297 1443L698 1443L755 383L774 383L1265 1443L1679 1443Z" />
<glyph glyph-name="W" unicode="&#x57;" horiz-adv-x="2112" d="M1144 884L722 0L381 0L310 1443L685 1443L679 486L697 486L1132 1443L1421 1443L1461 486L1479 486L1873 1443L2250 1443L1568 0L1217 0L1162 884Z" />
<glyph glyph-name="X" unicode="&#x58;" horiz-adv-x="1549" d="M5 0L619 741L316 1443L727 1443L918 981L937 981L1279 1443L1687 1443L1059 708L1377 0L970 0L774 446L755 446L403 0Z" />
<glyph glyph-name="Y" unicode="&#x59;" horiz-adv-x="1507" d="M856 0L488 0L593 496L297 1443L680 1443L839 852L858 852L1263 1443L1659 1443L959 490Z" />
<glyph glyph-name="Z" unicode="&#x5a;" horiz-adv-x="1399" d="M48 0L98 233L943 1129L944 1148L302 1148L365 1443L1471 1443L1421 1210L577 314L576 295L1248 295L1186 0Z" />
<glyph glyph-name="bracketleft" unicode="&#x5b;" horiz-adv-x="929" d="M485 1530L1098 1530L1043 1274L770 1274L487 -55L760 -55L706 -312L93 -312Z" />
<glyph glyph-name="backslash" unicode="&#x5c;" horiz-adv-x="857" d="M337 -312L285 1530L613 1530L665 -312Z" />
<glyph glyph-name="bracketright" unicode="&#x5d;" horiz-adv-x="929" d="M537 -312L-76 -312L-21 -55L252 -55L535 1274L261 1274L316 1530L929 1530Z" />
<glyph glyph-name="asciicircum" unicode="&#x5e;" horiz-adv-x="1109" d="M722 1159L475 769L159 769L629 1404L925 1404L1132 769L834 769L741 1159Z" />
<glyph glyph-name="underscore" unicode="&#x5f;" horiz-adv-x="960" d="M-160 -373L-104 -107L852 -107L796 -373Z" />
<glyph glyph-name="grave" unicode="&#x60;" horiz-adv-x="1059" d="M1015 1288L716 1288L502 1647L846 1647Z" />
<glyph glyph-name="a" unicode="&#x61;" horiz-adv-x="1241" d="M557 229Q635 229 696 274.5Q757 320 772 388L790 471L593 465Q510 462 462 427.5Q414 393 414 337Q414 289 454 259Q494 229 557 229ZM398 -17Q258 -17 164.5 69.5Q71 156 71 286Q71 457 205.5 557.5Q340 658 576 665L833 672L847 739Q852 769 852 774Q852 822 809 850.5Q766 879 695 879Q569 879 528 796L204 796Q238 953 378.5 1046Q519 1139 720 1139Q934 1139 1066 1047Q1198 955 1198 805Q1198 758 1189 715L1036 0L693 0L721 134L702 134Q659 65 576 24Q493 -17 398 -17Z" />
<glyph glyph-name="b" unicode="&#x62;" horiz-adv-x="1383" d="M789 -17Q670 -17 579 43Q488 103 463 200L444 200L401 0L57 0L382 1530L736 1530L613 955L634 958Q745 1130 963 1130Q1131 1130 1234 1016Q1337 902 1337 707Q1337 553 1294.5 417.5Q1252 282 1178.5 187Q1105 92 1004 37.5Q903 -17 789 -17ZM699 266Q812 266 891.5 376Q971 486 971 647Q971 747 921 801.5Q871 856 793 856Q680 856 599.5 743Q519 630 519 477Q519 376 569.5 321Q620 266 699 266Z" />
<glyph glyph-name="c" unicode="&#x63;" horiz-adv-x="1247" d="M751 1139Q859 1139 949.5 1105.5Q1040 1072 1098.5 1017Q1157 962 1190.5 894.5Q1224 827 1227 755Q1227 751 1227 742.5Q1227 734 1227 726.5Q1227 719 1227 713L898 713Q897 786 850 826Q803 866 729 866Q613 866 541.5 751.5Q470 637 470 464Q470 356 520.5 301.5Q571 247 645 247Q718 247 770 286Q822 325 844 399L1175 399Q1149 217 1002.5 95.5Q856 -26 626 -26Q393 -26 257 101Q121 228 121 443Q121 641 198 799Q275 957 419.5 1048Q564 1139 751 1139Z" />
<glyph glyph-name="d" unicode="&#x64;" horiz-adv-x="1383" d="M493 -17Q324 -17 220 97.5Q116 212 116 411Q116 565 159.5 699.5Q203 834 277.5 928Q352 1022 455.5 1076Q559 1130 676 1130Q797 1130 877 1074Q957 1018 984 929L1004 929L1131 1530L1486 1530L1161 0L816 0L849 155L830 155Q705 -17 493 -17ZM663 257Q775 257 855.5 370Q936 483 936 636Q936 736 885 791.5Q834 847 756 847Q642 847 562.5 739Q483 631 483 471Q483 370 534 313.5Q585 257 663 257Z" />
<glyph glyph-name="e" unicode="&#x65;" horiz-adv-x="1290" d="M486 681L909 681Q912 699 912 717Q912 791 862 839Q812 887 731 887Q643 887 576 830.5Q509 774 486 681ZM639 -26Q405 -26 264.5 103.5Q124 233 124 456Q124 761 295 950Q466 1139 740 1139Q956 1139 1095.5 1008Q1235 877 1235 666Q1235 581 1215 479L450 479Q449 475 449 458Q449 348 507.5 288.5Q566 229 661 229Q732 229 781 257Q830 285 850 334L1182 334Q1141 169 995.5 71.5Q850 -26 639 -26Z" />
<glyph glyph-name="f" unicode="&#x66;" horiz-adv-x="886" d="M142 0L320 835L140 835L196 1098L372 1098L400 1231Q431 1383 533 1452.5Q635 1522 817 1522Q950 1522 1037 1496L987 1268Q948 1279 869 1279Q760 1279 740 1183L722 1098L949 1098L893 835L675 835L497 0Z" />
<glyph glyph-name="g" unicode="&#x67;" horiz-adv-x="1369" d="M544 -419Q303 -419 156 -322Q9 -225 16 -74L361 -74Q364 -123 419 -153Q474 -183 565 -183Q760 -183 796 -17L837 176L818 176Q714 24 494 24Q328 24 223.5 137Q119 250 119 434Q119 625 192.5 785.5Q266 946 392.5 1038Q519 1130 670 1130Q784 1130 870 1073.5Q956 1017 985 923L1004 923L1046 1113L1391 1113L1144 -41Q1106 -219 948 -319Q790 -419 544 -419ZM660 264Q771 264 850.5 373.5Q930 483 930 636Q930 732 880.5 789.5Q831 847 748 847Q635 847 557.5 741Q480 635 480 478Q480 380 529 322Q578 264 660 264Z" />
<glyph glyph-name="h" unicode="&#x68;" horiz-adv-x="1346" d="M57 0L380 1519L733 1519L609 945L628 945Q745 1134 966 1134Q1120 1134 1209.5 1046.5Q1299 959 1299 820Q1299 758 1284 686L1140 0L788 0L920 631Q929 676 929 707Q929 777 884.5 818Q840 859 768 859Q685 859 627 804Q569 749 550 659L410 0Z" />
<glyph glyph-name="i" unicode="&#x69;" horiz-adv-x="643" d="M62 0L298 1113L652 1113L415 0ZM682.5 1288Q682.5 1288 655.75 1265Q629 1242 537 1242Q445 1242 391 1284Q337 1326 337 1393Q337 1464 391 1510.5Q445 1557 537 1557Q629 1557 682.5 1515Q736 1473 736 1406Q736 1334 682.5 1288Z" />
<glyph glyph-name="j" unicode="&#x6a;" horiz-adv-x="643" d="M536 1242Q445 1242 391 1284Q337 1326 337 1393Q337 1464 391 1510.5Q445 1557 536 1557Q628 1557 682 1515Q736 1473 736 1406Q736 1335 682 1288.5Q628 1242 536 1242ZM652 1113L406 -48Q371 -212 259 -295Q147 -378 -30 -378Q-117 -378 -196 -363L-139 -108Q-115 -115 -70 -115Q37 -115 59 -12L298 1113Z" />
<glyph glyph-name="k" unicode="&#x6b;" horiz-adv-x="1275" d="M411 0L57 0L382 1530L735 1530L563 712L582 712L978 1113L1377 1113L868 624L1177 0L792 0L582 434L482 340Z" />
<glyph glyph-name="l" unicode="&#x6c;" horiz-adv-x="634" d="M57 0L382 1530L737 1530L411 0Z" />
<glyph glyph-name="m" unicode="&#x6d;" horiz-adv-x="1951" d="M50 0L286 1113L630 1113L589 925L608 925Q663 1020 748 1075Q833 1130 932 1130Q1041 1130 1114.5 1072.5Q1188 1015 1214 928L1233 928Q1365 1130 1593 1130Q1729 1130 1816 1040Q1903 950 1903 815Q1903 753 1888 681L1745 0L1392 0L1524 631Q1533 675 1533 707Q1533 771 1496 810.5Q1459 850 1397 850Q1329 850 1276.5 798Q1224 746 1205 656L1067 0L729 0L861 631Q870 675 870 707Q870 771 833 810.5Q796 850 734 850Q666 850 613.5 798.5Q561 747 542 658L403 0Z" />
<glyph glyph-name="n" unicode="&#x6e;" horiz-adv-x="1331" d="M50 0L288 1113L631 1113L592 932L611 932Q667 1025 755 1077.5Q843 1130 956 1130Q1106 1130 1194.5 1040Q1283 950 1283 808Q1283 746 1268 674L1125 0L773 0L905 619Q913 658 913 695Q913 763 871.5 806.5Q830 850 757 850Q676 850 618.5 793.5Q561 737 542 647L403 0Z" />
<glyph glyph-name="o" unicode="&#x6f;" horiz-adv-x="1344" d="M658 246Q766 246 844 361Q922 476 922 634Q922 745 879 807Q836 869 758 869Q647 869 569 753.5Q491 638 491 474Q491 367 535.5 306.5Q580 246 658 246ZM774 1139Q1009 1139 1150 1003Q1291 867 1291 641Q1291 500 1241.5 376.5Q1192 253 1106.5 164.5Q1021 76 901 25Q781 -26 644 -26Q409 -26 266.5 110Q124 246 124 471Q124 659 208.5 812Q293 965 442 1052Q591 1139 774 1139Z" />
<glyph glyph-name="p" unicode="&#x70;" horiz-adv-x="1376" d="M692 266Q805 266 884.5 376Q964 486 964 647Q964 747 914 801.5Q864 856 786 856Q674 856 593 743Q512 630 512 477Q512 377 563 321.5Q614 266 692 266ZM326 -368L-28 -368L287 1113L632 1113L599 958L618 958Q743 1130 956 1130Q1125 1130 1228 1016Q1331 902 1331 707Q1331 501 1258 335Q1185 169 1058 76Q931 -17 775 -17Q656 -17 575 42.5Q494 102 467 200L448 200Z" />
<glyph glyph-name="q" unicode="&#x71;" horiz-adv-x="1381" d="M661 257Q773 257 854 370Q935 483 935 636Q935 737 884 792Q833 847 754 847Q641 847 562 738Q483 629 483 470Q483 368 533 312.5Q583 257 661 257ZM1087 -368L733 -368L844 155L827 155Q703 -17 490 -17Q322 -17 219 98Q116 213 116 410Q116 564 159.5 698Q203 832 277.5 926.5Q352 1021 455 1075.5Q558 1130 675 1130Q799 1130 885.5 1073Q972 1016 999 929L1018 929L1057 1113L1402 1113Z" />
<glyph glyph-name="r" unicode="&#x72;" horiz-adv-x="969" d="M47 0L285 1113L631 1113L599 956L617 956Q658 1038 728 1084Q798 1130 884 1130Q973 1130 1033 1103L964 795Q881 831 780 831Q580 831 530 597L402 0Z" />
<glyph glyph-name="s" unicode="&#x73;" horiz-adv-x="1201" d="M203 768Q203 937 335.5 1038Q468 1139 688 1139Q903 1139 1034 1045.5Q1165 952 1170 797L852 797Q844 843 799.5 871Q755 899 688 899Q623 899 581.5 872.5Q540 846 540 803Q540 772 564.5 750Q589 728 647 708L843 639Q976 593 1037 523.5Q1098 454 1098 350Q1098 180 959 77Q820 -26 591 -26Q362 -26 219 72Q76 170 74 329L409 329Q417 278 466.5 245.5Q516 213 588 213Q661 213 703 239Q745 265 745 310Q745 340 723 360.5Q701 381 644 401L467 463Q332 510 267.5 584.5Q203 659 203 768Z" />
<glyph glyph-name="t" unicode="&#x74;" horiz-adv-x="900" d="M545 -2Q388 -2 295.5 62.5Q203 127 203 239Q203 283 214 335L319 835L144 835L202 1098L375 1098L433 1368L788 1368L730 1098L960 1098L902 835L674 835L580 394Q574 356 574 343Q574 253 689 253Q732 253 782 259L729 12Q676 -2 545 -2Z" />
<glyph glyph-name="u" unicode="&#x75;" horiz-adv-x="1332" d="M1352 1113L1117 0L773 0L810 175L791 175Q679 -26 466 -26Q311 -26 216 62Q121 150 121 300Q121 354 136 441L277 1113L632 1113L501 498Q494 463 494 425Q494 264 649 264Q732 264 786 318.5Q840 373 861 470L998 1113Z" />
<glyph glyph-name="v" unicode="&#x76;" horiz-adv-x="1222" d="M196 1113L554 1113L584 324L603 324L958 1113L1334 1113L729 0L319 0Z" />
<glyph glyph-name="w" unicode="&#x77;" horiz-adv-x="1814" d="M1910 1113L1386 0L1001 0L985 732L966 732L640 0L265 0L211 1113L561 1113L543 352L562 352L888 1113L1228 1113L1236 350L1256 350L1556 1113Z" />
<glyph glyph-name="x" unicode="&#x78;" horiz-adv-x="1251" d="M621 334L602 334L357 0L-22 0L430 554L213 1113L600 1113L702 771L721 771L956 1113L1345 1113L887 554L1110 0L736 0Z" />
<glyph glyph-name="y" unicode="&#x79;" horiz-adv-x="1258" d="M117 -407Q-12 -407 -24 -404L33 -136Q45 -139 103 -139Q279 -139 318 -40L330 -7L203 1113L566 1113L596 304L615 304L985 1113L1362 1113L762 -10Q649 -225 499.5 -316Q350 -407 117 -407Z" />
<glyph glyph-name="z" unicode="&#x7a;" horiz-adv-x="1190" d="M29 0L69 189L718 828L719 847L220 847L278 1113L1214 1113L1167 896L571 285L570 266L1051 266L994 0Z" />
<glyph glyph-name="braceleft" unicode="&#x7b;" horiz-adv-x="929" d="M281 249Q293 304 293 336Q293 396 254 425Q215 454 120 454L186 765Q298 765 354.5 810.5Q411 856 434 971L471 1147Q513 1358 630 1444Q747 1530 973 1530L1097 1530L1043 1280L1000 1280Q910 1280 865 1236.5Q820 1193 796 1083L754 892Q727 771 640.5 682Q554 593 426 582L421 563Q539 550 589 500.5Q639 451 639 373Q639 349 629 295L595 135Q583 75 583 44Q583 -14 614.5 -38.5Q646 -63 715 -63L759 -63L706 -312L582 -312Q486 -312 416 -289.5Q346 -267 306.5 -226.5Q267 -186 249 -137.5Q231 -89 231 -31Q231 20 246 86Z" />
<glyph glyph-name="bar" unicode="&#x7c;" horiz-adv-x="857" d="M444 -312L114 -312L506 1530L835 1530Z" />
<glyph glyph-name="braceright" unicode="&#x7d;" horiz-adv-x="929" d="M740 969Q729 920 729 882Q729 822 767.5 793.5Q806 765 901 765L836 454Q724 454 667.5 408.5Q611 363 587 248L551 72Q508 -139 391.5 -225.5Q275 -312 49 -312L-75 -312L-22 -61L22 -61Q112 -61 157 -17.5Q202 26 226 136L267 327Q294 448 380.5 537Q467 626 596 637L600 656Q383 680 383 846Q383 879 393 924L426 1084Q438 1137 438 1175Q438 1233 407 1257.5Q376 1282 306 1282L263 1282L316 1530L439 1530Q535 1530 605.5 1507.5Q676 1485 715 1444.5Q754 1404 772 1356Q790 1308 790 1250Q790 1195 776 1133Z" />
<glyph glyph-name="asciitilde" unicode="&#x7e;" horiz-adv-x="1236" d="M797 466Q738 466 687.5 490.5Q637 515 602.5 549.5Q568 584 537 619Q506 654 473 678.5Q440 703 406 703Q317 703 285 548L25 548Q63 770 160 884Q257 998 401 998Q460 998 510.5 973.5Q561 949 595.5 914Q630 879 660.5 844Q691 809 723 784.5Q755 760 786 760Q876 760 907 917L1167 917Q1091 466 797 466Z" />
<glyph glyph-name="nonbreakingspace" unicode="&#xa0;" horiz-adv-x="502" d="" />
<glyph glyph-name="exclamdown" unicode="&#xa1;" horiz-adv-x="778" d="M425 -314L41 -314L279 656L600 656ZM516 1164Q609 1164 664.5 1113.5Q720 1063 720 989Q720 906 665 853Q610 800 516 800Q422 800 367 850.5Q312 901 312 975Q312 1059 366.5 1111.5Q421 1164 516 1164Z" />
<glyph glyph-name="cent" unicode="&#xa2;" horiz-adv-x="1461" d="M1303 534Q1278 367 1151.5 249.5Q1025 132 826 112L788 -72L508 -72L553 141Q411 189 330 303.5Q249 418 249 578Q249 761 315.5 911.5Q382 1062 506.5 1157.5Q631 1253 794 1273L832 1451L1112 1451L1067 1249Q1198 1203 1273.5 1105Q1349 1007 1354 894Q1355 881 1355 852L1026 852Q1024 925 977.5 965Q931 1005 857 1005Q741 1005 669.5 889Q598 773 598 600Q598 492 648.5 437Q699 382 773 382Q846 382 898 421Q950 460 972 534Z" />
<glyph glyph-name="sterling" unicode="&#xa3;" horiz-adv-x="1461" d="M1296 305L1232 8L76 8L139 305Q281 310 385.5 393Q490 476 511 612Q511 614 510.5 621Q510 628 510 632L201 632L252 872L499 872Q477 1013 477 1054Q477 1252 624 1367Q771 1482 1025 1482Q1155 1482 1287.5 1456Q1420 1430 1487 1400L1429 1129Q1381 1156 1288.5 1176Q1196 1196 1103 1196Q976 1196 902.5 1142.5Q829 1089 829 979Q829 938 836 872L1199 872L1149 632L856 632L856 618Q849 505 791 429.5Q733 354 633 324L630 305Z" />
<glyph glyph-name="currency" unicode="&#xa4;" horiz-adv-x="1461" d="M614 800Q614 800 581.5 767Q549 734 549 645Q549 556 614 490.5Q679 425 768 425Q857 425 922 490.5Q987 556 987 645Q987 734 922 800Q857 866 768 866Q679 866 614 800ZM1396 997L1208 842Q1250 749 1250 645Q1250 504 1174 385L1284 247L1046 51L933 192Q855 163 768 163Q613 163 488 253L296 95L140 294L328 449Q286 542 286 645Q286 787 363 905L251 1044L490 1240L603 1098Q682 1127 768 1127Q923 1127 1048 1037L1239 1195Z" />
<glyph glyph-name="yen" unicode="&#xa5;" horiz-adv-x="1461" d="M1138 182L871 182L832 0L465 0L504 182L235 182L274 364L542 364L568 484L299 484L338 666L519 666L274 1443L657 1443L816 852L835 852L1240 1443L1635 1443L1064 666L1240 666L1202 484L934 484L909 364L1176 364Z" />
<glyph glyph-name="brokenbar" unicode="&#xa6;" horiz-adv-x="857" d="M680 799L350 799L506 1530L835 1530ZM444 -312L114 -312L268 410L597 410Z" />
<glyph glyph-name="section" unicode="&#xa7;" horiz-adv-x="1032" d="M495 480L608 419Q658 436 690 471.5Q722 507 722 547Q722 622 626 670L513 731Q461 716 428 680.5Q395 645 395 603Q395 530 495 480ZM437 -301Q311 -301 211 -257.5Q111 -214 52 -132Q-7 -50 -8 56L284 56Q289 5 331.5 -29Q374 -63 436 -63Q499 -63 540.5 -31.5Q582 0 582 47Q582 116 492 159L314 249Q90 360 90 545Q90 654 162 731.5Q234 809 360 836L361 856Q284 911 252 965Q220 1019 220 1093Q220 1250 347.5 1349.5Q475 1449 674 1449Q865 1449 985 1352Q1105 1255 1112 1090L822 1090Q819 1145 777 1178Q735 1211 672 1211Q611 1211 571.5 1180.5Q532 1150 532 1104Q532 1038 625 992L791 904Q1025 784 1025 604Q1025 498 950.5 417Q876 336 756 313L756 295Q831 240 862.5 186Q894 132 894 59Q894 -98 765 -199.5Q636 -301 437 -301Z" />
<glyph glyph-name="dieresis" unicode="&#xa8;" horiz-adv-x="1059" d="M624.5 1314Q624.5 1314 600.25 1291Q576 1268 500 1268Q424 1268 375.5 1314Q327 1360 327 1432Q327 1504 375.5 1550Q424 1596 500 1596Q576 1596 624.5 1550Q673 1504 673 1432Q673 1360 624.5 1314ZM1126 1314Q1126 1314 1101.5 1291Q1077 1268 1001 1268Q925 1268 876.5 1314Q828 1360 828 1432Q828 1504 876.5 1550Q925 1596 1001 1596Q1077 1596 1126 1550Q1175 1504 1175 1432Q1175 1360 1126 1314Z" />
<glyph glyph-name="copyright" unicode="&#xa9;" horiz-adv-x="1743" d="M911 -121Q697 -121 522 -22.5Q347 76 247 248.5Q147 421 147 632Q147 797 212 948Q277 1099 386.5 1208Q496 1317 647.5 1381.5Q799 1446 965 1446Q1126 1446 1268 1388.5Q1410 1331 1511 1231.5Q1612 1132 1670.5 992.5Q1729 853 1729 694Q1729 528 1664 377Q1599 226 1489.5 117Q1380 8 1228.5 -56.5Q1077 -121 911 -121ZM915 48Q1043 48 1160.5 99.5Q1278 151 1364 237.5Q1450 324 1501 442.5Q1552 561 1552 690Q1552 857 1475.5 991.5Q1399 1126 1264 1202Q1129 1278 961 1278Q833 1278 715.5 1226.5Q598 1175 512 1088.5Q426 1002 375 883.5Q324 765 324 636Q324 511 369 402Q414 293 492 215.5Q570 138 680 93Q790 48 915 48ZM1304 745L1088 745Q1089 805 1059 839Q1029 873 976 873Q902 873 850.5 795.5Q799 718 799 606Q799 533 830.5 494Q862 455 920 455Q1003 455 1043 538L1266 538Q1233 413 1140.5 344.5Q1048 276 913 276Q764 276 671.5 369Q579 462 579 612Q579 802 693.5 927Q808 1052 981 1052Q1130 1052 1223 963.5Q1316 875 1304 745Z" />
<glyph glyph-name="ordfeminine" unicode="&#xaa;" horiz-adv-x="1077" d="M628 897Q564 896 528 869.5Q492 843 492 799Q492 759 521.5 735Q551 711 600 711Q655 711 696 745.5Q737 780 749 836L763 900ZM178 757Q178 901 283.5 983Q389 1065 575 1067L799 1070Q804 1090 811 1120Q817 1148 817 1154Q817 1191 786.5 1213Q756 1235 705 1235Q663 1235 632 1219Q601 1203 588 1176L292 1176Q329 1318 436.5 1392Q544 1466 713 1466Q901 1466 1016 1384Q1131 1302 1131 1168Q1131 1137 1123 1095L998 506L689 506L708 605L690 605Q653 552 591.5 522.5Q530 493 459 493Q333 493 255.5 566Q178 639 178 757Z" />
<glyph glyph-name="guillemotleft" unicode="&#xab;" horiz-adv-x="1477" d="M742 153L438 153L177 563L179 571L585 979L924 979L497 557L495 548ZM1270 153L967 153L706 563L708 571L1128 979L1453 979L1017 549L1016 541Z" />
<glyph glyph-name="logicalnot" unicode="&#xac;" horiz-adv-x="1461" d="M1352 737L1203 34L891 34L977 436L192 436L256 737Z" />
<glyph glyph-name="registered" unicode="&#xae;" horiz-adv-x="1260" d="M636 734L497 734L599 1216L850 1216Q917 1216 963.5 1172Q1010 1128 1010 1065Q1010 1007 974 963.5Q938 920 880 904L957 734L803 734L736 891L669 891ZM715 1106L691 993L783 993Q820 993 840.5 1009.5Q861 1026 861 1055Q861 1106 800 1106ZM753 441Q518 441 368 588.5Q218 736 218 967Q218 1075 260 1172.5Q302 1270 373.5 1340.5Q445 1411 544 1452.5Q643 1494 753 1494Q987 1494 1137 1346Q1287 1198 1287 967Q1287 823 1216 702Q1145 581 1022 511Q899 441 753 441ZM752 581Q912 581 1025 693.5Q1138 806 1138 967Q1138 1139 1031.5 1246Q925 1353 753 1353Q592 1353 479.5 1240.5Q367 1128 367 967Q367 795 473.5 688Q580 581 752 581Z" />
<glyph glyph-name="macron" unicode="&#xaf;" horiz-adv-x="1059" d="M1154 1525L1112 1327L345 1327L387 1525Z" />
<glyph glyph-name="degree" unicode="&#xb0;" horiz-adv-x="935" d="M616 714Q454 714 345.5 821.5Q237 929 237 1088Q237 1246 345.5 1353.5Q454 1461 616 1461Q777 1461 886 1353.5Q995 1246 995 1088Q995 930 886 822Q777 714 616 714ZM490.5 960.5Q490.5 960.5 514.75 935.25Q539 910 616 910Q693 910 742 960Q791 1010 791 1088Q791 1166 742.5 1215.5Q694 1265 616 1265Q539 1265 490.5 1215Q442 1165 442 1088Q442 1011 490.5 960.5Z" />
<glyph glyph-name="plusminus" unicode="&#xb1;" horiz-adv-x="1461" d="M1151 55L165 55L219 310L1205 310ZM936 645L891 433L587 433L632 645L290 645L345 903L687 903L733 1116L1037 1116L991 903L1334 903L1279 645Z" />
<glyph glyph-name="two.sups" unicode="&#xb2;" horiz-adv-x="949" d="M312 1519Q319 1667 440 1762.5Q561 1858 740 1858Q901 1858 1001 1780Q1101 1702 1101 1577Q1101 1492 1046.5 1418Q992 1344 862 1256Q852 1249 813 1223.5Q774 1198 738.5 1175.5Q703 1153 680 1142L678 1129L1016 1129L966 894L207 894L254 1112L558 1320Q694 1411 743.5 1459Q793 1507 793 1550Q793 1585 770.5 1605.5Q748 1626 710 1626Q666 1626 634.5 1597.5Q603 1569 594 1520L594 1519Z" />
<glyph glyph-name="three.sups" unicode="&#xb3;" horiz-adv-x="985" d="M546 1279L590 1476L697 1476Q748 1476 779.5 1500Q811 1524 811 1561Q811 1593 786 1613.5Q761 1634 721 1634Q641 1634 616 1562L332 1562Q359 1698 471.5 1778Q584 1858 748 1858Q908 1858 1010 1785Q1112 1712 1112 1598Q1112 1507 1046 1443.5Q980 1380 882 1375L881 1361Q961 1343 1004.5 1292Q1048 1241 1048 1164Q1048 1033 934.5 950Q821 867 640 867Q455 867 342 967Q229 1067 247 1215L540 1215Q535 1169 562 1140.5Q589 1112 637 1112Q683 1112 711 1137Q739 1162 739 1203Q739 1237 712.5 1258Q686 1279 645 1279Z" />
<glyph glyph-name="acute" unicode="&#xb4;" horiz-adv-x="1059" d="M734 1288L415 1288L737 1647L1101 1647Z" />
<glyph glyph-name="mugreek" unicode="&#xb5;" horiz-adv-x="1411" d="M-37 -368L276 1113L631 1113L505 520Q494 461 494 430Q494 265 646 265Q728 265 786.5 324.5Q845 384 867 487L1000 1113L1354 1113L1196 372Q1190 347 1190 318Q1190 283 1209 267Q1228 251 1271 251Q1303 251 1329 257L1275 5Q1220 -10 1117 -10Q991 -10 923.5 41Q856 92 856 195L856 201L837 201Q819 160 800 127.5Q781 95 747.5 56.5Q714 18 664 -4Q614 -26 553 -26Q505 -26 470.5 -8Q436 10 423 37L403 37L317 -368Z" />
<glyph glyph-name="paragraph" unicode="&#xb6;" horiz-adv-x="1653" d="M841 -273L508 -273L655 415Q468 440 361.5 559.5Q255 679 255 853Q255 1108 422.5 1269.5Q590 1431 869 1442L1207 1443ZM1021 -273L1387 1443L1719 1443L1354 -273Z" />
<glyph glyph-name="periodcentered" unicode="&#xb7;" horiz-adv-x="772" d="M459 537Q366 537 309.5 591.5Q253 646 253 723Q253 811 308.5 868Q364 925 459 925Q552 925 608 870.5Q664 816 664 739Q664 651 608.5 594Q553 537 459 537Z" />
<glyph glyph-name="cedilla" unicode="&#xb8;" horiz-adv-x="1059" d="M224 -232L244 -106L334 34L541 34L449 -108Q597 -137 597 -275Q597 -375 523.5 -434Q450 -493 326 -493Q212 -493 134 -458L165 -316Q229 -341 304 -341Q389 -341 389 -289Q389 -232 283 -232Z" />
<glyph glyph-name="one.sups" unicode="&#xb9;" horiz-adv-x="801" d="M420 894L561 1556L547 1556L299 1416L355 1680L619 1831L936 1831L737 894Z" />
<glyph glyph-name="ordmasculine" unicode="&#xba;" horiz-adv-x="1150" d="M651 490Q444 490 326.5 603Q209 716 209 915Q209 1157 360 1311.5Q511 1466 747 1466Q954 1466 1069.5 1352Q1185 1238 1185 1035Q1185 793 1036.5 641.5Q888 490 651 490ZM858 1047Q858 1132 826 1179.5Q794 1227 736 1227Q654 1227 595 1132.5Q536 1038 536 908Q536 823 568.5 776Q601 729 659 729Q741 729 799.5 822.5Q858 916 858 1047Z" />
<glyph glyph-name="guillemotright" unicode="&#xbb;" horiz-adv-x="1478" d="M812 979L1115 979L1376 570L1374 562L969 153L629 153L1057 575L1058 584ZM283 979L586 979L847 570L845 562L424 153L100 153L535 583L537 591Z" />
<glyph glyph-name="onequarter" unicode="&#xbc;" horiz-adv-x="2423" d="M442 506L583 1168L569 1168L321 1028L377 1292L641 1443L958 1443L759 506ZM871 0L540 0L1121 756L1579 1443L1910 1443L1309 683ZM1836 0L1862 125L1395 125L1449 396Q1605 615 1884 937L2334 937L2211 363L2317 363L2266 125L2160 125L2134 0ZM1710 364L1706 350L1920 350L2001 728L1986 728Q1909 635 1859.5 570Q1810 505 1710 364Z" />
<glyph glyph-name="onehalf" unicode="&#xbd;" horiz-adv-x="2419" d="M442 506L583 1168L569 1168L321 1028L377 1292L641 1443L958 1443L759 506ZM871 0L540 0L1121 756L1579 1443L1910 1443L1309 683ZM1581 625Q1588 773 1709 868.5Q1830 964 2009 964Q2170 964 2270 886Q2370 808 2370 683Q2370 598 2315.5 524Q2261 450 2131 362Q2121 355 2082 329.5Q2043 304 2007.5 281.5Q1972 259 1949 248L1947 235L2285 235L2235 0L1476 0L1523 218L1827 426Q1963 517 2012.5 565Q2062 613 2062 656Q2062 691 2039.5 711.5Q2017 732 1979 732Q1935 732 1903.5 703.5Q1872 675 1863 626L1863 625Z" />
<glyph glyph-name="threequarters" unicode="&#xbe;" horiz-adv-x="2554" d="M547 891L591 1088L698 1088Q749 1088 780.5 1112Q812 1136 812 1173Q812 1205 787 1225.5Q762 1246 722 1246Q642 1246 617 1174L333 1174Q360 1310 472.5 1390Q585 1470 749 1470Q909 1470 1011 1397Q1113 1324 1113 1210Q1113 1119 1047 1055.5Q981 992 883 987L882 973Q962 955 1005.5 904Q1049 853 1049 776Q1049 645 935.5 562Q822 479 641 479Q456 479 343 579Q230 679 248 827L541 827Q536 781 563 752.5Q590 724 638 724Q684 724 712 749Q740 774 740 815Q740 849 713.5 870Q687 891 646 891ZM1003 0L672 0L1253 756L1711 1443L2042 1443L1441 683ZM1967 0L1993 125L1526 125L1580 396Q1736 615 2015 937L2465 937L2342 363L2448 363L2397 125L2291 125L2265 0ZM1841 364L1837 350L2051 350L2132 728L2117 728Q2040 635 1990.5 570Q1941 505 1841 364Z" />
<glyph glyph-name="questiondown" unicode="&#xbf;" horiz-adv-x="1189" d="M1040 91Q1019 -94 877.5 -210Q736 -326 520 -326Q296 -326 160 -223Q24 -120 24 45Q24 172 96 276.5Q168 381 305 441Q420 492 466 533Q512 574 526 641L533 677L852 677L843 621Q823 486 769.5 414Q716 342 600 291Q477 237 429 187Q381 137 381 71Q381 16 423 -19Q465 -54 536 -54Q600 -54 649.5 -14.5Q699 25 715 91ZM750 1164Q843 1164 901 1116.5Q959 1069 959 992Q959 908 900.5 852.5Q842 797 750 797Q661 797 601.5 845Q542 893 542 969Q542 1051 600 1107.5Q658 1164 750 1164Z" />
<glyph glyph-name="Agrave" unicode="&#xc0;" horiz-adv-x="1564" d="M933 1117L659 581L992 581L953 1117ZM1026 0L1003 317L530 317L368 0L-10 0L796 1443L1242 1443L1408 0ZM910 1596L711 1922L1063 1922L1214 1596Z" />
<glyph glyph-name="Aacute" unicode="&#xc1;" horiz-adv-x="1564" d="M933 1117L659 581L992 581L953 1117ZM1026 0L1003 317L530 317L368 0L-10 0L796 1443L1242 1443L1408 0ZM1188 1596L873 1596L1200 1922L1562 1922Z" />
<glyph glyph-name="Acircumflex" unicode="&#xc2;" horiz-adv-x="1564" d="M933 1117L659 581L992 581L953 1117ZM1026 0L1003 317L530 317L368 0L-10 0L796 1443L1242 1443L1408 0ZM1282 1945L1471 1596L1188 1596L1103 1789L1084 1789L917 1596L607 1596L944 1945Z" />
<glyph glyph-name="Atilde" unicode="&#xc3;" horiz-adv-x="1564" d="M933 1117L659 581L992 581L953 1117ZM1026 0L1003 317L530 317L368 0L-10 0L796 1443L1242 1443L1408 0ZM1238 1571Q1183 1571 1134.5 1595.5Q1086 1620 1057 1649.5Q1028 1679 995.5 1703.5Q963 1728 938 1728Q866 1728 852 1609L647 1609Q664 1747 740 1831.5Q816 1916 924 1916Q979 1916 1027.5 1891.5Q1076 1867 1105 1838Q1134 1809 1166.5 1784.5Q1199 1760 1224 1760Q1297 1760 1310 1878L1516 1878Q1499 1740 1422.5 1655.5Q1346 1571 1238 1571Z" />
<glyph glyph-name="Adieresis" unicode="&#xc4;" horiz-adv-x="1564" d="M933 1117L659 581L992 581L953 1117ZM1026 0L1003 317L530 317L368 0L-10 0L796 1443L1242 1443L1408 0ZM957.5 1627Q957.5 1627 933.25 1604Q909 1581 833 1581Q757 1581 708.5 1627Q660 1673 660 1745Q660 1817 708.5 1863Q757 1909 833 1909Q909 1909 957.5 1863Q1006 1817 1006 1745Q1006 1673 957.5 1627ZM1459 1627Q1459 1627 1434.5 1604Q1410 1581 1334 1581Q1258 1581 1209.5 1627Q1161 1673 1161 1745Q1161 1817 1209.5 1863Q1258 1909 1334 1909Q1410 1909 1459 1863Q1508 1817 1508 1745Q1508 1673 1459 1627Z" />
<glyph glyph-name="Aring" unicode="&#xc5;" horiz-adv-x="1564" d="M933 1117L659 581L992 581L953 1117ZM1026 0L1003 317L530 317L368 0L-10 0L796 1443L1242 1443L1408 0ZM1274 1612Q1274 1612 1238.5 1577.5Q1203 1543 1093 1543Q983 1543 911.5 1612Q840 1681 840 1788Q840 1894 911.5 1962Q983 2030 1093 2030Q1203 2030 1274 1962Q1345 1894 1345 1788Q1345 1681 1274 1612ZM1092 1690Q1135 1690 1162 1717.5Q1189 1745 1189 1787Q1189 1828 1161.5 1855.5Q1134 1883 1092 1883Q1050 1882 1023 1855Q996 1828 996 1787Q996 1744 1023 1717Q1050 1690 1092 1690Z" />
<glyph glyph-name="AE" unicode="&#xc6;" horiz-adv-x="2108" d="M1165 1167L1045 1167L706 592L1043 592ZM917 0L986 327L554 327L359 0L-10 0L863 1443L2200 1443L2137 1148L1490 1148L1429 858L2039 858L1981 588L1371 588L1309 295L1955 295L1893 0Z" />
<glyph glyph-name="Ccedilla" unicode="&#xc7;" horiz-adv-x="1570" d="M1577 908L1224 908Q1225 911 1225 927Q1222 1037 1148 1105.5Q1074 1174 957 1174Q841 1174 746 1099Q651 1024 596.5 891Q542 758 542 595Q542 444 615.5 356Q689 268 815 268Q927 268 1015.5 330.5Q1104 393 1138 496L1494 496Q1454 277 1289 134.5Q1124 -8 884 -34L833 -112Q981 -141 981 -279Q981 -379 907.5 -438Q834 -497 710 -497Q596 -497 518 -462L549 -320Q613 -345 688 -345Q773 -345 773 -293Q773 -236 667 -236L608 -236L628 -110L678 -32Q442 0 305.5 162Q169 324 169 574Q169 837 272.5 1044.5Q376 1252 560.5 1367Q745 1482 979 1482Q1146 1482 1284 1414Q1422 1346 1501 1227.5Q1580 1109 1580 966Q1580 929 1577 908Z" />
<glyph glyph-name="Egrave" unicode="&#xc8;" horiz-adv-x="1302" d="M1139 295L1076 0L87 0L394 1443L1383 1443L1319 1148L698 1148L637 860L1221 860L1164 590L580 590L517 295ZM781 1596L582 1922L934 1922L1085 1596Z" />
<glyph glyph-name="Eacute" unicode="&#xc9;" horiz-adv-x="1302" d="M1139 295L1076 0L87 0L394 1443L1383 1443L1319 1148L698 1148L637 860L1221 860L1164 590L580 590L517 295ZM1059 1596L744 1596L1071 1922L1433 1922Z" />
<glyph glyph-name="Ecircumflex" unicode="&#xca;" horiz-adv-x="1302" d="M1139 295L1076 0L87 0L394 1443L1383 1443L1319 1148L698 1148L637 860L1221 860L1164 590L580 590L517 295ZM1153 1945L1342 1596L1059 1596L974 1789L955 1789L788 1596L478 1596L815 1945Z" />
<glyph glyph-name="Edieresis" unicode="&#xcb;" horiz-adv-x="1302" d="M1139 295L1076 0L87 0L394 1443L1383 1443L1319 1148L698 1148L637 860L1221 860L1164 590L580 590L517 295ZM828.5 1627Q828.5 1627 804.25 1604Q780 1581 704 1581Q628 1581 579.5 1627Q531 1673 531 1745Q531 1817 579.5 1863Q628 1909 704 1909Q780 1909 828.5 1863Q877 1817 877 1745Q877 1673 828.5 1627ZM1330 1627Q1330 1627 1305.5 1604Q1281 1581 1205 1581Q1129 1581 1080.5 1627Q1032 1673 1032 1745Q1032 1817 1080.5 1863Q1129 1909 1205 1909Q1281 1909 1330 1863Q1379 1817 1379 1745Q1379 1673 1330 1627Z" />
<glyph glyph-name="Igrave" unicode="&#xcc;" horiz-adv-x="707" d="M454 0L87 0L394 1443L761 1443ZM470 1596L271 1922L623 1922L774 1596Z" />
<glyph glyph-name="Iacute" unicode="&#xcd;" horiz-adv-x="707" d="M454 0L87 0L394 1443L761 1443ZM748 1596L433 1596L760 1922L1122 1922Z" />
<glyph glyph-name="Icircumflex" unicode="&#xce;" horiz-adv-x="707" d="M454 0L87 0L394 1443L761 1443ZM842 1945L1031 1596L748 1596L663 1789L644 1789L477 1596L167 1596L504 1945Z" />
<glyph glyph-name="Idieresis" unicode="&#xcf;" horiz-adv-x="707" d="M454 0L87 0L394 1443L761 1443ZM517.5 1627Q517.5 1627 493.25 1604Q469 1581 393 1581Q317 1581 268.5 1627Q220 1673 220 1745Q220 1817 268.5 1863Q317 1909 393 1909Q469 1909 517.5 1863Q566 1817 566 1745Q566 1673 517.5 1627ZM1019 1627Q1019 1627 994.5 1604Q970 1581 894 1581Q818 1581 769.5 1627Q721 1673 721 1745Q721 1817 769.5 1863Q818 1909 894 1909Q970 1909 1019 1863Q1068 1817 1068 1745Q1068 1673 1019 1627Z" />
<glyph glyph-name="Eth" unicode="&#xd0;" horiz-adv-x="1561" d="M521 294L731 294Q919 294 1038 440.5Q1157 587 1157 830Q1157 977 1080 1063Q1003 1149 867 1149L701 1149L638 852L830 852L777 600L585 600ZM394 1443L963 1443Q1227 1443 1380.5 1292Q1534 1141 1534 873Q1534 622 1439 423.5Q1344 225 1170.5 112.5Q997 0 776 0L88 0L215 600L79 600L132 852L269 852Z" />
<glyph glyph-name="Ntilde" unicode="&#xd1;" horiz-adv-x="1600" d="M439 0L87 0L394 1443L654 1443L1104 601L1123 601L1302 1443L1654 1443L1347 0L1091 0L635 834L616 834ZM1211 1571Q1156 1571 1107.5 1595.5Q1059 1620 1030 1649.5Q1001 1679 968.5 1703.5Q936 1728 911 1728Q839 1728 825 1609L620 1609Q637 1747 713 1831.5Q789 1916 897 1916Q952 1916 1000.5 1891.5Q1049 1867 1078 1838Q1107 1809 1139.5 1784.5Q1172 1760 1197 1760Q1270 1760 1283 1878L1489 1878Q1472 1740 1395.5 1655.5Q1319 1571 1211 1571Z" />
<glyph glyph-name="Ograve" unicode="&#xd2;" horiz-adv-x="1638" d="M954 1169Q843 1169 748.5 1094.5Q654 1020 599 890.5Q544 761 544 606Q544 454 620.5 362.5Q697 271 825 271Q995 271 1115 434.5Q1235 598 1235 836Q1235 988 1158 1078.5Q1081 1169 954 1169ZM815 -39Q668 -39 546 8.5Q424 56 342 139Q260 222 215 335.5Q170 449 170 581Q170 777 231.5 946Q293 1115 399 1232Q505 1349 651.5 1415.5Q798 1482 965 1482Q1114 1482 1236.5 1434.5Q1359 1387 1439.5 1304Q1520 1221 1564 1107.5Q1608 994 1608 862Q1608 665 1547 496Q1486 327 1380 210Q1274 93 1127.5 27Q981 -39 815 -39ZM861 1596L662 1922L1014 1922L1165 1596Z" />
<glyph glyph-name="Oacute" unicode="&#xd3;" horiz-adv-x="1638" d="M954 1169Q843 1169 748.5 1094.5Q654 1020 599 890.5Q544 761 544 606Q544 454 620.5 362.5Q697 271 825 271Q995 271 1115 434.5Q1235 598 1235 836Q1235 988 1158 1078.5Q1081 1169 954 1169ZM815 -39Q668 -39 546 8.5Q424 56 342 139Q260 222 215 335.5Q170 449 170 581Q170 777 231.5 946Q293 1115 399 1232Q505 1349 651.5 1415.5Q798 1482 965 1482Q1114 1482 1236.5 1434.5Q1359 1387 1439.5 1304Q1520 1221 1564 1107.5Q1608 994 1608 862Q1608 665 1547 496Q1486 327 1380 210Q1274 93 1127.5 27Q981 -39 815 -39ZM1139 1596L824 1596L1151 1922L1513 1922Z" />
<glyph glyph-name="Ocircumflex" unicode="&#xd4;" horiz-adv-x="1638" d="M954 1169Q843 1169 748.5 1094.5Q654 1020 599 890.5Q544 761 544 606Q544 454 620.5 362.5Q697 271 825 271Q995 271 1115 434.5Q1235 598 1235 836Q1235 988 1158 1078.5Q1081 1169 954 1169ZM815 -39Q668 -39 546 8.5Q424 56 342 139Q260 222 215 335.5Q170 449 170 581Q170 777 231.5 946Q293 1115 399 1232Q505 1349 651.5 1415.5Q798 1482 965 1482Q1114 1482 1236.5 1434.5Q1359 1387 1439.5 1304Q1520 1221 1564 1107.5Q1608 994 1608 862Q1608 665 1547 496Q1486 327 1380 210Q1274 93 1127.5 27Q981 -39 815 -39ZM1233 1945L1422 1596L1139 1596L1054 1789L1035 1789L868 1596L558 1596L895 1945Z" />
<glyph glyph-name="Otilde" unicode="&#xd5;" horiz-adv-x="1638" d="M954 1169Q843 1169 748.5 1094.5Q654 1020 599 890.5Q544 761 544 606Q544 454 620.5 362.5Q697 271 825 271Q995 271 1115 434.5Q1235 598 1235 836Q1235 988 1158 1078.5Q1081 1169 954 1169ZM815 -39Q668 -39 546 8.5Q424 56 342 139Q260 222 215 335.5Q170 449 170 581Q170 777 231.5 946Q293 1115 399 1232Q505 1349 651.5 1415.5Q798 1482 965 1482Q1114 1482 1236.5 1434.5Q1359 1387 1439.5 1304Q1520 1221 1564 1107.5Q1608 994 1608 862Q1608 665 1547 496Q1486 327 1380 210Q1274 93 1127.5 27Q981 -39 815 -39ZM1189 1571Q1134 1571 1085.5 1595.5Q1037 1620 1008 1649.5Q979 1679 946.5 1703.5Q914 1728 889 1728Q817 1728 803 1609L598 1609Q615 1747 691 1831.5Q767 1916 875 1916Q930 1916 978.5 1891.5Q1027 1867 1056 1838Q1085 1809 1117.5 1784.5Q1150 1760 1175 1760Q1248 1760 1261 1878L1467 1878Q1450 1740 1373.5 1655.5Q1297 1571 1189 1571Z" />
<glyph glyph-name="Odieresis" unicode="&#xd6;" horiz-adv-x="1638" d="M954 1169Q843 1169 748.5 1094.5Q654 1020 599 890.5Q544 761 544 606Q544 454 620.5 362.5Q697 271 825 271Q995 271 1115 434.5Q1235 598 1235 836Q1235 988 1158 1078.5Q1081 1169 954 1169ZM815 -39Q668 -39 546 8.5Q424 56 342 139Q260 222 215 335.5Q170 449 170 581Q170 777 231.5 946Q293 1115 399 1232Q505 1349 651.5 1415.5Q798 1482 965 1482Q1114 1482 1236.5 1434.5Q1359 1387 1439.5 1304Q1520 1221 1564 1107.5Q1608 994 1608 862Q1608 665 1547 496Q1486 327 1380 210Q1274 93 1127.5 27Q981 -39 815 -39ZM908.5 1627Q908.5 1627 884.25 1604Q860 1581 784 1581Q708 1581 659.5 1627Q611 1673 611 1745Q611 1817 659.5 1863Q708 1909 784 1909Q860 1909 908.5 1863Q957 1817 957 1745Q957 1673 908.5 1627ZM1410 1627Q1410 1627 1385.5 1604Q1361 1581 1285 1581Q1209 1581 1160.5 1627Q1112 1673 1112 1745Q1112 1817 1160.5 1863Q1209 1909 1285 1909Q1361 1909 1410 1863Q1459 1817 1459 1745Q1459 1673 1410 1627Z" />
<glyph glyph-name="multiply" unicode="&#xd7;" horiz-adv-x="1461" d="M960 48L730 370L378 101L208 342L560 611L330 935L585 1112L808 800L1163 1068L1333 827L979 558L1215 225Z" />
<glyph glyph-name="Oslash" unicode="&#xd8;" horiz-adv-x="1614" d="M1180 1049L715 292Q764 271 825 271Q995 271 1115 434.5Q1235 598 1235 836Q1235 963 1180 1049ZM618 366L1087 1136Q1030 1169 954 1169Q843 1169 748.5 1094.5Q654 1020 599 890.5Q544 761 544 606Q544 457 618 366ZM1432 1459L1372 1362Q1486 1278 1547 1148.5Q1608 1019 1608 862Q1608 665 1547 496Q1486 327 1380 210Q1274 93 1127.5 27Q981 -39 815 -39Q665 -39 541 10L488 -77L386 -15L434 65Q307 147 238.5 281.5Q170 416 170 581Q170 777 231.5 946Q293 1115 399 1232Q505 1349 651.5 1415.5Q798 1482 965 1482Q1128 1482 1263 1424L1318 1515Z" />
<glyph glyph-name="Ugrave" unicode="&#xd9;" horiz-adv-x="1585" d="M796 -39Q523 -39 360.5 94Q198 227 198 440Q198 503 211 565L397 1443L765 1443L580 571Q570 524 570 480Q571 384 636.5 328.5Q702 273 808 273Q916 273 988 337Q1060 401 1085 522L1280 1443L1648 1443L1437 441Q1389 215 1219 88Q1049 -39 796 -39ZM908 1596L709 1922L1061 1922L1212 1596Z" />
<glyph glyph-name="Uacute" unicode="&#xda;" horiz-adv-x="1585" d="M796 -39Q523 -39 360.5 94Q198 227 198 440Q198 503 211 565L397 1443L765 1443L580 571Q570 524 570 480Q571 384 636.5 328.5Q702 273 808 273Q916 273 988 337Q1060 401 1085 522L1280 1443L1648 1443L1437 441Q1389 215 1219 88Q1049 -39 796 -39ZM1186 1596L871 1596L1198 1922L1560 1922Z" />
<glyph glyph-name="Ucircumflex" unicode="&#xdb;" horiz-adv-x="1585" d="M796 -39Q523 -39 360.5 94Q198 227 198 440Q198 503 211 565L397 1443L765 1443L580 571Q570 524 570 480Q571 384 636.5 328.5Q702 273 808 273Q916 273 988 337Q1060 401 1085 522L1280 1443L1648 1443L1437 441Q1389 215 1219 88Q1049 -39 796 -39ZM1280 1945L1469 1596L1186 1596L1101 1789L1082 1789L915 1596L605 1596L942 1945Z" />
<glyph glyph-name="Udieresis" unicode="&#xdc;" horiz-adv-x="1585" d="M796 -39Q523 -39 360.5 94Q198 227 198 440Q198 503 211 565L397 1443L765 1443L580 571Q570 524 570 480Q571 384 636.5 328.5Q702 273 808 273Q916 273 988 337Q1060 401 1085 522L1280 1443L1648 1443L1437 441Q1389 215 1219 88Q1049 -39 796 -39ZM955.5 1627Q955.5 1627 931.25 1604Q907 1581 831 1581Q755 1581 706.5 1627Q658 1673 658 1745Q658 1817 706.5 1863Q755 1909 831 1909Q907 1909 955.5 1863Q1004 1817 1004 1745Q1004 1673 955.5 1627ZM1457 1627Q1457 1627 1432.5 1604Q1408 1581 1332 1581Q1256 1581 1207.5 1627Q1159 1673 1159 1745Q1159 1817 1207.5 1863Q1256 1909 1332 1909Q1408 1909 1457 1863Q1506 1817 1506 1745Q1506 1673 1457 1627Z" />
<glyph glyph-name="Yacute" unicode="&#xdd;" horiz-adv-x="1507" d="M856 0L488 0L593 496L297 1443L680 1443L839 852L858 852L1263 1443L1659 1443L959 490ZM1144 1596L829 1596L1156 1922L1518 1922Z" />
<glyph glyph-name="Thorn" unicode="&#xde;" horiz-adv-x="1436" d="M88 0L395 1443L763 1443L716 1224L954 1224Q1150 1224 1278 1107Q1406 990 1406 811Q1406 660 1331 536Q1256 412 1119 339Q982 266 811 266L510 266L454 0ZM652 941L569 546L775 546Q896 546 969 608Q1042 670 1042 773Q1042 854 990.5 897.5Q939 941 841 941Z" />
<glyph glyph-name="germandbls" unicode="&#xdf;" horiz-adv-x="1441" d="M423 0L70 0L307 1094Q343 1261 491 1360Q639 1459 853 1459Q1085 1459 1231.5 1350.5Q1378 1242 1378 1069Q1378 942 1297 847.5Q1216 753 1091 730L1087 710Q1217 682 1287.5 605Q1358 528 1358 410Q1358 215 1218.5 99.5Q1079 -16 849 -16Q688 -16 573 26L632 292Q702 257 791 257Q886 257 945 305.5Q1004 354 1004 433Q1004 504 944.5 541.5Q885 579 780 579L703 579L761 854L833 854Q914 854 969.5 900Q1025 946 1025 1018Q1025 1089 975 1133Q925 1177 845 1177Q763 1177 707 1124.5Q651 1072 630 973Z" />
<glyph glyph-name="agrave" unicode="&#xe0;" horiz-adv-x="1241" d="M557 229Q635 229 696 274.5Q757 320 772 388L790 471L593 465Q510 462 462 427.5Q414 393 414 337Q414 289 454 259Q494 229 557 229ZM398 -17Q258 -17 164.5 69.5Q71 156 71 286Q71 457 205.5 557.5Q340 658 576 665L833 672L847 739Q852 769 852 774Q852 822 809 850.5Q766 879 695 879Q569 879 528 796L204 796Q238 953 378.5 1046Q519 1139 720 1139Q934 1139 1066 1047Q1198 955 1198 805Q1198 758 1189 715L1036 0L693 0L721 134L702 134Q659 65 576 24Q493 -17 398 -17ZM959 1288L660 1288L446 1647L790 1647Z" />
<glyph glyph-name="aacute" unicode="&#xe1;" horiz-adv-x="1241" d="M557 229Q635 229 696 274.5Q757 320 772 388L790 471L593 465Q510 462 462 427.5Q414 393 414 337Q414 289 454 259Q494 229 557 229ZM398 -17Q258 -17 164.5 69.5Q71 156 71 286Q71 457 205.5 557.5Q340 658 576 665L833 672L847 739Q852 769 852 774Q852 822 809 850.5Q766 879 695 879Q569 879 528 796L204 796Q238 953 378.5 1046Q519 1139 720 1139Q934 1139 1066 1047Q1198 955 1198 805Q1198 758 1189 715L1036 0L693 0L721 134L702 134Q659 65 576 24Q493 -17 398 -17ZM970 1288L651 1288L973 1647L1337 1647Z" />
<glyph glyph-name="acircumflex" unicode="&#xe2;" horiz-adv-x="1241" d="M557 229Q635 229 696 274.5Q757 320 772 388L790 471L593 465Q510 462 462 427.5Q414 393 414 337Q414 289 454 259Q494 229 557 229ZM398 -17Q258 -17 164.5 69.5Q71 156 71 286Q71 457 205.5 557.5Q340 658 576 665L833 672L847 739Q852 769 852 774Q852 822 809 850.5Q766 879 695 879Q569 879 528 796L204 796Q238 953 378.5 1046Q519 1139 720 1139Q934 1139 1066 1047Q1198 955 1198 805Q1198 758 1189 715L1036 0L693 0L721 134L702 134Q659 65 576 24Q493 -17 398 -17ZM991 1619L1186 1260L902 1260L812 1462L793 1462L616 1260L305 1260L653 1619Z" />
<glyph glyph-name="atilde" unicode="&#xe3;" horiz-adv-x="1241" d="M557 229Q635 229 696 274.5Q757 320 772 388L790 471L593 465Q510 462 462 427.5Q414 393 414 337Q414 289 454 259Q494 229 557 229ZM398 -17Q258 -17 164.5 69.5Q71 156 71 286Q71 457 205.5 557.5Q340 658 576 665L833 672L847 739Q852 769 852 774Q852 822 809 850.5Q766 879 695 879Q569 879 528 796L204 796Q238 953 378.5 1046Q519 1139 720 1139Q934 1139 1066 1047Q1198 955 1198 805Q1198 758 1189 715L1036 0L693 0L721 134L702 134Q659 65 576 24Q493 -17 398 -17ZM959 1257Q904 1257 855.5 1281.5Q807 1306 778 1335.5Q749 1365 716.5 1389.5Q684 1414 659 1414Q587 1414 573 1295L368 1295Q385 1433 461 1517.5Q537 1602 645 1602Q700 1602 748.5 1577.5Q797 1553 826 1524Q855 1495 887.5 1470.5Q920 1446 945 1446Q1018 1446 1031 1564L1237 1564Q1220 1426 1143.5 1341.5Q1067 1257 959 1257Z" />
<glyph glyph-name="adieresis" unicode="&#xe4;" horiz-adv-x="1241" d="M557 229Q635 229 696 274.5Q757 320 772 388L790 471L593 465Q510 462 462 427.5Q414 393 414 337Q414 289 454 259Q494 229 557 229ZM398 -17Q258 -17 164.5 69.5Q71 156 71 286Q71 457 205.5 557.5Q340 658 576 665L833 672L847 739Q852 769 852 774Q852 822 809 850.5Q766 879 695 879Q569 879 528 796L204 796Q238 953 378.5 1046Q519 1139 720 1139Q934 1139 1066 1047Q1198 955 1198 805Q1198 758 1189 715L1036 0L693 0L721 134L702 134Q659 65 576 24Q493 -17 398 -17ZM668.5 1306Q668.5 1306 644.25 1283Q620 1260 544 1260Q468 1260 419.5 1306Q371 1352 371 1424Q371 1496 419.5 1542Q468 1588 544 1588Q620 1588 668.5 1542Q717 1496 717 1424Q717 1352 668.5 1306ZM1170 1306Q1170 1306 1145.5 1283Q1121 1260 1045 1260Q969 1260 920.5 1306Q872 1352 872 1424Q872 1496 920.5 1542Q969 1588 1045 1588Q1121 1588 1170 1542Q1219 1496 1219 1424Q1219 1352 1170 1306Z" />
<glyph glyph-name="aring" unicode="&#xe5;" horiz-adv-x="1241" d="M557 229Q635 229 696 274.5Q757 320 772 388L790 471L593 465Q510 462 462 427.5Q414 393 414 337Q414 289 454 259Q494 229 557 229ZM398 -17Q258 -17 164.5 69.5Q71 156 71 286Q71 457 205.5 557.5Q340 658 576 665L833 672L847 739Q852 769 852 774Q852 822 809 850.5Q766 879 695 879Q569 879 528 796L204 796Q238 953 378.5 1046Q519 1139 720 1139Q934 1139 1066 1047Q1198 955 1198 805Q1198 758 1189 715L1036 0L693 0L721 134L702 134Q659 65 576 24Q493 -17 398 -17ZM1047 1329Q1047 1329 1011.5 1294.5Q976 1260 866 1260Q756 1260 684.5 1329Q613 1398 613 1505Q613 1611 684.5 1679Q756 1747 866 1747Q976 1747 1047 1679Q1118 1611 1118 1505Q1118 1398 1047 1329ZM865 1407Q908 1407 935 1434.5Q962 1462 962 1504Q962 1545 934.5 1572.5Q907 1600 865 1600Q823 1599 796 1572Q769 1545 769 1504Q769 1461 796 1434Q823 1407 865 1407Z" />
<glyph glyph-name="ae" unicode="&#xe6;" horiz-adv-x="1956" d="M1309 -26Q1187 -26 1076.5 27Q966 80 921 161L902 161Q845 80 733 27Q621 -26 487 -26Q308 -26 190.5 65.5Q73 157 73 292Q73 470 204.5 569Q336 668 579 675L836 682L849 739Q854 756 854 774Q854 822 811 850.5Q768 879 697 879Q570 879 531 796L207 796Q242 958 378 1048.5Q514 1139 713 1139Q825 1139 915 1097Q1005 1055 1046 988L1065 988Q1133 1061 1225 1100Q1317 1139 1423 1139Q1627 1139 1764 1006Q1901 873 1901 666Q1901 581 1881 479L1117 479L1117 458Q1117 348 1175.5 288.5Q1234 229 1329 229Q1399 229 1447.5 256.5Q1496 284 1517 334L1849 334Q1808 170 1662.5 72Q1517 -26 1309 -26ZM1153 681L1576 681Q1580 693 1580 717Q1580 791 1530 839Q1480 887 1399 887Q1311 887 1244 830.5Q1177 774 1153 681ZM560 220Q636 220 698 269Q760 318 774 388L792 471L595 465Q512 462 464 427.5Q416 393 416 335Q416 286 456.5 253Q497 220 560 220Z" />
<glyph glyph-name="ccedilla" unicode="&#xe7;" horiz-adv-x="1249" d="M1227 713L898 713Q897 786 850 826Q803 866 729 866Q613 866 541.5 751.5Q470 637 470 464Q470 356 520.5 301.5Q571 247 645 247Q718 247 770 286Q822 325 844 399L1175 399Q1152 234 1027 116.5Q902 -1 704 -22L646 -112Q794 -141 794 -279Q794 -379 720.5 -438Q647 -497 523 -497Q409 -497 331 -462L362 -320Q426 -345 501 -345Q586 -345 586 -293Q586 -236 480 -236L421 -236L441 -110L502 -15Q323 17 222 138Q121 259 121 443Q121 641 198 799Q275 957 419.5 1048Q564 1139 751 1139Q859 1139 949.5 1105.5Q1040 1072 1098.5 1017Q1157 962 1190.5 894.5Q1224 827 1227 755Q1227 751 1227 742.5Q1227 734 1227 726.5Q1227 719 1227 713Z" />
<glyph glyph-name="egrave" unicode="&#xe8;" horiz-adv-x="1288" d="M486 681L909 681Q912 699 912 717Q912 791 862 839Q812 887 731 887Q643 887 576 830.5Q509 774 486 681ZM639 -26Q405 -26 264.5 103.5Q124 233 124 456Q124 761 295 950Q466 1139 740 1139Q956 1139 1095.5 1008Q1235 877 1235 666Q1235 581 1215 479L450 479Q449 475 449 458Q449 348 507.5 288.5Q566 229 661 229Q732 229 781 257Q830 285 850 334L1182 334Q1141 169 995.5 71.5Q850 -26 639 -26ZM913 1288L614 1288L400 1647L744 1647Z" />
<glyph glyph-name="eacute" unicode="&#xe9;" horiz-adv-x="1288" d="M486 681L909 681Q912 699 912 717Q912 791 862 839Q812 887 731 887Q643 887 576 830.5Q509 774 486 681ZM639 -26Q405 -26 264.5 103.5Q124 233 124 456Q124 761 295 950Q466 1139 740 1139Q956 1139 1095.5 1008Q1235 877 1235 666Q1235 581 1215 479L450 479Q449 475 449 458Q449 348 507.5 288.5Q566 229 661 229Q732 229 781 257Q830 285 850 334L1182 334Q1141 169 995.5 71.5Q850 -26 639 -26ZM924 1288L605 1288L927 1647L1291 1647Z" />
<glyph glyph-name="ecircumflex" unicode="&#xea;" horiz-adv-x="1288" d="M486 681L909 681Q912 699 912 717Q912 791 862 839Q812 887 731 887Q643 887 576 830.5Q509 774 486 681ZM639 -26Q405 -26 264.5 103.5Q124 233 124 456Q124 761 295 950Q466 1139 740 1139Q956 1139 1095.5 1008Q1235 877 1235 666Q1235 581 1215 479L450 479Q449 475 449 458Q449 348 507.5 288.5Q566 229 661 229Q732 229 781 257Q830 285 850 334L1182 334Q1141 169 995.5 71.5Q850 -26 639 -26ZM999 1619L1194 1260L910 1260L820 1462L801 1462L624 1260L313 1260L661 1619Z" />
<glyph glyph-name="edieresis" unicode="&#xeb;" horiz-adv-x="1288" d="M486 681L909 681Q912 699 912 717Q912 791 862 839Q812 887 731 887Q643 887 576 830.5Q509 774 486 681ZM639 -26Q405 -26 264.5 103.5Q124 233 124 456Q124 761 295 950Q466 1139 740 1139Q956 1139 1095.5 1008Q1235 877 1235 666Q1235 581 1215 479L450 479Q449 475 449 458Q449 348 507.5 288.5Q566 229 661 229Q732 229 781 257Q830 285 850 334L1182 334Q1141 169 995.5 71.5Q850 -26 639 -26ZM676.5 1306Q676.5 1306 652.25 1283Q628 1260 552 1260Q476 1260 427.5 1306Q379 1352 379 1424Q379 1496 427.5 1542Q476 1588 552 1588Q628 1588 676.5 1542Q725 1496 725 1424Q725 1352 676.5 1306ZM1178 1306Q1178 1306 1153.5 1283Q1129 1260 1053 1260Q977 1260 928.5 1306Q880 1352 880 1424Q880 1496 928.5 1542Q977 1588 1053 1588Q1129 1588 1178 1542Q1227 1496 1227 1424Q1227 1352 1178 1306Z" />
<glyph glyph-name="igrave" unicode="&#xec;" horiz-adv-x="643" d="M62 0L298 1113L652 1113L415 0ZM651 1288L352 1288L138 1647L482 1647Z" />
<glyph glyph-name="iacute" unicode="&#xed;" horiz-adv-x="643" d="M62 0L298 1113L652 1113L415 0ZM662 1288L343 1288L665 1647L1029 1647Z" />
<glyph glyph-name="icircumflex" unicode="&#xee;" horiz-adv-x="643" d="M62 0L298 1113L652 1113L415 0ZM737 1619L932 1260L648 1260L558 1462L539 1462L362 1260L51 1260L399 1619Z" />
<glyph glyph-name="idieresis" unicode="&#xef;" horiz-adv-x="643" d="M62 0L298 1113L652 1113L415 0ZM414.5 1306Q414.5 1306 390.25 1283Q366 1260 290 1260Q214 1260 165.5 1306Q117 1352 117 1424Q117 1496 165.5 1542Q214 1588 290 1588Q366 1588 414.5 1542Q463 1496 463 1424Q463 1352 414.5 1306ZM916 1306Q916 1306 891.5 1283Q867 1260 791 1260Q715 1260 666.5 1306Q618 1352 618 1424Q618 1496 666.5 1542Q715 1588 791 1588Q867 1588 916 1542Q965 1496 965 1424Q965 1352 916 1306Z" />
<glyph glyph-name="eth" unicode="&#xf0;" horiz-adv-x="1361" d="M656 -26Q423 -26 272 113Q121 252 121 465Q121 635 189 774.5Q257 914 377.5 993.5Q498 1073 645 1073Q745 1073 829.5 1034Q914 995 950 933L969 931Q961 1069 872 1217L581 1128L548 1289L766 1356Q693 1438 587 1517L990 1517Q1032 1478 1058 1447L1320 1531L1355 1370L1163 1310Q1321 1062 1321 776Q1321 615 1278 474Q1207 242 1041 108Q875 -26 656 -26ZM942 609Q942 705 888.5 763.5Q835 822 747 822Q643 822 565 716Q487 610 487 470Q487 373 539 315.5Q591 258 678 258Q782 258 862 364Q942 470 942 609Z" />
<glyph glyph-name="ntilde" unicode="&#xf1;" horiz-adv-x="1331" d="M50 0L288 1113L631 1113L592 932L611 932Q667 1025 755 1077.5Q843 1130 956 1130Q1106 1130 1194.5 1040Q1283 950 1283 808Q1283 746 1268 674L1125 0L773 0L905 619Q913 658 913 695Q913 763 871.5 806.5Q830 850 757 850Q676 850 618.5 793.5Q561 737 542 647L403 0ZM1039 1257Q984 1257 935.5 1281.5Q887 1306 858 1335.5Q829 1365 796.5 1389.5Q764 1414 739 1414Q667 1414 653 1295L448 1295Q465 1433 541 1517.5Q617 1602 725 1602Q780 1602 828.5 1577.5Q877 1553 906 1524Q935 1495 967.5 1470.5Q1000 1446 1025 1446Q1098 1446 1111 1564L1317 1564Q1300 1426 1223.5 1341.5Q1147 1257 1039 1257Z" />
<glyph glyph-name="ograve" unicode="&#xf2;" horiz-adv-x="1331" d="M658 246Q766 246 844 361Q922 476 922 634Q922 745 879 807Q836 869 758 869Q647 869 569 753.5Q491 638 491 474Q491 367 535.5 306.5Q580 246 658 246ZM774 1139Q1009 1139 1150 1003Q1291 867 1291 641Q1291 500 1241.5 376.5Q1192 253 1106.5 164.5Q1021 76 901 25Q781 -26 644 -26Q409 -26 266.5 110Q124 246 124 471Q124 659 208.5 812Q293 965 442 1052Q591 1139 774 1139ZM937 1288L638 1288L424 1647L768 1647Z" />
<glyph glyph-name="oacute" unicode="&#xf3;" horiz-adv-x="1331" d="M658 246Q766 246 844 361Q922 476 922 634Q922 745 879 807Q836 869 758 869Q647 869 569 753.5Q491 638 491 474Q491 367 535.5 306.5Q580 246 658 246ZM774 1139Q1009 1139 1150 1003Q1291 867 1291 641Q1291 500 1241.5 376.5Q1192 253 1106.5 164.5Q1021 76 901 25Q781 -26 644 -26Q409 -26 266.5 110Q124 246 124 471Q124 659 208.5 812Q293 965 442 1052Q591 1139 774 1139ZM948 1288L629 1288L951 1647L1315 1647Z" />
<glyph glyph-name="ocircumflex" unicode="&#xf4;" horiz-adv-x="1331" d="M658 246Q766 246 844 361Q922 476 922 634Q922 745 879 807Q836 869 758 869Q647 869 569 753.5Q491 638 491 474Q491 367 535.5 306.5Q580 246 658 246ZM774 1139Q1009 1139 1150 1003Q1291 867 1291 641Q1291 500 1241.5 376.5Q1192 253 1106.5 164.5Q1021 76 901 25Q781 -26 644 -26Q409 -26 266.5 110Q124 246 124 471Q124 659 208.5 812Q293 965 442 1052Q591 1139 774 1139ZM1023 1619L1218 1260L934 1260L844 1462L825 1462L648 1260L337 1260L685 1619Z" />
<glyph glyph-name="otilde" unicode="&#xf5;" horiz-adv-x="1331" d="M658 246Q766 246 844 361Q922 476 922 634Q922 745 879 807Q836 869 758 869Q647 869 569 753.5Q491 638 491 474Q491 367 535.5 306.5Q580 246 658 246ZM774 1139Q1009 1139 1150 1003Q1291 867 1291 641Q1291 500 1241.5 376.5Q1192 253 1106.5 164.5Q1021 76 901 25Q781 -26 644 -26Q409 -26 266.5 110Q124 246 124 471Q124 659 208.5 812Q293 965 442 1052Q591 1139 774 1139ZM991 1257Q936 1257 887.5 1281.5Q839 1306 810 1335.5Q781 1365 748.5 1389.5Q716 1414 691 1414Q619 1414 605 1295L400 1295Q417 1433 493 1517.5Q569 1602 677 1602Q732 1602 780.5 1577.5Q829 1553 858 1524Q887 1495 919.5 1470.5Q952 1446 977 1446Q1050 1446 1063 1564L1269 1564Q1252 1426 1175.5 1341.5Q1099 1257 991 1257Z" />
<glyph glyph-name="odieresis" unicode="&#xf6;" horiz-adv-x="1331" d="M658 246Q766 246 844 361Q922 476 922 634Q922 745 879 807Q836 869 758 869Q647 869 569 753.5Q491 638 491 474Q491 367 535.5 306.5Q580 246 658 246ZM774 1139Q1009 1139 1150 1003Q1291 867 1291 641Q1291 500 1241.5 376.5Q1192 253 1106.5 164.5Q1021 76 901 25Q781 -26 644 -26Q409 -26 266.5 110Q124 246 124 471Q124 659 208.5 812Q293 965 442 1052Q591 1139 774 1139ZM700.5 1306Q700.5 1306 676.25 1283Q652 1260 576 1260Q500 1260 451.5 1306Q403 1352 403 1424Q403 1496 451.5 1542Q500 1588 576 1588Q652 1588 700.5 1542Q749 1496 749 1424Q749 1352 700.5 1306ZM1202 1306Q1202 1306 1177.5 1283Q1153 1260 1077 1260Q1001 1260 952.5 1306Q904 1352 904 1424Q904 1496 952.5 1542Q1001 1588 1077 1588Q1153 1588 1202 1542Q1251 1496 1251 1424Q1251 1352 1202 1306Z" />
<glyph glyph-name="divide" unicode="&#xf7;" horiz-adv-x="1461" d="M1302 459L189 459L244 714L1357 714ZM985 866Q985 866 960 840.5Q935 815 849 815Q763 815 712.5 864Q662 913 662 984Q662 1065 712 1116.5Q762 1168 849 1168Q934 1168 984.5 1118.5Q1035 1069 1035 998Q1035 917 985 866ZM676 4Q590 4 539.5 53Q489 102 489 173Q489 254 539 305.5Q589 357 676 357Q761 357 812 307.5Q863 258 863 187Q863 106 813 55Q763 4 676 4Z" />
<glyph glyph-name="oslash" unicode="&#xf8;" horiz-adv-x="1344" d="M911 731L550 289Q593 246 658 246Q766 246 844 361Q922 476 922 634Q922 687 911 731ZM498 398L854 835Q814 869 758 869Q647 869 569 753.5Q491 638 491 474Q491 430 498 398ZM1243 1137L1141 1012Q1291 876 1291 641Q1291 500 1241.5 376.5Q1192 253 1106.5 164.5Q1021 76 901 25Q781 -26 644 -26Q475 -26 352 46L243 -87L153 -26L265 111Q124 247 124 471Q124 659 208.5 812Q293 965 442 1052Q591 1139 774 1139Q932 1139 1050 1076L1146 1194Z" />
<glyph glyph-name="ugrave" unicode="&#xf9;" horiz-adv-x="1332" d="M1352 1113L1117 0L773 0L810 175L791 175Q679 -26 466 -26Q311 -26 216 62Q121 150 121 300Q121 354 136 441L277 1113L632 1113L501 498Q494 463 494 425Q494 264 649 264Q732 264 786 318.5Q840 373 861 470L998 1113ZM990 1288L691 1288L477 1647L821 1647Z" />
<glyph glyph-name="uacute" unicode="&#xfa;" horiz-adv-x="1332" d="M1352 1113L1117 0L773 0L810 175L791 175Q679 -26 466 -26Q311 -26 216 62Q121 150 121 300Q121 354 136 441L277 1113L632 1113L501 498Q494 463 494 425Q494 264 649 264Q732 264 786 318.5Q840 373 861 470L998 1113ZM1001 1288L682 1288L1004 1647L1368 1647Z" />
<glyph glyph-name="ucircumflex" unicode="&#xfb;" horiz-adv-x="1332" d="M1352 1113L1117 0L773 0L810 175L791 175Q679 -26 466 -26Q311 -26 216 62Q121 150 121 300Q121 354 136 441L277 1113L632 1113L501 498Q494 463 494 425Q494 264 649 264Q732 264 786 318.5Q840 373 861 470L998 1113ZM1076 1619L1271 1260L987 1260L897 1462L878 1462L701 1260L390 1260L738 1619Z" />
<glyph glyph-name="udieresis" unicode="&#xfc;" horiz-adv-x="1332" d="M1352 1113L1117 0L773 0L810 175L791 175Q679 -26 466 -26Q311 -26 216 62Q121 150 121 300Q121 354 136 441L277 1113L632 1113L501 498Q494 463 494 425Q494 264 649 264Q732 264 786 318.5Q840 373 861 470L998 1113ZM753.5 1306Q753.5 1306 729.25 1283Q705 1260 629 1260Q553 1260 504.5 1306Q456 1352 456 1424Q456 1496 504.5 1542Q553 1588 629 1588Q705 1588 753.5 1542Q802 1496 802 1424Q802 1352 753.5 1306ZM1255 1306Q1255 1306 1230.5 1283Q1206 1260 1130 1260Q1054 1260 1005.5 1306Q957 1352 957 1424Q957 1496 1005.5 1542Q1054 1588 1130 1588Q1206 1588 1255 1542Q1304 1496 1304 1424Q1304 1352 1255 1306Z" />
<glyph glyph-name="yacute" unicode="&#xfd;" horiz-adv-x="1258" d="M117 -407Q-12 -407 -24 -404L33 -136Q45 -139 103 -139Q279 -139 318 -40L330 -7L203 1113L566 1113L596 304L615 304L985 1113L1362 1113L762 -10Q649 -225 499.5 -316Q350 -407 117 -407ZM965 1288L646 1288L968 1647L1332 1647Z" />
<glyph glyph-name="thorn" unicode="&#xfe;" horiz-adv-x="1378" d="M693 266Q806 266 885.5 376Q965 486 965 647Q965 747 915 801.5Q865 856 787 856Q675 856 594 743Q513 630 513 477Q513 377 564 321.5Q615 266 693 266ZM449 200L334 -339L-20 -339L373 1508L727 1508L610 958L629 958Q683 1038 767 1084.5Q851 1131 957 1131Q1124 1131 1228 1016.5Q1332 902 1332 707Q1332 501 1259 335Q1186 169 1059 76Q932 -17 776 -17Q658 -17 576.5 42.5Q495 102 468 200Z" />
<glyph glyph-name="ydieresis" unicode="&#xff;" horiz-adv-x="1258" d="M117 -407Q-12 -407 -24 -404L33 -136Q45 -139 103 -139Q279 -139 318 -40L330 -7L203 1113L566 1113L596 304L615 304L985 1113L1362 1113L762 -10Q649 -225 499.5 -316Q350 -407 117 -407ZM717.5 1306Q717.5 1306 693.25 1283Q669 1260 593 1260Q517 1260 468.5 1306Q420 1352 420 1424Q420 1496 468.5 1542Q517 1588 593 1588Q669 1588 717.5 1542Q766 1496 766 1424Q766 1352 717.5 1306ZM1219 1306Q1219 1306 1194.5 1283Q1170 1260 1094 1260Q1018 1260 969.5 1306Q921 1352 921 1424Q921 1496 969.5 1542Q1018 1588 1094 1588Q1170 1588 1219 1542Q1268 1496 1268 1424Q1268 1352 1219 1306Z" />
<glyph glyph-name="Amacron" unicode="&#x0100;" horiz-adv-x="1564" d="M933 1117L659 581L992 581L953 1117ZM1026 0L1003 317L530 317L368 0L-10 0L796 1443L1242 1443L1408 0ZM1493 1835L1451 1637L669 1637L711 1835Z" />
<glyph glyph-name="amacron" unicode="&#x0101;" horiz-adv-x="1241" d="M557 229Q635 229 696 274.5Q757 320 772 388L790 471L593 465Q510 462 462 427.5Q414 393 414 337Q414 289 454 259Q494 229 557 229ZM398 -17Q258 -17 164.5 69.5Q71 156 71 286Q71 457 205.5 557.5Q340 658 576 665L833 672L847 739Q852 769 852 774Q852 822 809 850.5Q766 879 695 879Q569 879 528 796L204 796Q238 953 378.5 1046Q519 1139 720 1139Q934 1139 1066 1047Q1198 955 1198 805Q1198 758 1189 715L1036 0L693 0L721 134L702 134Q659 65 576 24Q493 -17 398 -17ZM1200 1525L1158 1327L391 1327L433 1525Z" />
<glyph glyph-name="Abreve" unicode="&#x0102;" horiz-adv-x="1564" d="M933 1117L659 581L992 581L953 1117ZM1026 0L1003 317L530 317L368 0L-10 0L796 1443L1242 1443L1408 0ZM670 1932L903 1932Q902 1923 902 1907Q902 1846 951 1806.5Q1000 1767 1076 1767Q1239 1767 1273 1932L1505 1932Q1485 1772 1369 1676.5Q1253 1581 1068 1581Q893 1581 780 1670Q667 1759 667 1892Q667 1912 670 1932Z" />
<glyph glyph-name="abreve" unicode="&#x0103;" horiz-adv-x="1241" d="M557 229Q635 229 696 274.5Q757 320 772 388L790 471L593 465Q510 462 462 427.5Q414 393 414 337Q414 289 454 259Q494 229 557 229ZM398 -17Q258 -17 164.5 69.5Q71 156 71 286Q71 457 205.5 557.5Q340 658 576 665L833 672L847 739Q852 769 852 774Q852 822 809 850.5Q766 879 695 879Q569 879 528 796L204 796Q238 953 378.5 1046Q519 1139 720 1139Q934 1139 1066 1047Q1198 955 1198 805Q1198 758 1189 715L1036 0L693 0L721 134L702 134Q659 65 576 24Q493 -17 398 -17ZM402 1620L636 1620Q635 1611 635 1591Q635 1527 683 1486.5Q731 1446 808 1446Q978 1446 1009 1620L1242 1620Q1225 1454 1108 1357Q991 1260 800 1260Q623 1260 511 1349Q399 1438 399 1573Q399 1598 402 1620Z" />
<glyph glyph-name="Aogonek" unicode="&#x0104;" horiz-adv-x="1564" d="M1271 -286L1233 -465Q1197 -479 1123 -479Q986 -479 903 -418.5Q820 -358 820 -259Q820 -180 876.5 -106Q933 -32 1025 7L1003 317L530 317L368 0L-10 0L796 1443L1242 1443L1408 0L1342 -3Q1236 -11 1161.5 -66Q1087 -121 1087 -193Q1087 -238 1122.5 -264Q1158 -290 1219 -290Q1255 -290 1271 -286ZM933 1117L659 581L992 581L953 1117Z" />
<glyph glyph-name="aogonek" unicode="&#x0105;" horiz-adv-x="1241" d="M557 229Q635 229 696 274.5Q757 320 772 388L790 471L593 465Q510 462 462 427.5Q414 393 414 337Q414 289 454 259Q494 229 557 229ZM911 -465Q873 -479 801 -479Q664 -479 581 -418.5Q498 -358 498 -259Q498 -180 552 -113Q606 -46 690 -13L721 134L702 134Q659 65 576 24Q493 -17 398 -17Q258 -17 164.5 69.5Q71 156 71 286Q71 457 205.5 557.5Q340 658 576 665L833 672L847 739Q852 769 852 774Q852 822 809 850.5Q766 879 695 879Q569 879 528 796L204 796Q238 953 378.5 1046Q519 1139 720 1139Q934 1139 1066 1047Q1198 955 1198 805Q1198 758 1189 715L1036 -2L1021 -3Q916 -11 840.5 -66.5Q765 -122 765 -193Q765 -238 801 -264Q837 -290 898 -290Q935 -290 949 -286Z" />
<glyph glyph-name="Cacute" unicode="&#x0106;" horiz-adv-x="1570" d="M1224 908Q1225 911 1225 927Q1222 1037 1148 1105.5Q1074 1174 957 1174Q841 1174 746 1099Q651 1024 596.5 891Q542 758 542 595Q542 444 615.5 356Q689 268 815 268Q927 268 1015.5 330.5Q1104 393 1138 496L1494 496Q1450 254 1256.5 107.5Q1063 -39 787 -39Q505 -39 337 128Q169 295 169 574Q169 837 272.5 1044.5Q376 1252 560.5 1367Q745 1482 979 1482Q1146 1482 1284 1414Q1422 1346 1501 1227.5Q1580 1109 1580 966Q1580 929 1577 908ZM1137 1597L822 1597L1149 1923L1511 1923Z" />
<glyph glyph-name="cacute" unicode="&#x0107;" horiz-adv-x="1256" d="M751 1139Q859 1139 949.5 1105.5Q1040 1072 1098.5 1017Q1157 962 1190.5 894.5Q1224 827 1227 755Q1227 751 1227 742.5Q1227 734 1227 726.5Q1227 719 1227 713L898 713Q897 786 850 826Q803 866 729 866Q613 866 541.5 751.5Q470 637 470 464Q470 356 520.5 301.5Q571 247 645 247Q718 247 770 286Q822 325 844 399L1175 399Q1149 217 1002.5 95.5Q856 -26 626 -26Q393 -26 257 101Q121 228 121 443Q121 641 198 799Q275 957 419.5 1048Q564 1139 751 1139ZM942 1288L623 1288L945 1647L1309 1647Z" />
<glyph glyph-name="Ccircumflex" unicode="&#x0108;" horiz-adv-x="1570" d="M1224 908Q1225 911 1225 927Q1222 1037 1148 1105.5Q1074 1174 957 1174Q841 1174 746 1099Q651 1024 596.5 891Q542 758 542 595Q542 444 615.5 356Q689 268 815 268Q927 268 1015.5 330.5Q1104 393 1138 496L1494 496Q1450 254 1256.5 107.5Q1063 -39 787 -39Q505 -39 337 128Q169 295 169 574Q169 837 272.5 1044.5Q376 1252 560.5 1367Q745 1482 979 1482Q1146 1482 1284 1414Q1422 1346 1501 1227.5Q1580 1109 1580 966Q1580 929 1577 908ZM1231 1946L1420 1597L1137 1597L1052 1790L1033 1790L866 1597L556 1597L893 1946Z" />
<glyph glyph-name="ccircumflex" unicode="&#x0109;" horiz-adv-x="1256" d="M751 1139Q859 1139 949.5 1105.5Q1040 1072 1098.5 1017Q1157 962 1190.5 894.5Q1224 827 1227 755Q1227 751 1227 742.5Q1227 734 1227 726.5Q1227 719 1227 713L898 713Q897 786 850 826Q803 866 729 866Q613 866 541.5 751.5Q470 637 470 464Q470 356 520.5 301.5Q571 247 645 247Q718 247 770 286Q822 325 844 399L1175 399Q1149 217 1002.5 95.5Q856 -26 626 -26Q393 -26 257 101Q121 228 121 443Q121 641 198 799Q275 957 419.5 1048Q564 1139 751 1139ZM1017 1619L1212 1260L928 1260L838 1462L819 1462L642 1260L331 1260L679 1619Z" />
<glyph glyph-name="Cdotaccent" unicode="&#x010a;" horiz-adv-x="1570" d="M1224 908Q1225 911 1225 927Q1222 1037 1148 1105.5Q1074 1174 957 1174Q841 1174 746 1099Q651 1024 596.5 891Q542 758 542 595Q542 444 615.5 356Q689 268 815 268Q927 268 1015.5 330.5Q1104 393 1138 496L1494 496Q1450 254 1256.5 107.5Q1063 -39 787 -39Q505 -39 337 128Q169 295 169 574Q169 837 272.5 1044.5Q376 1252 560.5 1367Q745 1482 979 1482Q1146 1482 1284 1414Q1422 1346 1501 1227.5Q1580 1109 1580 966Q1580 929 1577 908ZM1037 1582Q958 1582 909 1630.5Q860 1679 860 1754Q860 1829 909 1877.5Q958 1926 1037 1926Q1115 1926 1164 1877.5Q1213 1829 1213 1754Q1213 1679 1164 1630.5Q1115 1582 1037 1582Z" />
<glyph glyph-name="cdotaccent" unicode="&#x010b;" horiz-adv-x="1256" d="M751 1139Q859 1139 949.5 1105.5Q1040 1072 1098.5 1017Q1157 962 1190.5 894.5Q1224 827 1227 755Q1227 751 1227 742.5Q1227 734 1227 726.5Q1227 719 1227 713L898 713Q897 786 850 826Q803 866 729 866Q613 866 541.5 751.5Q470 637 470 464Q470 356 520.5 301.5Q571 247 645 247Q718 247 770 286Q822 325 844 399L1175 399Q1149 217 1002.5 95.5Q856 -26 626 -26Q393 -26 257 101Q121 228 121 443Q121 641 198 799Q275 957 419.5 1048Q564 1139 751 1139ZM826 1269Q750 1269 699 1319.5Q648 1370 648 1447Q648 1524 699 1574.5Q750 1625 826 1625Q903 1625 954 1574Q1005 1523 1005 1447Q1005 1371 954 1320Q903 1269 826 1269Z" />
<glyph glyph-name="Ccaron" unicode="&#x010c;" horiz-adv-x="1570" d="M1224 908Q1225 911 1225 927Q1222 1037 1148 1105.5Q1074 1174 957 1174Q841 1174 746 1099Q651 1024 596.5 891Q542 758 542 595Q542 444 615.5 356Q689 268 815 268Q927 268 1015.5 330.5Q1104 393 1138 496L1494 496Q1450 254 1256.5 107.5Q1063 -39 787 -39Q505 -39 337 128Q169 295 169 574Q169 837 272.5 1044.5Q376 1252 560.5 1367Q745 1482 979 1482Q1146 1482 1284 1414Q1422 1346 1501 1227.5Q1580 1109 1580 966Q1580 929 1577 908ZM845 1597L656 1946L939 1946L1024 1754L1043 1754L1209 1946L1520 1946L1183 1597Z" />
<glyph glyph-name="ccaron" unicode="&#x010d;" horiz-adv-x="1256" d="M751 1139Q859 1139 949.5 1105.5Q1040 1072 1098.5 1017Q1157 962 1190.5 894.5Q1224 827 1227 755Q1227 751 1227 742.5Q1227 734 1227 726.5Q1227 719 1227 713L898 713Q897 786 850 826Q803 866 729 866Q613 866 541.5 751.5Q470 637 470 464Q470 356 520.5 301.5Q571 247 645 247Q718 247 770 286Q822 325 844 399L1175 399Q1149 217 1002.5 95.5Q856 -26 626 -26Q393 -26 257 101Q121 228 121 443Q121 641 198 799Q275 957 419.5 1048Q564 1139 751 1139ZM970 1260L632 1260L438 1619L720 1619L810 1417L830 1417L1006 1619L1318 1619Z" />
<glyph glyph-name="Dcaron" unicode="&#x010e;" horiz-adv-x="1561" d="M394 1443L963 1443Q1227 1443 1380.5 1292Q1534 1141 1534 873Q1534 622 1439 423.5Q1344 225 1170.5 112.5Q997 0 776 0L88 0ZM701 1149L521 294L731 294Q919 294 1038 440.5Q1157 587 1157 830Q1157 977 1080 1063Q1003 1149 867 1149ZM745 1596L556 1945L839 1945L924 1753L943 1753L1109 1945L1420 1945L1083 1596Z" />
<glyph glyph-name="dcaron" unicode="&#x010f;" horiz-adv-x="1666" d="M1621 1530L1915 1530L1757 1020L1513 1020ZM493 -17Q324 -17 220 97.5Q116 212 116 411Q116 565 159.5 699.5Q203 834 277.5 928Q352 1022 455.5 1076Q559 1130 676 1130Q797 1130 877 1074Q957 1018 984 929L1004 929L1131 1530L1486 1530L1161 0L816 0L849 155L830 155Q705 -17 493 -17ZM663 257Q775 257 855.5 370Q936 483 936 636Q936 736 885 791.5Q834 847 756 847Q642 847 562.5 739Q483 631 483 471Q483 370 534 313.5Q585 257 663 257Z" />
<glyph glyph-name="Dcroat" unicode="&#x0110;" horiz-adv-x="1561" d="M521 294L731 294Q919 294 1038 440.5Q1157 587 1157 830Q1157 977 1080 1063Q1003 1149 867 1149L701 1149L638 852L830 852L776 600L585 600ZM394 1443L963 1443Q1227 1443 1380.5 1292Q1534 1141 1534 873Q1534 622 1439 423.5Q1344 225 1170.5 112.5Q997 0 776 0L88 0L215 600L78 600L132 852L269 852Z" />
<glyph glyph-name="dcroat" unicode="&#x0111;" horiz-adv-x="1390" d="M663 257Q775 257 855.5 370Q936 483 936 636Q936 736 885 791.5Q834 847 756 847Q642 847 562.5 739Q483 631 483 471Q483 370 534 313.5Q585 257 663 257ZM1617 1413L1583 1249L1426 1249L1161 0L816 0L849 155L830 155Q705 -17 493 -17Q324 -17 220 97.5Q116 212 116 411Q116 565 159.5 699.5Q203 834 277.5 928Q352 1022 455.5 1076Q559 1130 676 1130Q797 1130 877 1074Q957 1018 984 929L1004 929L1072 1249L864 1249L898 1413L1106 1413L1131 1530L1486 1530L1461 1413Z" />
<glyph glyph-name="Emacron" unicode="&#x0112;" horiz-adv-x="1302" d="M1139 295L1076 0L87 0L394 1443L1383 1443L1319 1148L698 1148L637 860L1221 860L1164 590L580 590L517 295ZM1364 1835L1322 1637L540 1637L582 1835Z" />
<glyph glyph-name="emacron" unicode="&#x0113;" horiz-adv-x="1288" d="M486 681L909 681Q912 699 912 717Q912 791 862 839Q812 887 731 887Q643 887 576 830.5Q509 774 486 681ZM639 -26Q405 -26 264.5 103.5Q124 233 124 456Q124 761 295 950Q466 1139 740 1139Q956 1139 1095.5 1008Q1235 877 1235 666Q1235 581 1215 479L450 479Q449 475 449 458Q449 348 507.5 288.5Q566 229 661 229Q732 229 781 257Q830 285 850 334L1182 334Q1141 169 995.5 71.5Q850 -26 639 -26ZM1208 1525L1166 1327L399 1327L441 1525Z" />
<glyph glyph-name="Ebreve" unicode="&#x0114;" horiz-adv-x="1302" d="M1139 295L1076 0L87 0L394 1443L1383 1443L1319 1148L698 1148L637 860L1221 860L1164 590L580 590L517 295ZM541 1932L774 1932Q773 1923 773 1907Q773 1846 822 1806.5Q871 1767 947 1767Q1110 1767 1144 1932L1376 1932Q1356 1772 1240 1676.5Q1124 1581 939 1581Q764 1581 651 1670Q538 1759 538 1892Q538 1912 541 1932Z" />
<glyph glyph-name="ebreve" unicode="&#x0115;" horiz-adv-x="1288" d="M486 681L909 681Q912 699 912 717Q912 791 862 839Q812 887 731 887Q643 887 576 830.5Q509 774 486 681ZM639 -26Q405 -26 264.5 103.5Q124 233 124 456Q124 761 295 950Q466 1139 740 1139Q956 1139 1095.5 1008Q1235 877 1235 666Q1235 581 1215 479L450 479Q449 475 449 458Q449 348 507.5 288.5Q566 229 661 229Q732 229 781 257Q830 285 850 334L1182 334Q1141 169 995.5 71.5Q850 -26 639 -26ZM410 1620L644 1620Q643 1611 643 1591Q643 1527 691 1486.5Q739 1446 816 1446Q986 1446 1017 1620L1250 1620Q1233 1454 1116 1357Q999 1260 808 1260Q631 1260 519 1349Q407 1438 407 1573Q407 1598 410 1620Z" />
<glyph glyph-name="Edotaccent" unicode="&#x0116;" horiz-adv-x="1302" d="M1139 295L1076 0L87 0L394 1443L1383 1443L1319 1148L698 1148L637 860L1221 860L1164 590L580 590L517 295ZM959 1581Q880 1581 831 1629.5Q782 1678 782 1753Q782 1828 831 1876.5Q880 1925 959 1925Q1037 1925 1086 1876.5Q1135 1828 1135 1753Q1135 1678 1086 1629.5Q1037 1581 959 1581Z" />
<glyph glyph-name="edotaccent" unicode="&#x0117;" horiz-adv-x="1288" d="M486 681L909 681Q912 699 912 717Q912 791 862 839Q812 887 731 887Q643 887 576 830.5Q509 774 486 681ZM639 -26Q405 -26 264.5 103.5Q124 233 124 456Q124 761 295 950Q466 1139 740 1139Q956 1139 1095.5 1008Q1235 877 1235 666Q1235 581 1215 479L450 479Q449 475 449 458Q449 348 507.5 288.5Q566 229 661 229Q732 229 781 257Q830 285 850 334L1182 334Q1141 169 995.5 71.5Q850 -26 639 -26ZM808 1269Q732 1269 681 1319.5Q630 1370 630 1447Q630 1524 681 1574.5Q732 1625 808 1625Q885 1625 936 1574Q987 1523 987 1447Q987 1371 936 1320Q885 1269 808 1269Z" />
<glyph glyph-name="Eogonek" unicode="&#x0118;" horiz-adv-x="1302" d="M87 0L394 1443L1383 1443L1319 1148L698 1148L637 860L1221 860L1164 590L580 590L517 295L1139 295L1076 0L1033 -3Q926 -10 851.5 -66Q777 -122 777 -193Q777 -238 812.5 -264Q848 -290 910 -290Q947 -290 961 -286L923 -465Q887 -479 814 -479Q677 -479 593.5 -418.5Q510 -358 510 -259Q510 -183 560.5 -117Q611 -51 687 -19L691 0Z" />
<glyph glyph-name="eogonek" unicode="&#x0119;" horiz-adv-x="1290" d="M797 -479Q661 -479 577.5 -418.5Q494 -358 494 -259Q494 -193 541 -131Q588 -69 657 -44L661 -24Q649 -26 639 -26Q403 -26 263.5 104.5Q124 235 124 456Q124 760 295 949.5Q466 1139 740 1139Q958 1139 1096.5 1006.5Q1235 874 1235 666Q1235 583 1215 479L450 479Q449 473 449 458Q449 352 506 290.5Q563 229 661 229Q731 229 780.5 256.5Q830 284 850 334L1182 334Q1141 162 963 52Q855 -16 808 -72.5Q761 -129 761 -193Q761 -238 796.5 -264Q832 -290 893 -290Q929 -290 945 -286L907 -465Q867 -479 797 -479ZM486 681L909 681Q912 699 912 717Q912 792 861.5 839.5Q811 887 731 887Q644 887 577 831Q510 775 486 681Z" />
<glyph glyph-name="Ecaron" unicode="&#x011a;" horiz-adv-x="1302" d="M1139 295L1076 0L87 0L394 1443L1383 1443L1319 1148L698 1148L637 860L1221 860L1164 590L580 590L517 295ZM767 1596L578 1945L861 1945L946 1753L965 1753L1131 1945L1442 1945L1105 1596Z" />
<glyph glyph-name="ecaron" unicode="&#x011b;" horiz-adv-x="1288" d="M486 681L909 681Q912 699 912 717Q912 791 862 839Q812 887 731 887Q643 887 576 830.5Q509 774 486 681ZM639 -26Q405 -26 264.5 103.5Q124 233 124 456Q124 761 295 950Q466 1139 740 1139Q956 1139 1095.5 1008Q1235 877 1235 666Q1235 581 1215 479L450 479Q449 475 449 458Q449 348 507.5 288.5Q566 229 661 229Q732 229 781 257Q830 285 850 334L1182 334Q1141 169 995.5 71.5Q850 -26 639 -26ZM952 1260L614 1260L420 1619L702 1619L792 1417L812 1417L988 1619L1300 1619Z" />
<glyph glyph-name="Gcircumflex" unicode="&#x011c;" horiz-adv-x="1588" d="M1557 770L1522 590Q1464 284 1277.5 122.5Q1091 -39 797 -39Q514 -39 342.5 130Q171 299 171 579Q171 842 273 1048Q375 1254 558.5 1368Q742 1482 976 1482Q1139 1482 1277.5 1418Q1416 1354 1497 1244Q1578 1134 1580 1004Q1581 990 1579 971L1226 971Q1223 1058 1146 1115Q1069 1172 954 1172Q777 1172 660.5 1010.5Q544 849 544 600Q544 449 620 360Q696 271 826 271Q951 271 1038.5 334.5Q1126 398 1147 504L1149 517L891 517L944 770ZM1228 1947L1417 1598L1134 1598L1049 1791L1030 1791L863 1598L553 1598L890 1947Z" />
<glyph glyph-name="gcircumflex" unicode="&#x011d;" horiz-adv-x="1369" d="M544 -419Q303 -419 156 -322Q9 -225 16 -74L361 -74Q364 -123 419 -153Q474 -183 565 -183Q760 -183 796 -17L837 176L818 176Q714 24 494 24Q328 24 223.5 137Q119 250 119 434Q119 625 192.5 785.5Q266 946 392.5 1038Q519 1130 670 1130Q784 1130 870 1073.5Q956 1017 985 923L1004 923L1046 1113L1391 1113L1144 -41Q1106 -219 948 -319Q790 -419 544 -419ZM660 264Q771 264 850.5 373.5Q930 483 930 636Q930 732 880.5 789.5Q831 847 748 847Q635 847 557.5 741Q480 635 480 478Q480 380 529 322Q578 264 660 264ZM1002 1620L1197 1261L913 1261L823 1463L804 1463L627 1261L316 1261L664 1620Z" />
<glyph glyph-name="Gbreve" unicode="&#x011e;" horiz-adv-x="1588" d="M1557 770L1522 590Q1464 284 1277.5 122.5Q1091 -39 797 -39Q514 -39 342.5 130Q171 299 171 579Q171 842 273 1048Q375 1254 558.5 1368Q742 1482 976 1482Q1139 1482 1277.5 1418Q1416 1354 1497 1244Q1578 1134 1580 1004Q1581 990 1579 971L1226 971Q1223 1058 1146 1115Q1069 1172 954 1172Q777 1172 660.5 1010.5Q544 849 544 600Q544 449 620 360Q696 271 826 271Q951 271 1038.5 334.5Q1126 398 1147 504L1149 517L891 517L944 770ZM616 1934L849 1934Q848 1925 848 1909Q848 1848 897 1808.5Q946 1769 1022 1769Q1185 1769 1219 1934L1451 1934Q1431 1774 1315 1678.5Q1199 1583 1014 1583Q839 1583 726 1672Q613 1761 613 1894Q613 1914 616 1934Z" />
<glyph glyph-name="gbreve" unicode="&#x011f;" horiz-adv-x="1369" d="M544 -419Q303 -419 156 -322Q9 -225 16 -74L361 -74Q364 -123 419 -153Q474 -183 565 -183Q760 -183 796 -17L837 176L818 176Q714 24 494 24Q328 24 223.5 137Q119 250 119 434Q119 625 192.5 785.5Q266 946 392.5 1038Q519 1130 670 1130Q784 1130 870 1073.5Q956 1017 985 923L1004 923L1046 1113L1391 1113L1144 -41Q1106 -219 948 -319Q790 -419 544 -419ZM660 264Q771 264 850.5 373.5Q930 483 930 636Q930 732 880.5 789.5Q831 847 748 847Q635 847 557.5 741Q480 635 480 478Q480 380 529 322Q578 264 660 264ZM413 1621L647 1621Q646 1612 646 1592Q646 1528 694 1487.5Q742 1447 819 1447Q989 1447 1020 1621L1253 1621Q1236 1455 1119 1358Q1002 1261 811 1261Q634 1261 522 1350Q410 1439 410 1574Q410 1598 413 1621Z" />
<glyph glyph-name="Gdotaccent" unicode="&#x0120;" horiz-adv-x="1588" d="M1557 770L1522 590Q1464 284 1277.5 122.5Q1091 -39 797 -39Q514 -39 342.5 130Q171 299 171 579Q171 842 273 1048Q375 1254 558.5 1368Q742 1482 976 1482Q1139 1482 1277.5 1418Q1416 1354 1497 1244Q1578 1134 1580 1004Q1581 990 1579 971L1226 971Q1223 1058 1146 1115Q1069 1172 954 1172Q777 1172 660.5 1010.5Q544 849 544 600Q544 449 620 360Q696 271 826 271Q951 271 1038.5 334.5Q1126 398 1147 504L1149 517L891 517L944 770ZM1034 1583Q955 1583 906 1631.5Q857 1680 857 1755Q857 1830 906 1878.5Q955 1927 1034 1927Q1112 1927 1161 1878.5Q1210 1830 1210 1755Q1210 1680 1161 1631.5Q1112 1583 1034 1583Z" />
<glyph glyph-name="gdotaccent" unicode="&#x0121;" horiz-adv-x="1369" d="M544 -419Q303 -419 156 -322Q9 -225 16 -74L361 -74Q364 -123 419 -153Q474 -183 565 -183Q760 -183 796 -17L837 176L818 176Q714 24 494 24Q328 24 223.5 137Q119 250 119 434Q119 625 192.5 785.5Q266 946 392.5 1038Q519 1130 670 1130Q784 1130 870 1073.5Q956 1017 985 923L1004 923L1046 1113L1391 1113L1144 -41Q1106 -219 948 -319Q790 -419 544 -419ZM660 264Q771 264 850.5 373.5Q930 483 930 636Q930 732 880.5 789.5Q831 847 748 847Q635 847 557.5 741Q480 635 480 478Q480 380 529 322Q578 264 660 264ZM939 1321Q939 1321 913.5 1295.5Q888 1270 811 1270Q734 1270 683.5 1321Q633 1372 633 1448Q633 1524 683.5 1575Q734 1626 811 1626Q888 1626 939 1575Q990 1524 990 1448Q990 1372 939 1321Z" />
<glyph glyph-name="Gcommaaccent" unicode="&#x0122;" horiz-adv-x="1588" d="M1557 770L1522 590Q1464 284 1277.5 122.5Q1091 -39 797 -39Q514 -39 342.5 130Q171 299 171 579Q171 842 273 1048Q375 1254 558.5 1368Q742 1482 976 1482Q1139 1482 1277.5 1418Q1416 1354 1497 1244Q1578 1134 1580 1004Q1581 990 1579 971L1226 971Q1223 1058 1146 1115Q1069 1172 954 1172Q777 1172 660.5 1010.5Q544 849 544 600Q544 449 620 360Q696 271 826 271Q951 271 1038.5 334.5Q1126 398 1147 504L1149 517L891 517L944 770ZM762 -505L456 -505L623 -155L973 -155Z" />
<glyph glyph-name="gcommaaccent" unicode="&#x0123;" horiz-adv-x="1369" d="M544 -419Q303 -419 156 -322Q9 -225 16 -74L361 -74Q364 -123 419 -153Q474 -183 565 -183Q760 -183 796 -17L837 176L818 176Q714 24 494 24Q328 24 223.5 137Q119 250 119 434Q119 625 192.5 785.5Q266 946 392.5 1038Q519 1130 670 1130Q784 1130 870 1073.5Q956 1017 985 923L1004 923L1046 1113L1391 1113L1144 -41Q1106 -219 948 -319Q790 -419 544 -419ZM660 264Q771 264 850.5 373.5Q930 483 930 636Q930 732 880.5 789.5Q831 847 748 847Q635 847 557.5 741Q480 635 480 478Q480 380 529 322Q578 264 660 264ZM1098 1643L1404 1643L1237 1293L887 1293Z" />
<glyph glyph-name="Hcircumflex" unicode="&#x0124;" horiz-adv-x="1650" d="M1396 0L1028 0L1151 582L577 582L453 0L87 0L394 1443L761 1443L641 877L1215 877L1336 1443L1703 1443ZM1313 1945L1502 1596L1219 1596L1134 1789L1115 1789L948 1596L638 1596L975 1945Z" />
<glyph glyph-name="hcircumflex" unicode="&#x0125;" horiz-adv-x="1346" d="M57 0L380 1519L733 1519L609 945L628 945Q745 1134 966 1134Q1120 1134 1209.5 1046.5Q1299 959 1299 820Q1299 758 1284 686L1140 0L788 0L920 631Q929 676 929 707Q929 777 884.5 818Q840 859 768 859Q685 859 627 804Q569 749 550 659L410 0ZM817 2021L1006 1672L723 1672L638 1865L619 1865L452 1672L142 1672L479 2021Z" />
<glyph glyph-name="Hbar" unicode="&#x0126;" horiz-adv-x="1649" d="M1215 877L1251 1047L677 1047L641 877ZM1792 1278L1743 1047L1619 1047L1396 0L1028 0L1151 582L577 582L453 0L87 0L310 1047L186 1047L235 1278L359 1278L394 1443L761 1443L726 1278L1301 1278L1336 1443L1703 1443L1668 1278Z" />
<glyph glyph-name="hbar" unicode="&#x0127;" horiz-adv-x="1346" d="M609 945L628 945Q745 1134 966 1134Q1120 1134 1209.5 1046.5Q1299 959 1299 820Q1299 758 1284 686L1140 0L788 0L920 631Q929 676 929 707Q929 777 884.5 818Q840 859 768 859Q685 859 627 804Q569 749 550 659L410 0L57 0L323 1249L168 1249L204 1421L359 1421L380 1519L733 1519L712 1421L922 1421L885 1249L675 1249Z" />
<glyph glyph-name="Itilde" unicode="&#x0128;" horiz-adv-x="707" d="M454 0L87 0L394 1443L761 1443ZM798 1571Q743 1571 694.5 1595.5Q646 1620 617 1649.5Q588 1679 555.5 1703.5Q523 1728 498 1728Q426 1728 412 1609L207 1609Q224 1747 300 1831.5Q376 1916 484 1916Q539 1916 587.5 1891.5Q636 1867 665 1838Q694 1809 726.5 1784.5Q759 1760 784 1760Q857 1760 870 1878L1076 1878Q1059 1740 982.5 1655.5Q906 1571 798 1571Z" />
<glyph glyph-name="itilde" unicode="&#x0129;" horiz-adv-x="643" d="M62 0L298 1113L652 1113L415 0ZM705 1257Q650 1257 601.5 1281.5Q553 1306 524 1335.5Q495 1365 462.5 1389.5Q430 1414 405 1414Q333 1414 319 1295L114 1295Q131 1433 207 1517.5Q283 1602 391 1602Q446 1602 494.5 1577.5Q543 1553 572 1524Q601 1495 633.5 1470.5Q666 1446 691 1446Q764 1446 777 1564L983 1564Q966 1426 889.5 1341.5Q813 1257 705 1257Z" />
<glyph glyph-name="Imacron" unicode="&#x012a;" horiz-adv-x="707" d="M454 0L87 0L394 1443L761 1443ZM1053 1835L1011 1637L229 1637L271 1835Z" />
<glyph glyph-name="imacron" unicode="&#x012b;" horiz-adv-x="643" d="M62 0L298 1113L652 1113L415 0ZM852 1525L817 1327L165 1327L200 1525Z" />
<glyph glyph-name="Ibreve" unicode="&#x012c;" horiz-adv-x="707" d="M454 0L87 0L394 1443L761 1443ZM230 1932L463 1932Q462 1923 462 1907Q462 1846 511 1806.5Q560 1767 636 1767Q799 1767 833 1932L1065 1932Q1045 1772 929 1676.5Q813 1581 628 1581Q453 1581 340 1670Q227 1759 227 1892Q227 1912 230 1932Z" />
<glyph glyph-name="ibreve" unicode="&#x012d;" horiz-adv-x="643" d="M62 0L298 1113L652 1113L415 0ZM148 1620L382 1620Q381 1611 381 1591Q381 1527 429 1486.5Q477 1446 554 1446Q724 1446 755 1620L988 1620Q971 1454 854 1357Q737 1260 546 1260Q369 1260 257 1349Q145 1438 145 1573Q145 1598 148 1620Z" />
<glyph glyph-name="Iogonek" unicode="&#x012e;" horiz-adv-x="707" d="M231 -479Q85 -479 3 -419Q-79 -359 -79 -269Q-79 -194 -35.5 -129.5Q8 -65 82 -24L394 1443L761 1443L454 -2L426 -3Q332 -11 262 -66Q192 -121 192 -193Q192 -238 227.5 -264Q263 -290 325 -290Q348 -290 376 -286L337 -465Q295 -479 231 -479Z" />
<glyph glyph-name="iogonek" unicode="&#x012f;" horiz-adv-x="643" d="M309 -465Q268 -479 202 -479Q64 -479 -21.5 -421Q-107 -363 -107 -269Q-107 -195 -64.5 -130Q-22 -65 57 -22L298 1113L652 1113L415 -2L398 -3Q302 -10 233 -66Q164 -122 164 -193Q164 -238 199.5 -264Q235 -290 296 -290Q319 -290 347 -286ZM537 1242Q447 1242 392 1283.5Q337 1325 337 1393Q337 1466 392.5 1511.5Q448 1557 537 1557Q627 1557 681.5 1515.5Q736 1474 736 1406Q736 1333 681 1287.5Q626 1242 537 1242Z" />
<glyph glyph-name="Idotaccent" unicode="&#x0130;" horiz-adv-x="708" d="M454 0L87 0L394 1443L761 1443ZM648 1581Q569 1581 520 1629.5Q471 1678 471 1753Q471 1828 520 1876.5Q569 1925 648 1925Q726 1925 775 1876.5Q824 1828 824 1753Q824 1678 775 1629.5Q726 1581 648 1581Z" />
<glyph glyph-name="dotlessi" unicode="&#x0131;" horiz-adv-x="643" d="M62 0L298 1113L652 1113L415 0Z" />
<glyph glyph-name="IJ" unicode="&#x0132;" horiz-adv-x="2003" d="M454 0L87 0L394 1443L761 1443ZM786 400Q786 422 789 443L1140 443L1140 430Q1141 360 1183 318Q1225 276 1297 276Q1443 276 1482 462L1691 1443L2057 1443L1839 416Q1792 195 1652 78Q1512 -39 1290 -39Q1061 -39 922.5 82Q784 203 786 400Z" />
<glyph glyph-name="ij" unicode="&#x0133;" horiz-adv-x="1286" d="M62 0L298 1113L652 1113L415 0ZM682.5 1288Q682.5 1288 655.75 1265Q629 1242 537 1242Q445 1242 391 1284Q337 1326 337 1393Q337 1464 391 1510.5Q445 1557 537 1557Q629 1557 682.5 1515Q736 1473 736 1406Q736 1334 682.5 1288ZM1180 1242Q1089 1242 1035 1284Q981 1326 981 1393Q981 1464 1035 1510.5Q1089 1557 1180 1557Q1272 1557 1326 1515Q1380 1473 1380 1406Q1380 1335 1326 1288.5Q1272 1242 1180 1242ZM1296 1113L1050 -48Q1015 -212 903 -295Q791 -378 614 -378Q527 -378 448 -363L505 -108Q530 -115 574 -115Q681 -115 703 -12L942 1113Z" />
<glyph glyph-name="Jcircumflex" unicode="&#x0134;" horiz-adv-x="1295" d="M78 400Q78 422 81 443L432 443L432 430Q433 360 475 318Q517 276 589 276Q735 276 774 462L983 1443L1349 1443L1131 416Q1084 195 944 78Q804 -39 582 -39Q353 -39 214.5 82Q76 203 78 400ZM1430 1945L1619 1596L1336 1596L1251 1789L1232 1789L1065 1596L755 1596L1092 1945Z" />
<glyph glyph-name="jcircumflex" unicode="&#x0135;" horiz-adv-x="643" d="M652 1113L406 -48Q371 -212 259 -295Q147 -378 -30 -378Q-117 -378 -196 -363L-139 -108Q-115 -115 -70 -115Q37 -115 59 -12L298 1113ZM737 1619L932 1260L648 1260L558 1462L539 1462L362 1260L51 1260L399 1619Z" />
<glyph glyph-name="Kcommaaccent" unicode="&#x0136;" horiz-adv-x="1509" d="M454 0L87 0L394 1443L760 1443L630 834L649 834L1250 1443L1672 1443L1019 783L1366 0L957 0L711 570L538 398ZM648 -505L342 -505L509 -155L859 -155Z" />
<glyph glyph-name="kcommaaccent" unicode="&#x0137;" horiz-adv-x="1275" d="M411 0L57 0L382 1530L735 1530L563 712L582 712L978 1113L1377 1113L868 624L1177 0L792 0L582 434L482 340ZM543 -505L237 -505L404 -155L754 -155Z" />
<glyph glyph-name="Lacute" unicode="&#x0139;" horiz-adv-x="1248" d="M1131 303L1067 0L87 0L394 1443L761 1443L518 303ZM748 1596L433 1596L760 1922L1122 1922Z" />
<glyph glyph-name="lacute" unicode="&#x013a;" horiz-adv-x="634" d="M57 0L382 1530L737 1530L411 0ZM729 1683L414 1683L741 2009L1103 2009Z" />
<glyph glyph-name="Lcommaaccent" unicode="&#x013b;" horiz-adv-x="1248" d="M1131 303L1067 0L87 0L394 1443L761 1443L518 303ZM528 -505L222 -505L389 -155L739 -155Z" />
<glyph glyph-name="lcommaaccent" unicode="&#x013c;" horiz-adv-x="634" d="M57 0L382 1530L737 1530L411 0ZM184 -505L-122 -505L45 -155L395 -155Z" />
<glyph glyph-name="Lcaron" unicode="&#x013d;" horiz-adv-x="1248" d="M999 1443L1286 1443L1127 932L891 932ZM1131 303L1067 0L87 0L394 1443L761 1443L518 303Z" />
<glyph glyph-name="lcaron" unicode="&#x013e;" horiz-adv-x="918" d="M873 1530L1166 1530L1008 1020L764 1020ZM57 0L382 1530L737 1530L411 0Z" />
<glyph glyph-name="Lslash" unicode="&#x0141;" horiz-adv-x="1276" d="M546 303L1159 303L1095 0L115 0L252 646L71 560L120 789L301 875L422 1443L789 1443L709 1068L921 1168L872 939L660 839Z" />
<glyph glyph-name="lslash" unicode="&#x0142;" horiz-adv-x="634" d="M765 1127L717 898L589 836L411 0L57 0L194 646L67 585L116 814L243 875L382 1530L737 1530L638 1066Z" />
<glyph glyph-name="Nacute" unicode="&#x0143;" horiz-adv-x="1600" d="M439 0L87 0L394 1443L654 1443L1104 601L1123 601L1302 1443L1654 1443L1347 0L1091 0L635 834L616 834ZM1161 1596L846 1596L1173 1922L1535 1922Z" />
<glyph glyph-name="nacute" unicode="&#x0144;" horiz-adv-x="1331" d="M50 0L288 1113L631 1113L592 932L611 932Q667 1025 755 1077.5Q843 1130 956 1130Q1106 1130 1194.5 1040Q1283 950 1283 808Q1283 746 1268 674L1125 0L773 0L905 619Q913 658 913 695Q913 763 871.5 806.5Q830 850 757 850Q676 850 618.5 793.5Q561 737 542 647L403 0ZM996 1288L677 1288L999 1647L1363 1647Z" />
<glyph glyph-name="Ncommaaccent" unicode="&#x0145;" horiz-adv-x="1600" d="M439 0L87 0L394 1443L654 1443L1104 601L1123 601L1302 1443L1654 1443L1347 0L1091 0L635 834L616 834ZM703 -505L397 -505L564 -155L914 -155Z" />
<glyph glyph-name="ncommaaccent" unicode="&#x0146;" horiz-adv-x="1331" d="M50 0L288 1113L631 1113L592 932L611 932Q667 1025 755 1077.5Q843 1130 956 1130Q1106 1130 1194.5 1040Q1283 950 1283 808Q1283 746 1268 674L1125 0L773 0L905 619Q913 658 913 695Q913 763 871.5 806.5Q830 850 757 850Q676 850 618.5 793.5Q561 737 542 647L403 0ZM538 -505L232 -505L399 -155L749 -155Z" />
</font>
</defs>
</svg>
