<?xml version="1.0" standalone="no"?><!DOCTYPE svg PUBLIC "-//W3C//DTD SVG 1.1//EN" "http://www.w3.org/Graphics/SVG/1.1/DTD/svg11.dtd" ><svg xmlns="http://www.w3.org/2000/svg"><metadata></metadata><defs>
<font id="SFProText-RegularItalic" >
<font-face font-family="SF Pro Text" font-stretch="normal" units-per-em="2048" weight="400" panose-1="0,0,5,0,0,0,0,0,0,0" ascent="1950" descent="-494" x-height="1078" underline-thickness="120" underline-position="-430" unicode-range="U+00000032-00064258" bbox="-534,-573,2927,2213" />
<missing-glyph horiz-adv-x="2048" d="M-65 -494L-5 -210L1844 -210L1783 -494ZM27 -62L87 222L1935 222L1875 -62ZM119 370L179 654L2027 654L1967 370ZM210 802L271 1086L2119 1086L2059 802ZM302 1234L363 1518L2211 1518L2151 1234ZM394 1666L454 1950L2303 1950L2242 1666Z" />
<glyph glyph-name="space" unicode="&#x20;" horiz-adv-x="578" d="" />
<glyph glyph-name="exclam" unicode="&#x21;" horiz-adv-x="636" d="M463 1444L663 1444L441 480L275 480ZM383 21.5Q383 21.5 363.5 1.75Q344 -18 284 -18Q224 -18 184.5 21.5Q145 61 145 121Q145 181 184.5 221Q224 261 284 261Q344 261 383 221Q422 181 422 121Q422 61 383 21.5Z" />
<glyph glyph-name="quotedbl" unicode="&#x22;" horiz-adv-x="895" d="M471 904L311 904L426 1443L586 1443ZM848 904L688 904L803 1443L963 1443Z" />
<glyph glyph-name="numbersign" unicode="&#x23;" horiz-adv-x="1296" d="M659 0L792 403L464 403L331 0L189 0L321 403L87 403L132 547L369 547L488 911L241 911L288 1054L535 1054L665 1443L807 1443L680 1054L1006 1054L1136 1443L1279 1443L1150 1054L1399 1054L1353 911L1102 911L981 547L1242 547L1197 403L935 403L802 0ZM509 544L839 544L960 913L630 913Z" />
<glyph glyph-name="dollar" unicode="&#x24;" horiz-adv-x="1328" d="M808 626L703 129Q847 130 929.5 201Q1012 272 1012 383Q1012 467 962.5 522.5Q913 578 808 626ZM723 856L820 1313Q694 1313 612.5 1245Q531 1177 531 1077Q531 1001 578 950.5Q625 900 723 856ZM846 803L863 796Q1032 723 1117.5 630Q1203 537 1203 404Q1203 207 1056.5 86.5Q910 -34 683 -34L668 -34L645 -142L511 -142L538 -16Q380 22 275.5 132.5Q171 243 163 390L345 390Q358 297 417.5 234Q477 171 572 145L685 678L634 699Q492 758 416.5 850.5Q341 943 341 1066Q341 1245 480 1360.5Q619 1476 845 1476L855 1476L881 1600L1015 1600L985 1458Q1132 1420 1223 1312Q1314 1204 1316 1068L1135 1068Q1108 1241 950 1294Z" />
<glyph glyph-name="percent" unicode="&#x25;" horiz-adv-x="1610" d="M262 1066Q262 1233 364.5 1350.5Q467 1468 612 1468Q733 1468 807.5 1386.5Q882 1305 882 1173Q882 1007 779.5 888.5Q677 770 533 770Q411 770 336.5 851Q262 932 262 1066ZM541 899Q615 899 669.5 981.5Q724 1064 724 1177Q724 1252 692.5 1295.5Q661 1339 606 1339Q531 1339 475.5 1257Q420 1175 420 1065Q420 990 453 944.5Q486 899 541 899ZM320 0L130 0L841 752L1494 1443L1682 1443L959 677ZM934 271Q934 438 1036.5 555.5Q1139 673 1284 673Q1405 673 1479.5 591.5Q1554 510 1554 378Q1554 212 1451.5 93.5Q1349 -25 1205 -25Q1083 -25 1008.5 56Q934 137 934 271ZM1213 104Q1287 104 1341.5 186.5Q1396 269 1396 382Q1396 457 1364.5 500.5Q1333 544 1278 544Q1203 544 1147.5 462Q1092 380 1092 270Q1092 195 1125 149.5Q1158 104 1213 104Z" />
<glyph glyph-name="ampersand" unicode="&#x26;" horiz-adv-x="1457" d="M605 1116Q605 1027 709 885Q861 931 935.5 1009.5Q1010 1088 1010 1174Q1010 1247 958.5 1290Q907 1333 826 1333Q735 1333 670 1269.5Q605 1206 605 1116ZM608 124Q811 124 949 225L627 712L570 691Q435 641 363.5 562.5Q292 484 292 388Q292 273 378 198.5Q464 124 608 124ZM1095 0L1033 96Q855 -27 600 -27Q467 -27 355 25.5Q243 78 177.5 171Q112 264 112 376Q112 663 487 809L549 833Q433 1003 433 1121Q433 1269 548.5 1373Q664 1477 833 1477Q984 1477 1082.5 1395Q1181 1313 1181 1188Q1181 1058 1083 948.5Q985 839 786 772L1077 345Q1197 481 1214 708L1218 762L1386 762L1381 701Q1357 408 1169 208L1308 0Z" />
<glyph glyph-name="quotesingle" unicode="&#x27;" horiz-adv-x="518" d="M471 904L311 904L426 1443L586 1443Z" />
<glyph glyph-name="parenleft" unicode="&#x28;" horiz-adv-x="782" d="M577 -307L423 -307Q374 -197 342.5 -3Q311 191 311 377Q311 702 437.5 999.5Q564 1297 770 1506L962 1506Q735 1271 610.5 976Q486 681 486 364Q486 -19 577 -307Z" />
<glyph glyph-name="parenright" unicode="&#x29;" horiz-adv-x="782" d="M340 1506L494 1506Q543 1396 574.5 1202Q606 1008 606 822Q606 497 479.5 199.5Q353 -98 147 -307L-45 -307Q182 -72 306.5 223Q431 518 431 835Q431 1218 340 1506Z" />
<glyph glyph-name="asterisk" unicode="&#x2a;" horiz-adv-x="1032" d="M924 789L714 970L667 680L537 690L614 980L336 842L294 963L581 1072L350 1226L441 1336L651 1154L698 1446L828 1436L751 1145L1029 1284L1070 1163L784 1054L1014 900Z" />
<glyph glyph-name="plus" unicode="&#x2b;" horiz-adv-x="1328" d="M788 506L695 71L543 71L636 506L203 506L236 654L667 654L759 1089L911 1089L819 654L1252 654L1219 506Z" />
<glyph glyph-name="comma" unicode="&#x2c;" horiz-adv-x="608" d="M126 -367L-3 -367L213 202L404 202Z" />
<glyph glyph-name="hyphen" unicode="&#x2d;" horiz-adv-x="966" d="M201 499L236 662L892 662L857 499Z" />
<glyph glyph-name="period" unicode="&#x2e;" horiz-adv-x="608" d="M244 -10Q191 -10 152.5 28.5Q114 67 114 120Q114 174 152.5 212Q191 250 244 250Q298 250 336 212Q374 174 374 120Q374 67 336 28.5Q298 -10 244 -10Z" />
<glyph glyph-name="slash" unicode="&#x2f;" horiz-adv-x="742" d="M72 -307L-78 -307L805 1506L955 1506Z" />
<glyph glyph-name="zero" unicode="&#x30;" horiz-adv-x="1290" d="M633 -34Q437 -34 320 107Q203 248 203 482Q203 691 255.5 876.5Q308 1062 396.5 1193Q485 1324 606 1400.5Q727 1477 860 1477Q1055 1477 1171.5 1334Q1288 1191 1288 957Q1288 747 1236 562Q1184 377 1096 247Q1008 117 887.5 41.5Q767 -34 633 -34ZM383 485Q383 316 452 220Q521 124 646 124Q769 124 875.5 235.5Q982 347 1045 539.5Q1108 732 1108 956Q1108 1124 1039.5 1221Q971 1318 849 1318Q726 1318 618 1205.5Q510 1093 446.5 900.5Q383 708 383 485Z" />
<glyph glyph-name="one" unicode="&#x31;" horiz-adv-x="955" d="M446 0L706 1223L690 1223L267 961L311 1167L754 1443L933 1443L626 0Z" />
<glyph glyph-name="two" unicode="&#x32;" horiz-adv-x="1237" d="M308 1067Q329 1249 467.5 1363Q606 1477 805 1477Q990 1477 1114 1372Q1238 1267 1238 1111Q1238 990 1154.5 875Q1071 760 833 551L407 178L403 162L1105 162L1071 0L101 0L130 139L745 684Q936 854 994.5 931Q1053 1008 1053 1091Q1053 1190 979 1255Q905 1320 792 1320Q673 1320 589 1251Q505 1182 485 1067Z" />
<glyph glyph-name="three" unicode="&#x33;" horiz-adv-x="1284" d="M542 665L574 819L783 819Q913 819 1003 901.5Q1093 984 1093 1104Q1093 1200 1018.5 1259.5Q944 1319 824 1319Q720 1319 634 1256.5Q548 1194 519 1096L342 1096Q379 1268 515.5 1372.5Q652 1477 840 1477Q1030 1477 1155 1376Q1280 1275 1280 1123Q1280 980 1190 877Q1100 774 950 745L947 729Q1066 703 1130 628Q1194 553 1194 439Q1194 230 1042 98Q890 -34 649 -34Q444 -34 304 77.5Q164 189 163 352Q163 362 165 384L339 384L339 376Q339 264 428.5 193.5Q518 123 660 123Q820 123 914.5 206Q1009 289 1009 430Q1009 534 922 599.5Q835 665 698 665Z" />
<glyph glyph-name="four" unicode="&#x34;" horiz-adv-x="1318" d="M760 0L824 299L121 299L148 470Q428 830 969 1443L1243 1443L1034 460L1239 460L1205 299L1000 299L936 0ZM341 471L339 459L859 459L1032 1276L1020 1276Q704 924 341 471Z" />
<glyph glyph-name="five" unicode="&#x35;" horiz-adv-x="1267" d="M653 -34Q451 -34 313.5 79.5Q176 193 176 358Q176 372 178 386L356 386L356 379Q356 266 440.5 195Q525 124 659 124Q818 124 916 230.5Q1014 337 1014 505Q1014 635 932 712Q850 789 723 789Q633 789 557.5 755Q482 721 431 660L253 660L497 1443L1293 1443L1258 1282L612 1282L479 845L495 843Q605 940 768 940Q948 940 1073.5 822.5Q1199 705 1199 527Q1199 280 1050 123Q901 -34 653 -34Z" />
<glyph glyph-name="six" unicode="&#x36;" horiz-adv-x="1305" d="M1236 537Q1236 378 1162 247Q1088 116 959 41Q830 -34 674 -34Q456 -34 327 108Q198 250 198 491Q198 599 215.5 710.5Q233 822 268 933.5Q303 1045 360 1142.5Q417 1240 490.5 1315Q564 1390 665 1433.5Q766 1477 883 1477Q1074 1477 1202 1365Q1330 1253 1338 1079L1152 1079Q1142 1188 1065 1252.5Q988 1317 867 1317Q701 1317 582 1173Q463 1029 405 759L421 757Q490 848 590 898Q690 948 805 948Q994 948 1115 833Q1236 718 1236 537ZM762 794Q605 794 495 684Q385 574 385 415Q385 285 467.5 205.5Q550 126 686 126Q838 126 943.5 239Q1049 352 1049 516Q1049 640 969 717Q889 794 762 794Z" />
<glyph glyph-name="seven" unicode="&#x37;" horiz-adv-x="1167" d="M147 0L1067 1266L1070 1282L333 1282L368 1443L1293 1443L1257 1276L344 0Z" />
<glyph glyph-name="eight" unicode="&#x38;" horiz-adv-x="1308" d="M1206 429Q1206 227 1050 96.5Q894 -34 655 -34Q432 -34 289.5 72.5Q147 179 147 347Q147 514 257 634.5Q367 755 534 771L538 787Q453 828 405 899.5Q357 971 357 1057Q357 1238 497.5 1357.5Q638 1477 850 1477Q1039 1477 1167.5 1377Q1296 1277 1296 1129Q1296 987 1208.5 884Q1121 781 978 753L974 737Q1083 696 1144.5 614Q1206 532 1206 429ZM695 680Q539 680 437 592.5Q335 505 335 371Q335 255 423 188Q511 121 663 121Q820 121 921.5 207Q1023 293 1023 427Q1023 540 932 610Q841 680 695 680ZM533 1045Q533 948 609 888Q685 828 807 828Q940 828 1026.5 907Q1113 986 1113 1107Q1113 1204 1037.5 1263Q962 1322 838 1322Q703 1322 618 1245Q533 1168 533 1045Z" />
<glyph glyph-name="nine" unicode="&#x39;" horiz-adv-x="1306" d="M730 649Q887 649 997 760Q1107 871 1107 1030Q1107 1160 1024.5 1238.5Q942 1317 806 1317Q654 1317 548.5 1204.5Q443 1092 443 929Q443 805 523 727Q603 649 730 649ZM256 908Q256 1067 330 1197.5Q404 1328 533 1402.5Q662 1477 818 1477Q1036 1477 1165 1336Q1294 1195 1294 954Q1294 862 1282 767Q1270 672 1243.5 574.5Q1217 477 1178.5 388.5Q1140 300 1083.5 222.5Q1027 145 958.5 88.5Q890 32 800.5 -1Q711 -34 609 -34Q418 -34 290 77Q162 188 154 362L340 362Q350 253 427 189.5Q504 126 625 126Q791 126 910 270Q1029 414 1087 684L1071 686Q1002 595 902 545Q802 495 687 495Q498 495 377 611Q256 727 256 908Z" />
<glyph glyph-name="colon" unicode="&#x3a;" horiz-adv-x="608" d="M244 -10Q191 -10 152.5 28.5Q114 67 114 120Q114 174 152.5 212Q191 250 244 250Q298 250 336 212Q374 174 374 120Q374 67 336 28.5Q298 -10 244 -10ZM405 759Q352 759 313.5 797.5Q275 836 275 889Q275 943 313.5 981Q352 1019 405 1019Q459 1019 497 981Q535 943 535 889Q535 836 497 797.5Q459 759 405 759Z" />
<glyph glyph-name="semicolon" unicode="&#x3b;" horiz-adv-x="608" d="M405 759Q352 759 313.5 797.5Q275 836 275 889Q275 943 313.5 981Q352 1019 405 1019Q459 1019 497 981Q535 943 535 889Q535 836 497 797.5Q459 759 405 759ZM126 -367L-3 -367L213 202L404 202Z" />
<glyph glyph-name="less" unicode="&#x3c;" horiz-adv-x="1328" d="M1086 163L1047 -21L276 564L306 706L1294 1139L1254 951L464 624L461 608Z" />
<glyph glyph-name="equal" unicode="&#x3d;" horiz-adv-x="1328" d="M1175 312L167 312L199 461L1207 461ZM1257 700L249 700L281 849L1289 849Z" />
<glyph glyph-name="greater" unicode="&#x3e;" horiz-adv-x="1328" d="M360 955L399 1139L1170 554L1140 412L152 -21L192 167L982 494L985 510Z" />
<glyph glyph-name="question" unicode="&#x3f;" horiz-adv-x="1050" d="M247 1089Q281 1258 400.5 1357Q520 1456 710 1456Q893 1456 1008.5 1360Q1124 1264 1124 1126Q1124 998 1043.5 892Q963 786 834 728Q726 680 680 632.5Q634 585 620 506L609 446L430 446L448 528Q475 650 534.5 715Q594 780 716 835Q828 887 880.5 953.5Q933 1020 933 1107Q933 1187 870.5 1243Q808 1299 698 1299Q596 1299 523 1243.5Q450 1188 421 1089ZM555.5 21Q555.5 21 536.25 1.5Q517 -18 456 -18Q395 -18 356 21Q317 60 317 121Q317 182 356 221.5Q395 261 456 261Q517 261 555.5 222Q594 183 594 121Q594 60 555.5 21Z" />
<glyph glyph-name="at" unicode="&#x40;" horiz-adv-x="1880" d="M1174 1438Q1383 1438 1554.5 1352.5Q1726 1267 1823.5 1117.5Q1921 968 1921 786Q1921 604 1859 452.5Q1797 301 1689.5 214Q1582 127 1452 127Q1358 127 1296.5 176Q1235 225 1235 299Q1235 302 1235.5 307Q1236 312 1236 315L1220 316Q1182 249 1119 213.5Q1056 178 976 178Q834 178 749 268Q664 358 664 508Q664 723 782.5 870.5Q901 1018 1074 1018Q1162 1018 1232 971Q1302 924 1318 855L1334 855L1360 979L1517 979L1386 376Q1382 355 1382 345Q1382 254 1489 254Q1563 254 1632 328.5Q1701 403 1742.5 525Q1784 647 1784 779Q1784 1010 1607 1161Q1430 1312 1159 1312Q999 1312 854.5 1248Q710 1184 606 1076Q502 968 441 817.5Q380 667 380 500Q380 317 468 177Q556 37 716 -39.5Q876 -116 1085 -116Q1227 -116 1300 -91L1273 -217Q1165 -242 1038 -242Q809 -242 627 -149.5Q445 -57 343.5 108.5Q242 274 242 482Q242 686 312.5 863.5Q383 1041 506 1167Q629 1293 802.5 1365.5Q976 1438 1174 1438ZM1283 659Q1283 757 1229.5 817.5Q1176 878 1088 878Q978 878 902 774Q826 670 826 521Q826 427 876 372Q926 317 1011 317Q1123 317 1203 417.5Q1283 518 1283 659Z" />
<glyph glyph-name="A" unicode="&#x41;" horiz-adv-x="1380" d="M884 1207L522 566L995 566L900 1207ZM1073 0L1015 413L436 413L204 0L11 0L856 1443L1023 1443L1249 0Z" />
<glyph glyph-name="B" unicode="&#x42;" horiz-adv-x="1346" d="M713 0L123 0L430 1443L931 1443Q1116 1443 1226.5 1356.5Q1337 1270 1337 1125Q1337 989 1252 888.5Q1167 788 1025 757L1021 741Q1137 721 1203.5 645.5Q1270 570 1270 458Q1270 258 1113.5 129Q957 0 713 0ZM579 1284L481 821L779 821Q944 821 1047 895Q1150 969 1150 1088Q1150 1284 862 1284ZM340 159L707 159Q866 159 972.5 240.5Q1079 322 1079 443Q1079 666 783 666L448 666Z" />
<glyph glyph-name="C" unicode="&#x43;" horiz-adv-x="1463" d="M1324 992L1324 994Q1313 1139 1211 1224.5Q1109 1310 948 1310Q793 1310 664.5 1213Q536 1116 462 947Q388 778 388 573Q388 370 494 251.5Q600 133 781 133Q927 133 1039 200.5Q1151 268 1190 380L1380 380Q1326 187 1161 76.5Q996 -34 761 -34Q509 -34 355 127.5Q201 289 201 554Q201 751 259 922.5Q317 1094 417.5 1215.5Q518 1337 659 1407Q800 1477 962 1477Q1197 1477 1352 1340.5Q1507 1204 1507 998L1507 992Z" />
<glyph glyph-name="D" unicode="&#x44;" horiz-adv-x="1486" d="M430 1443L833 1443Q1132 1443 1297 1275.5Q1462 1108 1462 812Q1462 641 1404 489.5Q1346 338 1246.5 231Q1147 124 1009 62Q871 0 716 0L125 0ZM580 1283L341 160L723 160Q840 160 943 209Q1046 258 1119 343Q1192 428 1234 547.5Q1276 667 1276 803Q1276 1030 1155.5 1156.5Q1035 1283 819 1283Z" />
<glyph glyph-name="E" unicode="&#x45;" horiz-adv-x="1219" d="M1053 162L1019 0L123 0L430 1443L1326 1443L1291 1281L580 1281L480 818L1155 818L1121 658L447 658L341 162Z" />
<glyph glyph-name="F" unicode="&#x46;" horiz-adv-x="1170" d="M308 0L123 0L430 1443L1308 1443L1273 1281L580 1281L473 785L1110 785L1076 625L439 625Z" />
<glyph glyph-name="G" unicode="&#x47;" horiz-adv-x="1525" d="M1491 736L1449 540Q1389 260 1216.5 113Q1044 -34 776 -34Q519 -34 360.5 130Q202 294 202 562Q202 757 259.5 927.5Q317 1098 417.5 1218.5Q518 1339 659.5 1408Q801 1477 963 1477Q1188 1477 1340.5 1351Q1493 1225 1507 1028Q1508 1020 1508 992L1325 992Q1314 1138 1212.5 1224Q1111 1310 949 1310Q793 1310 664.5 1214.5Q536 1119 462.5 951.5Q389 784 389 581Q389 373 500 253Q611 133 802 133Q974 133 1100.5 240Q1227 347 1262 523L1273 578L873 578L907 736Z" />
<glyph glyph-name="H" unicode="&#x48;" horiz-adv-x="1522" d="M1279 0L1094 0L1234 657L446 657L306 0L123 0L430 1443L614 1443L481 819L1269 819L1402 1443L1586 1443Z" />
<glyph glyph-name="I" unicode="&#x49;" horiz-adv-x="550" d="M307 0L123 0L430 1443L614 1443Z" />
<glyph glyph-name="J" unicode="&#x4a;" horiz-adv-x="1102" d="M96 337L277 337Q279 243 339 189Q399 135 500 135Q708 135 765 404L986 1443L1165 1443L937 363Q897 172 779.5 69Q662 -34 478 -34Q304 -34 194.5 72.5Q85 179 96 337Z" />
<glyph glyph-name="K" unicode="&#x4b;" horiz-adv-x="1349" d="M303 0L123 0L430 1443L609 1443L460 742L476 742L1248 1443L1483 1443L781 808L1230 0L1020 0L639 697L410 493Z" />
<glyph glyph-name="L" unicode="&#x4c;" horiz-adv-x="1164" d="M1035 162L1001 0L123 0L430 1443L614 1443L341 162Z" />
<glyph glyph-name="M" unicode="&#x4d;" horiz-adv-x="1792" d="M295 0L123 0L430 1443L630 1443L872 249L888 249L1634 1443L1856 1443L1549 0L1377 0L1611 1102L1599 1102L914 10L762 10L541 1102L529 1102Z" />
<glyph glyph-name="N" unicode="&#x4e;" horiz-adv-x="1520" d="M305 0L123 0L430 1443L607 1443L1141 290L1157 290L1402 1443L1584 1443L1277 0L1098 0L565 1150L549 1150Z" />
<glyph glyph-name="O" unicode="&#x4f;" horiz-adv-x="1579" d="M968 1310Q806 1310 673.5 1214.5Q541 1119 466 951.5Q391 784 391 579Q391 379 504 256Q617 133 801 133Q964 133 1095 227Q1226 321 1300 488Q1374 655 1374 864Q1374 1063 1261.5 1186.5Q1149 1310 968 1310ZM787 -34Q534 -34 367.5 135.5Q201 305 201 563Q201 757 260.5 927Q320 1097 423 1217.5Q526 1338 671 1407.5Q816 1477 982 1477Q1148 1477 1281.5 1400Q1415 1323 1489.5 1186.5Q1564 1050 1564 880Q1564 619 1464 410Q1364 201 1186.5 83.5Q1009 -34 787 -34Z" />
<glyph glyph-name="P" unicode="&#x50;" horiz-adv-x="1304" d="M430 1443L937 1443Q1114 1443 1232.5 1335.5Q1351 1228 1351 1053Q1351 929 1306.5 827Q1262 725 1184 657Q1106 589 1001 552Q896 515 776 515L416 515L307 0L123 0ZM580 1283L450 675L765 675Q947 675 1055 770.5Q1163 866 1163 1037Q1163 1153 1085 1218Q1007 1283 874 1283Z" />
<glyph glyph-name="Q" unicode="&#x51;" horiz-adv-x="1579" d="M1297 -163L1105 -163L1020 1Q915 -34 787 -34Q534 -34 367.5 135.5Q201 305 201 563Q201 757 260.5 927Q320 1097 423 1217.5Q526 1338 671 1407.5Q816 1477 982 1477Q1234 1477 1399 1308Q1564 1139 1564 880Q1564 617 1461 404Q1358 191 1174 75ZM801 133Q878 133 942 151L806 413L1000 413L1096 227Q1227 322 1300.5 490Q1374 658 1374 864Q1374 1063 1261.5 1186.5Q1149 1310 968 1310Q806 1310 674 1215Q542 1120 466.5 952Q391 784 391 579Q391 379 504.5 256Q618 133 801 133Z" />
<glyph glyph-name="R" unicode="&#x52;" horiz-adv-x="1338" d="M123 0L430 1443L929 1443Q1125 1443 1242.5 1339Q1360 1235 1360 1061Q1360 893 1254.5 767Q1149 641 973 599L1180 0L984 0L796 571L428 571L307 0ZM580 1283L462 731L810 731Q969 731 1069.5 818.5Q1170 906 1170 1044Q1170 1154 1103.5 1218.5Q1037 1283 924 1283Z" />
<glyph glyph-name="S" unicode="&#x53;" horiz-adv-x="1276" d="M119 400L301 400Q327 275 427.5 202Q528 129 674 129Q823 129 915.5 199.5Q1008 270 1008 385Q1008 474 946.5 535Q885 596 745 645L608 693Q460 745 378.5 842Q297 939 297 1063Q297 1241 442.5 1359Q588 1477 806 1477Q1012 1477 1154 1359Q1296 1241 1312 1057L1131 1057Q1103 1179 1014.5 1246.5Q926 1314 795 1314Q661 1314 574 1247.5Q487 1181 487 1079Q487 1002 544 945Q601 888 719 845L849 798Q1027 734 1113 638Q1199 542 1199 408Q1199 212 1048.5 89Q898 -34 659 -34Q437 -34 292.5 82Q148 198 119 400Z" />
<glyph glyph-name="T" unicode="&#x54;" horiz-adv-x="1291" d="M678 0L494 0L766 1281L303 1281L337 1443L1447 1443L1413 1281L950 1281Z" />
<glyph glyph-name="U" unicode="&#x55;" horiz-adv-x="1524" d="M736 -34Q616 -34 520 0.5Q424 35 362.5 96Q301 157 267.5 238Q234 319 233 414Q232 474 246 544L434 1443L618 1443L432 556Q417 488 419 423Q424 286 512 209Q600 132 768 132Q930 132 1045.5 228Q1161 324 1197 491L1400 1443L1584 1443L1374 456Q1324 220 1163 93Q1002 -34 736 -34Z" />
<glyph glyph-name="V" unicode="&#x56;" horiz-adv-x="1380" d="M720 0L542 0L316 1443L486 1443L672 239L688 239L1359 1443L1558 1443Z" />
<glyph glyph-name="W" unicode="&#x57;" horiz-adv-x="1982" d="M1161 1139L601 0L424 0L337 1443L502 1443L560 270L572 270L1144 1443L1306 1443L1400 270L1412 270L1953 1443L2139 1443L1447 0L1270 0L1173 1139Z" />
<glyph glyph-name="X" unicode="&#x58;" horiz-adv-x="1390" d="M31 0L686 752L363 1443L569 1443L818 869L834 869L1342 1443L1547 1443L898 716L1230 0L1036 0L768 586L752 586L235 0Z" />
<glyph glyph-name="Y" unicode="&#x59;" horiz-adv-x="1344" d="M705 0L521 0L653 621L317 1443L504 1443L772 794L788 794L1314 1443L1521 1443L829 595Z" />
<glyph glyph-name="Z" unicode="&#x5a;" horiz-adv-x="1355" d="M84 0L111 128L1159 1265L1163 1281L384 1281L418 1443L1440 1443L1413 1315L368 178L365 162L1185 162L1151 0Z" />
<glyph glyph-name="bracketleft" unicode="&#x5b;" horiz-adv-x="782" d="M498 1506L962 1506L933 1370L637 1370L309 -172L605 -172L576 -307L112 -307Z" />
<glyph glyph-name="backslash" unicode="&#x5c;" horiz-adv-x="742" d="M393 -307L342 1506L486 1506L535 -307Z" />
<glyph glyph-name="bracketright" unicode="&#x5d;" horiz-adv-x="782" d="M419 -307L-45 -307L-16 -171L280 -171L607 1371L311 1371L340 1506L804 1506Z" />
<glyph glyph-name="asciicircum" unicode="&#x5e;" horiz-adv-x="984" d="M696 1280L370 780L207 780L639 1419L829 1419L989 780L826 780L712 1280Z" />
<glyph glyph-name="underscore" unicode="&#x5f;" horiz-adv-x="916" d="M-120 -235L-93 -107L843 -107L816 -235Z" />
<glyph glyph-name="grave" unicode="&#x60;" horiz-adv-x="1094" d="M988 1263L800 1263L594 1601L808 1601Z" />
<glyph glyph-name="a" unicode="&#x61;" horiz-adv-x="1126" d="M490 130Q611 130 704 201.5Q797 273 821 383L848 507L561 493Q429 486 356 434.5Q283 383 283 298Q283 224 341 177Q399 130 490 130ZM436 -19Q295 -19 200.5 67Q106 153 106 279Q106 438 226.5 530Q347 622 571 632L877 646L893 719Q899 752 899 770Q899 852 838 897.5Q777 943 668 943Q577 943 516 908Q455 873 429 808L247 808Q283 941 400.5 1019Q518 1097 682 1097Q860 1097 967 1014.5Q1074 932 1074 795Q1074 752 1065 707L915 0L748 0L778 141L762 141Q705 66 619 23.5Q533 -19 436 -19Z" />
<glyph glyph-name="b" unicode="&#x62;" horiz-adv-x="1259" d="M666 -19Q554 -19 460.5 42.5Q367 104 335 199L319 199L275 0L110 0L430 1506L602 1506L482 931L498 931Q621 1097 836 1097Q999 1097 1108.5 978.5Q1218 860 1218 680Q1218 486 1145.5 325.5Q1073 165 946 73Q819 -19 666 -19ZM653 136Q818 136 928 284Q1038 432 1038 654Q1038 790 969.5 866Q901 942 779 942Q612 942 497 795Q382 648 382 434Q382 297 455 216.5Q528 136 653 136Z" />
<glyph glyph-name="c" unicode="&#x63;" horiz-adv-x="1135" d="M725 1097Q884 1097 998.5 1012.5Q1113 928 1138 795Q1141 780 1143 748L967 748Q959 832 886.5 887Q814 942 711 942Q551 942 444 804Q337 666 337 461Q337 311 409.5 224.5Q482 138 607 138Q707 138 779 182.5Q851 227 882 308L1061 308Q1028 161 899 71Q770 -19 592 -19Q395 -19 275.5 106Q156 231 156 438Q156 625 229 775.5Q302 926 432.5 1011.5Q563 1097 725 1097Z" />
<glyph glyph-name="d" unicode="&#x64;" horiz-adv-x="1265" d="M545 -19Q379 -19 266 101.5Q153 222 153 418Q153 610 227 766Q301 922 428 1009.5Q555 1097 709 1097Q825 1097 914 1036.5Q1003 976 1032 879L1048 879L1181 1506L1356 1506L1036 0L870 0L901 147L885 147Q826 70 736.5 25.5Q647 -19 545 -19ZM600 136Q710 136 800 203Q890 270 941.5 386.5Q993 503 993 644Q993 781 920 861.5Q847 942 722 942Q556 942 444.5 801Q333 660 333 444Q333 307 407 221.5Q481 136 600 136Z" />
<glyph glyph-name="e" unicode="&#x65;" horiz-adv-x="1176" d="M361 638L946 638Q948 650 948 683Q948 795 883.5 870Q819 945 702 945Q580 945 489.5 862Q399 779 361 638ZM595 -19Q407 -19 282 101Q157 221 157 432Q157 729 313.5 913Q470 1097 718 1097Q892 1097 1009.5 980.5Q1127 864 1128 661Q1128 575 1115 499L338 499Q336 463 336 445Q336 365 359.5 304Q383 243 422.5 208Q462 173 508.5 155.5Q555 138 606 138Q803 138 877 275L1060 275Q1026 146 902 63.5Q778 -19 595 -19Z" />
<glyph glyph-name="f" unicode="&#x66;" horiz-adv-x="741" d="M174 0L368 934L189 934L219 1078L398 1078L418 1183Q449 1348 539 1422Q629 1496 793 1496Q847 1496 910 1483L880 1341Q836 1351 776 1351Q701 1351 655.5 1309Q610 1267 593 1178L574 1078L821 1078L791 934L544 934L350 0Z" />
<glyph glyph-name="g" unicode="&#x67;" horiz-adv-x="1247" d="M503 -413Q321 -413 198.5 -323Q76 -233 66 -106L249 -106Q261 -174 332 -219Q403 -264 517 -264Q656 -264 738 -199Q820 -134 846 -22L893 178L877 178Q761 16 551 16Q384 16 271.5 136.5Q159 257 159 447Q159 588 200 710Q241 832 312.5 916.5Q384 1001 483 1049Q582 1097 695 1097Q809 1097 904.5 1035.5Q1000 974 1032 879L1048 879L1090 1078L1257 1078L1013 -52Q977 -219 843.5 -316Q710 -413 503 -413ZM604 168Q769 168 877 300.5Q985 433 985 644Q985 781 910 861.5Q835 942 708 942Q546 942 442.5 813.5Q339 685 339 473Q339 330 410 249Q481 168 604 168Z" />
<glyph glyph-name="h" unicode="&#x68;" horiz-adv-x="1216" d="M110 0L432 1506L607 1506L480 917L496 917Q554 1001 629.5 1049Q705 1097 819 1097Q972 1097 1063.5 1002Q1155 907 1155 773Q1155 717 1141 649L1003 0L828 0L960 619Q973 682 973 724Q973 824 914 883Q855 942 746 942Q622 942 537 863Q452 784 425 658L285 0Z" />
<glyph glyph-name="i" unicode="&#x69;" horiz-adv-x="516" d="M112 0L341 1078L513 1078L284 0ZM585 1332.5Q585 1332.5 567.5 1314.75Q550 1297 500 1297Q450 1297 415 1332.5Q380 1368 380 1417Q380 1466 415 1501.5Q450 1537 500 1537Q550 1537 585 1501.5Q620 1466 620 1417Q620 1368 585 1332.5Z" />
<glyph glyph-name="j" unicode="&#x6a;" horiz-adv-x="516" d="M583.5 1332.5Q583.5 1332.5 565.75 1314.75Q548 1297 499 1297Q450 1297 414.5 1332.5Q379 1368 379 1417Q379 1466 414.5 1501.5Q450 1537 499 1537Q548 1537 583.5 1501.5Q619 1466 619 1417Q619 1368 583.5 1332.5ZM514 1078L268 -79Q236 -230 152.5 -300Q69 -370 -77 -370Q-129 -370 -162 -365L-127 -213Q-104 -217 -72 -217Q4 -217 43 -181Q82 -145 101 -56L342 1078Z" />
<glyph glyph-name="k" unicode="&#x6b;" horiz-adv-x="1086" d="M284 0L110 0L430 1506L604 1506L419 636L435 636L981 1078L1208 1078L643 613L1006 0L805 0L504 516L374 422Z" />
<glyph glyph-name="l" unicode="&#x6c;" horiz-adv-x="516" d="M110 0L430 1506L606 1506L286 0Z" />
<glyph glyph-name="m" unicode="&#x6d;" horiz-adv-x="1782" d="M100 0L329 1078L496 1078L461 912L477 912Q521 993 603.5 1045Q686 1097 775 1097Q887 1097 964 1038.5Q1041 980 1060 900L1076 900Q1130 986 1218 1041.5Q1306 1097 1422 1097Q1554 1097 1640.5 1014Q1727 931 1727 803Q1727 747 1713 679L1569 0L1394 0L1532 649Q1545 712 1545 754Q1545 834 1493.5 888Q1442 942 1353 942Q1254 942 1173 869.5Q1092 797 1066 676L922 0L747 0L885 649Q898 712 898 754Q898 834 846.5 888Q795 942 706 942Q608 942 526.5 871.5Q445 801 421 688L275 0Z" />
<glyph glyph-name="n" unicode="&#x6e;" horiz-adv-x="1198" d="M100 0L329 1078L496 1078L462 917L478 917Q604 1097 805 1097Q955 1097 1046 1002Q1137 907 1137 773Q1137 717 1123 649L985 0L810 0L942 619Q955 682 955 724Q955 823 896.5 882.5Q838 942 732 942Q611 942 526.5 863Q442 784 415 658L275 0Z" />
<glyph glyph-name="o" unicode="&#x6f;" horiz-adv-x="1212" d="M618 136Q717 136 801 200Q885 264 933.5 373.5Q982 483 982 612Q982 766 910 854Q838 942 711 942Q544 942 441 805.5Q338 669 338 448Q338 308 415 222Q492 136 618 136ZM727 1097Q923 1097 1044.5 974Q1166 851 1166 653Q1166 462 1092.5 308Q1019 154 888.5 67.5Q758 -19 596 -19Q400 -19 277.5 105Q155 229 155 427Q155 721 315.5 909Q476 1097 727 1097Z" />
<glyph glyph-name="p" unicode="&#x70;" horiz-adv-x="1254" d="M648 136Q813 136 923 284Q1033 432 1033 654Q1033 790 964.5 866Q896 942 774 942Q607 942 492 795Q377 648 377 434Q377 297 450 216.5Q523 136 648 136ZM201 -360L28 -360L334 1078L500 1078L469 931L485 931Q544 1008 635.5 1052.5Q727 1097 829 1097Q993 1097 1103 978.5Q1213 860 1213 680Q1213 486 1140.5 325.5Q1068 165 941 73Q814 -19 661 -19Q545 -19 456 41.5Q367 102 338 199L322 199Z" />
<glyph glyph-name="q" unicode="&#x71;" horiz-adv-x="1251" d="M591 136Q758 136 873 283Q988 430 988 644Q988 781 915 861.5Q842 942 717 942Q552 942 442 798.5Q332 655 332 440Q332 296 400.5 216Q469 136 591 136ZM954 -360L782 -360L888 147L872 147Q749 -19 534 -19Q370 -19 261 104Q152 227 152 414Q152 603 224.5 760Q297 917 424 1007Q551 1097 704 1097Q816 1097 909.5 1035.5Q1003 974 1035 879L1051 879L1093 1078L1260 1078Z" />
<glyph glyph-name="r" unicode="&#x72;" horiz-adv-x="791" d="M92 0L321 1078L487 1078L458 941L474 941Q578 1097 763 1097Q850 1097 889 1082L852 917Q794 930 716 930Q586 930 509.5 859Q433 788 401 637L266 0Z" />
<glyph glyph-name="s" unicode="&#x73;" horiz-adv-x="1052" d="M227 775Q227 918 341.5 1007.5Q456 1097 631 1097Q800 1097 907 1017Q1014 937 1036 802L865 802Q848 872 785 911.5Q722 951 628 951Q529 951 464.5 906Q400 861 400 791Q400 694 551 645L697 598Q832 555 893 485.5Q954 416 954 307Q954 165 831 73Q708 -19 520 -19Q343 -19 226.5 66Q110 151 98 289L275 289Q296 216 362.5 171Q429 126 528 126Q637 126 707 173Q777 220 777 294Q777 397 642 440L477 493Q350 534 288.5 601.5Q227 669 227 775Z" />
<glyph glyph-name="t" unicode="&#x74;" horiz-adv-x="744" d="M484 -8Q367 -8 296.5 48Q226 104 226 210Q226 250 237 303L372 934L191 934L221 1078L403 1078L460 1357L635 1357L576 1078L821 1078L789 934L546 934L423 356Q411 299 411 259Q411 143 547 143Q591 143 622 147L591 1Q552 -8 484 -8Z" />
<glyph glyph-name="u" unicode="&#x75;" horiz-adv-x="1195" d="M1206 1078L977 0L811 0L844 146L828 146Q780 72 695 26.5Q610 -19 494 -19Q349 -19 260.5 69.5Q172 158 172 294Q172 361 187 434L322 1078L497 1078L366 459Q352 391 352 338Q352 235 403.5 185.5Q455 136 561 136Q688 136 777 217.5Q866 299 894 430L1032 1078Z" />
<glyph glyph-name="v" unicode="&#x76;" horiz-adv-x="1110" d="M238 1078L411 1078L537 222L553 222L1021 1078L1212 1078L590 0L407 0Z" />
<glyph glyph-name="w" unicode="&#x77;" horiz-adv-x="1586" d="M1687 1078L1155 0L980 0L910 827L894 827L483 0L309 0L237 1078L394 1078L443 225L459 225L870 1078L1045 1078L1102 216L1118 216L1514 1078Z" />
<glyph glyph-name="x" unicode="&#x78;" horiz-adv-x="1076" d="M578 405L562 405L223 0L18 0L502 548L244 1078L432 1078L611 677L627 677L964 1078L1169 1078L688 539L944 0L763 0Z" />
<glyph glyph-name="y" unicode="&#x79;" horiz-adv-x="1112" d="M158 -392Q95 -392 34 -376L64 -233Q107 -246 168 -246Q224 -246 271.5 -205.5Q319 -165 373 -65L412 8L237 1078L408 1078L536 221L552 221L1024 1078L1213 1078L527 -118Q436 -277 354.5 -334.5Q273 -392 158 -392Z" />
<glyph glyph-name="z" unicode="&#x7a;" horiz-adv-x="1104" d="M77 0L104 126L868 918L871 934L277 934L309 1078L1135 1078L1106 949L348 160L345 144L938 144L907 0Z" />
<glyph glyph-name="braceleft" unicode="&#x7b;" horiz-adv-x="782" d="M305 293Q316 346 316 380Q316 453 272 478.5Q228 504 128 504L169 695Q290 695 350.5 742.5Q411 790 436 908L495 1182Q532 1353 635 1429.5Q738 1506 912 1506L961 1506L931 1365L887 1365Q783 1365 729.5 1313Q676 1261 650 1140L587 845Q541 629 312 607L309 591Q405 570 446.5 528.5Q488 487 488 416Q488 382 476 324L421 58Q410 5 410 -29Q410 -171 561 -171L606 -171L577 -307L529 -307Q490 -307 454 -301.5Q418 -296 378 -279Q338 -262 309 -235.5Q280 -209 261 -163Q242 -117 242 -58Q242 -12 254 46Z" />
<glyph glyph-name="bar" unicode="&#x7c;" horiz-adv-x="742" d="M319 -307L173 -307L558 1506L704 1506Z" />
<glyph glyph-name="braceright" unicode="&#x7d;" horiz-adv-x="782" d="M612 906Q601 853 601 819Q601 746 645 720.5Q689 695 789 695L748 504Q627 504 566.5 456.5Q506 409 481 291L422 17Q385 -154 282 -230.5Q179 -307 5 -307L-44 -307L-14 -166L30 -166Q134 -166 187.5 -114Q241 -62 267 59L330 354Q376 570 605 592L608 608Q512 629 470.5 670.5Q429 712 429 783Q429 817 441 875L496 1141Q507 1194 507 1228Q507 1370 356 1370L311 1370L340 1506L388 1506Q427 1506 463 1500.5Q499 1495 539 1478Q579 1461 608 1434.5Q637 1408 656 1362Q675 1316 675 1257Q675 1212 663 1153Z" />
<glyph glyph-name="asciitilde" unicode="&#x7e;" horiz-adv-x="1202" d="M726 512Q670 512 622 535.5Q574 559 542 592.5Q510 626 481.5 659.5Q453 693 423 716.5Q393 740 363 740Q309 740 276 699.5Q243 659 227 573L56 573Q74 728 162 815Q250 902 368 902Q423 902 470.5 878.5Q518 855 550.5 821.5Q583 788 611 754.5Q639 721 669 697.5Q699 674 729 674Q837 674 867 841L1038 841Q1020 686 932 599Q844 512 726 512Z" />
<glyph glyph-name="nonbreakingspace" unicode="&#xa0;" horiz-adv-x="578" d="" />
<glyph glyph-name="exclamdown" unicode="&#xa1;" horiz-adv-x="636" d="M287 -342L87 -342L309 622L475 622ZM367 1080.5Q367 1080.5 386.5 1100.25Q406 1120 466 1120Q526 1120 565.5 1080.5Q605 1041 605 981Q605 921 565.5 881Q526 841 466 841Q406 841 367 881Q328 921 328 981Q328 1041 367 1080.5Z" />
<glyph glyph-name="cent" unicode="&#xa2;" horiz-adv-x="1328" d="M1188 504Q1157 365 1039.5 276.5Q922 188 757 178L719 0L547 0L588 194Q447 233 365 351Q283 469 283 638Q283 819 352 966.5Q421 1114 544.5 1201Q668 1288 823 1296L854 1443L1026 1443L991 1278Q1100 1246 1173 1171Q1246 1096 1265 995Q1269 966 1270 948L1094 948Q1086 1032 1013.5 1087Q941 1142 838 1142Q678 1142 571 1004Q464 866 464 661Q464 510 537 422Q610 334 734 334Q834 334 906 378.5Q978 423 1009 504Z" />
<glyph glyph-name="sterling" unicode="&#xa3;" horiz-adv-x="1328" d="M1189 154L1156 0L94 0L126 152Q175 160 227 182Q279 204 330 240.5Q381 277 421 324Q461 371 485.5 434.5Q510 498 510 568Q510 598 505 653L191 653L221 797L490 797Q480 913 480 968Q480 1208 620.5 1342.5Q761 1477 1048 1477Q1137 1477 1234.5 1459Q1332 1441 1390 1412L1355 1254Q1308 1281 1217.5 1299.5Q1127 1318 1043 1318Q869 1318 769.5 1237.5Q670 1157 670 1000Q670 927 681 797L1109 797L1079 653L690 653Q692 613 692 596Q692 261 421 170L418 154Z" />
<glyph glyph-name="currency" unicode="&#xa4;" horiz-adv-x="1328" d="M523.5 842.5Q523.5 842.5 484.75 803.75Q446 765 446 656Q446 547 523.5 469.5Q601 392 710 392Q819 392 896.5 469.5Q974 547 974 656Q974 765 896.5 842.5Q819 920 710 920Q601 920 523.5 842.5ZM1286 1041L1051 847Q1101 758 1101 656Q1101 514 1008 403L1117 265L994 167L884 306Q802 265 710 265Q567 265 458 358L219 160L132 270L368 466Q319 556 319 656Q319 799 412 908L301 1048L424 1146L535 1005Q616 1047 710 1047Q852 1047 962 955L1199 1151Z" />
<glyph glyph-name="yen" unicode="&#xa5;" horiz-adv-x="1328" d="M1026 269L753 269L698 0L513 0L570 269L292 269L321 405L599 405L634 571L356 571L385 707L610 707L309 1443L496 1443L764 794L780 794L1306 1443L1513 1443L912 707L1119 707L1090 571L816 571L781 405L1055 405Z" />
<glyph glyph-name="brokenbar" unicode="&#xa6;" horiz-adv-x="742" d="M553 794L407 794L558 1506L704 1506ZM319 -307L173 -307L315 361L461 361Z" />
<glyph glyph-name="section" unicode="&#xa7;" horiz-adv-x="1032" d="M500 407L592 373Q692 390 751.5 447Q811 504 811 584Q811 694 686 740L600 771Q497 762 428 704Q359 646 359 563Q359 460 500 407ZM459 -257Q294 -257 180 -171Q66 -85 57 51L234 51Q252 -22 313.5 -67Q375 -112 467 -112Q569 -112 632.5 -65Q696 -18 696 56Q696 106 668.5 141Q641 176 571 202L426 255Q186 343 186 539Q186 647 259 723.5Q332 800 451 824L455 842Q372 891 336.5 945.5Q301 1000 301 1081Q301 1223 409 1310Q517 1397 685 1397Q846 1397 948.5 1316Q1051 1235 1070 1102L899 1102Q885 1169 826.5 1210Q768 1251 682 1251Q591 1251 532.5 1206Q474 1161 474 1091Q474 1042 508 1007Q542 972 615 945L741 898Q867 851 927.5 786.5Q988 722 988 617Q988 512 918.5 429Q849 346 728 317L725 305Q806 255 839.5 200Q873 145 873 65Q873 -76 756.5 -166.5Q640 -257 459 -257Z" />
<glyph glyph-name="dieresis" unicode="&#xa8;" horiz-adv-x="1094" d="M664.5 1298.5Q664.5 1298.5 646.75 1280.75Q629 1263 579 1263Q529 1263 493.5 1298.5Q458 1334 458 1384Q458 1434 493.5 1469.5Q529 1505 579 1505Q629 1505 664.5 1469.5Q700 1434 700 1384Q700 1334 664.5 1298.5ZM1068.5 1298.5Q1068.5 1298.5 1050.75 1280.75Q1033 1263 983 1263Q933 1263 897.5 1298.5Q862 1334 862 1384Q862 1434 897.5 1469.5Q933 1505 983 1505Q1033 1505 1068.5 1469.5Q1104 1434 1104 1384Q1104 1334 1068.5 1298.5Z" />
<glyph glyph-name="copyright" unicode="&#xa9;" horiz-adv-x="1742" d="M896 -171Q697 -171 529.5 -78Q362 15 265 176Q168 337 168 528Q168 718 236 884Q304 1050 422.5 1168.5Q541 1287 707 1355Q873 1423 1063 1423Q1268 1423 1435 1332Q1602 1241 1697 1081.5Q1792 922 1792 726Q1792 599 1761 481Q1730 363 1674 264.5Q1618 166 1536.5 84.5Q1455 3 1356.5 -53Q1258 -109 1140.5 -140Q1023 -171 896 -171ZM913 -31Q1065 -31 1201 26.5Q1337 84 1435 182.5Q1533 281 1590.5 418Q1648 555 1648 708Q1648 956 1477 1119.5Q1306 1283 1047 1283Q845 1283 676 1185.5Q507 1088 409.5 918.5Q312 749 312 546Q312 385 391 252.5Q470 120 608 44.5Q746 -31 913 -31ZM1341 795L1209 795Q1203 858 1148.5 899.5Q1094 941 1017 941Q897 941 816.5 837.5Q736 734 736 580Q736 467 790.5 401Q845 335 939 335Q1014 335 1068 368Q1122 401 1145 462L1279 462Q1254 352 1157.5 284.5Q1061 217 928 217Q781 217 691 312Q601 407 601 563Q601 776 722 916.5Q843 1057 1027 1057Q1162 1057 1247 986Q1332 915 1341 795Z" />
<glyph glyph-name="ordfeminine" unicode="&#xaa;" horiz-adv-x="942" d="M572 949Q468 944 409.5 903.5Q351 863 351 796Q351 738 397 701Q443 664 516 664Q612 664 686 719.5Q760 775 779 861L800 960ZM184 776Q184 910 286.5 987.5Q389 1065 577 1072L826 1083L839 1143Q844 1174 843 1183Q844 1247 795 1283.5Q746 1320 660 1320Q512 1320 469 1213L301 1213Q330 1327 431 1394Q532 1461 673 1461Q826 1461 918 1391Q1010 1321 1010 1205Q1010 1163 1003 1132L877 541L717 541L742 658L728 658Q682 597 611 562.5Q540 528 458 528Q341 528 262.5 599Q184 670 184 776Z" />
<glyph glyph-name="guillemotleft" unicode="&#xab;" horiz-adv-x="1390" d="M659 145L469 145L207 561L209 569L648 985L867 985L414 553L411 537ZM1137 145L947 145L685 561L687 569L1126 985L1345 985L892 553L889 537Z" />
<glyph glyph-name="logicalnot" unicode="&#xac;" horiz-adv-x="1328" d="M1217 654L1105 126L957 126L1038 506L238 506L269 654Z" />
<glyph glyph-name="registered" unicode="&#xae;" horiz-adv-x="1261" d="M613 739L515 739L621 1238L862 1238Q927 1238 971 1198.5Q1015 1159 1015 1105Q1015 1036 973.5 991Q932 946 864 935L960 739L850 739L760 922L652 922ZM700 1149L670 1006L794 1006Q903 1006 903 1089Q903 1115 883.5 1132Q864 1149 827 1149ZM777 449Q559 449 407 601Q255 753 255 971Q255 1115 324.5 1235Q394 1355 514 1424Q634 1493 777 1493Q885 1493 981.5 1452Q1078 1411 1147.5 1341.5Q1217 1272 1258 1175.5Q1299 1079 1299 971Q1299 828 1230 708Q1161 588 1041 518.5Q921 449 777 449ZM774 553Q950 553 1072.5 674.5Q1195 796 1195 971Q1195 1146 1073.5 1267.5Q952 1389 777 1389Q602 1389 480.5 1267.5Q359 1146 359 971Q359 796 479.5 674.5Q600 553 774 553Z" />
<glyph glyph-name="macron" unicode="&#xaf;" horiz-adv-x="1094" d="M1126 1422L1097 1286L423 1286L452 1422Z" />
<glyph glyph-name="degree" unicode="&#xb0;" horiz-adv-x="901" d="M864.5 907.5Q864.5 907.5 818.25 860.25Q772 813 632 813Q492 813 400 907Q308 1001 308 1138Q308 1275 400 1369Q492 1463 632 1463Q772 1463 864.5 1368.5Q957 1274 957 1138Q957 1002 864.5 907.5ZM632 941Q721 941 776 998Q831 1055 831 1138Q831 1222 775.5 1278.5Q720 1335 632 1335Q544 1335 489.5 1278.5Q435 1222 435 1138Q435 1055 489.5 998Q544 941 632 941Z" />
<glyph glyph-name="plusminus" unicode="&#xb1;" horiz-adv-x="1328" d="M1137 112L119 112L150 260L1168 260ZM821 662L759 371L607 371L669 662L236 662L265 798L698 798L761 1089L913 1089L850 798L1283 798L1254 662Z" />
<glyph glyph-name="two.sups" unicode="&#xb2;" horiz-adv-x="855" d="M366 1547Q377 1669 472.5 1748Q568 1827 707 1827Q835 1827 919.5 1758Q1004 1689 1004 1585Q1004 1505 949 1433Q894 1361 732 1230L520 1052L518 1041L921 1041L891 900L245 900L272 1026L628 1323Q754 1427 792.5 1474Q831 1521 831 1569Q831 1622 792.5 1655.5Q754 1689 693 1689Q631 1689 585.5 1651Q540 1613 528 1550L528 1547Z" />
<glyph glyph-name="three.sups" unicode="&#xb3;" horiz-adv-x="867" d="M532 1300L558 1429L681 1429Q754 1429 802 1470Q850 1511 850 1574Q850 1626 810 1658Q770 1690 705 1690Q648 1690 603.5 1658Q559 1626 542 1573L381 1573Q405 1689 497 1758Q589 1827 719 1827Q850 1827 935 1761Q1020 1695 1020 1594Q1020 1506 960.5 1441Q901 1376 808 1362L807 1351Q882 1335 922.5 1286.5Q963 1238 963 1165Q963 1039 863 957.5Q763 876 608 876Q452 876 357 959Q262 1042 278 1165L443 1165Q443 1099 489 1058.5Q535 1018 611 1018Q692 1018 741.5 1061.5Q791 1105 791 1176Q791 1231 746.5 1265.5Q702 1300 631 1300Z" />
<glyph glyph-name="acute" unicode="&#xb4;" horiz-adv-x="1094" d="M713 1263L519 1263L843 1601L1063 1601Z" />
<glyph glyph-name="mugreek" unicode="&#xb5;" horiz-adv-x="1273" d="M18 -360L322 1078L497 1078L371 483Q352 392 352 345Q352 138 563 138Q683 138 784 232.5Q885 327 914 466L1044 1078L1216 1078L1044 269Q1037 236 1037 210Q1037 172 1057.5 156.5Q1078 141 1128 141Q1157 141 1178 145L1147 0Q1106 -10 1060 -10Q962 -10 916.5 35Q871 80 871 173L871 179L855 179Q801 92 710 36.5Q619 -19 519 -19Q443 -19 384.5 21Q326 61 311 128L295 128L191 -360Z" />
<glyph glyph-name="paragraph" unicode="&#xb6;" horiz-adv-x="1321" d="M774 -220L594 -220L763 575Q582 575 466 680.5Q350 786 350 950Q350 1168 511.5 1305.5Q673 1443 928 1443L1128 1443ZM921 -220L1275 1443L1455 1443L1101 -220Z" />
<glyph glyph-name="periodcentered" unicode="&#xb7;" horiz-adv-x="630" d="M412 605Q358 605 318.5 644.5Q279 684 279 738Q279 793 318.5 832Q358 871 412 871Q467 871 506 832Q545 793 545 738Q545 684 506 644.5Q467 605 412 605Z" />
<glyph glyph-name="cedilla" unicode="&#xb8;" horiz-adv-x="1094" d="M281 -233L294 -143L407 39L548 39L437 -140Q616 -160 616 -296Q616 -381 546.5 -436Q477 -491 369 -491Q274 -491 194 -455L217 -347Q282 -375 364 -375Q412 -375 440 -356Q468 -337 468 -305Q468 -233 334 -233Z" />
<glyph glyph-name="one.sups" unicode="&#xb9;" horiz-adv-x="680" d="M450 900L604 1625L593 1625L337 1470L373 1639L643 1803L816 1803L624 900Z" />
<glyph glyph-name="ordmasculine" unicode="&#xba;" horiz-adv-x="1024" d="M604 515Q431 515 328.5 624Q226 733 226 918Q226 1070 291 1195Q356 1320 470 1391.5Q584 1463 723 1463Q897 1463 997.5 1356.5Q1098 1250 1098 1065Q1098 913 1032.5 786.5Q967 660 853.5 587.5Q740 515 604 515ZM921 1049Q921 1172 862 1243.5Q803 1315 702 1315Q574 1315 488.5 1208Q403 1101 403 941Q403 811 461 737Q519 663 622 663Q747 663 834 775Q921 887 921 1049Z" />
<glyph glyph-name="guillemotright" unicode="&#xbb;" horiz-adv-x="1393" d="M854 985L1044 985L1306 569L1304 561L865 145L646 145L1099 577L1102 593ZM373 985L563 985L825 569L823 561L384 145L165 145L618 577L621 593Z" />
<glyph glyph-name="onequarter" unicode="&#xbc;" horiz-adv-x="2046" d="M462 540L616 1265L605 1265L349 1110L385 1279L655 1443L828 1443L636 540ZM702 0L529 0L1025 758L1473 1443L1646 1443L1174 722ZM1623 0L1658 166L1215 166L1243 322Q1407 538 1727 903L1981 903L1854 307L1974 307L1944 166L1824 166L1789 0ZM1405 312L1403 303L1691 303L1789 768L1780 768Q1600 564 1405 312Z" />
<glyph glyph-name="onehalf" unicode="&#xbd;" horiz-adv-x="2036" d="M462 540L616 1265L605 1265L349 1110L385 1279L655 1443L828 1443L636 540ZM702 0L529 0L1025 758L1473 1443L1646 1443L1174 722ZM1387 647Q1398 769 1493.5 848Q1589 927 1728 927Q1856 927 1940.5 858Q2025 789 2025 685Q2025 605 1970 533Q1915 461 1753 330L1541 152L1539 141L1942 141L1912 0L1266 0L1293 126L1649 423Q1775 527 1813.5 574Q1852 621 1852 669Q1852 722 1813.5 755.5Q1775 789 1714 789Q1652 789 1606.5 751Q1561 713 1549 650L1549 647Z" />
<glyph glyph-name="threequarters" unicode="&#xbe;" horiz-adv-x="2182" d="M455 940L481 1069L604 1069Q677 1069 725 1110Q773 1151 773 1214Q773 1266 733 1298Q693 1330 628 1330Q571 1330 526.5 1298Q482 1266 465 1213L304 1213Q328 1329 420 1398Q512 1467 642 1467Q773 1467 858 1401Q943 1335 943 1234Q943 1146 883.5 1081Q824 1016 731 1002L730 991Q805 975 845.5 926.5Q886 878 886 805Q886 679 786 597.5Q686 516 531 516Q375 516 280 599Q185 682 201 805L366 805Q366 739 412 698.5Q458 658 534 658Q615 658 664.5 701.5Q714 745 714 816Q714 871 669.5 905.5Q625 940 554 940ZM838 0L665 0L1161 758L1609 1443L1782 1443L1310 722ZM1759 0L1794 166L1351 166L1379 322Q1543 538 1863 903L2117 903L1990 307L2110 307L2080 166L1960 166L1925 0ZM1541 312L1539 303L1827 303L1925 768L1916 768Q1736 564 1541 312Z" />
<glyph glyph-name="questiondown" unicode="&#xbf;" horiz-adv-x="1049" d="M917 13Q883 -156 763.5 -255Q644 -354 454 -354Q271 -354 155.5 -258Q40 -162 40 -24Q40 104 120.5 210Q201 316 330 374Q438 422 484 469.5Q530 517 544 596L555 656L734 656L716 574Q689 452 629.5 387Q570 322 448 267Q336 215 283.5 148.5Q231 82 231 -5Q231 -85 293.5 -141Q356 -197 466 -197Q568 -197 641 -141.5Q714 -86 743 13ZM608.5 1081Q608.5 1081 627.75 1100.5Q647 1120 708 1120Q769 1120 808 1081Q847 1042 847 981Q847 920 808 880.5Q769 841 708 841Q647 841 608.5 880Q570 919 570 981Q570 1042 608.5 1081Z" />
<glyph glyph-name="Agrave" unicode="&#xc0;" horiz-adv-x="1380" d="M884 1207L522 566L995 566L900 1207ZM1073 0L1015 413L436 413L204 0L11 0L856 1443L1023 1443L1249 0ZM865 1575L659 1873L865 1873L1049 1575Z" />
<glyph glyph-name="Aacute" unicode="&#xc1;" horiz-adv-x="1380" d="M884 1207L522 566L995 566L900 1207ZM1073 0L1015 413L436 413L204 0L11 0L856 1443L1023 1443L1249 0ZM1081 1575L877 1575L1250 1873L1476 1873Z" />
<glyph glyph-name="Acircumflex" unicode="&#xc2;" horiz-adv-x="1380" d="M884 1207L522 566L995 566L900 1207ZM1073 0L1015 413L436 413L204 0L11 0L856 1443L1023 1443L1249 0ZM1122 1873L1306 1575L1121 1575L1016 1761L1000 1761L817 1575L610 1575L920 1873Z" />
<glyph glyph-name="Atilde" unicode="&#xc3;" horiz-adv-x="1380" d="M884 1207L522 566L995 566L900 1207ZM1073 0L1015 413L436 413L204 0L11 0L856 1443L1023 1443L1249 0ZM1147 1570Q1098 1570 1058 1589Q1018 1608 992.5 1635Q967 1662 945 1689Q923 1716 898.5 1735Q874 1754 848 1754Q803 1754 775 1720.5Q747 1687 734 1615L592 1615Q607 1745 679.5 1817Q752 1889 855 1889Q904 1889 943.5 1870Q983 1851 1008 1824Q1033 1797 1055 1770Q1077 1743 1101.5 1724Q1126 1705 1153 1705Q1242 1705 1268 1844L1410 1844Q1395 1714 1322.5 1642Q1250 1570 1147 1570Z" />
<glyph glyph-name="Adieresis" unicode="&#xc4;" horiz-adv-x="1380" d="M884 1207L522 566L995 566L900 1207ZM1073 0L1015 413L436 413L204 0L11 0L856 1443L1023 1443L1249 0ZM876.5 1610.5Q876.5 1610.5 858.75 1592.75Q841 1575 791 1575Q741 1575 705.5 1610.5Q670 1646 670 1696Q670 1746 705.5 1781.5Q741 1817 791 1817Q841 1817 876.5 1781.5Q912 1746 912 1696Q912 1646 876.5 1610.5ZM1280.5 1610.5Q1280.5 1610.5 1262.75 1592.75Q1245 1575 1195 1575Q1145 1575 1109.5 1610.5Q1074 1646 1074 1696Q1074 1746 1109.5 1781.5Q1145 1817 1195 1817Q1245 1817 1280.5 1781.5Q1316 1746 1316 1696Q1316 1646 1280.5 1610.5Z" />
<glyph glyph-name="Aring" unicode="&#xc5;" horiz-adv-x="1380" d="M884 1207L522 566L995 566L900 1207ZM1073 0L1015 413L436 413L204 0L11 0L856 1443L1023 1443L1249 0ZM1178 1627.5Q1178 1627.5 1144 1594.25Q1110 1561 1014 1561Q918 1561 850 1627.5Q782 1694 782 1790Q782 1886 850 1952.5Q918 2019 1014 2019Q1110 2019 1178 1952.5Q1246 1886 1246 1790Q1246 1694 1178 1627.5ZM927 1702Q927 1702 944.5 1684.5Q962 1667 1014 1667Q1066 1667 1101 1702Q1136 1737 1136 1790Q1136 1843 1101 1878Q1066 1913 1014 1913Q962 1913 927 1878Q892 1843 892 1790Q892 1737 927 1702Z" />
<glyph glyph-name="AE" unicode="&#xc6;" horiz-adv-x="1966" d="M1207 1292L1060 1292L605 612L1062 612ZM932 0L1030 459L503 459L196 0L9 0L967 1443L2077 1443L2042 1281L1384 1281L1284 808L1905 808L1871 648L1250 648L1146 162L1804 162L1770 0Z" />
<glyph glyph-name="Ccedilla" unicode="&#xc7;" horiz-adv-x="1466" d="M1507 992L1324 992L1324 994Q1313 1139 1211 1224.5Q1109 1310 948 1310Q793 1310 664.5 1213Q536 1116 462 947Q388 778 388 573Q388 370 494 251.5Q600 133 781 133Q927 133 1039 200.5Q1151 268 1190 380L1380 380Q1331 203 1186 94.5Q1041 -14 834 -31L766 -140Q945 -160 945 -296Q945 -381 875.5 -436Q806 -491 698 -491Q603 -491 523 -455L546 -347Q611 -375 693 -375Q741 -375 769 -356Q797 -337 797 -305Q797 -233 663 -233L610 -233L623 -143L693 -31Q469 -8 335 150Q201 308 201 554Q201 751 259 922.5Q317 1094 417.5 1215.5Q518 1337 659 1407Q800 1477 962 1477Q1197 1477 1352 1340.5Q1507 1204 1507 998Z" />
<glyph glyph-name="Egrave" unicode="&#xc8;" horiz-adv-x="1219" d="M1053 162L1019 0L123 0L430 1443L1326 1443L1291 1281L580 1281L480 818L1155 818L1121 658L447 658L341 162ZM803 1575L597 1873L803 1873L987 1575Z" />
<glyph glyph-name="Eacute" unicode="&#xc9;" horiz-adv-x="1219" d="M1053 162L1019 0L123 0L430 1443L1326 1443L1291 1281L580 1281L480 818L1155 818L1121 658L447 658L341 162ZM1019 1575L815 1575L1188 1873L1414 1873Z" />
<glyph glyph-name="Ecircumflex" unicode="&#xca;" horiz-adv-x="1219" d="M1053 162L1019 0L123 0L430 1443L1326 1443L1291 1281L580 1281L480 818L1155 818L1121 658L447 658L341 162ZM1060 1873L1244 1575L1059 1575L954 1761L938 1761L755 1575L548 1575L858 1873Z" />
<glyph glyph-name="Edieresis" unicode="&#xcb;" horiz-adv-x="1219" d="M1053 162L1019 0L123 0L430 1443L1326 1443L1291 1281L580 1281L480 818L1155 818L1121 658L447 658L341 162ZM814.5 1610.5Q814.5 1610.5 796.75 1592.75Q779 1575 729 1575Q679 1575 643.5 1610.5Q608 1646 608 1696Q608 1746 643.5 1781.5Q679 1817 729 1817Q779 1817 814.5 1781.5Q850 1746 850 1696Q850 1646 814.5 1610.5ZM1218.5 1610.5Q1218.5 1610.5 1200.75 1592.75Q1183 1575 1133 1575Q1083 1575 1047.5 1610.5Q1012 1646 1012 1696Q1012 1746 1047.5 1781.5Q1083 1817 1133 1817Q1183 1817 1218.5 1781.5Q1254 1746 1254 1696Q1254 1646 1218.5 1610.5Z" />
<glyph glyph-name="Igrave" unicode="&#xcc;" horiz-adv-x="550" d="M307 0L123 0L430 1443L614 1443ZM448 1575L242 1873L448 1873L632 1575Z" />
<glyph glyph-name="Iacute" unicode="&#xcd;" horiz-adv-x="550" d="M307 0L123 0L430 1443L614 1443ZM664 1575L460 1575L833 1873L1059 1873Z" />
<glyph glyph-name="Icircumflex" unicode="&#xce;" horiz-adv-x="550" d="M307 0L123 0L430 1443L614 1443ZM705 1873L889 1575L704 1575L599 1761L583 1761L400 1575L193 1575L503 1873Z" />
<glyph glyph-name="Idieresis" unicode="&#xcf;" horiz-adv-x="550" d="M307 0L123 0L430 1443L614 1443ZM459.5 1610.5Q459.5 1610.5 441.75 1592.75Q424 1575 374 1575Q324 1575 288.5 1610.5Q253 1646 253 1696Q253 1746 288.5 1781.5Q324 1817 374 1817Q424 1817 459.5 1781.5Q495 1746 495 1696Q495 1646 459.5 1610.5ZM863.5 1610.5Q863.5 1610.5 845.75 1592.75Q828 1575 778 1575Q728 1575 692.5 1610.5Q657 1646 657 1696Q657 1746 692.5 1781.5Q728 1817 778 1817Q828 1817 863.5 1781.5Q899 1746 899 1696Q899 1646 863.5 1610.5Z" />
<glyph glyph-name="Eth" unicode="&#xd0;" horiz-adv-x="1486" d="M341 160L723 160Q840 160 943 209Q1046 258 1119 343Q1192 428 1234 547.5Q1276 667 1276 803Q1276 1030 1155.5 1156.5Q1035 1283 819 1283L580 1283L483 826L702 826L667 663L448 663ZM430 1443L833 1443Q1132 1443 1297 1275.5Q1462 1108 1462 812Q1462 641 1404 489.5Q1346 338 1246.5 231Q1147 124 1009 62Q871 0 716 0L125 0L265 663L81 663L116 826L300 826Z" />
<glyph glyph-name="Ntilde" unicode="&#xd1;" horiz-adv-x="1520" d="M305 0L123 0L430 1443L607 1443L1141 290L1157 290L1402 1443L1584 1443L1277 0L1098 0L565 1150L549 1150ZM1224 1570Q1175 1570 1135 1589Q1095 1608 1069.5 1635Q1044 1662 1022 1689Q1000 1716 975.5 1735Q951 1754 925 1754Q880 1754 852 1720.5Q824 1687 811 1615L669 1615Q684 1745 756.5 1817Q829 1889 932 1889Q981 1889 1020.5 1870Q1060 1851 1085 1824Q1110 1797 1132 1770Q1154 1743 1178.5 1724Q1203 1705 1230 1705Q1319 1705 1345 1844L1487 1844Q1472 1714 1399.5 1642Q1327 1570 1224 1570Z" />
<glyph glyph-name="Ograve" unicode="&#xd2;" horiz-adv-x="1579" d="M968 1310Q806 1310 673.5 1214.5Q541 1119 466 951.5Q391 784 391 579Q391 379 504 256Q617 133 801 133Q964 133 1095 227Q1226 321 1300 488Q1374 655 1374 864Q1374 1063 1261.5 1186.5Q1149 1310 968 1310ZM787 -34Q534 -34 367.5 135.5Q201 305 201 563Q201 757 260.5 927Q320 1097 423 1217.5Q526 1338 671 1407.5Q816 1477 982 1477Q1148 1477 1281.5 1400Q1415 1323 1489.5 1186.5Q1564 1050 1564 880Q1564 619 1464 410Q1364 201 1186.5 83.5Q1009 -34 787 -34ZM903 1573L697 1871L903 1871L1087 1573Z" />
<glyph glyph-name="Oacute" unicode="&#xd3;" horiz-adv-x="1579" d="M968 1310Q806 1310 673.5 1214.5Q541 1119 466 951.5Q391 784 391 579Q391 379 504 256Q617 133 801 133Q964 133 1095 227Q1226 321 1300 488Q1374 655 1374 864Q1374 1063 1261.5 1186.5Q1149 1310 968 1310ZM787 -34Q534 -34 367.5 135.5Q201 305 201 563Q201 757 260.5 927Q320 1097 423 1217.5Q526 1338 671 1407.5Q816 1477 982 1477Q1148 1477 1281.5 1400Q1415 1323 1489.5 1186.5Q1564 1050 1564 880Q1564 619 1464 410Q1364 201 1186.5 83.5Q1009 -34 787 -34ZM1119 1573L915 1573L1288 1871L1514 1871Z" />
<glyph glyph-name="Ocircumflex" unicode="&#xd4;" horiz-adv-x="1579" d="M968 1310Q806 1310 673.5 1214.5Q541 1119 466 951.5Q391 784 391 579Q391 379 504 256Q617 133 801 133Q964 133 1095 227Q1226 321 1300 488Q1374 655 1374 864Q1374 1063 1261.5 1186.5Q1149 1310 968 1310ZM787 -34Q534 -34 367.5 135.5Q201 305 201 563Q201 757 260.5 927Q320 1097 423 1217.5Q526 1338 671 1407.5Q816 1477 982 1477Q1148 1477 1281.5 1400Q1415 1323 1489.5 1186.5Q1564 1050 1564 880Q1564 619 1464 410Q1364 201 1186.5 83.5Q1009 -34 787 -34ZM1160 1871L1344 1573L1159 1573L1054 1759L1038 1759L855 1573L648 1573L958 1871Z" />
<glyph glyph-name="Otilde" unicode="&#xd5;" horiz-adv-x="1579" d="M968 1310Q806 1310 673.5 1214.5Q541 1119 466 951.5Q391 784 391 579Q391 379 504 256Q617 133 801 133Q964 133 1095 227Q1226 321 1300 488Q1374 655 1374 864Q1374 1063 1261.5 1186.5Q1149 1310 968 1310ZM787 -34Q534 -34 367.5 135.5Q201 305 201 563Q201 757 260.5 927Q320 1097 423 1217.5Q526 1338 671 1407.5Q816 1477 982 1477Q1148 1477 1281.5 1400Q1415 1323 1489.5 1186.5Q1564 1050 1564 880Q1564 619 1464 410Q1364 201 1186.5 83.5Q1009 -34 787 -34ZM1185 1568Q1136 1568 1096 1587Q1056 1606 1030.5 1633Q1005 1660 983 1687Q961 1714 936.5 1733Q912 1752 886 1752Q841 1752 813 1718.5Q785 1685 772 1613L630 1613Q645 1743 717.5 1815Q790 1887 893 1887Q942 1887 981.5 1868Q1021 1849 1046 1822Q1071 1795 1093 1768Q1115 1741 1139.5 1722Q1164 1703 1191 1703Q1280 1703 1306 1842L1448 1842Q1433 1712 1360.5 1640Q1288 1568 1185 1568Z" />
<glyph glyph-name="Odieresis" unicode="&#xd6;" horiz-adv-x="1579" d="M968 1310Q806 1310 673.5 1214.5Q541 1119 466 951.5Q391 784 391 579Q391 379 504 256Q617 133 801 133Q964 133 1095 227Q1226 321 1300 488Q1374 655 1374 864Q1374 1063 1261.5 1186.5Q1149 1310 968 1310ZM787 -34Q534 -34 367.5 135.5Q201 305 201 563Q201 757 260.5 927Q320 1097 423 1217.5Q526 1338 671 1407.5Q816 1477 982 1477Q1148 1477 1281.5 1400Q1415 1323 1489.5 1186.5Q1564 1050 1564 880Q1564 619 1464 410Q1364 201 1186.5 83.5Q1009 -34 787 -34ZM914.5 1608.5Q914.5 1608.5 896.75 1590.75Q879 1573 829 1573Q779 1573 743.5 1608.5Q708 1644 708 1694Q708 1744 743.5 1779.5Q779 1815 829 1815Q879 1815 914.5 1779.5Q950 1744 950 1694Q950 1644 914.5 1608.5ZM1318.5 1608.5Q1318.5 1608.5 1300.75 1590.75Q1283 1573 1233 1573Q1183 1573 1147.5 1608.5Q1112 1644 1112 1694Q1112 1744 1147.5 1779.5Q1183 1815 1233 1815Q1283 1815 1318.5 1779.5Q1354 1744 1354 1694Q1354 1644 1318.5 1608.5Z" />
<glyph glyph-name="multiply" unicode="&#xd7;" horiz-adv-x="1328" d="M946 168L711 467L338 160L244 276L617 584L379 888L505 992L744 689L1117 996L1211 880L839 572L1072 272Z" />
<glyph glyph-name="Oslash" unicode="&#xd8;" horiz-adv-x="1551" d="M1286 1158L558 208Q661 133 801 133Q964 133 1095 227Q1226 321 1300 488Q1374 655 1374 864Q1374 1039 1286 1158ZM470 299L1198 1242Q1101 1310 968 1310Q806 1310 673.5 1214.5Q541 1119 466 951.5Q391 784 391 579Q391 414 470 299ZM1486 1419L1400 1307Q1564 1138 1564 880Q1564 619 1464 410Q1364 201 1186.5 83.5Q1009 -34 787 -34Q597 -34 449 67L362 -47L262 29L355 149Q201 316 201 563Q201 757 260.5 927Q320 1097 423 1217.5Q526 1338 671 1407.5Q816 1477 982 1477Q1164 1477 1307 1384L1388 1488Z" />
<glyph glyph-name="Ugrave" unicode="&#xd9;" horiz-adv-x="1524" d="M736 -34Q616 -34 520 0.5Q424 35 362.5 96Q301 157 267.5 238Q234 319 233 414Q232 474 246 544L434 1443L618 1443L432 556Q417 488 419 423Q424 286 512 209Q600 132 768 132Q930 132 1045.5 228Q1161 324 1197 491L1400 1443L1584 1443L1374 456Q1324 220 1163 93Q1002 -34 736 -34ZM934 1575L728 1873L934 1873L1118 1575Z" />
<glyph glyph-name="Uacute" unicode="&#xda;" horiz-adv-x="1524" d="M736 -34Q616 -34 520 0.5Q424 35 362.5 96Q301 157 267.5 238Q234 319 233 414Q232 474 246 544L434 1443L618 1443L432 556Q417 488 419 423Q424 286 512 209Q600 132 768 132Q930 132 1045.5 228Q1161 324 1197 491L1400 1443L1584 1443L1374 456Q1324 220 1163 93Q1002 -34 736 -34ZM1150 1575L946 1575L1319 1873L1545 1873Z" />
<glyph glyph-name="Ucircumflex" unicode="&#xdb;" horiz-adv-x="1524" d="M736 -34Q616 -34 520 0.5Q424 35 362.5 96Q301 157 267.5 238Q234 319 233 414Q232 474 246 544L434 1443L618 1443L432 556Q417 488 419 423Q424 286 512 209Q600 132 768 132Q930 132 1045.5 228Q1161 324 1197 491L1400 1443L1584 1443L1374 456Q1324 220 1163 93Q1002 -34 736 -34ZM1191 1873L1375 1575L1190 1575L1085 1761L1069 1761L886 1575L679 1575L989 1873Z" />
<glyph glyph-name="Udieresis" unicode="&#xdc;" horiz-adv-x="1524" d="M736 -34Q616 -34 520 0.5Q424 35 362.5 96Q301 157 267.5 238Q234 319 233 414Q232 474 246 544L434 1443L618 1443L432 556Q417 488 419 423Q424 286 512 209Q600 132 768 132Q930 132 1045.5 228Q1161 324 1197 491L1400 1443L1584 1443L1374 456Q1324 220 1163 93Q1002 -34 736 -34ZM945.5 1610.5Q945.5 1610.5 927.75 1592.75Q910 1575 860 1575Q810 1575 774.5 1610.5Q739 1646 739 1696Q739 1746 774.5 1781.5Q810 1817 860 1817Q910 1817 945.5 1781.5Q981 1746 981 1696Q981 1646 945.5 1610.5ZM1349.5 1610.5Q1349.5 1610.5 1331.75 1592.75Q1314 1575 1264 1575Q1214 1575 1178.5 1610.5Q1143 1646 1143 1696Q1143 1746 1178.5 1781.5Q1214 1817 1264 1817Q1314 1817 1349.5 1781.5Q1385 1746 1385 1696Q1385 1646 1349.5 1610.5Z" />
<glyph glyph-name="Yacute" unicode="&#xdd;" horiz-adv-x="1344" d="M705 0L521 0L653 621L317 1443L504 1443L772 794L788 794L1314 1443L1521 1443L829 595ZM1060 1575L856 1575L1229 1873L1455 1873Z" />
<glyph glyph-name="Thorn" unicode="&#xde;" horiz-adv-x="1280" d="M124 0L431 1443L610 1443L553 1177L885 1177Q1056 1177 1163.5 1078Q1271 979 1271 821Q1271 609 1118.5 479Q966 349 718 349L378 349L304 0ZM520 1017L412 509L707 509Q885 509 984 587Q1083 665 1083 805Q1083 904 1016.5 960.5Q950 1017 824 1017Z" />
<glyph glyph-name="germandbls" unicode="&#xdf;" horiz-adv-x="1338" d="M339 0L165 0L393 1072Q428 1238 549 1331.5Q670 1425 848 1425Q1018 1425 1131 1332.5Q1244 1240 1244 1100Q1244 960 1152 864.5Q1060 769 914 756L910 738Q1056 723 1141.5 640Q1227 557 1227 431Q1227 237 1084.5 109.5Q942 -18 724 -18Q605 -18 516 16L549 168Q583 155 636.5 145.5Q690 136 733 136Q867 136 961 220Q1055 304 1055 425Q1055 531 972.5 594Q890 657 753 657L682 657L718 827L797 827Q910 827 990 898Q1070 969 1070 1069Q1070 1160 1006 1216Q942 1272 838 1272Q729 1272 655.5 1206.5Q582 1141 556 1021Z" />
<glyph glyph-name="agrave" unicode="&#xe0;" horiz-adv-x="1126" d="M490 130Q611 130 704 201.5Q797 273 821 383L848 507L561 493Q429 486 356 434.5Q283 383 283 298Q283 224 341 177Q399 130 490 130ZM436 -19Q295 -19 200.5 67Q106 153 106 279Q106 438 226.5 530Q347 622 571 632L877 646L893 719Q899 752 899 770Q899 852 838 897.5Q777 943 668 943Q577 943 516 908Q455 873 429 808L247 808Q283 941 400.5 1019Q518 1097 682 1097Q860 1097 967 1014.5Q1074 932 1074 795Q1074 752 1065 707L915 0L748 0L778 141L762 141Q705 66 619 23.5Q533 -19 436 -19ZM797 1263L609 1263L403 1601L617 1601Z" />
<glyph glyph-name="aacute" unicode="&#xe1;" horiz-adv-x="1126" d="M490 130Q611 130 704 201.5Q797 273 821 383L848 507L561 493Q429 486 356 434.5Q283 383 283 298Q283 224 341 177Q399 130 490 130ZM436 -19Q295 -19 200.5 67Q106 153 106 279Q106 438 226.5 530Q347 622 571 632L877 646L893 719Q899 752 899 770Q899 852 838 897.5Q777 943 668 943Q577 943 516 908Q455 873 429 808L247 808Q283 941 400.5 1019Q518 1097 682 1097Q860 1097 967 1014.5Q1074 932 1074 795Q1074 752 1065 707L915 0L748 0L778 141L762 141Q705 66 619 23.5Q533 -19 436 -19ZM835 1263L641 1263L965 1601L1185 1601Z" />
<glyph glyph-name="acircumflex" unicode="&#xe2;" horiz-adv-x="1126" d="M490 130Q611 130 704 201.5Q797 273 821 383L848 507L561 493Q429 486 356 434.5Q283 383 283 298Q283 224 341 177Q399 130 490 130ZM436 -19Q295 -19 200.5 67Q106 153 106 279Q106 438 226.5 530Q347 622 571 632L877 646L893 719Q899 752 899 770Q899 852 838 897.5Q777 943 668 943Q577 943 516 908Q455 873 429 808L247 808Q283 941 400.5 1019Q518 1097 682 1097Q860 1097 967 1014.5Q1074 932 1074 795Q1074 752 1065 707L915 0L748 0L778 141L762 141Q705 66 619 23.5Q533 -19 436 -19ZM893 1568L1103 1228L916 1228L787 1455L771 1455L546 1228L337 1228L691 1568Z" />
<glyph glyph-name="atilde" unicode="&#xe3;" horiz-adv-x="1126" d="M490 130Q611 130 704 201.5Q797 273 821 383L848 507L561 493Q429 486 356 434.5Q283 383 283 298Q283 224 341 177Q399 130 490 130ZM436 -19Q295 -19 200.5 67Q106 153 106 279Q106 438 226.5 530Q347 622 571 632L877 646L893 719Q899 752 899 770Q899 852 838 897.5Q777 943 668 943Q577 943 516 908Q455 873 429 808L247 808Q283 941 400.5 1019Q518 1097 682 1097Q860 1097 967 1014.5Q1074 932 1074 795Q1074 752 1065 707L915 0L748 0L778 141L762 141Q705 66 619 23.5Q533 -19 436 -19ZM927 1217Q878 1217 838 1236Q798 1255 772.5 1282Q747 1309 725 1336Q703 1363 678.5 1382Q654 1401 628 1401Q583 1401 555 1367.5Q527 1334 514 1262L372 1262Q387 1392 459.5 1464Q532 1536 635 1536Q684 1536 723.5 1517Q763 1498 788 1471Q813 1444 835 1417Q857 1390 881.5 1371Q906 1352 933 1352Q1022 1352 1048 1491L1190 1491Q1175 1361 1102.5 1289Q1030 1217 927 1217Z" />
<glyph glyph-name="adieresis" unicode="&#xe4;" horiz-adv-x="1126" d="M490 130Q611 130 704 201.5Q797 273 821 383L848 507L561 493Q429 486 356 434.5Q283 383 283 298Q283 224 341 177Q399 130 490 130ZM436 -19Q295 -19 200.5 67Q106 153 106 279Q106 438 226.5 530Q347 622 571 632L877 646L893 719Q899 752 899 770Q899 852 838 897.5Q777 943 668 943Q577 943 516 908Q455 873 429 808L247 808Q283 941 400.5 1019Q518 1097 682 1097Q860 1097 967 1014.5Q1074 932 1074 795Q1074 752 1065 707L915 0L748 0L778 141L762 141Q705 66 619 23.5Q533 -19 436 -19ZM639.5 1263.5Q639.5 1263.5 621.75 1245.75Q604 1228 554 1228Q504 1228 468.5 1263.5Q433 1299 433 1349Q433 1399 468.5 1434.5Q504 1470 554 1470Q604 1470 639.5 1434.5Q675 1399 675 1349Q675 1299 639.5 1263.5ZM1043.5 1263.5Q1043.5 1263.5 1025.75 1245.75Q1008 1228 958 1228Q908 1228 872.5 1263.5Q837 1299 837 1349Q837 1399 872.5 1434.5Q908 1470 958 1470Q1008 1470 1043.5 1434.5Q1079 1399 1079 1349Q1079 1299 1043.5 1263.5Z" />
<glyph glyph-name="aring" unicode="&#xe5;" horiz-adv-x="1126" d="M490 130Q611 130 704 201.5Q797 273 821 383L848 507L561 493Q429 486 356 434.5Q283 383 283 298Q283 224 341 177Q399 130 490 130ZM436 -19Q295 -19 200.5 67Q106 153 106 279Q106 438 226.5 530Q347 622 571 632L877 646L893 719Q899 752 899 770Q899 852 838 897.5Q777 943 668 943Q577 943 516 908Q455 873 429 808L247 808Q283 941 400.5 1019Q518 1097 682 1097Q860 1097 967 1014.5Q1074 932 1074 795Q1074 752 1065 707L915 0L748 0L778 141L762 141Q705 66 619 23.5Q533 -19 436 -19ZM944 1294.5Q944 1294.5 910 1261.25Q876 1228 780 1228Q684 1228 616 1294.5Q548 1361 548 1457Q548 1553 616 1619.5Q684 1686 780 1686Q876 1686 944 1619.5Q1012 1553 1012 1457Q1012 1361 944 1294.5ZM693 1369Q693 1369 710.5 1351.5Q728 1334 780 1334Q832 1334 867 1369Q902 1404 902 1457Q902 1510 867 1545Q832 1580 780 1580Q728 1580 693 1545Q658 1510 658 1457Q658 1404 693 1369Z" />
<glyph glyph-name="ae" unicode="&#xe6;" horiz-adv-x="1866" d="M1273 -19Q1147 -19 1039 46.5Q931 112 888 221L873 221Q814 119 700 50Q586 -19 456 -19Q302 -19 204 66Q106 151 106 279Q106 439 226.5 530.5Q347 622 571 632L877 646L893 719Q899 752 899 770Q899 852 838 897.5Q777 943 668 943Q577 943 516 908Q455 873 429 808L247 808Q283 941 400.5 1019Q518 1097 682 1097Q803 1097 893 1054Q983 1011 1028 929L1044 929Q1185 1097 1408 1097Q1582 1097 1699.5 980.5Q1817 864 1818 661Q1818 575 1805 499L1028 499Q1026 463 1026 443Q1026 363 1049.5 302Q1073 241 1112.5 206.5Q1152 172 1198.5 155Q1245 138 1296 138Q1493 138 1567 275L1750 275Q1716 146 1589.5 63.5Q1463 -19 1273 -19ZM1051 638L1636 638Q1638 650 1638 683Q1638 795 1573.5 870Q1509 945 1392 945Q1270 945 1179.5 862Q1089 779 1051 638ZM490 130Q611 130 704 201.5Q797 273 821 383L848 507L561 493Q429 486 356 434.5Q283 383 283 298Q283 224 341 177Q399 130 490 130Z" />
<glyph glyph-name="ccedilla" unicode="&#xe7;" horiz-adv-x="1146" d="M1143 748L967 748Q959 832 886.5 887Q814 942 711 942Q551 942 444 804Q337 666 337 461Q337 311 409.5 224.5Q482 138 607 138Q707 138 779 182.5Q851 227 882 308L1061 308Q1029 164 905 75Q781 -14 608 -19L533 -140Q712 -160 712 -296Q712 -381 642.5 -436Q573 -491 465 -491Q370 -491 290 -455L313 -347Q378 -375 460 -375Q508 -375 536 -356Q564 -337 564 -305Q564 -233 430 -233L377 -233L390 -143L475 -6Q328 29 242 147Q156 265 156 438Q156 625 229 775.5Q302 926 432.5 1011.5Q563 1097 725 1097Q884 1097 998.5 1012.5Q1113 928 1138 795Q1141 780 1143 748Z" />
<glyph glyph-name="egrave" unicode="&#xe8;" horiz-adv-x="1170" d="M361 638L946 638Q948 650 948 683Q948 795 883.5 870Q819 945 702 945Q580 945 489.5 862Q399 779 361 638ZM595 -19Q407 -19 282 101Q157 221 157 432Q157 729 313.5 913Q470 1097 718 1097Q892 1097 1009.5 980.5Q1127 864 1128 661Q1128 575 1115 499L338 499Q336 463 336 445Q336 365 359.5 304Q383 243 422.5 208Q462 173 508.5 155.5Q555 138 606 138Q803 138 877 275L1060 275Q1026 146 902 63.5Q778 -19 595 -19ZM808 1263L620 1263L414 1601L628 1601Z" />
<glyph glyph-name="eacute" unicode="&#xe9;" horiz-adv-x="1170" d="M361 638L946 638Q948 650 948 683Q948 795 883.5 870Q819 945 702 945Q580 945 489.5 862Q399 779 361 638ZM595 -19Q407 -19 282 101Q157 221 157 432Q157 729 313.5 913Q470 1097 718 1097Q892 1097 1009.5 980.5Q1127 864 1128 661Q1128 575 1115 499L338 499Q336 463 336 445Q336 365 359.5 304Q383 243 422.5 208Q462 173 508.5 155.5Q555 138 606 138Q803 138 877 275L1060 275Q1026 146 902 63.5Q778 -19 595 -19ZM846 1263L652 1263L976 1601L1196 1601Z" />
<glyph glyph-name="ecircumflex" unicode="&#xea;" horiz-adv-x="1170" d="M361 638L946 638Q948 650 948 683Q948 795 883.5 870Q819 945 702 945Q580 945 489.5 862Q399 779 361 638ZM595 -19Q407 -19 282 101Q157 221 157 432Q157 729 313.5 913Q470 1097 718 1097Q892 1097 1009.5 980.5Q1127 864 1128 661Q1128 575 1115 499L338 499Q336 463 336 445Q336 365 359.5 304Q383 243 422.5 208Q462 173 508.5 155.5Q555 138 606 138Q803 138 877 275L1060 275Q1026 146 902 63.5Q778 -19 595 -19ZM904 1568L1114 1228L927 1228L798 1455L782 1455L557 1228L348 1228L702 1568Z" />
<glyph glyph-name="edieresis" unicode="&#xeb;" horiz-adv-x="1170" d="M361 638L946 638Q948 650 948 683Q948 795 883.5 870Q819 945 702 945Q580 945 489.5 862Q399 779 361 638ZM595 -19Q407 -19 282 101Q157 221 157 432Q157 729 313.5 913Q470 1097 718 1097Q892 1097 1009.5 980.5Q1127 864 1128 661Q1128 575 1115 499L338 499Q336 463 336 445Q336 365 359.5 304Q383 243 422.5 208Q462 173 508.5 155.5Q555 138 606 138Q803 138 877 275L1060 275Q1026 146 902 63.5Q778 -19 595 -19ZM650.5 1263.5Q650.5 1263.5 632.75 1245.75Q615 1228 565 1228Q515 1228 479.5 1263.5Q444 1299 444 1349Q444 1399 479.5 1434.5Q515 1470 565 1470Q615 1470 650.5 1434.5Q686 1399 686 1349Q686 1299 650.5 1263.5ZM1054.5 1263.5Q1054.5 1263.5 1036.75 1245.75Q1019 1228 969 1228Q919 1228 883.5 1263.5Q848 1299 848 1349Q848 1399 883.5 1434.5Q919 1470 969 1470Q1019 1470 1054.5 1434.5Q1090 1399 1090 1349Q1090 1299 1054.5 1263.5Z" />
<glyph glyph-name="igrave" unicode="&#xec;" horiz-adv-x="516" d="M112 0L341 1078L513 1078L284 0ZM525 1263L337 1263L131 1601L345 1601Z" />
<glyph glyph-name="iacute" unicode="&#xed;" horiz-adv-x="516" d="M112 0L341 1078L513 1078L284 0ZM563 1263L369 1263L693 1601L913 1601Z" />
<glyph glyph-name="icircumflex" unicode="&#xee;" horiz-adv-x="516" d="M112 0L341 1078L513 1078L284 0ZM621 1568L831 1228L644 1228L515 1455L499 1455L274 1228L65 1228L419 1568Z" />
<glyph glyph-name="idieresis" unicode="&#xef;" horiz-adv-x="516" d="M112 0L341 1078L513 1078L284 0ZM367.5 1263.5Q367.5 1263.5 349.75 1245.75Q332 1228 282 1228Q232 1228 196.5 1263.5Q161 1299 161 1349Q161 1399 196.5 1434.5Q232 1470 282 1470Q332 1470 367.5 1434.5Q403 1399 403 1349Q403 1299 367.5 1263.5ZM771.5 1263.5Q771.5 1263.5 753.75 1245.75Q736 1228 686 1228Q636 1228 600.5 1263.5Q565 1299 565 1349Q565 1399 600.5 1434.5Q636 1470 686 1470Q736 1470 771.5 1434.5Q807 1399 807 1349Q807 1299 771.5 1263.5Z" />
<glyph glyph-name="eth" unicode="&#xf0;" horiz-adv-x="1188" d="M588 -19Q392 -19 266.5 101Q141 221 141 403Q141 586 209 737Q277 888 397.5 975Q518 1062 666 1062Q781 1062 877 1006Q973 950 1008 863L1023 862Q1017 1046 911 1247L560 1141L553 1269L845 1358Q809 1410 723 1507L914 1507Q972 1438 995 1403L1228 1474L1236 1346L1055 1291Q1174 1042 1174 797Q1174 626 1135 476Q1074 245 929.5 113Q785 -19 588 -19ZM981 607Q981 737 898.5 820Q816 903 687 903Q531 903 427 768.5Q323 634 323 434Q323 297 398.5 217Q474 137 602 137Q674 137 744 176Q814 215 865.5 279Q917 343 949 430Q981 517 981 607Z" />
<glyph glyph-name="ntilde" unicode="&#xf1;" horiz-adv-x="1198" d="M100 0L329 1078L496 1078L462 917L478 917Q604 1097 805 1097Q955 1097 1046 1002Q1137 907 1137 773Q1137 717 1123 649L985 0L810 0L942 619Q955 682 955 724Q955 823 896.5 882.5Q838 942 732 942Q611 942 526.5 863Q442 784 415 658L275 0ZM1000 1217Q951 1217 911 1236Q871 1255 845.5 1282Q820 1309 798 1336Q776 1363 751.5 1382Q727 1401 701 1401Q656 1401 628 1367.5Q600 1334 587 1262L445 1262Q460 1392 532.5 1464Q605 1536 708 1536Q757 1536 796.5 1517Q836 1498 861 1471Q886 1444 908 1417Q930 1390 954.5 1371Q979 1352 1006 1352Q1095 1352 1121 1491L1263 1491Q1248 1361 1175.5 1289Q1103 1217 1000 1217Z" />
<glyph glyph-name="ograve" unicode="&#xf2;" horiz-adv-x="1210" d="M618 136Q717 136 801 200Q885 264 933.5 373.5Q982 483 982 612Q982 766 910 854Q838 942 711 942Q544 942 441 805.5Q338 669 338 448Q338 308 415 222Q492 136 618 136ZM727 1097Q923 1097 1044.5 974Q1166 851 1166 653Q1166 462 1092.5 308Q1019 154 888.5 67.5Q758 -19 596 -19Q400 -19 277.5 105Q155 229 155 427Q155 721 315.5 909Q476 1097 727 1097ZM823 1263L635 1263L429 1601L643 1601Z" />
<glyph glyph-name="oacute" unicode="&#xf3;" horiz-adv-x="1210" d="M618 136Q717 136 801 200Q885 264 933.5 373.5Q982 483 982 612Q982 766 910 854Q838 942 711 942Q544 942 441 805.5Q338 669 338 448Q338 308 415 222Q492 136 618 136ZM727 1097Q923 1097 1044.5 974Q1166 851 1166 653Q1166 462 1092.5 308Q1019 154 888.5 67.5Q758 -19 596 -19Q400 -19 277.5 105Q155 229 155 427Q155 721 315.5 909Q476 1097 727 1097ZM861 1263L667 1263L991 1601L1211 1601Z" />
<glyph glyph-name="ocircumflex" unicode="&#xf4;" horiz-adv-x="1210" d="M618 136Q717 136 801 200Q885 264 933.5 373.5Q982 483 982 612Q982 766 910 854Q838 942 711 942Q544 942 441 805.5Q338 669 338 448Q338 308 415 222Q492 136 618 136ZM727 1097Q923 1097 1044.5 974Q1166 851 1166 653Q1166 462 1092.5 308Q1019 154 888.5 67.5Q758 -19 596 -19Q400 -19 277.5 105Q155 229 155 427Q155 721 315.5 909Q476 1097 727 1097ZM919 1568L1129 1228L942 1228L813 1455L797 1455L572 1228L363 1228L717 1568Z" />
<glyph glyph-name="otilde" unicode="&#xf5;" horiz-adv-x="1210" d="M618 136Q717 136 801 200Q885 264 933.5 373.5Q982 483 982 612Q982 766 910 854Q838 942 711 942Q544 942 441 805.5Q338 669 338 448Q338 308 415 222Q492 136 618 136ZM727 1097Q923 1097 1044.5 974Q1166 851 1166 653Q1166 462 1092.5 308Q1019 154 888.5 67.5Q758 -19 596 -19Q400 -19 277.5 105Q155 229 155 427Q155 721 315.5 909Q476 1097 727 1097ZM953 1217Q904 1217 864 1236Q824 1255 798.5 1282Q773 1309 751 1336Q729 1363 704.5 1382Q680 1401 654 1401Q609 1401 581 1367.5Q553 1334 540 1262L398 1262Q413 1392 485.5 1464Q558 1536 661 1536Q710 1536 749.5 1517Q789 1498 814 1471Q839 1444 861 1417Q883 1390 907.5 1371Q932 1352 959 1352Q1048 1352 1074 1491L1216 1491Q1201 1361 1128.5 1289Q1056 1217 953 1217Z" />
<glyph glyph-name="odieresis" unicode="&#xf6;" horiz-adv-x="1210" d="M618 136Q717 136 801 200Q885 264 933.5 373.5Q982 483 982 612Q982 766 910 854Q838 942 711 942Q544 942 441 805.5Q338 669 338 448Q338 308 415 222Q492 136 618 136ZM727 1097Q923 1097 1044.5 974Q1166 851 1166 653Q1166 462 1092.5 308Q1019 154 888.5 67.5Q758 -19 596 -19Q400 -19 277.5 105Q155 229 155 427Q155 721 315.5 909Q476 1097 727 1097ZM665.5 1263.5Q665.5 1263.5 647.75 1245.75Q630 1228 580 1228Q530 1228 494.5 1263.5Q459 1299 459 1349Q459 1399 494.5 1434.5Q530 1470 580 1470Q630 1470 665.5 1434.5Q701 1399 701 1349Q701 1299 665.5 1263.5ZM1069.5 1263.5Q1069.5 1263.5 1051.75 1245.75Q1034 1228 984 1228Q934 1228 898.5 1263.5Q863 1299 863 1349Q863 1399 898.5 1434.5Q934 1470 984 1470Q1034 1470 1069.5 1434.5Q1105 1399 1105 1349Q1105 1299 1069.5 1263.5Z" />
<glyph glyph-name="divide" unicode="&#xf7;" horiz-adv-x="1328" d="M1221 506L203 506L234 654L1252 654ZM885 847Q885 847 867.5 829.5Q850 812 796 812Q742 812 706 847.5Q670 883 670 937Q670 991 706 1026.5Q742 1062 796 1062Q849 1062 884.5 1026.5Q920 991 920 937Q920 882 885 847ZM645 98Q591 98 555 133.5Q519 169 519 223Q519 277 555 312.5Q591 348 645 348Q698 348 733.5 312.5Q769 277 769 223Q769 168 733.5 133Q698 98 645 98Z" />
<glyph glyph-name="oslash" unicode="&#xf8;" horiz-adv-x="1212" d="M951 785L433 204Q506 136 618 136Q717 136 801 200Q885 264 933.5 373.5Q982 483 982 612Q982 711 951 785ZM367 297L888 877Q818 942 711 942Q544 942 441 805.5Q338 669 338 448Q338 364 367 297ZM1190 1054L1081 931Q1166 816 1166 653Q1166 462 1092.5 308Q1019 154 888.5 67.5Q758 -19 596 -19Q431 -19 315 72L218 -37L129 32L237 153Q155 268 155 427Q155 721 315.5 909Q476 1097 727 1097Q890 1097 1006 1008L1104 1118Z" />
<glyph glyph-name="ugrave" unicode="&#xf9;" horiz-adv-x="1195" d="M1206 1078L977 0L811 0L844 146L828 146Q780 72 695 26.5Q610 -19 494 -19Q349 -19 260.5 69.5Q172 158 172 294Q172 361 187 434L322 1078L497 1078L366 459Q352 391 352 338Q352 235 403.5 185.5Q455 136 561 136Q688 136 777 217.5Q866 299 894 430L1032 1078ZM854 1263L666 1263L460 1601L674 1601Z" />
<glyph glyph-name="uacute" unicode="&#xfa;" horiz-adv-x="1195" d="M1206 1078L977 0L811 0L844 146L828 146Q780 72 695 26.5Q610 -19 494 -19Q349 -19 260.5 69.5Q172 158 172 294Q172 361 187 434L322 1078L497 1078L366 459Q352 391 352 338Q352 235 403.5 185.5Q455 136 561 136Q688 136 777 217.5Q866 299 894 430L1032 1078ZM892 1263L698 1263L1022 1601L1242 1601Z" />
<glyph glyph-name="ucircumflex" unicode="&#xfb;" horiz-adv-x="1195" d="M1206 1078L977 0L811 0L844 146L828 146Q780 72 695 26.5Q610 -19 494 -19Q349 -19 260.5 69.5Q172 158 172 294Q172 361 187 434L322 1078L497 1078L366 459Q352 391 352 338Q352 235 403.5 185.5Q455 136 561 136Q688 136 777 217.5Q866 299 894 430L1032 1078ZM950 1568L1160 1228L973 1228L844 1455L828 1455L603 1228L394 1228L748 1568Z" />
<glyph glyph-name="udieresis" unicode="&#xfc;" horiz-adv-x="1195" d="M1206 1078L977 0L811 0L844 146L828 146Q780 72 695 26.5Q610 -19 494 -19Q349 -19 260.5 69.5Q172 158 172 294Q172 361 187 434L322 1078L497 1078L366 459Q352 391 352 338Q352 235 403.5 185.5Q455 136 561 136Q688 136 777 217.5Q866 299 894 430L1032 1078ZM696.5 1263.5Q696.5 1263.5 678.75 1245.75Q661 1228 611 1228Q561 1228 525.5 1263.5Q490 1299 490 1349Q490 1399 525.5 1434.5Q561 1470 611 1470Q661 1470 696.5 1434.5Q732 1399 732 1349Q732 1299 696.5 1263.5ZM1100.5 1263.5Q1100.5 1263.5 1082.75 1245.75Q1065 1228 1015 1228Q965 1228 929.5 1263.5Q894 1299 894 1349Q894 1399 929.5 1434.5Q965 1470 1015 1470Q1065 1470 1100.5 1434.5Q1136 1399 1136 1349Q1136 1299 1100.5 1263.5Z" />
<glyph glyph-name="yacute" unicode="&#xfd;" horiz-adv-x="1112" d="M158 -392Q95 -392 34 -376L64 -233Q107 -246 168 -246Q224 -246 271.5 -205.5Q319 -165 373 -65L412 8L237 1078L408 1078L536 221L552 221L1024 1078L1213 1078L527 -118Q436 -277 354.5 -334.5Q273 -392 158 -392ZM862 1263L668 1263L992 1601L1212 1601Z" />
<glyph glyph-name="thorn" unicode="&#xfe;" horiz-adv-x="1260" d="M653 136Q818 136 928 284Q1038 432 1038 654Q1038 790 969.5 866Q901 942 779 942Q612 942 497 795Q382 648 382 434Q382 297 455 216.5Q528 136 653 136ZM327 199L206 -360L33 -360L430 1506L602 1506L482 931L498 931Q621 1097 836 1097Q999 1097 1108.5 978.5Q1218 860 1218 680Q1218 486 1145.5 325.5Q1073 165 946 73Q819 -19 666 -19Q550 -19 461 41.5Q372 102 343 199Z" />
<glyph glyph-name="ydieresis" unicode="&#xff;" horiz-adv-x="1112" d="M158 -392Q95 -392 34 -376L64 -233Q107 -246 168 -246Q224 -246 271.5 -205.5Q319 -165 373 -65L412 8L237 1078L408 1078L536 221L552 221L1024 1078L1213 1078L527 -118Q436 -277 354.5 -334.5Q273 -392 158 -392ZM666.5 1263.5Q666.5 1263.5 648.75 1245.75Q631 1228 581 1228Q531 1228 495.5 1263.5Q460 1299 460 1349Q460 1399 495.5 1434.5Q531 1470 581 1470Q631 1470 666.5 1434.5Q702 1399 702 1349Q702 1299 666.5 1263.5ZM1070.5 1263.5Q1070.5 1263.5 1052.75 1245.75Q1035 1228 985 1228Q935 1228 899.5 1263.5Q864 1299 864 1349Q864 1399 899.5 1434.5Q935 1470 985 1470Q1035 1470 1070.5 1434.5Q1106 1399 1106 1349Q1106 1299 1070.5 1263.5Z" />
<glyph glyph-name="Amacron" unicode="&#x0100;" horiz-adv-x="1380" d="M884 1207L522 566L995 566L900 1207ZM1073 0L1015 413L436 413L204 0L11 0L856 1443L1023 1443L1249 0ZM1343 1756L1314 1620L640 1620L669 1756Z" />
<glyph glyph-name="amacron" unicode="&#x0101;" horiz-adv-x="1126" d="M490 130Q611 130 704 201.5Q797 273 821 383L848 507L561 493Q429 486 356 434.5Q283 383 283 298Q283 224 341 177Q399 130 490 130ZM436 -19Q295 -19 200.5 67Q106 153 106 279Q106 438 226.5 530Q347 622 571 632L877 646L893 719Q899 752 899 770Q899 852 838 897.5Q777 943 668 943Q577 943 516 908Q455 873 429 808L247 808Q283 941 400.5 1019Q518 1097 682 1097Q860 1097 967 1014.5Q1074 932 1074 795Q1074 752 1065 707L915 0L748 0L778 141L762 141Q705 66 619 23.5Q533 -19 436 -19ZM1109 1422L1080 1286L406 1286L435 1422Z" />
<glyph glyph-name="Abreve" unicode="&#x0102;" horiz-adv-x="1380" d="M884 1207L522 566L995 566L900 1207ZM1073 0L1015 413L436 413L204 0L11 0L856 1443L1023 1443L1249 0ZM639 1873L789 1873L789 1860Q789 1793 845.5 1748.5Q902 1704 985 1704Q1069 1704 1127 1749Q1185 1794 1205 1873L1359 1873Q1333 1736 1229.5 1655.5Q1126 1575 981 1575Q829 1575 734 1655Q639 1735 639 1863Z" />
<glyph glyph-name="abreve" unicode="&#x0103;" horiz-adv-x="1126" d="M490 130Q611 130 704 201.5Q797 273 821 383L848 507L561 493Q429 486 356 434.5Q283 383 283 298Q283 224 341 177Q399 130 490 130ZM436 -19Q295 -19 200.5 67Q106 153 106 279Q106 438 226.5 530Q347 622 571 632L877 646L893 719Q899 752 899 770Q899 852 838 897.5Q777 943 668 943Q577 943 516 908Q455 873 429 808L247 808Q283 941 400.5 1019Q518 1097 682 1097Q860 1097 967 1014.5Q1074 932 1074 795Q1074 752 1065 707L915 0L748 0L778 141L762 141Q705 66 619 23.5Q533 -19 436 -19ZM402 1556L553 1556Q551 1540 551 1525Q551 1448 604.5 1402.5Q658 1357 749 1357Q850 1357 911 1408Q972 1459 986 1556L1142 1556Q1128 1408 1020 1318Q912 1228 742 1228Q581 1228 490 1308.5Q399 1389 399 1514Q399 1534 402 1556Z" />
<glyph glyph-name="Aogonek" unicode="&#x0104;" horiz-adv-x="1380" d="M1157 -288L1128 -422Q1095 -432 1055 -432Q950 -432 882.5 -377Q815 -322 815 -238Q815 -155 880 -84Q945 -13 1069 29L1015 413L436 413L204 0L11 0L856 1443L1023 1443L1249 0L1210 -12Q1107 -44 1049.5 -92.5Q992 -141 992 -200Q992 -242 1026 -266.5Q1060 -291 1119 -291Q1142 -291 1157 -288ZM884 1207L522 566L995 566L900 1207Z" />
<glyph glyph-name="aogonek" unicode="&#x0105;" horiz-adv-x="1126" d="M490 130Q611 130 704 201.5Q797 273 821 383L848 507L561 493Q429 486 356 434.5Q283 383 283 298Q283 224 341 177Q399 130 490 130ZM821 -422Q781 -432 748 -432Q643 -432 575.5 -377.5Q508 -323 508 -238Q508 -78 750 10L778 141L762 141Q705 66 619 23.5Q533 -19 436 -19Q295 -19 200.5 67Q106 153 106 279Q106 438 226.5 530Q347 622 571 632L877 646L893 719Q899 752 899 770Q899 852 838 897.5Q777 943 668 943Q577 943 516 908Q455 873 429 808L247 808Q283 941 400.5 1019Q518 1097 682 1097Q860 1097 967 1014.5Q1074 932 1074 795Q1074 752 1065 707L913 -10L905 -13Q685 -96 685 -200Q685 -242 719 -266.5Q753 -291 812 -291Q835 -291 850 -288Z" />
<glyph glyph-name="Cacute" unicode="&#x0106;" horiz-adv-x="1466" d="M1324 992L1324 994Q1313 1139 1211 1224.5Q1109 1310 948 1310Q793 1310 664.5 1213Q536 1116 462 947Q388 778 388 573Q388 370 494 251.5Q600 133 781 133Q927 133 1039 200.5Q1151 268 1190 380L1380 380Q1326 187 1161 76.5Q996 -34 761 -34Q509 -34 355 127.5Q201 289 201 554Q201 751 259 922.5Q317 1094 417.5 1215.5Q518 1337 659 1407Q800 1477 962 1477Q1197 1477 1352 1340.5Q1507 1204 1507 998L1507 992ZM1098 1577L894 1577L1267 1875L1493 1875Z" />
<glyph glyph-name="cacute" unicode="&#x0107;" horiz-adv-x="1146" d="M725 1097Q884 1097 998.5 1012.5Q1113 928 1138 795Q1141 780 1143 748L967 748Q959 832 886.5 887Q814 942 711 942Q551 942 444 804Q337 666 337 461Q337 311 409.5 224.5Q482 138 607 138Q707 138 779 182.5Q851 227 882 308L1061 308Q1028 161 899 71Q770 -19 592 -19Q395 -19 275.5 106Q156 231 156 438Q156 625 229 775.5Q302 926 432.5 1011.5Q563 1097 725 1097ZM888 1263L694 1263L1018 1601L1238 1601Z" />
<glyph glyph-name="Ccircumflex" unicode="&#x0108;" horiz-adv-x="1466" d="M1324 992L1324 994Q1313 1139 1211 1224.5Q1109 1310 948 1310Q793 1310 664.5 1213Q536 1116 462 947Q388 778 388 573Q388 370 494 251.5Q600 133 781 133Q927 133 1039 200.5Q1151 268 1190 380L1380 380Q1326 187 1161 76.5Q996 -34 761 -34Q509 -34 355 127.5Q201 289 201 554Q201 751 259 922.5Q317 1094 417.5 1215.5Q518 1337 659 1407Q800 1477 962 1477Q1197 1477 1352 1340.5Q1507 1204 1507 998L1507 992ZM1139 1875L1323 1577L1138 1577L1033 1763L1017 1763L834 1577L627 1577L937 1875Z" />
<glyph glyph-name="ccircumflex" unicode="&#x0109;" horiz-adv-x="1146" d="M725 1097Q884 1097 998.5 1012.5Q1113 928 1138 795Q1141 780 1143 748L967 748Q959 832 886.5 887Q814 942 711 942Q551 942 444 804Q337 666 337 461Q337 311 409.5 224.5Q482 138 607 138Q707 138 779 182.5Q851 227 882 308L1061 308Q1028 161 899 71Q770 -19 592 -19Q395 -19 275.5 106Q156 231 156 438Q156 625 229 775.5Q302 926 432.5 1011.5Q563 1097 725 1097ZM946 1568L1156 1228L969 1228L840 1455L824 1455L599 1228L390 1228L744 1568Z" />
<glyph glyph-name="Cdotaccent" unicode="&#x010a;" horiz-adv-x="1466" d="M1324 992L1324 994Q1313 1139 1211 1224.5Q1109 1310 948 1310Q793 1310 664.5 1213Q536 1116 462 947Q388 778 388 573Q388 370 494 251.5Q600 133 781 133Q927 133 1039 200.5Q1151 268 1190 380L1380 380Q1326 187 1161 76.5Q996 -34 761 -34Q509 -34 355 127.5Q201 289 201 554Q201 751 259 922.5Q317 1094 417.5 1215.5Q518 1337 659 1407Q800 1477 962 1477Q1197 1477 1352 1340.5Q1507 1204 1507 998L1507 992ZM1096.5 1612.5Q1096.5 1612.5 1078.75 1594.75Q1061 1577 1011 1577Q961 1577 925.5 1612.5Q890 1648 890 1698Q890 1748 925.5 1783.5Q961 1819 1011 1819Q1061 1819 1096.5 1783.5Q1132 1748 1132 1698Q1132 1648 1096.5 1612.5Z" />
<glyph glyph-name="cdotaccent" unicode="&#x010b;" horiz-adv-x="1146" d="M725 1097Q884 1097 998.5 1012.5Q1113 928 1138 795Q1141 780 1143 748L967 748Q959 832 886.5 887Q814 942 711 942Q551 942 444 804Q337 666 337 461Q337 311 409.5 224.5Q482 138 607 138Q707 138 779 182.5Q851 227 882 308L1061 308Q1028 161 899 71Q770 -19 592 -19Q395 -19 275.5 106Q156 231 156 438Q156 625 229 775.5Q302 926 432.5 1011.5Q563 1097 725 1097ZM914 1324.5Q914 1324.5 895 1305.75Q876 1287 824 1287Q772 1287 734 1324.5Q696 1362 696 1415Q696 1467 733.5 1504.5Q771 1542 824 1542Q877 1542 914.5 1504.5Q952 1467 952 1415Q952 1362 914 1324.5Z" />
<glyph glyph-name="Ccaron" unicode="&#x010c;" horiz-adv-x="1466" d="M1324 992L1324 994Q1313 1139 1211 1224.5Q1109 1310 948 1310Q793 1310 664.5 1213Q536 1116 462 947Q388 778 388 573Q388 370 494 251.5Q600 133 781 133Q927 133 1039 200.5Q1151 268 1190 380L1380 380Q1326 187 1161 76.5Q996 -34 761 -34Q509 -34 355 127.5Q201 289 201 554Q201 751 259 922.5Q317 1094 417.5 1215.5Q518 1337 659 1407Q800 1477 962 1477Q1197 1477 1352 1340.5Q1507 1204 1507 998L1507 992ZM894 1577L710 1875L895 1875L1000 1689L1016 1689L1199 1875L1406 1875L1096 1577Z" />
<glyph glyph-name="ccaron" unicode="&#x010d;" horiz-adv-x="1146" d="M725 1097Q884 1097 998.5 1012.5Q1113 928 1138 795Q1141 780 1143 748L967 748Q959 832 886.5 887Q814 942 711 942Q551 942 444 804Q337 666 337 461Q337 311 409.5 224.5Q482 138 607 138Q707 138 779 182.5Q851 227 882 308L1061 308Q1028 161 899 71Q770 -19 592 -19Q395 -19 275.5 106Q156 231 156 438Q156 625 229 775.5Q302 926 432.5 1011.5Q563 1097 725 1097ZM898 1228L696 1228L486 1568L671 1568L800 1341L816 1341L1041 1568L1252 1568Z" />
<glyph glyph-name="Dcaron" unicode="&#x010e;" horiz-adv-x="1486" d="M430 1443L833 1443Q1132 1443 1297 1275.5Q1462 1108 1462 812Q1462 641 1404 489.5Q1346 338 1246.5 231Q1147 124 1009 62Q871 0 716 0L125 0ZM580 1283L341 160L723 160Q840 160 943 209Q1046 258 1119 343Q1192 428 1234 547.5Q1276 667 1276 803Q1276 1030 1155.5 1156.5Q1035 1283 819 1283ZM720 1575L536 1873L721 1873L826 1687L842 1687L1025 1873L1232 1873L922 1575Z" />
<glyph glyph-name="dcaron" unicode="&#x010f;" horiz-adv-x="1357" d="M1477 1506L1647 1506L1493 1018L1373 1018ZM545 -19Q379 -19 266 101.5Q153 222 153 418Q153 610 227 766Q301 922 428 1009.5Q555 1097 709 1097Q825 1097 914 1036.5Q1003 976 1032 879L1048 879L1181 1506L1356 1506L1036 0L870 0L901 147L885 147Q826 70 736.5 25.5Q647 -19 545 -19ZM600 136Q710 136 800 203Q890 270 941.5 386.5Q993 503 993 644Q993 781 920 861.5Q847 942 722 942Q556 942 444.5 801Q333 660 333 444Q333 307 407 221.5Q481 136 600 136Z" />
<glyph glyph-name="Dcroat" unicode="&#x0110;" horiz-adv-x="1486" d="M341 160L723 160Q840 160 943 209Q1046 258 1119 343Q1192 428 1234 547.5Q1276 667 1276 803Q1276 1030 1155.5 1156.5Q1035 1283 819 1283L580 1283L483 826L702 826L667 663L448 663ZM430 1443L833 1443Q1132 1443 1297 1275.5Q1462 1108 1462 812Q1462 641 1404 489.5Q1346 338 1246.5 231Q1147 124 1009 62Q871 0 716 0L125 0L265 663L81 663L116 826L300 826Z" />
<glyph glyph-name="dcroat" unicode="&#x0111;" horiz-adv-x="1265" d="M600 136Q710 136 800 203Q890 270 941.5 386.5Q993 503 993 644Q993 781 920 861.5Q847 942 722 942Q556 942 444.5 801Q333 660 333 444Q333 307 407 221.5Q481 136 600 136ZM1486 1411L1460 1287L1309 1287L1036 0L870 0L901 147L885 147Q826 70 736.5 25.5Q647 -19 545 -19Q379 -19 266 101.5Q153 222 153 418Q153 610 227 766Q301 922 428 1009.5Q555 1097 709 1097Q825 1097 914 1036.5Q1003 976 1032 879L1048 879L1135 1287L904 1287L930 1411L1161 1411L1181 1506L1356 1506L1336 1411Z" />
<glyph glyph-name="Emacron" unicode="&#x0112;" horiz-adv-x="1219" d="M1053 162L1019 0L123 0L430 1443L1326 1443L1291 1281L580 1281L480 818L1155 818L1121 658L447 658L341 162ZM1281 1756L1252 1620L578 1620L607 1756Z" />
<glyph glyph-name="emacron" unicode="&#x0113;" horiz-adv-x="1170" d="M361 638L946 638Q948 650 948 683Q948 795 883.5 870Q819 945 702 945Q580 945 489.5 862Q399 779 361 638ZM595 -19Q407 -19 282 101Q157 221 157 432Q157 729 313.5 913Q470 1097 718 1097Q892 1097 1009.5 980.5Q1127 864 1128 661Q1128 575 1115 499L338 499Q336 463 336 445Q336 365 359.5 304Q383 243 422.5 208Q462 173 508.5 155.5Q555 138 606 138Q803 138 877 275L1060 275Q1026 146 902 63.5Q778 -19 595 -19ZM1120 1422L1091 1286L417 1286L446 1422Z" />
<glyph glyph-name="Ebreve" unicode="&#x0114;" horiz-adv-x="1219" d="M1053 162L1019 0L123 0L430 1443L1326 1443L1291 1281L580 1281L480 818L1155 818L1121 658L447 658L341 162ZM577 1873L727 1873L727 1860Q727 1793 783.5 1748.5Q840 1704 923 1704Q1007 1704 1065 1749Q1123 1794 1143 1873L1297 1873Q1271 1736 1167.5 1655.5Q1064 1575 919 1575Q767 1575 672 1655Q577 1735 577 1863Z" />
<glyph glyph-name="ebreve" unicode="&#x0115;" horiz-adv-x="1170" d="M361 638L946 638Q948 650 948 683Q948 795 883.5 870Q819 945 702 945Q580 945 489.5 862Q399 779 361 638ZM595 -19Q407 -19 282 101Q157 221 157 432Q157 729 313.5 913Q470 1097 718 1097Q892 1097 1009.5 980.5Q1127 864 1128 661Q1128 575 1115 499L338 499Q336 463 336 445Q336 365 359.5 304Q383 243 422.5 208Q462 173 508.5 155.5Q555 138 606 138Q803 138 877 275L1060 275Q1026 146 902 63.5Q778 -19 595 -19ZM413 1556L564 1556Q562 1540 562 1525Q562 1448 615.5 1402.5Q669 1357 760 1357Q861 1357 922 1408Q983 1459 997 1556L1153 1556Q1139 1408 1031 1318Q923 1228 753 1228Q592 1228 501 1308.5Q410 1389 410 1514Q410 1534 413 1556Z" />
<glyph glyph-name="Edotaccent" unicode="&#x0116;" horiz-adv-x="1219" d="M1053 162L1019 0L123 0L430 1443L1326 1443L1291 1281L580 1281L480 818L1155 818L1121 658L447 658L341 162ZM1017.5 1610.5Q1017.5 1610.5 999.75 1592.75Q982 1575 932 1575Q882 1575 846.5 1610.5Q811 1646 811 1696Q811 1746 846.5 1781.5Q882 1817 932 1817Q982 1817 1017.5 1781.5Q1053 1746 1053 1696Q1053 1646 1017.5 1610.5Z" />
<glyph glyph-name="edotaccent" unicode="&#x0117;" horiz-adv-x="1170" d="M361 638L946 638Q948 650 948 683Q948 795 883.5 870Q819 945 702 945Q580 945 489.5 862Q399 779 361 638ZM595 -19Q407 -19 282 101Q157 221 157 432Q157 729 313.5 913Q470 1097 718 1097Q892 1097 1009.5 980.5Q1127 864 1128 661Q1128 575 1115 499L338 499Q336 463 336 445Q336 365 359.5 304Q383 243 422.5 208Q462 173 508.5 155.5Q555 138 606 138Q803 138 877 275L1060 275Q1026 146 902 63.5Q778 -19 595 -19ZM872 1324.5Q872 1324.5 853 1305.75Q834 1287 782 1287Q730 1287 692 1324.5Q654 1362 654 1415Q654 1467 691.5 1504.5Q729 1542 782 1542Q835 1542 872.5 1504.5Q910 1467 910 1415Q910 1362 872 1324.5Z" />
<glyph glyph-name="Eogonek" unicode="&#x0118;" horiz-adv-x="1219" d="M123 0L430 1443L1326 1443L1291 1281L580 1281L480 818L1155 818L1121 658L447 658L341 162L1053 162L1019 2L974 -12Q871 -44 813.5 -92.5Q756 -141 756 -200Q756 -242 790 -266.5Q824 -291 883 -291Q906 -291 921 -288L892 -422Q859 -432 819 -432Q714 -432 646.5 -377Q579 -322 579 -238Q579 -167 627 -108.5Q675 -50 760 -16L763 0Z" />
<glyph glyph-name="eogonek" unicode="&#x0119;" horiz-adv-x="1176" d="M723 -432Q618 -432 550.5 -377.5Q483 -323 483 -238Q483 -179 526 -121Q569 -63 636 -32L640 -12Q617 -19 595 -19Q398 -19 277.5 105.5Q157 230 157 432Q157 727 313 912Q469 1097 718 1097Q899 1097 1013 976Q1127 855 1128 661Q1128 571 1115 499L338 499Q338 489 337.5 477Q337 465 336.5 458Q336 451 336 445Q336 306 410 222Q484 138 606 138Q803 138 877 275L1060 275Q1025 141 879 50Q660 -88 660 -200Q660 -242 694 -266.5Q728 -291 787 -291Q810 -291 825 -288L796 -422Q756 -432 723 -432ZM361 638L946 638Q948 650 948 683Q948 801 880.5 873Q813 945 702 945Q582 945 491 863Q400 781 361 638Z" />
<glyph glyph-name="Ecaron" unicode="&#x011a;" horiz-adv-x="1219" d="M1053 162L1019 0L123 0L430 1443L1326 1443L1291 1281L580 1281L480 818L1155 818L1121 658L447 658L341 162ZM815 1575L631 1873L816 1873L921 1687L937 1687L1120 1873L1327 1873L1017 1575Z" />
<glyph glyph-name="ecaron" unicode="&#x011b;" horiz-adv-x="1170" d="M361 638L946 638Q948 650 948 683Q948 795 883.5 870Q819 945 702 945Q580 945 489.5 862Q399 779 361 638ZM595 -19Q407 -19 282 101Q157 221 157 432Q157 729 313.5 913Q470 1097 718 1097Q892 1097 1009.5 980.5Q1127 864 1128 661Q1128 575 1115 499L338 499Q336 463 336 445Q336 365 359.5 304Q383 243 422.5 208Q462 173 508.5 155.5Q555 138 606 138Q803 138 877 275L1060 275Q1026 146 902 63.5Q778 -19 595 -19ZM856 1228L654 1228L444 1568L629 1568L758 1341L774 1341L999 1568L1210 1568Z" />
<glyph glyph-name="Gcircumflex" unicode="&#x011c;" horiz-adv-x="1528" d="M1491 736L1449 540Q1389 260 1216.5 113Q1044 -34 776 -34Q519 -34 360.5 130Q202 294 202 562Q202 757 259.5 927.5Q317 1098 417.5 1218.5Q518 1339 659.5 1408Q801 1477 963 1477Q1188 1477 1340.5 1351Q1493 1225 1507 1028Q1508 1020 1508 992L1325 992Q1314 1138 1212.5 1224Q1111 1310 949 1310Q793 1310 664.5 1214.5Q536 1119 462.5 951.5Q389 784 389 581Q389 373 500 253Q611 133 802 133Q974 133 1100.5 240Q1227 347 1262 523L1273 578L873 578L907 736ZM1136 1873L1320 1575L1135 1575L1030 1761L1014 1761L831 1575L624 1575L934 1873Z" />
<glyph glyph-name="gcircumflex" unicode="&#x011d;" horiz-adv-x="1247" d="M503 -413Q321 -413 198.5 -323Q76 -233 66 -106L249 -106Q261 -174 332 -219Q403 -264 517 -264Q656 -264 738 -199Q820 -134 846 -22L893 178L877 178Q761 16 551 16Q384 16 271.5 136.5Q159 257 159 447Q159 588 200 710Q241 832 312.5 916.5Q384 1001 483 1049Q582 1097 695 1097Q809 1097 904.5 1035.5Q1000 974 1032 879L1048 879L1090 1078L1257 1078L1013 -52Q977 -219 843.5 -316Q710 -413 503 -413ZM604 168Q769 168 877 300.5Q985 433 985 644Q985 781 910 861.5Q835 942 708 942Q546 942 442.5 813.5Q339 685 339 473Q339 330 410 249Q481 168 604 168ZM944 1568L1154 1228L967 1228L838 1455L822 1455L597 1228L388 1228L742 1568Z" />
<glyph glyph-name="Gbreve" unicode="&#x011e;" horiz-adv-x="1528" d="M1491 736L1449 540Q1389 260 1216.5 113Q1044 -34 776 -34Q519 -34 360.5 130Q202 294 202 562Q202 757 259.5 927.5Q317 1098 417.5 1218.5Q518 1339 659.5 1408Q801 1477 963 1477Q1188 1477 1340.5 1351Q1493 1225 1507 1028Q1508 1020 1508 992L1325 992Q1314 1138 1212.5 1224Q1111 1310 949 1310Q793 1310 664.5 1214.5Q536 1119 462.5 951.5Q389 784 389 581Q389 373 500 253Q611 133 802 133Q974 133 1100.5 240Q1227 347 1262 523L1273 578L873 578L907 736ZM653 1873L803 1873L803 1860Q803 1793 859.5 1748.5Q916 1704 999 1704Q1083 1704 1141 1749Q1199 1794 1219 1873L1373 1873Q1347 1736 1243.5 1655.5Q1140 1575 995 1575Q843 1575 748 1655Q653 1735 653 1863Z" />
<glyph glyph-name="gbreve" unicode="&#x011f;" horiz-adv-x="1247" d="M503 -413Q321 -413 198.5 -323Q76 -233 66 -106L249 -106Q261 -174 332 -219Q403 -264 517 -264Q656 -264 738 -199Q820 -134 846 -22L893 178L877 178Q761 16 551 16Q384 16 271.5 136.5Q159 257 159 447Q159 588 200 710Q241 832 312.5 916.5Q384 1001 483 1049Q582 1097 695 1097Q809 1097 904.5 1035.5Q1000 974 1032 879L1048 879L1090 1078L1257 1078L1013 -52Q977 -219 843.5 -316Q710 -413 503 -413ZM604 168Q769 168 877 300.5Q985 433 985 644Q985 781 910 861.5Q835 942 708 942Q546 942 442.5 813.5Q339 685 339 473Q339 330 410 249Q481 168 604 168ZM453 1556L604 1556Q602 1540 602 1525Q602 1448 655.5 1402.5Q709 1357 800 1357Q901 1357 962 1408Q1023 1459 1037 1556L1193 1556Q1179 1408 1071 1318Q963 1228 793 1228Q632 1228 541 1308.5Q450 1389 450 1514Q450 1534 453 1556Z" />
<glyph glyph-name="Gdotaccent" unicode="&#x0120;" horiz-adv-x="1528" d="M1491 736L1449 540Q1389 260 1216.5 113Q1044 -34 776 -34Q519 -34 360.5 130Q202 294 202 562Q202 757 259.5 927.5Q317 1098 417.5 1218.5Q518 1339 659.5 1408Q801 1477 963 1477Q1188 1477 1340.5 1351Q1493 1225 1507 1028Q1508 1020 1508 992L1325 992Q1314 1138 1212.5 1224Q1111 1310 949 1310Q793 1310 664.5 1214.5Q536 1119 462.5 951.5Q389 784 389 581Q389 373 500 253Q611 133 802 133Q974 133 1100.5 240Q1227 347 1262 523L1273 578L873 578L907 736ZM1093.5 1610.5Q1093.5 1610.5 1075.75 1592.75Q1058 1575 1008 1575Q958 1575 922.5 1610.5Q887 1646 887 1696Q887 1746 922.5 1781.5Q958 1817 1008 1817Q1058 1817 1093.5 1781.5Q1129 1746 1129 1696Q1129 1646 1093.5 1610.5Z" />
<glyph glyph-name="gdotaccent" unicode="&#x0121;" horiz-adv-x="1247" d="M503 -413Q321 -413 198.5 -323Q76 -233 66 -106L249 -106Q261 -174 332 -219Q403 -264 517 -264Q656 -264 738 -199Q820 -134 846 -22L893 178L877 178Q761 16 551 16Q384 16 271.5 136.5Q159 257 159 447Q159 588 200 710Q241 832 312.5 916.5Q384 1001 483 1049Q582 1097 695 1097Q809 1097 904.5 1035.5Q1000 974 1032 879L1048 879L1090 1078L1257 1078L1013 -52Q977 -219 843.5 -316Q710 -413 503 -413ZM604 168Q769 168 877 300.5Q985 433 985 644Q985 781 910 861.5Q835 942 708 942Q546 942 442.5 813.5Q339 685 339 473Q339 330 410 249Q481 168 604 168ZM912 1324.5Q912 1324.5 893 1305.75Q874 1287 822 1287Q770 1287 732 1324.5Q694 1362 694 1415Q694 1467 731.5 1504.5Q769 1542 822 1542Q875 1542 912.5 1504.5Q950 1467 950 1415Q950 1362 912 1324.5Z" />
<glyph glyph-name="Gcommaaccent" unicode="&#x0122;" horiz-adv-x="1528" d="M1491 736L1449 540Q1389 260 1216.5 113Q1044 -34 776 -34Q519 -34 360.5 130Q202 294 202 562Q202 757 259.5 927.5Q317 1098 417.5 1218.5Q518 1339 659.5 1408Q801 1477 963 1477Q1188 1477 1340.5 1351Q1493 1225 1507 1028Q1508 1020 1508 992L1325 992Q1314 1138 1212.5 1224Q1111 1310 949 1310Q793 1310 664.5 1214.5Q536 1119 462.5 951.5Q389 784 389 581Q389 373 500 253Q611 133 802 133Q974 133 1100.5 240Q1227 347 1262 523L1273 578L873 578L907 736ZM670 -518L503 -518L685 -141L867 -141Z" />
<glyph glyph-name="gcommaaccent" unicode="&#x0123;" horiz-adv-x="1248" d="M503 -413Q321 -413 198.5 -323Q76 -233 66 -106L249 -106Q261 -174 332 -219Q403 -264 517 -264Q656 -264 738 -199Q820 -134 846 -22L893 178L877 178Q761 16 551 16Q384 16 271.5 136.5Q159 257 159 447Q159 588 200 710Q241 832 312.5 916.5Q384 1001 483 1049Q582 1097 695 1097Q809 1097 904.5 1035.5Q1000 974 1032 879L1048 879L1090 1078L1257 1078L1013 -52Q977 -219 843.5 -316Q710 -413 503 -413ZM604 168Q769 168 877 300.5Q985 433 985 644Q985 781 910 861.5Q835 942 708 942Q546 942 442.5 813.5Q339 685 339 473Q339 330 410 249Q481 168 604 168ZM1088 1663L1255 1663L1073 1286L891 1286Z" />
<glyph glyph-name="Hcircumflex" unicode="&#x0124;" horiz-adv-x="1522" d="M1279 0L1094 0L1234 657L446 657L306 0L123 0L430 1443L614 1443L481 819L1269 819L1402 1443L1586 1443ZM1190 1873L1374 1575L1189 1575L1084 1761L1068 1761L885 1575L678 1575L988 1873Z" />
<glyph glyph-name="hcircumflex" unicode="&#x0125;" horiz-adv-x="1216" d="M110 0L432 1506L607 1506L480 917L496 917Q554 1001 629.5 1049Q705 1097 819 1097Q972 1097 1063.5 1002Q1155 907 1155 773Q1155 717 1141 649L1003 0L828 0L960 619Q973 682 973 724Q973 824 914 883Q855 942 746 942Q622 942 537 863Q452 784 425 658L285 0ZM701 1936L885 1638L700 1638L595 1824L579 1824L396 1638L189 1638L499 1936Z" />
<glyph glyph-name="Hbar" unicode="&#x0126;" horiz-adv-x="1522" d="M1271 819L1326 1075L538 1075L483 819ZM1672 1218L1642 1075L1510 1075L1281 0L1096 0L1236 657L448 657L308 0L125 0L354 1075L217 1075L247 1218L384 1218L432 1443L616 1443L568 1218L1356 1218L1404 1443L1588 1443L1540 1218Z" />
<glyph glyph-name="hbar" unicode="&#x0127;" horiz-adv-x="1216" d="M480 917L496 917Q554 1001 629.5 1049Q705 1097 819 1097Q972 1097 1063.5 1002Q1155 907 1155 773Q1155 717 1141 649L1003 0L828 0L960 619Q973 682 973 724Q973 824 914 883Q855 942 746 942Q622 942 537 863Q452 784 425 658L285 0L110 0L385 1287L241 1287L267 1411L412 1411L432 1506L607 1506L587 1411L823 1411L797 1287L560 1287Z" />
<glyph glyph-name="Itilde" unicode="&#x0128;" horiz-adv-x="550" d="M307 0L123 0L430 1443L614 1443ZM730 1570Q681 1570 641 1589Q601 1608 575.5 1635Q550 1662 528 1689Q506 1716 481.5 1735Q457 1754 431 1754Q386 1754 358 1720.5Q330 1687 317 1615L175 1615Q190 1745 262.5 1817Q335 1889 438 1889Q487 1889 526.5 1870Q566 1851 591 1824Q616 1797 638 1770Q660 1743 684.5 1724Q709 1705 736 1705Q825 1705 851 1844L993 1844Q978 1714 905.5 1642Q833 1570 730 1570Z" />
<glyph glyph-name="itilde" unicode="&#x0129;" horiz-adv-x="516" d="M112 0L341 1078L513 1078L284 0ZM655 1217Q606 1217 566 1236Q526 1255 500.5 1282Q475 1309 453 1336Q431 1363 406.5 1382Q382 1401 356 1401Q311 1401 283 1367.5Q255 1334 242 1262L100 1262Q115 1392 187.5 1464Q260 1536 363 1536Q412 1536 451.5 1517Q491 1498 516 1471Q541 1444 563 1417Q585 1390 609.5 1371Q634 1352 661 1352Q750 1352 776 1491L918 1491Q903 1361 830.5 1289Q758 1217 655 1217Z" />
<glyph glyph-name="Imacron" unicode="&#x012a;" horiz-adv-x="550" d="M307 0L123 0L430 1443L614 1443ZM926 1756L897 1620L223 1620L252 1756Z" />
<glyph glyph-name="imacron" unicode="&#x012b;" horiz-adv-x="516" d="M112 0L341 1078L513 1078L284 0ZM750 1422L726 1286L153 1286L177 1422Z" />
<glyph glyph-name="Ibreve" unicode="&#x012c;" horiz-adv-x="550" d="M307 0L123 0L430 1443L614 1443ZM222 1873L372 1873L372 1860Q372 1793 428.5 1748.5Q485 1704 568 1704Q652 1704 710 1749Q768 1794 788 1873L942 1873Q916 1736 812.5 1655.5Q709 1575 564 1575Q412 1575 317 1655Q222 1735 222 1863Z" />
<glyph glyph-name="ibreve" unicode="&#x012d;" horiz-adv-x="516" d="M112 0L341 1078L513 1078L284 0ZM130 1556L281 1556Q279 1540 279 1525Q279 1448 332.5 1402.5Q386 1357 477 1357Q578 1357 639 1408Q700 1459 714 1556L870 1556Q856 1408 748 1318Q640 1228 470 1228Q309 1228 218 1308.5Q127 1389 127 1514Q127 1534 130 1556Z" />
<glyph glyph-name="Iogonek" unicode="&#x012e;" horiz-adv-x="550" d="M159 -432Q54 -432 -13.5 -377Q-81 -322 -81 -238Q-81 -163 -26 -96Q29 -29 123 0L430 1443L614 1443L305 -9L294 -12Q96 -74 96 -200Q96 -242 130 -266.5Q164 -291 223 -291Q246 -291 261 -288L232 -422Q199 -432 159 -432Z" />
<glyph glyph-name="iogonek" unicode="&#x012f;" horiz-adv-x="516" d="M209 -422Q176 -432 136 -432Q31 -432 -36.5 -377Q-104 -322 -104 -238Q-104 -162 -45.5 -90.5Q13 -19 114 10L341 1078L513 1078L282 -10L271 -13Q172 -40 122.5 -89Q73 -138 73 -200Q73 -242 107 -266.5Q141 -291 200 -291Q223 -291 238 -288ZM585 1332.5Q585 1332.5 567.5 1314.75Q550 1297 500 1297Q450 1297 415 1332.5Q380 1368 380 1417Q380 1466 415 1501.5Q450 1537 500 1537Q550 1537 585 1501.5Q620 1466 620 1417Q620 1368 585 1332.5Z" />
<glyph glyph-name="Idotaccent" unicode="&#x0130;" horiz-adv-x="550" d="M307 0L123 0L430 1443L614 1443ZM661.5 1610.5Q661.5 1610.5 643.75 1592.75Q626 1575 576 1575Q526 1575 490.5 1610.5Q455 1646 455 1696Q455 1746 490.5 1781.5Q526 1817 576 1817Q626 1817 661.5 1781.5Q697 1746 697 1696Q697 1646 661.5 1610.5Z" />
<glyph glyph-name="dotlessi" unicode="&#x0131;" horiz-adv-x="516" d="M112 0L341 1078L513 1078L284 0Z" />
<glyph glyph-name="IJ" unicode="&#x0132;" horiz-adv-x="1650" d="M307 0L123 0L430 1443L614 1443ZM644 337L825 337Q827 243 887 189Q947 135 1048 135Q1256 135 1313 404L1534 1443L1713 1443L1485 363Q1445 172 1327.5 69Q1210 -34 1026 -34Q852 -34 742.5 72.5Q633 179 644 337Z" />
<glyph glyph-name="ij" unicode="&#x0133;" horiz-adv-x="1032" d="M112 0L341 1078L513 1078L284 0ZM585 1332.5Q585 1332.5 567.5 1314.75Q550 1297 500 1297Q450 1297 415 1332.5Q380 1368 380 1417Q380 1466 415 1501.5Q450 1537 500 1537Q550 1537 585 1501.5Q620 1466 620 1417Q620 1368 585 1332.5ZM1099.5 1332.5Q1099.5 1332.5 1081.75 1314.75Q1064 1297 1015 1297Q966 1297 930.5 1332.5Q895 1368 895 1417Q895 1466 930.5 1501.5Q966 1537 1015 1537Q1064 1537 1099.5 1501.5Q1135 1466 1135 1417Q1135 1368 1099.5 1332.5ZM1030 1078L784 -79Q752 -230 668.5 -300Q585 -370 439 -370Q387 -370 354 -365L389 -213Q412 -217 444 -217Q520 -217 559 -181Q598 -145 617 -56L858 1078Z" />
<glyph glyph-name="Jcircumflex" unicode="&#x0134;" horiz-adv-x="1102" d="M96 337L277 337Q279 243 339 189Q399 135 500 135Q708 135 765 404L986 1443L1165 1443L937 363Q897 172 779.5 69Q662 -34 478 -34Q304 -34 194.5 72.5Q85 179 96 337ZM1257 1873L1441 1575L1256 1575L1151 1761L1135 1761L952 1575L745 1575L1055 1873Z" />
<glyph glyph-name="jcircumflex" unicode="&#x0135;" horiz-adv-x="516" d="M514 1078L268 -79Q236 -230 152.5 -300Q69 -370 -77 -370Q-129 -370 -162 -365L-127 -213Q-104 -217 -72 -217Q4 -217 43 -181Q82 -145 101 -56L342 1078ZM622 1568L832 1228L645 1228L516 1455L500 1455L275 1228L66 1228L420 1568Z" />
<glyph glyph-name="Kcommaaccent" unicode="&#x0136;" horiz-adv-x="1349" d="M303 0L123 0L430 1443L609 1443L460 742L476 742L1248 1443L1483 1443L781 808L1230 0L1020 0L639 697L410 493ZM521 -518L354 -518L536 -141L718 -141Z" />
<glyph glyph-name="kcommaaccent" unicode="&#x0137;" horiz-adv-x="1086" d="M284 0L110 0L430 1506L604 1506L419 636L435 636L981 1078L1208 1078L643 613L1006 0L805 0L504 516L374 422ZM422 -518L255 -518L437 -141L619 -141Z" />
<glyph glyph-name="Lacute" unicode="&#x0139;" horiz-adv-x="1164" d="M1035 162L1001 0L123 0L430 1443L614 1443L341 162ZM663 1575L459 1575L832 1873L1058 1873Z" />
<glyph glyph-name="lacute" unicode="&#x013a;" horiz-adv-x="518" d="M110 0L430 1506L606 1506L286 0ZM660 1638L456 1638L829 1936L1055 1936Z" />
<glyph glyph-name="Lcommaaccent" unicode="&#x013b;" horiz-adv-x="1164" d="M1035 162L1001 0L123 0L430 1443L614 1443L341 162ZM441 -518L274 -518L456 -141L638 -141Z" />
<glyph glyph-name="lcommaaccent" unicode="&#x013c;" horiz-adv-x="518" d="M110 0L430 1506L606 1506L286 0ZM78 -518L-89 -518L93 -141L275 -141Z" />
<glyph glyph-name="Lcaron" unicode="&#x013d;" horiz-adv-x="1164" d="M813 1443L983 1443L829 955L709 955ZM1035 162L1001 0L123 0L430 1443L614 1443L341 162Z" />
<glyph glyph-name="lcaron" unicode="&#x013e;" horiz-adv-x="615" d="M729 1506L899 1506L745 1018L625 1018ZM110 0L430 1506L606 1506L286 0Z" />
</font>
</defs>
</svg>
