<?xml version="1.0" standalone="no"?><!DOCTYPE svg PUBLIC "-//W3C//DTD SVG 1.1//EN" "http://www.w3.org/Graphics/SVG/1.1/DTD/svg11.dtd" ><svg xmlns="http://www.w3.org/2000/svg"><metadata></metadata><defs>
<font id="SFProText-Bold" >
<font-face font-family="SF Pro Text" font-stretch="normal" units-per-em="2048" weight="700" panose-1="0,0,8,0,0,0,0,0,0,0" ascent="1950" descent="-494" x-height="1103" underline-thickness="197" underline-position="-473" unicode-range="U+00000032-00127369" bbox="-611,-570,2789,2229" />
<missing-glyph horiz-adv-x="2048" d="M100 -494L100 -296L1948 -296L1948 -494ZM100 -45L100 153L1948 153L1948 -45ZM100 404L100 603L1948 603L1948 404ZM100 853L100 1052L1948 1052L1948 853ZM100 1303L100 1501L1948 1501L1948 1303ZM100 1752L100 1950L1948 1950L1948 1752Z" />
<glyph glyph-name="space" unicode="&#x20;" horiz-adv-x="528" d="" />
<glyph glyph-name="exclam" unicode="&#x21;" horiz-adv-x="730" d="M205 1443L525 1443L498 475L231 475ZM365 -30Q281 -30 232 15.5Q183 61 183 140Q183 219 232 265Q281 311 365 311Q450 311 498.5 265.5Q547 220 547 140Q547 61 498.5 15.5Q450 -30 365 -30Z" />
<glyph glyph-name="quotedbl" unicode="&#x22;" horiz-adv-x="1016" d="M402 831L152 831L152 1443L402 1443ZM864 831L614 831L614 1443L864 1443Z" />
<glyph glyph-name="numbersign" unicode="&#x23;" horiz-adv-x="1360" d="M661 0L738 378L478 378L402 0L181 0L257 378L32 378L73 600L300 600L354 862L123 862L165 1082L396 1082L470 1444L691 1444L619 1082L877 1082L951 1444L1173 1444L1100 1082L1336 1082L1295 862L1056 862L1002 600L1243 600L1202 378L959 378L883 0ZM503 580L790 580L853 881L565 881Z" />
<glyph glyph-name="dollar" unicode="&#x24;" horiz-adv-x="1415" d="M784 -135L644 -135L644 -10Q409 3 275.5 115Q142 227 141 410L427 410Q432 336 491.5 285Q551 234 644 224L644 596L539 621Q358 663 264 765.5Q170 868 170 1024Q170 1208 295 1321Q420 1434 644 1452L644 1588L784 1588L784 1452Q993 1432 1118 1318.5Q1243 1205 1246 1032L967 1032Q965 1100 914 1151Q863 1202 784 1213L784 857L891 835Q1274 753 1274 431Q1274 240 1146.5 126Q1019 12 784 -8ZM990 397Q990 533 784 571L784 223Q881 229 935.5 275Q990 321 990 397ZM460 1052Q460 989 507 946.5Q554 904 644 886L644 1214Q563 1210 511.5 1164.5Q460 1119 460 1052Z" />
<glyph glyph-name="percent" unicode="&#x25;" horiz-adv-x="1701" d="M741 1111Q741 946 648 845Q555 744 403 744Q252 744 158.5 845Q65 946 65 1111Q65 1275 158.5 1375.5Q252 1476 403 1476Q555 1476 648 1375.5Q741 1275 741 1111ZM319 983Q319 983 334.5 959.5Q350 936 403 936Q456 936 487 983Q518 1030 518 1111Q518 1193 487.5 1239.5Q457 1286 403 1286Q350 1286 319 1239Q288 1192 288 1111Q288 1030 319 983ZM506 0L224 0L769 756L1203 1443L1484 1443L930 681ZM1636 333Q1636 169 1543 68Q1450 -33 1298 -33Q1147 -33 1054 68Q961 169 961 333Q961 497 1054 598Q1147 699 1298 699Q1450 699 1543 598.5Q1636 498 1636 333ZM1214 206Q1214 206 1229.5 182.5Q1245 159 1298 159Q1351 159 1382 206Q1413 253 1413 334Q1413 416 1382.5 462Q1352 508 1298 508Q1245 508 1214 461.5Q1183 415 1183 334Q1183 253 1214 206Z" />
<glyph glyph-name="ampersand" unicode="&#x26;" horiz-adv-x="1525" d="M1172 0L1061 117Q981 49 862.5 10.5Q744 -28 612 -28Q382 -28 244.5 82Q107 192 107 377Q107 501 171.5 593Q236 685 376 762Q379 763 408.5 779.5Q438 796 440 797Q342 898 301.5 973Q261 1048 261 1128Q261 1274 377.5 1369.5Q494 1465 672 1465Q849 1465 962 1372.5Q1075 1280 1075 1134Q1075 1022 1003.5 930Q932 838 781 756L1058 469Q1109 559 1109 732L1109 803L1354 803L1354 713Q1354 448 1231 282L1499 0ZM535 618Q380 534 380 402Q380 308 452.5 249.5Q525 191 642 191Q721 191 793 217.5Q865 244 908 289L577 638Q561 632 535 618ZM646 897Q745 946 788.5 997Q832 1048 832 1112Q832 1180 788 1222.5Q744 1265 673 1265Q602 1265 557 1222Q512 1179 512 1112Q512 1063 541.5 1015.5Q571 968 646 897Z" />
<glyph glyph-name="quotesingle" unicode="&#x27;" horiz-adv-x="553" d="M402 831L152 831L152 1443L402 1443Z" />
<glyph glyph-name="parenleft" unicode="&#x28;" horiz-adv-x="878" d="M223 607Q223 1167 520 1524L788 1524Q676 1382 600 1123.5Q524 865 524 608Q524 351 600 92.5Q676 -166 788 -310L520 -310Q223 50 223 607Z" />
<glyph glyph-name="parenright" unicode="&#x29;" horiz-adv-x="878" d="M655 607Q655 48 359 -310L90 -310Q203 -167 278.5 91.5Q354 350 354 608Q354 865 278 1123.5Q202 1382 90 1524L359 1524Q655 1167 655 607Z" />
<glyph glyph-name="asterisk" unicode="&#x2a;" horiz-adv-x="1032" d="M808 783L578 962L617 674L416 674L455 962L224 783L124 961L396 1070L124 1178L224 1358L456 1173L416 1466L617 1466L576 1173L808 1358L908 1178L637 1070L908 961Z" />
<glyph glyph-name="plus" unicode="&#x2b;" horiz-adv-x="1415" d="M835 455L835 46L580 46L580 455L168 455L168 713L580 713L580 1121L835 1121L835 713L1248 713L1248 455Z" />
<glyph glyph-name="comma" unicode="&#x2c;" horiz-adv-x="712" d="M336 -391L141 -391L233 234L518 234Z" />
<glyph glyph-name="hyphen" unicode="&#x2d;" horiz-adv-x="992" d="M825 446L168 446L168 719L825 719Z" />
<glyph glyph-name="period" unicode="&#x2e;" horiz-adv-x="712" d="M484.5 21.5Q484.5 21.5 460.25 -2.75Q436 -27 356 -27Q276 -27 227.5 21.5Q179 70 179 147Q179 223 227.5 271.5Q276 320 356 320Q436 320 484.5 272Q533 224 533 147Q533 70 484.5 21.5Z" />
<glyph glyph-name="slash" unicode="&#x2f;" horiz-adv-x="793" d="M271 -310L0 -310L522 1524L793 1524Z" />
<glyph glyph-name="zero" unicode="&#x30;" horiz-adv-x="1402" d="M1121.5 164.5Q1121.5 164.5 1045.25 63.75Q969 -37 701 -37Q433 -37 280.5 164.5Q128 366 128 724Q128 1081 280.5 1280.5Q433 1480 701 1480Q968 1480 1121 1280Q1274 1080 1274 723Q1274 366 1121.5 164.5ZM504.5 342Q504.5 342 539.75 275.5Q575 209 701 209Q827 209 897.5 341.5Q968 474 968 724Q968 972 897.5 1102.5Q827 1233 701 1233Q576 1233 505 1102Q434 971 434 724Q434 475 504.5 342Z" />
<glyph glyph-name="one" unicode="&#x31;" horiz-adv-x="1051" d="M495 0L495 1149L477 1149L123 905L123 1186L496 1443L797 1443L797 0Z" />
<glyph glyph-name="two" unicode="&#x32;" horiz-adv-x="1318" d="M129 1011Q129 1220 275 1350Q421 1480 655 1480Q881 1480 1023.5 1362.5Q1166 1245 1166 1059Q1166 941 1092 824.5Q1018 708 831 532L555 269L555 251L1187 251L1187 0L146 0L146 211L617 672Q769 820 820 894Q871 968 871 1039Q871 1126 807.5 1181.5Q744 1237 645 1237Q540 1237 474.5 1174.5Q409 1112 409 1012L409 1006L129 1006Z" />
<glyph glyph-name="three" unicode="&#x33;" horiz-adv-x="1370" d="M498 626L498 851L674 851Q777 851 840.5 906Q904 961 904 1049Q904 1136 841.5 1187.5Q779 1239 673 1239Q568 1239 503 1184Q438 1129 432 1035L153 1035Q161 1240 303 1360Q445 1480 681 1480Q903 1480 1046.5 1370.5Q1190 1261 1190 1091Q1190 966 1117.5 876Q1045 786 924 761L924 743Q1073 726 1159.5 633.5Q1246 541 1246 399Q1246 274 1173.5 174.5Q1101 75 971 19Q841 -37 679 -37Q438 -37 287 86Q136 209 126 413L415 413Q422 321 494 267.5Q566 214 682 214Q795 214 866.5 272Q938 330 938 422Q938 517 868 571.5Q798 626 677 626Z" />
<glyph glyph-name="four" unicode="&#x34;" horiz-adv-x="1410" d="M820 0L820 252L114 252L114 519Q283 838 685 1443L1108 1443L1108 503L1297 503L1297 252L1108 252L1108 0ZM385 510L385 494L827 494L827 1208L811 1208Q580 863 385 510Z" />
<glyph glyph-name="five" unicode="&#x35;" horiz-adv-x="1359" d="M691 -37Q458 -37 309.5 88.5Q161 214 154 410L433 410Q446 320 518 265Q590 210 693 210Q810 210 882.5 282Q955 354 955 471Q955 590 882 663Q809 736 694 736Q527 736 447 606L177 606L249 1443L1156 1443L1156 1192L483 1192L451 821L469 821Q567 962 775 962Q980 962 1111.5 826Q1243 690 1243 478Q1243 248 1091 105.5Q939 -37 691 -37Z" />
<glyph glyph-name="six" unicode="&#x36;" horiz-adv-x="1401" d="M722 -37Q565 -37 442.5 30Q320 97 246 224Q125 410 125 711Q125 1070 285 1275Q445 1480 727 1480Q933 1480 1078.5 1369Q1224 1258 1255 1077L956 1077Q935 1148 872.5 1190Q810 1232 725 1232Q577 1232 492.5 1099.5Q408 967 413 742L431 742Q480 844 576.5 899.5Q673 955 799 955Q1004 955 1139 819Q1274 683 1274 476Q1274 251 1119 107Q964 -37 722 -37ZM533 285.5Q533 285.5 570.5 248.25Q608 211 719 211Q830 211 905.5 284.5Q981 358 981 467Q981 577 907 649.5Q833 722 720 722Q607 722 532.5 650Q458 578 458 470Q458 360 533 285.5Z" />
<glyph glyph-name="seven" unicode="&#x37;" horiz-adv-x="1239" d="M210 0L825 1177L825 1195L97 1195L97 1444L1129 1444L1129 1192L526 0Z" />
<glyph glyph-name="eight" unicode="&#x38;" horiz-adv-x="1421" d="M1132 80.5Q1132 80.5 1051 21.75Q970 -37 710 -37Q450 -37 289 80Q128 197 128 385Q128 521 214.5 621.5Q301 722 446 754L446 772Q328 799 257 885Q186 971 186 1086Q186 1259 333.5 1369.5Q481 1480 711 1480Q940 1480 1087.5 1369.5Q1235 1259 1235 1086Q1235 971 1164.5 885.5Q1094 800 975 772L975 754Q1119 727 1206.5 626.5Q1294 526 1294 388Q1294 198 1132 80.5ZM516.5 253Q516.5 253 553.75 222Q591 191 710 191Q829 191 904 253Q979 315 979 413Q979 512 904 574Q829 636 710 636Q591 636 516.5 574Q442 512 442 413Q442 315 516.5 253ZM547 914.5Q547 914.5 578.5 886.75Q610 859 710 859Q810 859 873.5 914.5Q937 970 937 1057Q937 1145 873.5 1200.5Q810 1256 710 1256Q610 1256 547 1200.5Q484 1145 484 1057Q484 970 547 914.5Z" />
<glyph glyph-name="nine" unicode="&#x39;" horiz-adv-x="1401" d="M674 -37Q469 -37 323 74.5Q177 186 146 366L445 366Q466 295 528.5 253Q591 211 676 211Q824 211 908.5 344Q993 477 988 702L979 702L972 702L970 702Q921 600 824.5 544.5Q728 489 602 489Q396 489 261.5 624.5Q127 760 127 967Q127 1192 282 1336Q437 1480 679 1480Q835 1480 957.5 1413.5Q1080 1347 1155 1220Q1276 1032 1276 733Q1276 373 1116 168Q956 -37 674 -37ZM494 794Q494 794 531 758Q568 722 681 722Q794 722 868.5 793.5Q943 865 943 974Q943 1084 868 1158.5Q793 1233 682 1233Q571 1233 495.5 1159Q420 1085 420 977Q420 866 494 794Z" />
<glyph glyph-name="colon" unicode="&#x3a;" horiz-adv-x="712" d="M484.5 21.5Q484.5 21.5 460.25 -2.75Q436 -27 356 -27Q276 -27 227.5 21.5Q179 70 179 147Q179 223 227.5 271.5Q276 320 356 320Q436 320 484.5 272Q533 224 533 147Q533 70 484.5 21.5ZM484.5 759.5Q484.5 759.5 460.25 735.25Q436 711 356 711Q276 711 227.5 759.5Q179 808 179 885Q179 961 227.5 1009.5Q276 1058 356 1058Q436 1058 484.5 1010Q533 962 533 885Q533 808 484.5 759.5Z" />
<glyph glyph-name="semicolon" unicode="&#x3b;" horiz-adv-x="712" d="M484.5 759.5Q484.5 759.5 460.25 735.25Q436 711 356 711Q276 711 227.5 759.5Q179 808 179 885Q179 961 227.5 1009.5Q276 1058 356 1058Q436 1058 484.5 1010Q533 962 533 885Q533 808 484.5 759.5ZM326 -391L122 -391L218 234L504 234Z" />
<glyph glyph-name="less" unicode="&#x3c;" horiz-adv-x="1415" d="M1184 904L527 601L527 582L1184 279L1184 -22L231 474L231 709L1184 1205Z" />
<glyph glyph-name="equal" unicode="&#x3d;" horiz-adv-x="1415" d="M1244 216L171 216L171 475L1244 475ZM1244 695L171 695L171 954L1244 954Z" />
<glyph glyph-name="greater" unicode="&#x3e;" horiz-adv-x="1415" d="M231 904L231 1205L1184 709L1184 474L231 -22L231 279L888 582L888 601Z" />
<glyph glyph-name="question" unicode="&#x3f;" horiz-adv-x="1141" d="M78 1035Q82 1226 210 1341Q338 1456 564 1456Q778 1456 908.5 1348Q1039 1240 1039 1066Q1039 955 986 873Q933 791 825 728Q725 670 690 624Q655 578 655 506L655 453L390 453L388 508Q378 626 420.5 701.5Q463 777 568 839Q666 897 701 942.5Q736 988 736 1057Q736 1127 683.5 1171.5Q631 1216 546 1216Q460 1216 407 1167Q354 1118 349 1035ZM665.5 15.5Q665.5 15.5 641.25 -7.25Q617 -30 533 -30Q449 -30 400 15.5Q351 61 351 140Q351 219 400 265Q449 311 533 311Q617 311 665.5 265Q714 219 714 140Q714 61 665.5 15.5Z" />
<glyph glyph-name="at" unicode="&#x40;" horiz-adv-x="1899" d="M940 837Q861 837 816 776.5Q771 716 771 609Q771 502 815.5 441.5Q860 381 939 381Q1019 381 1066 442Q1113 503 1113 609Q1113 715 1066.5 776Q1020 837 940 837ZM972 1450Q1209 1450 1392.5 1356.5Q1576 1263 1677.5 1094Q1779 925 1779 707Q1779 468 1673 329Q1567 190 1386 190Q1292 190 1228.5 232Q1165 274 1148 346L1130 346Q1066 193 890 193Q734 193 639 309Q544 425 544 615Q544 797 637 910Q730 1023 880 1023Q960 1023 1022 986Q1084 949 1114 882L1132 882L1132 1001L1334 1001L1334 471Q1334 418 1359 388.5Q1384 359 1430 359Q1506 359 1551 448.5Q1596 538 1596 690Q1596 961 1423.5 1124.5Q1251 1288 966 1288Q676 1288 493 1099Q310 910 310 611Q310 307 497.5 128Q685 -51 1004 -51Q1184 -51 1276 -18L1276 -181Q1154 -217 989 -217Q731 -217 535.5 -114Q340 -11 233.5 178Q127 367 127 616Q127 860 233.5 1050Q340 1240 532.5 1345Q725 1450 972 1450Z" />
<glyph glyph-name="A" unicode="&#x41;" horiz-adv-x="1500" d="M1102 0L993 344L486 344L375 0L72 0L573 1443L928 1443L1429 0ZM732 1143L551 577L929 577L750 1143Z" />
<glyph glyph-name="B" unicode="&#x42;" horiz-adv-x="1420" d="M823 0L175 0L175 1443L806 1443Q1015 1443 1134 1347Q1253 1251 1253 1083Q1253 968 1178 880Q1103 792 992 775L992 757Q1135 746 1228.5 649Q1322 552 1322 413Q1322 223 1188 111.5Q1054 0 823 0ZM477 1212L477 845L704 845Q826 845 891 893Q956 941 956 1028Q956 1115 896.5 1163.5Q837 1212 729 1212ZM477 231L746 231Q876 231 945 284.5Q1014 338 1014 439Q1014 538 943.5 589.5Q873 641 739 641L477 641Z" />
<glyph glyph-name="C" unicode="&#x43;" horiz-adv-x="1518" d="M788 -37Q474 -37 292.5 166.5Q111 370 111 722Q111 1074 292.5 1277Q474 1480 788 1480Q1044 1480 1220.5 1327.5Q1397 1175 1414 939L1120 939Q1098 1064 1007.5 1139Q917 1214 788 1214Q618 1214 519 1082Q420 950 420 722Q420 494 519 361.5Q618 229 789 229Q919 229 1009 300Q1099 371 1121 490L1415 490Q1396 256 1222.5 109.5Q1049 -37 788 -37Z" />
<glyph glyph-name="D" unicode="&#x44;" horiz-adv-x="1530" d="M175 1444L743 1444Q1065 1444 1242.5 1257.5Q1420 1071 1420 732Q1420 381 1243.5 190.5Q1067 0 743 0L175 0ZM477 1186L477 258L695 258Q896 258 1004 378.5Q1112 499 1112 727Q1112 945 1002 1065.5Q892 1186 695 1186Z" />
<glyph glyph-name="E" unicode="&#x45;" horiz-adv-x="1274" d="M1131 258L1131 0L175 0L175 1443L1131 1443L1131 1185L477 1185L477 848L1094 848L1094 609L477 609L477 258Z" />
<glyph glyph-name="F" unicode="&#x46;" horiz-adv-x="1224" d="M477 0L175 0L175 1443L1120 1443L1120 1185L477 1185L477 809L1064 809L1064 562L477 562Z" />
<glyph glyph-name="G" unicode="&#x47;" horiz-adv-x="1557" d="M1443 589Q1443 300 1271 131.5Q1099 -37 803 -37Q481 -37 296 166Q111 369 111 723Q111 1072 296 1276Q481 1480 796 1480Q1052 1480 1225 1344Q1398 1208 1430 983L1130 983Q1096 1093 1009 1153.5Q922 1214 796 1214Q621 1214 520.5 1083.5Q420 953 420 726Q420 495 524.5 362Q629 229 808 229Q956 229 1050 309Q1144 389 1149 520L1150 546L837 546L837 773L1443 773Z" />
<glyph glyph-name="H" unicode="&#x48;" horiz-adv-x="1604" d="M1429 0L1127 0L1127 603L477 603L477 0L175 0L175 1443L477 1443L477 861L1127 861L1127 1443L1429 1443Z" />
<glyph glyph-name="I" unicode="&#x49;" horiz-adv-x="652" d="M477 0L175 0L175 1443L477 1443Z" />
<glyph glyph-name="J" unicode="&#x4a;" horiz-adv-x="1231" d="M76 424L368 424Q370 337 422.5 285Q475 233 562 233Q655 233 704.5 288.5Q754 344 754 450L754 1443L1056 1443L1056 448Q1056 216 926.5 89.5Q797 -37 566 -37Q343 -37 209.5 88Q76 213 76 424Z" />
<glyph glyph-name="K" unicode="&#x4b;" horiz-adv-x="1453" d="M477 0L175 0L175 1443L477 1443L477 800L495 800L1028 1443L1364 1443L838 810L1401 0L1039 0L620 604L477 435Z" />
<glyph glyph-name="L" unicode="&#x4c;" horiz-adv-x="1218" d="M1119 263L1119 0L175 0L175 1443L477 1443L477 263Z" />
<glyph glyph-name="M" unicode="&#x4d;" horiz-adv-x="1878" d="M1703 0L1423 0L1423 965L1407 965L1040 83L839 83L471 965L455 965L455 0L175 0L175 1443L531 1443L930 473L948 473L1348 1443L1703 1443Z" />
<glyph glyph-name="N" unicode="&#x4e;" horiz-adv-x="1573" d="M464 0L175 0L175 1443L427 1443L1091 544L1109 544L1109 1443L1398 1443L1398 0L1148 0L482 903L464 903Z" />
<glyph glyph-name="O" unicode="&#x4f;" horiz-adv-x="1610" d="M806 1480Q1126 1480 1312.5 1276Q1499 1072 1499 722Q1499 371 1312.5 167Q1126 -37 806 -37Q485 -37 298 167Q111 371 111 722Q111 1072 299 1276Q487 1480 806 1480ZM1086.5 1081.5Q1086.5 1081.5 1034.25 1148.25Q982 1215 806 1215Q630 1215 525 1081.5Q420 948 420 722Q420 496 524.5 362Q629 228 806 228Q982 228 1086.5 362Q1191 496 1191 722Q1191 948 1086.5 1081.5Z" />
<glyph glyph-name="P" unicode="&#x50;" horiz-adv-x="1380" d="M175 1443L777 1443Q1000 1443 1138.5 1305.5Q1277 1168 1277 944Q1277 722 1134 585Q991 448 762 448L477 448L477 0L175 0ZM477 1195L477 693L696 693Q827 693 898.5 757.5Q970 822 970 943Q970 1065 899 1130Q828 1195 697 1195Z" />
<glyph glyph-name="Q" unicode="&#x51;" horiz-adv-x="1610" d="M806 -37Q485 -37 298 166.5Q111 370 111 722Q111 1072 299 1276Q487 1480 806 1480Q1125 1480 1312 1276Q1499 1072 1499 722Q1499 528 1440.5 376.5Q1382 225 1272 131L1451 -141L1159 -141L1059 1Q943 -37 806 -37ZM807 228Q856 228 911 241L747 481L1021 481L1088 400Q1191 511 1191 722Q1191 948 1086 1081.5Q981 1215 806 1215Q630 1215 525 1081.5Q420 948 420 722Q420 494 525 361Q630 228 807 228Z" />
<glyph glyph-name="R" unicode="&#x52;" horiz-adv-x="1422" d="M477 1199L477 755L742 755Q856 755 919.5 813.5Q983 872 983 976Q983 1079 917 1139Q851 1199 739 1199ZM477 523L477 0L175 0L175 1443L781 1443Q1019 1443 1156 1319Q1293 1195 1293 980Q1293 840 1223.5 729.5Q1154 619 1031 570L1335 0L993 0L724 523Z" />
<glyph glyph-name="S" unicode="&#x53;" horiz-adv-x="1383" d="M110 401L402 401Q412 313 494 261Q576 209 704 209Q822 209 897 260.5Q972 312 972 394Q972 463 914 506Q856 549 723 577L535 617Q143 699 143 1029Q143 1233 294 1356.5Q445 1480 695 1480Q933 1480 1086.5 1359Q1240 1238 1247 1045L963 1045Q952 1131 879 1183Q806 1235 697 1235Q583 1235 514.5 1186Q446 1137 446 1055Q446 988 501.5 947Q557 906 684 879L858 842Q1075 796 1174 698Q1273 600 1273 432Q1273 214 1116.5 88.5Q960 -37 688 -37Q430 -37 274 81Q118 199 110 401Z" />
<glyph glyph-name="T" unicode="&#x54;" horiz-adv-x="1352" d="M827 0L525 0L525 1185L92 1185L92 1443L1260 1443L1260 1185L827 1185Z" />
<glyph glyph-name="U" unicode="&#x55;" horiz-adv-x="1564" d="M480 1443L480 529Q480 391 559.5 311Q639 231 782 231Q926 231 1005.5 311Q1085 391 1085 529L1085 1443L1387 1443L1387 498Q1387 257 1222.5 110Q1058 -37 782 -37Q507 -37 342.5 110Q178 257 178 498L178 1443Z" />
<glyph glyph-name="V" unicode="&#x56;" horiz-adv-x="1477" d="M925 0L560 0L72 1443L413 1443L741 340L759 340L1081 1443L1406 1443Z" />
<glyph glyph-name="W" unicode="&#x57;" horiz-adv-x="2067" d="M1025 955L755 0L470 0L88 1443L402 1443L627 426L643 426L906 1443L1161 1443L1429 426L1445 426L1668 1443L1980 1443L1597 0L1314 0L1041 955Z" />
<glyph glyph-name="X" unicode="&#x58;" horiz-adv-x="1494" d="M88 0L549 727L91 1443L446 1443L747 938L765 938L1069 1443L1407 1443L932 722L1400 0L1056 0L746 489L728 489L414 0Z" />
<glyph glyph-name="Y" unicode="&#x59;" horiz-adv-x="1451" d="M877 0L575 0L575 531L72 1443L399 1443L717 839L735 839L1052 1443L1379 1443L877 531Z" />
<glyph glyph-name="Z" unicode="&#x5a;" horiz-adv-x="1384" d="M135 0L135 204L861 1167L861 1185L152 1185L152 1443L1229 1443L1229 1240L505 276L505 258L1249 258L1249 0Z" />
<glyph glyph-name="bracketleft" unicode="&#x5b;" horiz-adv-x="878" d="M252 1524L806 1524L806 1301L532 1301L532 -87L806 -87L806 -310L252 -310Z" />
<glyph glyph-name="backslash" unicode="&#x5c;" horiz-adv-x="793" d="M517 -310L0 1524L276 1524L793 -310Z" />
<glyph glyph-name="bracketright" unicode="&#x5d;" horiz-adv-x="878" d="M627 1524L627 -310L73 -310L73 -87L346 -87L346 1301L73 1301L73 1524Z" />
<glyph glyph-name="asciicircum" unicode="&#x5e;" horiz-adv-x="1066" d="M524 1182L342 772L85 772L404 1408L663 1408L982 772L725 772L542 1182Z" />
<glyph glyph-name="underscore" unicode="&#x5f;" horiz-adv-x="945" d="M947 -334L-2 -334L-2 -107L947 -107Z" />
<glyph glyph-name="grave" unicode="&#x60;" horiz-adv-x="1098" d="M826 1281L557 1281L270 1634L579 1634Z" />
<glyph glyph-name="a" unicode="&#x61;" horiz-adv-x="1208" d="M544 202Q645 202 713 259Q781 316 781 400L781 481L558 467Q372 454 372 334Q372 273 419.5 237.5Q467 202 544 202ZM448 -17Q288 -17 187.5 74Q87 165 87 315Q87 464 197.5 549.5Q308 635 514 647L781 663L781 753Q781 822 733 859.5Q685 897 595 897Q433 897 396 795L128 795Q142 948 272.5 1037.5Q403 1127 611 1127Q829 1127 948.5 1029Q1068 931 1068 753L1068 0L786 0L786 144L768 144Q725 68 640 25.5Q555 -17 448 -17Z" />
<glyph glyph-name="b" unicode="&#x62;" horiz-adv-x="1334" d="M796 -17Q679 -17 589.5 33Q500 83 456 173L438 173L438 0L156 0L156 1524L447 1524L447 927L465 927Q507 1018 595 1069.5Q683 1121 796 1121Q1005 1121 1124 970Q1243 819 1243 552Q1243 287 1123.5 135Q1004 -17 796 -17ZM877 790Q877 790 843.5 833.5Q810 877 695 877Q580 877 512.5 789.5Q445 702 444 551Q445 401 512.5 313.5Q580 226 695 226Q811 226 877.5 313Q944 400 944 552Q944 703 877 790Z" />
<glyph glyph-name="c" unicode="&#x63;" horiz-adv-x="1203" d="M1122 714L850 714Q835 795 778.5 841.5Q722 888 631 888Q513 888 449.5 802Q386 716 386 554Q386 390 449.5 302.5Q513 215 631 215Q721 215 777.5 258Q834 301 850 382L1122 382Q1104 195 974 85.5Q844 -24 631 -24Q373 -24 232.5 126.5Q92 277 92 554Q92 829 232 978Q372 1127 631 1127Q847 1127 975.5 1016Q1104 905 1122 714Z" />
<glyph glyph-name="d" unicode="&#x64;" horiz-adv-x="1334" d="M541 -17Q333 -17 212.5 136Q92 289 92 553Q92 816 212.5 968.5Q333 1121 541 1121Q653 1121 740 1069.5Q827 1018 870 927L887 927L887 1524L1178 1524L1178 0L896 0L896 173L878 173Q834 84 745 33.5Q656 -17 541 -17ZM823 789.5Q823 789.5 789.5 833.25Q756 877 640 877Q524 877 457.5 790.5Q391 704 391 552Q391 399 457 312.5Q523 226 640 226Q757 226 823.5 312.5Q890 399 890 551Q890 702 823 789.5Z" />
<glyph glyph-name="e" unicode="&#x65;" horiz-adv-x="1231" d="M623 904Q522 904 456.5 839Q391 774 383 667L853 667Q848 777 786.5 840.5Q725 904 623 904ZM859 314L1130 314Q1097 157 962.5 66.5Q828 -24 626 -24Q374 -24 233 126.5Q92 277 92 546Q92 815 234 971Q376 1127 622 1127Q866 1127 1002.5 980Q1139 833 1139 570L1139 481L382 481L382 466Q385 343 452.5 271.5Q520 200 634 200Q720 200 778 229.5Q836 259 859 314Z" />
<glyph glyph-name="f" unicode="&#x66;" horiz-adv-x="836" d="M231 0L231 863L53 863L53 1092L231 1092L231 1204Q231 1371 321.5 1452.5Q412 1534 609 1534Q693 1534 759 1523L759 1317Q711 1322 672 1322Q588 1322 552 1288.5Q516 1255 516 1183L516 1092L750 1092L750 863L522 863L522 0Z" />
<glyph glyph-name="g" unicode="&#x67;" horiz-adv-x="1322" d="M453 330.5Q453 330.5 485.5 288.25Q518 246 636 246Q754 246 821 330.5Q888 415 888 561Q888 707 820.5 792Q753 877 636 877Q519 877 453.5 792.5Q388 708 388 562Q388 415 453 330.5ZM632 -418Q414 -418 277.5 -329.5Q141 -241 127 -95L415 -95Q426 -146 485 -176Q544 -206 638 -206Q755 -206 820 -154.5Q885 -103 885 -10L885 194L867 194Q773 16 535 16Q329 16 209 163.5Q89 311 89 561Q89 818 210.5 969.5Q332 1121 541 1121Q653 1121 742.5 1069Q832 1017 876 926L894 926L894 1103L1176 1103L1176 4Q1176 -190 1029 -304Q882 -418 632 -418Z" />
<glyph glyph-name="h" unicode="&#x68;" horiz-adv-x="1307" d="M156 0L156 1524L442 1524L442 922L460 922Q499 1017 585.5 1070.5Q672 1124 793 1124Q972 1124 1071.5 1016Q1171 908 1171 710L1171 0L880 0L880 641Q880 755 828 814Q776 873 677 873Q569 873 508 807.5Q447 742 447 633L447 0Z" />
<glyph glyph-name="i" unicode="&#x69;" horiz-adv-x="587" d="M148 0L148 1103L439 1103L439 0ZM294 1257Q216 1257 169 1298Q122 1339 122 1404Q122 1470 169 1510.5Q216 1551 294 1551Q372 1551 419 1510.5Q466 1470 466 1404Q466 1339 418.5 1298Q371 1257 294 1257Z" />
<glyph glyph-name="j" unicode="&#x6a;" horiz-adv-x="587" d="M439 1103L439 -34Q439 -203 340 -289.5Q241 -376 49 -376Q-5 -376 -29 -372L-29 -149Q-23 -150 8 -150Q84 -150 116 -121Q148 -92 148 -26L148 1103ZM294 1257Q216 1257 169 1298Q122 1339 122 1404Q122 1470 169 1510.5Q216 1551 294 1551Q372 1551 419 1510.5Q466 1470 466 1404Q466 1339 418.5 1298Q371 1257 294 1257Z" />
<glyph glyph-name="k" unicode="&#x6b;" horiz-adv-x="1232" d="M465 672L834 1103L1165 1103L745 630L1194 0L849 0L527 448L447 366L447 0L156 0L156 1524L447 1524L447 672Z" />
<glyph glyph-name="l" unicode="&#x6c;" horiz-adv-x="603" d="M156 0L156 1524L447 1524L447 0Z" />
<glyph glyph-name="m" unicode="&#x6d;" horiz-adv-x="1899" d="M146 0L146 1103L428 1103L428 923L446 923Q480 1018 561.5 1072.5Q643 1127 751 1127Q866 1127 944.5 1073.5Q1023 1020 1056 923L1074 923Q1113 1016 1202 1071.5Q1291 1127 1406 1127Q1571 1127 1667 1027Q1763 927 1763 757L1763 0L1472 0L1472 680Q1472 876 1288 876Q1200 876 1147 820Q1094 764 1094 675L1094 0L814 0L814 692Q814 779 766 827.5Q718 876 632 876Q547 876 492 816Q437 756 437 664L437 0Z" />
<glyph glyph-name="n" unicode="&#x6e;" horiz-adv-x="1285" d="M146 0L146 1103L428 1103L428 926L446 926Q485 1021 568.5 1074Q652 1127 772 1127Q955 1127 1052 1019.5Q1149 912 1149 713L1149 0L858 0L858 644Q858 876 655 876Q554 876 495.5 810.5Q437 745 437 636L437 0Z" />
<glyph glyph-name="o" unicode="&#x6f;" horiz-adv-x="1269" d="M1033.5 129Q1033.5 129 961.25 52.5Q889 -24 635 -24Q381 -24 236.5 129Q92 282 92 552Q92 820 237.5 973.5Q383 1127 635 1127Q887 1127 1032.5 973.5Q1178 820 1178 552Q1178 282 1033.5 129ZM635 214Q751 214 815 302.5Q879 391 879 552Q879 711 814.5 800Q750 889 635 889Q519 889 455 800Q391 711 391 552Q391 391 454.5 302.5Q518 214 635 214Z" />
<glyph glyph-name="p" unicode="&#x70;" horiz-adv-x="1324" d="M783 1121Q993 1121 1113 970Q1233 819 1233 552Q1233 286 1114 134.5Q995 -17 788 -17Q670 -17 583 32Q496 81 455 169L437 169L437 -366L146 -366L146 1103L428 1103L428 922L446 922Q491 1015 580 1068Q669 1121 783 1121ZM684 226Q802 226 868 312.5Q934 399 934 552Q934 704 867.5 790.5Q801 877 685 877Q569 877 501.5 789.5Q434 702 434 551Q434 400 501 313Q568 226 684 226Z" />
<glyph glyph-name="q" unicode="&#x71;" horiz-adv-x="1324" d="M543 1121Q654 1121 743.5 1067.5Q833 1014 877 922L895 922L895 1103L1178 1103L1178 -366L886 -366L886 169L868 169Q823 80 738 31.5Q653 -17 537 -17Q330 -17 211 135.5Q92 288 92 553Q92 816 213.5 968.5Q335 1121 543 1121ZM638 226Q755 226 822.5 313Q890 400 890 551Q890 702 822.5 789.5Q755 877 639 877Q523 877 457 790.5Q391 704 391 552Q391 399 456.5 312.5Q522 226 638 226Z" />
<glyph glyph-name="r" unicode="&#x72;" horiz-adv-x="891" d="M146 0L146 1103L428 1103L428 927L446 927Q468 1011 546.5 1066Q625 1121 729 1121Q804 1121 843 1107L843 842Q797 860 705 860Q584 860 510.5 793Q437 726 437 611L437 0Z" />
<glyph glyph-name="s" unicode="&#x73;" horiz-adv-x="1160" d="M121 779Q121 936 247.5 1031.5Q374 1127 580 1127Q790 1127 909.5 1042Q1029 957 1041 799L772 799Q761 853 711.5 883.5Q662 914 582 914Q503 914 452 881.5Q401 849 401 797Q401 757 437 730.5Q473 704 550 687L757 642Q918 607 992.5 535Q1067 463 1067 340Q1067 176 933 76Q799 -24 581 -24Q363 -24 236 62Q109 148 94 307L378 307Q413 189 587 189Q672 189 725 221.5Q778 254 778 307Q778 348 745 373.5Q712 399 639 415L439 460Q278 495 199.5 573.5Q121 652 121 779Z" />
<glyph glyph-name="t" unicode="&#x74;" horiz-adv-x="845" d="M229 1365L520 1365L520 1092L749 1092L749 863L520 863L520 367Q520 295 554.5 261Q589 227 663 227Q712 227 749 231L749 9Q682 -4 603 -4Q402 -4 315.5 66Q229 136 229 298L229 863L57 863L57 1092L229 1092Z" />
<glyph glyph-name="u" unicode="&#x75;" horiz-adv-x="1290" d="M1144 1103L1144 0L862 0L862 177L844 177Q762 -24 522 -24Q343 -24 239.5 84.5Q136 193 136 384L136 1103L427 1103L427 459Q427 229 630 229Q737 229 795 292Q853 355 853 467L853 1103Z" />
<glyph glyph-name="v" unicode="&#x76;" horiz-adv-x="1194" d="M1143 1103L762 0L434 0L51 1103L364 1103L592 281L610 281L836 1103Z" />
<glyph glyph-name="w" unicode="&#x77;" horiz-adv-x="1735" d="M1674 1103L1381 0L1071 0L874 761L856 761L661 0L355 0L61 1103L356 1103L520 312L538 312L731 1103L1009 1103L1203 312L1221 312L1385 1103Z" />
<glyph glyph-name="x" unicode="&#x78;" horiz-adv-x="1190" d="M598 360L580 360L375 0L66 0L412 545L64 1103L398 1103L593 741L611 741L806 1103L1124 1103L778 558L1127 0L803 0Z" />
<glyph glyph-name="y" unicode="&#x79;" horiz-adv-x="1223" d="M283 -401Q190 -401 172 -398L172 -164Q182 -166 238 -166Q321 -166 368 -137.5Q415 -109 433 -47L443 -7L56 1103L377 1103L609 267L627 267L859 1103L1167 1103L787 -17Q717 -229 603.5 -315Q490 -401 283 -401Z" />
<glyph glyph-name="z" unicode="&#x7a;" horiz-adv-x="1160" d="M121 0L121 172L679 853L679 871L129 871L129 1103L1027 1103L1027 911L501 250L501 232L1040 232L1040 0Z" />
<glyph glyph-name="braceleft" unicode="&#x7b;" horiz-adv-x="878" d="M326 593Q454 579 521 515Q588 451 588 342L588 100Q588 -4 627.5 -47.5Q667 -91 762 -91L806 -91L806 -310L732 -310Q509 -310 409 -219.5Q309 -129 309 71L309 263Q309 372 255.5 418Q202 464 73 466L73 753Q201 754 255 800Q309 846 309 956L309 1148Q309 1346 409 1435Q509 1524 732 1524L806 1524L806 1304L762 1304Q667 1304 627.5 1260.5Q588 1217 588 1113L588 876Q588 768 521 704Q454 640 326 626Z" />
<glyph glyph-name="bar" unicode="&#x7c;" horiz-adv-x="793" d="M533 -310L260 -310L260 1524L533 1524Z" />
<glyph glyph-name="braceright" unicode="&#x7d;" horiz-adv-x="878" d="M553 593L553 626Q425 640 358 704Q291 768 291 876L291 1113Q291 1217 251.5 1260.5Q212 1304 117 1304L73 1304L73 1524L147 1524Q370 1524 469.5 1435Q569 1346 569 1148L569 956Q569 846 623 800Q677 754 806 753L806 466Q677 464 623 418Q569 372 569 263L569 71Q569 -129 469 -219.5Q369 -310 147 -310L73 -310L73 -91L117 -91Q212 -91 251.5 -47.5Q291 -4 291 100L291 342Q291 451 358 515Q425 579 553 593Z" />
<glyph glyph-name="asciitilde" unicode="&#x7e;" horiz-adv-x="1225" d="M566 622Q519 668 489.5 685.5Q460 703 429 703Q314 703 310 525L82 525Q80 957 403 957Q471 957 530 927Q589 897 662 826Q706 783 736.5 765Q767 747 797 747Q910 747 916 925L1143 925Q1144 706 1066.5 599.5Q989 493 827 493Q757 493 697 522.5Q637 552 566 622Z" />
<glyph glyph-name="nonbreakingspace" unicode="&#xa0;" horiz-adv-x="528" d="" />
<glyph glyph-name="exclamdown" unicode="&#xa1;" horiz-adv-x="730" d="M205 -322L231 647L498 647L525 -322ZM365 811Q281 811 232 857Q183 903 183 982Q183 1061 232 1106.5Q281 1152 365 1152Q450 1152 498.5 1106.5Q547 1061 547 982Q547 902 498.5 856.5Q450 811 365 811Z" />
<glyph glyph-name="cent" unicode="&#xa2;" horiz-adv-x="1415" d="M1253 528Q1237 368 1125.5 263.5Q1014 159 840 132L840 -52L598 -52L598 136Q398 175 278 324.5Q158 474 158 700Q158 924 278.5 1073Q399 1222 598 1260L598 1449L840 1449L840 1264Q1011 1235 1124 1127Q1237 1019 1253 860L981 860Q959 940 892 987Q825 1034 733 1034Q611 1034 531.5 944Q452 854 452 700Q452 544 531.5 453Q611 362 732 362Q832 362 897 406Q962 450 981 528Z" />
<glyph glyph-name="sterling" unicode="&#xa3;" horiz-adv-x="1415" d="M551 257L1265 257L1265 0L141 0L141 240Q275 259 359.5 349Q444 439 444 564Q444 599 438 632L145 632L145 845L369 845Q310 993 310 1088Q310 1274 456.5 1377Q603 1480 868 1480Q958 1480 1052 1465.5Q1146 1451 1198 1430L1198 1186Q1149 1208 1067 1222.5Q985 1237 906 1237Q767 1237 690 1185Q613 1133 613 1039Q613 967 657 845L1072 845L1072 632L724 632Q727 608 727 583Q727 483 677.5 398Q628 313 551 276Z" />
<glyph glyph-name="currency" unicode="&#xa4;" horiz-adv-x="1415" d="M543 812Q543 812 508.5 777.5Q474 743 474 648Q474 553 543 484.5Q612 416 708 416Q804 416 873.5 484.5Q943 553 943 648Q943 743 873.5 812Q804 881 708 881Q612 881 543 812ZM1248 1021L1101 872Q1159 769 1159 648Q1159 526 1100 424L1248 275L1082 103L933 253Q830 192 708 192Q586 192 483 253L334 103L168 275L316 424Q258 529 258 648Q258 769 316 872L168 1021L334 1193L482 1043Q586 1105 708 1105Q830 1105 933 1044L1082 1193Z" />
<glyph glyph-name="yen" unicode="&#xa5;" horiz-adv-x="1415" d="M1130 206L859 206L859 0L557 0L557 206L286 206L286 375L557 375L557 508L286 508L286 677L481 677L54 1443L381 1443L699 839L717 839L1034 1443L1361 1443L935 677L1130 677L1130 508L859 508L859 375L1130 375Z" />
<glyph glyph-name="brokenbar" unicode="&#xa6;" horiz-adv-x="793" d="M533 791L260 791L260 1524L533 1524ZM533 -310L260 -310L260 422L533 422Z" />
<glyph glyph-name="section" unicode="&#xa7;" horiz-adv-x="1032" d="M464 454L573 416Q632 425 672 464.5Q712 504 712 554Q712 601 675 637.5Q638 674 571 693L462 731Q403 722 362.5 682Q322 642 322 593Q322 546 359.5 509.5Q397 473 464 454ZM515 -286Q328 -286 207 -193.5Q86 -101 79 48L332 48Q339 -7 391.5 -41.5Q444 -76 519 -76Q596 -76 644.5 -40.5Q693 -5 693 51Q693 93 658 122.5Q623 152 544 175L369 235Q211 286 139.5 357.5Q68 429 68 536Q68 630 125.5 701.5Q183 773 283 804L283 822Q176 871 127 936.5Q78 1002 78 1096Q78 1248 198 1340.5Q318 1433 516 1433Q700 1433 817.5 1343Q935 1253 946 1104L695 1104Q687 1157 637 1190Q587 1223 514 1223Q438 1223 390.5 1188Q343 1153 343 1097Q343 1055 377 1026.5Q411 998 490 973L661 913Q821 858 893 787.5Q965 717 965 614Q965 517 901.5 441.5Q838 366 734 338L734 319Q850 274 903.5 211Q957 148 957 52Q957 -99 835 -192.5Q713 -286 515 -286Z" />
<glyph glyph-name="dieresis" unicode="&#xa8;" horiz-adv-x="1176" d="M465 1310Q465 1310 443 1288.5Q421 1267 354 1267Q287 1267 243 1310Q199 1353 199 1419Q199 1485 242.5 1527.5Q286 1570 354 1570Q422 1570 465.5 1527.5Q509 1485 509 1419Q509 1353 465 1310ZM822 1267Q755 1267 711 1310Q667 1353 667 1419Q667 1485 711 1527.5Q755 1570 822 1570Q890 1570 934 1527.5Q978 1485 978 1419Q978 1353 934 1310Q890 1267 822 1267Z" />
<glyph glyph-name="copyright" unicode="&#xa9;" horiz-adv-x="1742" d="M1179.5 -74Q1179.5 -74 1106.25 -105Q1033 -136 871 -136Q709 -136 563 -74Q417 -12 312 93Q207 198 145 344Q83 490 83 652Q83 814 144.5 960.5Q206 1107 311.5 1212Q417 1317 563 1379Q709 1441 871 1441Q1034 1441 1180 1379Q1326 1317 1431.5 1212Q1537 1107 1598.5 960.5Q1660 814 1660 652Q1660 490 1598 344Q1536 198 1431 93Q1326 -12 1179.5 -74ZM626.5 79Q626.5 79 684.25 54.5Q742 30 871 30Q1000 30 1116 78.5Q1232 127 1315 210.5Q1398 294 1447 409Q1496 524 1496 652Q1496 824 1413.5 967Q1331 1110 1187 1192.5Q1043 1275 871 1275Q742 1275 626.5 1226Q511 1177 428 1094Q345 1011 296 895.5Q247 780 247 652Q247 524 296 409Q345 294 428 211Q511 128 626.5 79ZM1238 759L1050 759Q1039 817 995 851Q951 885 888 885Q803 885 754.5 823.5Q706 762 706 654Q706 544 754.5 482Q803 420 888 420Q954 420 996.5 451.5Q1039 483 1050 540L1238 540Q1224 408 1130 332Q1036 256 887 256Q710 256 607.5 363Q505 470 505 654Q505 836 608 942.5Q711 1049 886 1049Q1032 1049 1128 970Q1224 891 1238 759Z" />
<glyph glyph-name="ordfeminine" unicode="&#xaa;" horiz-adv-x="1031" d="M491 693Q566 693 615 737Q664 781 664 848L664 918L497 906Q354 897 354 799Q354 750 390.5 721.5Q427 693 491 693ZM392 497Q255 497 173 575Q91 653 91 783Q91 910 184 982Q277 1054 455 1065L662 1076L662 1151Q663 1201 624.5 1229.5Q586 1258 518 1258Q459 1258 422 1236.5Q385 1215 377 1176L125 1176Q135 1311 242.5 1388Q350 1465 528 1465Q713 1465 819 1380Q925 1295 925 1146L925 515L669 515L669 628L651 628Q618 567 549.5 532Q481 497 392 497Z" />
<glyph glyph-name="guillemotleft" unicode="&#xab;" horiz-adv-x="1447" d="M431 572L431 561L778 151L502 151L158 562L158 570L507 981L778 981ZM942 572L942 561L1289 151L1013 151L669 562L669 570L1018 981L1289 981Z" />
<glyph glyph-name="logicalnot" unicode="&#xac;" horiz-adv-x="1415" d="M1230 713L1230 59L975 59L975 455L185 455L185 713Z" />
<glyph glyph-name="registered" unicode="&#xae;" horiz-adv-x="1260" d="M630 438Q486 438 364 509Q242 580 171 702Q100 824 100 969Q100 1114 171 1236Q242 1358 364 1429Q486 1500 630 1500Q775 1500 897 1429Q1019 1358 1089.5 1236Q1160 1114 1160 969Q1160 824 1089.5 702Q1019 580 897 509Q775 438 630 438ZM630 574Q796 574 911.5 689.5Q1027 805 1027 969Q1027 1134 911.5 1249Q796 1364 630 1364Q465 1364 349 1249Q233 1134 233 969Q233 805 349 689.5Q465 574 630 574ZM546 733L421 733L421 1220L677 1220Q757 1220 807 1177Q857 1134 857 1064Q857 1008 830 969Q803 930 754 916L881 733L732 733L621 898L546 898ZM546 1116L546 995L645 995Q723 995 723 1055Q723 1116 647 1116Z" />
<glyph glyph-name="macron" unicode="&#xaf;" horiz-adv-x="1048" d="M892 1496L892 1316L157 1316L157 1496Z" />
<glyph glyph-name="degree" unicode="&#xb0;" horiz-adv-x="924" d="M719 846Q719 846 667.5 794Q616 742 462 742Q308 742 205 846Q102 950 102 1102Q102 1254 205 1358Q308 1462 462 1462Q616 1462 719 1358Q822 1254 822 1102Q822 950 719 846ZM330.5 970.5Q330.5 970.5 355.75 944.25Q381 918 462 918Q543 918 594 970.5Q645 1023 645 1102Q645 1181 594 1233Q543 1285 462 1285Q381 1285 330.5 1233Q280 1181 280 1102Q280 1023 330.5 970.5Z" />
<glyph glyph-name="plusminus" unicode="&#xb1;" horiz-adv-x="1415" d="M1205 71L208 71L208 296L1205 296ZM832 650L832 416L583 416L583 650L208 650L208 874L583 874L583 1108L832 1108L832 874L1207 874L1207 650Z" />
<glyph glyph-name="two.sups" unicode="&#xb2;" horiz-adv-x="914" d="M80 1530Q80 1675 182 1762.5Q284 1850 453 1850Q616 1850 713.5 1773Q811 1696 811 1567Q811 1478 756.5 1399Q702 1320 572 1224L458 1127L458 1109L826 1109L826 896L99 896L99 1085L376 1324Q483 1413 517.5 1456Q552 1499 552 1542Q552 1585 521 1612.5Q490 1640 441 1640Q389 1640 357 1610Q325 1580 325 1531L325 1525L80 1525Z" />
<glyph glyph-name="three.sups" unicode="&#xb3;" horiz-adv-x="950" d="M354 1278L354 1455L467 1455Q520 1455 551.5 1480.5Q583 1506 583 1549Q583 1589 550.5 1614.5Q518 1640 465 1640Q409 1640 374.5 1612Q340 1584 337 1536L94 1536Q95 1678 197 1762.5Q299 1847 470 1847Q632 1847 731.5 1776Q831 1705 831 1590Q831 1511 782.5 1454.5Q734 1398 655 1385L655 1366Q752 1358 808.5 1300Q865 1242 865 1153Q865 1026 755.5 947.5Q646 869 470 869Q295 869 190.5 956Q86 1043 85 1189L331 1189Q333 1140 370.5 1111.5Q408 1083 468 1083Q527 1083 563 1110.5Q599 1138 599 1182Q599 1228 565 1253Q531 1278 469 1278Z" />
<glyph glyph-name="acute" unicode="&#xb4;" horiz-adv-x="1098" d="M529 1281L260 1281L507 1634L816 1634Z" />
<glyph glyph-name="mugreek" unicode="&#xb5;" horiz-adv-x="1365" d="M146 -366L146 1103L437 1103L437 459Q437 229 638 229Q734 229 793.5 294Q853 359 853 465L853 1103L1144 1103L1144 343Q1144 273 1164 246.5Q1184 220 1233 220Q1252 220 1287 228L1287 7Q1226 -11 1157 -11Q1041 -11 978.5 32.5Q916 76 891 177L888 191L869 191Q825 -24 625 -24Q503 -24 455 54L437 54L437 -366Z" />
<glyph glyph-name="paragraph" unicode="&#xb6;" horiz-adv-x="1580" d="M966 -259L686 -259L686 443L666 443Q442 443 292 586Q142 729 142 939Q142 1158 289 1300.5Q436 1443 667 1443L966 1443ZM1135 -259L1135 1443L1415 1443L1415 -259Z" />
<glyph glyph-name="periodcentered" unicode="&#xb7;" horiz-adv-x="723" d="M492.5 606Q492.5 606 467.75 581Q443 556 362 556Q281 556 231 606Q181 656 181 733Q181 811 231 860.5Q281 910 362 910Q443 910 492.5 860.5Q542 811 542 733Q542 656 492.5 606Z" />
<glyph glyph-name="cedilla" unicode="&#xb8;" horiz-adv-x="1098" d="M405 -237L405 -121L469 27L630 27L630 0L585 -108Q680 -113 730.5 -158.5Q781 -204 781 -285Q781 -382 711 -436Q641 -490 514 -490Q428 -490 367 -472L367 -338Q409 -352 483 -352Q595 -352 595 -293Q595 -263 564.5 -250Q534 -237 465 -237Z" />
<glyph glyph-name="one.sups" unicode="&#xb9;" horiz-adv-x="761" d="M322 896L322 1575L304 1575Q297 1571 192.5 1503Q88 1435 87 1434L87 1669Q178 1737 319 1824L589 1824L589 896Z" />
<glyph glyph-name="ordmasculine" unicode="&#xba;" horiz-adv-x="1107" d="M553 497Q338 497 216.5 625Q95 753 95 980Q95 1203 218 1332.5Q341 1462 553 1462Q767 1462 889 1333.5Q1011 1205 1011 980Q1011 752 890 624.5Q769 497 553 497ZM415.5 780.5Q415.5 780.5 439.75 745.25Q464 710 553 710Q642 710 690.5 780.5Q739 851 739 980Q739 1108 690 1178.5Q641 1249 553 1249Q465 1249 416 1178Q367 1107 367 980Q367 851 415.5 780.5Z" />
<glyph glyph-name="guillemotright" unicode="&#xbb;" horiz-adv-x="1447" d="M505 572L158 981L429 981L778 570L778 562L434 151L158 151L505 561ZM1016 572L669 981L940 981L1289 570L1289 562L945 151L669 151L1016 561Z" />
<glyph glyph-name="onequarter" unicode="&#xbc;" horiz-adv-x="2242" d="M322 515L322 1194L304 1194Q297 1190 192.5 1122Q88 1054 87 1053L87 1288Q178 1356 319 1443L589 1443L589 515ZM843 0L569 0L963 749L1268 1443L1542 1443L1143 701ZM1799 0L1799 134L1318 134L1318 348Q1367 448 1443.5 572.5Q1520 697 1677 928L2044 928L2044 340L2154 340L2154 144L2035 144L2035 0ZM1546 337L1546 334L1800 334L1800 727L1786 727Q1595 432 1546 337Z" />
<glyph glyph-name="onehalf" unicode="&#xbd;" horiz-adv-x="2243" d="M322 515L322 1194L304 1194Q297 1190 192.5 1122Q88 1054 87 1053L87 1288Q178 1356 319 1443L589 1443L589 515ZM843 0L569 0L963 749L1268 1443L1542 1443L1143 701ZM1410 634Q1410 779 1512 866.5Q1614 954 1783 954Q1946 954 2043.5 877Q2141 800 2141 671Q2141 582 2086.5 503Q2032 424 1902 328L1788 231L1788 213L2156 213L2156 0L1429 0L1429 189L1706 428Q1813 517 1847.5 560Q1882 603 1882 646Q1882 689 1851 716.5Q1820 744 1771 744Q1719 744 1687 714Q1655 684 1655 635L1655 629L1410 629Z" />
<glyph glyph-name="threequarters" unicode="&#xbe;" horiz-adv-x="2402" d="M354 897L354 1074L467 1074Q520 1074 551.5 1099.5Q583 1125 583 1168Q583 1208 550.5 1233.5Q518 1259 465 1259Q409 1259 374.5 1231Q340 1203 337 1155L94 1155Q95 1297 197 1381.5Q299 1466 470 1466Q632 1466 731.5 1395Q831 1324 831 1209Q831 1130 782.5 1073.5Q734 1017 655 1004L655 985Q752 977 808.5 919Q865 861 865 772Q865 645 755.5 566.5Q646 488 470 488Q295 488 190.5 575Q86 662 85 808L331 808Q333 759 370.5 730.5Q408 702 468 702Q527 702 563 729.5Q599 757 599 801Q599 847 565 872Q531 897 469 897ZM1003 0L729 0L1123 749L1428 1443L1702 1443L1303 701ZM1959 0L1959 134L1478 134L1478 348Q1527 448 1603.5 572.5Q1680 697 1837 928L2204 928L2204 340L2314 340L2314 144L2195 144L2195 0ZM1706 337L1706 334L1960 334L1960 727L1946 727Q1755 432 1706 337Z" />
<glyph glyph-name="questiondown" unicode="&#xbf;" horiz-adv-x="1141" d="M1064 87Q1060 -104 932 -219.5Q804 -335 579 -335Q365 -335 234 -227Q103 -119 103 56Q103 166 156.5 247.5Q210 329 317 393Q417 452 452 497.5Q487 543 487 615L487 668L751 668L753 614Q763 495 721 419.5Q679 344 573 282Q476 224 440.5 178.5Q405 133 405 65Q405 -6 458 -50.5Q511 -95 596 -95Q681 -95 734 -45.5Q787 4 792 87ZM609 811Q525 811 476 856.5Q427 902 427 981Q427 1060 476 1105.5Q525 1151 609 1151Q694 1151 742.5 1105.5Q791 1060 791 981Q791 902 742.5 856.5Q694 811 609 811Z" />
<glyph glyph-name="Agrave" unicode="&#xc0;" horiz-adv-x="1500" d="M1102 0L993 344L486 344L375 0L72 0L573 1443L928 1443L1429 0ZM732 1143L551 577L929 577L750 1143ZM623 1590L309 1908L624 1908L900 1590Z" />
<glyph glyph-name="Aacute" unicode="&#xc1;" horiz-adv-x="1500" d="M1102 0L993 344L486 344L375 0L72 0L573 1443L928 1443L1429 0ZM732 1143L551 577L929 577L750 1143ZM887 1590L609 1590L886 1908L1201 1908Z" />
<glyph glyph-name="Acircumflex" unicode="&#xc2;" horiz-adv-x="1500" d="M1102 0L993 344L486 344L375 0L72 0L573 1443L928 1443L1429 0ZM732 1143L551 577L929 577L750 1143ZM614 1925L886 1925L1170 1590L905 1590L759 1777L741 1777L595 1590L330 1590Z" />
<glyph glyph-name="Atilde" unicode="&#xc3;" horiz-adv-x="1500" d="M1102 0L993 344L486 344L375 0L72 0L573 1443L928 1443L1429 0ZM732 1143L551 577L929 577L750 1143ZM896 1572Q854 1572 817 1587Q780 1602 754.5 1623Q729 1644 706.5 1665Q684 1686 661.5 1701Q639 1716 618 1716Q532 1716 530 1575L343 1575Q343 1720 414.5 1808Q486 1896 604 1896Q646 1896 683 1881Q720 1866 745.5 1845Q771 1824 793.5 1803Q816 1782 838.5 1767Q861 1752 882 1752Q969 1752 970 1890L1157 1890Q1157 1746 1085.5 1659Q1014 1572 896 1572Z" />
<glyph glyph-name="Adieresis" unicode="&#xc4;" horiz-adv-x="1500" d="M1102 0L993 344L486 344L375 0L72 0L573 1443L928 1443L1429 0ZM732 1143L551 577L929 577L750 1143ZM627 1622Q627 1622 605 1600.5Q583 1579 516 1579Q449 1579 405 1622Q361 1665 361 1731Q361 1797 404.5 1839.5Q448 1882 516 1882Q584 1882 627.5 1839.5Q671 1797 671 1731Q671 1665 627 1622ZM984 1579Q917 1579 873 1622Q829 1665 829 1731Q829 1797 873 1839.5Q917 1882 984 1882Q1052 1882 1096 1839.5Q1140 1797 1140 1731Q1140 1665 1096 1622Q1052 1579 984 1579Z" />
<glyph glyph-name="Aring" unicode="&#xc5;" horiz-adv-x="1500" d="M1102 0L993 344L486 344L375 0L72 0L573 1443L928 1443L1429 0ZM732 1143L551 577L929 577L750 1143ZM751 1546Q662 1546 603.5 1602.5Q545 1659 545 1746Q545 1832 603.5 1888.5Q662 1945 751 1945Q838 1945 896.5 1888.5Q955 1832 955 1746Q955 1659 896.5 1602.5Q838 1546 751 1546ZM750 1652Q792 1652 818.5 1678.5Q845 1705 845 1745Q845 1786 818 1812.5Q791 1839 750 1839Q709 1839 682 1812.5Q655 1786 655 1745Q655 1705 682 1678.5Q709 1652 750 1652Z" />
<glyph glyph-name="AE" unicode="&#xc6;" horiz-adv-x="2059" d="M861 1202L612 598L990 598L990 1202ZM990 0L990 364L525 364L371 0L72 0L667 1443L1917 1443L1917 1185L1266 1185L1266 844L1880 844L1880 605L1266 605L1266 258L1917 258L1917 0Z" />
<glyph glyph-name="Ccedilla" unicode="&#xc7;" horiz-adv-x="1518" d="M1121 490L1415 490Q1398 275 1248.5 132.5Q1099 -10 869 -33L838 -107Q933 -112 983.5 -157.5Q1034 -203 1034 -284Q1034 -381 964 -435Q894 -489 767 -489Q681 -489 620 -471L620 -337Q662 -351 736 -351Q848 -351 848 -292Q848 -262 817.5 -249Q787 -236 718 -236L658 -236L658 -120L696 -32Q422 -2 266.5 197.5Q111 397 111 722Q111 1074 292.5 1277Q474 1480 788 1480Q1044 1480 1220.5 1327.5Q1397 1175 1414 939L1120 939Q1098 1064 1007.5 1139Q917 1214 788 1214Q618 1214 519 1082Q420 950 420 722Q420 494 519 361.5Q618 229 789 229Q919 229 1009 300Q1099 371 1121 490Z" />
<glyph glyph-name="Egrave" unicode="&#xc8;" horiz-adv-x="1274" d="M1131 258L1131 0L175 0L175 1443L1131 1443L1131 1185L477 1185L477 848L1094 848L1094 609L477 609L477 258ZM526 1590L212 1908L527 1908L803 1590Z" />
<glyph glyph-name="Eacute" unicode="&#xc9;" horiz-adv-x="1274" d="M1131 258L1131 0L175 0L175 1443L1131 1443L1131 1185L477 1185L477 848L1094 848L1094 609L477 609L477 258ZM790 1590L512 1590L789 1908L1104 1908Z" />
<glyph glyph-name="Ecircumflex" unicode="&#xca;" horiz-adv-x="1274" d="M1131 258L1131 0L175 0L175 1443L1131 1443L1131 1185L477 1185L477 848L1094 848L1094 609L477 609L477 258ZM517 1925L789 1925L1073 1590L808 1590L662 1777L644 1777L498 1590L233 1590Z" />
<glyph glyph-name="Edieresis" unicode="&#xcb;" horiz-adv-x="1274" d="M1131 258L1131 0L175 0L175 1443L1131 1443L1131 1185L477 1185L477 848L1094 848L1094 609L477 609L477 258ZM530 1622Q530 1622 508 1600.5Q486 1579 419 1579Q352 1579 308 1622Q264 1665 264 1731Q264 1797 307.5 1839.5Q351 1882 419 1882Q487 1882 530.5 1839.5Q574 1797 574 1731Q574 1665 530 1622ZM887 1579Q820 1579 776 1622Q732 1665 732 1731Q732 1797 776 1839.5Q820 1882 887 1882Q955 1882 999 1839.5Q1043 1797 1043 1731Q1043 1665 999 1622Q955 1579 887 1579Z" />
<glyph glyph-name="Igrave" unicode="&#xcc;" horiz-adv-x="652" d="M477 0L175 0L175 1443L477 1443ZM199 1590L-115 1908L200 1908L476 1590Z" />
<glyph glyph-name="Iacute" unicode="&#xcd;" horiz-adv-x="652" d="M477 0L175 0L175 1443L477 1443ZM463 1590L185 1590L462 1908L777 1908Z" />
<glyph glyph-name="Icircumflex" unicode="&#xce;" horiz-adv-x="652" d="M477 0L175 0L175 1443L477 1443ZM190 1925L462 1925L746 1590L481 1590L335 1777L317 1777L171 1590L-94 1590Z" />
<glyph glyph-name="Idieresis" unicode="&#xcf;" horiz-adv-x="652" d="M477 0L175 0L175 1443L477 1443ZM203 1622Q203 1622 181 1600.5Q159 1579 92 1579Q25 1579 -19 1622Q-63 1665 -63 1731Q-63 1797 -19.5 1839.5Q24 1882 92 1882Q160 1882 203.5 1839.5Q247 1797 247 1731Q247 1665 203 1622ZM560 1579Q493 1579 449 1622Q405 1665 405 1731Q405 1797 449 1839.5Q493 1882 560 1882Q628 1882 672 1839.5Q716 1797 716 1731Q716 1665 672 1622Q628 1579 560 1579Z" />
<glyph glyph-name="Eth" unicode="&#xd0;" horiz-adv-x="1530" d="M477 258L695 258Q896 258 1004 378.5Q1112 499 1112 727Q1112 945 1002 1065.5Q892 1186 695 1186L477 1186L477 845L705 845L705 618L477 618ZM175 1444L743 1444Q1065 1444 1242.5 1257.5Q1420 1071 1420 732Q1420 381 1243.5 190.5Q1067 0 743 0L175 0L175 618L50 618L50 845L175 845Z" />
<glyph glyph-name="Ntilde" unicode="&#xd1;" horiz-adv-x="1573" d="M464 0L175 0L175 1443L427 1443L1091 544L1109 544L1109 1443L1398 1443L1398 0L1148 0L482 903L464 903ZM929 1572Q887 1572 850 1587Q813 1602 787.5 1623Q762 1644 739.5 1665Q717 1686 694.5 1701Q672 1716 651 1716Q565 1716 563 1575L376 1575Q376 1720 447.5 1808Q519 1896 637 1896Q679 1896 716 1881Q753 1866 778.5 1845Q804 1824 826.5 1803Q849 1782 871.5 1767Q894 1752 915 1752Q1002 1752 1003 1890L1190 1890Q1190 1746 1118.5 1659Q1047 1572 929 1572Z" />
<glyph glyph-name="Ograve" unicode="&#xd2;" horiz-adv-x="1610" d="M806 1480Q1126 1480 1312.5 1276Q1499 1072 1499 722Q1499 371 1312.5 167Q1126 -37 806 -37Q485 -37 298 167Q111 371 111 722Q111 1072 299 1276Q487 1480 806 1480ZM1086.5 1081.5Q1086.5 1081.5 1034.25 1148.25Q982 1215 806 1215Q630 1215 525 1081.5Q420 948 420 722Q420 496 524.5 362Q629 228 806 228Q982 228 1086.5 362Q1191 496 1191 722Q1191 948 1086.5 1081.5ZM679 1590L365 1908L680 1908L956 1590Z" />
<glyph glyph-name="Oacute" unicode="&#xd3;" horiz-adv-x="1610" d="M806 1480Q1126 1480 1312.5 1276Q1499 1072 1499 722Q1499 371 1312.5 167Q1126 -37 806 -37Q485 -37 298 167Q111 371 111 722Q111 1072 299 1276Q487 1480 806 1480ZM1086.5 1081.5Q1086.5 1081.5 1034.25 1148.25Q982 1215 806 1215Q630 1215 525 1081.5Q420 948 420 722Q420 496 524.5 362Q629 228 806 228Q982 228 1086.5 362Q1191 496 1191 722Q1191 948 1086.5 1081.5ZM943 1590L665 1590L942 1908L1257 1908Z" />
<glyph glyph-name="Ocircumflex" unicode="&#xd4;" horiz-adv-x="1610" d="M806 1480Q1126 1480 1312.5 1276Q1499 1072 1499 722Q1499 371 1312.5 167Q1126 -37 806 -37Q485 -37 298 167Q111 371 111 722Q111 1072 299 1276Q487 1480 806 1480ZM1086.5 1081.5Q1086.5 1081.5 1034.25 1148.25Q982 1215 806 1215Q630 1215 525 1081.5Q420 948 420 722Q420 496 524.5 362Q629 228 806 228Q982 228 1086.5 362Q1191 496 1191 722Q1191 948 1086.5 1081.5ZM670 1925L942 1925L1226 1590L961 1590L815 1777L797 1777L651 1590L386 1590Z" />
<glyph glyph-name="Otilde" unicode="&#xd5;" horiz-adv-x="1610" d="M806 1480Q1126 1480 1312.5 1276Q1499 1072 1499 722Q1499 371 1312.5 167Q1126 -37 806 -37Q485 -37 298 167Q111 371 111 722Q111 1072 299 1276Q487 1480 806 1480ZM1086.5 1081.5Q1086.5 1081.5 1034.25 1148.25Q982 1215 806 1215Q630 1215 525 1081.5Q420 948 420 722Q420 496 524.5 362Q629 228 806 228Q982 228 1086.5 362Q1191 496 1191 722Q1191 948 1086.5 1081.5ZM952 1572Q910 1572 873 1587Q836 1602 810.5 1623Q785 1644 762.5 1665Q740 1686 717.5 1701Q695 1716 674 1716Q588 1716 586 1575L399 1575Q399 1720 470.5 1808Q542 1896 660 1896Q702 1896 739 1881Q776 1866 801.5 1845Q827 1824 849.5 1803Q872 1782 894.5 1767Q917 1752 938 1752Q1025 1752 1026 1890L1213 1890Q1213 1746 1141.5 1659Q1070 1572 952 1572Z" />
<glyph glyph-name="Odieresis" unicode="&#xd6;" horiz-adv-x="1610" d="M806 1480Q1126 1480 1312.5 1276Q1499 1072 1499 722Q1499 371 1312.5 167Q1126 -37 806 -37Q485 -37 298 167Q111 371 111 722Q111 1072 299 1276Q487 1480 806 1480ZM1086.5 1081.5Q1086.5 1081.5 1034.25 1148.25Q982 1215 806 1215Q630 1215 525 1081.5Q420 948 420 722Q420 496 524.5 362Q629 228 806 228Q982 228 1086.5 362Q1191 496 1191 722Q1191 948 1086.5 1081.5ZM683 1622Q683 1622 661 1600.5Q639 1579 572 1579Q505 1579 461 1622Q417 1665 417 1731Q417 1797 460.5 1839.5Q504 1882 572 1882Q640 1882 683.5 1839.5Q727 1797 727 1731Q727 1665 683 1622ZM1040 1579Q973 1579 929 1622Q885 1665 885 1731Q885 1797 929 1839.5Q973 1882 1040 1882Q1108 1882 1152 1839.5Q1196 1797 1196 1731Q1196 1665 1152 1622Q1108 1579 1040 1579Z" />
<glyph glyph-name="multiply" unicode="&#xd7;" horiz-adv-x="1415" d="M708 402L403 98L228 280L532 584L228 889L403 1071L708 767L1012 1071L1187 889L883 584L1187 280L1012 98Z" />
<glyph glyph-name="Oslash" unicode="&#xd8;" horiz-adv-x="1592" d="M1097 1067L587 299Q680 228 806 228Q982 228 1086.5 362Q1191 496 1191 722Q1191 938 1097 1067ZM503 392L1009 1155Q921 1215 806 1215Q630 1215 525 1081.5Q420 948 420 722Q420 521 503 392ZM1350 1448L1266 1321Q1379 1223 1439 1070Q1499 917 1499 722Q1499 371 1312.5 167Q1126 -37 806 -37Q589 -37 429 60L344 -68L242 -2L332 133Q225 233 168 382.5Q111 532 111 722Q111 1072 299 1276Q487 1480 806 1480Q1013 1480 1166 1392L1242 1507Z" />
<glyph glyph-name="Ugrave" unicode="&#xd9;" horiz-adv-x="1565" d="M480 1443L480 529Q480 391 559.5 311Q639 231 782 231Q926 231 1005.5 311Q1085 391 1085 529L1085 1443L1387 1443L1387 498Q1387 257 1222.5 110Q1058 -37 782 -37Q507 -37 342.5 110Q178 257 178 498L178 1443ZM655 1590L341 1908L656 1908L932 1590Z" />
<glyph glyph-name="Uacute" unicode="&#xda;" horiz-adv-x="1565" d="M480 1443L480 529Q480 391 559.5 311Q639 231 782 231Q926 231 1005.5 311Q1085 391 1085 529L1085 1443L1387 1443L1387 498Q1387 257 1222.5 110Q1058 -37 782 -37Q507 -37 342.5 110Q178 257 178 498L178 1443ZM919 1590L641 1590L918 1908L1233 1908Z" />
<glyph glyph-name="Ucircumflex" unicode="&#xdb;" horiz-adv-x="1565" d="M480 1443L480 529Q480 391 559.5 311Q639 231 782 231Q926 231 1005.5 311Q1085 391 1085 529L1085 1443L1387 1443L1387 498Q1387 257 1222.5 110Q1058 -37 782 -37Q507 -37 342.5 110Q178 257 178 498L178 1443ZM646 1925L918 1925L1202 1590L937 1590L791 1777L773 1777L627 1590L362 1590Z" />
<glyph glyph-name="Udieresis" unicode="&#xdc;" horiz-adv-x="1565" d="M480 1443L480 529Q480 391 559.5 311Q639 231 782 231Q926 231 1005.5 311Q1085 391 1085 529L1085 1443L1387 1443L1387 498Q1387 257 1222.5 110Q1058 -37 782 -37Q507 -37 342.5 110Q178 257 178 498L178 1443ZM659 1622Q659 1622 637 1600.5Q615 1579 548 1579Q481 1579 437 1622Q393 1665 393 1731Q393 1797 436.5 1839.5Q480 1882 548 1882Q616 1882 659.5 1839.5Q703 1797 703 1731Q703 1665 659 1622ZM1016 1579Q949 1579 905 1622Q861 1665 861 1731Q861 1797 905 1839.5Q949 1882 1016 1882Q1084 1882 1128 1839.5Q1172 1797 1172 1731Q1172 1665 1128 1622Q1084 1579 1016 1579Z" />
<glyph glyph-name="Yacute" unicode="&#xdd;" horiz-adv-x="1452" d="M877 0L575 0L575 531L72 1443L399 1443L717 839L735 839L1052 1443L1379 1443L877 531ZM863 1590L585 1590L862 1908L1177 1908Z" />
<glyph glyph-name="Thorn" unicode="&#xde;" horiz-adv-x="1378" d="M175 1443L479 1443L479 1211L786 1211Q995 1211 1128 1086Q1261 961 1261 749Q1261 538 1123 413Q985 288 771 288L477 288L477 0L175 0ZM477 963L477 533L703 533Q820 533 887 588.5Q954 644 954 749Q954 853 887.5 908Q821 963 704 963Z" />
<glyph glyph-name="germandbls" unicode="&#xdf;" horiz-adv-x="1402" d="M482 0L192 0L192 1079Q192 1265 327.5 1373Q463 1481 692 1481Q911 1481 1048.5 1376Q1186 1271 1186 1104Q1186 985 1125.5 897Q1065 809 968 782L968 763Q1119 753 1211 655.5Q1303 558 1303 401Q1303 214 1171 99.5Q1039 -15 818 -15Q704 -15 637 1L637 242Q691 224 766 224Q881 224 944 276.5Q1007 329 1007 419Q1007 510 934.5 562.5Q862 615 733 615L661 615L661 860L710 860Q798 860 850.5 911Q903 962 903 1052Q903 1135 847.5 1186Q792 1237 697 1237Q593 1237 537.5 1180.5Q482 1124 482 1017Z" />
<glyph glyph-name="agrave" unicode="&#xe0;" horiz-adv-x="1208" d="M544 202Q645 202 713 259Q781 316 781 400L781 481L558 467Q372 454 372 334Q372 273 419.5 237.5Q467 202 544 202ZM448 -17Q288 -17 187.5 74Q87 165 87 315Q87 464 197.5 549.5Q308 635 514 647L781 663L781 753Q781 822 733 859.5Q685 897 595 897Q433 897 396 795L128 795Q142 948 272.5 1037.5Q403 1127 611 1127Q829 1127 948.5 1029Q1068 931 1068 753L1068 0L786 0L786 144L768 144Q725 68 640 25.5Q555 -17 448 -17ZM770 1281L501 1281L214 1634L523 1634Z" />
<glyph glyph-name="aacute" unicode="&#xe1;" horiz-adv-x="1208" d="M544 202Q645 202 713 259Q781 316 781 400L781 481L558 467Q372 454 372 334Q372 273 419.5 237.5Q467 202 544 202ZM448 -17Q288 -17 187.5 74Q87 165 87 315Q87 464 197.5 549.5Q308 635 514 647L781 663L781 753Q781 822 733 859.5Q685 897 595 897Q433 897 396 795L128 795Q142 948 272.5 1037.5Q403 1127 611 1127Q829 1127 948.5 1029Q1068 931 1068 753L1068 0L786 0L786 144L768 144Q725 68 640 25.5Q555 -17 448 -17ZM725 1281L456 1281L703 1634L1012 1634Z" />
<glyph glyph-name="acircumflex" unicode="&#xe2;" horiz-adv-x="1208" d="M544 202Q645 202 713 259Q781 316 781 400L781 481L558 467Q372 454 372 334Q372 273 419.5 237.5Q467 202 544 202ZM448 -17Q288 -17 187.5 74Q87 165 87 315Q87 464 197.5 549.5Q308 635 514 647L781 663L781 753Q781 822 733 859.5Q685 897 595 897Q433 897 396 795L128 795Q142 948 272.5 1037.5Q403 1127 611 1127Q829 1127 948.5 1029Q1068 931 1068 753L1068 0L786 0L786 144L768 144Q725 68 640 25.5Q555 -17 448 -17ZM756 1605L1031 1251L768 1251L620 1460L602 1460L453 1251L190 1251L465 1605Z" />
<glyph glyph-name="atilde" unicode="&#xe3;" horiz-adv-x="1208" d="M544 202Q645 202 713 259Q781 316 781 400L781 481L558 467Q372 454 372 334Q372 273 419.5 237.5Q467 202 544 202ZM448 -17Q288 -17 187.5 74Q87 165 87 315Q87 464 197.5 549.5Q308 635 514 647L781 663L781 753Q781 822 733 859.5Q685 897 595 897Q433 897 396 795L128 795Q142 948 272.5 1037.5Q403 1127 611 1127Q829 1127 948.5 1029Q1068 931 1068 753L1068 0L786 0L786 144L768 144Q725 68 640 25.5Q555 -17 448 -17ZM762 1253Q720 1253 683 1268Q646 1283 620.5 1304Q595 1325 572.5 1346Q550 1367 527.5 1382Q505 1397 484 1397Q398 1397 396 1256L209 1256Q209 1401 280.5 1489Q352 1577 470 1577Q512 1577 549 1562Q586 1547 611.5 1526Q637 1505 659.5 1484Q682 1463 704.5 1448Q727 1433 748 1433Q835 1433 836 1571L1023 1571Q1023 1427 951.5 1340Q880 1253 762 1253Z" />
<glyph glyph-name="adieresis" unicode="&#xe4;" horiz-adv-x="1208" d="M544 202Q645 202 713 259Q781 316 781 400L781 481L558 467Q372 454 372 334Q372 273 419.5 237.5Q467 202 544 202ZM448 -17Q288 -17 187.5 74Q87 165 87 315Q87 464 197.5 549.5Q308 635 514 647L781 663L781 753Q781 822 733 859.5Q685 897 595 897Q433 897 396 795L128 795Q142 948 272.5 1037.5Q403 1127 611 1127Q829 1127 948.5 1029Q1068 931 1068 753L1068 0L786 0L786 144L768 144Q725 68 640 25.5Q555 -17 448 -17ZM488 1294Q488 1294 466 1272.5Q444 1251 377 1251Q310 1251 266 1294Q222 1337 222 1403Q222 1469 265.5 1511.5Q309 1554 377 1554Q445 1554 488.5 1511.5Q532 1469 532 1403Q532 1337 488 1294ZM845 1251Q778 1251 734 1294Q690 1337 690 1403Q690 1469 734 1511.5Q778 1554 845 1554Q913 1554 957 1511.5Q1001 1469 1001 1403Q1001 1337 957 1294Q913 1251 845 1251Z" />
<glyph glyph-name="aring" unicode="&#xe5;" horiz-adv-x="1208" d="M544 202Q645 202 713 259Q781 316 781 400L781 481L558 467Q372 454 372 334Q372 273 419.5 237.5Q467 202 544 202ZM448 -17Q288 -17 187.5 74Q87 165 87 315Q87 464 197.5 549.5Q308 635 514 647L781 663L781 753Q781 822 733 859.5Q685 897 595 897Q433 897 396 795L128 795Q142 948 272.5 1037.5Q403 1127 611 1127Q829 1127 948.5 1029Q1068 931 1068 753L1068 0L786 0L786 144L768 144Q725 68 640 25.5Q555 -17 448 -17ZM786 1319.5Q786 1319.5 751 1285.25Q716 1251 611 1251Q506 1251 435.5 1319.5Q365 1388 365 1492Q365 1594 435.5 1662Q506 1730 611 1730Q716 1730 786 1662.5Q856 1595 856 1492Q856 1388 786 1319.5ZM535 1416Q535 1416 550 1401.5Q565 1387 611 1387Q657 1387 686.5 1416.5Q716 1446 716 1491Q716 1535 686 1564.5Q656 1594 611 1594Q565 1594 535 1564.5Q505 1535 505 1491Q505 1445 535 1416Z" />
<glyph glyph-name="ae" unicode="&#xe6;" horiz-adv-x="1894" d="M1315 -24Q1185 -24 1080 29.5Q975 83 924 174L906 174Q842 81 736.5 28.5Q631 -24 499 -24Q312 -24 199.5 70Q87 164 87 315Q87 464 197.5 549.5Q308 635 514 647L781 663L781 736Q781 816 731.5 856.5Q682 897 595 897Q433 897 396 795L128 795Q141 941 267 1034Q393 1127 580 1127Q831 1127 937 969L955 969Q1013 1041 1106.5 1084Q1200 1127 1311 1127Q1539 1127 1671 979Q1803 831 1803 578L1803 484L1056 484L1056 458Q1060 341 1130 270.5Q1200 200 1312 200Q1467 200 1524 314L1793 314Q1760 158 1632 67Q1504 -24 1315 -24ZM1293 904Q1191 904 1126.5 839.5Q1062 775 1056 669L1518 669Q1514 774 1451.5 839Q1389 904 1293 904ZM549 199Q652 199 716.5 257Q781 315 781 397L781 481L558 467Q372 454 372 332Q372 270 420.5 234.5Q469 199 549 199Z" />
<glyph glyph-name="ccedilla" unicode="&#xe7;" horiz-adv-x="1203" d="M1122 714L850 714Q835 795 778.5 841.5Q722 888 631 888Q513 888 449.5 802Q386 716 386 554Q386 390 449.5 302.5Q513 215 631 215Q721 215 777.5 258Q834 301 850 382L1122 382Q1106 215 1000 109Q894 3 718 -19L681 -107Q776 -112 826.5 -157.5Q877 -203 877 -284Q877 -381 807 -435Q737 -489 610 -489Q524 -489 463 -471L463 -337Q505 -351 579 -351Q691 -351 691 -292Q691 -262 660.5 -249Q630 -236 561 -236L501 -236L501 -120L545 -19Q327 5 209.5 153Q92 301 92 554Q92 829 232 978Q372 1127 631 1127Q847 1127 975.5 1016Q1104 905 1122 714Z" />
<glyph glyph-name="egrave" unicode="&#xe8;" horiz-adv-x="1231" d="M623 904Q522 904 456.5 839Q391 774 383 667L853 667Q848 777 786.5 840.5Q725 904 623 904ZM859 314L1130 314Q1097 157 962.5 66.5Q828 -24 626 -24Q374 -24 233 126.5Q92 277 92 546Q92 815 234 971Q376 1127 622 1127Q866 1127 1002.5 980Q1139 833 1139 570L1139 481L382 481L382 466Q385 343 452.5 271.5Q520 200 634 200Q720 200 778 229.5Q836 259 859 314ZM781 1281L512 1281L225 1634L534 1634Z" />
<glyph glyph-name="eacute" unicode="&#xe9;" horiz-adv-x="1231" d="M623 904Q522 904 456.5 839Q391 774 383 667L853 667Q848 777 786.5 840.5Q725 904 623 904ZM859 314L1130 314Q1097 157 962.5 66.5Q828 -24 626 -24Q374 -24 233 126.5Q92 277 92 546Q92 815 234 971Q376 1127 622 1127Q866 1127 1002.5 980Q1139 833 1139 570L1139 481L382 481L382 466Q385 343 452.5 271.5Q520 200 634 200Q720 200 778 229.5Q836 259 859 314ZM736 1281L467 1281L714 1634L1023 1634Z" />
<glyph glyph-name="ecircumflex" unicode="&#xea;" horiz-adv-x="1231" d="M623 904Q522 904 456.5 839Q391 774 383 667L853 667Q848 777 786.5 840.5Q725 904 623 904ZM859 314L1130 314Q1097 157 962.5 66.5Q828 -24 626 -24Q374 -24 233 126.5Q92 277 92 546Q92 815 234 971Q376 1127 622 1127Q866 1127 1002.5 980Q1139 833 1139 570L1139 481L382 481L382 466Q385 343 452.5 271.5Q520 200 634 200Q720 200 778 229.5Q836 259 859 314ZM767 1605L1042 1251L779 1251L631 1460L613 1460L464 1251L201 1251L476 1605Z" />
<glyph glyph-name="edieresis" unicode="&#xeb;" horiz-adv-x="1231" d="M623 904Q522 904 456.5 839Q391 774 383 667L853 667Q848 777 786.5 840.5Q725 904 623 904ZM859 314L1130 314Q1097 157 962.5 66.5Q828 -24 626 -24Q374 -24 233 126.5Q92 277 92 546Q92 815 234 971Q376 1127 622 1127Q866 1127 1002.5 980Q1139 833 1139 570L1139 481L382 481L382 466Q385 343 452.5 271.5Q520 200 634 200Q720 200 778 229.5Q836 259 859 314ZM499 1294Q499 1294 477 1272.5Q455 1251 388 1251Q321 1251 277 1294Q233 1337 233 1403Q233 1469 276.5 1511.5Q320 1554 388 1554Q456 1554 499.5 1511.5Q543 1469 543 1403Q543 1337 499 1294ZM856 1251Q789 1251 745 1294Q701 1337 701 1403Q701 1469 745 1511.5Q789 1554 856 1554Q924 1554 968 1511.5Q1012 1469 1012 1403Q1012 1337 968 1294Q924 1251 856 1251Z" />
<glyph glyph-name="igrave" unicode="&#xec;" horiz-adv-x="587" d="M148 0L148 1103L439 1103L439 0ZM453 1281L184 1281L-103 1634L206 1634Z" />
<glyph glyph-name="iacute" unicode="&#xed;" horiz-adv-x="587" d="M148 0L148 1103L439 1103L439 0ZM408 1281L139 1281L386 1634L695 1634Z" />
<glyph glyph-name="icircumflex" unicode="&#xee;" horiz-adv-x="587" d="M148 0L148 1103L439 1103L439 0ZM439 1605L714 1251L451 1251L303 1460L285 1460L136 1251L-127 1251L148 1605Z" />
<glyph glyph-name="idieresis" unicode="&#xef;" horiz-adv-x="587" d="M148 0L148 1103L439 1103L439 0ZM171 1294Q171 1294 149 1272.5Q127 1251 60 1251Q-7 1251 -51 1294Q-95 1337 -95 1403Q-95 1469 -51.5 1511.5Q-8 1554 60 1554Q128 1554 171.5 1511.5Q215 1469 215 1403Q215 1337 171 1294ZM528 1251Q461 1251 417 1294Q373 1337 373 1403Q373 1469 417 1511.5Q461 1554 528 1554Q596 1554 640 1511.5Q684 1469 684 1403Q684 1337 640 1294Q596 1251 528 1251Z" />
<glyph glyph-name="eth" unicode="&#xf0;" horiz-adv-x="1277" d="M638 -17Q393 -17 245 134Q97 285 97 536Q97 766 224 909.5Q351 1053 555 1053Q645 1053 721.5 1019Q798 985 838 928L855 928Q835 993 789.5 1068.5Q744 1144 684 1209L399 1114L344 1257L572 1333Q494 1402 330 1516L693 1516Q754 1471 812 1416L1077 1505L1134 1362L929 1294Q1053 1148 1117.5 971.5Q1182 795 1182 604Q1182 321 1034 152Q886 -17 638 -17ZM645 843Q530 843 463 759.5Q396 676 396 534Q396 392 463 309Q530 226 645 226Q761 226 828 309Q895 392 895 534Q895 675 827 759Q759 843 645 843Z" />
<glyph glyph-name="ntilde" unicode="&#xf1;" horiz-adv-x="1285" d="M146 0L146 1103L428 1103L428 926L446 926Q485 1021 568.5 1074Q652 1127 772 1127Q955 1127 1052 1019.5Q1149 912 1149 713L1149 0L858 0L858 644Q858 876 655 876Q554 876 495.5 810.5Q437 745 437 636L437 0ZM806 1253Q764 1253 727 1268Q690 1283 664.5 1304Q639 1325 616.5 1346Q594 1367 571.5 1382Q549 1397 528 1397Q442 1397 440 1256L253 1256Q253 1401 324.5 1489Q396 1577 514 1577Q556 1577 593 1562Q630 1547 655.5 1526Q681 1505 703.5 1484Q726 1463 748.5 1448Q771 1433 792 1433Q879 1433 880 1571L1067 1571Q1067 1427 995.5 1340Q924 1253 806 1253Z" />
<glyph glyph-name="ograve" unicode="&#xf2;" horiz-adv-x="1269" d="M1033.5 129Q1033.5 129 961.25 52.5Q889 -24 635 -24Q381 -24 236.5 129Q92 282 92 552Q92 820 237.5 973.5Q383 1127 635 1127Q887 1127 1032.5 973.5Q1178 820 1178 552Q1178 282 1033.5 129ZM635 214Q751 214 815 302.5Q879 391 879 552Q879 711 814.5 800Q750 889 635 889Q519 889 455 800Q391 711 391 552Q391 391 454.5 302.5Q518 214 635 214ZM794 1281L525 1281L238 1634L547 1634Z" />
<glyph glyph-name="oacute" unicode="&#xf3;" horiz-adv-x="1269" d="M1033.5 129Q1033.5 129 961.25 52.5Q889 -24 635 -24Q381 -24 236.5 129Q92 282 92 552Q92 820 237.5 973.5Q383 1127 635 1127Q887 1127 1032.5 973.5Q1178 820 1178 552Q1178 282 1033.5 129ZM635 214Q751 214 815 302.5Q879 391 879 552Q879 711 814.5 800Q750 889 635 889Q519 889 455 800Q391 711 391 552Q391 391 454.5 302.5Q518 214 635 214ZM749 1281L480 1281L727 1634L1036 1634Z" />
<glyph glyph-name="ocircumflex" unicode="&#xf4;" horiz-adv-x="1269" d="M1033.5 129Q1033.5 129 961.25 52.5Q889 -24 635 -24Q381 -24 236.5 129Q92 282 92 552Q92 820 237.5 973.5Q383 1127 635 1127Q887 1127 1032.5 973.5Q1178 820 1178 552Q1178 282 1033.5 129ZM635 214Q751 214 815 302.5Q879 391 879 552Q879 711 814.5 800Q750 889 635 889Q519 889 455 800Q391 711 391 552Q391 391 454.5 302.5Q518 214 635 214ZM780 1605L1055 1251L792 1251L644 1460L626 1460L477 1251L214 1251L489 1605Z" />
<glyph glyph-name="otilde" unicode="&#xf5;" horiz-adv-x="1269" d="M1033.5 129Q1033.5 129 961.25 52.5Q889 -24 635 -24Q381 -24 236.5 129Q92 282 92 552Q92 820 237.5 973.5Q383 1127 635 1127Q887 1127 1032.5 973.5Q1178 820 1178 552Q1178 282 1033.5 129ZM635 214Q751 214 815 302.5Q879 391 879 552Q879 711 814.5 800Q750 889 635 889Q519 889 455 800Q391 711 391 552Q391 391 454.5 302.5Q518 214 635 214ZM786 1253Q744 1253 707 1268Q670 1283 644.5 1304Q619 1325 596.5 1346Q574 1367 551.5 1382Q529 1397 508 1397Q422 1397 420 1256L233 1256Q233 1401 304.5 1489Q376 1577 494 1577Q536 1577 573 1562Q610 1547 635.5 1526Q661 1505 683.5 1484Q706 1463 728.5 1448Q751 1433 772 1433Q859 1433 860 1571L1047 1571Q1047 1427 975.5 1340Q904 1253 786 1253Z" />
<glyph glyph-name="odieresis" unicode="&#xf6;" horiz-adv-x="1269" d="M1033.5 129Q1033.5 129 961.25 52.5Q889 -24 635 -24Q381 -24 236.5 129Q92 282 92 552Q92 820 237.5 973.5Q383 1127 635 1127Q887 1127 1032.5 973.5Q1178 820 1178 552Q1178 282 1033.5 129ZM635 214Q751 214 815 302.5Q879 391 879 552Q879 711 814.5 800Q750 889 635 889Q519 889 455 800Q391 711 391 552Q391 391 454.5 302.5Q518 214 635 214ZM512 1294Q512 1294 490 1272.5Q468 1251 401 1251Q334 1251 290 1294Q246 1337 246 1403Q246 1469 289.5 1511.5Q333 1554 401 1554Q469 1554 512.5 1511.5Q556 1469 556 1403Q556 1337 512 1294ZM869 1251Q802 1251 758 1294Q714 1337 714 1403Q714 1469 758 1511.5Q802 1554 869 1554Q937 1554 981 1511.5Q1025 1469 1025 1403Q1025 1337 981 1294Q937 1251 869 1251Z" />
<glyph glyph-name="divide" unicode="&#xf7;" horiz-adv-x="1415" d="M828.5 860Q828.5 860 805.25 837.5Q782 815 708 815Q634 815 587.5 860Q541 905 541 977Q541 1049 587.5 1093.5Q634 1138 708 1138Q782 1138 828.5 1093.5Q875 1049 875 977Q875 905 828.5 860ZM828.5 75Q828.5 75 805.25 52.5Q782 30 708 30Q634 30 587.5 75Q541 120 541 192Q541 264 587.5 309Q634 354 708 354Q782 354 828.5 309Q875 264 875 192Q875 120 828.5 75ZM1248 472L168 472L168 697L1248 697Z" />
<glyph glyph-name="oslash" unicode="&#xf8;" horiz-adv-x="1269" d="M841 755L521 242Q570 214 635 214Q751 214 815 302.5Q879 391 879 552Q879 673 841 755ZM436 333L760 853Q708 889 635 889Q519 889 455 800Q391 711 391 552Q391 416 436 333ZM1065 1114L998 1007Q1178 852 1178 552Q1178 282 1033.5 129Q889 -24 635 -24Q496 -24 386 24L325 -73L222 -10L282 86Q92 239 92 552Q92 820 237.5 973.5Q383 1127 635 1127Q782 1127 897 1072L959 1172Z" />
<glyph glyph-name="ugrave" unicode="&#xf9;" horiz-adv-x="1290" d="M1144 1103L1144 0L862 0L862 177L844 177Q762 -24 522 -24Q343 -24 239.5 84.5Q136 193 136 384L136 1103L427 1103L427 459Q427 229 630 229Q737 229 795 292Q853 355 853 467L853 1103ZM799 1281L530 1281L243 1634L552 1634Z" />
<glyph glyph-name="uacute" unicode="&#xfa;" horiz-adv-x="1290" d="M1144 1103L1144 0L862 0L862 177L844 177Q762 -24 522 -24Q343 -24 239.5 84.5Q136 193 136 384L136 1103L427 1103L427 459Q427 229 630 229Q737 229 795 292Q853 355 853 467L853 1103ZM754 1281L485 1281L732 1634L1041 1634Z" />
<glyph glyph-name="ucircumflex" unicode="&#xfb;" horiz-adv-x="1290" d="M1144 1103L1144 0L862 0L862 177L844 177Q762 -24 522 -24Q343 -24 239.5 84.5Q136 193 136 384L136 1103L427 1103L427 459Q427 229 630 229Q737 229 795 292Q853 355 853 467L853 1103ZM785 1605L1060 1251L797 1251L649 1460L631 1460L482 1251L219 1251L494 1605Z" />
<glyph glyph-name="udieresis" unicode="&#xfc;" horiz-adv-x="1290" d="M1144 1103L1144 0L862 0L862 177L844 177Q762 -24 522 -24Q343 -24 239.5 84.5Q136 193 136 384L136 1103L427 1103L427 459Q427 229 630 229Q737 229 795 292Q853 355 853 467L853 1103ZM517 1294Q517 1294 495 1272.5Q473 1251 406 1251Q339 1251 295 1294Q251 1337 251 1403Q251 1469 294.5 1511.5Q338 1554 406 1554Q474 1554 517.5 1511.5Q561 1469 561 1403Q561 1337 517 1294ZM874 1251Q807 1251 763 1294Q719 1337 719 1403Q719 1469 763 1511.5Q807 1554 874 1554Q942 1554 986 1511.5Q1030 1469 1030 1403Q1030 1337 986 1294Q942 1251 874 1251Z" />
<glyph glyph-name="yacute" unicode="&#xfd;" horiz-adv-x="1223" d="M283 -401Q190 -401 172 -398L172 -164Q182 -166 238 -166Q321 -166 368 -137.5Q415 -109 433 -47L443 -7L56 1103L377 1103L609 267L627 267L859 1103L1167 1103L787 -17Q717 -229 603.5 -315Q490 -401 283 -401ZM730 1281L461 1281L708 1634L1017 1634Z" />
<glyph glyph-name="thorn" unicode="&#xfe;" horiz-adv-x="1339" d="M790 1121Q1000 1121 1119 970Q1238 819 1238 552Q1238 286 1119 134.5Q1000 -17 793 -17Q675 -17 588 32Q501 81 460 169L442 169L442 -345L151 -345L151 1507L438 1507L438 922L456 922Q501 1015 589 1068Q677 1121 790 1121ZM689 226Q807 226 873 312.5Q939 399 939 552Q939 704 872.5 790.5Q806 877 690 877Q574 877 506.5 789.5Q439 702 439 551Q439 400 506 313Q573 226 689 226Z" />
<glyph glyph-name="ydieresis" unicode="&#xff;" horiz-adv-x="1223" d="M283 -401Q190 -401 172 -398L172 -164Q182 -166 238 -166Q321 -166 368 -137.5Q415 -109 433 -47L443 -7L56 1103L377 1103L609 267L627 267L859 1103L1167 1103L787 -17Q717 -229 603.5 -315Q490 -401 283 -401ZM493 1294Q493 1294 471 1272.5Q449 1251 382 1251Q315 1251 271 1294Q227 1337 227 1403Q227 1469 270.5 1511.5Q314 1554 382 1554Q450 1554 493.5 1511.5Q537 1469 537 1403Q537 1337 493 1294ZM850 1251Q783 1251 739 1294Q695 1337 695 1403Q695 1469 739 1511.5Q783 1554 850 1554Q918 1554 962 1511.5Q1006 1469 1006 1403Q1006 1337 962 1294Q918 1251 850 1251Z" />
<glyph glyph-name="Amacron" unicode="&#x0100;" horiz-adv-x="1500" d="M1102 0L993 344L486 344L375 0L72 0L573 1443L928 1443L1429 0ZM732 1143L551 577L929 577L750 1143ZM1123 1813L1123 1632L377 1632L377 1813Z" />
<glyph glyph-name="amacron" unicode="&#x0101;" horiz-adv-x="1208" d="M544 202Q645 202 713 259Q781 316 781 400L781 481L558 467Q372 454 372 334Q372 273 419.5 237.5Q467 202 544 202ZM448 -17Q288 -17 187.5 74Q87 165 87 315Q87 464 197.5 549.5Q308 635 514 647L781 663L781 753Q781 822 733 859.5Q685 897 595 897Q433 897 396 795L128 795Q142 948 272.5 1037.5Q403 1127 611 1127Q829 1127 948.5 1029Q1068 931 1068 753L1068 0L786 0L786 144L768 144Q725 68 640 25.5Q555 -17 448 -17ZM979 1496L979 1316L244 1316L244 1496Z" />
<glyph glyph-name="Abreve" unicode="&#x0102;" horiz-adv-x="1500" d="M1102 0L993 344L486 344L375 0L72 0L573 1443L928 1443L1429 0ZM732 1143L551 577L929 577L750 1143ZM350 1915L558 1915Q560 1840 611.5 1795.5Q663 1751 750 1751Q837 1751 888.5 1795.5Q940 1840 942 1915L1150 1915Q1150 1765 1041.5 1672Q933 1579 750 1579Q567 1579 458.5 1672Q350 1765 350 1915Z" />
<glyph glyph-name="abreve" unicode="&#x0103;" horiz-adv-x="1208" d="M544 202Q645 202 713 259Q781 316 781 400L781 481L558 467Q372 454 372 334Q372 273 419.5 237.5Q467 202 544 202ZM448 -17Q288 -17 187.5 74Q87 165 87 315Q87 464 197.5 549.5Q308 635 514 647L781 663L781 753Q781 822 733 859.5Q685 897 595 897Q433 897 396 795L128 795Q142 948 272.5 1037.5Q403 1127 611 1127Q829 1127 948.5 1029Q1068 931 1068 753L1068 0L786 0L786 144L768 144Q725 68 640 25.5Q555 -17 448 -17ZM211 1602L418 1602Q420 1521 471 1472.5Q522 1424 610 1424Q698 1424 749 1472.5Q800 1521 802 1602L1010 1602Q1010 1446 901.5 1348.5Q793 1251 610 1251Q427 1251 319 1348.5Q211 1446 211 1602Z" />
<glyph glyph-name="Aogonek" unicode="&#x0104;" horiz-adv-x="1500" d="M732 1143L551 577L929 577L750 1143ZM1359 -445Q1305 -466 1221 -466Q1098 -466 1022 -403Q946 -340 946 -242Q946 -173 990 -109Q1034 -45 1104 -7L993 344L486 344L375 0L72 0L573 1443L928 1443L1429 0L1379 -6Q1298 -24 1235 -75.5Q1172 -127 1172 -190Q1172 -235 1204 -260.5Q1236 -286 1290 -286Q1337 -286 1359 -278Z" />
<glyph glyph-name="aogonek" unicode="&#x0105;" horiz-adv-x="1208" d="M544 202Q645 202 713 259Q781 316 781 400L781 481L558 467Q372 454 372 334Q372 274 419 238Q466 202 544 202ZM1032 -445Q975 -466 894 -466Q772 -466 695.5 -403.5Q619 -341 619 -242Q619 -169 666 -104.5Q713 -40 786 -6L786 144L768 144Q725 68 640 25.5Q555 -17 448 -17Q287 -17 187 74.5Q87 166 87 315Q87 464 197 549.5Q307 635 514 647L781 663L781 753Q781 822 732.5 859.5Q684 897 595 897Q433 897 396 795L128 795Q142 948 272.5 1037.5Q403 1127 611 1127Q828 1127 948 1029Q1068 931 1068 753L1068 0L1032 -7Q951 -28 898 -78.5Q845 -129 845 -190Q845 -233 876 -259.5Q907 -286 963 -286Q1013 -286 1032 -278Z" />
<glyph glyph-name="Cacute" unicode="&#x0106;" horiz-adv-x="1518" d="M788 -37Q474 -37 292.5 166.5Q111 370 111 722Q111 1074 292.5 1277Q474 1480 788 1480Q1044 1480 1220.5 1327.5Q1397 1175 1414 939L1120 939Q1098 1064 1007.5 1139Q917 1214 788 1214Q618 1214 519 1082Q420 950 420 722Q420 494 519 361.5Q618 229 789 229Q919 229 1009 300Q1099 371 1121 490L1415 490Q1396 256 1222.5 109.5Q1049 -37 788 -37ZM925 1591L647 1591L924 1909L1239 1909Z" />
<glyph glyph-name="cacute" unicode="&#x0107;" horiz-adv-x="1203" d="M1122 714L850 714Q835 795 778.5 841.5Q722 888 631 888Q513 888 449.5 802Q386 716 386 554Q386 390 449.5 302.5Q513 215 631 215Q721 215 777.5 258Q834 301 850 382L1122 382Q1104 195 974 85.5Q844 -24 631 -24Q373 -24 232.5 126.5Q92 277 92 554Q92 829 232 978Q372 1127 631 1127Q847 1127 975.5 1016Q1104 905 1122 714ZM744 1281L475 1281L722 1634L1031 1634Z" />
<glyph glyph-name="Ccircumflex" unicode="&#x0108;" horiz-adv-x="1518" d="M788 -37Q474 -37 292.5 166.5Q111 370 111 722Q111 1074 292.5 1277Q474 1480 788 1480Q1044 1480 1220.5 1327.5Q1397 1175 1414 939L1120 939Q1098 1064 1007.5 1139Q917 1214 788 1214Q618 1214 519 1082Q420 950 420 722Q420 494 519 361.5Q618 229 789 229Q919 229 1009 300Q1099 371 1121 490L1415 490Q1396 256 1222.5 109.5Q1049 -37 788 -37ZM652 1926L924 1926L1208 1591L943 1591L797 1778L779 1778L633 1591L368 1591Z" />
<glyph glyph-name="ccircumflex" unicode="&#x0109;" horiz-adv-x="1203" d="M1122 714L850 714Q835 795 778.5 841.5Q722 888 631 888Q513 888 449.5 802Q386 716 386 554Q386 390 449.5 302.5Q513 215 631 215Q721 215 777.5 258Q834 301 850 382L1122 382Q1104 195 974 85.5Q844 -24 631 -24Q373 -24 232.5 126.5Q92 277 92 554Q92 829 232 978Q372 1127 631 1127Q847 1127 975.5 1016Q1104 905 1122 714ZM775 1605L1050 1251L787 1251L639 1460L621 1460L472 1251L209 1251L484 1605Z" />
<glyph glyph-name="Cdotaccent" unicode="&#x010a;" horiz-adv-x="1518" d="M788 -37Q474 -37 292.5 166.5Q111 370 111 722Q111 1074 292.5 1277Q474 1480 788 1480Q1044 1480 1220.5 1327.5Q1397 1175 1414 939L1120 939Q1098 1064 1007.5 1139Q917 1214 788 1214Q618 1214 519 1082Q420 950 420 722Q420 494 519 361.5Q618 229 789 229Q919 229 1009 300Q1099 371 1121 490L1415 490Q1396 256 1222.5 109.5Q1049 -37 788 -37ZM901 1625Q901 1625 879 1602.5Q857 1580 788 1580Q719 1580 674.5 1625Q630 1670 630 1738Q630 1806 674.5 1851Q719 1896 788 1896Q857 1896 901 1851Q945 1806 945 1738Q945 1670 901 1625Z" />
<glyph glyph-name="cdotaccent" unicode="&#x010b;" horiz-adv-x="1203" d="M1122 714L850 714Q835 795 778.5 841.5Q722 888 631 888Q513 888 449.5 802Q386 716 386 554Q386 390 449.5 302.5Q513 215 631 215Q721 215 777.5 258Q834 301 850 382L1122 382Q1104 195 974 85.5Q844 -24 631 -24Q373 -24 232.5 126.5Q92 277 92 554Q92 829 232 978Q372 1127 631 1127Q847 1127 975.5 1016Q1104 905 1122 714ZM745.5 1323.5Q745.5 1323.5 722.75 1300.75Q700 1278 630 1278Q560 1278 514.5 1323.5Q469 1369 469 1438Q469 1507 514.5 1553Q560 1599 630 1599Q700 1599 745.5 1553Q791 1507 791 1438Q791 1369 745.5 1323.5Z" />
<glyph glyph-name="Ccaron" unicode="&#x010c;" horiz-adv-x="1518" d="M788 -37Q474 -37 292.5 166.5Q111 370 111 722Q111 1074 292.5 1277Q474 1480 788 1480Q1044 1480 1220.5 1327.5Q1397 1175 1414 939L1120 939Q1098 1064 1007.5 1139Q917 1214 788 1214Q618 1214 519 1082Q420 950 420 722Q420 494 519 361.5Q618 229 789 229Q919 229 1009 300Q1099 371 1121 490L1415 490Q1396 256 1222.5 109.5Q1049 -37 788 -37ZM661 1591L380 1909L633 1909L778 1736L798 1736L943 1909L1196 1909L915 1591Z" />
<glyph glyph-name="ccaron" unicode="&#x010d;" horiz-adv-x="1203" d="M1122 714L850 714Q835 795 778.5 841.5Q722 888 631 888Q513 888 449.5 802Q386 716 386 554Q386 390 449.5 302.5Q513 215 631 215Q721 215 777.5 258Q834 301 850 382L1122 382Q1104 195 974 85.5Q844 -24 631 -24Q373 -24 232.5 126.5Q92 277 92 554Q92 829 232 978Q372 1127 631 1127Q847 1127 975.5 1016Q1104 905 1122 714ZM775 1251L484 1251L209 1605L472 1605L621 1396L639 1396L787 1605L1050 1605Z" />
<glyph glyph-name="Dcaron" unicode="&#x010e;" horiz-adv-x="1530" d="M175 1444L743 1444Q1065 1444 1242.5 1257.5Q1420 1071 1420 732Q1420 381 1243.5 190.5Q1067 0 743 0L175 0ZM477 1186L477 258L695 258Q896 258 1004 378.5Q1112 499 1112 727Q1112 945 1002 1065.5Q892 1186 695 1186ZM512 1590L231 1908L484 1908L629 1735L649 1735L794 1908L1047 1908L766 1590Z" />
<glyph glyph-name="dcaron" unicode="&#x010f;" horiz-adv-x="1535" d="M1314 1524L1565 1524L1515 1019L1314 1019ZM541 -17Q333 -17 212.5 136Q92 289 92 553Q92 816 212.5 968.5Q333 1121 541 1121Q653 1121 740 1069.5Q827 1018 870 927L887 927L887 1524L1178 1524L1178 0L896 0L896 173L878 173Q834 84 745 33.5Q656 -17 541 -17ZM823 789.5Q823 789.5 789.5 833.25Q756 877 640 877Q524 877 457.5 790.5Q391 704 391 552Q391 399 457 312.5Q523 226 640 226Q757 226 823.5 312.5Q890 399 890 551Q890 702 823 789.5Z" />
<glyph glyph-name="Dcroat" unicode="&#x0110;" horiz-adv-x="1533" d="M480 258L698 258Q899 258 1007 378.5Q1115 499 1115 727Q1115 945 1005 1065.5Q895 1186 698 1186L480 1186L480 845L705 845L705 618L480 618ZM178 1444L746 1444Q1068 1444 1245.5 1257.5Q1423 1071 1423 732Q1423 381 1246.5 190.5Q1070 0 746 0L178 0L178 618L50 618L50 845L178 845Z" />
<glyph glyph-name="dcroat" unicode="&#x0111;" horiz-adv-x="1346" d="M469 312.5Q469 312.5 502 269.25Q535 226 652 226Q769 226 835.5 312.5Q902 399 902 551Q902 702 835 789.5Q768 877 652 877Q536 877 469.5 790.5Q403 704 403 552Q403 399 469 312.5ZM1334 1408L1334 1255L1190 1255L1190 0L908 0L908 173L890 173Q846 84 757 33.5Q668 -17 553 -17Q345 -17 224.5 136Q104 289 104 553Q104 816 224.5 968.5Q345 1121 553 1121Q665 1121 752 1069.5Q839 1018 882 927L899 927L899 1255L666 1255L666 1408L899 1408L899 1524L1190 1524L1190 1408Z" />
<glyph glyph-name="Emacron" unicode="&#x0112;" horiz-adv-x="1274" d="M1131 258L1131 0L175 0L175 1443L1131 1443L1131 1185L477 1185L477 848L1094 848L1094 609L477 609L477 258ZM1026 1813L1026 1632L280 1632L280 1813Z" />
<glyph glyph-name="emacron" unicode="&#x0113;" horiz-adv-x="1231" d="M623 904Q522 904 456.5 839Q391 774 383 667L853 667Q848 777 786.5 840.5Q725 904 623 904ZM859 314L1130 314Q1097 157 962.5 66.5Q828 -24 626 -24Q374 -24 233 126.5Q92 277 92 546Q92 815 234 971Q376 1127 622 1127Q866 1127 1002.5 980Q1139 833 1139 570L1139 481L382 481L382 466Q385 343 452.5 271.5Q520 200 634 200Q720 200 778 229.5Q836 259 859 314ZM990 1496L990 1316L255 1316L255 1496Z" />
<glyph glyph-name="Ebreve" unicode="&#x0114;" horiz-adv-x="1274" d="M1131 258L1131 0L175 0L175 1443L1131 1443L1131 1185L477 1185L477 848L1094 848L1094 609L477 609L477 258ZM253 1915L461 1915Q463 1840 514.5 1795.5Q566 1751 653 1751Q740 1751 791.5 1795.5Q843 1840 845 1915L1053 1915Q1053 1765 944.5 1672Q836 1579 653 1579Q470 1579 361.5 1672Q253 1765 253 1915Z" />
<glyph glyph-name="ebreve" unicode="&#x0115;" horiz-adv-x="1231" d="M623 904Q522 904 456.5 839Q391 774 383 667L853 667Q848 777 786.5 840.5Q725 904 623 904ZM859 314L1130 314Q1097 157 962.5 66.5Q828 -24 626 -24Q374 -24 233 126.5Q92 277 92 546Q92 815 234 971Q376 1127 622 1127Q866 1127 1002.5 980Q1139 833 1139 570L1139 481L382 481L382 466Q385 343 452.5 271.5Q520 200 634 200Q720 200 778 229.5Q836 259 859 314ZM222 1602L429 1602Q431 1521 482 1472.5Q533 1424 621 1424Q709 1424 760 1472.5Q811 1521 813 1602L1021 1602Q1021 1446 912.5 1348.5Q804 1251 621 1251Q438 1251 330 1348.5Q222 1446 222 1602Z" />
<glyph glyph-name="Edotaccent" unicode="&#x0116;" horiz-adv-x="1274" d="M1131 258L1131 0L175 0L175 1443L1131 1443L1131 1185L477 1185L477 848L1094 848L1094 609L477 609L477 258ZM766 1624Q766 1624 744 1601.5Q722 1579 653 1579Q584 1579 539.5 1624Q495 1669 495 1737Q495 1805 539.5 1850Q584 1895 653 1895Q722 1895 766 1850Q810 1805 810 1737Q810 1669 766 1624Z" />
<glyph glyph-name="edotaccent" unicode="&#x0117;" horiz-adv-x="1231" d="M623 904Q522 904 456.5 839Q391 774 383 667L853 667Q848 777 786.5 840.5Q725 904 623 904ZM859 314L1130 314Q1097 157 962.5 66.5Q828 -24 626 -24Q374 -24 233 126.5Q92 277 92 546Q92 815 234 971Q376 1127 622 1127Q866 1127 1002.5 980Q1139 833 1139 570L1139 481L382 481L382 466Q385 343 452.5 271.5Q520 200 634 200Q720 200 778 229.5Q836 259 859 314ZM737.5 1323.5Q737.5 1323.5 714.75 1300.75Q692 1278 622 1278Q552 1278 506.5 1323.5Q461 1369 461 1438Q461 1507 506.5 1553Q552 1599 622 1599Q692 1599 737.5 1553Q783 1507 783 1438Q783 1369 737.5 1323.5Z" />
<glyph glyph-name="Eogonek" unicode="&#x0118;" horiz-adv-x="1274" d="M175 0L175 1443L1131 1443L1131 1185L477 1185L477 848L1094 848L1094 609L477 609L477 258L1131 258L1131 5L1085 -6Q1010 -26 951.5 -77Q893 -128 893 -190Q893 -235 925 -260.5Q957 -286 1011 -286Q1060 -286 1080 -278L1080 -445Q1026 -466 942 -466Q820 -466 744 -403Q668 -340 668 -242Q668 -175 707 -114.5Q746 -54 809 -18L809 0Z" />
<glyph glyph-name="eogonek" unicode="&#x0119;" horiz-adv-x="1231" d="M844 -466Q722 -466 646 -403Q570 -340 570 -242Q570 -180 605.5 -124.5Q641 -69 701 -34L701 -16Q675 -24 626 -24Q374 -24 233 126.5Q92 277 92 546Q92 815 234 971Q376 1127 622 1127Q866 1127 1002.5 980Q1139 833 1139 570L1139 481L382 481L382 466Q385 343 452.5 271.5Q520 200 634 200Q720 200 778 229.5Q836 259 859 314L1130 314Q1120 250 1071 172.5Q1022 95 954 40Q872 -26 833.5 -79.5Q795 -133 795 -185Q795 -233 827 -259.5Q859 -286 913 -286Q962 -286 982 -278L982 -445Q928 -466 844 -466ZM623 904Q522 904 456.5 839Q391 774 383 667L853 667Q848 777 786.5 840.5Q725 904 623 904Z" />
<glyph glyph-name="Ecaron" unicode="&#x011a;" horiz-adv-x="1274" d="M1131 258L1131 0L175 0L175 1443L1131 1443L1131 1185L477 1185L477 848L1094 848L1094 609L477 609L477 258ZM526 1590L245 1908L498 1908L643 1735L663 1735L808 1908L1061 1908L780 1590Z" />
<glyph glyph-name="ecaron" unicode="&#x011b;" horiz-adv-x="1231" d="M623 904Q522 904 456.5 839Q391 774 383 667L853 667Q848 777 786.5 840.5Q725 904 623 904ZM859 314L1130 314Q1097 157 962.5 66.5Q828 -24 626 -24Q374 -24 233 126.5Q92 277 92 546Q92 815 234 971Q376 1127 622 1127Q866 1127 1002.5 980Q1139 833 1139 570L1139 481L382 481L382 466Q385 343 452.5 271.5Q520 200 634 200Q720 200 778 229.5Q836 259 859 314ZM767 1251L476 1251L201 1605L464 1605L613 1396L631 1396L779 1605L1042 1605Z" />
<glyph glyph-name="Gcircumflex" unicode="&#x011c;" horiz-adv-x="1557" d="M1443 589Q1443 300 1271 131.5Q1099 -37 803 -37Q481 -37 296 166Q111 369 111 723Q111 1072 296 1276Q481 1480 796 1480Q1052 1480 1225 1344Q1398 1208 1430 983L1130 983Q1096 1093 1009 1153.5Q922 1214 796 1214Q621 1214 520.5 1083.5Q420 953 420 726Q420 495 524.5 362Q629 229 808 229Q956 229 1050 309Q1144 389 1149 520L1150 546L837 546L837 773L1443 773ZM660 1926L932 1926L1216 1591L951 1591L805 1778L787 1778L641 1591L376 1591Z" />
<glyph glyph-name="gcircumflex" unicode="&#x011d;" horiz-adv-x="1322" d="M453 330.5Q453 330.5 485.5 288.25Q518 246 636 246Q754 246 821 330.5Q888 415 888 561Q888 707 820.5 792Q753 877 636 877Q519 877 453.5 792.5Q388 708 388 562Q388 415 453 330.5ZM632 -418Q414 -418 277.5 -329.5Q141 -241 127 -95L415 -95Q426 -146 485 -176Q544 -206 638 -206Q755 -206 820 -154.5Q885 -103 885 -10L885 194L867 194Q773 16 535 16Q329 16 209 163.5Q89 311 89 561Q89 818 210.5 969.5Q332 1121 541 1121Q653 1121 742.5 1069Q832 1017 876 926L894 926L894 1103L1176 1103L1176 4Q1176 -190 1029 -304Q882 -418 632 -418ZM789 1605L1064 1251L801 1251L653 1460L635 1460L486 1251L223 1251L498 1605Z" />
<glyph glyph-name="Gbreve" unicode="&#x011e;" horiz-adv-x="1557" d="M1443 589Q1443 300 1271 131.5Q1099 -37 803 -37Q481 -37 296 166Q111 369 111 723Q111 1072 296 1276Q481 1480 796 1480Q1052 1480 1225 1344Q1398 1208 1430 983L1130 983Q1096 1093 1009 1153.5Q922 1214 796 1214Q621 1214 520.5 1083.5Q420 953 420 726Q420 495 524.5 362Q629 229 808 229Q956 229 1050 309Q1144 389 1149 520L1150 546L837 546L837 773L1443 773ZM396 1916L604 1916Q606 1841 657.5 1796.5Q709 1752 796 1752Q883 1752 934.5 1796.5Q986 1841 988 1916L1196 1916Q1196 1766 1087.5 1673Q979 1580 796 1580Q613 1580 504.5 1673Q396 1766 396 1916Z" />
<glyph glyph-name="gbreve" unicode="&#x011f;" horiz-adv-x="1322" d="M453 330.5Q453 330.5 485.5 288.25Q518 246 636 246Q754 246 821 330.5Q888 415 888 561Q888 707 820.5 792Q753 877 636 877Q519 877 453.5 792.5Q388 708 388 562Q388 415 453 330.5ZM632 -418Q414 -418 277.5 -329.5Q141 -241 127 -95L415 -95Q426 -146 485 -176Q544 -206 638 -206Q755 -206 820 -154.5Q885 -103 885 -10L885 194L867 194Q773 16 535 16Q329 16 209 163.5Q89 311 89 561Q89 818 210.5 969.5Q332 1121 541 1121Q653 1121 742.5 1069Q832 1017 876 926L894 926L894 1103L1176 1103L1176 4Q1176 -190 1029 -304Q882 -418 632 -418ZM244 1602L451 1602Q453 1521 504 1472.5Q555 1424 643 1424Q731 1424 782 1472.5Q833 1521 835 1602L1043 1602Q1043 1446 934.5 1348.5Q826 1251 643 1251Q460 1251 352 1348.5Q244 1446 244 1602Z" />
<glyph glyph-name="Gdotaccent" unicode="&#x0120;" horiz-adv-x="1557" d="M1443 589Q1443 300 1271 131.5Q1099 -37 803 -37Q481 -37 296 166Q111 369 111 723Q111 1072 296 1276Q481 1480 796 1480Q1052 1480 1225 1344Q1398 1208 1430 983L1130 983Q1096 1093 1009 1153.5Q922 1214 796 1214Q621 1214 520.5 1083.5Q420 953 420 726Q420 495 524.5 362Q629 229 808 229Q956 229 1050 309Q1144 389 1149 520L1150 546L837 546L837 773L1443 773ZM909 1625Q909 1625 887 1602.5Q865 1580 796 1580Q727 1580 682.5 1625Q638 1670 638 1738Q638 1806 682.5 1851Q727 1896 796 1896Q865 1896 909 1851Q953 1806 953 1738Q953 1670 909 1625Z" />
<glyph glyph-name="gdotaccent" unicode="&#x0121;" horiz-adv-x="1322" d="M453 330.5Q453 330.5 485.5 288.25Q518 246 636 246Q754 246 821 330.5Q888 415 888 561Q888 707 820.5 792Q753 877 636 877Q519 877 453.5 792.5Q388 708 388 562Q388 415 453 330.5ZM632 -418Q414 -418 277.5 -329.5Q141 -241 127 -95L415 -95Q426 -146 485 -176Q544 -206 638 -206Q755 -206 820 -154.5Q885 -103 885 -10L885 194L867 194Q773 16 535 16Q329 16 209 163.5Q89 311 89 561Q89 818 210.5 969.5Q332 1121 541 1121Q653 1121 742.5 1069Q832 1017 876 926L894 926L894 1103L1176 1103L1176 4Q1176 -190 1029 -304Q882 -418 632 -418ZM759.5 1323.5Q759.5 1323.5 736.75 1300.75Q714 1278 644 1278Q574 1278 528.5 1323.5Q483 1369 483 1438Q483 1507 528.5 1553Q574 1599 644 1599Q714 1599 759.5 1553Q805 1507 805 1438Q805 1369 759.5 1323.5Z" />
<glyph glyph-name="Gcommaaccent" unicode="&#x0122;" horiz-adv-x="1557" d="M1443 589Q1443 300 1271 131.5Q1099 -37 803 -37Q481 -37 296 166Q111 369 111 723Q111 1072 296 1276Q481 1480 796 1480Q1052 1480 1225 1344Q1398 1208 1430 983L1130 983Q1096 1093 1009 1153.5Q922 1214 796 1214Q621 1214 520.5 1083.5Q420 953 420 726Q420 495 524.5 362Q629 229 808 229Q956 229 1050 309Q1144 389 1149 520L1150 546L837 546L837 773L1443 773ZM807 -509L549 -509L681 -151L973 -151Z" />
<glyph glyph-name="gcommaaccent" unicode="&#x0123;" horiz-adv-x="1322" d="M453 330.5Q453 330.5 485.5 288.25Q518 246 636 246Q754 246 821 330.5Q888 415 888 561Q888 707 820.5 792Q753 877 636 877Q519 877 453.5 792.5Q388 708 388 562Q388 415 453 330.5ZM632 -418Q414 -418 277.5 -329.5Q141 -241 127 -95L415 -95Q426 -146 485 -176Q544 -206 638 -206Q755 -206 820 -154.5Q885 -103 885 -10L885 194L867 194Q773 16 535 16Q329 16 209 163.5Q89 311 89 561Q89 818 210.5 969.5Q332 1121 541 1121Q653 1121 742.5 1069Q832 1017 876 926L894 926L894 1103L1176 1103L1176 4Q1176 -190 1029 -304Q882 -418 632 -418ZM669 1649L927 1649L795 1291L503 1291Z" />
<glyph glyph-name="Hcircumflex" unicode="&#x0124;" horiz-adv-x="1604" d="M1429 0L1127 0L1127 603L477 603L477 0L175 0L175 1443L477 1443L477 861L1127 861L1127 1443L1429 1443ZM666 1925L938 1925L1222 1590L957 1590L811 1777L793 1777L647 1590L382 1590Z" />
<glyph glyph-name="hcircumflex" unicode="&#x0125;" horiz-adv-x="1307" d="M156 0L156 1524L442 1524L442 922L460 922Q499 1017 585.5 1070.5Q672 1124 793 1124Q972 1124 1071.5 1016Q1171 908 1171 710L1171 0L880 0L880 641Q880 755 828 814Q776 873 677 873Q569 873 508 807.5Q447 742 447 633L447 0ZM163 2006L435 2006L719 1671L454 1671L308 1858L290 1858L144 1671L-121 1671Z" />
<glyph glyph-name="Hbar" unicode="&#x0126;" horiz-adv-x="1604" d="M1127 861L1127 1055L477 1055L477 861ZM1557 1261L1557 1055L1429 1055L1429 0L1127 0L1127 603L477 603L477 0L175 0L175 1055L47 1055L47 1261L175 1261L175 1443L477 1443L477 1261L1127 1261L1127 1443L1429 1443L1429 1261Z" />
<glyph glyph-name="hbar" unicode="&#x0127;" horiz-adv-x="1307" d="M442 922L460 922Q499 1017 585.5 1070.5Q672 1124 793 1124Q972 1124 1071.5 1016Q1171 908 1171 710L1171 0L880 0L880 641Q880 755 828 814Q776 873 677 873Q569 873 508 807.5Q447 742 447 633L447 0L156 0L156 1255L12 1255L12 1408L156 1408L156 1524L442 1524L442 1408L675 1408L675 1255L442 1255Z" />
<glyph glyph-name="Itilde" unicode="&#x0128;" horiz-adv-x="652" d="M477 0L175 0L175 1443L477 1443ZM472 1572Q430 1572 393 1587Q356 1602 330.5 1623Q305 1644 282.5 1665Q260 1686 237.5 1701Q215 1716 194 1716Q108 1716 106 1575L-81 1575Q-81 1720 -9.5 1808Q62 1896 180 1896Q222 1896 259 1881Q296 1866 321.5 1845Q347 1824 369.5 1803Q392 1782 414.5 1767Q437 1752 458 1752Q545 1752 546 1890L733 1890Q733 1746 661.5 1659Q590 1572 472 1572Z" />
<glyph glyph-name="itilde" unicode="&#x0129;" horiz-adv-x="587" d="M148 0L148 1103L439 1103L439 0ZM445 1253Q403 1253 366 1268Q329 1283 303.5 1304Q278 1325 255.5 1346Q233 1367 210.5 1382Q188 1397 167 1397Q81 1397 79 1256L-108 1256Q-108 1401 -36.5 1489Q35 1577 153 1577Q195 1577 232 1562Q269 1547 294.5 1526Q320 1505 342.5 1484Q365 1463 387.5 1448Q410 1433 431 1433Q518 1433 519 1571L706 1571Q706 1427 634.5 1340Q563 1253 445 1253Z" />
<glyph glyph-name="Imacron" unicode="&#x012a;" horiz-adv-x="652" d="M477 0L175 0L175 1443L477 1443ZM699 1813L699 1632L-47 1632L-47 1813Z" />
<glyph glyph-name="imacron" unicode="&#x012b;" horiz-adv-x="587" d="M148 0L148 1103L439 1103L439 0ZM607 1496L607 1316L-18 1316L-18 1496Z" />
<glyph glyph-name="Ibreve" unicode="&#x012c;" horiz-adv-x="652" d="M477 0L175 0L175 1443L477 1443ZM-74 1915L134 1915Q136 1840 187.5 1795.5Q239 1751 326 1751Q413 1751 464.5 1795.5Q516 1840 518 1915L726 1915Q726 1765 617.5 1672Q509 1579 326 1579Q143 1579 34.5 1672Q-74 1765 -74 1915Z" />
<glyph glyph-name="ibreve" unicode="&#x012d;" horiz-adv-x="587" d="M148 0L148 1103L439 1103L439 0ZM-106 1602L101 1602Q103 1521 154 1472.5Q205 1424 293 1424Q381 1424 432 1472.5Q483 1521 485 1602L693 1602Q693 1446 584.5 1348.5Q476 1251 293 1251Q110 1251 2 1348.5Q-106 1446 -106 1602Z" />
<glyph glyph-name="Iogonek" unicode="&#x012e;" horiz-adv-x="652" d="M175 -33L175 1443L477 1443L477 0L455 -6Q381 -34 332.5 -81Q284 -128 284 -185Q284 -231 316.5 -258.5Q349 -286 407 -286Q449 -286 476 -278L476 -445Q420 -466 333 -466Q212 -466 135.5 -403.5Q59 -341 59 -242Q59 -178 90 -123Q121 -68 175 -33Z" />
<glyph glyph-name="iogonek" unicode="&#x012f;" horiz-adv-x="587" d="M294 1257Q216 1257 169 1298Q122 1339 122 1404Q122 1470 169 1510.5Q216 1551 294 1551Q372 1551 419 1510.5Q466 1470 466 1404Q466 1339 418.5 1298Q371 1257 294 1257ZM148 -20L148 1103L439 1103L439 0L407 -6Q335 -31 290.5 -79Q246 -127 246 -185Q246 -232 279.5 -259Q313 -286 369 -286Q403 -286 438 -279L438 -445Q386 -466 303 -466Q174 -466 97.5 -402Q21 -338 21 -237Q21 -174 54 -117Q87 -60 148 -20Z" />
<glyph glyph-name="Idotaccent" unicode="&#x0130;" horiz-adv-x="652" d="M477 0L175 0L175 1443L477 1443ZM439 1624Q439 1624 417 1601.5Q395 1579 326 1579Q257 1579 212.5 1624Q168 1669 168 1737Q168 1805 212.5 1850Q257 1895 326 1895Q395 1895 439 1850Q483 1805 483 1737Q483 1669 439 1624Z" />
<glyph glyph-name="dotlessi" unicode="&#x0131;" horiz-adv-x="587" d="M148 0L148 1103L439 1103L439 0Z" />
<glyph glyph-name="IJ" unicode="&#x0132;" horiz-adv-x="1883" d="M477 0L175 0L175 1443L477 1443ZM728 424L1020 424Q1022 337 1074.5 285Q1127 233 1214 233Q1307 233 1356.5 288.5Q1406 344 1406 450L1406 1443L1708 1443L1708 448Q1708 216 1578.5 89.5Q1449 -37 1218 -37Q995 -37 861.5 88Q728 213 728 424Z" />
<glyph glyph-name="ij" unicode="&#x0133;" horiz-adv-x="1194" d="M148 0L148 1103L439 1103L439 0ZM294 1257Q216 1257 169 1298Q122 1339 122 1404Q122 1470 169 1510.5Q216 1551 294 1551Q372 1551 419 1510.5Q466 1470 466 1404Q466 1339 418.5 1298Q371 1257 294 1257ZM1036 1103L1036 -34Q1036 -203 937 -289.5Q838 -376 646 -376Q592 -376 568 -372L568 -149Q574 -150 605 -150Q681 -150 713 -121Q745 -92 745 -26L745 1103ZM891 1257Q813 1257 766 1298Q719 1339 719 1404Q719 1470 766 1510.5Q813 1551 891 1551Q969 1551 1016 1510.5Q1063 1470 1063 1404Q1063 1339 1015.5 1298Q968 1257 891 1257Z" />
<glyph glyph-name="Jcircumflex" unicode="&#x0134;" horiz-adv-x="1231" d="M76 424L368 424Q370 337 422.5 285Q475 233 562 233Q655 233 704.5 288.5Q754 344 754 450L754 1443L1056 1443L1056 448Q1056 216 926.5 89.5Q797 -37 566 -37Q343 -37 209.5 88Q76 213 76 424ZM769 1925L1041 1925L1325 1590L1060 1590L914 1777L896 1777L750 1590L485 1590Z" />
<glyph glyph-name="jcircumflex" unicode="&#x0135;" horiz-adv-x="587" d="M436 1103L436 -34Q436 -203 337 -289.5Q238 -376 46 -376Q-8 -376 -32 -372L-32 -149Q-26 -150 5 -150Q81 -150 113 -121Q145 -92 145 -26L145 1103ZM440 1605L715 1251L452 1251L304 1460L286 1460L137 1251L-126 1251L149 1605Z" />
<glyph glyph-name="Kcommaaccent" unicode="&#x0136;" horiz-adv-x="1453" d="M477 0L175 0L175 1443L477 1443L477 800L495 800L1028 1443L1364 1443L838 810L1401 0L1039 0L620 604L477 435ZM696 -509L438 -509L570 -151L862 -151Z" />
<glyph glyph-name="kcommaaccent" unicode="&#x0137;" horiz-adv-x="1232" d="M465 672L834 1103L1165 1103L745 630L1194 0L849 0L527 448L447 366L447 0L156 0L156 1524L447 1524L447 672ZM645 -509L387 -509L519 -151L811 -151Z" />
<glyph glyph-name="Lacute" unicode="&#x0139;" horiz-adv-x="1218" d="M1119 263L1119 0L175 0L175 1443L477 1443L477 263ZM463 1590L185 1590L462 1908L777 1908Z" />
<glyph glyph-name="lacute" unicode="&#x013a;" horiz-adv-x="603" d="M156 0L156 1524L447 1524L447 0ZM439 1671L161 1671L438 1989L753 1989Z" />
<glyph glyph-name="Lcommaaccent" unicode="&#x013b;" horiz-adv-x="1218" d="M1119 263L1119 0L175 0L175 1443L477 1443L477 263ZM636 -509L378 -509L510 -151L802 -151Z" />
<glyph glyph-name="lcommaaccent" unicode="&#x013c;" horiz-adv-x="603" d="M156 0L156 1524L447 1524L447 0ZM296 -509L38 -509L170 -151L462 -151Z" />
<glyph glyph-name="Lcaron" unicode="&#x013d;" horiz-adv-x="1218" d="M675 1443L921 1443L871 939L675 939ZM1119 263L1119 0L175 0L175 1443L477 1443L477 263Z" />
<glyph glyph-name="lcaron" unicode="&#x013e;" horiz-adv-x="804" d="M583 1524L834 1524L784 1019L583 1019ZM156 0L156 1524L447 1524L447 0Z" />
<glyph glyph-name="Lslash" unicode="&#x0141;" horiz-adv-x="1218" d="M477 263L1119 263L1119 0L175 0L175 661L23 583L23 788L175 866L175 1443L477 1443L477 1020L715 1142L715 937L477 815Z" />
<glyph glyph-name="lslash" unicode="&#x0142;" horiz-adv-x="603" d="M571 1094L571 889L447 823L447 0L156 0L156 668L32 602L32 807L156 873L156 1524L447 1524L447 1028Z" />
<glyph glyph-name="Nacute" unicode="&#x0143;" horiz-adv-x="1573" d="M464 0L175 0L175 1443L427 1443L1091 544L1109 544L1109 1443L1398 1443L1398 0L1148 0L482 903L464 903ZM920 1590L642 1590L919 1908L1234 1908Z" />
<glyph glyph-name="nacute" unicode="&#x0144;" horiz-adv-x="1285" d="M146 0L146 1103L428 1103L428 926L446 926Q485 1021 568.5 1074Q652 1127 772 1127Q955 1127 1052 1019.5Q1149 912 1149 713L1149 0L858 0L858 644Q858 876 655 876Q554 876 495.5 810.5Q437 745 437 636L437 0ZM769 1281L500 1281L747 1634L1056 1634Z" />
<glyph glyph-name="Ncommaaccent" unicode="&#x0145;" horiz-adv-x="1573" d="M464 0L175 0L175 1443L427 1443L1091 544L1109 544L1109 1443L1398 1443L1398 0L1148 0L482 903L464 903ZM777 -509L519 -509L651 -151L943 -151Z" />
<glyph glyph-name="ncommaaccent" unicode="&#x0146;" horiz-adv-x="1285" d="M146 0L146 1103L428 1103L428 926L446 926Q485 1021 568.5 1074Q652 1127 772 1127Q955 1127 1052 1019.5Q1149 912 1149 713L1149 0L858 0L858 644Q858 876 655 876Q554 876 495.5 810.5Q437 745 437 636L437 0ZM649 -509L391 -509L523 -151L815 -151Z" />
<glyph glyph-name="Ncaron" unicode="&#x0147;" horiz-adv-x="1573" d="M464 0L175 0L175 1443L427 1443L1091 544L1109 544L1109 1443L1398 1443L1398 0L1148 0L482 903L464 903ZM656 1590L375 1908L628 1908L773 1735L793 1735L938 1908L1191 1908L910 1590Z" />
<glyph glyph-name="ncaron" unicode="&#x0148;" horiz-adv-x="1285" d="M146 0L146 1103L428 1103L428 926L446 926Q485 1021 568.5 1074Q652 1127 772 1127Q955 1127 1052 1019.5Q1149 912 1149 713L1149 0L858 0L858 644Q858 876 655 876Q554 876 495.5 810.5Q437 745 437 636L437 0ZM800 1251L509 1251L234 1605L497 1605L646 1396L664 1396L812 1605L1075 1605Z" />
<glyph glyph-name="Omacron" unicode="&#x014c;" horiz-adv-x="1610" d="M806 1480Q1126 1480 1312.5 1276Q1499 1072 1499 722Q1499 371 1312.5 167Q1126 -37 806 -37Q485 -37 298 167Q111 371 111 722Q111 1072 299 1276Q487 1480 806 1480ZM1086.5 1081.5Q1086.5 1081.5 1034.25 1148.25Q982 1215 806 1215Q630 1215 525 1081.5Q420 948 420 722Q420 496 524.5 362Q629 228 806 228Q982 228 1086.5 362Q1191 496 1191 722Q1191 948 1086.5 1081.5ZM1179 1813L1179 1632L433 1632L433 1813Z" />
<glyph glyph-name="omacron" unicode="&#x014d;" horiz-adv-x="1269" d="M1033.5 129Q1033.5 129 961.25 52.5Q889 -24 635 -24Q381 -24 236.5 129Q92 282 92 552Q92 820 237.5 973.5Q383 1127 635 1127Q887 1127 1032.5 973.5Q1178 820 1178 552Q1178 282 1033.5 129ZM635 214Q751 214 815 302.5Q879 391 879 552Q879 711 814.5 800Q750 889 635 889Q519 889 455 800Q391 711 391 552Q391 391 454.5 302.5Q518 214 635 214ZM1003 1496L1003 1316L268 1316L268 1496Z" />
<glyph glyph-name="Obreve" unicode="&#x014e;" horiz-adv-x="1610" d="M806 1480Q1126 1480 1312.5 1276Q1499 1072 1499 722Q1499 371 1312.5 167Q1126 -37 806 -37Q485 -37 298 167Q111 371 111 722Q111 1072 299 1276Q487 1480 806 1480ZM1086.5 1081.5Q1086.5 1081.5 1034.25 1148.25Q982 1215 806 1215Q630 1215 525 1081.5Q420 948 420 722Q420 496 524.5 362Q629 228 806 228Q982 228 1086.5 362Q1191 496 1191 722Q1191 948 1086.5 1081.5ZM406 1915L614 1915Q616 1840 667.5 1795.5Q719 1751 806 1751Q893 1751 944.5 1795.5Q996 1840 998 1915L1206 1915Q1206 1765 1097.5 1672Q989 1579 806 1579Q623 1579 514.5 1672Q406 1765 406 1915Z" />
<glyph glyph-name="obreve" unicode="&#x014f;" horiz-adv-x="1269" d="M1033.5 129Q1033.5 129 961.25 52.5Q889 -24 635 -24Q381 -24 236.5 129Q92 282 92 552Q92 820 237.5 973.5Q383 1127 635 1127Q887 1127 1032.5 973.5Q1178 820 1178 552Q1178 282 1033.5 129ZM635 214Q751 214 815 302.5Q879 391 879 552Q879 711 814.5 800Q750 889 635 889Q519 889 455 800Q391 711 391 552Q391 391 454.5 302.5Q518 214 635 214ZM235 1602L442 1602Q444 1521 495 1472.5Q546 1424 634 1424Q722 1424 773 1472.5Q824 1521 826 1602L1034 1602Q1034 1446 925.5 1348.5Q817 1251 634 1251Q451 1251 343 1348.5Q235 1446 235 1602Z" />
<glyph glyph-name="Ohungarumlaut" unicode="&#x0150;" horiz-adv-x="1610" d="M806 1480Q1126 1480 1312.5 1276Q1499 1072 1499 722Q1499 371 1312.5 167Q1126 -37 806 -37Q485 -37 298 167Q111 371 111 722Q111 1072 299 1276Q487 1480 806 1480ZM1086.5 1081.5Q1086.5 1081.5 1034.25 1148.25Q982 1215 806 1215Q630 1215 525 1081.5Q420 948 420 722Q420 496 524.5 362Q629 228 806 228Q982 228 1086.5 362Q1191 496 1191 722Q1191 948 1086.5 1081.5ZM1119 1590L875 1590L1127 1908L1397 1908ZM682 1590L438 1590L689 1908L960 1908Z" />
<glyph glyph-name="ohungarumlaut" unicode="&#x0151;" horiz-adv-x="1269" d="M1033.5 129Q1033.5 129 961.25 52.5Q889 -24 635 -24Q381 -24 236.5 129Q92 282 92 552Q92 820 237.5 973.5Q383 1127 635 1127Q887 1127 1032.5 973.5Q1178 820 1178 552Q1178 282 1033.5 129ZM635 214Q751 214 815 302.5Q879 391 879 552Q879 711 814.5 800Q750 889 635 889Q519 889 455 800Q391 711 391 552Q391 391 454.5 302.5Q518 214 635 214ZM712 1281L924 1634L1183 1634L941 1281ZM276 1281L488 1634L747 1634L505 1281Z" />
<glyph glyph-name="OE" unicode="&#x0152;" horiz-adv-x="2271" d="M821 1215Q642 1215 536 1081.5Q430 948 430 722Q430 495 535.5 361.5Q641 228 821 228Q996 228 1099 361.5Q1202 495 1202 722Q1202 949 1099 1082Q996 1215 821 1215ZM1254 0L1254 232L1236 232Q1181 111 1053 37Q925 -37 771 -37Q466 -37 293.5 164Q121 365 121 722Q121 1079 293.5 1279.5Q466 1480 771 1480Q923 1480 1053.5 1406.5Q1184 1333 1236 1218L1254 1218L1254 1443L2170 1443L2170 1185L1507 1185L1507 848L2133 848L2133 609L1507 609L1507 258L2170 258L2170 0Z" />
<glyph glyph-name="oe" unicode="&#x0153;" horiz-adv-x="2017" d="M1427 -24Q1299 -24 1194.5 25.5Q1090 75 1034 162L1016 162Q961 75 858.5 25.5Q756 -24 626 -24Q381 -24 239 130Q97 284 97 550Q97 819 238.5 973Q380 1127 627 1127Q756 1127 856.5 1078Q957 1029 1017 937L1035 937Q1093 1027 1195 1077Q1297 1127 1426 1127Q1654 1127 1790.5 976Q1927 825 1927 570L1927 482L1170 482L1170 466Q1173 343 1241 271.5Q1309 200 1422 200Q1599 200 1647 314L1916 314Q1883 158 1750.5 67Q1618 -24 1427 -24ZM1641 667Q1636 777 1574.5 840.5Q1513 904 1411 904Q1310 904 1244 839.5Q1178 775 1171 667ZM396 551Q396 390 460 302Q524 214 640 214Q756 214 820 302Q884 390 884 551Q884 711 819.5 800Q755 889 640 889Q525 889 460.5 800Q396 711 396 551Z" />
</font>
</defs>
</svg>
