<?xml version="1.0" standalone="no"?><!DOCTYPE svg PUBLIC "-//W3C//DTD SVG 1.1//EN" "http://www.w3.org/Graphics/SVG/1.1/DTD/svg11.dtd" ><svg xmlns="http://www.w3.org/2000/svg"><metadata></metadata><defs>
<font id="SFProText-BoldItalic" >
<font-face font-family="SF Pro Text" font-stretch="normal" units-per-em="2048" weight="700" panose-1="0,0,8,0,0,0,0,0,0,0" ascent="1950" descent="-494" x-height="1103" underline-thickness="197" underline-position="-473" unicode-range="U+00000032-00064258" bbox="-599,-570,3006,2230" />
<missing-glyph horiz-adv-x="2048" d="M-80 -494L-36 -296L1812 -296L1768 -494ZM15 -45L59 153L1907 153L1863 -45ZM110 404L154 603L2002 603L1959 404ZM205 853L249 1052L2097 1052L2054 853ZM301 1303L344 1501L2193 1501L2149 1303ZM396 1752L439 1950L2288 1950L2244 1752Z" />
<glyph glyph-name="space" unicode="&#x20;" horiz-adv-x="528" d="" />
<glyph glyph-name="exclam" unicode="&#x21;" horiz-adv-x="729" d="M440 1443L760 1443L527 475L260 475ZM449.5 19Q449.5 19 424.75 -5.5Q400 -30 318 -30Q236 -30 186.5 17.5Q137 65 137 135Q137 212 186 261.5Q235 311 318 311Q400 311 449.5 263Q499 215 499 145Q499 68 449.5 19Z" />
<glyph glyph-name="quotedbl" unicode="&#x22;" horiz-adv-x="1016" d="M505 831L255 831L384 1443L634 1443ZM967 831L717 831L846 1443L1096 1443Z" />
<glyph glyph-name="numbersign" unicode="&#x23;" horiz-adv-x="1360" d="M646 0L771 378L511 378L387 0L166 0L290 378L65 378L132 600L359 600L447 862L217 862L285 1082L516 1082L636 1444L857 1444L739 1082L997 1082L1117 1444L1339 1444L1220 1082L1456 1082L1389 862L1150 862L1061 600L1302 600L1235 378L992 378L868 0ZM560 580L847 580L948 881L660 881Z" />
<glyph glyph-name="dollar" unicode="&#x24;" horiz-adv-x="1415" d="M825 571L751 223Q859 227 921.5 277.5Q984 328 984 407Q984 462 947.5 499.5Q911 537 825 571ZM752 886L823 1220Q726 1216 666 1168Q606 1120 606 1047Q606 947 752 886ZM882 842L930 826Q1107 766 1193.5 672.5Q1280 579 1280 443Q1280 234 1125 111Q970 -12 716 -12L701 -12L674 -138L534 -138L564 2Q384 37 274.5 147.5Q165 258 160 417L444 417Q451 352 495.5 305.5Q540 259 614 238L694 616L634 636Q478 688 393 789Q308 890 308 1020Q308 1214 456.5 1334.5Q605 1455 848 1455L873 1455L901 1588L1041 1588L1009 1437Q1172 1398 1270 1288Q1368 1178 1370 1031L1093 1031Q1086 1090 1050.5 1133Q1015 1176 958 1199Z" />
<glyph glyph-name="percent" unicode="&#x25;" horiz-adv-x="1806" d="M248 1064Q248 1238 356 1357Q464 1476 622 1476Q762 1476 845.5 1389Q929 1302 929 1155Q929 981 820.5 861.5Q712 742 554 742Q414 742 331 829.5Q248 917 248 1064ZM563 935Q622 935 665 1000Q708 1065 708 1156Q708 1217 683.5 1251Q659 1285 616 1285Q556 1285 512.5 1220Q469 1155 469 1066Q469 1005 494 970Q519 935 563 935ZM490 0L176 0L907 761L1486 1443L1800 1443L1056 673ZM1043 289Q1043 463 1151.5 582Q1260 701 1418 701Q1558 701 1641.5 613.5Q1725 526 1725 379Q1725 206 1616 86Q1507 -34 1349 -34Q1209 -34 1126 53.5Q1043 141 1043 289ZM1358 160Q1418 160 1461 225Q1504 290 1504 380Q1504 441 1479.5 475Q1455 509 1412 509Q1352 509 1308.5 444Q1265 379 1265 290Q1265 229 1290 194.5Q1315 160 1358 160Z" />
<glyph glyph-name="ampersand" unicode="&#x26;" horiz-adv-x="1525" d="M663 1089Q663 1049 684 1004.5Q705 960 754 897Q990 977 990 1133Q990 1192 949 1227.5Q908 1263 842 1263Q768 1263 715.5 1212Q663 1161 663 1089ZM633 189Q781 189 894 257L632 644Q628 643 607.5 635.5Q587 628 585 628Q481 589 426 528Q371 467 371 392Q371 303 443 246Q515 189 633 189ZM1060 0L1009 76Q830 -28 609 -28Q390 -28 244 84.5Q98 197 98 367Q98 650 455 789L527 818Q411 984 411 1112Q411 1262 534 1363.5Q657 1465 840 1465Q1012 1465 1126 1378Q1240 1291 1240 1159Q1240 1028 1146 921.5Q1052 815 861 742L1079 431Q1180 564 1192 729L1195 762L1439 762L1436 724Q1410 444 1209 232L1364 0Z" />
<glyph glyph-name="quotesingle" unicode="&#x27;" horiz-adv-x="553" d="M505 831L255 831L384 1443L634 1443Z" />
<glyph glyph-name="parenleft" unicode="&#x28;" horiz-adv-x="878" d="M662 -310L399 -310Q345 -191 312 1.5Q279 194 279 383Q279 706 405 1006Q531 1306 744 1524L1051 1524Q831 1299 702 993.5Q573 688 574 333Q575 -57 662 -310Z" />
<glyph glyph-name="parenright" unicode="&#x29;" horiz-adv-x="878" d="M324 1524L587 1524Q641 1405 674 1212.5Q707 1020 707 831Q707 508 581 208Q455 -92 242 -310L-66 -310Q154 -86 283.5 220Q413 526 412 880Q411 1269 324 1524Z" />
<glyph glyph-name="asterisk" unicode="&#x2a;" horiz-adv-x="1032" d="M907 754L709 961L693 665L495 685L593 972L325 811L258 1000L555 1082L302 1217L430 1384L629 1175L648 1475L846 1455L746 1164L1016 1329L1083 1140L782 1057L1035 923Z" />
<glyph glyph-name="plus" unicode="&#x2b;" horiz-adv-x="1415" d="M857 455L770 46L509 46L596 455L191 455L244 713L649 713L736 1121L997 1121L910 713L1323 713L1270 455Z" />
<glyph glyph-name="comma" unicode="&#x2c;" horiz-adv-x="712" d="M190 -391L-15 -391L213 234L499 234Z" />
<glyph glyph-name="hyphen" unicode="&#x2d;" horiz-adv-x="992" d="M188 446L245 719L902 719L845 446Z" />
<glyph glyph-name="period" unicode="&#x2e;" horiz-adv-x="712" d="M299 -27Q221 -27 171.5 22.5Q122 72 122 141Q122 219 171 269.5Q220 320 299 320Q378 320 427 271Q476 222 476 152Q476 75 427 24Q378 -27 299 -27Z" />
<glyph glyph-name="slash" unicode="&#x2f;" horiz-adv-x="817" d="M155 -310L-123 -310L770 1524L1047 1524Z" />
<glyph glyph-name="zero" unicode="&#x30;" horiz-adv-x="1401" d="M684 -37Q453 -37 318 114Q183 265 183 522Q183 726 237 904.5Q291 1083 383.5 1209Q476 1335 605 1407.5Q734 1480 880 1480Q1112 1480 1247.5 1329.5Q1383 1179 1383 921Q1383 716 1329 537.5Q1275 359 1182 233Q1089 107 960 35Q831 -37 684 -37ZM487 506Q487 367 541.5 289Q596 211 693 211Q794 211 883 311Q972 411 1025.5 579.5Q1079 748 1079 938Q1079 1076 1024.5 1153.5Q970 1231 873 1231Q772 1231 683 1131.5Q594 1032 540.5 864Q487 696 487 506Z" />
<glyph glyph-name="one" unicode="&#x31;" horiz-adv-x="1051" d="M420 0L663 1134L645 1134L239 892L299 1186L728 1443L1029 1443L722 0Z" />
<glyph glyph-name="two" unicode="&#x32;" horiz-adv-x="1318" d="M270 1021Q287 1222 444 1351Q601 1480 828 1480Q1037 1480 1175 1368.5Q1313 1257 1313 1087Q1313 994 1270.5 914Q1228 834 1138.5 746.5Q1049 659 871 517L555 267L551 249L1181 249L1130 0L81 0L128 224L684 672Q887 836 950.5 909.5Q1014 983 1014 1059Q1014 1137 954.5 1186.5Q895 1236 802 1236Q714 1236 642.5 1183.5Q571 1131 549 1021Z" />
<glyph glyph-name="three" unicode="&#x33;" horiz-adv-x="1366" d="M555 629L601 855L793 855Q910 855 982 913Q1054 971 1054 1065Q1054 1143 992 1191Q930 1239 830 1239Q743 1239 675.5 1191.5Q608 1144 583 1067L304 1067Q343 1256 492.5 1368Q642 1480 856 1480Q1070 1480 1208 1373.5Q1346 1267 1346 1102Q1346 962 1250 859Q1154 756 1007 737L1004 719Q1125 691 1190 614Q1255 537 1255 420Q1255 221 1093 92Q931 -37 680 -37Q442 -37 291.5 79.5Q141 196 140 381Q140 401 145 441L429 441L429 438Q420 342 492.5 278.5Q565 215 684 215Q805 215 880 279Q955 343 955 447Q955 528 888 578.5Q821 629 714 629Z" />
<glyph glyph-name="four" unicode="&#x34;" horiz-adv-x="1413" d="M749 0L804 252L95 252L144 531Q378 844 905 1443L1344 1443L1143 503L1332 503L1280 252L1092 252L1037 0ZM419 510L416 494L860 494L1014 1208L998 1208Q664 830 419 510Z" />
<glyph glyph-name="five" unicode="&#x35;" horiz-adv-x="1361" d="M693 -37Q468 -37 319 84.5Q170 206 170 389Q170 391 172 427L451 427L451 424Q454 329 525 270Q596 211 708 211Q834 211 915.5 295Q997 379 997 507Q997 613 930 676.5Q863 740 756 740Q687 740 623 710.5Q559 681 518 633L241 633L483 1443L1382 1443L1329 1192L673 1192L562 845L579 844Q693 958 868 958Q1044 958 1164 839Q1284 720 1284 540Q1284 374 1210.5 242.5Q1137 111 1002 37Q867 -37 693 -37Z" />
<glyph glyph-name="six" unicode="&#x36;" horiz-adv-x="1406" d="M1315 523Q1315 367 1238 238.5Q1161 110 1027 36.5Q893 -37 731 -37Q479 -37 334.5 117.5Q190 272 190 542Q190 685 220 821Q250 957 310.5 1076.5Q371 1196 455 1286Q539 1376 655.5 1428Q772 1480 906 1480Q1122 1480 1264 1359.5Q1406 1239 1410 1052L1116 1052Q1105 1135 1044 1183Q983 1231 890 1231Q751 1231 647.5 1107Q544 983 505 769L523 768Q587 855 680.5 901.5Q774 948 885 948Q1073 948 1194 829Q1315 710 1315 523ZM781 723Q658 723 572.5 641Q487 559 487 440Q487 339 556.5 274Q626 209 735 209Q856 209 938 291.5Q1020 374 1020 496Q1020 596 953 659.5Q886 723 781 723Z" />
<glyph glyph-name="seven" unicode="&#x37;" horiz-adv-x="1239" d="M120 0L988 1176L992 1195L289 1195L341 1443L1358 1443L1306 1192L448 0Z" />
<glyph glyph-name="eight" unicode="&#x38;" horiz-adv-x="1416" d="M1298 411Q1298 282 1220.5 179.5Q1143 77 1005 20Q867 -37 694 -37Q447 -37 290.5 75.5Q134 188 134 366Q134 524 245 639Q356 754 534 780L538 797Q447 834 394 907Q341 980 341 1066Q341 1245 495 1362.5Q649 1480 883 1480Q1096 1480 1241.5 1372.5Q1387 1265 1387 1107Q1387 969 1296.5 870Q1206 771 1057 746L1053 728Q1168 688 1233 603.5Q1298 519 1298 411ZM734 638Q612 638 531.5 569Q451 500 451 396Q451 304 521 248.5Q591 193 707 193Q830 193 910.5 261Q991 329 991 433Q991 524 919.5 581Q848 638 734 638ZM629 1035Q629 957 689.5 907Q750 857 844 857Q946 857 1016.5 920.5Q1087 984 1087 1076Q1087 1154 1026.5 1204Q966 1254 872 1254Q768 1254 698.5 1191.5Q629 1129 629 1035Z" />
<glyph glyph-name="nine" unicode="&#x39;" horiz-adv-x="1405" d="M782 717Q905 717 989.5 799Q1074 881 1074 1000Q1074 1102 1006.5 1166Q939 1230 830 1230Q709 1230 626.5 1147.5Q544 1065 544 944Q544 844 611 780.5Q678 717 782 717ZM248 918Q248 1159 416 1319.5Q584 1480 835 1480Q1086 1480 1228.5 1325Q1371 1170 1371 897Q1371 721 1322.5 555Q1274 389 1186 256.5Q1098 124 961 43.5Q824 -37 660 -37Q447 -37 303 80.5Q159 198 151 379L446 379Q454 302 516.5 256.5Q579 211 677 211Q821 211 925 335.5Q1029 460 1064 671L1047 672Q983 584 890 538Q797 492 687 492Q496 492 372 612.5Q248 733 248 918Z" />
<glyph glyph-name="colon" unicode="&#x3a;" horiz-adv-x="712" d="M299 -27Q221 -27 171.5 22.5Q122 72 122 141Q122 219 171 269.5Q220 320 299 320Q378 320 427 271Q476 222 476 152Q476 75 427 24Q378 -27 299 -27ZM455 711Q377 711 327.5 760Q278 809 278 879Q278 956 327 1007Q376 1058 455 1058Q534 1058 583 1009Q632 960 632 890Q632 813 583.5 762Q535 711 455 711Z" />
<glyph glyph-name="semicolon" unicode="&#x3b;" horiz-adv-x="712" d="M456 711Q378 711 328.5 760Q279 809 279 879Q279 956 328 1007Q377 1058 456 1058Q534 1058 583.5 1009Q633 960 633 890Q633 813 584 762Q535 711 456 711ZM190 -391L-15 -391L213 234L499 234Z" />
<glyph glyph-name="less" unicode="&#x3c;" horiz-adv-x="1415" d="M1165 253L1106 -39L258 491L306 726L1365 1187L1302 881L579 603L576 584Z" />
<glyph glyph-name="equal" unicode="&#x3d;" horiz-adv-x="1415" d="M1217 216L144 216L197 475L1270 475ZM1317 695L244 695L297 954L1370 954Z" />
<glyph glyph-name="greater" unicode="&#x3e;" horiz-adv-x="1415" d="M344 896L404 1187L1252 657L1204 423L144 -39L207 268L930 546L934 564Z" />
<glyph glyph-name="question" unicode="&#x3f;" horiz-adv-x="1141" d="M232 1053Q257 1234 391 1345Q525 1456 732 1456Q942 1456 1071 1354.5Q1200 1253 1200 1096Q1200 969 1125 864Q1050 759 916 699Q803 650 757 607Q711 564 697 493L689 451L418 451L430 514Q453 646 508.5 715.5Q564 785 682 837Q801 892 850.5 946Q900 1000 900 1072Q900 1134 851 1175Q802 1216 717 1216Q640 1216 582.5 1172Q525 1128 505 1053ZM494 -29Q412 -29 360.5 16Q309 61 309 134Q309 212 361 263Q413 314 494 314Q573 314 625.5 268.5Q678 223 678 151Q678 75 626.5 23Q575 -29 494 -29Z" />
<glyph glyph-name="at" unicode="&#x40;" horiz-adv-x="1899" d="M1136 1444Q1352 1444 1523.5 1358Q1695 1272 1791 1117.5Q1887 963 1887 768Q1887 593 1825 448.5Q1763 304 1654.5 222Q1546 140 1413 140Q1307 140 1239.5 185.5Q1172 231 1172 303Q1172 308 1172.5 316.5Q1173 325 1173 328L1155 325Q1074 183 919 183Q783 183 701 276.5Q619 370 619 526Q619 732 735 874.5Q851 1017 1018 1017Q1106 1017 1171.5 973Q1237 929 1253 857L1271 856L1296 981L1503 981L1382 424Q1377 400 1377 386Q1377 347 1399.5 326Q1422 305 1463 305Q1524 305 1580 369Q1636 433 1670 539Q1704 645 1704 761Q1704 991 1541.5 1136Q1379 1281 1123 1281Q970 1281 833 1222Q696 1163 597.5 1062Q499 961 441 820.5Q383 680 383 524Q383 251 569.5 88.5Q756 -74 1069 -73Q1172 -73 1222 -58L1188 -221Q1100 -237 1012 -237Q775 -237 590.5 -143Q406 -49 304 121.5Q202 292 202 511Q202 707 273.5 880.5Q345 1054 468.5 1177.5Q592 1301 765.5 1372.5Q939 1444 1136 1444ZM1203 649Q1203 729 1163 776.5Q1123 824 1055 824Q968 824 907 739.5Q846 655 846 536Q846 458 885.5 412.5Q925 367 993 367Q1081 367 1142 449Q1203 531 1203 649Z" />
<glyph glyph-name="A" unicode="&#x41;" horiz-adv-x="1501" d="M916 1142L612 577L993 577L935 1142ZM1042 0L1007 344L498 344L312 0L-3 0L817 1443L1166 1443L1353 0Z" />
<glyph glyph-name="B" unicode="&#x42;" horiz-adv-x="1420" d="M791 0L100 0L407 1443L996 1443Q1182 1443 1295.5 1357.5Q1409 1272 1409 1132Q1409 990 1317.5 886.5Q1226 783 1083 763L1081 744Q1200 722 1269.5 645Q1339 568 1339 456Q1339 256 1185 128Q1031 0 791 0ZM664 1219L584 851L824 851Q948 851 1026.5 911Q1105 971 1105 1065Q1105 1140 1049.5 1179.5Q994 1219 889 1219ZM452 237L739 237Q868 237 951 303Q1034 369 1034 472Q1034 556 973.5 601.5Q913 647 800 647L541 647Z" />
<glyph glyph-name="C" unicode="&#x43;" horiz-adv-x="1533" d="M1259 932L1259 946Q1254 1066 1170.5 1139Q1087 1212 954 1212Q825 1212 718 1131Q611 1050 550 907Q489 764 489 589Q489 423 573.5 326.5Q658 230 804 230Q927 230 1024 294Q1121 358 1156 464L1455 464Q1408 236 1224 99.5Q1040 -37 778 -37Q506 -37 343 128Q180 293 180 568Q180 831 282 1039.5Q384 1248 565 1364Q746 1480 973 1480Q1136 1480 1269.5 1414Q1403 1348 1479 1232Q1555 1116 1555 975Q1555 947 1553 932Z" />
<glyph glyph-name="D" unicode="&#x44;" horiz-adv-x="1535" d="M407 1443L918 1443Q1194 1443 1351.5 1287.5Q1509 1132 1509 856Q1509 611 1412.5 415.5Q1316 220 1144 110Q972 0 756 0L101 0ZM660 1187L459 257L729 257Q934 257 1066 414Q1198 571 1198 822Q1198 992 1106 1089.5Q1014 1187 851 1187Z" />
<glyph glyph-name="E" unicode="&#x45;" horiz-adv-x="1273" d="M1109 258L1057 0L100 0L407 1443L1363 1443L1310 1185L658 1185L583 848L1199 848L1149 609L534 609L456 258Z" />
<glyph glyph-name="F" unicode="&#x46;" horiz-adv-x="1235" d="M404 0L100 0L407 1443L1352 1443L1299 1185L658 1185L575 809L1160 809L1109 562L524 562Z" />
<glyph glyph-name="G" unicode="&#x47;" horiz-adv-x="1566" d="M1534 760L1497 576Q1439 277 1257 120Q1075 -37 790 -37Q515 -37 348.5 130.5Q182 298 182 574Q182 837 283 1043.5Q384 1250 564 1365Q744 1480 972 1480Q1130 1480 1262 1418Q1394 1356 1472.5 1248.5Q1551 1141 1555 1010L1555 977L1261 977Q1255 1081 1169 1146Q1083 1211 953 1211Q755 1211 623 1036Q491 861 491 595Q491 427 579 329.5Q667 232 818 232Q959 232 1060 307.5Q1161 383 1187 509L1192 534L885 534L932 760Z" />
<glyph glyph-name="H" unicode="&#x48;" horiz-adv-x="1605" d="M1356 0L1051 0L1180 603L532 603L403 0L100 0L407 1443L711 1443L586 861L1234 861L1359 1443L1663 1443Z" />
<glyph glyph-name="I" unicode="&#x49;" horiz-adv-x="653" d="M404 0L100 0L407 1443L711 1443Z" />
<glyph glyph-name="J" unicode="&#x4a;" horiz-adv-x="1229" d="M85 382Q85 403 86 413L379 413L379 404Q380 327 428.5 282Q477 237 559 237Q726 237 771 446L984 1443L1286 1443L1064 401Q1020 188 887.5 75.5Q755 -37 546 -37Q336 -37 208 79.5Q80 196 85 382Z" />
<glyph glyph-name="K" unicode="&#x4b;" horiz-adv-x="1454" d="M402 0L100 0L407 1443L708 1443L572 808L590 808L1249 1443L1607 1443L937 790L1319 0L979 0L686 606L494 424Z" />
<glyph glyph-name="L" unicode="&#x4c;" horiz-adv-x="1219" d="M1098 263L1044 0L100 0L407 1443L710 1443L457 263Z" />
<glyph glyph-name="M" unicode="&#x4d;" horiz-adv-x="1879" d="M382 0L100 0L407 1443L754 1443L942 473L960 473L1568 1443L1936 1443L1629 0L1348 0L1555 965L1539 965L981 83L780 83L605 965L589 965Z" />
<glyph glyph-name="N" unicode="&#x4e;" horiz-adv-x="1573" d="M393 0L100 0L407 1443L638 1443L1117 514L1135 514L1337 1443L1630 1443L1323 0L1094 0L611 922L593 922Z" />
<glyph glyph-name="O" unicode="&#x4f;" horiz-adv-x="1618" d="M959 1209Q830 1209 722.5 1128.5Q615 1048 553 907.5Q491 767 491 598Q491 433 580.5 333Q670 233 817 233Q946 233 1053 312.5Q1160 392 1221.5 532.5Q1283 673 1283 844Q1283 1009 1194 1109Q1105 1209 959 1209ZM805 -37Q620 -37 477 43Q334 123 257.5 262.5Q181 402 181 576Q181 733 220 873.5Q259 1014 330.5 1124Q402 1234 499 1314.5Q596 1395 717 1437.5Q838 1480 971 1480Q1253 1480 1423 1307Q1593 1134 1593 867Q1593 670 1532.5 501Q1472 332 1367.5 214Q1263 96 1117.5 29.5Q972 -37 805 -37Z" />
<glyph glyph-name="P" unicode="&#x50;" horiz-adv-x="1368" d="M407 1443L934 1443Q1148 1443 1277.5 1327.5Q1407 1212 1407 1021Q1407 758 1234.5 603Q1062 448 783 448L501 448L404 0L101 0ZM660 1195L550 693L779 693Q924 693 1012 774.5Q1100 856 1100 992Q1100 1091 1037.5 1143Q975 1195 862 1195Z" />
<glyph glyph-name="Q" unicode="&#x51;" horiz-adv-x="1618" d="M1362 -141L1074 -141L1011 -11Q916 -37 805 -37Q620 -37 477 43Q334 123 257.5 262Q181 401 181 576Q181 772 241.5 941Q302 1110 407.5 1228Q513 1346 659 1413Q805 1480 971 1480Q1112 1480 1229.5 1433.5Q1347 1387 1426 1305Q1505 1223 1549 1110.5Q1593 998 1593 867Q1593 623 1501.5 425.5Q1410 228 1246 110ZM816 228Q865 228 906 238L793 481L1067 481L1115 397Q1196 475 1241 591.5Q1286 708 1286 845Q1286 1012 1196.5 1112.5Q1107 1213 960 1213Q830 1213 722 1132Q614 1051 551 909.5Q488 768 488 597Q488 430 578.5 329Q669 228 816 228Z" />
<glyph glyph-name="R" unicode="&#x52;" horiz-adv-x="1418" d="M100 0L407 1443L978 1443Q1178 1443 1304 1328.5Q1430 1214 1430 1034Q1430 873 1333 742Q1236 611 1073 558L1271 0L946 0L774 523L516 523L404 0ZM661 1199L563 755L827 755Q959 755 1040.5 825Q1122 895 1122 1007Q1122 1098 1066 1148.5Q1010 1199 909 1199Z" />
<glyph glyph-name="S" unicode="&#x53;" horiz-adv-x="1362" d="M107 412L399 412Q415 320 498 264Q581 208 699 208Q821 208 897 260Q973 312 973 397Q973 460 923.5 502.5Q874 545 757 582L607 629Q447 679 359.5 781.5Q272 884 272 1023Q272 1153 345.5 1257.5Q419 1362 549 1421Q679 1480 840 1480Q1077 1480 1229.5 1355.5Q1382 1231 1389 1033L1104 1033Q1090 1124 1014.5 1179.5Q939 1235 828 1235Q722 1235 650.5 1185Q579 1135 579 1059Q579 998 625.5 953.5Q672 909 773 877L921 831Q1105 773 1191 679Q1277 585 1277 439Q1277 225 1111.5 94Q946 -37 677 -37Q429 -37 274.5 83Q120 203 107 412Z" />
<glyph glyph-name="T" unicode="&#x54;" horiz-adv-x="1349" d="M752 0L448 0L702 1185L270 1185L323 1443L1491 1443L1438 1185L1006 1185Z" />
<glyph glyph-name="U" unicode="&#x55;" horiz-adv-x="1564" d="M776 -37Q515 -37 363 94Q211 225 210 433Q210 497 223 559L410 1443L715 1443L529 566Q517 510 518 464Q520 356 593 295Q666 234 794 234Q921 234 1008 306.5Q1095 379 1124 513L1322 1443L1626 1443L1415 446Q1367 217 1200 90Q1033 -37 776 -37Z" />
<glyph glyph-name="V" unicode="&#x56;" horiz-adv-x="1477" d="M851 0L486 0L304 1443L625 1443L726 342L744 342L1298 1443L1638 1443Z" />
<glyph glyph-name="W" unicode="&#x57;" horiz-adv-x="2067" d="M1150 955L681 0L396 0L320 1443L622 1443L638 426L654 426L1136 1443L1381 1443L1440 426L1456 426L1901 1443L2212 1443L1527 0L1236 0L1166 955Z" />
<glyph glyph-name="X" unicode="&#x58;" horiz-adv-x="1494" d="M14 0L642 744L333 1443L673 1443L884 949L902 949L1301 1443L1639 1443L1004 711L1326 0L993 0L772 485L754 485L345 0Z" />
<glyph glyph-name="Y" unicode="&#x59;" horiz-adv-x="1451" d="M804 0L500 0L614 531L304 1443L620 1443L816 836L834 836L1281 1443L1611 1443L914 519Z" />
<glyph glyph-name="Z" unicode="&#x5a;" horiz-adv-x="1384" d="M61 0L103 204L1018 1167L1020 1185L331 1185L384 1443L1460 1443L1418 1240L505 276L503 258L1227 258L1174 0Z" />
<glyph glyph-name="bracketleft" unicode="&#x5b;" horiz-adv-x="878" d="M490 1524L1051 1524L1005 1301L724 1301L426 -88L707 -88L661 -310L100 -310Z" />
<glyph glyph-name="backslash" unicode="&#x5c;" horiz-adv-x="817" d="M357 -310L305 1524L569 1524L620 -310Z" />
<glyph glyph-name="bracketright" unicode="&#x5d;" horiz-adv-x="878" d="M497 -310L-66 -310L-20 -87L262 -87L560 1301L279 1301L324 1524L886 1524Z" />
<glyph glyph-name="asciicircum" unicode="&#x5e;" horiz-adv-x="1066" d="M713 1193L439 772L176 772L633 1408L892 1408L1083 772L832 772L731 1193Z" />
<glyph glyph-name="underscore" unicode="&#x5f;" horiz-adv-x="945" d="M-146 -334L-100 -107L849 -107L803 -334Z" />
<glyph glyph-name="grave" unicode="&#x60;" horiz-adv-x="1071" d="M1006 1281L745 1281L534 1634L833 1634Z" />
<glyph glyph-name="a" unicode="&#x61;" horiz-adv-x="1202" d="M534 202Q627 202 699 254Q771 306 789 386L810 481L582 473Q482 469 425.5 430Q369 391 369 326Q369 271 415 236.5Q461 202 534 202ZM411 -17Q271 -17 177 69Q83 155 83 284Q83 452 212.5 550.5Q342 649 574 656L848 665L863 733Q868 758 868 773Q868 830 819 863.5Q770 897 686 897Q539 897 494 799L219 799Q254 950 386.5 1038.5Q519 1127 707 1127Q909 1127 1032 1037.5Q1155 948 1155 802Q1155 752 1146 713L995 0L712 0L741 136L723 136Q676 65 592 24Q508 -17 411 -17Z" />
<glyph glyph-name="b" unicode="&#x62;" horiz-adv-x="1340" d="M747 -17Q630 -17 538.5 43Q447 103 419 200L401 200L358 0L75 0L399 1524L690 1524L568 949L587 950Q704 1121 919 1121Q1086 1121 1191 1005.5Q1296 890 1296 699Q1296 497 1223.5 332.5Q1151 168 1025 75.5Q899 -17 747 -17ZM683 230Q814 230 904 350.5Q994 471 994 649Q994 760 938 820Q882 880 788 880Q657 880 564.5 757.5Q472 635 472 465Q472 354 530 292Q588 230 683 230Z" />
<glyph glyph-name="c" unicode="&#x63;" horiz-adv-x="1208" d="M742 1127Q935 1127 1059 1020Q1183 913 1196 766Q1198 753 1198 723L922 723Q918 799 862.5 843.5Q807 888 723 888Q592 888 508 766Q424 644 424 463Q424 343 482 280Q540 217 632 217Q714 217 773 257.5Q832 298 857 373L1136 373Q1107 201 966.5 88.5Q826 -24 615 -24Q395 -24 264 102.5Q133 229 133 441Q133 636 209 792Q285 948 424.5 1037.5Q564 1127 742 1127Z" />
<glyph glyph-name="d" unicode="&#x64;" horiz-adv-x="1342" d="M511 -17Q343 -17 236 99Q129 215 129 413Q129 614 203 777Q277 940 405 1030.5Q533 1121 688 1121Q807 1121 890.5 1063.5Q974 1006 1001 915L1019 915L1149 1524L1441 1524L1118 0L835 0L867 153L849 153Q790 73 704 28Q618 -17 511 -17ZM641 223Q772 223 864 345.5Q956 468 956 639Q956 750 897.5 812Q839 874 744 874Q612 874 521.5 756.5Q431 639 431 463Q431 353 490.5 288Q550 223 641 223Z" />
<glyph glyph-name="e" unicode="&#x65;" horiz-adv-x="1251" d="M443 669L922 669Q925 687 925 707Q925 792 870 847.5Q815 903 721 903Q622 903 547 839Q472 775 443 669ZM624 -24Q406 -24 271 103Q136 230 136 450Q136 752 302 939.5Q468 1127 733 1127Q934 1127 1066 1000Q1198 873 1198 665Q1198 583 1181 485L411 485Q411 481 410.5 469.5Q410 458 410 454Q410 332 476 267.5Q542 203 642 203Q805 203 860 317L1140 317Q1102 163 963.5 69.5Q825 -24 624 -24Z" />
<glyph glyph-name="f" unicode="&#x66;" horiz-adv-x="836" d="M153 0L337 863L157 863L204 1092L381 1092L406 1218Q437 1373 535 1444Q633 1515 809 1515Q910 1515 993 1492L950 1288Q911 1299 837 1299Q714 1299 689 1181L671 1092L905 1092L858 863L630 863L446 0Z" />
<glyph glyph-name="g" unicode="&#x67;" horiz-adv-x="1327" d="M530 -417Q309 -417 170.5 -322.5Q32 -228 33 -83L323 -83Q328 -138 388.5 -172Q449 -206 549 -206Q661 -206 727 -157Q793 -108 813 -18L857 176L839 177Q730 22 514 22Q348 22 240.5 137.5Q133 253 133 438Q133 628 205 785Q277 942 402.5 1031.5Q528 1121 679 1121Q793 1121 882 1063Q971 1005 1002 911L1019 911L1061 1103L1345 1103L1099 -44Q1062 -219 912.5 -318Q763 -417 530 -417ZM641 237Q770 237 859.5 353Q949 469 949 639Q949 746 891 810Q833 874 735 874Q605 874 518.5 761.5Q432 649 432 476Q432 366 488.5 301.5Q545 237 641 237Z" />
<glyph glyph-name="h" unicode="&#x68;" horiz-adv-x="1301" d="M75 0L398 1515L690 1515L565 937L583 937Q702 1124 916 1124Q1070 1124 1159.5 1034Q1249 944 1249 807Q1249 749 1235 676L1093 0L802 0L934 628Q944 676 944 712Q944 791 895 837Q846 883 761 883Q664 883 596.5 821Q529 759 507 659L367 0Z" />
<glyph glyph-name="i" unicode="&#x69;" horiz-adv-x="599" d="M79 0L313 1103L604 1103L370 0ZM648.5 1300.5Q648.5 1300.5 624.75 1278.75Q601 1257 524 1257Q447 1257 399.5 1297.5Q352 1338 352 1400Q352 1465 399.5 1508Q447 1551 524 1551Q602 1551 649 1511Q696 1471 696 1409Q696 1344 648.5 1300.5Z" />
<glyph glyph-name="j" unicode="&#x6a;" horiz-adv-x="599" d="M648.5 1300.5Q648.5 1300.5 624.75 1278.75Q601 1257 524 1257Q447 1257 399.5 1297.5Q352 1338 352 1400Q352 1465 399.5 1508Q447 1551 524 1551Q601 1551 648.5 1511Q696 1471 696 1409Q696 1344 648.5 1300.5ZM605 1103L358 -56Q292 -376 -46 -376Q-126 -376 -184 -363L-135 -138Q-105 -144 -71 -144Q-9 -144 25.5 -116Q60 -88 74 -24L314 1103Z" />
<glyph glyph-name="k" unicode="&#x6b;" horiz-adv-x="1210" d="M367 0L75 0L399 1524L690 1524L513 690L531 690L979 1103L1319 1103L790 621L1118 0L797 0L555 457L445 363Z" />
<glyph glyph-name="l" unicode="&#x6c;" horiz-adv-x="593" d="M75 0L399 1524L692 1524L368 0Z" />
<glyph glyph-name="m" unicode="&#x6d;" horiz-adv-x="1893" d="M67 0L301 1103L584 1103L545 921L563 921Q614 1012 698 1066.5Q782 1121 878 1121Q988 1121 1063 1063Q1138 1005 1161 920L1179 920Q1307 1121 1534 1121Q1668 1121 1755 1033Q1842 945 1842 812Q1842 753 1828 681L1684 0L1393 0L1527 636Q1537 682 1537 720Q1537 789 1495 832.5Q1453 876 1382 876Q1303 876 1240.5 818Q1178 760 1157 662L1017 0L735 0L870 636Q880 689 880 720Q880 789 838 832.5Q796 876 725 876Q646 876 583.5 819Q521 762 501 667L359 0Z" />
<glyph glyph-name="n" unicode="&#x6e;" horiz-adv-x="1285" d="M67 0L302 1103L585 1103L547 928L565 928Q686 1121 904 1121Q1054 1121 1143.5 1029.5Q1233 938 1233 798Q1233 738 1218 667L1077 0L786 0L918 619Q928 665 928 703Q928 780 880.5 828Q833 876 749 876Q654 876 587 813.5Q520 751 498 650L359 0Z" />
<glyph glyph-name="o" unicode="&#x6f;" horiz-adv-x="1299" d="M645 215Q767 215 855 337Q943 459 943 628Q943 751 890 820Q837 889 742 889Q612 889 525 768Q438 647 438 467Q438 351 494 283Q550 215 645 215ZM758 1127Q979 1127 1113.5 995Q1248 863 1248 644Q1248 455 1167.5 302Q1087 149 945 62.5Q803 -24 628 -24Q406 -24 270.5 108.5Q135 241 135 458Q135 648 215.5 801Q296 954 438.5 1040.5Q581 1127 758 1127Z" />
<glyph glyph-name="p" unicode="&#x70;" horiz-adv-x="1334" d="M677 230Q808 230 898 350.5Q988 471 988 649Q988 760 932 820Q876 880 782 880Q651 880 558.5 757.5Q466 635 466 465Q466 354 524 292Q582 230 677 230ZM283 -366L-9 -366L304 1103L587 1103L554 950L572 950Q631 1030 718 1075.5Q805 1121 912 1121Q1079 1121 1184.5 1005.5Q1290 890 1290 699Q1290 496 1217 332Q1144 168 1017.5 75.5Q891 -17 736 -17Q618 -17 534.5 42.5Q451 102 423 200L405 200Z" />
<glyph glyph-name="q" unicode="&#x71;" horiz-adv-x="1336" d="M637 223Q768 223 860.5 345.5Q953 468 953 639Q953 750 895 812Q837 874 742 874Q611 874 521 755.5Q431 637 431 461Q431 347 487 285Q543 223 637 223ZM1041 -366L750 -366L860 153L843 153Q718 -17 506 -17Q339 -17 234 100Q129 217 129 411Q129 612 202.5 775Q276 938 403 1029.5Q530 1121 685 1121Q805 1121 894 1062.5Q983 1004 1012 915L1030 915L1070 1103L1353 1103Z" />
<glyph glyph-name="r" unicode="&#x72;" horiz-adv-x="908" d="M63 0L298 1103L581 1103L550 951L568 951Q662 1121 842 1121Q933 1121 984 1097L926 829Q851 859 758 859Q540 859 486 608L355 0Z" />
<glyph glyph-name="s" unicode="&#x73;" horiz-adv-x="1150" d="M211 770Q211 931 337.5 1029Q464 1127 668 1127Q868 1127 990.5 1037.5Q1113 948 1124 799L857 799Q847 851 795.5 882.5Q744 914 668 914Q591 914 541.5 882Q492 850 492 800Q492 764 521 738Q550 712 614 691L793 628Q927 582 987.5 513Q1048 444 1048 338Q1048 176 915 76Q782 -24 567 -24Q355 -24 221.5 70.5Q88 165 82 318L363 318Q375 261 431 225Q487 189 568 189Q653 189 704.5 221Q756 253 756 306Q756 342 730.5 367Q705 392 643 412L471 472Q339 517 275 589.5Q211 662 211 770Z" />
<glyph glyph-name="t" unicode="&#x74;" horiz-adv-x="846" d="M524 -4Q382 -4 296.5 58.5Q211 121 211 231Q211 274 222 326L338 863L161 863L209 1092L385 1092L443 1365L735 1365L677 1092L912 1092L863 863L630 863L526 384Q518 344 518 320Q518 222 640 222Q691 222 727 228L682 9Q628 -4 524 -4Z" />
<glyph glyph-name="u" unicode="&#x75;" horiz-adv-x="1285" d="M1302 1103L1069 0L786 0L822 167L804 167Q696 -24 476 -24Q325 -24 232 64Q139 152 139 298Q139 356 154 439L293 1103L586 1103L455 487Q445 440 445 401Q445 228 619 228Q717 228 783.5 290.5Q850 353 873 459L1010 1103Z" />
<glyph glyph-name="v" unicode="&#x76;" horiz-adv-x="1184" d="M211 1103L505 1103L568 296L586 296L980 1103L1292 1103L681 0L350 0Z" />
<glyph glyph-name="w" unicode="&#x77;" horiz-adv-x="1735" d="M1833 1103L1306 0L994 0L959 758L941 758L586 0L280 0L220 1103L504 1103L509 316L527 316L882 1103L1165 1103L1190 312L1208 312L1542 1103Z" />
<glyph glyph-name="x" unicode="&#x78;" horiz-adv-x="1191" d="M606 354L588 354L311 0L-8 0L455 552L224 1103L542 1103L671 745L689 745L959 1103L1284 1103L818 549L1053 0L746 0Z" />
<glyph glyph-name="y" unicode="&#x79;" horiz-adv-x="1208" d="M131 -403Q112 -403 57.5 -400Q3 -397 -4 -396L44 -163Q64 -169 126 -169Q277 -169 337 -47L359 -3L215 1103L512 1103L576 281L594 281L999 1103L1311 1103L681 -40Q575 -240 449.5 -321.5Q324 -403 131 -403Z" />
<glyph glyph-name="z" unicode="&#x7a;" horiz-adv-x="1160" d="M46 0L81 172L770 853L772 871L240 871L289 1103L1187 1103L1146 911L494 250L493 232L1012 232L964 0Z" />
<glyph glyph-name="braceleft" unicode="&#x7b;" horiz-adv-x="878" d="M290 262Q301 312 301 349Q301 412 260 440Q219 468 123 468L180 745Q295 745 353 791Q411 837 435 953L479 1157Q519 1357 631.5 1440.5Q744 1524 952 1524L1050 1524L1005 1304L961 1304Q866 1304 818 1257.5Q770 1211 746 1099L697 879Q671 760 590 680Q509 600 387 589L383 571Q493 555 540 508Q587 461 587 385Q587 356 576 303L535 114Q524 61 524 24Q524 -36 556 -64.5Q588 -93 662 -93L706 -93L662 -310L564 -310Q406 -310 320.5 -237Q235 -164 235 -39Q235 9 249 75Z" />
<glyph glyph-name="bar" unicode="&#x7c;" horiz-adv-x="817" d="M401 -310L135 -310L524 1524L790 1524Z" />
<glyph glyph-name="braceright" unicode="&#x7d;" horiz-adv-x="878" d="M696 952Q685 900 685 865Q685 801 726 773Q767 745 863 745L806 468Q691 468 633 422Q575 376 551 260L507 57Q467 -143 354.5 -226.5Q242 -310 34 -310L-65 -310L-19 -91L25 -91Q120 -91 168 -44.5Q216 2 240 115L289 335Q315 453 396 533Q477 613 599 624L603 643Q493 658 446 705Q399 752 399 828Q399 857 410 910L451 1100Q462 1152 462 1190Q462 1250 430 1278.5Q398 1307 324 1307L280 1307L324 1524L422 1524Q580 1524 665.5 1450.5Q751 1377 751 1252Q751 1205 737 1139Z" />
<glyph glyph-name="asciitilde" unicode="&#x7e;" horiz-adv-x="1225" d="M773 479Q715 479 665.5 503Q616 527 582 561.5Q548 596 518 631Q488 666 456 690Q424 714 391 714Q297 714 265 555L36 555Q67 757 161 864Q255 971 390 971Q439 971 482 953.5Q525 936 554.5 910Q584 884 613 853.5Q642 823 664 797Q686 771 713 753.5Q740 736 767 736Q862 736 893 896L1123 896Q1092 692 1001.5 585.5Q911 479 773 479Z" />
<glyph glyph-name="nonbreakingspace" unicode="&#xa0;" horiz-adv-x="528" d="" />
<glyph glyph-name="exclamdown" unicode="&#xa1;" horiz-adv-x="729" d="M377 -322L57 -322L290 647L557 647ZM499 1152Q581 1152 630.5 1104.5Q680 1057 680 987Q680 910 631 860.5Q582 811 499 811Q417 811 367.5 859Q318 907 318 977Q318 1054 367 1103Q416 1152 499 1152Z" />
<glyph glyph-name="cent" unicode="&#xa2;" horiz-adv-x="1415" d="M1263 525Q1236 366 1112.5 257Q989 148 802 131L764 -52L522 -52L565 156Q423 201 342 316.5Q261 432 261 595Q261 872 411 1063Q561 1254 804 1280L840 1449L1082 1449L1041 1257Q1164 1215 1239 1123.5Q1314 1032 1324 922Q1326 896 1326 879L1050 879Q1046 955 990 999.5Q934 1044 851 1044Q719 1044 635.5 921.5Q552 799 552 617Q552 497 610 433Q668 369 760 369Q842 369 901 409.5Q960 450 985 525Z" />
<glyph glyph-name="sterling" unicode="&#xa3;" horiz-adv-x="1415" d="M1259 263L1206 6L82 6L135 262Q275 272 386 363.5Q497 455 511 599Q511 616 508 638L198 638L241 851L496 851Q478 990 478 1030Q478 1240 623 1360Q768 1480 1033 1480Q1149 1480 1269.5 1456.5Q1390 1433 1454 1403L1404 1164Q1356 1191 1264 1210.5Q1172 1230 1082 1230Q939 1230 856.5 1169Q774 1108 774 985Q774 936 783 851L1168 851L1125 638L799 638Q799 633 799.5 624.5Q800 616 800 612Q796 482 732.5 398.5Q669 315 560 281L557 263Z" />
<glyph glyph-name="currency" unicode="&#xa4;" horiz-adv-x="1415" d="M583 812Q583 812 548.5 777.5Q514 743 514 648Q514 553 583 484.5Q652 416 748 416Q844 416 913.5 484.5Q983 553 983 648Q983 743 913.5 812Q844 881 748 881Q652 881 583 812ZM1358 1009L1156 842Q1199 751 1199 648Q1199 507 1119 389L1227 252L1028 83L917 225Q834 192 748 192Q597 192 477 285L270 113L137 287L340 456Q298 546 298 648Q298 790 378 908L269 1045L467 1214L579 1072Q661 1105 748 1105Q898 1105 1020 1012L1226 1183Z" />
<glyph glyph-name="yen" unicode="&#xa5;" horiz-adv-x="1415" d="M1099 206L830 206L786 0L482 0L527 206L255 206L291 375L562 375L591 508L319 508L355 677L551 677L286 1443L602 1443L798 836L816 836L1263 1443L1593 1443L1012 677L1199 677L1163 508L894 508L865 375L1135 375Z" />
<glyph glyph-name="brokenbar" unicode="&#xa6;" horiz-adv-x="817" d="M636 797L370 797L524 1524L790 1524ZM401 -310L135 -310L284 396L550 396Z" />
<glyph glyph-name="section" unicode="&#xa7;" horiz-adv-x="1032" d="M497 459L603 406Q670 423 711.5 464.5Q753 506 753 558Q753 644 647 690L543 742Q474 728 428.5 686.5Q383 645 383 592Q383 511 497 459ZM445 -288Q262 -288 140.5 -193.5Q19 -99 15 54L267 54Q276 -3 325.5 -40Q375 -77 447 -77Q523 -77 572.5 -41Q622 -5 622 49Q622 129 520 171L353 251Q123 356 123 543Q123 652 196 729.5Q269 807 392 833L394 852Q315 906 281.5 960Q248 1014 248 1090Q248 1242 369 1338Q490 1434 678 1434Q859 1434 972.5 1341.5Q1086 1249 1098 1093L849 1093Q842 1152 794.5 1187Q747 1222 676 1222Q605 1222 558.5 1187.5Q512 1153 512 1100Q512 1026 622 979L774 902Q894 845 953 774.5Q1012 704 1012 608Q1012 502 939.5 420.5Q867 339 747 314L745 298Q822 244 854.5 190Q887 136 887 61Q887 -92 762 -190Q637 -288 445 -288Z" />
<glyph glyph-name="dieresis" unicode="&#xa8;" horiz-adv-x="1071" d="M528 1267Q460 1267 416 1310Q372 1353 372 1419Q372 1485 416 1527.5Q460 1570 528 1570Q595 1570 639 1527.5Q683 1485 683 1419Q683 1353 639 1310Q595 1267 528 1267ZM995 1267Q928 1267 884 1310Q840 1353 840 1419Q840 1485 884 1527.5Q928 1570 995 1570Q1063 1570 1107 1527.5Q1151 1485 1151 1419Q1151 1353 1107 1310Q1063 1267 995 1267Z" />
<glyph glyph-name="copyright" unicode="&#xa9;" horiz-adv-x="1743" d="M906 -135Q750 -135 610.5 -78Q471 -21 371 77Q271 175 213 312Q155 449 155 603Q155 775 221 930Q287 1085 399.5 1197Q512 1309 668.5 1374.5Q825 1440 999 1440Q1211 1440 1383 1344Q1555 1248 1653 1079.5Q1751 911 1751 703Q1751 530 1685 375Q1619 220 1506.5 108Q1394 -4 1237 -69.5Q1080 -135 906 -135ZM914 26Q1096 26 1250.5 116Q1405 206 1495 360Q1585 514 1585 695Q1585 947 1416 1113Q1247 1279 991 1279Q810 1279 655 1189Q500 1099 410 945Q320 791 320 611Q320 361 490 193.5Q660 26 914 26ZM1317 759L1130 759Q1129 819 1090.5 855.5Q1052 892 990 892Q900 892 839 807.5Q778 723 778 599Q778 515 817.5 468Q857 421 927 421Q1036 421 1078 516L1271 516Q1241 396 1147 327.5Q1053 259 919 259Q771 259 679 352.5Q587 446 587 598Q587 794 703.5 923.5Q820 1053 997 1053Q1141 1053 1231.5 970Q1322 887 1317 759Z" />
<glyph glyph-name="ordfeminine" unicode="&#xaa;" horiz-adv-x="1031" d="M609 912Q531 909 487 879Q443 849 443 798Q443 753 478.5 725.5Q514 698 571 698Q640 698 693 738.5Q746 779 760 843L776 917ZM180 762Q180 904 284.5 984.5Q389 1065 576 1069L809 1074Q810 1078 815 1100.5Q820 1123 821 1127Q827 1156 826 1162Q827 1207 790 1233Q753 1259 690 1259Q638 1259 600.5 1240Q563 1221 547 1186L295 1186Q329 1320 434.5 1392Q540 1464 699 1464Q875 1464 982 1386Q1089 1308 1089 1178Q1089 1140 1082 1106L956 516L699 516L720 620L703 620Q663 565 598.5 534Q534 503 459 503Q336 503 258 575Q180 647 180 762Z" />
<glyph glyph-name="guillemotleft" unicode="&#xab;" horiz-adv-x="1447" d="M713 151L449 151L188 562L190 570L607 981L905 981L468 556L466 545ZM1224 151L960 151L699 562L701 570L1128 981L1416 981L974 550L972 540Z" />
<glyph glyph-name="logicalnot" unicode="&#xac;" horiz-adv-x="1415" d="M1306 713L1169 59L914 59L998 455L208 455L261 713Z" />
<glyph glyph-name="registered" unicode="&#xae;" horiz-adv-x="1261" d="M628 735L503 735L607 1222L854 1222Q921 1222 966.5 1179.5Q1012 1137 1012 1076Q1012 1015 974.5 971Q937 927 875 912L958 735L820 735L744 900L663 900ZM710 1118L684 997L787 997Q876 997 876 1065Q876 1089 859 1103.5Q842 1118 810 1118ZM761 443Q532 443 381.5 592Q231 741 231 968Q231 1112 301.5 1233Q372 1354 494 1424Q616 1494 761 1494Q991 1494 1141 1345Q1291 1196 1291 968Q1291 824 1221 703.5Q1151 583 1029 513Q907 443 761 443ZM760 573Q926 573 1042 688.5Q1158 804 1158 968Q1158 1141 1046 1252Q934 1363 761 1363Q596 1363 480 1248Q364 1133 364 968Q364 795 475.5 684Q587 573 760 573Z" />
<glyph glyph-name="macron" unicode="&#xaf;" horiz-adv-x="1071" d="M1145 1496L1107 1316L372 1316L410 1496Z" />
<glyph glyph-name="degree" unicode="&#xb0;" horiz-adv-x="924" d="M879 846Q879 846 827.5 794Q776 742 622 742Q468 742 365 846Q262 950 262 1102Q262 1254 365 1358Q468 1462 622 1462Q776 1462 879 1358Q982 1254 982 1102Q982 950 879 846ZM490.5 970.5Q490.5 970.5 515.75 944.25Q541 918 622 918Q703 918 754 970.5Q805 1023 805 1102Q805 1181 754 1233Q703 1285 622 1285Q541 1285 490.5 1233Q440 1181 440 1102Q440 1023 490.5 970.5Z" />
<glyph glyph-name="plusminus" unicode="&#xb1;" horiz-adv-x="1415" d="M1146 71L149 71L195 296L1192 296ZM897 650L846 416L594 416L645 650L272 650L318 874L691 874L743 1108L994 1108L943 874L1317 874L1271 650Z" />
<glyph glyph-name="two.sups" unicode="&#xb2;" horiz-adv-x="917" d="M331 1527Q340 1668 452 1759Q564 1850 729 1850Q879 1850 973.5 1774.5Q1068 1699 1068 1580Q1068 1495 1013 1422Q958 1349 818 1249Q651 1130 626 1117L624 1105L984 1105L941 896L221 896L261 1088L583 1321Q715 1415 761 1463.5Q807 1512 807 1556Q807 1596 779 1620Q751 1644 705 1644Q655 1644 618.5 1612.5Q582 1581 572 1528L572 1527Z" />
<glyph glyph-name="three.sups" unicode="&#xb3;" horiz-adv-x="944" d="M542 1286L579 1464L692 1464Q750 1464 787.5 1492.5Q825 1521 825 1565Q825 1603 795 1626.5Q765 1650 716 1650Q672 1650 638 1627.5Q604 1605 591 1566L350 1566Q375 1696 481 1773Q587 1850 739 1850Q888 1850 984.5 1778.5Q1081 1707 1081 1597Q1081 1507 1017.5 1443Q954 1379 857 1372L856 1359Q935 1341 977 1291Q1019 1241 1019 1165Q1019 1035 910.5 952.5Q802 870 629 870Q454 870 347.5 965Q241 1060 258 1201L507 1201Q503 1150 537 1118Q571 1086 628 1086Q686 1086 722 1116Q758 1146 758 1196Q758 1235 725 1260.5Q692 1286 641 1286Z" />
<glyph glyph-name="acute" unicode="&#xb4;" horiz-adv-x="1071" d="M727 1281L451 1281L774 1634L1088 1634Z" />
<glyph glyph-name="mugreek" unicode="&#xb5;" horiz-adv-x="1364" d="M-18 -366L292 1103L585 1103L459 510Q445 445 445 406Q445 229 617 229Q713 229 786 298.5Q859 368 883 481L1015 1103L1306 1103L1144 343Q1137 315 1137 288Q1137 252 1156.5 236Q1176 220 1222 220Q1249 220 1277 226L1231 3Q1179 -10 1098 -10Q862 -10 862 189L862 195L843 195Q731 -24 541 -24Q484 -24 441 0Q398 24 384 63L366 63L274 -366Z" />
<glyph glyph-name="paragraph" unicode="&#xb6;" horiz-adv-x="1538" d="M818 -259L538 -259L693 460Q508 478 398 593.5Q288 709 288 880Q288 1124 453 1279Q618 1434 890 1442L1180 1443ZM987 -259L1348 1443L1628 1443L1267 -259Z" />
<glyph glyph-name="periodcentered" unicode="&#xb7;" horiz-adv-x="723" d="M573 608Q573 608 548 582Q523 556 443 556Q363 556 312.5 606.5Q262 657 262 728Q262 806 312.5 858Q363 910 443 910Q522 910 572.5 860Q623 810 623 739Q623 660 573 608Z" />
<glyph glyph-name="cedilla" unicode="&#xb8;" horiz-adv-x="1071" d="M244 -232L261 -116L360 36L544 36L445 -117Q604 -143 604 -281Q604 -377 532 -435Q460 -493 341 -493Q234 -493 155 -457L183 -324Q248 -351 325 -351Q369 -351 393 -336Q417 -321 417 -293Q417 -232 301 -232Z" />
<glyph glyph-name="one.sups" unicode="&#xb9;" horiz-adv-x="760" d="M431 896L577 1576L564 1576L313 1431L362 1669L628 1824L896 1824L699 896Z" />
<glyph glyph-name="ordmasculine" unicode="&#xba;" horiz-adv-x="1107" d="M635 497Q439 497 327 609Q215 721 215 916Q215 1155 363 1310Q511 1465 739 1465Q935 1465 1045 1353.5Q1155 1242 1155 1044Q1155 805 1008.5 651Q862 497 635 497ZM880 1048Q880 1143 838.5 1197.5Q797 1252 725 1252Q627 1252 558.5 1154Q490 1056 490 917Q490 820 531 765.5Q572 711 646 711Q743 711 811.5 810Q880 909 880 1048Z" />
<glyph glyph-name="guillemotright" unicode="&#xbb;" horiz-adv-x="1449" d="M827 981L1091 981L1352 570L1350 562L933 151L635 151L1072 576L1074 586ZM314 981L578 981L840 570L838 562L411 151L123 151L564 581L566 592Z" />
<glyph glyph-name="onequarter" unicode="&#xbc;" horiz-adv-x="2293" d="M449 515L595 1195L582 1195L331 1050L380 1288L646 1443L914 1443L717 515ZM813 0L536 0L1088 756L1543 1443L1819 1443L1263 694ZM1763 0L1792 136L1333 136L1378 375Q1514 564 1830 928L2212 928L2088 347L2199 347L2155 136L2044 136L2015 0ZM1605 349L1602 337L1841 337L1928 739L1915 739Q1912 736 1886.5 706Q1861 676 1857.5 672Q1854 668 1831.5 641.5Q1809 615 1803 607.5Q1797 600 1776.5 575Q1756 550 1746 537Q1736 524 1716.5 499Q1697 474 1682 453.5Q1667 433 1646.5 405.5Q1626 378 1605 349Z" />
<glyph glyph-name="onehalf" unicode="&#xbd;" horiz-adv-x="2287" d="M449 515L595 1195L582 1195L331 1050L380 1288L646 1443L914 1443L717 515ZM813 0L536 0L1088 756L1543 1443L1819 1443L1263 694ZM1514 631Q1523 772 1635 863Q1747 954 1912 954Q2062 954 2156.5 878.5Q2251 803 2251 684Q2251 599 2196 526Q2141 453 2001 353Q1834 234 1809 221L1807 209L2167 209L2124 0L1404 0L1444 192L1766 425Q1898 519 1944 567.5Q1990 616 1990 660Q1990 700 1962 724Q1934 748 1888 748Q1838 748 1801.5 716.5Q1765 685 1755 632L1755 631Z" />
<glyph glyph-name="threequarters" unicode="&#xbe;" horiz-adv-x="2426" d="M516 905L553 1083L666 1083Q724 1083 761.5 1111.5Q799 1140 799 1184Q799 1222 769 1245.5Q739 1269 690 1269Q646 1269 612 1246.5Q578 1224 565 1185L324 1185Q349 1315 455 1392Q561 1469 713 1469Q862 1469 958.5 1397.5Q1055 1326 1055 1216Q1055 1126 991.5 1062Q928 998 831 991L830 978Q909 960 951 910Q993 860 993 784Q993 654 884.5 571.5Q776 489 603 489Q428 489 321.5 584Q215 679 232 820L481 820Q477 769 511 737Q545 705 602 705Q660 705 696 735.5Q732 766 732 815Q732 854 699 879.5Q666 905 615 905ZM946 0L669 0L1221 756L1676 1443L1952 1443L1396 694ZM1896 0L1925 136L1466 136L1511 375Q1647 564 1963 928L2345 928L2221 347L2332 347L2288 136L2177 136L2148 0ZM1738 349L1735 337L1974 337L2061 739L2048 739Q2045 736 2019.5 706Q1994 676 1990.5 672Q1987 668 1964.5 641.5Q1942 615 1936 607.5Q1930 600 1909.5 575Q1889 550 1879 537Q1869 524 1849.5 499Q1830 474 1815 453.5Q1800 433 1779.5 405.5Q1759 378 1738 349Z" />
<glyph glyph-name="questiondown" unicode="&#xbf;" horiz-adv-x="1141" d="M998 69Q972 -112 838.5 -223Q705 -334 498 -334Q288 -334 159 -232.5Q30 -131 30 26Q30 153 105 257.5Q180 362 314 422Q426 472 472 515Q518 558 532 628L541 671L811 671L799 608Q777 476 721.5 406.5Q666 337 548 285Q428 230 378.5 176Q329 122 329 50Q329 -12 378 -53Q427 -94 512 -94Q589 -94 646.5 -50.5Q704 -7 725 69ZM736 1152Q818 1152 869.5 1107Q921 1062 921 989Q921 911 869 860Q817 809 736 809Q656 809 604 854.5Q552 900 552 972Q552 1048 603.5 1100Q655 1152 736 1152Z" />
<glyph glyph-name="Agrave" unicode="&#xc0;" horiz-adv-x="1501" d="M916 1142L612 577L993 577L935 1142ZM1042 0L1007 344L498 344L312 0L-3 0L817 1443L1166 1443L1353 0ZM895 1590L693 1908L995 1908L1157 1590Z" />
<glyph glyph-name="Aacute" unicode="&#xc1;" horiz-adv-x="1501" d="M916 1142L612 577L993 577L935 1142ZM1042 0L1007 344L498 344L312 0L-3 0L817 1443L1166 1443L1353 0ZM1152 1590L875 1590L1218 1908L1533 1908Z" />
<glyph glyph-name="Acircumflex" unicode="&#xc2;" horiz-adv-x="1501" d="M916 1142L612 577L993 577L935 1142ZM1042 0L1007 344L498 344L312 0L-3 0L817 1443L1166 1443L1353 0ZM1227 1925L1414 1590L1165 1590L1073 1781L1055 1781L883 1590L608 1590L936 1925Z" />
<glyph glyph-name="Atilde" unicode="&#xc3;" horiz-adv-x="1501" d="M916 1142L612 577L993 577L935 1142ZM1042 0L1007 344L498 344L312 0L-3 0L817 1443L1166 1443L1353 0ZM1206 1572Q1160 1572 1120 1589Q1080 1606 1052.5 1630Q1025 1654 1001.5 1678Q978 1702 953.5 1719Q929 1736 906 1736Q830 1736 811 1612L627 1612Q644 1747 719 1828Q794 1909 900 1909Q946 1909 986 1892Q1026 1875 1053 1851Q1080 1827 1103.5 1803Q1127 1779 1151.5 1762Q1176 1745 1199 1745Q1276 1745 1295 1869L1479 1869Q1462 1733 1387 1652.5Q1312 1572 1206 1572Z" />
<glyph glyph-name="Adieresis" unicode="&#xc4;" horiz-adv-x="1501" d="M916 1142L612 577L993 577L935 1142ZM1042 0L1007 344L498 344L312 0L-3 0L817 1443L1166 1443L1353 0ZM819 1579Q751 1579 707 1622Q663 1665 663 1731Q663 1797 707 1839.5Q751 1882 819 1882Q886 1882 930 1839.5Q974 1797 974 1731Q974 1665 930 1622Q886 1579 819 1579ZM1286 1579Q1219 1579 1175 1622Q1131 1665 1131 1731Q1131 1797 1175 1839.5Q1219 1882 1286 1882Q1354 1882 1398 1839.5Q1442 1797 1442 1731Q1442 1665 1398 1622Q1354 1579 1286 1579Z" />
<glyph glyph-name="Aring" unicode="&#xc5;" horiz-adv-x="1501" d="M916 1142L612 577L993 577L935 1142ZM1042 0L1007 344L498 344L312 0L-3 0L817 1443L1166 1443L1353 0ZM1242 1616.5Q1242 1616.5 1207 1582.25Q1172 1548 1067 1548Q962 1548 891.5 1616.5Q821 1685 821 1789Q821 1892 891 1959.5Q961 2027 1067 2027Q1172 2027 1242 1959.5Q1312 1892 1312 1789Q1312 1685 1242 1616.5ZM990.5 1713Q990.5 1713 1005.25 1698.5Q1020 1684 1066 1684Q1112 1684 1142 1713.5Q1172 1743 1172 1788Q1172 1832 1142 1861.5Q1112 1891 1066 1891Q1020 1891 990.5 1861.5Q961 1832 961 1788Q961 1742 990.5 1713Z" />
<glyph glyph-name="AE" unicode="&#xc6;" horiz-adv-x="2059" d="M1180 1202L1050 1202L671 598L1050 598ZM922 0L1002 364L537 364L303 0L-4 0L899 1443L2158 1443L2104 1185L1454 1185L1379 844L1993 844L1943 605L1330 605L1253 258L1903 258L1851 0Z" />
<glyph glyph-name="Ccedilla" unicode="&#xc7;" horiz-adv-x="1534" d="M1553 932L1259 932L1259 946Q1254 1066 1170.5 1139Q1087 1212 954 1212Q825 1212 718 1131Q611 1050 550 907Q489 764 489 589Q489 423 573.5 326.5Q658 230 804 230Q927 230 1024 294Q1121 358 1156 464L1455 464Q1412 256 1254 123Q1096 -10 867 -33L810 -120Q969 -146 969 -284Q969 -380 897 -438Q825 -496 706 -496Q599 -496 520 -460L548 -327Q613 -354 690 -354Q734 -354 758 -339Q782 -324 782 -296Q782 -235 666 -235L609 -235L626 -119L683 -31Q451 -2 315.5 158Q180 318 180 568Q180 831 282 1039.5Q384 1248 565 1364Q746 1480 973 1480Q1136 1480 1269.5 1414Q1403 1348 1479 1232Q1555 1116 1555 975Q1555 947 1553 932Z" />
<glyph glyph-name="Egrave" unicode="&#xc8;" horiz-adv-x="1274" d="M1109 258L1057 0L100 0L407 1443L1363 1443L1310 1185L658 1185L583 848L1199 848L1149 609L534 609L456 258ZM789 1590L587 1908L889 1908L1051 1590Z" />
<glyph glyph-name="Eacute" unicode="&#xc9;" horiz-adv-x="1274" d="M1109 258L1057 0L100 0L407 1443L1363 1443L1310 1185L658 1185L583 848L1199 848L1149 609L534 609L456 258ZM1046 1590L769 1590L1112 1908L1427 1908Z" />
<glyph glyph-name="Ecircumflex" unicode="&#xca;" horiz-adv-x="1274" d="M1109 258L1057 0L100 0L407 1443L1363 1443L1310 1185L658 1185L583 848L1199 848L1149 609L534 609L456 258ZM1121 1925L1308 1590L1059 1590L967 1781L949 1781L777 1590L502 1590L830 1925Z" />
<glyph glyph-name="Edieresis" unicode="&#xcb;" horiz-adv-x="1274" d="M1109 258L1057 0L100 0L407 1443L1363 1443L1310 1185L658 1185L583 848L1199 848L1149 609L534 609L456 258ZM713 1579Q645 1579 601 1622Q557 1665 557 1731Q557 1797 601 1839.5Q645 1882 713 1882Q780 1882 824 1839.5Q868 1797 868 1731Q868 1665 824 1622Q780 1579 713 1579ZM1180 1579Q1113 1579 1069 1622Q1025 1665 1025 1731Q1025 1797 1069 1839.5Q1113 1882 1180 1882Q1248 1882 1292 1839.5Q1336 1797 1336 1731Q1336 1665 1292 1622Q1248 1579 1180 1579Z" />
<glyph glyph-name="Igrave" unicode="&#xcc;" horiz-adv-x="653" d="M404 0L100 0L407 1443L711 1443ZM463 1590L261 1908L563 1908L725 1590Z" />
<glyph glyph-name="Iacute" unicode="&#xcd;" horiz-adv-x="653" d="M404 0L100 0L407 1443L711 1443ZM720 1590L443 1590L786 1908L1101 1908Z" />
<glyph glyph-name="Icircumflex" unicode="&#xce;" horiz-adv-x="653" d="M404 0L100 0L407 1443L711 1443ZM795 1925L982 1590L733 1590L641 1781L623 1781L451 1590L176 1590L504 1925Z" />
<glyph glyph-name="Idieresis" unicode="&#xcf;" horiz-adv-x="653" d="M404 0L100 0L407 1443L711 1443ZM387 1579Q319 1579 275 1622Q231 1665 231 1731Q231 1797 275 1839.5Q319 1882 387 1882Q454 1882 498 1839.5Q542 1797 542 1731Q542 1665 498 1622Q454 1579 387 1579ZM854 1579Q787 1579 743 1622Q699 1665 699 1731Q699 1797 743 1839.5Q787 1882 854 1882Q922 1882 966 1839.5Q1010 1797 1010 1731Q1010 1665 966 1622Q922 1579 854 1579Z" />
<glyph glyph-name="Eth" unicode="&#xd0;" horiz-adv-x="1535" d="M459 257L729 257Q934 257 1066 414Q1198 571 1198 822Q1198 992 1106 1089.5Q1014 1187 851 1187L660 1187L586 845L786 845L739 618L537 618ZM407 1443L918 1443Q1194 1443 1351.5 1287.5Q1509 1132 1509 856Q1509 611 1412.5 415.5Q1316 220 1144 110Q972 0 756 0L101 0L232 618L80 618L127 845L280 845Z" />
<glyph glyph-name="Ntilde" unicode="&#xd1;" horiz-adv-x="1573" d="M393 0L100 0L407 1443L638 1443L1117 514L1135 514L1337 1443L1630 1443L1323 0L1094 0L611 922L593 922ZM1215 1572Q1169 1572 1129 1589Q1089 1606 1061.5 1630Q1034 1654 1010.5 1678Q987 1702 962.5 1719Q938 1736 915 1736Q839 1736 820 1612L636 1612Q653 1747 728 1828Q803 1909 909 1909Q955 1909 995 1892Q1035 1875 1062 1851Q1089 1827 1112.5 1803Q1136 1779 1160.5 1762Q1185 1745 1208 1745Q1285 1745 1304 1869L1488 1869Q1471 1733 1396 1652.5Q1321 1572 1215 1572Z" />
<glyph glyph-name="Ograve" unicode="&#xd2;" horiz-adv-x="1618" d="M959 1209Q830 1209 722.5 1128.5Q615 1048 553 907.5Q491 767 491 598Q491 433 580.5 333Q670 233 817 233Q946 233 1053 312.5Q1160 392 1221.5 532.5Q1283 673 1283 844Q1283 1009 1194 1109Q1105 1209 959 1209ZM805 -37Q620 -37 477 43Q334 123 257.5 262.5Q181 402 181 576Q181 733 220 873.5Q259 1014 330.5 1124Q402 1234 499 1314.5Q596 1395 717 1437.5Q838 1480 971 1480Q1253 1480 1423 1307Q1593 1134 1593 867Q1593 670 1532.5 501Q1472 332 1367.5 214Q1263 96 1117.5 29.5Q972 -37 805 -37ZM876 1589L674 1907L976 1907L1138 1589Z" />
<glyph glyph-name="Oacute" unicode="&#xd3;" horiz-adv-x="1618" d="M959 1209Q830 1209 722.5 1128.5Q615 1048 553 907.5Q491 767 491 598Q491 433 580.5 333Q670 233 817 233Q946 233 1053 312.5Q1160 392 1221.5 532.5Q1283 673 1283 844Q1283 1009 1194 1109Q1105 1209 959 1209ZM805 -37Q620 -37 477 43Q334 123 257.5 262.5Q181 402 181 576Q181 733 220 873.5Q259 1014 330.5 1124Q402 1234 499 1314.5Q596 1395 717 1437.5Q838 1480 971 1480Q1253 1480 1423 1307Q1593 1134 1593 867Q1593 670 1532.5 501Q1472 332 1367.5 214Q1263 96 1117.5 29.5Q972 -37 805 -37ZM1133 1589L856 1589L1199 1907L1514 1907Z" />
<glyph glyph-name="Ocircumflex" unicode="&#xd4;" horiz-adv-x="1618" d="M959 1209Q830 1209 722.5 1128.5Q615 1048 553 907.5Q491 767 491 598Q491 433 580.5 333Q670 233 817 233Q946 233 1053 312.5Q1160 392 1221.5 532.5Q1283 673 1283 844Q1283 1009 1194 1109Q1105 1209 959 1209ZM805 -37Q620 -37 477 43Q334 123 257.5 262.5Q181 402 181 576Q181 733 220 873.5Q259 1014 330.5 1124Q402 1234 499 1314.5Q596 1395 717 1437.5Q838 1480 971 1480Q1253 1480 1423 1307Q1593 1134 1593 867Q1593 670 1532.5 501Q1472 332 1367.5 214Q1263 96 1117.5 29.5Q972 -37 805 -37ZM1208 1924L1395 1589L1146 1589L1054 1780L1036 1780L864 1589L589 1589L917 1924Z" />
<glyph glyph-name="Otilde" unicode="&#xd5;" horiz-adv-x="1618" d="M959 1209Q830 1209 722.5 1128.5Q615 1048 553 907.5Q491 767 491 598Q491 433 580.5 333Q670 233 817 233Q946 233 1053 312.5Q1160 392 1221.5 532.5Q1283 673 1283 844Q1283 1009 1194 1109Q1105 1209 959 1209ZM805 -37Q620 -37 477 43Q334 123 257.5 262.5Q181 402 181 576Q181 733 220 873.5Q259 1014 330.5 1124Q402 1234 499 1314.5Q596 1395 717 1437.5Q838 1480 971 1480Q1253 1480 1423 1307Q1593 1134 1593 867Q1593 670 1532.5 501Q1472 332 1367.5 214Q1263 96 1117.5 29.5Q972 -37 805 -37ZM1187 1571Q1141 1571 1101 1588Q1061 1605 1033.5 1629Q1006 1653 982.5 1677Q959 1701 934.5 1718Q910 1735 887 1735Q811 1735 792 1611L608 1611Q625 1746 700 1827Q775 1908 881 1908Q927 1908 967 1891Q1007 1874 1034 1850Q1061 1826 1084.5 1802Q1108 1778 1132.5 1761Q1157 1744 1180 1744Q1257 1744 1276 1868L1460 1868Q1443 1732 1368 1651.5Q1293 1571 1187 1571Z" />
<glyph glyph-name="Odieresis" unicode="&#xd6;" horiz-adv-x="1618" d="M959 1209Q830 1209 722.5 1128.5Q615 1048 553 907.5Q491 767 491 598Q491 433 580.5 333Q670 233 817 233Q946 233 1053 312.5Q1160 392 1221.5 532.5Q1283 673 1283 844Q1283 1009 1194 1109Q1105 1209 959 1209ZM805 -37Q620 -37 477 43Q334 123 257.5 262.5Q181 402 181 576Q181 733 220 873.5Q259 1014 330.5 1124Q402 1234 499 1314.5Q596 1395 717 1437.5Q838 1480 971 1480Q1253 1480 1423 1307Q1593 1134 1593 867Q1593 670 1532.5 501Q1472 332 1367.5 214Q1263 96 1117.5 29.5Q972 -37 805 -37ZM800 1578Q732 1578 688 1621Q644 1664 644 1730Q644 1796 688 1838.5Q732 1881 800 1881Q867 1881 911 1838.5Q955 1796 955 1730Q955 1664 911 1621Q867 1578 800 1578ZM1267 1578Q1200 1578 1156 1621Q1112 1664 1112 1730Q1112 1796 1156 1838.5Q1200 1881 1267 1881Q1335 1881 1379 1838.5Q1423 1796 1423 1730Q1423 1664 1379 1621Q1335 1578 1267 1578Z" />
<glyph glyph-name="multiply" unicode="&#xd7;" horiz-adv-x="1415" d="M955 82L724 397L365 118L221 323L580 603L347 922L558 1078L786 769L1147 1048L1291 842L931 562L1166 238Z" />
<glyph glyph-name="Oslash" unicode="&#xd8;" horiz-adv-x="1592" d="M1212 1087L667 267Q735 233 817 233Q946 233 1053 312.5Q1160 392 1221.5 532.5Q1283 673 1283 844Q1283 989 1212 1087ZM572 343L1119 1169Q1048 1209 959 1209Q830 1209 722.5 1128.5Q615 1048 553 907.5Q491 767 491 598Q491 441 572 343ZM1451 1448L1382 1344Q1483 1261 1538 1137.5Q1593 1014 1593 867Q1593 670 1532.5 501Q1472 332 1367.5 214Q1263 96 1117.5 29.5Q972 -37 805 -37Q642 -37 508 27L445 -68L343 -2L405 91Q298 174 239.5 299.5Q181 425 181 576Q181 733 220 873.5Q259 1014 330.5 1124Q402 1234 499 1314.5Q596 1395 717 1437.5Q838 1480 971 1480Q1143 1480 1279 1411L1343 1507Z" />
<glyph glyph-name="Ugrave" unicode="&#xd9;" horiz-adv-x="1564" d="M776 -37Q515 -37 363 94Q211 225 210 433Q210 497 223 559L410 1443L715 1443L529 566Q517 510 518 464Q520 356 593 295Q666 234 794 234Q921 234 1008 306.5Q1095 379 1124 513L1322 1443L1626 1443L1415 446Q1367 217 1200 90Q1033 -37 776 -37ZM918 1590L716 1908L1018 1908L1180 1590Z" />
<glyph glyph-name="Uacute" unicode="&#xda;" horiz-adv-x="1564" d="M776 -37Q515 -37 363 94Q211 225 210 433Q210 497 223 559L410 1443L715 1443L529 566Q517 510 518 464Q520 356 593 295Q666 234 794 234Q921 234 1008 306.5Q1095 379 1124 513L1322 1443L1626 1443L1415 446Q1367 217 1200 90Q1033 -37 776 -37ZM1175 1590L898 1590L1241 1908L1556 1908Z" />
<glyph glyph-name="Ucircumflex" unicode="&#xdb;" horiz-adv-x="1564" d="M776 -37Q515 -37 363 94Q211 225 210 433Q210 497 223 559L410 1443L715 1443L529 566Q517 510 518 464Q520 356 593 295Q666 234 794 234Q921 234 1008 306.5Q1095 379 1124 513L1322 1443L1626 1443L1415 446Q1367 217 1200 90Q1033 -37 776 -37ZM1250 1925L1437 1590L1188 1590L1096 1781L1078 1781L906 1590L631 1590L959 1925Z" />
<glyph glyph-name="Udieresis" unicode="&#xdc;" horiz-adv-x="1564" d="M776 -37Q515 -37 363 94Q211 225 210 433Q210 497 223 559L410 1443L715 1443L529 566Q517 510 518 464Q520 356 593 295Q666 234 794 234Q921 234 1008 306.5Q1095 379 1124 513L1322 1443L1626 1443L1415 446Q1367 217 1200 90Q1033 -37 776 -37ZM842 1579Q774 1579 730 1622Q686 1665 686 1731Q686 1797 730 1839.5Q774 1882 842 1882Q909 1882 953 1839.5Q997 1797 997 1731Q997 1665 953 1622Q909 1579 842 1579ZM1309 1579Q1242 1579 1198 1622Q1154 1665 1154 1731Q1154 1797 1198 1839.5Q1242 1882 1309 1882Q1377 1882 1421 1839.5Q1465 1797 1465 1731Q1465 1665 1421 1622Q1377 1579 1309 1579Z" />
<glyph glyph-name="Yacute" unicode="&#xdd;" horiz-adv-x="1451" d="M804 0L500 0L614 531L304 1443L620 1443L816 836L834 836L1281 1443L1611 1443L914 519ZM1116 1590L839 1590L1182 1908L1497 1908Z" />
<glyph glyph-name="Thorn" unicode="&#xde;" horiz-adv-x="1382" d="M101 0L408 1443L710 1443L660 1211L930 1211Q1118 1211 1239 1099Q1360 987 1360 814Q1360 666 1287 546.5Q1214 427 1081 358.5Q948 290 779 290L465 290L402 0ZM607 963L515 536L752 536Q893 536 974.5 602.5Q1056 669 1056 782Q1056 869 999.5 916Q943 963 835 963Z" />
<glyph glyph-name="germandbls" unicode="&#xdf;" horiz-adv-x="1406" d="M394 0L103 0L337 1088Q373 1255 511.5 1352Q650 1449 852 1449Q1063 1449 1197.5 1345Q1332 1241 1332 1078Q1332 948 1247 852.5Q1162 757 1030 737L1026 718Q1161 694 1237 615Q1313 536 1313 416Q1313 221 1172 102Q1031 -17 806 -17Q662 -17 554 23L604 257Q677 223 771 223Q880 223 951 281.5Q1022 340 1022 431Q1022 512 955 556.5Q888 601 771 601L696 601L746 846L821 846Q913 846 977 899.5Q1041 953 1041 1032Q1041 1109 986 1156.5Q931 1204 843 1204Q751 1204 689 1147.5Q627 1091 605 986Z" />
<glyph glyph-name="agrave" unicode="&#xe0;" horiz-adv-x="1202" d="M534 202Q627 202 699 254Q771 306 789 386L810 481L582 473Q482 469 425.5 430Q369 391 369 326Q369 271 415 236.5Q461 202 534 202ZM411 -17Q271 -17 177 69Q83 155 83 284Q83 452 212.5 550.5Q342 649 574 656L848 665L863 733Q868 758 868 773Q868 830 819 863.5Q770 897 686 897Q539 897 494 799L219 799Q254 950 386.5 1038.5Q519 1127 707 1127Q909 1127 1032 1037.5Q1155 948 1155 802Q1155 752 1146 713L995 0L712 0L741 136L723 136Q676 65 592 24Q508 -17 411 -17ZM903 1281L642 1281L431 1634L730 1634Z" />
<glyph glyph-name="aacute" unicode="&#xe1;" horiz-adv-x="1202" d="M534 202Q627 202 699 254Q771 306 789 386L810 481L582 473Q482 469 425.5 430Q369 391 369 326Q369 271 415 236.5Q461 202 534 202ZM411 -17Q271 -17 177 69Q83 155 83 284Q83 452 212.5 550.5Q342 649 574 656L848 665L863 733Q868 758 868 773Q868 830 819 863.5Q770 897 686 897Q539 897 494 799L219 799Q254 950 386.5 1038.5Q519 1127 707 1127Q909 1127 1032 1037.5Q1155 948 1155 802Q1155 752 1146 713L995 0L712 0L741 136L723 136Q676 65 592 24Q508 -17 411 -17ZM923 1281L647 1281L970 1634L1284 1634Z" />
<glyph glyph-name="acircumflex" unicode="&#xe2;" horiz-adv-x="1202" d="M534 202Q627 202 699 254Q771 306 789 386L810 481L582 473Q482 469 425.5 430Q369 391 369 326Q369 271 415 236.5Q461 202 534 202ZM411 -17Q271 -17 177 69Q83 155 83 284Q83 452 212.5 550.5Q342 649 574 656L848 665L863 733Q868 758 868 773Q868 830 819 863.5Q770 897 686 897Q539 897 494 799L219 799Q254 950 386.5 1038.5Q519 1127 707 1127Q909 1127 1032 1037.5Q1155 948 1155 802Q1155 752 1146 713L995 0L712 0L741 136L723 136Q676 65 592 24Q508 -17 411 -17ZM958 1605L1158 1251L908 1251L804 1460L786 1460L593 1251L317 1251L667 1605Z" />
<glyph glyph-name="atilde" unicode="&#xe3;" horiz-adv-x="1202" d="M534 202Q627 202 699 254Q771 306 789 386L810 481L582 473Q482 469 425.5 430Q369 391 369 326Q369 271 415 236.5Q461 202 534 202ZM411 -17Q271 -17 177 69Q83 155 83 284Q83 452 212.5 550.5Q342 649 574 656L848 665L863 733Q868 758 868 773Q868 830 819 863.5Q770 897 686 897Q539 897 494 799L219 799Q254 950 386.5 1038.5Q519 1127 707 1127Q909 1127 1032 1037.5Q1155 948 1155 802Q1155 752 1146 713L995 0L712 0L741 136L723 136Q676 65 592 24Q508 -17 411 -17ZM948 1247Q902 1247 862 1264Q822 1281 794.5 1305Q767 1329 743.5 1353Q720 1377 695.5 1394Q671 1411 648 1411Q572 1411 553 1287L369 1287Q386 1422 461 1503Q536 1584 642 1584Q688 1584 728 1567Q768 1550 795 1526Q822 1502 845.5 1478Q869 1454 893.5 1437Q918 1420 941 1420Q1018 1420 1037 1544L1221 1544Q1204 1408 1129 1327.5Q1054 1247 948 1247Z" />
<glyph glyph-name="adieresis" unicode="&#xe4;" horiz-adv-x="1202" d="M534 202Q627 202 699 254Q771 306 789 386L810 481L582 473Q482 469 425.5 430Q369 391 369 326Q369 271 415 236.5Q461 202 534 202ZM411 -17Q271 -17 177 69Q83 155 83 284Q83 452 212.5 550.5Q342 649 574 656L848 665L863 733Q868 758 868 773Q868 830 819 863.5Q770 897 686 897Q539 897 494 799L219 799Q254 950 386.5 1038.5Q519 1127 707 1127Q909 1127 1032 1037.5Q1155 948 1155 802Q1155 752 1146 713L995 0L712 0L741 136L723 136Q676 65 592 24Q508 -17 411 -17ZM548 1251Q480 1251 436 1294Q392 1337 392 1403Q392 1469 436 1511.5Q480 1554 548 1554Q615 1554 659 1511.5Q703 1469 703 1403Q703 1337 659 1294Q615 1251 548 1251ZM1015 1251Q948 1251 904 1294Q860 1337 860 1403Q860 1469 904 1511.5Q948 1554 1015 1554Q1083 1554 1127 1511.5Q1171 1469 1171 1403Q1171 1337 1127 1294Q1083 1251 1015 1251Z" />
<glyph glyph-name="aring" unicode="&#xe5;" horiz-adv-x="1202" d="M534 202Q627 202 699 254Q771 306 789 386L810 481L582 473Q482 469 425.5 430Q369 391 369 326Q369 271 415 236.5Q461 202 534 202ZM411 -17Q271 -17 177 69Q83 155 83 284Q83 452 212.5 550.5Q342 649 574 656L848 665L863 733Q868 758 868 773Q868 830 819 863.5Q770 897 686 897Q539 897 494 799L219 799Q254 950 386.5 1038.5Q519 1127 707 1127Q909 1127 1032 1037.5Q1155 948 1155 802Q1155 752 1146 713L995 0L712 0L741 136L723 136Q676 65 592 24Q508 -17 411 -17ZM1012 1319.5Q1012 1319.5 977 1285.25Q942 1251 837 1251Q732 1251 661.5 1319.5Q591 1388 591 1492Q591 1595 661 1662.5Q731 1730 837 1730Q942 1730 1012 1662.5Q1082 1595 1082 1492Q1082 1388 1012 1319.5ZM760.5 1416Q760.5 1416 775.25 1401.5Q790 1387 836 1387Q882 1387 912 1416.5Q942 1446 942 1491Q942 1535 912 1564.5Q882 1594 836 1594Q790 1594 760.5 1564.5Q731 1535 731 1491Q731 1445 760.5 1416Z" />
<glyph glyph-name="ae" unicode="&#xe6;" horiz-adv-x="1925" d="M1297 -24Q1174 -24 1064 32.5Q954 89 910 178L892 178Q834 91 721.5 33.5Q609 -24 477 -24Q306 -24 195.5 65.5Q85 155 85 288Q85 462 212.5 558.5Q340 655 576 663L850 672L865 733Q870 761 870 773Q870 830 821 863.5Q772 897 687 897Q540 897 496 799L221 799Q256 953 385.5 1040Q515 1127 703 1127Q818 1127 908 1085Q998 1043 1040 971L1058 971Q1126 1046 1218.5 1086.5Q1311 1127 1418 1127Q1611 1127 1741.5 999Q1872 871 1873 665Q1873 579 1855 485L1087 485Q1086 477 1086 453Q1086 332 1152 267.5Q1218 203 1318 203Q1479 203 1534 317L1815 317Q1776 163 1637 69.5Q1498 -24 1297 -24ZM1118 669L1597 669Q1600 678 1600 707Q1600 792 1545.5 847.5Q1491 903 1397 903Q1297 903 1222 839Q1147 775 1118 669ZM536 195Q628 195 700.5 250Q773 305 791 386L812 481L584 473Q484 469 427 430Q370 391 370 325Q370 269 416.5 232Q463 195 536 195Z" />
<glyph glyph-name="ccedilla" unicode="&#xe7;" horiz-adv-x="1214" d="M1198 723L922 723Q918 799 862.5 843.5Q807 888 723 888Q592 888 508 766Q424 644 424 463Q424 343 482 280Q540 217 632 217Q714 217 773 257.5Q832 298 857 373L1136 373Q1109 214 985 104Q861 -6 672 -22L608 -120Q767 -146 767 -284Q767 -380 695 -438Q623 -496 504 -496Q397 -496 318 -460L346 -327Q411 -354 488 -354Q532 -354 556 -339Q580 -324 580 -296Q580 -235 464 -235L407 -235L424 -119L493 -13Q325 21 229 141Q133 261 133 441Q133 636 209 792Q285 948 424.5 1037.5Q564 1127 742 1127Q935 1127 1059 1020Q1183 913 1196 766Q1198 753 1198 723Z" />
<glyph glyph-name="egrave" unicode="&#xe8;" horiz-adv-x="1248" d="M443 669L922 669Q925 687 925 707Q925 792 870 847.5Q815 903 721 903Q622 903 547 839Q472 775 443 669ZM624 -24Q406 -24 271 103Q136 230 136 450Q136 752 302 939.5Q468 1127 733 1127Q934 1127 1066 1000Q1198 873 1198 665Q1198 583 1181 485L411 485Q411 481 410.5 469.5Q410 458 410 454Q410 332 476 267.5Q542 203 642 203Q805 203 860 317L1140 317Q1102 163 963.5 69.5Q825 -24 624 -24ZM877 1281L616 1281L405 1634L704 1634Z" />
<glyph glyph-name="eacute" unicode="&#xe9;" horiz-adv-x="1248" d="M443 669L922 669Q925 687 925 707Q925 792 870 847.5Q815 903 721 903Q622 903 547 839Q472 775 443 669ZM624 -24Q406 -24 271 103Q136 230 136 450Q136 752 302 939.5Q468 1127 733 1127Q934 1127 1066 1000Q1198 873 1198 665Q1198 583 1181 485L411 485Q411 481 410.5 469.5Q410 458 410 454Q410 332 476 267.5Q542 203 642 203Q805 203 860 317L1140 317Q1102 163 963.5 69.5Q825 -24 624 -24ZM897 1281L621 1281L944 1634L1258 1634Z" />
<glyph glyph-name="ecircumflex" unicode="&#xea;" horiz-adv-x="1248" d="M443 669L922 669Q925 687 925 707Q925 792 870 847.5Q815 903 721 903Q622 903 547 839Q472 775 443 669ZM624 -24Q406 -24 271 103Q136 230 136 450Q136 752 302 939.5Q468 1127 733 1127Q934 1127 1066 1000Q1198 873 1198 665Q1198 583 1181 485L411 485Q411 481 410.5 469.5Q410 458 410 454Q410 332 476 267.5Q542 203 642 203Q805 203 860 317L1140 317Q1102 163 963.5 69.5Q825 -24 624 -24ZM967 1605L1167 1251L917 1251L813 1460L795 1460L602 1251L326 1251L676 1605Z" />
<glyph glyph-name="edieresis" unicode="&#xeb;" horiz-adv-x="1248" d="M443 669L922 669Q925 687 925 707Q925 792 870 847.5Q815 903 721 903Q622 903 547 839Q472 775 443 669ZM624 -24Q406 -24 271 103Q136 230 136 450Q136 752 302 939.5Q468 1127 733 1127Q934 1127 1066 1000Q1198 873 1198 665Q1198 583 1181 485L411 485Q411 481 410.5 469.5Q410 458 410 454Q410 332 476 267.5Q542 203 642 203Q805 203 860 317L1140 317Q1102 163 963.5 69.5Q825 -24 624 -24ZM557 1251Q489 1251 445 1294Q401 1337 401 1403Q401 1469 445 1511.5Q489 1554 557 1554Q624 1554 668 1511.5Q712 1469 712 1403Q712 1337 668 1294Q624 1251 557 1251ZM1024 1251Q957 1251 913 1294Q869 1337 869 1403Q869 1469 913 1511.5Q957 1554 1024 1554Q1092 1554 1136 1511.5Q1180 1469 1180 1403Q1180 1337 1136 1294Q1092 1251 1024 1251Z" />
<glyph glyph-name="igrave" unicode="&#xec;" horiz-adv-x="599" d="M79 0L313 1103L604 1103L370 0ZM608 1281L347 1281L136 1634L435 1634Z" />
<glyph glyph-name="iacute" unicode="&#xed;" horiz-adv-x="599" d="M79 0L313 1103L604 1103L370 0ZM628 1281L352 1281L675 1634L989 1634Z" />
<glyph glyph-name="icircumflex" unicode="&#xee;" horiz-adv-x="599" d="M79 0L313 1103L604 1103L370 0ZM698 1605L898 1251L648 1251L544 1460L526 1460L333 1251L57 1251L407 1605Z" />
<glyph glyph-name="idieresis" unicode="&#xef;" horiz-adv-x="599" d="M79 0L313 1103L604 1103L370 0ZM288 1251Q220 1251 176 1294Q132 1337 132 1403Q132 1469 176 1511.5Q220 1554 288 1554Q355 1554 399 1511.5Q443 1469 443 1403Q443 1337 399 1294Q355 1251 288 1251ZM755 1251Q688 1251 644 1294Q600 1337 600 1403Q600 1469 644 1511.5Q688 1554 755 1554Q823 1554 867 1511.5Q911 1469 911 1403Q911 1337 867 1294Q823 1251 755 1251Z" />
<glyph glyph-name="eth" unicode="&#xf0;" horiz-adv-x="1301" d="M633 -24Q412 -24 270 109.5Q128 243 128 448Q128 622 196 764.5Q264 907 384.5 988.5Q505 1070 652 1070Q757 1070 846 1026Q935 982 970 913L988 912Q980 1063 886 1226L574 1132L550 1283L794 1357Q735 1427 634 1514L964 1514Q1012 1466 1036 1435L1289 1515L1314 1363L1126 1305Q1270 1057 1270 782Q1270 614 1228 475Q1160 243 1002 109.5Q844 -24 633 -24ZM956 609Q956 714 892 779.5Q828 845 727 845Q605 845 518 731.5Q431 618 431 460Q431 352 491 288Q551 224 652 224Q771 224 863.5 341Q956 458 956 609Z" />
<glyph glyph-name="ntilde" unicode="&#xf1;" horiz-adv-x="1285" d="M67 0L302 1103L585 1103L547 928L565 928Q686 1121 904 1121Q1054 1121 1143.5 1029.5Q1233 938 1233 798Q1233 738 1218 667L1077 0L786 0L918 619Q928 665 928 703Q928 780 880.5 828Q833 876 749 876Q654 876 587 813.5Q520 751 498 650L359 0ZM1025 1247Q979 1247 939 1264Q899 1281 871.5 1305Q844 1329 820.5 1353Q797 1377 772.5 1394Q748 1411 725 1411Q649 1411 630 1287L446 1287Q463 1422 538 1503Q613 1584 719 1584Q765 1584 805 1567Q845 1550 872 1526Q899 1502 922.5 1478Q946 1454 970.5 1437Q995 1420 1018 1420Q1095 1420 1114 1544L1298 1544Q1281 1408 1206 1327.5Q1131 1247 1025 1247Z" />
<glyph glyph-name="ograve" unicode="&#xf2;" horiz-adv-x="1289" d="M645 215Q767 215 855 337Q943 459 943 628Q943 751 890 820Q837 889 742 889Q612 889 525 768Q438 647 438 467Q438 351 494 283Q550 215 645 215ZM758 1127Q979 1127 1113.5 995Q1248 863 1248 644Q1248 455 1167.5 302Q1087 149 945 62.5Q803 -24 628 -24Q406 -24 270.5 108.5Q135 241 135 458Q135 648 215.5 801Q296 954 438.5 1040.5Q581 1127 758 1127ZM898 1281L637 1281L426 1634L725 1634Z" />
<glyph glyph-name="oacute" unicode="&#xf3;" horiz-adv-x="1289" d="M645 215Q767 215 855 337Q943 459 943 628Q943 751 890 820Q837 889 742 889Q612 889 525 768Q438 647 438 467Q438 351 494 283Q550 215 645 215ZM758 1127Q979 1127 1113.5 995Q1248 863 1248 644Q1248 455 1167.5 302Q1087 149 945 62.5Q803 -24 628 -24Q406 -24 270.5 108.5Q135 241 135 458Q135 648 215.5 801Q296 954 438.5 1040.5Q581 1127 758 1127ZM918 1281L642 1281L965 1634L1279 1634Z" />
<glyph glyph-name="ocircumflex" unicode="&#xf4;" horiz-adv-x="1289" d="M645 215Q767 215 855 337Q943 459 943 628Q943 751 890 820Q837 889 742 889Q612 889 525 768Q438 647 438 467Q438 351 494 283Q550 215 645 215ZM758 1127Q979 1127 1113.5 995Q1248 863 1248 644Q1248 455 1167.5 302Q1087 149 945 62.5Q803 -24 628 -24Q406 -24 270.5 108.5Q135 241 135 458Q135 648 215.5 801Q296 954 438.5 1040.5Q581 1127 758 1127ZM988 1605L1188 1251L938 1251L834 1460L816 1460L623 1251L347 1251L697 1605Z" />
<glyph glyph-name="otilde" unicode="&#xf5;" horiz-adv-x="1289" d="M645 215Q767 215 855 337Q943 459 943 628Q943 751 890 820Q837 889 742 889Q612 889 525 768Q438 647 438 467Q438 351 494 283Q550 215 645 215ZM758 1127Q979 1127 1113.5 995Q1248 863 1248 644Q1248 455 1167.5 302Q1087 149 945 62.5Q803 -24 628 -24Q406 -24 270.5 108.5Q135 241 135 458Q135 648 215.5 801Q296 954 438.5 1040.5Q581 1127 758 1127ZM978 1247Q932 1247 892 1264Q852 1281 824.5 1305Q797 1329 773.5 1353Q750 1377 725.5 1394Q701 1411 678 1411Q602 1411 583 1287L399 1287Q416 1422 491 1503Q566 1584 672 1584Q718 1584 758 1567Q798 1550 825 1526Q852 1502 875.5 1478Q899 1454 923.5 1437Q948 1420 971 1420Q1048 1420 1067 1544L1251 1544Q1234 1408 1159 1327.5Q1084 1247 978 1247Z" />
<glyph glyph-name="odieresis" unicode="&#xf6;" horiz-adv-x="1289" d="M645 215Q767 215 855 337Q943 459 943 628Q943 751 890 820Q837 889 742 889Q612 889 525 768Q438 647 438 467Q438 351 494 283Q550 215 645 215ZM758 1127Q979 1127 1113.5 995Q1248 863 1248 644Q1248 455 1167.5 302Q1087 149 945 62.5Q803 -24 628 -24Q406 -24 270.5 108.5Q135 241 135 458Q135 648 215.5 801Q296 954 438.5 1040.5Q581 1127 758 1127ZM578 1251Q510 1251 466 1294Q422 1337 422 1403Q422 1469 466 1511.5Q510 1554 578 1554Q645 1554 689 1511.5Q733 1469 733 1403Q733 1337 689 1294Q645 1251 578 1251ZM1045 1251Q978 1251 934 1294Q890 1337 890 1403Q890 1469 934 1511.5Q978 1554 1045 1554Q1113 1554 1157 1511.5Q1201 1469 1201 1403Q1201 1337 1157 1294Q1113 1251 1045 1251Z" />
<glyph glyph-name="divide" unicode="&#xf7;" horiz-adv-x="1415" d="M1274 472L194 472L241 697L1321 697ZM951 861Q951 861 928.5 837.5Q906 814 831 814Q756 814 710.5 859.5Q665 905 665 971Q665 1044 710.5 1091Q756 1138 831 1138Q905 1138 950.5 1092.5Q996 1047 996 981Q996 908 951 861ZM786 77Q786 77 763.5 53.5Q741 30 666 30Q591 30 545.5 75.5Q500 121 500 187Q500 260 545.5 307.5Q591 355 666 355Q740 355 785.5 309Q831 263 831 197Q831 124 786 77Z" />
<glyph glyph-name="oslash" unicode="&#xf8;" horiz-adv-x="1299" d="M924 754L514 262Q566 215 645 215Q767 215 855 337Q943 459 943 628Q943 701 924 754ZM453 359L862 849Q813 889 742 889Q612 889 525 768Q438 647 438 467Q438 407 453 359ZM1225 1114L1120 988Q1248 857 1248 644Q1248 455 1167.5 302Q1087 149 945 62.5Q803 -24 628 -24Q464 -24 340 53L235 -73L145 -10L256 123Q135 255 135 458Q135 648 215.5 801Q296 954 438.5 1040.5Q581 1127 758 1127Q918 1127 1035 1056L1132 1172Z" />
<glyph glyph-name="ugrave" unicode="&#xf9;" horiz-adv-x="1285" d="M1302 1103L1069 0L786 0L822 167L804 167Q696 -24 476 -24Q325 -24 232 64Q139 152 139 298Q139 356 154 439L293 1103L586 1103L455 487Q445 440 445 401Q445 228 619 228Q717 228 783.5 290.5Q850 353 873 459L1010 1103ZM943 1281L682 1281L471 1634L770 1634Z" />
<glyph glyph-name="uacute" unicode="&#xfa;" horiz-adv-x="1285" d="M1302 1103L1069 0L786 0L822 167L804 167Q696 -24 476 -24Q325 -24 232 64Q139 152 139 298Q139 356 154 439L293 1103L586 1103L455 487Q445 440 445 401Q445 228 619 228Q717 228 783.5 290.5Q850 353 873 459L1010 1103ZM963 1281L687 1281L1010 1634L1324 1634Z" />
<glyph glyph-name="ucircumflex" unicode="&#xfb;" horiz-adv-x="1285" d="M1302 1103L1069 0L786 0L822 167L804 167Q696 -24 476 -24Q325 -24 232 64Q139 152 139 298Q139 356 154 439L293 1103L586 1103L455 487Q445 440 445 401Q445 228 619 228Q717 228 783.5 290.5Q850 353 873 459L1010 1103ZM1033 1605L1233 1251L983 1251L879 1460L861 1460L668 1251L392 1251L742 1605Z" />
<glyph glyph-name="udieresis" unicode="&#xfc;" horiz-adv-x="1285" d="M1302 1103L1069 0L786 0L822 167L804 167Q696 -24 476 -24Q325 -24 232 64Q139 152 139 298Q139 356 154 439L293 1103L586 1103L455 487Q445 440 445 401Q445 228 619 228Q717 228 783.5 290.5Q850 353 873 459L1010 1103ZM623 1251Q555 1251 511 1294Q467 1337 467 1403Q467 1469 511 1511.5Q555 1554 623 1554Q690 1554 734 1511.5Q778 1469 778 1403Q778 1337 734 1294Q690 1251 623 1251ZM1090 1251Q1023 1251 979 1294Q935 1337 935 1403Q935 1469 979 1511.5Q1023 1554 1090 1554Q1158 1554 1202 1511.5Q1246 1469 1246 1403Q1246 1337 1202 1294Q1158 1251 1090 1251Z" />
<glyph glyph-name="yacute" unicode="&#xfd;" horiz-adv-x="1208" d="M131 -403Q112 -403 57.5 -400Q3 -397 -4 -396L44 -163Q64 -169 126 -169Q277 -169 337 -47L359 -3L215 1103L512 1103L576 281L594 281L999 1103L1311 1103L681 -40Q575 -240 449.5 -321.5Q324 -403 131 -403ZM929 1281L653 1281L976 1634L1290 1634Z" />
<glyph glyph-name="thorn" unicode="&#xfe;" horiz-adv-x="1337" d="M680 230Q811 230 901 350.5Q991 471 991 649Q991 760 934.5 820Q878 880 785 880Q654 880 561 757.5Q468 635 468 465Q468 354 526.5 292Q585 230 680 230ZM407 200L290 -345L-2 -345L393 1507L684 1507L566 950L584 950Q705 1122 916 1122Q1081 1122 1187 1006Q1293 890 1293 699Q1293 496 1220 332Q1147 168 1020 75.5Q893 -17 738 -17Q621 -17 536.5 42.5Q452 102 425 200Z" />
<glyph glyph-name="ydieresis" unicode="&#xff;" horiz-adv-x="1208" d="M131 -403Q112 -403 57.5 -400Q3 -397 -4 -396L44 -163Q64 -169 126 -169Q277 -169 337 -47L359 -3L215 1103L512 1103L576 281L594 281L999 1103L1311 1103L681 -40Q575 -240 449.5 -321.5Q324 -403 131 -403ZM589 1251Q521 1251 477 1294Q433 1337 433 1403Q433 1469 477 1511.5Q521 1554 589 1554Q656 1554 700 1511.5Q744 1469 744 1403Q744 1337 700 1294Q656 1251 589 1251ZM1056 1251Q989 1251 945 1294Q901 1337 901 1403Q901 1469 945 1511.5Q989 1554 1056 1554Q1124 1554 1168 1511.5Q1212 1469 1212 1403Q1212 1337 1168 1294Q1124 1251 1056 1251Z" />
<glyph glyph-name="Amacron" unicode="&#x0100;" horiz-adv-x="1501" d="M916 1142L612 577L993 577L935 1142ZM1042 0L1007 344L498 344L312 0L-3 0L817 1443L1166 1443L1353 0ZM1442 1813L1404 1632L659 1632L696 1813Z" />
<glyph glyph-name="amacron" unicode="&#x0101;" horiz-adv-x="1202" d="M534 202Q627 202 699 254Q771 306 789 386L810 481L582 473Q482 469 425.5 430Q369 391 369 326Q369 271 415 236.5Q461 202 534 202ZM411 -17Q271 -17 177 69Q83 155 83 284Q83 452 212.5 550.5Q342 649 574 656L848 665L863 733Q868 758 868 773Q868 830 819 863.5Q770 897 686 897Q539 897 494 799L219 799Q254 950 386.5 1038.5Q519 1127 707 1127Q909 1127 1032 1037.5Q1155 948 1155 802Q1155 752 1146 713L995 0L712 0L741 136L723 136Q676 65 592 24Q508 -17 411 -17ZM1169 1496L1131 1316L396 1316L434 1496Z" />
<glyph glyph-name="Abreve" unicode="&#x0102;" horiz-adv-x="1501" d="M916 1142L612 577L993 577L935 1142ZM1042 0L1007 344L498 344L312 0L-3 0L817 1443L1166 1443L1353 0ZM659 1915L864 1915L864 1894Q864 1831 915.5 1790.5Q967 1750 1045 1750Q1127 1750 1179.5 1792.5Q1232 1835 1250 1915L1455 1915Q1433 1762 1321 1670.5Q1209 1579 1039 1579Q872 1579 764.5 1665.5Q657 1752 657 1884Q657 1895 659 1915Z" />
<glyph glyph-name="abreve" unicode="&#x0103;" horiz-adv-x="1202" d="M534 202Q627 202 699 254Q771 306 789 386L810 481L582 473Q482 469 425.5 430Q369 391 369 326Q369 271 415 236.5Q461 202 534 202ZM411 -17Q271 -17 177 69Q83 155 83 284Q83 452 212.5 550.5Q342 649 574 656L848 665L863 733Q868 758 868 773Q868 830 819 863.5Q770 897 686 897Q539 897 494 799L219 799Q254 950 386.5 1038.5Q519 1127 707 1127Q909 1127 1032 1037.5Q1155 948 1155 802Q1155 752 1146 713L995 0L712 0L741 136L723 136Q676 65 592 24Q508 -17 411 -17ZM403 1602L608 1602Q606 1586 606 1573Q606 1505 656 1463Q706 1421 788 1421Q878 1421 932.5 1467.5Q987 1514 1002 1602L1208 1602Q1192 1441 1078 1346Q964 1251 781 1251Q609 1251 504 1337.5Q399 1424 399 1556Q399 1582 403 1602Z" />
<glyph glyph-name="Aogonek" unicode="&#x0104;" horiz-adv-x="1501" d="M1232 -286L1197 -453Q1162 -466 1100 -466Q974 -466 896 -407Q818 -348 818 -253Q818 -173 878 -99.5Q938 -26 1040 13L1007 344L498 344L312 0L-3 0L817 1443L1166 1443L1353 0L1297 -5Q1192 -19 1123 -73Q1054 -127 1054 -195Q1054 -239 1089 -264.5Q1124 -290 1185 -290Q1220 -290 1232 -286ZM916 1142L612 577L993 577L935 1142Z" />
<glyph glyph-name="aogonek" unicode="&#x0105;" horiz-adv-x="1202" d="M534 202Q627 202 699 254Q771 306 789 386L810 481L582 473Q482 469 425.5 430Q369 391 369 326Q369 271 415 236.5Q461 202 534 202ZM880 -453Q842 -466 783 -466Q657 -466 579.5 -407Q502 -348 502 -253Q502 -173 559.5 -108Q617 -43 711 -7L741 136L723 136Q676 65 592 24Q508 -17 411 -17Q271 -17 177 69Q83 155 83 284Q83 452 212.5 550.5Q342 649 574 656L848 665L863 733Q868 758 868 773Q868 830 819 863.5Q770 897 686 897Q539 897 494 799L219 799Q254 950 386.5 1038.5Q519 1127 707 1127Q909 1127 1032 1037.5Q1155 948 1155 802Q1155 752 1146 713L994 -5L981 -6Q879 -22 808.5 -75Q738 -128 738 -195Q738 -239 773 -264.5Q808 -290 868 -290Q904 -290 915 -286Z" />
<glyph glyph-name="Cacute" unicode="&#x0106;" horiz-adv-x="1534" d="M1259 932L1259 946Q1254 1066 1170.5 1139Q1087 1212 954 1212Q825 1212 718 1131Q611 1050 550 907Q489 764 489 589Q489 423 573.5 326.5Q658 230 804 230Q927 230 1024 294Q1121 358 1156 464L1455 464Q1408 236 1224 99.5Q1040 -37 778 -37Q506 -37 343 128Q180 293 180 568Q180 831 282 1039.5Q384 1248 565 1364Q746 1480 973 1480Q1136 1480 1269.5 1414Q1403 1348 1479 1232Q1555 1116 1555 975Q1555 947 1553 932ZM1124 1591L847 1591L1190 1909L1505 1909Z" />
<glyph glyph-name="cacute" unicode="&#x0107;" horiz-adv-x="1218" d="M742 1127Q935 1127 1059 1020Q1183 913 1196 766Q1198 753 1198 723L922 723Q918 799 862.5 843.5Q807 888 723 888Q592 888 508 766Q424 644 424 463Q424 343 482 280Q540 217 632 217Q714 217 773 257.5Q832 298 857 373L1136 373Q1107 201 966.5 88.5Q826 -24 615 -24Q395 -24 264 102.5Q133 229 133 441Q133 636 209 792Q285 948 424.5 1037.5Q564 1127 742 1127ZM923 1281L647 1281L970 1634L1284 1634Z" />
<glyph glyph-name="Ccircumflex" unicode="&#x0108;" horiz-adv-x="1534" d="M1259 932L1259 946Q1254 1066 1170.5 1139Q1087 1212 954 1212Q825 1212 718 1131Q611 1050 550 907Q489 764 489 589Q489 423 573.5 326.5Q658 230 804 230Q927 230 1024 294Q1121 358 1156 464L1455 464Q1408 236 1224 99.5Q1040 -37 778 -37Q506 -37 343 128Q180 293 180 568Q180 831 282 1039.5Q384 1248 565 1364Q746 1480 973 1480Q1136 1480 1269.5 1414Q1403 1348 1479 1232Q1555 1116 1555 975Q1555 947 1553 932ZM1199 1926L1386 1591L1137 1591L1045 1782L1027 1782L855 1591L580 1591L908 1926Z" />
<glyph glyph-name="ccircumflex" unicode="&#x0109;" horiz-adv-x="1218" d="M742 1127Q935 1127 1059 1020Q1183 913 1196 766Q1198 753 1198 723L922 723Q918 799 862.5 843.5Q807 888 723 888Q592 888 508 766Q424 644 424 463Q424 343 482 280Q540 217 632 217Q714 217 773 257.5Q832 298 857 373L1136 373Q1107 201 966.5 88.5Q826 -24 615 -24Q395 -24 264 102.5Q133 229 133 441Q133 636 209 792Q285 948 424.5 1037.5Q564 1127 742 1127ZM993 1605L1193 1251L943 1251L839 1460L821 1460L628 1251L352 1251L702 1605Z" />
<glyph glyph-name="Cdotaccent" unicode="&#x010a;" horiz-adv-x="1534" d="M1259 932L1259 946Q1254 1066 1170.5 1139Q1087 1212 954 1212Q825 1212 718 1131Q611 1050 550 907Q489 764 489 589Q489 423 573.5 326.5Q658 230 804 230Q927 230 1024 294Q1121 358 1156 464L1455 464Q1408 236 1224 99.5Q1040 -37 778 -37Q506 -37 343 128Q180 293 180 568Q180 831 282 1039.5Q384 1248 565 1364Q746 1480 973 1480Q1136 1480 1269.5 1414Q1403 1348 1479 1232Q1555 1116 1555 975Q1555 947 1553 932ZM1141 1625Q1141 1625 1119 1602.5Q1097 1580 1028 1580Q959 1580 914.5 1625Q870 1670 870 1738Q870 1806 914.5 1851Q959 1896 1028 1896Q1097 1896 1141 1851Q1185 1806 1185 1738Q1185 1670 1141 1625Z" />
<glyph glyph-name="cdotaccent" unicode="&#x010b;" horiz-adv-x="1218" d="M742 1127Q935 1127 1059 1020Q1183 913 1196 766Q1198 753 1198 723L922 723Q918 799 862.5 843.5Q807 888 723 888Q592 888 508 766Q424 644 424 463Q424 343 482 280Q540 217 632 217Q714 217 773 257.5Q832 298 857 373L1136 373Q1107 201 966.5 88.5Q826 -24 615 -24Q395 -24 264 102.5Q133 229 133 441Q133 636 209 792Q285 948 424.5 1037.5Q564 1127 742 1127ZM939.5 1321Q939.5 1321 916.25 1297.5Q893 1274 825 1274Q757 1274 710.5 1321Q664 1368 664 1438Q664 1508 710.5 1555Q757 1602 825 1602Q893 1602 939.5 1555Q986 1508 986 1438Q986 1368 939.5 1321Z" />
<glyph glyph-name="Ccaron" unicode="&#x010c;" horiz-adv-x="1534" d="M1259 932L1259 946Q1254 1066 1170.5 1139Q1087 1212 954 1212Q825 1212 718 1131Q611 1050 550 907Q489 764 489 589Q489 423 573.5 326.5Q658 230 804 230Q927 230 1024 294Q1121 358 1156 464L1455 464Q1408 236 1224 99.5Q1040 -37 778 -37Q506 -37 343 128Q180 293 180 568Q180 831 282 1039.5Q384 1248 565 1364Q746 1480 973 1480Q1136 1480 1269.5 1414Q1403 1348 1479 1232Q1555 1116 1555 975Q1555 947 1553 932ZM862 1591L674 1926L924 1926L1016 1735L1034 1735L1206 1926L1481 1926L1153 1591Z" />
<glyph glyph-name="ccaron" unicode="&#x010d;" horiz-adv-x="1218" d="M742 1127Q935 1127 1059 1020Q1183 913 1196 766Q1198 753 1198 723L922 723Q918 799 862.5 843.5Q807 888 723 888Q592 888 508 766Q424 644 424 463Q424 343 482 280Q540 217 632 217Q714 217 773 257.5Q832 298 857 373L1136 373Q1107 201 966.5 88.5Q826 -24 615 -24Q395 -24 264 102.5Q133 229 133 441Q133 636 209 792Q285 948 424.5 1037.5Q564 1127 742 1127ZM946 1251L655 1251L455 1605L704 1605L807 1396L825 1396L1019 1605L1296 1605Z" />
<glyph glyph-name="Dcaron" unicode="&#x010e;" horiz-adv-x="1535" d="M407 1443L918 1443Q1194 1443 1351.5 1287.5Q1509 1132 1509 856Q1509 611 1412.5 415.5Q1316 220 1144 110Q972 0 756 0L101 0ZM660 1187L459 257L729 257Q934 257 1066 414Q1198 571 1198 822Q1198 992 1106 1089.5Q1014 1187 851 1187ZM737 1590L549 1925L799 1925L891 1734L909 1734L1081 1925L1356 1925L1028 1590Z" />
<glyph glyph-name="dcaron" unicode="&#x010f;" horiz-adv-x="1559" d="M1572 1524L1823 1524L1666 1019L1465 1019ZM511 -17Q343 -17 236 99Q129 215 129 413Q129 614 203 777Q277 940 405 1030.5Q533 1121 688 1121Q807 1121 890.5 1063.5Q974 1006 1001 915L1019 915L1149 1524L1441 1524L1118 0L835 0L867 153L849 153Q790 73 704 28Q618 -17 511 -17ZM641 223Q772 223 864 345.5Q956 468 956 639Q956 750 897.5 812Q839 874 744 874Q612 874 521.5 756.5Q431 639 431 463Q431 353 490.5 288Q550 223 641 223Z" />
<glyph glyph-name="Dcroat" unicode="&#x0110;" horiz-adv-x="1535" d="M459 257L729 257Q934 257 1066 414Q1198 571 1198 822Q1198 992 1106 1089.5Q1014 1187 851 1187L660 1187L586 845L786 845L739 618L537 618ZM407 1443L918 1443Q1194 1443 1351.5 1287.5Q1509 1132 1509 856Q1509 611 1412.5 415.5Q1316 220 1144 110Q972 0 756 0L101 0L232 618L79 618L127 845L280 845Z" />
<glyph glyph-name="dcroat" unicode="&#x0111;" horiz-adv-x="1347" d="M641 223Q772 223 864 345.5Q956 468 956 639Q956 750 897.5 812Q839 874 744 874Q612 874 521.5 756.5Q431 639 431 463Q431 353 490.5 288Q550 223 641 223ZM1572 1412L1541 1260L1385 1260L1118 0L835 0L867 153L849 153Q790 73 704 28Q618 -17 511 -17Q343 -17 236 99Q129 215 129 413Q129 614 203 777Q277 940 405 1030.5Q533 1121 688 1121Q807 1121 890.5 1063.5Q974 1006 1001 915L1019 915L1093 1260L878 1260L909 1412L1125 1412L1149 1524L1441 1524L1417 1412Z" />
<glyph glyph-name="Emacron" unicode="&#x0112;" horiz-adv-x="1274" d="M1109 258L1057 0L100 0L407 1443L1363 1443L1310 1185L658 1185L583 848L1199 848L1149 609L534 609L456 258ZM1336 1813L1298 1632L553 1632L590 1813Z" />
<glyph glyph-name="emacron" unicode="&#x0113;" horiz-adv-x="1248" d="M443 669L922 669Q925 687 925 707Q925 792 870 847.5Q815 903 721 903Q622 903 547 839Q472 775 443 669ZM624 -24Q406 -24 271 103Q136 230 136 450Q136 752 302 939.5Q468 1127 733 1127Q934 1127 1066 1000Q1198 873 1198 665Q1198 583 1181 485L411 485Q411 481 410.5 469.5Q410 458 410 454Q410 332 476 267.5Q542 203 642 203Q805 203 860 317L1140 317Q1102 163 963.5 69.5Q825 -24 624 -24ZM1178 1496L1140 1316L405 1316L443 1496Z" />
<glyph glyph-name="Ebreve" unicode="&#x0114;" horiz-adv-x="1274" d="M1109 258L1057 0L100 0L407 1443L1363 1443L1310 1185L658 1185L583 848L1199 848L1149 609L534 609L456 258ZM553 1915L758 1915L758 1894Q758 1831 809.5 1790.5Q861 1750 939 1750Q1021 1750 1073.5 1792.5Q1126 1835 1144 1915L1349 1915Q1327 1762 1215 1670.5Q1103 1579 933 1579Q766 1579 658.5 1665.5Q551 1752 551 1884Q551 1895 553 1915Z" />
<glyph glyph-name="ebreve" unicode="&#x0115;" horiz-adv-x="1248" d="M443 669L922 669Q925 687 925 707Q925 792 870 847.5Q815 903 721 903Q622 903 547 839Q472 775 443 669ZM624 -24Q406 -24 271 103Q136 230 136 450Q136 752 302 939.5Q468 1127 733 1127Q934 1127 1066 1000Q1198 873 1198 665Q1198 583 1181 485L411 485Q411 481 410.5 469.5Q410 458 410 454Q410 332 476 267.5Q542 203 642 203Q805 203 860 317L1140 317Q1102 163 963.5 69.5Q825 -24 624 -24ZM412 1602L617 1602Q615 1586 615 1573Q615 1505 665 1463Q715 1421 797 1421Q887 1421 941.5 1467.5Q996 1514 1011 1602L1217 1602Q1201 1441 1087 1346Q973 1251 790 1251Q618 1251 513 1337.5Q408 1424 408 1556Q408 1582 412 1602Z" />
<glyph glyph-name="Edotaccent" unicode="&#x0116;" horiz-adv-x="1274" d="M1109 258L1057 0L100 0L407 1443L1363 1443L1310 1185L658 1185L583 848L1199 848L1149 609L534 609L456 258ZM1063 1624Q1063 1624 1041 1601.5Q1019 1579 950 1579Q881 1579 836.5 1624Q792 1669 792 1737Q792 1805 836.5 1850Q881 1895 950 1895Q1019 1895 1063 1850Q1107 1805 1107 1737Q1107 1669 1063 1624Z" />
<glyph glyph-name="edotaccent" unicode="&#x0117;" horiz-adv-x="1248" d="M443 669L922 669Q925 687 925 707Q925 792 870 847.5Q815 903 721 903Q622 903 547 839Q472 775 443 669ZM624 -24Q406 -24 271 103Q136 230 136 450Q136 752 302 939.5Q468 1127 733 1127Q934 1127 1066 1000Q1198 873 1198 665Q1198 583 1181 485L411 485Q411 481 410.5 469.5Q410 458 410 454Q410 332 476 267.5Q542 203 642 203Q805 203 860 317L1140 317Q1102 163 963.5 69.5Q825 -24 624 -24ZM913.5 1321Q913.5 1321 890.25 1297.5Q867 1274 799 1274Q731 1274 684.5 1321Q638 1368 638 1438Q638 1508 684.5 1555Q731 1602 799 1602Q867 1602 913.5 1555Q960 1508 960 1438Q960 1368 913.5 1321Z" />
<glyph glyph-name="Eogonek" unicode="&#x0118;" horiz-adv-x="1274" d="M100 0L407 1443L1363 1443L1310 1185L658 1185L583 848L1199 848L1149 609L534 609L456 258L1109 258L1057 1L1013 -5Q908 -19 839 -73Q770 -127 770 -195Q770 -239 805 -264.5Q840 -290 901 -290Q936 -290 948 -286L913 -453Q878 -466 816 -466Q690 -466 612 -407Q534 -348 534 -253Q534 -178 584 -114Q634 -50 713 -18L716 0Z" />
<glyph glyph-name="eogonek" unicode="&#x0119;" horiz-adv-x="1251" d="M772 -466Q647 -466 568.5 -407Q490 -348 490 -253Q490 -189 536 -128Q582 -67 650 -41L654 -21Q640 -24 624 -24Q401 -24 268.5 104.5Q136 233 136 450Q136 751 301.5 939Q467 1127 733 1127Q938 1127 1068 998Q1198 869 1198 665Q1198 581 1181 485L411 485Q411 478 410.5 467.5Q410 457 410 454Q410 339 473 271Q536 203 642 203Q805 203 860 317L1140 317Q1101 156 934 51Q825 -17 775.5 -75.5Q726 -134 726 -195Q726 -239 761.5 -264.5Q797 -290 857 -290Q892 -290 904 -286L869 -453Q828 -466 772 -466ZM443 669L922 669Q925 687 925 707Q925 795 868.5 849Q812 903 721 903Q623 903 547.5 840Q472 777 443 669Z" />
<glyph glyph-name="Ecaron" unicode="&#x011a;" horiz-adv-x="1274" d="M1109 258L1057 0L100 0L407 1443L1363 1443L1310 1185L658 1185L583 848L1199 848L1149 609L534 609L456 258ZM784 1590L596 1925L846 1925L938 1734L956 1734L1128 1925L1403 1925L1075 1590Z" />
<glyph glyph-name="ecaron" unicode="&#x011b;" horiz-adv-x="1248" d="M443 669L922 669Q925 687 925 707Q925 792 870 847.5Q815 903 721 903Q622 903 547 839Q472 775 443 669ZM624 -24Q406 -24 271 103Q136 230 136 450Q136 752 302 939.5Q468 1127 733 1127Q934 1127 1066 1000Q1198 873 1198 665Q1198 583 1181 485L411 485Q411 481 410.5 469.5Q410 458 410 454Q410 332 476 267.5Q542 203 642 203Q805 203 860 317L1140 317Q1102 163 963.5 69.5Q825 -24 624 -24ZM920 1251L629 1251L429 1605L678 1605L781 1396L799 1396L993 1605L1270 1605Z" />
<glyph glyph-name="Gcircumflex" unicode="&#x011c;" horiz-adv-x="1568" d="M1534 760L1497 576Q1439 277 1257 120Q1075 -37 790 -37Q515 -37 348.5 130.5Q182 298 182 574Q182 837 283 1043.5Q384 1250 564 1365Q744 1480 972 1480Q1130 1480 1262 1418Q1394 1356 1472.5 1248.5Q1551 1141 1555 1010L1555 977L1261 977Q1255 1081 1169 1146Q1083 1211 953 1211Q755 1211 623 1036Q491 861 491 595Q491 427 579 329.5Q667 232 818 232Q959 232 1060 307.5Q1161 383 1187 509L1192 534L885 534L932 760ZM1197 1926L1384 1591L1135 1591L1043 1782L1025 1782L853 1591L578 1591L906 1926Z" />
<glyph glyph-name="gcircumflex" unicode="&#x011d;" horiz-adv-x="1327" d="M530 -417Q309 -417 170.5 -322.5Q32 -228 33 -83L323 -83Q328 -138 388.5 -172Q449 -206 549 -206Q661 -206 727 -157Q793 -108 813 -18L857 176L839 177Q730 22 514 22Q348 22 240.5 137.5Q133 253 133 438Q133 628 205 785Q277 942 402.5 1031.5Q528 1121 679 1121Q793 1121 882 1063Q971 1005 1002 911L1019 911L1061 1103L1345 1103L1099 -44Q1062 -219 912.5 -318Q763 -417 530 -417ZM641 237Q770 237 859.5 353Q949 469 949 639Q949 746 891 810Q833 874 735 874Q605 874 518.5 761.5Q432 649 432 476Q432 366 488.5 301.5Q545 237 641 237ZM983 1606L1183 1252L933 1252L829 1461L811 1461L618 1252L342 1252L692 1606Z" />
<glyph glyph-name="Gbreve" unicode="&#x011e;" horiz-adv-x="1568" d="M1534 760L1497 576Q1439 277 1257 120Q1075 -37 790 -37Q515 -37 348.5 130.5Q182 298 182 574Q182 837 283 1043.5Q384 1250 564 1365Q744 1480 972 1480Q1130 1480 1262 1418Q1394 1356 1472.5 1248.5Q1551 1141 1555 1010L1555 977L1261 977Q1255 1081 1169 1146Q1083 1211 953 1211Q755 1211 623 1036Q491 861 491 595Q491 427 579 329.5Q667 232 818 232Q959 232 1060 307.5Q1161 383 1187 509L1192 534L885 534L932 760ZM629 1916L834 1916L834 1895Q834 1832 885.5 1791.5Q937 1751 1015 1751Q1097 1751 1149.5 1793.5Q1202 1836 1220 1916L1425 1916Q1403 1763 1291 1671.5Q1179 1580 1009 1580Q842 1580 734.5 1666.5Q627 1753 627 1885Q627 1896 629 1916Z" />
<glyph glyph-name="gbreve" unicode="&#x011f;" horiz-adv-x="1327" d="M530 -417Q309 -417 170.5 -322.5Q32 -228 33 -83L323 -83Q328 -138 388.5 -172Q449 -206 549 -206Q661 -206 727 -157Q793 -108 813 -18L857 176L839 177Q730 22 514 22Q348 22 240.5 137.5Q133 253 133 438Q133 628 205 785Q277 942 402.5 1031.5Q528 1121 679 1121Q793 1121 882 1063Q971 1005 1002 911L1019 911L1061 1103L1345 1103L1099 -44Q1062 -219 912.5 -318Q763 -417 530 -417ZM641 237Q770 237 859.5 353Q949 469 949 639Q949 746 891 810Q833 874 735 874Q605 874 518.5 761.5Q432 649 432 476Q432 366 488.5 301.5Q545 237 641 237ZM428 1603L633 1603Q631 1587 631 1574Q631 1506 681 1464Q731 1422 813 1422Q903 1422 957.5 1468.5Q1012 1515 1027 1603L1233 1603Q1217 1442 1103 1347Q989 1252 806 1252Q634 1252 529 1338.5Q424 1425 424 1557Q424 1583 428 1603Z" />
<glyph glyph-name="Gdotaccent" unicode="&#x0120;" horiz-adv-x="1568" d="M1534 760L1497 576Q1439 277 1257 120Q1075 -37 790 -37Q515 -37 348.5 130.5Q182 298 182 574Q182 837 283 1043.5Q384 1250 564 1365Q744 1480 972 1480Q1130 1480 1262 1418Q1394 1356 1472.5 1248.5Q1551 1141 1555 1010L1555 977L1261 977Q1255 1081 1169 1146Q1083 1211 953 1211Q755 1211 623 1036Q491 861 491 595Q491 427 579 329.5Q667 232 818 232Q959 232 1060 307.5Q1161 383 1187 509L1192 534L885 534L932 760ZM1139 1625Q1139 1625 1117 1602.5Q1095 1580 1026 1580Q957 1580 912.5 1625Q868 1670 868 1738Q868 1806 912.5 1851Q957 1896 1026 1896Q1095 1896 1139 1851Q1183 1806 1183 1738Q1183 1670 1139 1625Z" />
<glyph glyph-name="gdotaccent" unicode="&#x0121;" horiz-adv-x="1327" d="M530 -417Q309 -417 170.5 -322.5Q32 -228 33 -83L323 -83Q328 -138 388.5 -172Q449 -206 549 -206Q661 -206 727 -157Q793 -108 813 -18L857 176L839 177Q730 22 514 22Q348 22 240.5 137.5Q133 253 133 438Q133 628 205 785Q277 942 402.5 1031.5Q528 1121 679 1121Q793 1121 882 1063Q971 1005 1002 911L1019 911L1061 1103L1345 1103L1099 -44Q1062 -219 912.5 -318Q763 -417 530 -417ZM641 237Q770 237 859.5 353Q949 469 949 639Q949 746 891 810Q833 874 735 874Q605 874 518.5 761.5Q432 649 432 476Q432 366 488.5 301.5Q545 237 641 237ZM929.5 1322Q929.5 1322 906.25 1298.5Q883 1275 815 1275Q747 1275 700.5 1322Q654 1369 654 1439Q654 1509 700.5 1556Q747 1603 815 1603Q883 1603 929.5 1556Q976 1509 976 1439Q976 1369 929.5 1322Z" />
<glyph glyph-name="Gcommaaccent" unicode="&#x0122;" horiz-adv-x="1568" d="M1534 760L1497 576Q1439 277 1257 120Q1075 -37 790 -37Q515 -37 348.5 130.5Q182 298 182 574Q182 837 283 1043.5Q384 1250 564 1365Q744 1480 972 1480Q1130 1480 1262 1418Q1394 1356 1472.5 1248.5Q1551 1141 1555 1010L1555 977L1261 977Q1255 1081 1169 1146Q1083 1211 953 1211Q755 1211 623 1036Q491 861 491 595Q491 427 579 329.5Q667 232 818 232Q959 232 1060 307.5Q1161 383 1187 509L1192 534L885 534L932 760ZM731 -509L473 -509L645 -151L937 -151Z" />
<glyph glyph-name="gcommaaccent" unicode="&#x0123;" horiz-adv-x="1328" d="M530 -417Q309 -417 170.5 -322.5Q32 -228 33 -83L323 -83Q328 -138 388.5 -172Q449 -206 549 -206Q661 -206 727 -157Q793 -108 813 -18L857 176L839 177Q730 22 514 22Q348 22 240.5 137.5Q133 253 133 438Q133 628 205 785Q277 942 402.5 1031.5Q528 1121 679 1121Q793 1121 882 1063Q971 1005 1002 911L1019 911L1061 1103L1345 1103L1099 -44Q1062 -219 912.5 -318Q763 -417 530 -417ZM641 237Q770 237 859.5 353Q949 469 949 639Q949 746 891 810Q833 874 735 874Q605 874 518.5 761.5Q432 649 432 476Q432 366 488.5 301.5Q545 237 641 237ZM1094 1649L1352 1649L1180 1291L888 1291Z" />
<glyph glyph-name="Hcircumflex" unicode="&#x0124;" horiz-adv-x="1606" d="M1356 0L1051 0L1180 603L532 603L403 0L100 0L407 1443L711 1443L586 861L1234 861L1359 1443L1663 1443ZM1271 1925L1458 1590L1209 1590L1117 1781L1099 1781L927 1590L652 1590L980 1925Z" />
<glyph glyph-name="hcircumflex" unicode="&#x0125;" horiz-adv-x="1301" d="M75 0L398 1515L690 1515L565 937L583 937Q702 1124 916 1124Q1070 1124 1159.5 1034Q1249 944 1249 807Q1249 749 1235 676L1093 0L802 0L934 628Q944 676 944 712Q944 791 895 837Q846 883 761 883Q664 883 596.5 821Q529 759 507 659L367 0ZM777 1997L964 1662L715 1662L623 1853L605 1853L433 1662L158 1662L486 1997Z" />
<glyph glyph-name="Hbar" unicode="&#x0126;" horiz-adv-x="1605" d="M1235 861L1277 1055L629 1055L587 861ZM1751 1261L1708 1055L1581 1055L1357 0L1052 0L1181 603L533 603L404 0L101 0L325 1055L197 1055L239 1261L369 1261L408 1443L712 1443L673 1261L1321 1261L1360 1443L1664 1443L1625 1261Z" />
<glyph glyph-name="hbar" unicode="&#x0127;" horiz-adv-x="1301" d="M565 937L583 937Q702 1124 916 1124Q1070 1124 1159.5 1034Q1249 944 1249 807Q1249 749 1235 676L1093 0L802 0L934 628Q944 676 944 712Q944 791 895 837Q846 883 761 883Q664 883 596.5 821Q529 759 507 659L367 0L75 0L344 1260L193 1260L226 1418L377 1418L398 1515L690 1515L669 1418L888 1418L855 1260L635 1260Z" />
<glyph glyph-name="Itilde" unicode="&#x0128;" horiz-adv-x="653" d="M404 0L100 0L407 1443L711 1443ZM774 1572Q728 1572 688 1589Q648 1606 620.5 1630Q593 1654 569.5 1678Q546 1702 521.5 1719Q497 1736 474 1736Q398 1736 379 1612L195 1612Q212 1747 287 1828Q362 1909 468 1909Q514 1909 554 1892Q594 1875 621 1851Q648 1827 671.5 1803Q695 1779 719.5 1762Q744 1745 767 1745Q844 1745 863 1869L1047 1869Q1030 1733 955 1652.5Q880 1572 774 1572Z" />
<glyph glyph-name="itilde" unicode="&#x0129;" horiz-adv-x="599" d="M79 0L313 1103L604 1103L370 0ZM688 1247Q642 1247 602 1264Q562 1281 534.5 1305Q507 1329 483.5 1353Q460 1377 435.5 1394Q411 1411 388 1411Q312 1411 293 1287L109 1287Q126 1422 201 1503Q276 1584 382 1584Q428 1584 468 1567Q508 1550 535 1526Q562 1502 585.5 1478Q609 1454 633.5 1437Q658 1420 681 1420Q758 1420 777 1544L961 1544Q944 1408 869 1327.5Q794 1247 688 1247Z" />
<glyph glyph-name="Imacron" unicode="&#x012a;" horiz-adv-x="653" d="M404 0L100 0L407 1443L711 1443ZM1010 1813L972 1632L227 1632L264 1813Z" />
<glyph glyph-name="imacron" unicode="&#x012b;" horiz-adv-x="599" d="M79 0L313 1103L604 1103L370 0ZM818 1496L785 1316L161 1316L193 1496Z" />
<glyph glyph-name="Ibreve" unicode="&#x012c;" horiz-adv-x="653" d="M404 0L100 0L407 1443L711 1443ZM227 1915L432 1915L432 1894Q432 1831 483.5 1790.5Q535 1750 613 1750Q695 1750 747.5 1792.5Q800 1835 818 1915L1023 1915Q1001 1762 889 1670.5Q777 1579 607 1579Q440 1579 332.5 1665.5Q225 1752 225 1884Q225 1895 227 1915Z" />
<glyph glyph-name="ibreve" unicode="&#x012d;" horiz-adv-x="599" d="M79 0L313 1103L604 1103L370 0ZM143 1602L348 1602Q346 1586 346 1573Q346 1505 396 1463Q446 1421 528 1421Q618 1421 672.5 1467.5Q727 1514 742 1602L948 1602Q932 1441 818 1346Q704 1251 521 1251Q349 1251 244 1337.5Q139 1424 139 1556Q139 1582 143 1602Z" />
<glyph glyph-name="Iogonek" unicode="&#x012e;" horiz-adv-x="653" d="M206 -466Q75 -466 -2.5 -407Q-80 -348 -80 -260Q-80 -185 -32.5 -119.5Q15 -54 96 -18L407 1443L711 1443L403 -4L381 -5Q285 -19 222 -72.5Q159 -126 159 -195Q159 -239 194 -264.5Q229 -290 290 -290Q320 -290 336 -286L301 -453Q258 -466 206 -466Z" />
<glyph glyph-name="iogonek" unicode="&#x012f;" horiz-adv-x="599" d="M275 -453Q237 -466 180 -466Q53 -466 -26.5 -408.5Q-106 -351 -106 -260Q-106 -185 -58 -118.5Q-10 -52 77 -13L313 1103L604 1103L369 -5L354 -6Q257 -18 195 -72Q133 -126 133 -195Q133 -239 167.5 -264.5Q202 -290 263 -290Q293 -290 310 -286ZM648 1299.5Q648 1299.5 624 1278.25Q600 1257 524 1257Q448 1257 400 1297Q352 1337 352 1400Q352 1467 400.5 1509Q449 1551 524 1551Q600 1551 648 1511Q696 1471 696 1409Q696 1342 648 1299.5Z" />
<glyph glyph-name="Idotaccent" unicode="&#x0130;" horiz-adv-x="654" d="M404 0L100 0L407 1443L711 1443ZM737 1624Q737 1624 715 1601.5Q693 1579 624 1579Q555 1579 510.5 1624Q466 1669 466 1737Q466 1805 510.5 1850Q555 1895 624 1895Q693 1895 737 1850Q781 1805 781 1737Q781 1669 737 1624Z" />
<glyph glyph-name="dotlessi" unicode="&#x0131;" horiz-adv-x="599" d="M79 0L313 1103L604 1103L370 0Z" />
<glyph glyph-name="IJ" unicode="&#x0132;" horiz-adv-x="1881" d="M404 0L100 0L407 1443L711 1443ZM738 382Q738 403 739 413L1032 413L1032 404Q1033 327 1081.5 282Q1130 237 1212 237Q1379 237 1424 446L1637 1443L1939 1443L1717 401Q1673 188 1540.5 75.5Q1408 -37 1199 -37Q989 -37 861 79.5Q733 196 738 382Z" />
<glyph glyph-name="ij" unicode="&#x0133;" horiz-adv-x="1199" d="M79 0L313 1103L604 1103L370 0ZM648.5 1300.5Q648.5 1300.5 624.75 1278.75Q601 1257 524 1257Q447 1257 399.5 1297.5Q352 1338 352 1400Q352 1465 399.5 1508Q447 1551 524 1551Q602 1551 649 1511Q696 1471 696 1409Q696 1344 648.5 1300.5ZM1248.5 1300.5Q1248.5 1300.5 1224.75 1278.75Q1201 1257 1124 1257Q1047 1257 999.5 1297.5Q952 1338 952 1400Q952 1465 999.5 1508Q1047 1551 1124 1551Q1201 1551 1248.5 1511Q1296 1471 1296 1409Q1296 1344 1248.5 1300.5ZM1205 1103L958 -56Q892 -376 554 -376Q474 -376 416 -363L465 -138Q495 -144 529 -144Q591 -144 625.5 -116Q660 -88 674 -24L914 1103Z" />
<glyph glyph-name="Jcircumflex" unicode="&#x0134;" horiz-adv-x="1229" d="M85 382Q85 403 86 413L379 413L379 404Q380 327 428.5 282Q477 237 559 237Q726 237 771 446L984 1443L1286 1443L1064 401Q1020 188 887.5 75.5Q755 -37 546 -37Q336 -37 208 79.5Q80 196 85 382ZM1370 1925L1557 1590L1308 1590L1216 1781L1198 1781L1026 1590L751 1590L1079 1925Z" />
<glyph glyph-name="jcircumflex" unicode="&#x0135;" horiz-adv-x="599" d="M605 1103L358 -56Q292 -376 -46 -376Q-126 -376 -184 -363L-135 -138Q-105 -144 -71 -144Q-9 -144 25.5 -116Q60 -88 74 -24L314 1103ZM698 1605L898 1251L648 1251L544 1460L526 1460L333 1251L57 1251L407 1605Z" />
<glyph glyph-name="Kcommaaccent" unicode="&#x0136;" horiz-adv-x="1454" d="M402 0L100 0L407 1443L708 1443L572 808L590 808L1249 1443L1607 1443L937 790L1319 0L979 0L686 606L494 424ZM605 -509L347 -509L519 -151L811 -151Z" />
<glyph glyph-name="kcommaaccent" unicode="&#x0137;" horiz-adv-x="1210" d="M367 0L75 0L399 1524L690 1524L513 690L531 690L979 1103L1319 1103L790 621L1118 0L797 0L555 457L445 363ZM502 -509L244 -509L416 -151L708 -151Z" />
<glyph glyph-name="Lacute" unicode="&#x0139;" horiz-adv-x="1219" d="M1098 263L1044 0L100 0L407 1443L710 1443L457 263ZM719 1590L442 1590L785 1908L1100 1908Z" />
<glyph glyph-name="lacute" unicode="&#x013a;" horiz-adv-x="594" d="M75 0L399 1524L692 1524L368 0ZM706 1670L429 1670L772 1988L1087 1988Z" />
<glyph glyph-name="Lcommaaccent" unicode="&#x013b;" horiz-adv-x="1219" d="M1098 263L1044 0L100 0L407 1443L710 1443L457 263ZM498 -509L240 -509L412 -151L704 -151Z" />
<glyph glyph-name="lcommaaccent" unicode="&#x013c;" horiz-adv-x="594" d="M75 0L399 1524L692 1524L368 0ZM148 -509L-110 -509L62 -151L354 -151Z" />
<glyph glyph-name="Lcaron" unicode="&#x013d;" horiz-adv-x="1219" d="M935 1443L1181 1443L1024 939L828 939ZM1098 263L1044 0L100 0L407 1443L710 1443L457 263Z" />
<glyph glyph-name="lcaron" unicode="&#x013e;" horiz-adv-x="814" d="M823 1524L1074 1524L917 1019L716 1019ZM75 0L399 1524L692 1524L368 0Z" />
<glyph glyph-name="Lslash" unicode="&#x0141;" horiz-adv-x="1237" d="M476 263L1117 263L1063 0L119 0L261 667L80 583L122 788L305 872L426 1443L729 1443L640 1027L888 1142L846 937L596 821Z" />
<glyph glyph-name="lslash" unicode="&#x0142;" horiz-adv-x="593" d="M717 1090L675 885L543 821L368 0L75 0L216 664L87 602L129 807L260 870L399 1524L692 1524L586 1027Z" />
<glyph glyph-name="Nacute" unicode="&#x0143;" horiz-adv-x="1573" d="M393 0L100 0L407 1443L638 1443L1117 514L1135 514L1337 1443L1630 1443L1323 0L1094 0L611 922L593 922ZM1161 1590L884 1590L1227 1908L1542 1908Z" />
<glyph glyph-name="nacute" unicode="&#x0144;" horiz-adv-x="1285" d="M67 0L302 1103L585 1103L547 928L565 928Q686 1121 904 1121Q1054 1121 1143.5 1029.5Q1233 938 1233 798Q1233 738 1218 667L1077 0L786 0L918 619Q928 665 928 703Q928 780 880.5 828Q833 876 749 876Q654 876 587 813.5Q520 751 498 650L359 0ZM965 1281L689 1281L1012 1634L1326 1634Z" />
<glyph glyph-name="Ncommaaccent" unicode="&#x0145;" horiz-adv-x="1573" d="M393 0L100 0L407 1443L638 1443L1117 514L1135 514L1337 1443L1630 1443L1323 0L1094 0L611 922L593 922ZM661 -509L403 -509L575 -151L867 -151Z" />
<glyph glyph-name="ncommaaccent" unicode="&#x0146;" horiz-adv-x="1285" d="M67 0L302 1103L585 1103L547 928L565 928Q686 1121 904 1121Q1054 1121 1143.5 1029.5Q1233 938 1233 798Q1233 738 1218 667L1077 0L786 0L918 619Q928 665 928 703Q928 780 880.5 828Q833 876 749 876Q654 876 587 813.5Q520 751 498 650L359 0ZM498 -509L240 -509L412 -151L704 -151Z" />
<glyph glyph-name="Ncaron" unicode="&#x0147;" horiz-adv-x="1573" d="M393 0L100 0L407 1443L638 1443L1117 514L1135 514L1337 1443L1630 1443L1323 0L1094 0L611 922L593 922ZM899 1590L711 1925L961 1925L1053 1734L1071 1734L1243 1925L1518 1925L1190 1590Z" />
<glyph glyph-name="ncaron" unicode="&#x0148;" horiz-adv-x="1285" d="M67 0L302 1103L585 1103L547 928L565 928Q686 1121 904 1121Q1054 1121 1143.5 1029.5Q1233 938 1233 798Q1233 738 1218 667L1077 0L786 0L918 619Q928 665 928 703Q928 780 880.5 828Q833 876 749 876Q654 876 587 813.5Q520 751 498 650L359 0ZM988 1251L697 1251L497 1605L746 1605L849 1396L867 1396L1061 1605L1338 1605Z" />
</font>
</defs>
</svg>
