<?xml version="1.0" standalone="no"?><!DOCTYPE svg PUBLIC "-//W3C//DTD SVG 1.1//EN" "http://www.w3.org/Graphics/SVG/1.1/DTD/svg11.dtd" ><svg xmlns="http://www.w3.org/2000/svg"><metadata></metadata><defs>
<font id="SFProText-Regular" >
<font-face font-family="SF Pro Text" font-stretch="normal" units-per-em="2048" weight="400" panose-1="0,0,5,0,0,0,0,0,0,0" ascent="1950" descent="-494" x-height="1078" underline-thickness="120" underline-position="-430" unicode-range="U+00000032-00127369" bbox="-626,-573,2698,2205" />
<missing-glyph horiz-adv-x="2048" d="M100 -494L100 -210L1948 -210L1948 -494ZM100 -62L100 222L1948 222L1948 -62ZM100 370L100 654L1948 654L1948 370ZM100 802L100 1086L1948 1086L1948 802ZM100 1234L100 1518L1948 1518L1948 1234ZM100 1666L100 1950L1948 1950L1948 1666Z" />
<glyph glyph-name="space" unicode="&#x20;" horiz-adv-x="578" d="" />
<glyph glyph-name="exclam" unicode="&#x21;" horiz-adv-x="637" d="M218 1444L418 1444L401 480L235 480ZM418.5 21Q418.5 21 399.25 1.5Q380 -18 319 -18Q258 -18 219 21Q180 60 180 121Q180 182 219 221.5Q258 261 319 261Q380 261 418.5 222Q457 183 457 121Q457 60 418.5 21Z" />
<glyph glyph-name="quotedbl" unicode="&#x22;" horiz-adv-x="895" d="M339 904L179 904L179 1443L339 1443ZM716 904L556 904L556 1443L716 1443Z" />
<glyph glyph-name="numbersign" unicode="&#x23;" horiz-adv-x="1296" d="M663 0L745 403L417 403L335 0L193 0L274 403L40 403L68 547L305 547L378 911L131 911L160 1054L407 1054L488 1443L630 1443L552 1054L878 1054L959 1443L1102 1443L1022 1054L1271 1054L1243 911L992 911L917 547L1178 547L1150 403L888 403L806 0ZM445 544L775 544L850 913L520 913Z" />
<glyph glyph-name="dollar" unicode="&#x24;" horiz-adv-x="1328" d="M732 -137L598 -137L598 -3Q395 12 273 120.5Q151 229 150 395L321 395Q329 295 402 231Q475 167 598 152L598 672L518 694Q357 737 271 833Q185 929 185 1067Q185 1230 296 1335.5Q407 1441 598 1460L598 1600L732 1600L732 1461Q918 1445 1032.5 1338.5Q1147 1232 1152 1069L982 1069Q979 1163 910.5 1228Q842 1293 732 1306L732 817L818 796Q1003 747 1090.5 652.5Q1178 558 1178 408Q1178 230 1061 122.5Q944 15 732 -2ZM1005 394Q1005 494 939 554.5Q873 615 732 645L732 149Q862 156 933.5 220Q1005 284 1005 394ZM357 1077Q357 988 418.5 929.5Q480 871 598 846L598 1306Q493 1300 425 1235.5Q357 1171 357 1077Z" />
<glyph glyph-name="percent" unicode="&#x25;" horiz-adv-x="1610" d="M609 1371Q609 1371 652 1322.5Q695 1274 695 1121Q695 968 609 870.5Q523 773 388 773Q253 773 166.5 870.5Q80 968 80 1121Q80 1273 166.5 1370.5Q253 1468 388 1468Q523 1468 609 1371ZM388 901Q454 901 494.5 961.5Q535 1022 535 1121Q535 1222 495.5 1281Q456 1340 388 1340Q321 1340 280.5 1280.5Q240 1221 240 1121Q240 1021 280.5 961Q321 901 388 901ZM372 0L188 0L739 752L1245 1443L1427 1443L867 677ZM1444 573Q1444 573 1487 524.5Q1530 476 1530 323Q1530 170 1444 72.5Q1358 -25 1223 -25Q1088 -25 1001.5 72.5Q915 170 915 323Q915 475 1001.5 572.5Q1088 670 1223 670Q1358 670 1444 573ZM1223 103Q1289 103 1329.5 163.5Q1370 224 1370 323Q1370 424 1330.5 483Q1291 542 1223 542Q1156 542 1115.5 482.5Q1075 423 1075 323Q1075 223 1115.5 163Q1156 103 1223 103Z" />
<glyph glyph-name="ampersand" unicode="&#x26;" horiz-adv-x="1457" d="M1203 0L1070 144Q977 63 855.5 18Q734 -27 603 -27Q388 -27 251.5 88Q115 203 115 385Q115 637 401 788Q407 791 417 796Q427 801 439.5 807Q452 813 457 816Q358 920 317 997.5Q276 1075 276 1154Q276 1293 381 1385Q486 1477 644 1477Q804 1477 908 1385.5Q1012 1294 1012 1152Q1012 1041 939.5 954Q867 867 700 779L1061 391Q1129 527 1129 779L1129 804L1297 804L1297 778Q1297 453 1178 269L1429 0ZM505 682Q295 573 295 397Q295 275 384.5 200Q474 125 619 125Q718 125 811.5 161.5Q905 198 964 260L556 706Q545 702 505 682ZM603 881Q735 948 789 1008Q843 1068 843 1146Q843 1230 788 1282Q733 1334 645 1334Q559 1334 503.5 1281Q448 1228 448 1144Q448 1084 483 1025Q518 966 603 881Z" />
<glyph glyph-name="quotesingle" unicode="&#x27;" horiz-adv-x="518" d="M339 904L179 904L179 1443L339 1443Z" />
<glyph glyph-name="parenleft" unicode="&#x28;" horiz-adv-x="782" d="M242 600Q242 1130 526 1506L672 1506Q565 1368 492 1110Q419 852 419 600Q419 347 491.5 88.5Q564 -170 672 -307L526 -307Q242 69 242 600Z" />
<glyph glyph-name="parenright" unicode="&#x29;" horiz-adv-x="782" d="M540 600Q540 69 256 -307L110 -307Q218 -170 290.5 88.5Q363 347 363 600Q363 852 290 1110Q217 1368 110 1506L256 1506Q540 1130 540 600Z" />
<glyph glyph-name="asterisk" unicode="&#x2a;" horiz-adv-x="1032" d="M812 815L568 973L584 684L448 684L464 974L220 815L153 931L413 1062L153 1194L220 1312L464 1149L448 1443L584 1443L568 1149L812 1312L879 1194L620 1062L879 931Z" />
<glyph glyph-name="plus" unicode="&#x2b;" horiz-adv-x="1328" d="M738 506L738 71L590 71L590 506L155 506L155 654L590 654L590 1089L738 1089L738 654L1173 654L1173 506Z" />
<glyph glyph-name="comma" unicode="&#x2c;" horiz-adv-x="608" d="M271 -367L142 -367L237 202L428 202Z" />
<glyph glyph-name="hyphen" unicode="&#x2d;" horiz-adv-x="966" d="M811 499L155 499L155 662L811 662Z" />
<glyph glyph-name="period" unicode="&#x2e;" horiz-adv-x="608" d="M304 -10Q251 -10 212.5 28.5Q174 67 174 120Q174 174 212.5 212Q251 250 304 250Q358 250 396 212Q434 174 434 120Q434 67 396 28.5Q358 -10 304 -10Z" />
<glyph glyph-name="slash" unicode="&#x2f;" horiz-adv-x="682" d="M152 -307L0 -307L530 1506L682 1506Z" />
<glyph glyph-name="zero" unicode="&#x30;" horiz-adv-x="1290" d="M646 -34Q402 -34 268 164Q134 362 134 722Q134 1079 269 1278Q404 1477 646 1477Q887 1477 1021.5 1277Q1156 1077 1156 719Q1156 360 1022.5 163Q889 -34 646 -34ZM400.5 278Q400.5 278 443.25 200.5Q486 123 646 123Q806 123 890.5 277.5Q975 432 975 722Q975 1009 889.5 1164Q804 1319 646 1319Q488 1319 401.5 1163.5Q315 1008 315 722Q315 433 400.5 278Z" />
<glyph glyph-name="one" unicode="&#x31;" horiz-adv-x="955" d="M506 0L506 1243L490 1243L123 977L123 1167L507 1443L686 1443L686 0Z" />
<glyph glyph-name="two" unicode="&#x32;" horiz-adv-x="1237" d="M152 1037Q152 1229 282.5 1353Q413 1477 614 1477Q808 1477 939.5 1360.5Q1071 1244 1071 1072Q1071 959 1007 850Q943 741 766 551L419 178L419 162L1095 162L1095 0L161 0L161 124L660 669Q799 820 845 899Q891 978 891 1065Q891 1173 809.5 1246.5Q728 1320 609 1320Q482 1320 404 1242Q326 1164 326 1037L326 1036L152 1036Z" />
<glyph glyph-name="three" unicode="&#x33;" horiz-adv-x="1284" d="M456 665L456 819L631 819Q754 819 832.5 891Q911 963 911 1075Q911 1185 835 1252.5Q759 1320 634 1320Q509 1320 432 1254.5Q355 1189 344 1073L169 1073Q183 1261 309 1369Q435 1477 641 1477Q765 1477 869.5 1426.5Q974 1376 1034 1289Q1094 1202 1094 1099Q1094 970 1027 881Q960 792 841 763L841 747Q988 728 1072 632.5Q1156 537 1156 389Q1156 211 1009 88.5Q862 -34 648 -34Q428 -34 289 78.5Q150 191 140 376L314 376Q326 261 416 192Q506 123 646 123Q788 123 879.5 199Q971 275 971 394Q971 519 882 592Q793 665 639 665Z" />
<glyph glyph-name="four" unicode="&#x34;" horiz-adv-x="1318" d="M820 0L820 299L117 299L117 463Q315 815 735 1443L996 1443L996 460L1201 460L1201 299L996 299L996 0ZM301 471L301 459L821 459L821 1276L809 1276Q575 936 301 471Z" />
<glyph glyph-name="five" unicode="&#x35;" horiz-adv-x="1267" d="M637 -34Q432 -34 298 81.5Q164 197 152 384L329 384Q341 267 426.5 195.5Q512 124 639 124Q784 124 872.5 215Q961 306 961 454Q961 602 872.5 694.5Q784 787 642 787Q544 787 466 744.5Q388 702 344 625L175 625L254 1443L1059 1443L1059 1282L395 1282L354 819L370 819Q475 942 675 942Q881 942 1011 807Q1141 672 1141 459Q1141 239 1001 102.5Q861 -34 637 -34Z" />
<glyph glyph-name="six" unicode="&#x36;" horiz-adv-x="1305" d="M671 -33Q508 -33 387 51.5Q266 136 198 295Q128 459 128 697Q128 1069 273 1273Q418 1477 683 1477Q867 1477 994.5 1375.5Q1122 1274 1156 1100L971 1100Q942 1201 864.5 1259Q787 1317 681 1317Q505 1317 407.5 1165Q310 1013 303 725L319 725Q372 830 473 888.5Q574 947 703 947Q909 947 1043 810.5Q1177 674 1177 464Q1177 246 1035 106.5Q893 -33 671 -33ZM436.5 222Q436.5 222 483.25 173.5Q530 125 669 125Q808 125 901.5 220.5Q995 316 995 458Q995 606 904.5 698.5Q814 791 671 791Q528 791 435.5 699Q343 607 343 464Q343 319 436.5 222Z" />
<glyph glyph-name="seven" unicode="&#x37;" horiz-adv-x="1167" d="M221 0L869 1268L869 1282L97 1282L97 1443L1052 1443L1052 1276L410 0Z" />
<glyph glyph-name="eight" unicode="&#x38;" horiz-adv-x="1308" d="M1028.5 83.5Q1028.5 83.5 955.75 24.75Q883 -34 654 -34Q425 -34 279.5 83.5Q134 201 134 386Q134 527 216 628Q298 729 434 754L434 770Q324 800 258.5 887Q193 974 193 1092Q193 1261 322.5 1369Q452 1477 654 1477Q856 1477 985.5 1369Q1115 1261 1115 1092Q1115 973 1050.5 887Q986 801 874 770L874 754Q1010 729 1092 628Q1174 527 1174 386Q1174 201 1028.5 83.5ZM410 197.5Q410 197.5 457 158.75Q504 120 654 120Q804 120 898 197.5Q992 275 992 399Q992 523 898 600.5Q804 678 654 678Q504 678 410 600.5Q316 523 316 399Q316 275 410 197.5ZM448 897.5Q448 897.5 487 863.75Q526 830 654 830Q782 830 860 897.5Q938 965 938 1075Q938 1187 860 1255Q782 1323 654 1323Q526 1323 448 1255Q370 1187 370 1075Q370 965 448 897.5Z" />
<glyph glyph-name="nine" unicode="&#x39;" horiz-adv-x="1305" d="M622 -33Q438 -33 310.5 68.5Q183 170 149 344L334 344Q363 243 440.5 185Q518 127 624 127Q800 127 897.5 279Q995 431 1002 719L994 719L990 719L986 719Q933 614 832 555.5Q731 497 602 497Q396 497 262 633.5Q128 770 128 980Q128 1198 270 1337.5Q412 1477 634 1477Q796 1477 918 1393Q1040 1309 1107 1149Q1177 985 1177 747Q1177 375 1032 171Q887 -33 622 -33ZM400.5 745.5Q400.5 745.5 445.75 699.25Q491 653 634 653Q777 653 869.5 745Q962 837 962 980Q962 1125 868.5 1222Q775 1319 636 1319Q497 1319 403.5 1223.5Q310 1128 310 986Q310 838 400.5 745.5Z" />
<glyph glyph-name="colon" unicode="&#x3a;" horiz-adv-x="608" d="M304 -10Q251 -10 212.5 28.5Q174 67 174 120Q174 174 212.5 212Q251 250 304 250Q358 250 396 212Q434 174 434 120Q434 67 396 28.5Q358 -10 304 -10ZM304 759Q251 759 212.5 797.5Q174 836 174 889Q174 943 212.5 981Q251 1019 304 1019Q358 1019 396 981Q434 943 434 889Q434 836 396 797.5Q358 759 304 759Z" />
<glyph glyph-name="semicolon" unicode="&#x3b;" horiz-adv-x="608" d="M304 759Q251 759 212.5 797.5Q174 836 174 889Q174 943 212.5 981Q251 1019 304 1019Q358 1019 396 981Q434 943 434 889Q434 836 396 797.5Q358 759 304 759ZM246 -367L117 -367L212 202L403 202Z" />
<glyph glyph-name="less" unicode="&#x3c;" horiz-adv-x="1328" d="M1104 991L396 605L396 589L1104 203L1104 17L224 526L224 668L1104 1177Z" />
<glyph glyph-name="equal" unicode="&#x3d;" horiz-adv-x="1328" d="M1168 312L160 312L160 461L1168 461ZM1168 700L160 700L160 849L1168 849Z" />
<glyph glyph-name="greater" unicode="&#x3e;" horiz-adv-x="1328" d="M224 991L224 1177L1104 668L1104 526L224 17L224 203L932 589L932 605Z" />
<glyph glyph-name="question" unicode="&#x3f;" horiz-adv-x="1050" d="M80 1066Q89 1237 201.5 1345.5Q314 1454 516 1454Q703 1454 821.5 1351Q940 1248 940 1092Q940 873 731 747Q637 691 602.5 641Q568 591 568 511L568 446L393 446L393 538Q392 636 440.5 708Q489 780 593 842Q681 896 717.5 950Q754 1004 754 1083Q754 1177 686.5 1237.5Q619 1298 509 1298Q396 1298 327.5 1236Q259 1174 251 1066ZM593.5 21Q593.5 21 574.25 1.5Q555 -18 494 -18Q433 -18 394 21Q355 60 355 121Q355 182 394 221.5Q433 261 494 261Q555 261 593.5 222Q632 183 632 121Q632 60 593.5 21Z" />
<glyph glyph-name="at" unicode="&#x40;" horiz-adv-x="1880" d="M934 875Q834 875 777.5 801Q721 727 721 596Q721 466 777.5 391Q834 316 932 316Q1035 316 1096 392Q1157 468 1157 596Q1157 724 1096.5 799.5Q1036 875 934 875ZM969 1435Q1203 1435 1385.5 1342Q1568 1249 1669.5 1081.5Q1771 914 1771 699Q1771 454 1669 310Q1567 166 1395 166Q1307 166 1245.5 213Q1184 260 1175 334L1159 334Q1127 258 1062 216.5Q997 175 909 175Q753 175 657 292Q561 409 561 600Q561 782 658 897.5Q755 1013 909 1013Q988 1013 1051 975Q1114 937 1143 872L1159 872L1159 994L1310 994L1310 407Q1310 354 1339.5 325Q1369 296 1423 296Q1517 296 1573.5 406Q1630 516 1630 701Q1630 880 1545.5 1018Q1461 1156 1307.5 1232.5Q1154 1309 956 1309Q763 1309 609.5 1218Q456 1127 370 963.5Q284 800 284 595Q284 275 475.5 84Q667 -107 988 -107Q1091 -107 1183.5 -94Q1276 -81 1323 -59L1323 -185Q1181 -234 986 -234Q599 -234 371 -8Q143 218 143 601Q143 784 203.5 939.5Q264 1095 372 1204Q480 1313 633.5 1374Q787 1435 969 1435Z" />
<glyph glyph-name="A" unicode="&#x41;" horiz-adv-x="1380" d="M1122 0L977 413L403 413L258 0L69 0L601 1443L779 1443L1311 0ZM682 1210L456 566L924 566L698 1210Z" />
<glyph glyph-name="B" unicode="&#x42;" horiz-adv-x="1346" d="M747 0L184 0L184 1443L736 1443Q934 1443 1048.5 1346Q1163 1249 1163 1083Q1163 971 1090.5 881Q1018 791 914 772L914 756Q1062 737 1149 642.5Q1236 548 1236 405Q1236 214 1106.5 107Q977 0 747 0ZM364 1284L364 821L652 821Q981 821 981 1052Q981 1162 906.5 1223Q832 1284 698 1284ZM364 159L720 159Q883 159 967 224Q1051 289 1051 414Q1051 666 703 666L364 666Z" />
<glyph glyph-name="C" unicode="&#x43;" horiz-adv-x="1466" d="M765 -34Q471 -34 299.5 169Q128 372 128 721Q128 1070 299 1273.5Q470 1477 764 1477Q992 1477 1154 1347Q1316 1217 1348 1008L1165 1008Q1129 1148 1021 1229.5Q913 1311 764 1311Q556 1311 434.5 1152Q313 993 313 721Q313 449 435 290.5Q557 132 765 132Q916 132 1023.5 204.5Q1131 277 1165 402L1348 402Q1312 203 1153.5 84.5Q995 -34 765 -34Z" />
<glyph glyph-name="D" unicode="&#x44;" horiz-adv-x="1487" d="M184 1443L679 1443Q1000 1443 1180 1252.5Q1360 1062 1360 722Q1360 381 1180.5 190.5Q1001 0 679 0L184 0ZM364 1281L364 162L667 162Q908 162 1042 309Q1176 456 1176 720Q1176 985 1041.5 1133Q907 1281 667 1281Z" />
<glyph glyph-name="E" unicode="&#x45;" horiz-adv-x="1220" d="M1078 162L1078 0L184 0L184 1443L1078 1443L1078 1281L364 1281L364 818L1041 818L1041 658L364 658L364 162Z" />
<glyph glyph-name="F" unicode="&#x46;" horiz-adv-x="1172" d="M364 0L184 0L184 1443L1060 1443L1060 1281L364 1281L364 785L1003 785L1003 625L364 625Z" />
<glyph glyph-name="G" unicode="&#x47;" horiz-adv-x="1529" d="M1395 558Q1395 291 1227 128.5Q1059 -34 782 -34Q483 -34 305.5 171Q128 376 128 722Q128 1064 307 1270.5Q486 1477 782 1477Q1022 1477 1184.5 1352Q1347 1227 1386 1013L1203 1013Q1156 1159 1049 1235Q942 1311 782 1311Q568 1311 440.5 1151Q313 991 313 722Q313 449 439.5 290.5Q566 132 783 132Q977 132 1096.5 245Q1216 358 1216 541L1216 576L810 576L810 734L1395 734Z" />
<glyph glyph-name="H" unicode="&#x48;" horiz-adv-x="1520" d="M1336 0L1156 0L1156 657L364 657L364 0L184 0L184 1443L364 1443L364 819L1156 819L1156 1443L1336 1443Z" />
<glyph glyph-name="I" unicode="&#x49;" horiz-adv-x="548" d="M364 0L184 0L184 1443L364 1443Z" />
<glyph glyph-name="J" unicode="&#x4a;" horiz-adv-x="1102" d="M86 337L265 337Q268 246 332 189Q396 132 497 132Q613 132 675.5 201.5Q738 271 738 403L738 1443L918 1443L918 402Q918 196 806 81Q694 -34 498 -34Q316 -34 201 69Q86 172 86 337Z" />
<glyph glyph-name="K" unicode="&#x4b;" horiz-adv-x="1349" d="M364 0L184 0L184 1443L364 1443L364 742L380 742L1012 1443L1238 1443L661 820L1291 0L1058 0L537 695L364 504Z" />
<glyph glyph-name="L" unicode="&#x4c;" horiz-adv-x="1163" d="M1060 162L1060 0L184 0L184 1443L364 1443L364 162Z" />
<glyph glyph-name="M" unicode="&#x4d;" horiz-adv-x="1790" d="M1606 0L1438 0L1438 1102L1426 1102L971 10L819 10L364 1102L352 1102L352 0L184 0L184 1443L393 1443L887 249L903 249L1397 1443L1606 1443Z" />
<glyph glyph-name="N" unicode="&#x4e;" horiz-adv-x="1520" d="M362 0L184 0L184 1443L359 1443L1142 320L1158 320L1158 1443L1336 1443L1336 0L1161 0L378 1119L362 1119Z" />
<glyph glyph-name="O" unicode="&#x4f;" horiz-adv-x="1579" d="M791 1477Q1098 1477 1274.5 1273.5Q1451 1070 1451 722Q1451 374 1274.5 170Q1098 -34 791 -34Q482 -34 305 170Q128 374 128 722Q128 1070 306.5 1273.5Q485 1477 791 1477ZM791 1311Q571 1311 442 1152Q313 993 313 722Q313 451 440.5 291.5Q568 132 791 132Q1012 132 1139 292Q1266 452 1266 722Q1266 994 1139 1152.5Q1012 1311 791 1311Z" />
<glyph glyph-name="P" unicode="&#x50;" horiz-adv-x="1301" d="M184 1443L729 1443Q934 1443 1062.5 1312.5Q1191 1182 1191 976Q1191 774 1060.5 644.5Q930 515 727 515L364 515L364 0L184 0ZM364 1283L364 675L682 675Q836 675 921 754Q1006 833 1006 976Q1006 1125 922.5 1204Q839 1283 682 1283Z" />
<glyph glyph-name="Q" unicode="&#x51;" horiz-adv-x="1579" d="M791 -34Q483 -34 305.5 168Q128 370 128 721Q128 1070 306.5 1273.5Q485 1477 791 1477Q1095 1477 1273 1273.5Q1451 1070 1451 721Q1451 506 1384.5 343Q1318 180 1195 91L1378 -163L1176 -163L1049 10Q932 -34 791 -34ZM792 132Q873 132 946 154L755 413L959 413L1090 239Q1175 307 1220.5 431.5Q1266 556 1266 721Q1266 993 1138 1152Q1010 1311 791 1311Q570 1311 441.5 1152Q313 993 313 721Q313 448 441.5 290Q570 132 792 132Z" />
<glyph glyph-name="R" unicode="&#x52;" horiz-adv-x="1338" d="M364 1283L364 731L719 731Q858 731 933.5 802.5Q1009 874 1009 1007Q1009 1137 930 1210Q851 1283 711 1283ZM364 571L364 0L184 0L184 1443L735 1443Q944 1443 1069.5 1325.5Q1195 1208 1195 1013Q1195 862 1118 752Q1041 642 905 599L1239 0L1028 0L719 571Z" />
<glyph glyph-name="S" unicode="&#x53;" horiz-adv-x="1305" d="M115 377L297 377Q314 264 414 197Q514 130 668 130Q814 130 909.5 200.5Q1005 271 1005 378Q1005 470 935 530.5Q865 591 716 629L531 677Q335 726 246 819Q157 912 157 1066Q157 1250 297.5 1363.5Q438 1477 667 1477Q876 1477 1017 1365Q1158 1253 1169 1078L988 1078Q969 1189 882.5 1251.5Q796 1314 661 1314Q517 1314 429.5 1247.5Q342 1181 342 1072Q342 987 406.5 934Q471 881 620 843L771 803Q995 747 1092.5 653Q1190 559 1190 400Q1190 201 1044 83.5Q898 -34 651 -34Q422 -34 275.5 78Q129 190 115 377Z" />
<glyph glyph-name="T" unicode="&#x54;" horiz-adv-x="1298" d="M739 0L559 0L559 1281L94 1281L94 1443L1204 1443L1204 1281L739 1281Z" />
<glyph glyph-name="U" unicode="&#x55;" horiz-adv-x="1524" d="M369 1443L369 508Q369 341 473.5 236.5Q578 132 762 132Q946 132 1050.5 236.5Q1155 341 1155 508L1155 1443L1335 1443L1335 496Q1335 261 1180.5 113.5Q1026 -34 762 -34Q498 -34 343.5 113.5Q189 261 189 496L189 1443Z" />
<glyph glyph-name="V" unicode="&#x56;" horiz-adv-x="1380" d="M779 0L601 0L69 1443L258 1443L682 233L698 233L1122 1443L1311 1443Z" />
<glyph glyph-name="W" unicode="&#x57;" horiz-adv-x="1982" d="M985 1139L653 0L483 0L90 1443L278 1443L565 270L577 270L900 1443L1082 1443L1405 270L1417 270L1704 1443L1892 1443L1499 0L1329 0L997 1139Z" />
<glyph glyph-name="X" unicode="&#x58;" horiz-adv-x="1390" d="M90 0L584 726L96 1443L313 1443L693 869L709 869L1095 1443L1300 1443L800 718L1289 0L1073 0L695 569L679 569L294 0Z" />
<glyph glyph-name="Y" unicode="&#x59;" horiz-adv-x="1344" d="M762 0L582 0L582 621L70 1443L275 1443L664 802L680 802L1069 1443L1274 1443L762 621Z" />
<glyph glyph-name="Z" unicode="&#x5a;" horiz-adv-x="1355" d="M144 0L144 128L961 1265L961 1281L172 1281L172 1443L1194 1443L1194 1315L381 178L381 162L1211 162L1211 0Z" />
<glyph glyph-name="bracketleft" unicode="&#x5b;" horiz-adv-x="782" d="M268 1506L702 1506L702 1370L436 1370L436 -171L702 -171L702 -307L268 -307Z" />
<glyph glyph-name="backslash" unicode="&#x5c;" horiz-adv-x="682" d="M530 -307L0 1506L152 1506L682 -307Z" />
<glyph glyph-name="bracketright" unicode="&#x5d;" horiz-adv-x="782" d="M514 1506L514 -307L80 -307L80 -171L346 -171L346 1370L80 1370L80 1506Z" />
<glyph glyph-name="asciicircum" unicode="&#x5e;" horiz-adv-x="984" d="M484 1280L264 780L101 780L397 1419L587 1419L883 780L720 780L500 1280Z" />
<glyph glyph-name="underscore" unicode="&#x5f;" horiz-adv-x="916" d="M926 -235L-10 -235L-10 -107L926 -107Z" />
<glyph glyph-name="grave" unicode="&#x60;" horiz-adv-x="1093" d="M782 1263L588 1263L310 1601L530 1601Z" />
<glyph glyph-name="a" unicode="&#x61;" horiz-adv-x="1130" d="M494 132Q627 132 714.5 209Q802 286 802 402L802 501L512 482Q390 474 333 431Q276 388 276 306Q276 225 337 178.5Q398 132 494 132ZM462 -19Q303 -19 200.5 68.5Q98 156 98 302Q98 446 200 528Q302 610 491 621L802 640L802 738Q802 838 740 891Q678 944 558 944Q461 944 397 909Q333 874 315 810L141 810Q158 939 274.5 1018Q391 1097 564 1097Q760 1097 867 1002Q974 907 974 738L974 0L810 0L810 159L794 159Q742 73 656 27Q570 -19 462 -19Z" />
<glyph glyph-name="b" unicode="&#x62;" horiz-adv-x="1258" d="M698 -19Q586 -19 494.5 31.5Q403 82 352 172L336 172L336 0L172 0L172 1506L344 1506L344 908L360 908Q404 995 495.5 1046Q587 1097 698 1097Q904 1097 1027 945Q1150 793 1150 539Q1150 286 1026.5 133.5Q903 -19 698 -19ZM658 942Q511 942 425.5 834Q340 726 340 539Q340 352 425.5 244Q511 136 658 136Q806 136 889 243Q972 350 972 539Q972 728 889 835Q806 942 658 942Z" />
<glyph glyph-name="c" unicode="&#x63;" horiz-adv-x="1146" d="M1054 748L880 748Q858 833 785.5 887.5Q713 942 602 942Q457 942 371.5 834Q286 726 286 543Q286 357 372 246.5Q458 136 602 136Q711 136 783.5 185Q856 234 880 325L1054 325Q1030 172 911 76.5Q792 -19 603 -19Q376 -19 242 133.5Q108 286 108 543Q108 795 242 946Q376 1097 602 1097Q791 1097 910.5 998Q1030 899 1054 748Z" />
<glyph glyph-name="d" unicode="&#x64;" horiz-adv-x="1258" d="M561 -19Q354 -19 231 133Q108 285 108 539Q108 792 231.5 944.5Q355 1097 561 1097Q674 1097 763.5 1046.5Q853 996 899 908L914 908L914 1506L1086 1506L1086 0L922 0L922 172L906 172Q855 82 764 31.5Q673 -19 561 -19ZM601 942Q454 942 370 834.5Q286 727 286 539Q286 350 369.5 243Q453 136 601 136Q748 136 833 244Q918 352 918 539Q918 724 832.5 833Q747 942 601 942Z" />
<glyph glyph-name="e" unicode="&#x65;" horiz-adv-x="1170" d="M592 945Q463 945 380 858Q297 771 287 628L881 628Q878 771 799 858Q720 945 592 945ZM876 279L1048 279Q1009 139 889.5 60Q770 -19 594 -19Q370 -19 239 131.5Q108 282 108 538Q108 793 240 945Q372 1097 594 1097Q812 1097 937 952Q1062 807 1062 555L1062 489L287 489L287 481Q294 321 377.5 227Q461 133 598 133Q807 133 876 279Z" />
<glyph glyph-name="f" unicode="&#x66;" horiz-adv-x="741" d="M234 0L234 934L55 934L55 1078L234 1078L234 1198Q234 1516 547 1516Q612 1516 663 1506L663 1366Q637 1371 582 1371Q490 1371 448 1327Q406 1283 406 1193L406 1078L653 1078L653 934L406 934L406 0Z" />
<glyph glyph-name="g" unicode="&#x67;" horiz-adv-x="1248" d="M598 168Q747 168 832.5 272.5Q918 377 918 555Q918 732 832 837Q746 942 598 942Q450 942 368 838Q286 734 286 555Q286 376 368 272Q450 168 598 168ZM606 -414Q413 -414 293.5 -334Q174 -254 154 -119L336 -119Q350 -186 421 -225Q492 -264 606 -264Q751 -264 832.5 -196.5Q914 -129 914 -10L914 202L898 202Q847 113 759 64.5Q671 16 560 16Q352 16 230 163.5Q108 311 108 555Q108 799 231 948Q354 1097 560 1097Q673 1097 766 1045.5Q859 994 906 907L922 907L922 1078L1086 1078L1086 -19Q1086 -200 956 -307Q826 -414 606 -414Z" />
<glyph glyph-name="h" unicode="&#x68;" horiz-adv-x="1216" d="M172 0L172 1506L344 1506L344 908L360 908Q401 999 485.5 1048Q570 1097 692 1097Q864 1097 964 991.5Q1064 886 1064 698L1064 0L892 0L892 656Q892 942 643 942Q501 942 422.5 859.5Q344 777 344 638L344 0Z" />
<glyph glyph-name="i" unicode="&#x69;" horiz-adv-x="504" d="M166 0L166 1078L338 1078L338 0ZM337 1332.5Q337 1332.5 319.5 1314.75Q302 1297 252 1297Q202 1297 167 1332.5Q132 1368 132 1417Q132 1466 167 1501.5Q202 1537 252 1537Q302 1537 337 1501.5Q372 1466 372 1417Q372 1368 337 1332.5Z" />
<glyph glyph-name="j" unicode="&#x6a;" horiz-adv-x="504" d="M338 1078L338 -53Q338 -219 258 -294.5Q178 -370 8 -370L-22 -370L-22 -223L4 -223Q94 -223 130 -185Q166 -147 166 -56L166 1078ZM337 1332.5Q337 1332.5 319.5 1314.75Q302 1297 252 1297Q202 1297 167 1332.5Q132 1368 132 1417Q132 1466 167 1501.5Q202 1537 252 1537Q302 1537 337 1501.5Q372 1466 372 1417Q372 1368 337 1332.5Z" />
<glyph glyph-name="k" unicode="&#x6b;" horiz-adv-x="1112" d="M360 607L828 1078L1039 1078L575 616L1070 0L851 0L447 505L344 409L344 0L172 0L172 1506L344 1506L344 607Z" />
<glyph glyph-name="l" unicode="&#x6c;" horiz-adv-x="516" d="M172 0L172 1506L344 1506L344 0Z" />
<glyph glyph-name="m" unicode="&#x6d;" horiz-adv-x="1782" d="M162 0L162 1078L326 1078L326 908L342 908Q379 998 457 1047.5Q535 1097 643 1097Q749 1097 825.5 1046Q902 995 941 908L957 908Q1001 995 1089 1046Q1177 1097 1287 1097Q1452 1097 1541 1005.5Q1630 914 1630 745L1630 0L1458 0L1458 705Q1458 942 1231 942Q1121 942 1051 870Q981 798 981 693L981 0L809 0L809 732Q809 828 747.5 885Q686 942 584 942Q479 942 406.5 862Q334 782 334 668L334 0Z" />
<glyph glyph-name="n" unicode="&#x6e;" horiz-adv-x="1195" d="M162 0L162 1078L326 1078L326 908L342 908Q428 1097 666 1097Q847 1097 945 993.5Q1043 890 1043 698L1043 0L871 0L871 656Q871 801 808.5 871.5Q746 942 617 942Q487 942 410.5 860.5Q334 779 334 638L334 0Z" />
<glyph glyph-name="o" unicode="&#x6f;" horiz-adv-x="1210" d="M968.5 130.5Q968.5 130.5 901.75 55.75Q835 -19 605 -19Q375 -19 241.5 130.5Q108 280 108 539Q108 799 241 948Q374 1097 605 1097Q836 1097 969 948Q1102 799 1102 539Q1102 280 968.5 130.5ZM369 241.5Q369 241.5 410.5 188.75Q452 136 605 136Q758 136 841 241.5Q924 347 924 539Q924 731 841 836.5Q758 942 605 942Q452 942 369 836.5Q286 731 286 539Q286 347 369 241.5Z" />
<glyph glyph-name="p" unicode="&#x70;" horiz-adv-x="1248" d="M687 1097Q893 1097 1016.5 945Q1140 793 1140 539Q1140 286 1016 133.5Q892 -19 687 -19Q572 -19 483 28.5Q394 76 350 162L334 162L334 -360L162 -360L162 1078L326 1078L326 898L342 898Q394 991 485.5 1044Q577 1097 687 1097ZM646 136Q794 136 878 243Q962 350 962 539Q962 728 878.5 835Q795 942 647 942Q501 942 415 833.5Q329 725 329 539Q329 354 414.5 245Q500 136 646 136Z" />
<glyph glyph-name="q" unicode="&#x71;" horiz-adv-x="1248" d="M559 1097Q669 1097 762.5 1043Q856 989 904 898L920 898L920 1078L1086 1078L1086 -360L912 -360L912 162L896 162Q790 -19 559 -19Q353 -19 230.5 132.5Q108 284 108 539Q108 792 231 944.5Q354 1097 559 1097ZM598 136Q746 136 831.5 244.5Q917 353 917 539Q917 724 831 833Q745 942 599 942Q452 942 369 835Q286 728 286 539Q286 349 368.5 242.5Q451 136 598 136Z" />
<glyph glyph-name="r" unicode="&#x72;" horiz-adv-x="780" d="M162 0L162 1078L326 1078L326 918L342 918Q366 997 450 1047Q534 1097 641 1097Q690 1097 727 1092L727 920Q692 930 617 930Q494 930 414 856Q334 782 334 668L334 0Z" />
<glyph glyph-name="s" unicode="&#x73;" horiz-adv-x="1072" d="M137 783Q137 917 252 1007Q367 1097 539 1097Q708 1097 818 1019Q928 941 945 808L775 808Q757 874 695.5 912.5Q634 951 538 951Q441 951 375.5 906Q310 861 310 790Q310 735 355.5 698.5Q401 662 497 639L663 599Q817 562 890.5 492Q964 422 964 307Q964 164 841 72.5Q718 -19 532 -19Q352 -19 237 61Q122 141 108 275L285 275Q307 205 372 165.5Q437 126 538 126Q647 126 717 173Q787 220 787 294Q787 404 616 446L431 491Q278 528 207.5 597.5Q137 667 137 783Z" />
<glyph glyph-name="t" unicode="&#x74;" horiz-adv-x="744" d="M234 1357L406 1357L406 1078L646 1078L646 934L406 934L406 324Q406 229 444 186Q482 143 566 143Q603 143 646 147L646 2Q589 -8 545 -8Q378 -8 306 59Q234 126 234 280L234 934L60 934L60 1078L234 1078Z" />
<glyph glyph-name="u" unicode="&#x75;" horiz-adv-x="1196" d="M1034 1078L1034 0L870 0L870 169L854 169Q813 78 728 29.5Q643 -19 520 -19Q340 -19 246 84Q152 187 152 380L152 1078L324 1078L324 422Q324 275 382 206.5Q440 138 568 138Q709 138 785.5 217.5Q862 297 862 440L862 1078Z" />
<glyph glyph-name="v" unicode="&#x76;" horiz-adv-x="1110" d="M1042 1078L643 0L467 0L68 1078L252 1078L547 190L563 190L858 1078Z" />
<glyph glyph-name="w" unicode="&#x77;" horiz-adv-x="1586" d="M1518 1078L1216 0L1041 0L800 834L784 834L544 0L370 0L68 1078L242 1078L454 216L470 216L711 1078L876 1078L1117 216L1133 216L1345 1078Z" />
<glyph glyph-name="x" unicode="&#x78;" horiz-adv-x="1076" d="M544 407L528 407L272 0L77 0L446 539L73 1078L278 1078L534 677L550 677L803 1078L998 1078L632 546L1003 0L799 0Z" />
<glyph glyph-name="y" unicode="&#x79;" horiz-adv-x="1112" d="M254 -390Q213 -390 177 -384L177 -237Q203 -242 249 -242Q324 -242 368.5 -202Q413 -162 447 -65L467 -1L68 1078L254 1078L550 191L566 191L861 1078L1044 1078L623 -66Q554 -253 476 -321.5Q398 -390 254 -390Z" />
<glyph glyph-name="z" unicode="&#x7a;" horiz-adv-x="1104" d="M137 0L137 126L759 918L759 934L138 934L138 1078L964 1078L964 949L345 160L345 144L967 144L967 0Z" />
<glyph glyph-name="braceleft" unicode="&#x7b;" horiz-adv-x="782" d="M245 588Q464 566 464 354L464 59Q464 -61 510 -113.5Q556 -166 662 -166L702 -166L702 -307L647 -307Q470 -307 385 -222.5Q300 -138 300 37L300 292Q300 412 252 458.5Q204 505 80 505L80 695Q204 695 252 741.5Q300 788 300 908L300 1162Q300 1337 385 1421.5Q470 1506 647 1506L702 1506L702 1365L662 1365Q556 1365 510 1312.5Q464 1260 464 1140L464 846Q464 634 245 612Z" />
<glyph glyph-name="bar" unicode="&#x7c;" horiz-adv-x="682" d="M414 -307L268 -307L268 1506L414 1506Z" />
<glyph glyph-name="braceright" unicode="&#x7d;" horiz-adv-x="782" d="M537 588L537 612Q318 634 318 846L318 1140Q318 1260 272 1312.5Q226 1365 120 1365L80 1365L80 1506L135 1506Q312 1506 397 1421.5Q482 1337 482 1162L482 908Q482 788 530 741.5Q578 695 702 695L702 505Q578 505 530 458.5Q482 412 482 292L482 37Q482 -138 397 -222.5Q312 -307 135 -307L80 -307L80 -166L120 -166Q226 -166 272 -113.5Q318 -61 318 59L318 354Q318 566 537 588Z" />
<glyph glyph-name="asciitilde" unicode="&#x7e;" horiz-adv-x="1202" d="M557 636Q502 692 466.5 714.5Q431 737 397 737Q267 737 256 558L96 558Q95 719 175 810.5Q255 902 401 902Q465 902 523.5 872Q582 842 647 777Q699 722 735 699.5Q771 677 805 677Q936 677 947 856L1106 856Q1107 695 1028.5 603.5Q950 512 807 512Q740 512 681.5 541Q623 570 557 636Z" />
<glyph glyph-name="nonbreakingspace" unicode="&#xa0;" horiz-adv-x="578" d="" />
<glyph glyph-name="exclamdown" unicode="&#xa1;" horiz-adv-x="637" d="M218 -342L235 622L401 622L418 -342ZM418.5 880Q418.5 880 399.25 860.5Q380 841 319 841Q258 841 219 880.5Q180 920 180 981Q180 1042 219 1081Q258 1120 319 1120Q380 1120 418.5 1081Q457 1042 457 981Q457 919 418.5 880Z" />
<glyph glyph-name="cent" unicode="&#xa2;" horiz-adv-x="1328" d="M1167 508Q1145 368 1037.5 278Q930 188 768 169L768 0L596 0L596 171Q401 201 281 349.5Q161 498 161 725Q161 949 281 1096Q401 1243 596 1272L596 1443L768 1443L768 1274Q927 1253 1036.5 1160.5Q1146 1068 1167 930L993 930Q962 1022 881 1073Q800 1124 685 1124Q536 1124 437.5 1014Q339 904 339 725Q339 543 438 431Q537 319 685 319Q811 319 890 368Q969 417 993 508Z" />
<glyph glyph-name="sterling" unicode="&#xa3;" horiz-adv-x="1328" d="M404 154L1190 154L1190 0L128 0L128 152Q261 182 348.5 281.5Q436 381 436 501Q436 567 412 653L128 653L128 797L362 797Q301 968 301 1060Q301 1256 438.5 1366.5Q576 1477 818 1477Q1005 1477 1118 1424L1118 1264Q1080 1286 996.5 1302Q913 1318 827 1318Q666 1318 575.5 1250.5Q485 1183 485 1064Q485 967 545 797L1016 797L1016 653L592 653Q613 569 613 508Q613 391 554 303Q495 215 404 168Z" />
<glyph glyph-name="currency" unicode="&#xa4;" horiz-adv-x="1328" d="M478.5 842.5Q478.5 842.5 439.75 803.75Q401 765 401 656Q401 547 478.5 469.5Q556 392 665 392Q774 392 851.5 469.5Q929 547 929 656Q929 765 851.5 842.5Q774 920 665 920Q556 920 478.5 842.5ZM1157 1043L989 874Q1056 775 1056 656Q1056 535 988 437L1157 268L1051 162L882 331Q785 265 665 265Q546 265 446 332L277 162L171 268L341 438Q274 538 274 656Q274 774 341 873L171 1043L277 1149L446 980Q546 1047 665 1047Q784 1047 883 980L1051 1149Z" />
<glyph glyph-name="yen" unicode="&#xa5;" horiz-adv-x="1328" d="M1031 269L754 269L754 0L574 0L574 269L297 269L297 405L574 405L574 571L297 571L297 707L520 707L62 1443L267 1443L656 802L672 802L1061 1443L1266 1443L808 707L1031 707L1031 571L754 571L754 405L1031 405Z" />
<glyph glyph-name="brokenbar" unicode="&#xa6;" horiz-adv-x="682" d="M414 781L268 781L268 1506L414 1506ZM414 -307L268 -307L268 418L414 418Z" />
<glyph glyph-name="section" unicode="&#xa7;" horiz-adv-x="1032" d="M451 400L534 382Q626 382 689 437Q752 492 752 573Q752 636 708 679Q664 722 582 740L499 758Q408 758 344 702Q280 646 280 567Q280 505 324.5 461.5Q369 418 451 400ZM521 -257Q349 -257 235.5 -174Q122 -91 112 42L288 42Q298 -27 365 -69Q432 -111 530 -111Q632 -111 695.5 -67Q759 -23 759 47Q759 103 712 141Q665 179 561 207L420 245Q256 289 179.5 358.5Q103 428 103 533Q103 628 161.5 697Q220 766 326 795L326 811Q107 896 107 1084Q107 1224 218 1310.5Q329 1397 508 1397Q675 1397 782 1319Q889 1241 906 1108L733 1108Q722 1173 660 1212Q598 1251 504 1251Q403 1251 341.5 1207.5Q280 1164 280 1094Q280 1037 326 999Q372 961 475 933L616 895Q778 852 853.5 784Q929 716 929 615Q929 512 858 433Q787 354 675 332L675 316Q929 259 929 59Q929 -80 814.5 -168.5Q700 -257 521 -257Z" />
<glyph glyph-name="dieresis" unicode="&#xa8;" horiz-adv-x="1092" d="M429.5 1298.5Q429.5 1298.5 411.75 1280.75Q394 1263 344 1263Q294 1263 258.5 1298.5Q223 1334 223 1384Q223 1434 258.5 1469.5Q294 1505 344 1505Q394 1505 429.5 1469.5Q465 1434 465 1384Q465 1334 429.5 1298.5ZM833.5 1298.5Q833.5 1298.5 815.75 1280.75Q798 1263 748 1263Q698 1263 662.5 1298.5Q627 1334 627 1384Q627 1434 662.5 1469.5Q698 1505 748 1505Q798 1505 833.5 1469.5Q869 1434 869 1384Q869 1334 833.5 1298.5Z" />
<glyph glyph-name="copyright" unicode="&#xa9;" horiz-adv-x="1742" d="M871 -168Q706 -168 558.5 -106.5Q411 -45 306 60.5Q201 166 139.5 313Q78 460 78 626Q78 848 182 1030Q286 1212 468 1316Q650 1420 871 1420Q1037 1420 1184.5 1359Q1332 1298 1437 1192.5Q1542 1087 1603 939.5Q1664 792 1664 626Q1664 404 1560 222Q1456 40 1274 -64Q1092 -168 871 -168ZM871 -28Q1008 -28 1129 22.5Q1250 73 1336.5 159.5Q1423 246 1473 367.5Q1523 489 1523 626Q1523 809 1438 959Q1353 1109 1203.5 1194.5Q1054 1280 871 1280Q734 1280 613 1229.5Q492 1179 405.5 1092.5Q319 1006 269 884.5Q219 763 219 626Q219 489 269.5 368Q320 247 406.5 160Q493 73 614 22.5Q735 -28 871 -28ZM1249 768L1110 768Q1092 839 1031.5 881.5Q971 924 888 924Q772 924 703.5 844Q635 764 635 628Q635 490 703.5 409Q772 328 888 328Q976 328 1034 367.5Q1092 407 1110 479L1249 479Q1230 353 1132.5 278.5Q1035 204 889 204Q708 204 600.5 319Q493 434 493 628Q493 820 600 934Q707 1048 888 1048Q1031 1048 1130 971Q1229 894 1249 768Z" />
<glyph glyph-name="ordfeminine" unicode="&#xaa;" horiz-adv-x="942" d="M438 652Q541 652 609.5 714.5Q678 777 678 869L678 965L451 948Q357 942 308.5 904.5Q260 867 260 800Q260 733 308.5 692.5Q357 652 438 652ZM390 515Q256 515 173.5 592Q91 669 91 794Q91 917 178.5 988Q266 1059 430 1069L675 1084L675 1164Q675 1239 623 1280Q571 1321 476 1321Q401 1321 351 1291.5Q301 1262 291 1211L126 1211Q137 1326 234 1394.5Q331 1463 482 1463Q649 1463 743 1382Q837 1301 837 1158L837 540L682 540L682 659L666 659Q626 590 554 552.5Q482 515 390 515Z" />
<glyph glyph-name="guillemotleft" unicode="&#xab;" horiz-adv-x="1391" d="M382 573L382 557L733 145L529 145L179 561L179 569L529 985L733 985ZM861 573L861 557L1212 145L1007 145L657 561L657 569L1008 985L1212 985Z" />
<glyph glyph-name="logicalnot" unicode="&#xac;" horiz-adv-x="1328" d="M1138 654L1138 126L990 126L990 506L190 506L190 654Z" />
<glyph glyph-name="registered" unicode="&#xae;" horiz-adv-x="1260" d="M630 449Q412 449 260 601Q108 753 108 971Q108 1115 177.5 1235Q247 1355 367 1424Q487 1493 630 1493Q738 1493 834.5 1452Q931 1411 1000.5 1341.5Q1070 1272 1111 1175.5Q1152 1079 1152 971Q1152 828 1083 708Q1014 588 894 518.5Q774 449 630 449ZM333.5 674.5Q333.5 674.5 394.25 613.75Q455 553 630 553Q805 553 926.5 674.5Q1048 796 1048 971Q1048 1146 927 1267.5Q806 1389 630 1389Q455 1389 333.5 1267.5Q212 1146 212 971Q212 796 333.5 674.5ZM527 733L429 733L429 1232L678 1232Q753 1232 802.5 1188.5Q852 1145 852 1079Q852 957 736 929L874 733L754 733L625 916L527 916ZM527 1143L527 1000L651 1000Q743 1000 743 1074Q743 1143 654 1143Z" />
<glyph glyph-name="macron" unicode="&#xaf;" horiz-adv-x="1048" d="M861 1422L861 1286L187 1286L187 1422Z" />
<glyph glyph-name="degree" unicode="&#xb0;" horiz-adv-x="901" d="M682.5 907.5Q682.5 907.5 636.25 860.25Q590 813 450 813Q310 813 218 907Q126 1001 126 1138Q126 1275 218 1369Q310 1463 450 1463Q590 1463 682.5 1368.5Q775 1274 775 1138Q775 1002 682.5 907.5ZM450 941Q539 941 594 998Q649 1055 649 1138Q649 1222 593.5 1278.5Q538 1335 450 1335Q362 1335 307.5 1278.5Q253 1222 253 1138Q253 1055 307.5 998Q362 941 450 941Z" />
<glyph glyph-name="plusminus" unicode="&#xb1;" horiz-adv-x="1328" d="M1173 112L155 112L155 260L1173 260ZM738 662L738 371L590 371L590 662L155 662L155 798L590 798L590 1089L738 1089L738 798L1173 798L1173 662Z" />
<glyph glyph-name="two.sups" unicode="&#xb2;" horiz-adv-x="825" d="M95 1539Q95 1665 182.5 1745Q270 1825 409 1825Q544 1825 630.5 1752Q717 1679 717 1565Q717 1495 674.5 1425Q632 1355 514 1237L329 1051L329 1035L730 1035L730 900L103 900L103 1010L404 1320Q495 1412 526 1459.5Q557 1507 557 1556Q557 1616 514 1655.5Q471 1695 404 1695Q334 1695 290.5 1652Q247 1609 247 1539L247 1537L95 1537Z" />
<glyph glyph-name="three.sups" unicode="&#xb3;" horiz-adv-x="853" d="M311 1300L311 1422L420 1422Q489 1422 532 1460.5Q575 1499 575 1560Q575 1621 533 1657Q491 1693 420 1693Q351 1693 307.5 1655.5Q264 1618 259 1554L108 1554Q113 1678 198.5 1750.5Q284 1823 425 1823Q557 1823 644.5 1754.5Q732 1686 732 1582Q732 1505 686.5 1448.5Q641 1392 566 1376L566 1360Q658 1353 713 1294Q768 1235 768 1145Q768 1029 671 952Q574 875 426 875Q280 875 187.5 949.5Q95 1024 90 1147L246 1147Q251 1084 300 1046.5Q349 1009 427 1009Q504 1009 553 1049.5Q602 1090 602 1154Q602 1222 554 1261Q506 1300 423 1300Z" />
<glyph glyph-name="acute" unicode="&#xb4;" horiz-adv-x="1093" d="M480 1263L286 1263L538 1601L758 1601Z" />
<glyph glyph-name="mugreek" unicode="&#xb5;" horiz-adv-x="1258" d="M162 -360L162 1078L334 1078L334 424Q334 138 578 138Q708 138 785 219Q862 300 862 440L862 1078L1034 1078L1034 269Q1034 196 1056 168.5Q1078 141 1134 141Q1159 141 1183 145L1183 0Q1146 -10 1101 -10Q990 -10 939 27.5Q888 65 872 158L870 170L854 170Q811 74 743.5 27.5Q676 -19 570 -19Q410 -19 350 110L334 110L334 -360Z" />
<glyph glyph-name="paragraph" unicode="&#xb6;" horiz-adv-x="1321" d="M834 -220L654 -220L654 575L634 575Q432 575 296 696.5Q160 818 160 1002Q160 1193 296.5 1318Q433 1443 635 1443L834 1443ZM981 -220L981 1443L1161 1443L1161 -220Z" />
<glyph glyph-name="periodcentered" unicode="&#xb7;" horiz-adv-x="630" d="M315 605Q261 605 221.5 644.5Q182 684 182 738Q182 793 221.5 832Q261 871 315 871Q370 871 409 832Q448 793 448 738Q448 684 409 644.5Q370 605 315 605Z" />
<glyph glyph-name="cedilla" unicode="&#xb8;" horiz-adv-x="1093" d="M394 -234L394 -150L464 22L587 22L587 0L536 -132Q638 -132 694.5 -175Q751 -218 751 -295Q751 -380 685.5 -432Q620 -484 507 -484Q422 -484 361 -466L361 -358Q409 -372 483 -372Q602 -372 602 -299Q602 -264 567 -249Q532 -234 453 -234Z" />
<glyph glyph-name="one.sups" unicode="&#xb9;" horiz-adv-x="664" d="M321 900L321 1642L305 1642Q291 1633 189 1559.5Q87 1486 85 1484L85 1636Q172 1701 321 1803L477 1803L477 900Z" />
<glyph glyph-name="ordmasculine" unicode="&#xba;" horiz-adv-x="1024" d="M822.5 641.5Q822.5 641.5 765.75 578.25Q709 515 512 515Q315 515 201.5 641.5Q88 768 88 989Q88 1209 201.5 1336Q315 1463 512 1463Q709 1463 822.5 1336.5Q936 1210 936 989Q936 768 822.5 641.5ZM327.5 745.5Q327.5 745.5 360.25 702.25Q393 659 512 659Q631 659 697 745.5Q763 832 763 989Q763 1147 697.5 1233Q632 1319 512 1319Q393 1319 327.5 1232.5Q262 1146 262 989Q262 832 327.5 745.5Z" />
<glyph glyph-name="guillemotright" unicode="&#xbb;" horiz-adv-x="1391" d="M530 573L179 985L383 985L734 569L734 561L384 145L179 145L530 557ZM1009 573L658 985L862 985L1212 569L1212 561L862 145L658 145L1009 557Z" />
<glyph glyph-name="onequarter" unicode="&#xbc;" horiz-adv-x="1944" d="M321 540L321 1282L305 1282Q291 1273 189 1199.5Q87 1126 85 1124L85 1276Q172 1341 321 1443L477 1443L477 540ZM671 0L504 0L839 758L1141 1443L1308 1443L990 722ZM1587 0L1587 170L1135 170L1135 311Q1212 452 1513 903L1743 903L1743 303L1864 303L1864 170L1743 170L1743 0ZM1285 307L1285 299L1589 299L1589 776L1583 776Q1380 476 1285 307Z" />
<glyph glyph-name="onehalf" unicode="&#xbd;" horiz-adv-x="1949" d="M321 540L321 1282L305 1282Q291 1273 189 1199.5Q87 1126 85 1124L85 1276Q172 1341 321 1443L477 1443L477 540ZM671 0L504 0L839 758L1141 1443L1308 1443L990 722ZM1219 639Q1219 765 1306.5 845Q1394 925 1533 925Q1668 925 1754.5 852Q1841 779 1841 665Q1841 595 1798.5 525Q1756 455 1638 337L1453 151L1453 135L1854 135L1854 0L1227 0L1227 110L1528 420Q1619 512 1650 559.5Q1681 607 1681 656Q1681 716 1638 755.5Q1595 795 1528 795Q1458 795 1414.5 752Q1371 709 1371 639L1371 637L1219 637Z" />
<glyph glyph-name="threequarters" unicode="&#xbe;" horiz-adv-x="2134" d="M311 940L311 1062L420 1062Q489 1062 532 1100.5Q575 1139 575 1200Q575 1261 533 1297Q491 1333 420 1333Q351 1333 307.5 1295.5Q264 1258 259 1194L108 1194Q113 1318 198.5 1390.5Q284 1463 425 1463Q557 1463 644.5 1394.5Q732 1326 732 1222Q732 1145 686.5 1088.5Q641 1032 566 1016L566 1000Q658 993 713 934Q768 875 768 785Q768 669 671 592Q574 515 426 515Q280 515 187.5 589.5Q95 664 90 787L246 787Q251 724 300 686.5Q349 649 427 649Q504 649 553 689.5Q602 730 602 794Q602 862 554 901Q506 940 423 940ZM861 0L694 0L1029 758L1331 1443L1498 1443L1180 722ZM1777 0L1777 170L1325 170L1325 311Q1371 396 1447.5 515.5Q1524 635 1703 903L1933 903L1933 303L2054 303L2054 170L1933 170L1933 0ZM1475 307L1475 299L1779 299L1779 776L1773 776Q1570 476 1475 307Z" />
<glyph glyph-name="questiondown" unicode="&#xbf;" horiz-adv-x="1050" d="M970 35Q962 -136 849 -245Q736 -354 535 -354Q347 -354 228.5 -251Q110 -148 110 10Q110 226 319 353Q413 409 447 459Q481 509 481 589L481 654L656 654L656 562Q657 464 609.5 392.5Q562 321 457 258Q370 204 333 150.5Q296 97 296 19Q296 -77 363.5 -137.5Q431 -198 542 -198Q654 -198 722.5 -135.5Q791 -73 799 35ZM656.5 879Q656.5 879 637.25 859.5Q618 840 557 840Q496 840 457 879Q418 918 418 979Q418 1039 457.5 1079Q497 1119 557 1119Q617 1119 656 1079Q695 1039 695 979Q695 918 656.5 879Z" />
<glyph glyph-name="Agrave" unicode="&#xc0;" horiz-adv-x="1380" d="M1122 0L977 413L403 413L258 0L69 0L601 1443L779 1443L1311 0ZM682 1210L456 566L924 566L698 1210ZM584 1575L252 1873L478 1873L788 1575Z" />
<glyph glyph-name="Aacute" unicode="&#xc1;" horiz-adv-x="1380" d="M1122 0L977 413L403 413L258 0L69 0L601 1443L779 1443L1311 0ZM682 1210L456 566L924 566L698 1210ZM788 1575L584 1575L894 1873L1120 1873Z" />
<glyph glyph-name="Acircumflex" unicode="&#xc2;" horiz-adv-x="1380" d="M1122 0L977 413L403 413L258 0L69 0L601 1443L779 1443L1311 0ZM682 1210L456 566L924 566L698 1210ZM608 1873L772 1873L1072 1575L870 1575L698 1752L682 1752L510 1575L308 1575Z" />
<glyph glyph-name="Atilde" unicode="&#xc3;" horiz-adv-x="1380" d="M1122 0L977 413L403 413L258 0L69 0L601 1443L779 1443L1311 0ZM682 1210L456 566L924 566L698 1210ZM835 1580Q791 1580 752.5 1596Q714 1612 688 1635Q662 1658 640 1681.5Q618 1705 595.5 1721Q573 1737 551 1737Q498 1737 475.5 1701Q453 1665 453 1580L311 1580Q311 1716 372.5 1793.5Q434 1871 543 1871Q587 1871 625.5 1855Q664 1839 690 1815.5Q716 1792 738 1769Q760 1746 782.5 1730Q805 1714 827 1714Q880 1714 902.5 1750Q925 1786 925 1871L1067 1871Q1067 1735 1005.5 1657.5Q944 1580 835 1580Z" />
<glyph glyph-name="Adieresis" unicode="&#xc4;" horiz-adv-x="1380" d="M1122 0L977 413L403 413L258 0L69 0L601 1443L779 1443L1311 0ZM682 1210L456 566L924 566L698 1210ZM573.5 1610.5Q573.5 1610.5 555.75 1592.75Q538 1575 488 1575Q438 1575 402.5 1610.5Q367 1646 367 1696Q367 1746 402.5 1781.5Q438 1817 488 1817Q538 1817 573.5 1781.5Q609 1746 609 1696Q609 1646 573.5 1610.5ZM977.5 1610.5Q977.5 1610.5 959.75 1592.75Q942 1575 892 1575Q842 1575 806.5 1610.5Q771 1646 771 1696Q771 1746 806.5 1781.5Q842 1817 892 1817Q942 1817 977.5 1781.5Q1013 1746 1013 1696Q1013 1646 977.5 1610.5Z" />
<glyph glyph-name="Aring" unicode="&#xc5;" horiz-adv-x="1380" d="M1122 0L977 413L403 413L258 0L69 0L601 1443L779 1443L1311 0ZM682 1210L456 566L924 566L698 1210ZM831 1608Q831 1608 802 1579.5Q773 1551 690 1551Q607 1551 549 1608Q491 1665 491 1748Q491 1831 549 1888Q607 1945 690 1945Q773 1945 831 1888Q889 1831 889 1748Q889 1665 831 1608ZM614.5 1673Q614.5 1673 629.25 1658Q644 1643 690 1643Q736 1643 765.5 1673Q795 1703 795 1748Q795 1794 765.5 1823.5Q736 1853 690 1853Q644 1853 614.5 1823.5Q585 1794 585 1748Q585 1703 614.5 1673Z" />
<glyph glyph-name="AE" unicode="&#xc6;" horiz-adv-x="1966" d="M839 1292L529 612L986 612L986 1292ZM986 0L986 459L459 459L250 0L69 0L720 1443L1824 1443L1824 1281L1166 1281L1166 808L1787 808L1787 648L1166 648L1166 162L1824 162L1824 0Z" />
<glyph glyph-name="Ccedilla" unicode="&#xc7;" horiz-adv-x="1466" d="M1348 1008L1165 1008Q1129 1148 1021 1229.5Q913 1311 764 1311Q556 1311 434.5 1152Q313 993 313 721Q313 449 435 290.5Q557 132 765 132Q916 132 1023.5 204.5Q1131 277 1165 402L1348 402Q1314 217 1174 101Q1034 -15 827 -32L788 -132Q890 -132 946.5 -175Q1003 -218 1003 -295Q1003 -380 937.5 -432Q872 -484 759 -484Q674 -484 613 -466L613 -358Q661 -372 735 -372Q854 -372 854 -299Q854 -264 819 -249Q784 -234 705 -234L646 -234L646 -150L695 -31Q431 -6 279.5 194.5Q128 395 128 721Q128 1070 299 1273.5Q470 1477 764 1477Q992 1477 1154 1347Q1316 1217 1348 1008Z" />
<glyph glyph-name="Egrave" unicode="&#xc8;" horiz-adv-x="1220" d="M1078 162L1078 0L184 0L184 1443L1078 1443L1078 1281L364 1281L364 818L1041 818L1041 658L364 658L364 162ZM525 1575L193 1873L419 1873L729 1575Z" />
<glyph glyph-name="Eacute" unicode="&#xc9;" horiz-adv-x="1220" d="M1078 162L1078 0L184 0L184 1443L1078 1443L1078 1281L364 1281L364 818L1041 818L1041 658L364 658L364 162ZM729 1575L525 1575L835 1873L1061 1873Z" />
<glyph glyph-name="Ecircumflex" unicode="&#xca;" horiz-adv-x="1220" d="M1078 162L1078 0L184 0L184 1443L1078 1443L1078 1281L364 1281L364 818L1041 818L1041 658L364 658L364 162ZM549 1873L713 1873L1013 1575L811 1575L639 1752L623 1752L451 1575L249 1575Z" />
<glyph glyph-name="Edieresis" unicode="&#xcb;" horiz-adv-x="1220" d="M1078 162L1078 0L184 0L184 1443L1078 1443L1078 1281L364 1281L364 818L1041 818L1041 658L364 658L364 162ZM514.5 1610.5Q514.5 1610.5 496.75 1592.75Q479 1575 429 1575Q379 1575 343.5 1610.5Q308 1646 308 1696Q308 1746 343.5 1781.5Q379 1817 429 1817Q479 1817 514.5 1781.5Q550 1746 550 1696Q550 1646 514.5 1610.5ZM918.5 1610.5Q918.5 1610.5 900.75 1592.75Q883 1575 833 1575Q783 1575 747.5 1610.5Q712 1646 712 1696Q712 1746 747.5 1781.5Q783 1817 833 1817Q883 1817 918.5 1781.5Q954 1746 954 1696Q954 1646 918.5 1610.5Z" />
<glyph glyph-name="Igrave" unicode="&#xcc;" horiz-adv-x="548" d="M364 0L184 0L184 1443L364 1443ZM168 1575L-164 1873L62 1873L372 1575Z" />
<glyph glyph-name="Iacute" unicode="&#xcd;" horiz-adv-x="548" d="M364 0L184 0L184 1443L364 1443ZM372 1575L168 1575L478 1873L704 1873Z" />
<glyph glyph-name="Icircumflex" unicode="&#xce;" horiz-adv-x="548" d="M364 0L184 0L184 1443L364 1443ZM192 1873L356 1873L656 1575L454 1575L282 1752L266 1752L94 1575L-108 1575Z" />
<glyph glyph-name="Idieresis" unicode="&#xcf;" horiz-adv-x="548" d="M364 0L184 0L184 1443L364 1443ZM157.5 1610.5Q157.5 1610.5 139.75 1592.75Q122 1575 72 1575Q22 1575 -13.5 1610.5Q-49 1646 -49 1696Q-49 1746 -13.5 1781.5Q22 1817 72 1817Q122 1817 157.5 1781.5Q193 1746 193 1696Q193 1646 157.5 1610.5ZM561.5 1610.5Q561.5 1610.5 543.75 1592.75Q526 1575 476 1575Q426 1575 390.5 1610.5Q355 1646 355 1696Q355 1746 390.5 1781.5Q426 1817 476 1817Q526 1817 561.5 1781.5Q597 1746 597 1696Q597 1646 561.5 1610.5Z" />
<glyph glyph-name="Eth" unicode="&#xd0;" horiz-adv-x="1487" d="M364 162L667 162Q908 162 1042 309Q1176 456 1176 720Q1176 985 1041.5 1133Q907 1281 667 1281L364 1281L364 826L612 826L612 663L364 663ZM184 1443L679 1443Q1000 1443 1180 1252.5Q1360 1062 1360 722Q1360 381 1180.5 190.5Q1001 0 679 0L184 0L184 663L26 663L26 826L184 826Z" />
<glyph glyph-name="Ntilde" unicode="&#xd1;" horiz-adv-x="1520" d="M362 0L184 0L184 1443L359 1443L1142 320L1158 320L1158 1443L1336 1443L1336 0L1161 0L378 1119L362 1119ZM905 1580Q861 1580 822.5 1596Q784 1612 758 1635Q732 1658 710 1681.5Q688 1705 665.5 1721Q643 1737 621 1737Q568 1737 545.5 1701Q523 1665 523 1580L381 1580Q381 1716 442.5 1793.5Q504 1871 613 1871Q657 1871 695.5 1855Q734 1839 760 1815.5Q786 1792 808 1769Q830 1746 852.5 1730Q875 1714 897 1714Q950 1714 972.5 1750Q995 1786 995 1871L1137 1871Q1137 1735 1075.5 1657.5Q1014 1580 905 1580Z" />
<glyph glyph-name="Ograve" unicode="&#xd2;" horiz-adv-x="1579" d="M791 1477Q1098 1477 1274.5 1273.5Q1451 1070 1451 722Q1451 374 1274.5 170Q1098 -34 791 -34Q482 -34 305 170Q128 374 128 722Q128 1070 306.5 1273.5Q485 1477 791 1477ZM791 1311Q571 1311 442 1152Q313 993 313 722Q313 451 440.5 291.5Q568 132 791 132Q1012 132 1139 292Q1266 452 1266 722Q1266 994 1139 1152.5Q1012 1311 791 1311ZM685 1575L353 1873L579 1873L889 1575Z" />
<glyph glyph-name="Oacute" unicode="&#xd3;" horiz-adv-x="1579" d="M791 1477Q1098 1477 1274.5 1273.5Q1451 1070 1451 722Q1451 374 1274.5 170Q1098 -34 791 -34Q482 -34 305 170Q128 374 128 722Q128 1070 306.5 1273.5Q485 1477 791 1477ZM791 1311Q571 1311 442 1152Q313 993 313 722Q313 451 440.5 291.5Q568 132 791 132Q1012 132 1139 292Q1266 452 1266 722Q1266 994 1139 1152.5Q1012 1311 791 1311ZM889 1575L685 1575L995 1873L1221 1873Z" />
<glyph glyph-name="Ocircumflex" unicode="&#xd4;" horiz-adv-x="1579" d="M791 1477Q1098 1477 1274.5 1273.5Q1451 1070 1451 722Q1451 374 1274.5 170Q1098 -34 791 -34Q482 -34 305 170Q128 374 128 722Q128 1070 306.5 1273.5Q485 1477 791 1477ZM791 1311Q571 1311 442 1152Q313 993 313 722Q313 451 440.5 291.5Q568 132 791 132Q1012 132 1139 292Q1266 452 1266 722Q1266 994 1139 1152.5Q1012 1311 791 1311ZM709 1873L873 1873L1173 1575L971 1575L799 1752L783 1752L611 1575L409 1575Z" />
<glyph glyph-name="Otilde" unicode="&#xd5;" horiz-adv-x="1579" d="M791 1477Q1098 1477 1274.5 1273.5Q1451 1070 1451 722Q1451 374 1274.5 170Q1098 -34 791 -34Q482 -34 305 170Q128 374 128 722Q128 1070 306.5 1273.5Q485 1477 791 1477ZM791 1311Q571 1311 442 1152Q313 993 313 722Q313 451 440.5 291.5Q568 132 791 132Q1012 132 1139 292Q1266 452 1266 722Q1266 994 1139 1152.5Q1012 1311 791 1311ZM936 1580Q892 1580 853.5 1596Q815 1612 789 1635Q763 1658 741 1681.5Q719 1705 696.5 1721Q674 1737 652 1737Q599 1737 576.5 1701Q554 1665 554 1580L412 1580Q412 1716 473.5 1793.5Q535 1871 644 1871Q688 1871 726.5 1855Q765 1839 791 1815.5Q817 1792 839 1769Q861 1746 883.5 1730Q906 1714 928 1714Q981 1714 1003.5 1750Q1026 1786 1026 1871L1168 1871Q1168 1735 1106.5 1657.5Q1045 1580 936 1580Z" />
<glyph glyph-name="Odieresis" unicode="&#xd6;" horiz-adv-x="1579" d="M791 1477Q1098 1477 1274.5 1273.5Q1451 1070 1451 722Q1451 374 1274.5 170Q1098 -34 791 -34Q482 -34 305 170Q128 374 128 722Q128 1070 306.5 1273.5Q485 1477 791 1477ZM791 1311Q571 1311 442 1152Q313 993 313 722Q313 451 440.5 291.5Q568 132 791 132Q1012 132 1139 292Q1266 452 1266 722Q1266 994 1139 1152.5Q1012 1311 791 1311ZM674.5 1610.5Q674.5 1610.5 656.75 1592.75Q639 1575 589 1575Q539 1575 503.5 1610.5Q468 1646 468 1696Q468 1746 503.5 1781.5Q539 1817 589 1817Q639 1817 674.5 1781.5Q710 1746 710 1696Q710 1646 674.5 1610.5ZM1078.5 1610.5Q1078.5 1610.5 1060.75 1592.75Q1043 1575 993 1575Q943 1575 907.5 1610.5Q872 1646 872 1696Q872 1746 907.5 1781.5Q943 1817 993 1817Q1043 1817 1078.5 1781.5Q1114 1746 1114 1696Q1114 1646 1078.5 1610.5Z" />
<glyph glyph-name="multiply" unicode="&#xd7;" horiz-adv-x="1328" d="M664 475L356 168L252 272L559 580L252 888L356 992L664 685L972 992L1076 888L769 580L1076 272L972 168Z" />
<glyph glyph-name="Oslash" unicode="&#xd8;" horiz-adv-x="1551" d="M1158 1127L483 246Q605 132 791 132Q1012 132 1139 292Q1266 452 1266 722Q1266 971 1158 1127ZM403 346L1075 1217Q958 1311 791 1311Q571 1311 442 1152Q313 993 313 722Q313 495 403 346ZM1382 1419L1272 1276Q1451 1074 1451 722Q1451 374 1274.5 170Q1098 -34 791 -34Q543 -34 373 103L258 -47L158 29L285 194Q128 394 128 722Q128 1070 306.5 1273.5Q485 1477 791 1477Q1022 1477 1183 1358L1284 1488Z" />
<glyph glyph-name="Ugrave" unicode="&#xd9;" horiz-adv-x="1524" d="M369 1443L369 508Q369 341 473.5 236.5Q578 132 762 132Q946 132 1050.5 236.5Q1155 341 1155 508L1155 1443L1335 1443L1335 496Q1335 261 1180.5 113.5Q1026 -34 762 -34Q498 -34 343.5 113.5Q189 261 189 496L189 1443ZM656 1575L324 1873L550 1873L860 1575Z" />
<glyph glyph-name="Uacute" unicode="&#xda;" horiz-adv-x="1524" d="M369 1443L369 508Q369 341 473.5 236.5Q578 132 762 132Q946 132 1050.5 236.5Q1155 341 1155 508L1155 1443L1335 1443L1335 496Q1335 261 1180.5 113.5Q1026 -34 762 -34Q498 -34 343.5 113.5Q189 261 189 496L189 1443ZM860 1575L656 1575L966 1873L1192 1873Z" />
<glyph glyph-name="Ucircumflex" unicode="&#xdb;" horiz-adv-x="1524" d="M369 1443L369 508Q369 341 473.5 236.5Q578 132 762 132Q946 132 1050.5 236.5Q1155 341 1155 508L1155 1443L1335 1443L1335 496Q1335 261 1180.5 113.5Q1026 -34 762 -34Q498 -34 343.5 113.5Q189 261 189 496L189 1443ZM680 1873L844 1873L1144 1575L942 1575L770 1752L754 1752L582 1575L380 1575Z" />
<glyph glyph-name="Udieresis" unicode="&#xdc;" horiz-adv-x="1524" d="M369 1443L369 508Q369 341 473.5 236.5Q578 132 762 132Q946 132 1050.5 236.5Q1155 341 1155 508L1155 1443L1335 1443L1335 496Q1335 261 1180.5 113.5Q1026 -34 762 -34Q498 -34 343.5 113.5Q189 261 189 496L189 1443ZM645.5 1610.5Q645.5 1610.5 627.75 1592.75Q610 1575 560 1575Q510 1575 474.5 1610.5Q439 1646 439 1696Q439 1746 474.5 1781.5Q510 1817 560 1817Q610 1817 645.5 1781.5Q681 1746 681 1696Q681 1646 645.5 1610.5ZM1049.5 1610.5Q1049.5 1610.5 1031.75 1592.75Q1014 1575 964 1575Q914 1575 878.5 1610.5Q843 1646 843 1696Q843 1746 878.5 1781.5Q914 1817 964 1817Q1014 1817 1049.5 1781.5Q1085 1746 1085 1696Q1085 1646 1049.5 1610.5Z" />
<glyph glyph-name="Yacute" unicode="&#xdd;" horiz-adv-x="1344" d="M762 0L582 0L582 621L70 1443L275 1443L664 802L680 802L1069 1443L1274 1443L762 621ZM770 1575L566 1575L876 1873L1102 1873Z" />
<glyph glyph-name="Thorn" unicode="&#xde;" horiz-adv-x="1280" d="M184 1443L364 1443L364 1177L737 1177Q820 1177 896 1149Q972 1121 1030.5 1069Q1089 1017 1124 937.5Q1159 858 1159 762Q1159 666 1124 586Q1089 506 1029.5 454Q970 402 894 373.5Q818 345 735 345L364 345L364 0L184 0ZM364 1017L364 505L686 505Q816 505 895 571Q974 637 974 762Q974 887 895 952Q816 1017 686 1017Z" />
<glyph glyph-name="germandbls" unicode="&#xdf;" horiz-adv-x="1274" d="M396 0L225 0L225 1101Q225 1283 340.5 1389.5Q456 1496 644 1496Q827 1496 943 1391Q1059 1286 1059 1121Q1059 1000 994 909Q929 818 830 787L830 769Q986 754 1076 660.5Q1166 567 1166 407Q1166 226 1040 106Q914 -14 711 -14Q628 -14 567 -1L567 152Q628 138 699 138Q838 138 916.5 213Q995 288 995 409Q995 534 905.5 606Q816 678 655 678L594 678L594 848L645 848Q758 848 824 916.5Q890 985 890 1112Q890 1212 824 1278Q758 1344 647 1344Q530 1344 463 1275.5Q396 1207 396 1084Z" />
<glyph glyph-name="agrave" unicode="&#xe0;" horiz-adv-x="1130" d="M494 132Q627 132 714.5 209Q802 286 802 402L802 501L512 482Q390 474 333 431Q276 388 276 306Q276 225 337 178.5Q398 132 494 132ZM462 -19Q303 -19 200.5 68.5Q98 156 98 302Q98 446 200 528Q302 610 491 621L802 640L802 738Q802 838 740 891Q678 944 558 944Q461 944 397 909Q333 874 315 810L141 810Q158 939 274.5 1018Q391 1097 564 1097Q760 1097 867 1002Q974 907 974 738L974 0L810 0L810 159L794 159Q742 73 656 27Q570 -19 462 -19ZM686 1263L492 1263L214 1601L434 1601Z" />
<glyph glyph-name="aacute" unicode="&#xe1;" horiz-adv-x="1130" d="M494 132Q627 132 714.5 209Q802 286 802 402L802 501L512 482Q390 474 333 431Q276 388 276 306Q276 225 337 178.5Q398 132 494 132ZM462 -19Q303 -19 200.5 68.5Q98 156 98 302Q98 446 200 528Q302 610 491 621L802 640L802 738Q802 838 740 891Q678 944 558 944Q461 944 397 909Q333 874 315 810L141 810Q158 939 274.5 1018Q391 1097 564 1097Q760 1097 867 1002Q974 907 974 738L974 0L810 0L810 159L794 159Q742 73 656 27Q570 -19 462 -19ZM644 1263L450 1263L702 1601L922 1601Z" />
<glyph glyph-name="acircumflex" unicode="&#xe2;" horiz-adv-x="1130" d="M494 132Q627 132 714.5 209Q802 286 802 402L802 501L512 482Q390 474 333 431Q276 388 276 306Q276 225 337 178.5Q398 132 494 132ZM462 -19Q303 -19 200.5 68.5Q98 156 98 302Q98 446 200 528Q302 610 491 621L802 640L802 738Q802 838 740 891Q678 944 558 944Q461 944 397 909Q333 874 315 810L141 810Q158 939 274.5 1018Q391 1097 564 1097Q760 1097 867 1002Q974 907 974 738L974 0L810 0L810 159L794 159Q742 73 656 27Q570 -19 462 -19ZM665 1568L947 1228L749 1228L572 1455L556 1455L379 1228L181 1228L463 1568Z" />
<glyph glyph-name="atilde" unicode="&#xe3;" horiz-adv-x="1130" d="M494 132Q627 132 714.5 209Q802 286 802 402L802 501L512 482Q390 474 333 431Q276 388 276 306Q276 225 337 178.5Q398 132 494 132ZM462 -19Q303 -19 200.5 68.5Q98 156 98 302Q98 446 200 528Q302 610 491 621L802 640L802 738Q802 838 740 891Q678 944 558 944Q461 944 397 909Q333 874 315 810L141 810Q158 939 274.5 1018Q391 1097 564 1097Q760 1097 867 1002Q974 907 974 738L974 0L810 0L810 159L794 159Q742 73 656 27Q570 -19 462 -19ZM710 1231Q666 1231 627.5 1247Q589 1263 563 1286.5Q537 1310 515 1333Q493 1356 470.5 1372Q448 1388 426 1388Q373 1388 350.5 1352Q328 1316 328 1231L186 1231Q186 1367 247.5 1444.5Q309 1522 418 1522Q462 1522 500.5 1506Q539 1490 565 1467Q591 1444 613 1420.5Q635 1397 657.5 1381Q680 1365 702 1365Q755 1365 777.5 1401Q800 1437 800 1522L942 1522Q942 1386 880.5 1308.5Q819 1231 710 1231Z" />
<glyph glyph-name="adieresis" unicode="&#xe4;" horiz-adv-x="1130" d="M494 132Q627 132 714.5 209Q802 286 802 402L802 501L512 482Q390 474 333 431Q276 388 276 306Q276 225 337 178.5Q398 132 494 132ZM462 -19Q303 -19 200.5 68.5Q98 156 98 302Q98 446 200 528Q302 610 491 621L802 640L802 738Q802 838 740 891Q678 944 558 944Q461 944 397 909Q333 874 315 810L141 810Q158 939 274.5 1018Q391 1097 564 1097Q760 1097 867 1002Q974 907 974 738L974 0L810 0L810 159L794 159Q742 73 656 27Q570 -19 462 -19ZM447.5 1263.5Q447.5 1263.5 429.75 1245.75Q412 1228 362 1228Q312 1228 276.5 1263.5Q241 1299 241 1349Q241 1399 276.5 1434.5Q312 1470 362 1470Q412 1470 447.5 1434.5Q483 1399 483 1349Q483 1299 447.5 1263.5ZM851.5 1263.5Q851.5 1263.5 833.75 1245.75Q816 1228 766 1228Q716 1228 680.5 1263.5Q645 1299 645 1349Q645 1399 680.5 1434.5Q716 1470 766 1470Q816 1470 851.5 1434.5Q887 1399 887 1349Q887 1299 851.5 1263.5Z" />
<glyph glyph-name="aring" unicode="&#xe5;" horiz-adv-x="1130" d="M494 132Q627 132 714.5 209Q802 286 802 402L802 501L512 482Q390 474 333 431Q276 388 276 306Q276 225 337 178.5Q398 132 494 132ZM462 -19Q303 -19 200.5 68.5Q98 156 98 302Q98 446 200 528Q302 610 491 621L802 640L802 738Q802 838 740 891Q678 944 558 944Q461 944 397 909Q333 874 315 810L141 810Q158 939 274.5 1018Q391 1097 564 1097Q760 1097 867 1002Q974 907 974 738L974 0L810 0L810 159L794 159Q742 73 656 27Q570 -19 462 -19ZM728 1294.5Q728 1294.5 694 1261.25Q660 1228 564 1228Q468 1228 400 1294.5Q332 1361 332 1457Q332 1553 400 1619.5Q468 1686 564 1686Q660 1686 728 1619.5Q796 1553 796 1457Q796 1361 728 1294.5ZM477 1369Q477 1369 494.5 1351.5Q512 1334 564 1334Q616 1334 651 1369Q686 1404 686 1457Q686 1510 651 1545Q616 1580 564 1580Q512 1580 477 1545Q442 1510 442 1457Q442 1404 477 1369Z" />
<glyph glyph-name="ae" unicode="&#xe6;" horiz-adv-x="1849" d="M1287 -19Q1158 -19 1051 46Q944 111 901 212L885 212Q832 103 726.5 42Q621 -19 479 -19Q308 -19 203 68Q98 155 98 302Q98 446 200 528Q302 610 491 621L802 640L802 738Q802 838 740 891Q678 944 558 944Q461 944 397 909Q333 874 315 810L141 810Q158 940 274.5 1018.5Q391 1097 564 1097Q688 1097 778.5 1046.5Q869 996 912 912L928 912Q976 993 1073.5 1045Q1171 1097 1285 1097Q1499 1097 1620 956.5Q1741 816 1741 568L1741 500L973 500L973 482Q980 323 1066 228.5Q1152 134 1291 134Q1391 134 1455.5 169.5Q1520 205 1555 279L1727 279Q1686 136 1571.5 58.5Q1457 -19 1287 -19ZM1276 946Q1146 946 1064.5 863.5Q983 781 973 639L1560 639Q1557 774 1477.5 860Q1398 946 1276 946ZM504 132Q632 132 717 212.5Q802 293 802 410L802 501L512 482Q390 474 333 431Q276 388 276 306Q276 225 338.5 178.5Q401 132 504 132Z" />
<glyph glyph-name="ccedilla" unicode="&#xe7;" horiz-adv-x="1146" d="M1054 748L880 748Q858 833 785.5 887.5Q713 942 602 942Q457 942 371.5 834Q286 726 286 543Q286 357 372 246.5Q458 136 602 136Q711 136 783.5 185Q856 234 880 325L1054 325Q1032 186 932 94Q832 2 672 -15L627 -132Q729 -132 785.5 -175Q842 -218 842 -295Q842 -380 776.5 -432Q711 -484 598 -484Q514 -484 452 -466L452 -358Q500 -372 574 -372Q693 -372 693 -299Q693 -264 658 -249Q623 -234 544 -234L485 -234L485 -150L540 -16Q340 6 224 155.5Q108 305 108 543Q108 795 242 946Q376 1097 602 1097Q791 1097 910.5 998Q1030 899 1054 748Z" />
<glyph glyph-name="egrave" unicode="&#xe8;" horiz-adv-x="1170" d="M592 945Q463 945 380 858Q297 771 287 628L881 628Q878 771 799 858Q720 945 592 945ZM876 279L1048 279Q1009 139 889.5 60Q770 -19 594 -19Q370 -19 239 131.5Q108 282 108 538Q108 793 240 945Q372 1097 594 1097Q812 1097 937 952Q1062 807 1062 555L1062 489L287 489L287 481Q294 321 377.5 227Q461 133 598 133Q807 133 876 279ZM716 1263L522 1263L244 1601L464 1601Z" />
<glyph glyph-name="eacute" unicode="&#xe9;" horiz-adv-x="1170" d="M592 945Q463 945 380 858Q297 771 287 628L881 628Q878 771 799 858Q720 945 592 945ZM876 279L1048 279Q1009 139 889.5 60Q770 -19 594 -19Q370 -19 239 131.5Q108 282 108 538Q108 793 240 945Q372 1097 594 1097Q812 1097 937 952Q1062 807 1062 555L1062 489L287 489L287 481Q294 321 377.5 227Q461 133 598 133Q807 133 876 279ZM674 1263L480 1263L732 1601L952 1601Z" />
<glyph glyph-name="ecircumflex" unicode="&#xea;" horiz-adv-x="1170" d="M592 945Q463 945 380 858Q297 771 287 628L881 628Q878 771 799 858Q720 945 592 945ZM876 279L1048 279Q1009 139 889.5 60Q770 -19 594 -19Q370 -19 239 131.5Q108 282 108 538Q108 793 240 945Q372 1097 594 1097Q812 1097 937 952Q1062 807 1062 555L1062 489L287 489L287 481Q294 321 377.5 227Q461 133 598 133Q807 133 876 279ZM695 1568L977 1228L779 1228L602 1455L586 1455L409 1228L211 1228L493 1568Z" />
<glyph glyph-name="edieresis" unicode="&#xeb;" horiz-adv-x="1170" d="M592 945Q463 945 380 858Q297 771 287 628L881 628Q878 771 799 858Q720 945 592 945ZM876 279L1048 279Q1009 139 889.5 60Q770 -19 594 -19Q370 -19 239 131.5Q108 282 108 538Q108 793 240 945Q372 1097 594 1097Q812 1097 937 952Q1062 807 1062 555L1062 489L287 489L287 481Q294 321 377.5 227Q461 133 598 133Q807 133 876 279ZM477.5 1263.5Q477.5 1263.5 459.75 1245.75Q442 1228 392 1228Q342 1228 306.5 1263.5Q271 1299 271 1349Q271 1399 306.5 1434.5Q342 1470 392 1470Q442 1470 477.5 1434.5Q513 1399 513 1349Q513 1299 477.5 1263.5ZM881.5 1263.5Q881.5 1263.5 863.75 1245.75Q846 1228 796 1228Q746 1228 710.5 1263.5Q675 1299 675 1349Q675 1399 710.5 1434.5Q746 1470 796 1470Q846 1470 881.5 1434.5Q917 1399 917 1349Q917 1299 881.5 1263.5Z" />
<glyph glyph-name="igrave" unicode="&#xec;" horiz-adv-x="504" d="M166 0L166 1078L338 1078L338 0ZM374 1263L180 1263L-98 1601L122 1601Z" />
<glyph glyph-name="iacute" unicode="&#xed;" horiz-adv-x="504" d="M166 0L166 1078L338 1078L338 0ZM332 1263L138 1263L390 1601L610 1601Z" />
<glyph glyph-name="icircumflex" unicode="&#xee;" horiz-adv-x="504" d="M166 0L166 1078L338 1078L338 0ZM353 1568L635 1228L437 1228L260 1455L244 1455L67 1228L-131 1228L151 1568Z" />
<glyph glyph-name="idieresis" unicode="&#xef;" horiz-adv-x="504" d="M166 0L166 1078L338 1078L338 0ZM135.5 1263.5Q135.5 1263.5 117.75 1245.75Q100 1228 50 1228Q0 1228 -35.5 1263.5Q-71 1299 -71 1349Q-71 1399 -35.5 1434.5Q0 1470 50 1470Q100 1470 135.5 1434.5Q171 1399 171 1349Q171 1299 135.5 1263.5ZM539.5 1263.5Q539.5 1263.5 521.75 1245.75Q504 1228 454 1228Q404 1228 368.5 1263.5Q333 1299 333 1349Q333 1399 368.5 1434.5Q404 1470 454 1470Q504 1470 539.5 1434.5Q575 1399 575 1349Q575 1299 539.5 1263.5Z" />
<glyph glyph-name="eth" unicode="&#xf0;" horiz-adv-x="1188" d="M601 -19Q372 -19 240 125Q108 269 108 519Q108 760 233 908.5Q358 1057 561 1057Q662 1057 753 1009Q844 961 879 888L894 888Q849 1071 712 1239L434 1149L399 1261L630 1336Q568 1409 430 1526L636 1526Q713 1461 781 1385L1031 1466L1066 1354L857 1286Q967 1137 1025.5 953Q1084 769 1084 571Q1084 298 954 139.5Q824 -19 601 -19ZM601 902Q457 902 371.5 798Q286 694 286 519Q286 344 371.5 240Q457 136 601 136Q746 136 832 240Q918 344 918 519Q918 692 831 797Q744 902 601 902Z" />
<glyph glyph-name="ntilde" unicode="&#xf1;" horiz-adv-x="1195" d="M162 0L162 1078L326 1078L326 908L342 908Q428 1097 666 1097Q847 1097 945 993.5Q1043 890 1043 698L1043 0L871 0L871 656Q871 801 808.5 871.5Q746 942 617 942Q487 942 410.5 860.5Q334 779 334 638L334 0ZM749 1231Q705 1231 666.5 1247Q628 1263 602 1286.5Q576 1310 554 1333Q532 1356 509.5 1372Q487 1388 465 1388Q412 1388 389.5 1352Q367 1316 367 1231L225 1231Q225 1367 286.5 1444.5Q348 1522 457 1522Q501 1522 539.5 1506Q578 1490 604 1467Q630 1444 652 1420.5Q674 1397 696.5 1381Q719 1365 741 1365Q794 1365 816.5 1401Q839 1437 839 1522L981 1522Q981 1386 919.5 1308.5Q858 1231 749 1231Z" />
<glyph glyph-name="ograve" unicode="&#xf2;" horiz-adv-x="1210" d="M968.5 130.5Q968.5 130.5 901.75 55.75Q835 -19 605 -19Q375 -19 241.5 130.5Q108 280 108 539Q108 799 241 948Q374 1097 605 1097Q836 1097 969 948Q1102 799 1102 539Q1102 280 968.5 130.5ZM369 241.5Q369 241.5 410.5 188.75Q452 136 605 136Q758 136 841 241.5Q924 347 924 539Q924 731 841 836.5Q758 942 605 942Q452 942 369 836.5Q286 731 286 539Q286 347 369 241.5ZM727 1263L533 1263L255 1601L475 1601Z" />
<glyph glyph-name="oacute" unicode="&#xf3;" horiz-adv-x="1210" d="M968.5 130.5Q968.5 130.5 901.75 55.75Q835 -19 605 -19Q375 -19 241.5 130.5Q108 280 108 539Q108 799 241 948Q374 1097 605 1097Q836 1097 969 948Q1102 799 1102 539Q1102 280 968.5 130.5ZM369 241.5Q369 241.5 410.5 188.75Q452 136 605 136Q758 136 841 241.5Q924 347 924 539Q924 731 841 836.5Q758 942 605 942Q452 942 369 836.5Q286 731 286 539Q286 347 369 241.5ZM685 1263L491 1263L743 1601L963 1601Z" />
<glyph glyph-name="ocircumflex" unicode="&#xf4;" horiz-adv-x="1210" d="M968.5 130.5Q968.5 130.5 901.75 55.75Q835 -19 605 -19Q375 -19 241.5 130.5Q108 280 108 539Q108 799 241 948Q374 1097 605 1097Q836 1097 969 948Q1102 799 1102 539Q1102 280 968.5 130.5ZM369 241.5Q369 241.5 410.5 188.75Q452 136 605 136Q758 136 841 241.5Q924 347 924 539Q924 731 841 836.5Q758 942 605 942Q452 942 369 836.5Q286 731 286 539Q286 347 369 241.5ZM706 1568L988 1228L790 1228L613 1455L597 1455L420 1228L222 1228L504 1568Z" />
<glyph glyph-name="otilde" unicode="&#xf5;" horiz-adv-x="1210" d="M968.5 130.5Q968.5 130.5 901.75 55.75Q835 -19 605 -19Q375 -19 241.5 130.5Q108 280 108 539Q108 799 241 948Q374 1097 605 1097Q836 1097 969 948Q1102 799 1102 539Q1102 280 968.5 130.5ZM369 241.5Q369 241.5 410.5 188.75Q452 136 605 136Q758 136 841 241.5Q924 347 924 539Q924 731 841 836.5Q758 942 605 942Q452 942 369 836.5Q286 731 286 539Q286 347 369 241.5ZM751 1231Q707 1231 668.5 1247Q630 1263 604 1286.5Q578 1310 556 1333Q534 1356 511.5 1372Q489 1388 467 1388Q414 1388 391.5 1352Q369 1316 369 1231L227 1231Q227 1367 288.5 1444.5Q350 1522 459 1522Q503 1522 541.5 1506Q580 1490 606 1467Q632 1444 654 1420.5Q676 1397 698.5 1381Q721 1365 743 1365Q796 1365 818.5 1401Q841 1437 841 1522L983 1522Q983 1386 921.5 1308.5Q860 1231 751 1231Z" />
<glyph glyph-name="odieresis" unicode="&#xf6;" horiz-adv-x="1210" d="M968.5 130.5Q968.5 130.5 901.75 55.75Q835 -19 605 -19Q375 -19 241.5 130.5Q108 280 108 539Q108 799 241 948Q374 1097 605 1097Q836 1097 969 948Q1102 799 1102 539Q1102 280 968.5 130.5ZM369 241.5Q369 241.5 410.5 188.75Q452 136 605 136Q758 136 841 241.5Q924 347 924 539Q924 731 841 836.5Q758 942 605 942Q452 942 369 836.5Q286 731 286 539Q286 347 369 241.5ZM488.5 1263.5Q488.5 1263.5 470.75 1245.75Q453 1228 403 1228Q353 1228 317.5 1263.5Q282 1299 282 1349Q282 1399 317.5 1434.5Q353 1470 403 1470Q453 1470 488.5 1434.5Q524 1399 524 1349Q524 1299 488.5 1263.5ZM892.5 1263.5Q892.5 1263.5 874.75 1245.75Q857 1228 807 1228Q757 1228 721.5 1263.5Q686 1299 686 1349Q686 1399 721.5 1434.5Q757 1470 807 1470Q857 1470 892.5 1434.5Q928 1399 928 1349Q928 1299 892.5 1263.5Z" />
<glyph glyph-name="divide" unicode="&#xf7;" horiz-adv-x="1328" d="M665 812Q611 812 575 847.5Q539 883 539 937Q539 991 575 1026.5Q611 1062 665 1062Q718 1062 753.5 1026.5Q789 991 789 937Q789 882 753.5 847Q718 812 665 812ZM665 98Q611 98 575 133.5Q539 169 539 223Q539 277 575 312.5Q611 348 665 348Q718 348 753.5 312.5Q789 277 789 223Q789 168 753.5 133Q718 98 665 98ZM1173 506L155 506L155 654L1173 654Z" />
<glyph glyph-name="oslash" unicode="&#xf8;" horiz-adv-x="1210" d="M856 815L429 186Q502 136 605 136Q758 136 841 241.5Q924 347 924 539Q924 714 856 815ZM344 280L769 900Q700 942 605 942Q452 942 369 836.5Q286 731 286 539Q286 381 344 280ZM1018 1054L956 962Q1102 813 1102 539Q1102 280 968.5 130.5Q835 -19 605 -19Q450 -19 337 50L278 -37L174 32L241 130Q108 280 108 539Q108 799 241 948Q374 1097 605 1097Q749 1097 861 1035L918 1118Z" />
<glyph glyph-name="ugrave" unicode="&#xf9;" horiz-adv-x="1196" d="M1034 1078L1034 0L870 0L870 169L854 169Q813 78 728 29.5Q643 -19 520 -19Q340 -19 246 84Q152 187 152 380L152 1078L324 1078L324 422Q324 275 382 206.5Q440 138 568 138Q709 138 785.5 217.5Q862 297 862 440L862 1078ZM715 1263L521 1263L243 1601L463 1601Z" />
<glyph glyph-name="uacute" unicode="&#xfa;" horiz-adv-x="1196" d="M1034 1078L1034 0L870 0L870 169L854 169Q813 78 728 29.5Q643 -19 520 -19Q340 -19 246 84Q152 187 152 380L152 1078L324 1078L324 422Q324 275 382 206.5Q440 138 568 138Q709 138 785.5 217.5Q862 297 862 440L862 1078ZM673 1263L479 1263L731 1601L951 1601Z" />
<glyph glyph-name="ucircumflex" unicode="&#xfb;" horiz-adv-x="1196" d="M1034 1078L1034 0L870 0L870 169L854 169Q813 78 728 29.5Q643 -19 520 -19Q340 -19 246 84Q152 187 152 380L152 1078L324 1078L324 422Q324 275 382 206.5Q440 138 568 138Q709 138 785.5 217.5Q862 297 862 440L862 1078ZM694 1568L976 1228L778 1228L601 1455L585 1455L408 1228L210 1228L492 1568Z" />
<glyph glyph-name="udieresis" unicode="&#xfc;" horiz-adv-x="1196" d="M1034 1078L1034 0L870 0L870 169L854 169Q813 78 728 29.5Q643 -19 520 -19Q340 -19 246 84Q152 187 152 380L152 1078L324 1078L324 422Q324 275 382 206.5Q440 138 568 138Q709 138 785.5 217.5Q862 297 862 440L862 1078ZM476.5 1263.5Q476.5 1263.5 458.75 1245.75Q441 1228 391 1228Q341 1228 305.5 1263.5Q270 1299 270 1349Q270 1399 305.5 1434.5Q341 1470 391 1470Q441 1470 476.5 1434.5Q512 1399 512 1349Q512 1299 476.5 1263.5ZM880.5 1263.5Q880.5 1263.5 862.75 1245.75Q845 1228 795 1228Q745 1228 709.5 1263.5Q674 1299 674 1349Q674 1399 709.5 1434.5Q745 1470 795 1470Q845 1470 880.5 1434.5Q916 1399 916 1349Q916 1299 880.5 1263.5Z" />
<glyph glyph-name="yacute" unicode="&#xfd;" horiz-adv-x="1112" d="M254 -390Q213 -390 177 -384L177 -237Q203 -242 249 -242Q324 -242 368.5 -202Q413 -162 447 -65L467 -1L68 1078L254 1078L550 191L566 191L861 1078L1044 1078L623 -66Q554 -253 476 -321.5Q398 -390 254 -390ZM631 1263L437 1263L689 1601L909 1601Z" />
<glyph glyph-name="thorn" unicode="&#xfe;" horiz-adv-x="1258" d="M697 1097Q903 1097 1026.5 945Q1150 793 1150 539Q1150 286 1026 133.5Q902 -19 697 -19Q582 -19 493 28.5Q404 76 360 162L344 162L344 -360L172 -360L172 1506L336 1506L336 898L352 898Q404 991 495.5 1044Q587 1097 697 1097ZM656 136Q804 136 888 243Q972 350 972 539Q972 728 888.5 835Q805 942 657 942Q511 942 425 833.5Q339 725 339 539Q339 354 424.5 245Q510 136 656 136Z" />
<glyph glyph-name="ydieresis" unicode="&#xff;" horiz-adv-x="1112" d="M254 -390Q213 -390 177 -384L177 -237Q203 -242 249 -242Q324 -242 368.5 -202Q413 -162 447 -65L467 -1L68 1078L254 1078L550 191L566 191L861 1078L1044 1078L623 -66Q554 -253 476 -321.5Q398 -390 254 -390ZM434.5 1263.5Q434.5 1263.5 416.75 1245.75Q399 1228 349 1228Q299 1228 263.5 1263.5Q228 1299 228 1349Q228 1399 263.5 1434.5Q299 1470 349 1470Q399 1470 434.5 1434.5Q470 1399 470 1349Q470 1299 434.5 1263.5ZM838.5 1263.5Q838.5 1263.5 820.75 1245.75Q803 1228 753 1228Q703 1228 667.5 1263.5Q632 1299 632 1349Q632 1399 667.5 1434.5Q703 1470 753 1470Q803 1470 838.5 1434.5Q874 1399 874 1349Q874 1299 838.5 1263.5Z" />
<glyph glyph-name="Amacron" unicode="&#x0100;" horiz-adv-x="1380" d="M1122 0L977 413L403 413L258 0L69 0L601 1443L779 1443L1311 0ZM682 1210L456 566L924 566L698 1210ZM1027 1756L1027 1620L353 1620L353 1756Z" />
<glyph glyph-name="amacron" unicode="&#x0101;" horiz-adv-x="1130" d="M494 132Q627 132 714.5 209Q802 286 802 402L802 501L512 482Q390 474 333 431Q276 388 276 306Q276 225 337 178.5Q398 132 494 132ZM462 -19Q303 -19 200.5 68.5Q98 156 98 302Q98 446 200 528Q302 610 491 621L802 640L802 738Q802 838 740 891Q678 944 558 944Q461 944 397 909Q333 874 315 810L141 810Q158 939 274.5 1018Q391 1097 564 1097Q760 1097 867 1002Q974 907 974 738L974 0L810 0L810 159L794 159Q742 73 656 27Q570 -19 462 -19ZM901 1422L901 1286L227 1286L227 1422Z" />
<glyph glyph-name="Abreve" unicode="&#x0102;" horiz-adv-x="1380" d="M1122 0L977 413L403 413L258 0L69 0L601 1443L779 1443L1311 0ZM682 1210L456 566L924 566L698 1210ZM326 1873L480 1873Q480 1794 536.5 1747Q593 1700 690 1700Q787 1700 843.5 1747Q900 1794 900 1873L1054 1873Q1054 1738 956 1656.5Q858 1575 690 1575Q522 1575 424 1656.5Q326 1738 326 1873Z" />
<glyph glyph-name="abreve" unicode="&#x0103;" horiz-adv-x="1130" d="M494 132Q627 132 714.5 209Q802 286 802 402L802 501L512 482Q390 474 333 431Q276 388 276 306Q276 225 337 178.5Q398 132 494 132ZM462 -19Q303 -19 200.5 68.5Q98 156 98 302Q98 446 200 528Q302 610 491 621L802 640L802 738Q802 838 740 891Q678 944 558 944Q461 944 397 909Q333 874 315 810L141 810Q158 939 274.5 1018Q391 1097 564 1097Q760 1097 867 1002Q974 907 974 738L974 0L810 0L810 159L794 159Q742 73 656 27Q570 -19 462 -19ZM198 1556L352 1556Q352 1467 407.5 1411.5Q463 1356 562 1356Q661 1356 716.5 1411.5Q772 1467 772 1556L926 1556Q926 1411 828 1319.5Q730 1228 562 1228Q394 1228 296 1319.5Q198 1411 198 1556Z" />
<glyph glyph-name="Aogonek" unicode="&#x0104;" horiz-adv-x="1380" d="M682 1210L456 566L924 566L698 1210ZM1294 -416Q1248 -432 1190 -432Q1081 -432 1014 -373.5Q947 -315 947 -228Q947 -158 995 -95Q1043 -32 1120 8L977 413L403 413L258 0L69 0L601 1443L779 1443L1311 0L1300 -5Q1216 -43 1166 -87Q1116 -131 1116 -190Q1116 -236 1149 -262Q1182 -288 1228 -288Q1270 -288 1294 -282Z" />
<glyph glyph-name="aogonek" unicode="&#x0105;" horiz-adv-x="1130" d="M494 132Q626 132 714 209Q802 286 802 402L802 501L512 482Q390 474 333 431Q276 388 276 306Q276 227 336 179.5Q396 132 494 132ZM966 -416Q921 -432 862 -432Q756 -432 687.5 -374.5Q619 -317 619 -228Q619 -147 673 -82.5Q727 -18 810 12L810 159L794 159Q742 73 656 27Q570 -19 462 -19Q300 -19 199 70Q98 159 98 302Q98 445 199.5 527.5Q301 610 491 621L802 640L802 738Q802 839 739.5 891.5Q677 944 558 944Q460 944 396.5 909Q333 874 315 810L141 810Q158 939 274.5 1018Q391 1097 564 1097Q758 1097 866 1002.5Q974 908 974 738L974 0L962 -5Q881 -38 834.5 -87Q788 -136 788 -190Q788 -233 819.5 -260.5Q851 -288 900 -288Q944 -288 966 -282Z" />
<glyph glyph-name="Cacute" unicode="&#x0106;" horiz-adv-x="1466" d="M765 -34Q471 -34 299.5 169Q128 372 128 721Q128 1070 299 1273.5Q470 1477 764 1477Q992 1477 1154 1347Q1316 1217 1348 1008L1165 1008Q1129 1148 1021 1229.5Q913 1311 764 1311Q556 1311 434.5 1152Q313 993 313 721Q313 449 435 290.5Q557 132 765 132Q916 132 1023.5 204.5Q1131 277 1165 402L1348 402Q1312 203 1153.5 84.5Q995 -34 765 -34ZM862 1577L658 1577L968 1875L1194 1875Z" />
<glyph glyph-name="cacute" unicode="&#x0107;" horiz-adv-x="1146" d="M1054 748L880 748Q858 833 785.5 887.5Q713 942 602 942Q457 942 371.5 834Q286 726 286 543Q286 357 372 246.5Q458 136 602 136Q711 136 783.5 185Q856 234 880 325L1054 325Q1030 172 911 76.5Q792 -19 603 -19Q376 -19 242 133.5Q108 286 108 543Q108 795 242 946Q376 1097 602 1097Q791 1097 910.5 998Q1030 899 1054 748ZM680 1263L486 1263L738 1601L958 1601Z" />
<glyph glyph-name="Ccircumflex" unicode="&#x0108;" horiz-adv-x="1466" d="M765 -34Q471 -34 299.5 169Q128 372 128 721Q128 1070 299 1273.5Q470 1477 764 1477Q992 1477 1154 1347Q1316 1217 1348 1008L1165 1008Q1129 1148 1021 1229.5Q913 1311 764 1311Q556 1311 434.5 1152Q313 993 313 721Q313 449 435 290.5Q557 132 765 132Q916 132 1023.5 204.5Q1131 277 1165 402L1348 402Q1312 203 1153.5 84.5Q995 -34 765 -34ZM682 1875L846 1875L1146 1577L944 1577L772 1754L756 1754L584 1577L382 1577Z" />
<glyph glyph-name="ccircumflex" unicode="&#x0109;" horiz-adv-x="1146" d="M1054 748L880 748Q858 833 785.5 887.5Q713 942 602 942Q457 942 371.5 834Q286 726 286 543Q286 357 372 246.5Q458 136 602 136Q711 136 783.5 185Q856 234 880 325L1054 325Q1030 172 911 76.5Q792 -19 603 -19Q376 -19 242 133.5Q108 286 108 543Q108 795 242 946Q376 1097 602 1097Q791 1097 910.5 998Q1030 899 1054 748ZM701 1568L983 1228L785 1228L608 1455L592 1455L415 1228L217 1228L499 1568Z" />
<glyph glyph-name="Cdotaccent" unicode="&#x010a;" horiz-adv-x="1466" d="M765 -34Q471 -34 299.5 169Q128 372 128 721Q128 1070 299 1273.5Q470 1477 764 1477Q992 1477 1154 1347Q1316 1217 1348 1008L1165 1008Q1129 1148 1021 1229.5Q913 1311 764 1311Q556 1311 434.5 1152Q313 993 313 721Q313 449 435 290.5Q557 132 765 132Q916 132 1023.5 204.5Q1131 277 1165 402L1348 402Q1312 203 1153.5 84.5Q995 -34 765 -34ZM849.5 1612.5Q849.5 1612.5 831.75 1594.75Q814 1577 764 1577Q714 1577 678.5 1612.5Q643 1648 643 1698Q643 1748 678.5 1783.5Q714 1819 764 1819Q814 1819 849.5 1783.5Q885 1748 885 1698Q885 1648 849.5 1612.5Z" />
<glyph glyph-name="cdotaccent" unicode="&#x010b;" horiz-adv-x="1146" d="M1054 748L880 748Q858 833 785.5 887.5Q713 942 602 942Q457 942 371.5 834Q286 726 286 543Q286 357 372 246.5Q458 136 602 136Q711 136 783.5 185Q856 234 880 325L1054 325Q1030 172 911 76.5Q792 -19 603 -19Q376 -19 242 133.5Q108 286 108 543Q108 795 242 946Q376 1097 602 1097Q791 1097 910.5 998Q1030 899 1054 748ZM690 1324.5Q690 1324.5 671 1305.75Q652 1287 600 1287Q548 1287 510 1324.5Q472 1362 472 1415Q472 1467 509.5 1504.5Q547 1542 600 1542Q653 1542 690.5 1504.5Q728 1467 728 1415Q728 1362 690 1324.5Z" />
<glyph glyph-name="Ccaron" unicode="&#x010c;" horiz-adv-x="1466" d="M765 -34Q471 -34 299.5 169Q128 372 128 721Q128 1070 299 1273.5Q470 1477 764 1477Q992 1477 1154 1347Q1316 1217 1348 1008L1165 1008Q1129 1148 1021 1229.5Q913 1311 764 1311Q556 1311 434.5 1152Q313 993 313 721Q313 449 435 290.5Q557 132 765 132Q916 132 1023.5 204.5Q1131 277 1165 402L1348 402Q1312 203 1153.5 84.5Q995 -34 765 -34ZM682 1577L382 1875L584 1875L756 1698L772 1698L944 1875L1146 1875L846 1577Z" />
<glyph glyph-name="ccaron" unicode="&#x010d;" horiz-adv-x="1146" d="M1054 748L880 748Q858 833 785.5 887.5Q713 942 602 942Q457 942 371.5 834Q286 726 286 543Q286 357 372 246.5Q458 136 602 136Q711 136 783.5 185Q856 234 880 325L1054 325Q1030 172 911 76.5Q792 -19 603 -19Q376 -19 242 133.5Q108 286 108 543Q108 795 242 946Q376 1097 602 1097Q791 1097 910.5 998Q1030 899 1054 748ZM701 1228L499 1228L217 1568L415 1568L592 1341L608 1341L785 1568L983 1568Z" />
<glyph glyph-name="Dcaron" unicode="&#x010e;" horiz-adv-x="1487" d="M184 1443L679 1443Q1000 1443 1180 1252.5Q1360 1062 1360 722Q1360 381 1180.5 190.5Q1001 0 679 0L184 0ZM364 1281L364 162L667 162Q908 162 1042 309Q1176 456 1176 720Q1176 985 1041.5 1133Q907 1281 667 1281ZM512 1575L212 1873L414 1873L586 1696L602 1696L774 1873L976 1873L676 1575Z" />
<glyph glyph-name="dcaron" unicode="&#x010f;" horiz-adv-x="1387" d="M1237 1506L1407 1506L1357 1018L1237 1018ZM561 -19Q354 -19 231 133Q108 285 108 539Q108 792 231.5 944.5Q355 1097 561 1097Q674 1097 763.5 1046.5Q853 996 899 908L914 908L914 1506L1086 1506L1086 0L922 0L922 172L906 172Q855 82 764 31.5Q673 -19 561 -19ZM601 942Q454 942 370 834.5Q286 727 286 539Q286 350 369.5 243Q453 136 601 136Q748 136 833 244Q918 352 918 539Q918 724 832.5 833Q747 942 601 942Z" />
<glyph glyph-name="Dcroat" unicode="&#x0110;" horiz-adv-x="1492" d="M369 162L672 162Q913 162 1047 309Q1181 456 1181 720Q1181 985 1046.5 1133Q912 1281 672 1281L369 1281L369 826L612 826L612 663L369 663ZM189 1443L684 1443Q1005 1443 1185 1252.5Q1365 1062 1365 722Q1365 381 1185.5 190.5Q1006 0 684 0L189 0L189 663L26 663L26 826L189 826Z" />
<glyph glyph-name="dcroat" unicode="&#x0111;" horiz-adv-x="1258" d="M601 136Q748 136 833 244Q918 352 918 539Q918 724 832.5 833Q747 942 601 942Q454 942 370 834.5Q286 727 286 539Q286 350 369.5 243Q453 136 601 136ZM1230 1401L1230 1277L1086 1277L1086 0L922 0L922 172L906 172Q855 82 764 31.5Q673 -19 561 -19Q354 -19 231 133Q108 285 108 539Q108 792 231.5 944.5Q355 1097 561 1097Q674 1097 763.5 1046.5Q853 996 899 908L914 908L914 1277L654 1277L654 1401L914 1401L914 1506L1086 1506L1086 1401Z" />
<glyph glyph-name="Emacron" unicode="&#x0112;" horiz-adv-x="1220" d="M1078 162L1078 0L184 0L184 1443L1078 1443L1078 1281L364 1281L364 818L1041 818L1041 658L364 658L364 162ZM968 1756L968 1620L294 1620L294 1756Z" />
<glyph glyph-name="emacron" unicode="&#x0113;" horiz-adv-x="1170" d="M592 945Q463 945 380 858Q297 771 287 628L881 628Q878 771 799 858Q720 945 592 945ZM876 279L1048 279Q1009 139 889.5 60Q770 -19 594 -19Q370 -19 239 131.5Q108 282 108 538Q108 793 240 945Q372 1097 594 1097Q812 1097 937 952Q1062 807 1062 555L1062 489L287 489L287 481Q294 321 377.5 227Q461 133 598 133Q807 133 876 279ZM931 1422L931 1286L257 1286L257 1422Z" />
<glyph glyph-name="Ebreve" unicode="&#x0114;" horiz-adv-x="1220" d="M1078 162L1078 0L184 0L184 1443L1078 1443L1078 1281L364 1281L364 818L1041 818L1041 658L364 658L364 162ZM267 1873L421 1873Q421 1794 477.5 1747Q534 1700 631 1700Q728 1700 784.5 1747Q841 1794 841 1873L995 1873Q995 1738 897 1656.5Q799 1575 631 1575Q463 1575 365 1656.5Q267 1738 267 1873Z" />
<glyph glyph-name="ebreve" unicode="&#x0115;" horiz-adv-x="1170" d="M592 945Q463 945 380 858Q297 771 287 628L881 628Q878 771 799 858Q720 945 592 945ZM876 279L1048 279Q1009 139 889.5 60Q770 -19 594 -19Q370 -19 239 131.5Q108 282 108 538Q108 793 240 945Q372 1097 594 1097Q812 1097 937 952Q1062 807 1062 555L1062 489L287 489L287 481Q294 321 377.5 227Q461 133 598 133Q807 133 876 279ZM228 1556L382 1556Q382 1467 437.5 1411.5Q493 1356 592 1356Q691 1356 746.5 1411.5Q802 1467 802 1556L956 1556Q956 1411 858 1319.5Q760 1228 592 1228Q424 1228 326 1319.5Q228 1411 228 1556Z" />
<glyph glyph-name="Edotaccent" unicode="&#x0116;" horiz-adv-x="1220" d="M1078 162L1078 0L184 0L184 1443L1078 1443L1078 1281L364 1281L364 818L1041 818L1041 658L364 658L364 162ZM716.5 1610.5Q716.5 1610.5 698.75 1592.75Q681 1575 631 1575Q581 1575 545.5 1610.5Q510 1646 510 1696Q510 1746 545.5 1781.5Q581 1817 631 1817Q681 1817 716.5 1781.5Q752 1746 752 1696Q752 1646 716.5 1610.5Z" />
<glyph glyph-name="edotaccent" unicode="&#x0117;" horiz-adv-x="1170" d="M592 945Q463 945 380 858Q297 771 287 628L881 628Q878 771 799 858Q720 945 592 945ZM876 279L1048 279Q1009 139 889.5 60Q770 -19 594 -19Q370 -19 239 131.5Q108 282 108 538Q108 793 240 945Q372 1097 594 1097Q812 1097 937 952Q1062 807 1062 555L1062 489L287 489L287 481Q294 321 377.5 227Q461 133 598 133Q807 133 876 279ZM684 1324.5Q684 1324.5 665 1305.75Q646 1287 594 1287Q542 1287 504 1324.5Q466 1362 466 1415Q466 1467 503.5 1504.5Q541 1542 594 1542Q647 1542 684.5 1504.5Q722 1467 722 1415Q722 1362 684 1324.5Z" />
<glyph glyph-name="Eogonek" unicode="&#x0118;" horiz-adv-x="1220" d="M184 0L184 1443L1078 1443L1078 1281L364 1281L364 818L1041 818L1041 658L364 658L364 162L1078 162L1078 12L1036 -4Q957 -34 904.5 -81.5Q852 -129 852 -190Q852 -236 885 -262Q918 -288 964 -288Q1006 -288 1030 -282L1030 -416Q984 -432 926 -432Q817 -432 750 -373.5Q683 -315 683 -228Q683 -161 721.5 -105.5Q760 -50 824 -16L824 0Z" />
<glyph glyph-name="eogonek" unicode="&#x0119;" horiz-adv-x="1170" d="M788 -432Q679 -432 612 -373.5Q545 -315 545 -228Q545 -105 676 -20L676 -4Q646 -19 594 -19Q370 -19 239 131.5Q108 282 108 538Q108 793 240 945Q372 1097 594 1097Q812 1097 937 952Q1062 807 1062 555L1062 489L287 489L287 481Q294 321 377.5 227Q461 133 598 133Q807 133 876 279L1048 279Q1035 228 989.5 161Q944 94 882 44Q797 -26 755.5 -80Q714 -134 714 -190Q714 -236 747 -262Q780 -288 826 -288Q868 -288 892 -282L892 -416Q846 -432 788 -432ZM592 945Q463 945 380 858Q297 771 287 628L881 628Q878 771 799 858Q720 945 592 945Z" />
<glyph glyph-name="Ecaron" unicode="&#x011a;" horiz-adv-x="1220" d="M1078 162L1078 0L184 0L184 1443L1078 1443L1078 1281L364 1281L364 818L1041 818L1041 658L364 658L364 162ZM549 1575L249 1873L451 1873L623 1696L639 1696L811 1873L1013 1873L713 1575Z" />
<glyph glyph-name="ecaron" unicode="&#x011b;" horiz-adv-x="1170" d="M592 945Q463 945 380 858Q297 771 287 628L881 628Q878 771 799 858Q720 945 592 945ZM876 279L1048 279Q1009 139 889.5 60Q770 -19 594 -19Q370 -19 239 131.5Q108 282 108 538Q108 793 240 945Q372 1097 594 1097Q812 1097 937 952Q1062 807 1062 555L1062 489L287 489L287 481Q294 321 377.5 227Q461 133 598 133Q807 133 876 279ZM695 1228L493 1228L211 1568L409 1568L586 1341L602 1341L779 1568L977 1568Z" />
<glyph glyph-name="Gcircumflex" unicode="&#x011c;" horiz-adv-x="1529" d="M1395 558Q1395 291 1227 128.5Q1059 -34 782 -34Q483 -34 305.5 171Q128 376 128 722Q128 1064 307 1270.5Q486 1477 782 1477Q1022 1477 1184.5 1352Q1347 1227 1386 1013L1203 1013Q1156 1159 1049 1235Q942 1311 782 1311Q568 1311 440.5 1151Q313 991 313 722Q313 449 439.5 290.5Q566 132 783 132Q977 132 1096.5 245Q1216 358 1216 541L1216 576L810 576L810 734L1395 734ZM700 1873L864 1873L1164 1575L962 1575L790 1752L774 1752L602 1575L400 1575Z" />
<glyph glyph-name="gcircumflex" unicode="&#x011d;" horiz-adv-x="1248" d="M598 168Q747 168 832.5 272.5Q918 377 918 555Q918 732 832 837Q746 942 598 942Q450 942 368 838Q286 734 286 555Q286 376 368 272Q450 168 598 168ZM606 -414Q413 -414 293.5 -334Q174 -254 154 -119L336 -119Q350 -186 421 -225Q492 -264 606 -264Q751 -264 832.5 -196.5Q914 -129 914 -10L914 202L898 202Q847 113 759 64.5Q671 16 560 16Q352 16 230 163.5Q108 311 108 555Q108 799 231 948Q354 1097 560 1097Q673 1097 766 1045.5Q859 994 906 907L922 907L922 1078L1086 1078L1086 -19Q1086 -200 956 -307Q826 -414 606 -414ZM695 1568L977 1228L779 1228L602 1455L586 1455L409 1228L211 1228L493 1568Z" />
<glyph glyph-name="Gbreve" unicode="&#x011e;" horiz-adv-x="1529" d="M1395 558Q1395 291 1227 128.5Q1059 -34 782 -34Q483 -34 305.5 171Q128 376 128 722Q128 1064 307 1270.5Q486 1477 782 1477Q1022 1477 1184.5 1352Q1347 1227 1386 1013L1203 1013Q1156 1159 1049 1235Q942 1311 782 1311Q568 1311 440.5 1151Q313 991 313 722Q313 449 439.5 290.5Q566 132 783 132Q977 132 1096.5 245Q1216 358 1216 541L1216 576L810 576L810 734L1395 734ZM418 1873L572 1873Q572 1794 628.5 1747Q685 1700 782 1700Q879 1700 935.5 1747Q992 1794 992 1873L1146 1873Q1146 1738 1048 1656.5Q950 1575 782 1575Q614 1575 516 1656.5Q418 1738 418 1873Z" />
<glyph glyph-name="gbreve" unicode="&#x011f;" horiz-adv-x="1248" d="M598 168Q747 168 832.5 272.5Q918 377 918 555Q918 732 832 837Q746 942 598 942Q450 942 368 838Q286 734 286 555Q286 376 368 272Q450 168 598 168ZM606 -414Q413 -414 293.5 -334Q174 -254 154 -119L336 -119Q350 -186 421 -225Q492 -264 606 -264Q751 -264 832.5 -196.5Q914 -129 914 -10L914 202L898 202Q847 113 759 64.5Q671 16 560 16Q352 16 230 163.5Q108 311 108 555Q108 799 231 948Q354 1097 560 1097Q673 1097 766 1045.5Q859 994 906 907L922 907L922 1078L1086 1078L1086 -19Q1086 -200 956 -307Q826 -414 606 -414ZM228 1556L382 1556Q382 1467 437.5 1411.5Q493 1356 592 1356Q691 1356 746.5 1411.5Q802 1467 802 1556L956 1556Q956 1411 858 1319.5Q760 1228 592 1228Q424 1228 326 1319.5Q228 1411 228 1556Z" />
<glyph glyph-name="Gdotaccent" unicode="&#x0120;" horiz-adv-x="1529" d="M1395 558Q1395 291 1227 128.5Q1059 -34 782 -34Q483 -34 305.5 171Q128 376 128 722Q128 1064 307 1270.5Q486 1477 782 1477Q1022 1477 1184.5 1352Q1347 1227 1386 1013L1203 1013Q1156 1159 1049 1235Q942 1311 782 1311Q568 1311 440.5 1151Q313 991 313 722Q313 449 439.5 290.5Q566 132 783 132Q977 132 1096.5 245Q1216 358 1216 541L1216 576L810 576L810 734L1395 734ZM867.5 1610.5Q867.5 1610.5 849.75 1592.75Q832 1575 782 1575Q732 1575 696.5 1610.5Q661 1646 661 1696Q661 1746 696.5 1781.5Q732 1817 782 1817Q832 1817 867.5 1781.5Q903 1746 903 1696Q903 1646 867.5 1610.5Z" />
<glyph glyph-name="gdotaccent" unicode="&#x0121;" horiz-adv-x="1248" d="M598 168Q747 168 832.5 272.5Q918 377 918 555Q918 732 832 837Q746 942 598 942Q450 942 368 838Q286 734 286 555Q286 376 368 272Q450 168 598 168ZM606 -414Q413 -414 293.5 -334Q174 -254 154 -119L336 -119Q350 -186 421 -225Q492 -264 606 -264Q751 -264 832.5 -196.5Q914 -129 914 -10L914 202L898 202Q847 113 759 64.5Q671 16 560 16Q352 16 230 163.5Q108 311 108 555Q108 799 231 948Q354 1097 560 1097Q673 1097 766 1045.5Q859 994 906 907L922 907L922 1078L1086 1078L1086 -19Q1086 -200 956 -307Q826 -414 606 -414ZM684 1324.5Q684 1324.5 665 1305.75Q646 1287 594 1287Q542 1287 504 1324.5Q466 1362 466 1415Q466 1467 503.5 1504.5Q541 1542 594 1542Q647 1542 684.5 1504.5Q722 1467 722 1415Q722 1362 684 1324.5Z" />
<glyph glyph-name="Gcommaaccent" unicode="&#x0122;" horiz-adv-x="1529" d="M1395 558Q1395 291 1227 128.5Q1059 -34 782 -34Q483 -34 305.5 171Q128 376 128 722Q128 1064 307 1270.5Q486 1477 782 1477Q1022 1477 1184.5 1352Q1347 1227 1386 1013L1203 1013Q1156 1159 1049 1235Q942 1311 782 1311Q568 1311 440.5 1151Q313 991 313 722Q313 449 439.5 290.5Q566 132 783 132Q977 132 1096.5 245Q1216 358 1216 541L1216 576L810 576L810 734L1395 734ZM785 -518L618 -518L720 -141L902 -141Z" />
<glyph glyph-name="gcommaaccent" unicode="&#x0123;" horiz-adv-x="1248" d="M598 168Q747 168 832.5 272.5Q918 377 918 555Q918 732 832 837Q746 942 598 942Q450 942 368 838Q286 734 286 555Q286 376 368 272Q450 168 598 168ZM606 -414Q413 -414 293.5 -334Q174 -254 154 -119L336 -119Q350 -186 421 -225Q492 -264 606 -264Q751 -264 832.5 -196.5Q914 -129 914 -10L914 202L898 202Q847 113 759 64.5Q671 16 560 16Q352 16 230 163.5Q108 311 108 555Q108 799 231 948Q354 1097 560 1097Q673 1097 766 1045.5Q859 994 906 907L922 907L922 1078L1086 1078L1086 -19Q1086 -200 956 -307Q826 -414 606 -414ZM604 1663L771 1663L669 1286L487 1286Z" />
<glyph glyph-name="Hcircumflex" unicode="&#x0124;" horiz-adv-x="1520" d="M1336 0L1156 0L1156 657L364 657L364 0L184 0L184 1443L364 1443L364 819L1156 819L1156 1443L1336 1443ZM678 1873L842 1873L1142 1575L940 1575L768 1752L752 1752L580 1575L378 1575Z" />
<glyph glyph-name="hcircumflex" unicode="&#x0125;" horiz-adv-x="1216" d="M172 0L172 1506L344 1506L344 908L360 908Q401 999 485.5 1048Q570 1097 692 1097Q864 1097 964 991.5Q1064 886 1064 698L1064 0L892 0L892 656Q892 942 643 942Q501 942 422.5 859.5Q344 777 344 638L344 0ZM176 1936L340 1936L640 1638L438 1638L266 1815L250 1815L78 1638L-124 1638Z" />
<glyph glyph-name="Hbar" unicode="&#x0126;" horiz-adv-x="1520" d="M1156 819L1156 1075L364 1075L364 819ZM1472 1218L1472 1075L1336 1075L1336 0L1156 0L1156 657L364 657L364 0L184 0L184 1075L48 1075L48 1218L184 1218L184 1443L364 1443L364 1218L1156 1218L1156 1443L1336 1443L1336 1218Z" />
<glyph glyph-name="hbar" unicode="&#x0127;" horiz-adv-x="1216" d="M344 908L360 908Q401 999 485.5 1048Q570 1097 692 1097Q864 1097 964 991.5Q1064 886 1064 698L1064 0L892 0L892 656Q892 942 643 942Q501 942 422.5 859.5Q344 777 344 638L344 0L172 0L172 1277L28 1277L28 1401L172 1401L172 1506L344 1506L344 1401L604 1401L604 1277L344 1277Z" />
<glyph glyph-name="Itilde" unicode="&#x0128;" horiz-adv-x="548" d="M364 0L184 0L184 1443L364 1443ZM419 1580Q375 1580 336.5 1596Q298 1612 272 1635Q246 1658 224 1681.5Q202 1705 179.5 1721Q157 1737 135 1737Q82 1737 59.5 1701Q37 1665 37 1580L-105 1580Q-105 1716 -43.5 1793.5Q18 1871 127 1871Q171 1871 209.5 1855Q248 1839 274 1815.5Q300 1792 322 1769Q344 1746 366.5 1730Q389 1714 411 1714Q464 1714 486.5 1750Q509 1786 509 1871L651 1871Q651 1735 589.5 1657.5Q528 1580 419 1580Z" />
<glyph glyph-name="itilde" unicode="&#x0129;" horiz-adv-x="504" d="M166 0L166 1078L338 1078L338 0ZM398 1231Q354 1231 315.5 1247Q277 1263 251 1286.5Q225 1310 203 1333Q181 1356 158.5 1372Q136 1388 114 1388Q61 1388 38.5 1352Q16 1316 16 1231L-126 1231Q-126 1367 -64.5 1444.5Q-3 1522 106 1522Q150 1522 188.5 1506Q227 1490 253 1467Q279 1444 301 1420.5Q323 1397 345.5 1381Q368 1365 390 1365Q443 1365 465.5 1401Q488 1437 488 1522L630 1522Q630 1386 568.5 1308.5Q507 1231 398 1231Z" />
<glyph glyph-name="Imacron" unicode="&#x012a;" horiz-adv-x="548" d="M364 0L184 0L184 1443L364 1443ZM611 1756L611 1620L-63 1620L-63 1756Z" />
<glyph glyph-name="imacron" unicode="&#x012b;" horiz-adv-x="504" d="M166 0L166 1078L338 1078L338 0ZM538 1422L538 1286L-34 1286L-34 1422Z" />
<glyph glyph-name="Ibreve" unicode="&#x012c;" horiz-adv-x="548" d="M364 0L184 0L184 1443L364 1443ZM-90 1873L64 1873Q64 1794 120.5 1747Q177 1700 274 1700Q371 1700 427.5 1747Q484 1794 484 1873L638 1873Q638 1738 540 1656.5Q442 1575 274 1575Q106 1575 8 1656.5Q-90 1738 -90 1873Z" />
<glyph glyph-name="ibreve" unicode="&#x012d;" horiz-adv-x="504" d="M166 0L166 1078L338 1078L338 0ZM-114 1556L40 1556Q40 1467 95.5 1411.5Q151 1356 250 1356Q349 1356 404.5 1411.5Q460 1467 460 1556L614 1556Q614 1411 516 1319.5Q418 1228 250 1228Q82 1228 -16 1319.5Q-114 1411 -114 1556Z" />
<glyph glyph-name="Iogonek" unicode="&#x012e;" horiz-adv-x="548" d="M184 0L184 1443L364 1443L364 0L359 -3Q212 -91 212 -190Q212 -233 243.5 -260.5Q275 -288 324 -288Q368 -288 390 -282L390 -416Q345 -432 286 -432Q180 -432 111.5 -374.5Q43 -317 43 -228Q43 -160 79.5 -100.5Q116 -41 184 0Z" />
<glyph glyph-name="iogonek" unicode="&#x012f;" horiz-adv-x="504" d="M337 1332.5Q337 1332.5 319.5 1314.75Q302 1297 252 1297Q202 1297 167 1332.5Q132 1368 132 1417Q132 1466 167 1501.5Q202 1537 252 1537Q302 1537 337 1501.5Q372 1466 372 1417Q372 1368 337 1332.5ZM166 4L166 1078L338 1078L338 0L333 -3Q186 -91 186 -190Q186 -236 219 -262Q252 -288 298 -288Q340 -288 364 -282L364 -416Q318 -432 260 -432Q151 -432 84 -373.5Q17 -315 17 -228Q17 -84 166 4Z" />
<glyph glyph-name="Idotaccent" unicode="&#x0130;" horiz-adv-x="548" d="M364 0L184 0L184 1443L364 1443ZM359.5 1610.5Q359.5 1610.5 341.75 1592.75Q324 1575 274 1575Q224 1575 188.5 1610.5Q153 1646 153 1696Q153 1746 188.5 1781.5Q224 1817 274 1817Q324 1817 359.5 1781.5Q395 1746 395 1696Q395 1646 359.5 1610.5Z" />
<glyph glyph-name="dotlessi" unicode="&#x0131;" horiz-adv-x="504" d="M166 0L166 1078L338 1078L338 0Z" />
<glyph glyph-name="IJ" unicode="&#x0132;" horiz-adv-x="1650" d="M364 0L184 0L184 1443L364 1443ZM634 337L813 337Q816 246 880 189Q944 132 1045 132Q1161 132 1223.5 201.5Q1286 271 1286 403L1286 1443L1466 1443L1466 402Q1466 196 1354 81Q1242 -34 1046 -34Q864 -34 749 69Q634 172 634 337Z" />
<glyph glyph-name="ij" unicode="&#x0133;" horiz-adv-x="1032" d="M166 0L166 1078L338 1078L338 0ZM337 1332.5Q337 1332.5 319.5 1314.75Q302 1297 252 1297Q202 1297 167 1332.5Q132 1368 132 1417Q132 1466 167 1501.5Q202 1537 252 1537Q302 1537 337 1501.5Q372 1466 372 1417Q372 1368 337 1332.5ZM854 1078L854 -53Q854 -219 774 -294.5Q694 -370 524 -370L494 -370L494 -223L520 -223Q610 -223 646 -185Q682 -147 682 -56L682 1078ZM853 1332.5Q853 1332.5 835.5 1314.75Q818 1297 768 1297Q718 1297 683 1332.5Q648 1368 648 1417Q648 1466 683 1501.5Q718 1537 768 1537Q818 1537 853 1501.5Q888 1466 888 1417Q888 1368 853 1332.5Z" />
<glyph glyph-name="Jcircumflex" unicode="&#x0134;" horiz-adv-x="1102" d="M86 337L265 337Q268 246 332 189Q396 132 497 132Q613 132 675.5 201.5Q738 271 738 403L738 1443L918 1443L918 402Q918 196 806 81Q694 -34 498 -34Q316 -34 201 69Q86 172 86 337ZM746 1873L910 1873L1210 1575L1008 1575L836 1752L820 1752L648 1575L446 1575Z" />
<glyph glyph-name="jcircumflex" unicode="&#x0135;" horiz-adv-x="504" d="M332 1078L332 -53Q332 -219 252 -294.5Q172 -370 2 -370L-28 -370L-28 -223L-2 -223Q88 -223 124 -185Q160 -147 160 -56L160 1078ZM355 1568L637 1228L439 1228L262 1455L246 1455L69 1228L-129 1228L153 1568Z" />
<glyph glyph-name="Kcommaaccent" unicode="&#x0136;" horiz-adv-x="1349" d="M364 0L184 0L184 1443L364 1443L364 742L380 742L1012 1443L1238 1443L661 820L1291 0L1058 0L537 695L364 504ZM656 -518L489 -518L591 -141L773 -141Z" />
<glyph glyph-name="kcommaaccent" unicode="&#x0137;" horiz-adv-x="1112" d="M360 607L828 1078L1039 1078L575 616L1070 0L851 0L447 505L344 409L344 0L172 0L172 1506L344 1506L344 607ZM606 -518L439 -518L541 -141L723 -141Z" />
<glyph glyph-name="Lacute" unicode="&#x0139;" horiz-adv-x="1163" d="M1060 162L1060 0L184 0L184 1443L364 1443L364 162ZM372 1575L168 1575L478 1873L704 1873Z" />
<glyph glyph-name="lacute" unicode="&#x013a;" horiz-adv-x="516" d="M172 0L172 1506L344 1506L344 0ZM356 1638L152 1638L462 1936L688 1936Z" />
<glyph glyph-name="Lcommaaccent" unicode="&#x013b;" horiz-adv-x="1163" d="M1060 162L1060 0L184 0L184 1443L364 1443L364 162ZM625 -518L458 -518L560 -141L742 -141Z" />
<glyph glyph-name="lcommaaccent" unicode="&#x013c;" horiz-adv-x="516" d="M172 0L172 1506L344 1506L344 0ZM261 -518L94 -518L196 -141L378 -141Z" />
<glyph glyph-name="Lcaron" unicode="&#x013d;" horiz-adv-x="1163" d="M589 1443L759 1443L709 955L589 955ZM1060 162L1060 0L184 0L184 1443L364 1443L364 162Z" />
<glyph glyph-name="lcaron" unicode="&#x013e;" horiz-adv-x="645" d="M495 1506L665 1506L615 1018L495 1018ZM172 0L172 1506L344 1506L344 0Z" />
<glyph glyph-name="Lslash" unicode="&#x0141;" horiz-adv-x="1163" d="M364 162L1060 162L1060 0L184 0L184 719L18 643L18 786L184 862L184 1443L364 1443L364 944L656 1077L656 934L364 801Z" />
<glyph glyph-name="lslash" unicode="&#x0142;" horiz-adv-x="516" d="M472 994L472 851L344 790L344 0L172 0L172 707L44 646L44 789L172 850L172 1506L344 1506L344 933Z" />
<glyph glyph-name="Nacute" unicode="&#x0143;" horiz-adv-x="1520" d="M362 0L184 0L184 1443L359 1443L1142 320L1158 320L1158 1443L1336 1443L1336 0L1161 0L378 1119L362 1119ZM858 1575L654 1575L964 1873L1190 1873Z" />
<glyph glyph-name="nacute" unicode="&#x0144;" horiz-adv-x="1195" d="M162 0L162 1078L326 1078L326 908L342 908Q428 1097 666 1097Q847 1097 945 993.5Q1043 890 1043 698L1043 0L871 0L871 656Q871 801 808.5 871.5Q746 942 617 942Q487 942 410.5 860.5Q334 779 334 638L334 0ZM683 1263L489 1263L741 1601L961 1601Z" />
<glyph glyph-name="Ncommaaccent" unicode="&#x0145;" horiz-adv-x="1520" d="M362 0L184 0L184 1443L359 1443L1142 320L1158 320L1158 1443L1336 1443L1336 0L1161 0L378 1119L362 1119ZM763 -518L596 -518L698 -141L880 -141Z" />
<glyph glyph-name="ncommaaccent" unicode="&#x0146;" horiz-adv-x="1195" d="M162 0L162 1078L326 1078L326 908L342 908Q428 1097 666 1097Q847 1097 945 993.5Q1043 890 1043 698L1043 0L871 0L871 656Q871 801 808.5 871.5Q746 942 617 942Q487 942 410.5 860.5Q334 779 334 638L334 0ZM606 -518L439 -518L541 -141L723 -141Z" />
<glyph glyph-name="Ncaron" unicode="&#x0147;" horiz-adv-x="1520" d="M362 0L184 0L184 1443L359 1443L1142 320L1158 320L1158 1443L1336 1443L1336 0L1161 0L378 1119L362 1119ZM678 1575L378 1873L580 1873L752 1696L768 1696L940 1873L1142 1873L842 1575Z" />
<glyph glyph-name="ncaron" unicode="&#x0148;" horiz-adv-x="1195" d="M162 0L162 1078L326 1078L326 908L342 908Q428 1097 666 1097Q847 1097 945 993.5Q1043 890 1043 698L1043 0L871 0L871 656Q871 801 808.5 871.5Q746 942 617 942Q487 942 410.5 860.5Q334 779 334 638L334 0ZM704 1228L502 1228L220 1568L418 1568L595 1341L611 1341L788 1568L986 1568Z" />
<glyph glyph-name="Omacron" unicode="&#x014c;" horiz-adv-x="1579" d="M791 1477Q1098 1477 1274.5 1273.5Q1451 1070 1451 722Q1451 374 1274.5 170Q1098 -34 791 -34Q482 -34 305 170Q128 374 128 722Q128 1070 306.5 1273.5Q485 1477 791 1477ZM791 1311Q571 1311 442 1152Q313 993 313 722Q313 451 440.5 291.5Q568 132 791 132Q1012 132 1139 292Q1266 452 1266 722Q1266 994 1139 1152.5Q1012 1311 791 1311ZM1128 1756L1128 1620L454 1620L454 1756Z" />
<glyph glyph-name="omacron" unicode="&#x014d;" horiz-adv-x="1210" d="M968.5 130.5Q968.5 130.5 901.75 55.75Q835 -19 605 -19Q375 -19 241.5 130.5Q108 280 108 539Q108 799 241 948Q374 1097 605 1097Q836 1097 969 948Q1102 799 1102 539Q1102 280 968.5 130.5ZM369 241.5Q369 241.5 410.5 188.75Q452 136 605 136Q758 136 841 241.5Q924 347 924 539Q924 731 841 836.5Q758 942 605 942Q452 942 369 836.5Q286 731 286 539Q286 347 369 241.5ZM942 1422L942 1286L268 1286L268 1422Z" />
<glyph glyph-name="Obreve" unicode="&#x014e;" horiz-adv-x="1579" d="M791 1477Q1098 1477 1274.5 1273.5Q1451 1070 1451 722Q1451 374 1274.5 170Q1098 -34 791 -34Q482 -34 305 170Q128 374 128 722Q128 1070 306.5 1273.5Q485 1477 791 1477ZM791 1311Q571 1311 442 1152Q313 993 313 722Q313 451 440.5 291.5Q568 132 791 132Q1012 132 1139 292Q1266 452 1266 722Q1266 994 1139 1152.5Q1012 1311 791 1311ZM427 1873L581 1873Q581 1794 637.5 1747Q694 1700 791 1700Q888 1700 944.5 1747Q1001 1794 1001 1873L1155 1873Q1155 1738 1057 1656.5Q959 1575 791 1575Q623 1575 525 1656.5Q427 1738 427 1873Z" />
<glyph glyph-name="obreve" unicode="&#x014f;" horiz-adv-x="1210" d="M968.5 130.5Q968.5 130.5 901.75 55.75Q835 -19 605 -19Q375 -19 241.5 130.5Q108 280 108 539Q108 799 241 948Q374 1097 605 1097Q836 1097 969 948Q1102 799 1102 539Q1102 280 968.5 130.5ZM369 241.5Q369 241.5 410.5 188.75Q452 136 605 136Q758 136 841 241.5Q924 347 924 539Q924 731 841 836.5Q758 942 605 942Q452 942 369 836.5Q286 731 286 539Q286 347 369 241.5ZM239 1556L393 1556Q393 1467 448.5 1411.5Q504 1356 603 1356Q702 1356 757.5 1411.5Q813 1467 813 1556L967 1556Q967 1411 869 1319.5Q771 1228 603 1228Q435 1228 337 1319.5Q239 1411 239 1556Z" />
<glyph glyph-name="Ohungarumlaut" unicode="&#x0150;" horiz-adv-x="1579" d="M791 1477Q1098 1477 1274.5 1273.5Q1451 1070 1451 722Q1451 374 1274.5 170Q1098 -34 791 -34Q482 -34 305 170Q128 374 128 722Q128 1070 306.5 1273.5Q485 1477 791 1477ZM791 1311Q571 1311 442 1152Q313 993 313 722Q313 451 440.5 291.5Q568 132 791 132Q1012 132 1139 292Q1266 452 1266 722Q1266 994 1139 1152.5Q1012 1311 791 1311ZM1045 1575L841 1575L1151 1873L1377 1873ZM631 1575L427 1575L737 1873L963 1873Z" />
<glyph glyph-name="ohungarumlaut" unicode="&#x0151;" horiz-adv-x="1210" d="M968.5 130.5Q968.5 130.5 901.75 55.75Q835 -19 605 -19Q375 -19 241.5 130.5Q108 280 108 539Q108 799 241 948Q374 1097 605 1097Q836 1097 969 948Q1102 799 1102 539Q1102 280 968.5 130.5ZM369 241.5Q369 241.5 410.5 188.75Q452 136 605 136Q758 136 841 241.5Q924 347 924 539Q924 731 841 836.5Q758 942 605 942Q452 942 369 836.5Q286 731 286 539Q286 347 369 241.5ZM670 1263L922 1601L1132 1601L852 1263ZM270 1263L522 1601L732 1601L452 1263Z" />
<glyph glyph-name="OE" unicode="&#x0152;" horiz-adv-x="2325" d="M801 1311Q575 1311 444 1153Q313 995 313 722Q313 447 443.5 289.5Q574 132 801 132Q1018 132 1143 289.5Q1268 447 1268 722Q1268 996 1143.5 1153.5Q1019 1311 801 1311ZM1289 0L1289 247L1273 247Q1207 121 1071.5 43.5Q936 -34 781 -34Q480 -34 304 169.5Q128 373 128 722Q128 1069 304.5 1273Q481 1477 781 1477Q933 1477 1069.5 1402Q1206 1327 1273 1206L1289 1206L1289 1443L2183 1443L2183 1281L1451 1281L1451 818L2146 818L2146 658L1451 658L1451 162L2183 162L2183 0Z" />
</font>
</defs>
</svg>
