<svg version="1.1" viewBox="0 0 512 512" xmlns="http://www.w3.org/2000/svg">
 <path d="m184 52c-65.99 0-120 54.01-120 120s54.01 120 120 120 120-54.01 120-120-54.01-120-120-120zm144 0a24 24 0 0 0-24 24 24 24 0 0 0 24 24c40.049 0 72 31.951 72 72s-31.951 72-72 72a24 24 0 0 0-24 24 24 24 0 0 0 24 24c65.99 0 120-54.01 120-120s-54.01-120-120-120zm-144 48c40.049 0 72 31.951 72 72s-31.951 72-72 72-72-31.951-72-72 31.951-72 72-72zm0 216c-44.089 0-84.391 11.645-115.14 32.141-30.747 20.496-52.861 51.616-52.861 87.859a24 24 0 0 0 24 24 24 24 0 0 0 24-24c0-16.797 10.118-33.676 31.486-47.92 21.368-14.244 53.067-24.08 88.514-24.08 35.447 0 67.145 9.8361 88.514 24.08s31.486 31.123 31.486 47.92a24 24 0 0 0 24 24 24 24 0 0 0 24-24c0-36.243-22.114-67.363-52.861-87.859-30.747-20.496-71.05-32.141-115.14-32.141zm197.51 6.0898a24 24 0 0 0-28.871 17.844 24 24 0 0 0 17.844 28.873c24.52 5.788 44.894 16.489 58.172 28.793 13.278 12.304 19.342 25.166 19.342 38.4a24 24 0 0 0 24 24 24 24 0 0 0 24-24c0-28.573-13.975-54.387-34.717-73.607s-48.37-32.891-79.77-40.303z" color="#000000" fill="currentColor" stroke-linecap="round" stroke-linejoin="round" style="-inkscape-stroke:none"/>
</svg>
