<svg version="1.1" viewBox="0 0 512 512" xmlns="http://www.w3.org/2000/svg">
 <path d="m162.86 376.8-28.967-28.967c-7.9683-7.9683-10.781-19.499-7.2184-30.186 2.8124-8.3433 6.5622-19.218 11.062-31.686h-99.182c-8.0621 0-15.562-4.3123-19.593-11.343-4.031-7.0309-3.9373-15.655 0.18749-22.593l49.216-82.964c12.187-20.53 34.217-33.092 58.028-33.092h77.152c2.2499-3.7498 4.4998-7.2184 6.7496-10.593 76.777-113.24 191.15-116.99 259.39-104.43 10.874 1.9686 19.311 10.499 21.374 21.374 12.562 68.34 8.7183 182.62-104.43 259.39-3.2811 2.2499-6.8434 4.4998-10.593 6.7496v77.152c0 23.811-12.562 45.935-33.092 58.028l-82.964 49.216c-6.9371 4.1248-15.562 4.2185-22.593 0.18749-7.0309-4.031-11.343-11.437-11.343-19.593v-100.49c-13.218 4.5935-24.749 8.3433-33.467 11.156-10.499 3.3748-21.936 0.46873-29.811-7.3121zm213.18-203.33a37.498 37.498 0 1 0 0-74.996 37.498 37.498 0 1 0 0 74.996" fill="currentColor" stroke-width=".93745"/>
</svg>
