<svg version="1.1" viewBox="0 0 512 512" xmlns="http://www.w3.org/2000/svg">
 <path d="m359.82 62.935c-36.645 0-66.354 29.708-66.354 66.354v22.017l-268.05 206.15c-10.556 8.1434-12.517 23.299-4.4487 33.855 8.068 10.556 23.299 12.517 33.855 4.4487l56.25-43.281h100.36l35.137 85.279c3.7701 9.2744 14.402 13.648 23.601 9.8776 9.199-3.7701 13.648-14.402 9.8776-23.601l-29.482-71.556h33.252l35.137 85.355c3.7701 9.2744 14.402 13.648 23.601 9.8776 9.199-3.7701 13.648-14.402 9.8776-23.601l-31.669-76.91c60.849-17.267 105.41-73.14 105.41-139.49v-54.289l60.698-15.156c6.4845-1.5834 10.405-8.1434 8.7466-14.628-5.3535-21.49-24.656-36.57-46.824-36.57h-37.776c-12.215-14.703-30.613-24.129-51.198-24.129m0 48.257a18.097 18.097 0 1 1 0 36.193 18.097 18.097 0 1 1 0-36.193" fill="currentColor" stroke-width=".75402"/>
</svg>
