<svg version="1.1" viewBox="0 0 512 512" xmlns="http://www.w3.org/2000/svg">
  <path d="m339 16c-87 0-157 71-157 157 0 12 1.9 23 4.5 35l-168 168c-1.6 1.6-2.4 3.7-2.4 5.9v106c4.6e-4 4.6 3.7 8.3 8.3 8.3h106c2.2-4.2e-4 4.3-0.87 5.9-2.4l116-116c3.2-3.2 3.2-8.5 0-12l-45-45c-3.2-3.2-8.5-3.2-12 0l-23 23c-3.2 3.2-3.2 8.5 0 12l16 16-15 15-15-16c-3.2-3.2-8.5-3.3-12-0.033l-24 23c-3.2 3.2-3.3 8.5-0.032 12l16 16-25 25h-48v-48l158-158c0.011-0.011 0.022-0.022 0.033-0.033l14-14c2.2-2.2 2.9-5.5 1.9-8.5l-3.3-9.7c-24-70 28-142 102-142 59 0 108 48 108 108 4.6e-4 4.6 3.7 8.3 8.3 8.3h33c4.6-4.7e-4 8.3-3.7 8.3-8.3 0-87-71-157-157-157zm17 99c-23 0-41 19-41 41s19 41 41 41c23 0 41-19 41-41s-19-41-41-41zm-73 133c-7.9 1.4-16 5.1-22 12-13 13-15 31-9 45 5.9 14 20 26 38 26 2 0 3.7-0.49 5.5-0.78l11 11c-4.5 9.5-8.6 19-8.6 31 0 11 4.1 21 8.6 31l-11 11c-1.8-0.26-3.5-0.75-5.4-0.78-0.043-3.3e-4 -0.086-3.3e-4 -0.13 0-18 0-32 11-38 26-5.9 14-3.8 32 9 45 13 13 31 15 45 9 14-5.9 26-20 26-38 0-2-0.49-3.7-0.78-5.5l11-11c9.5 4.5 19 8.6 31 8.6 11 0 21-4.1 31-8.6l11 11c-0.26 1.8-0.75 3.5-0.78 5.4-3.6e-4 0.043-4e-4 0.086-8e-5 0.13 0 18 11 32 26 38 14 5.9 32 3.8 45-9 13-13 15-31 9-45-5.9-14-20-26-38-26-2 0-3.7 0.49-5.5 0.78l-11-11c4.5-9.5 8.6-19 8.6-31 0-11-4.1-21-8.6-31l11-11c1.8 0.29 3.5 0.78 5.5 0.78 18 0 32-11 38-26 5.9-14 3.8-32-9-45-13-13-31-15-45-9-14 5.9-26 20-26 38 0 2 0.49 3.7 0.78 5.5l-11 11c-9.5-4.5-19-8.6-31-8.6-11 0-21 4.1-31 8.6l-11-11c0.29-1.8 0.78-3.5 0.78-5.5 0-18-11-32-26-38-7.2-3-15-3.9-23-2.5zm90 93c17 0 31 14 31 31 0 17-14 31-31 31-17 0-31-14-31-31 0-17 14-31 31-31z" color="#000000" stroke-linejoin="round" stroke-width="17" style="-inkscape-stroke:none"/>
</svg>
