<svg version="1.1" viewBox="0 0 512 512" xmlns="http://www.w3.org/2000/svg">
 <g transform="matrix(24.013 0 0 24.013 -31.932 -86.01)" fill="none" fill-rule="evenodd">
  <path d="m12.593 23.258-0.011 2e-3 -0.071 0.035-0.02 4e-3 -0.014-4e-3 -0.071-0.035q-0.016-5e-3 -0.024 5e-3l-4e-3 0.01-0.017 0.428 5e-3 0.02 0.01 0.013 0.104 0.074 0.015 4e-3 0.012-4e-3 0.104-0.074 0.012-0.016 4e-3 -0.017-0.017-0.427q-4e-3 -0.016-0.017-0.018m0.265-0.113-0.013 2e-3 -0.185 0.093-0.01 0.01-3e-3 0.011 0.018 0.43 5e-3 0.012 8e-3 7e-3 0.201 0.093q0.019 5e-3 0.029-8e-3l4e-3 -0.014-0.034-0.614q-5e-3 -0.018-0.02-0.022m-0.715 2e-3a0.02 0.02 0 0 0-0.027 6e-3l-6e-3 0.014-0.034 0.614q1e-3 0.018 0.017 0.024l0.015-2e-3 0.201-0.093 0.01-8e-3 4e-3 -0.011 0.017-0.43-3e-3 -0.012-0.01-0.01z"/>
  <path d="m21.546 5.111a1.5 1.5 0 0 1 0 2.121l-11.243 11.243a1.6 1.6 0 0 1-2.263 0l-5.586-5.585a1.5 1.5 0 1 1 2.121-2.121l4.596 4.596 10.253-10.254a1.5 1.5 0 0 1 2.122 0" fill="currentColor"/>
 </g>
</svg>
