<svg version="1.1" viewBox="0 0 512 512" xmlns="http://www.w3.org/2000/svg">
 <path d="m256 371c31.625 0 57.5 25.875 57.5 57.5s-25.875 57.5-57.5 57.5c-31.625 0-57.5-25.875-57.5-57.5s25.875-57.5 57.5-57.5m0-172.5c31.625 0 57.5 25.875 57.5 57.5 0 31.625-25.875 57.5-57.5 57.5-31.625 0-57.5-25.875-57.5-57.5 0-31.625 25.875-57.5 57.5-57.5m0-172.5c31.625 0 57.5 25.875 57.5 57.5 0 31.625-25.875 57.5-57.5 57.5-31.625 0-57.5-25.875-57.5-57.5 0-31.625 25.875-57.5 57.5-57.5m-172.5 345c31.625 0 57.5 25.875 57.5 57.5s-25.875 57.5-57.5 57.5c-31.625 0-57.5-25.875-57.5-57.5s25.875-57.5 57.5-57.5m0-172.5c31.625 0 57.5 25.875 57.5 57.5 0 31.625-25.875 57.5-57.5 57.5-31.625 0-57.5-25.875-57.5-57.5 0-31.625 25.875-57.5 57.5-57.5m0-172.5c31.625 0 57.5 25.875 57.5 57.5 0 31.625-25.875 57.5-57.5 57.5-31.625 0-57.5-25.875-57.5-57.5 0-31.625 25.875-57.5 57.5-57.5m345 345c31.625 0 57.5 25.875 57.5 57.5s-25.875 57.5-57.5 57.5-57.5-25.875-57.5-57.5 25.875-57.5 57.5-57.5m0-172.5c31.625 0 57.5 25.875 57.5 57.5 0 31.625-25.875 57.5-57.5 57.5s-57.5-25.875-57.5-57.5c0-31.625 25.875-57.5 57.5-57.5m0-172.5c31.625 0 57.5 25.875 57.5 57.5 0 31.625-25.875 57.5-57.5 57.5s-57.5-25.875-57.5-57.5c0-31.625 25.875-57.5 57.5-57.5" fill="currentColor" stroke-width="28.75"/>
</svg>
