<svg version="1.1" viewBox="0 0 512 512" xmlns="http://www.w3.org/2000/svg">
 <path d="m96 16c-37.6 0-68.572 30.972-68.572 68.572v320c-1e-6 37.6 30.972 68.57 68.572 68.57h148.57a22.857 22.857 0 0 0 22.855-22.857 22.857 22.857 0 0 0-22.855-22.857h-148.57c-12.894 0-22.857-9.9611-22.857-22.855v-320c0-12.894 9.9631-22.857 22.857-22.857h274.29c12.894-1e-6 22.857 9.963 22.857 22.857v160a22.857 22.857 0 0 0 22.857 22.855 22.857 22.857 0 0 0 22.857-22.855v-160c0-37.6-30.972-68.572-68.572-68.572zm297.14 297.14a22.857 22.857 0 0 0-22.857 22.857v45.715h-45.713a22.857 22.857 0 0 0-22.857 22.857 22.857 22.857 0 0 0 22.857 22.855h45.713v45.715a22.857 22.857 0 0 0 22.857 22.857 22.857 22.857 0 0 0 22.857-22.857v-45.715h45.715a22.857 22.857 0 0 0 22.857-22.855 22.857 22.857 0 0 0-22.857-22.857h-45.715v-45.715a22.857 22.857 0 0 0-22.857-22.857zm-228.57 45.715a22.857 22.857 0 0 0-22.857 22.857 22.857 22.857 0 0 0 22.857 22.857h68.57a22.857 22.857 0 0 0 22.857-22.857 22.857 22.857 0 0 0-22.857-22.857z" color="#000000" fill="currentColor" stroke-linecap="round" stroke-linejoin="round" style="-inkscape-stroke:none"/>
</svg>
