<svg version="1.1" viewBox="0 0 512 512" xmlns="http://www.w3.org/2000/svg">
 <path d="m340 36.125c-23.569 0.0031-47.137 8.9306-64.977 26.779l-252 252a24.002 24.002 0 0 0-7.0293 16.971v96a24.002 24.002 0 0 0 24 24h96a24.002 24.002 0 0 0 16.971-7.0293l252-252c35.693-35.679 35.7-94.268 0.01357-129.95-17.844-17.844-41.414-26.765-64.982-26.762zm6e-3 47.699c11.182-0.0015 22.364 4.3331 31.035 13.004 17.342 17.342 17.338 44.729-8e-3 62.066a24.002 24.002 0 0 0-6e-3 6e-3l-7.0293 7.0293-62.059-62.059 7.0293-7.0312a24.002 24.002 0 0 0 6e-3 -0.0039c8.6685-8.6731 19.849-13.01 31.031-13.012zm-72.008 53.986 62.059 62.061-204 204h-62.059v-62.059zm77.789 194.88a24 24 0 0 0-10.76 6.2129l-48 48a24.002 24.002 0 0 0 0 33.941l48 48a24 24 0 0 0 33.941 0 24 24 0 0 0 0-33.941l-31.029-31.029 31.029-31.029a24 24 0 0 0 0-33.941 24 24 0 0 0-23.182-6.2129zm72 0a24 24 0 0 0-10.76 6.2129 24 24 0 0 0 0 33.941l31.031 31.029-31.031 31.029a24 24 0 0 0 0 33.941 24 24 0 0 0 33.941 0l48-48a24.002 24.002 0 0 0 0-33.941l-48-48a24 24 0 0 0-23.182-6.2129z" color="#000000" fill="currentColor" stroke-linecap="round" stroke-linejoin="round" style="-inkscape-stroke:none"/>
</svg>
