<svg version="1.1" viewBox="0 0 512 512" xmlns="http://www.w3.org/2000/svg">
 <path d="m269.87 76.838q35.419 0 69.374 11.806 33.955 11.806 64.038 34.238l16.529-16.529q6.4935-6.4935 16.529-6.4935 10.035 0 16.529 6.4935 6.4935 6.4935 6.4935 16.529 0 10.035-6.4935 16.529l-16.529 16.529q22.432 30.106 34.238 64.061 11.806 33.955 11.806 69.351 0 15.348-2.3613 30.413-2.3613 15.065-7.0838 30.39-4.1322 12.987-13.27 17.119-9.1381 4.1322-17.426 1.1806-8.2881-2.9516-13.861-10.626t-2.0779-17.71q4.7225-12.987 6.8005-25.667 2.0779-12.68 2.0543-25.1 0-68.477-48.406-116.88-48.406-48.406-116.88-48.406-11.806 0-25.384 2.0779-13.577 2.0779-27.155 6.7768-10.035 2.9516-17.119-2.3613-7.0838-5.3129-10.035-13.577-2.9516-8.2645 0.89728-17.403 3.8489-9.1381 15.632-13.294 15.348-4.7226 31.287-7.0838t31.877-2.3613m23.613 146.4v-28.335q0-10.035-6.7768-16.812-6.7769-6.7769-16.836-6.8005-5.9032 0-10.909 2.3613t-7.9811 7.0838zm-23.613 278.63q-43.684 0-82.338-16.812-38.654-16.812-67.603-45.762t-45.738-67.603q-16.789-38.654-16.836-82.338 0-35.419 10.933-68.17t31.57-59.339l-63.754-63.754q-6.4935-6.4935-6.4935-16.529 0-10.035 6.4935-16.529t16.529-6.4935q10.035 0 16.529 6.4935l401.42 401.42q6.4935 6.4935 6.4935 16.529t-6.4935 16.529q-6.4935 6.4935-16.529 6.4935-10.035 0-16.529-6.4935l-40.142-40.142q-28.335 20.661-61.086 31.594-32.751 10.933-66.423 10.909m0-47.226q24.793 0 48.406-7.6741 23.613-7.6742 44.274-21.842l-229.63-229.63q-14.168 20.661-21.251 44.274-7.0838 23.613-7.0838 49.587 0 68.477 48.406 116.88 48.406 48.406 116.88 48.406m-47.226-401.42q-10.035 0-16.812-6.8005-6.7769-6.8005-6.8005-16.812-0.0237-10.012 6.8005-16.812 6.8241-6.8005 16.812-6.8005h94.451q10.035 0 16.836 6.8005 6.8005 6.8005 6.7768 16.812-0.0237 10.012-6.8005 16.836-6.7769 6.8241-16.812 6.7769z" fill="currentColor" stroke-width="23.613"/>
</svg>
