<svg version="1.1" viewBox="0 0 512 512" xmlns="http://www.w3.org/2000/svg">
  <path d="m138 51h4.2a23 23 0 0 1 0 45h-4.1c-19 0.11-25 2.3-28 4.1h-0.023c-0.5 0.36-4.1 2.8-4.1 19v88c0 20-10 35-22 45 12 9.7 22 24 22 44v95c0 16 3.6 19 4.1 19 2.5 1.8 9.2 4 28 4.1h4.1a23 23 0 1 1 0 45h-4.3c-18-0.091-39-1.4-54-13-18-13-23-34-23-56v-95c0-3.2-1.5-7.1-8.5-12-7.3-4.6-17-7.4-26-8.2a23 23 0 0 1-21-23v-3.8a23 23 0 0 1 21-23c8-0.7 18-3.7 25-8.4 7.2-4.7 8.8-8.7 8.8-12v-88c0-22 5.1-43 23-56 16-11 36-13 54-13zm209 23a23 23 0 0 1 23-23h4.3c18 0.091 39 1.5 54 13 18 13 23 34 23 56v88c0 3.1 1.5 7.2 8.8 12 7.3 4.8 17 7.7 25 8.4a23 23 0 0 1 21 23v3.8a23 23 0 0 1-21 23c-8.2 0.75-18 3.6-26 8.2-7 4.4-8.5 8.3-8.5 12v95c0 22-5.1 43-23 56-16 11-36 13-54 13h-4.3a23 23 0 1 1 0-45h4.1c19-0.11 25-2.3 28-4.1 0.45-0.32 4.1-2.7 4.1-19v-95c0-20 10-35 22-44-12-9.8-22-25-22-45v-88c0-16-3.6-18-4.1-19l-0.045-0.023c-2.5-1.8-9.2-4-28-4.1h-4.1a23 23 0 0 1-23-23m-159 227a23 23 0 0 1 23 23v23a23 23 0 1 1-45 0v-23a23 23 0 0 1 23-23m68 0a23 23 0 0 1 23 23v23a23 23 0 1 1-45 0v-23a23 23 0 0 1 23-23m68 0a23 23 0 0 1 23 23v23a23 23 0 1 1-45 0v-23a23 23 0 0 1 23-23" clip-rule="evenodd" fill="currentColor" fill-rule="evenodd" stroke-width="23"/>
</svg>
