<svg version="1.1" viewBox="0 0 512 512" xmlns="http://www.w3.org/2000/svg">
 <g transform="matrix(22.078 0 0 22.078 -9.5239 -8.3721)" fill="none" stroke-linecap="round" stroke-linejoin="round" stroke-width="2">
  <path d="m16.203 0.67578c-1.7069-0.13578-3.4085 0.30382-4.8086 1.1816-2.5768 1.6156-4.1461 4.8084-3.3633 8.2773l-6.3613 6.3633c-0.61788 0.6177-0.96661 1.4564-0.9668 2.3301v2.1719c0 1.2529 1.044 2.2969 2.2969 2.2969h3c1.2529 0 2.2969-1.044 2.2969-2.2969v-0.70312h0.70312c1.2529 0 2.2969-1.044 2.2969-2.2969v-0.72852c0.82669-0.03275 1.618-0.35415 2.2051-0.94141l0.36328-0.36133c3.4689 0.78281 6.6618-0.7865 8.2773-3.3633 1.7556-2.8002 1.7626-6.8019-1.0918-9.6563-1.4272-1.4272-3.1407-2.1377-4.8477-2.2734zm-0.25195 2.5332c1.1184 0.078902 2.252 0.56061 3.2656 1.5742 2.0272 2.0272 1.9287 4.531 0.72852 6.4453-1.2002 1.9143-3.4087 3.0907-6.1191 2.1465a1.2965 1.2965 0 0 0-1.3438 0.30859l-0.8125 0.81445c-0.13227 0.13231-0.31096 0.20504-0.49805 0.20508h-0.17188c-1.2529 0-2.2969 1.044-2.2969 2.2969v0.70312h-0.70312c-1.2529 0-2.2969 1.044-2.2969 2.2969v0.70312h-2.4062v-1.875c4e-5 -0.18709 0.072766-0.36578 0.20508-0.49805l6.8145-6.8125a1.2965 1.2965 0 0 0 0.30859-1.3438c-0.94418-2.7105 0.2322-4.919 2.1465-6.1191 0.95714-0.6001 2.0613-0.9246 3.1797-0.8457z" color="#000000" fill="#000"/>
  <path d="m17 7.5a0.5 0.5 0 0 1-0.5 0.5 0.5 0.5 0 0 1-0.5-0.5 0.5 0.5 0 0 1 0.5-0.5 0.5 0.5 0 0 1 0.5 0.5z" color="#000000" fill="currentColor"/>
  <path d="m16.5 5.7031c-0.97677 0-1.7969 0.82011-1.7969 1.7969s0.82011 1.7969 1.7969 1.7969 1.7969-0.82011 1.7969-1.7969-0.82011-1.7969-1.7969-1.7969zm0 1c0.42448 0 0.79688 0.37239 0.79688 0.79688s-0.37239 0.79688-0.79688 0.79688-0.79688-0.37239-0.79688-0.79688 0.37239-0.79688 0.79688-0.79688z" color="#000000" fill="#000"/>
 </g>
</svg>
