<svg version="1.1" viewBox="0 0 512 512" xmlns="http://www.w3.org/2000/svg">
 <path d="m256 16c-32.121 0-64.536 10.589-89.489 32.77-24.953 22.18-41.42 56.321-41.42 98.139v65.455a21.818 21.818 0 0 0 21.818 21.818 21.818 21.818 0 0 0 21.818-21.818v-65.455c0-30.909 10.805-51.314 26.761-65.497s38.087-21.776 60.511-21.776 44.555 7.5925 60.511 21.776c15.956 14.183 26.761 34.588 26.761 65.497v65.455a21.818 21.818 0 0 0 21.818 21.818 21.818 21.818 0 0 0 21.818-21.818v-65.455c0-41.818-16.467-75.959-41.42-98.139-24.953-22.18-57.367-32.77-89.489-32.77zm-152.73 174.55c-35.884 0-65.455 29.57-65.455 65.455v174.55c0 35.884 29.57 65.455 65.455 65.455h305.45c35.884 0 65.455-29.57 65.455-65.455v-174.55c0-35.884-29.57-65.455-65.455-65.455zm0 43.636h305.45c12.465 0 21.818 9.3535 21.818 21.818v174.55c0 12.465-9.3535 21.818-21.818 21.818h-305.45c-12.465 0-21.818-9.3535-21.818-21.818v-174.55c0-12.465 9.3535-21.818 21.818-21.818zm152.73 65.455c-23.841 0-43.636 19.795-43.636 43.636 0 23.841 19.795 43.636 43.636 43.636s43.636-19.795 43.636-43.636c0-23.841-19.795-43.636-43.636-43.636z" color="#000000" style="-inkscape-stroke:none"/>
</svg>
