<svg version="1.1" viewBox="0 0 512 512" xmlns="http://www.w3.org/2000/svg">
 <path d="m256 16c-29.333 0-58.989 9.6484-81.938 30.047-22.948 20.399-38.062 51.953-38.062 89.953v72c-39.48 0-72 32.52-72 72v144c0 39.48 32.52 72 72 72h240c39.48 0 72-32.52 72-72v-144c0-39.48-32.52-72-72-72v-72c0-38-15.114-69.555-38.062-89.953-22.948-20.399-52.604-30.047-81.938-30.047zm0 48c18.667 0 37.011 6.3517 50.063 17.953 13.052 11.601 21.937 28.047 21.937 54.047v72h-144v-72c0-26 8.8859-42.445 21.938-54.047 13.052-11.601 31.396-17.953 50.062-17.953zm-120 192h240c13.539 0 24 10.461 24 24v144c0 13.539-10.461 24-24 24h-240c-13.539 0-24-10.461-24-24v-144c0-13.539 10.461-24 24-24zm48.469 72a24 24 0 0 0-24 24 24 24 0 0 0 24 24h0.23448a24 24 0 0 0 24-24 24 24 0 0 0-24-24zm71.766 0a24 24 0 0 0-24 24 24 24 0 0 0 24 24h0.2352a24 24 0 0 0 24-24 24 24 0 0 0-24-24zm71.766 0a24 24 0 0 0-24 24 24 24 0 0 0 24 24h0.2352a24 24 0 0 0 24-24 24 24 0 0 0-24-24z" color="#000000" fill="currentColor" stroke-linecap="round" stroke-linejoin="round" stroke-width="24" style="-inkscape-stroke:none"/>
</svg>
