<svg version="1.1" viewBox="0 0 512 512" xmlns="http://www.w3.org/2000/svg">
 <g transform="matrix(24.036 0 0 24.036 -32.072 -32.433)" stroke-linecap="round" stroke-linejoin="round" stroke-width="2">
  <path d="m5 3c-1.645 0-3 1.355-3 3v12c0 1.645 1.355 3 3 3h7c1.645 0 3-1.355 3-3v-2a1 1 0 0 0-1-1 1 1 0 0 0-1 1v2c0 0.56413-0.43587 1-1 1h-7c-0.56413 0-1-0.43587-1-1v-12c0-0.56413 0.43587-1 1-1h7c0.56413 0 1 0.43587 1 1v2a1 1 0 0 0 1 1 1 1 0 0 0 1-1v-2c0-1.645-1.355-3-3-3z" color="#000000" style="-inkscape-stroke:none"/>
  <path d="m17.293 8.293a1 1 0 0 0 0 1.4141l1.293 1.293h-9.5859a1 1 0 0 0-1 1 1 1 0 0 0 1 1h9.5859l-1.293 1.293a1 1 0 0 0 0 1.4141 1 1 0 0 0 1.4141 0l3-3a1 1 0 0 0 0.25977-0.62695 1.0001 1.0001 0 0 0 0-0.16016 1 1 0 0 0-0.25977-0.62695l-3-3a1 1 0 0 0-1.4141 0z" color="#000000" style="-inkscape-stroke:none"/>
 </g>
</svg>
