<svg version="1.1" viewBox="0 0 512 512" xmlns="http://www.w3.org/2000/svg">
 <g transform="matrix(23.275 0 0 23.275 -23.3 -23.3)" fill="currentColor">
  <path d="m10.138 1.815a3 3 0 0 1 3.862 2.873v14.624a3 3 0 0 1-3.862 2.873l-6-1.8a3 3 0 0 1-2.138-2.873v-11.024a3 3 0 0 1 2.138-2.873zm4.862 2.185a1 1 0 0 1 1-1h3a3 3 0 0 1 3 3v1a1 1 0 1 1-2 0v-1a1 1 0 0 0-1-1h-3a1 1 0 0 1-1-1m6 12a1 1 0 0 1 1 1v1a3 3 0 0 1-3 3h-3a1 1 0 1 1 0-2h3a1 1 0 0 0 1-1v-1a1 1 0 0 1 1-1m-12-5a1 1 0 1 0 0 2h1e-3a1 1 0 1 0 0-2z" clip-rule="evenodd" fill-rule="evenodd"/>
  <path d="m18.293 9.293a1 1 0 0 0 0 1.4141l0.29297 0.29297h-2.5859a1 1 0 0 0-1 1 1 1 0 0 0 1 1h2.5859l-0.29297 0.29297a1 1 0 0 0 0 1.4141 1 1 0 0 0 1.4141 0l2-2a1 1 0 0 0 0.25977-0.62695 1 1 0 0 0 0.033203-0.080078 1 1 0 0 0-0.0332-0.16602 1 1 0 0 0-0.02734-0.14258 1 1 0 0 0-0.23242-0.39844l-2-2a1 1 0 0 0-1.4141 0z" color="#000000" stroke-linecap="round" stroke-linejoin="round" style="-inkscape-stroke:none"/>
 </g>
</svg>
