<?xml version="1.0" encoding="UTF-8" standalone="no"?>
<svg
   viewBox="0 0 512 512"
   version="1.1"
   id="svg276"
   sodipodi:docname="machines.svg"
   width="512"
   height="512"
   inkscape:version="1.2.2 (b0a8486541, 2022-12-01)"
   xmlns:inkscape="http://www.inkscape.org/namespaces/inkscape"
   xmlns:sodipodi="http://sodipodi.sourceforge.net/DTD/sodipodi-0.dtd"
   xmlns="http://www.w3.org/2000/svg"
   xmlns:svg="http://www.w3.org/2000/svg">
  <defs
     id="defs280" />
  <sodipodi:namedview
     id="namedview278"
     pagecolor="#505050"
     bordercolor="#ffffff"
     borderopacity="1"
     inkscape:showpageshadow="0"
     inkscape:pageopacity="0"
     inkscape:pagecheckerboard="1"
     inkscape:deskcolor="#505050"
     showgrid="false"
     inkscape:zoom="0.72275889"
     inkscape:cx="-77.480888"
     inkscape:cy="145.96846"
     inkscape:window-width="1854"
     inkscape:window-height="1011"
     inkscape:window-x="0"
     inkscape:window-y="0"
     inkscape:window-maximized="1"
     inkscape:current-layer="svg276" />
  <path
     style="color:#000000;fill:currentColor;stroke-linecap:round;stroke-linejoin:round;-inkscape-stroke:none"
     d="M 112,40 C 59.264985,40 15.999996,83.264985 16,136 v 48 c 8e-6,28.60939 12.797804,54.36118 32.869141,72 C 28.797802,273.63883 15.999996,299.3906 16,328 v 48 c -7e-6,52.73502 43.264983,96 96,96 h 288 c 52.73502,0 96.00001,-43.26498 96,-96 V 328 C 496,299.3906 483.2022,273.63883 463.13086,256 483.2022,238.36118 495.99999,212.60939 496,184 V 136 C 496,83.264985 452.73501,40.000001 400,40 Z m 0,48 h 288 c 26.79391,0 48,21.20609 48,48 v 48 c -10e-6,26.79391 -21.20609,48 -48,48 H 112 C 85.206093,232 64.000008,210.79391 64,184 v -48 c -2e-6,-26.79391 21.206086,-48 48,-48 z m 24,48 a 24,24 0 0 0 -24,24 v 0.24023 a 24,24 0 0 0 24,24 24,24 0 0 0 24,-24 V 160 a 24,24 0 0 0 -24,-24 z m -24,144 h 288 c 26.79392,0 48,21.20608 48,48 v 48 c 0,26.79392 -21.20608,48 -48,48 H 112 C 85.206085,424 63.999997,402.79392 64,376 v -48 c -3e-6,-26.79392 21.206085,-48 48,-48 z m 24,48 a 24,24 0 0 0 -24,24 v 0.24023 a 24,24 0 0 0 24,24 24,24 0 0 0 24,-24 V 352 a 24,24 0 0 0 -24,-24 z"
     id="path274" />
</svg>
