<svg version="1.1" viewBox="0 0 512 512" xmlns="http://www.w3.org/2000/svg">
 <g transform="matrix(21.818 0 0 22.883 -5.8182 -37.633)" stroke-linecap="round" stroke-linejoin="round" stroke-width="2">
  <path d="m6 3c-1.645 0-3 1.355-3 3v9a1.0001 1.0001 0 0 0 1 1h6a1 1 0 0 0 1-1 1 1 0 0 0-1-1h-5v-8c0-0.56413 0.43587-1 1-1h12c0.56413 0 1 0.43587 1 1v2a1 1 0 0 0 1 1 1 1 0 0 0 1-1v-2c0-1.645-1.355-3-3-3zm-4 14a1 1 0 0 0-1 1 1 1 0 0 0 1 1h12a1 1 0 0 0 1-1 1 1 0 0 0-1-1z" color="#000000"/>
  <path d="m15.332 7c-1.2224 0-2.332 0.93592-2.332 2.1992v11.266c0 1.2633 1.1096 2.1992 2.332 2.1992h5.3359c1.2224 0 2.332-0.93592 2.332-2.1992v-11.266c0-1.2633-1.1096-2.1992-2.332-2.1992zm0 2h5.3359c0.24959 0 0.33203 0.13652 0.33203 0.19922v11.266c0 0.0627-0.08244 0.19922-0.33203 0.19922h-5.3359c-0.24959 0-0.33203-0.13652-0.33203-0.19922v-11.266c0-0.062698 0.082445-0.19922 0.33203-0.19922zm2.668 8.6641a1 1 0 0 0-1 1 1 1 0 0 0 1 1h0.0098a1 1 0 0 0 1-1 1 1 0 0 0-1-1z" color="#000000"/>
 </g>
</svg>
