<svg version="1.1" viewBox="0 0 512 512" xmlns="http://www.w3.org/2000/svg">
 <path d="m38.857 73.143a22.859 22.859 0 0 0-22.857 22.857v320a22.859 22.859 0 0 0 22.857 22.857h137.14a22.859 22.859 0 0 0 22.857-22.857v-320a22.859 22.859 0 0 0-22.857-22.857zm22.857 45.714h91.429v274.29h-91.429zm182.86 45.714a22.859 22.859 0 0 0-22.857 22.857v160a22.859 22.859 0 0 0 22.857 22.857h91.429v22.857h-45.714a22.857 22.857 0 0 0-22.857 22.857 22.857 22.857 0 0 0 22.857 22.857h137.14a22.857 22.857 0 0 0 22.857-22.857 22.857 22.857 0 0 0-22.857-22.857h-45.714v-22.857h91.429a22.859 22.859 0 0 0 22.857-22.857v-160a22.859 22.859 0 0 0-22.857-22.857zm22.857 45.714h182.86v114.29h-182.86zm-160 45.714a22.857 22.857 0 0 0-22.857 22.857v0.224a22.857 22.857 0 0 0 22.857 22.857 22.857 22.857 0 0 0 22.857-22.857v-0.224a22.857 22.857 0 0 0-22.857-22.857zm0 68.571a22.857 22.857 0 0 0-22.857 22.857v0.224a22.857 22.857 0 0 0 22.857 22.857 22.857 22.857 0 0 0 22.857-22.857v-0.224a22.857 22.857 0 0 0-22.857-22.857z" color="#000000" fill="currentColor" stroke-linecap="round" stroke-linejoin="round" stroke-width="22.857" style="-inkscape-stroke:none"/>
</svg>
