<svg version="1.1" viewBox="0 0 512 512" xmlns="http://www.w3.org/2000/svg">
 <path d="m112 432v16h32v-16zm256 0v16h32v-16zm-224 0v-16h-32v16zm80-96h64v-32h-64zm144 80v16h32v-16zm-80-80a80 80 0 0 1 80 80h32a112 112 0 0 0-112-112zm-144 80a80 80 0 0 1 80-80v-32a112 112 0 0 0-112 112zm112-304a80 80 0 0 0-80 80h32a48 48 0 0 1 48-48zm80 80a80 80 0 0 0-80-80v32a48 48 0 0 1 48 48zm-80 80a80 80 0 0 0 80-80h-32a48 48 0 0 1-48 48zm0-32a48 48 0 0 1-48-48h-32a80 80 0 0 0 80 80zm0 224a208 208 0 0 1-208-208h-32a240 240 0 0 0 240 240zm208-208a208 208 0 0 1-208 208v32a240 240 0 0 0 240-240zm-208-208a208 208 0 0 1 208 208h32a240 240 0 0 0-240-240zm0-32a240 240 0 0 0-240 240h32a208 208 0 0 1 208-208z" fill="currentColor" stroke-width="32"/>
</svg>
