<svg version="1.1" viewBox="0 0 512 512" xmlns="http://www.w3.org/2000/svg">
 <path d="m112 40c-52.735 0-96 43.265-96 96v48c0 29.062 13.83 54.347 34.453 72-20.623 17.653-34.453 42.938-34.453 72v48c0 52.735 43.265 96 96 96h288c52.735 0 96-43.265 96-96v-48c0-29.062-13.83-54.347-34.453-72 20.623-17.653 34.453-42.938 34.453-72v-48c0-52.735-43.265-96-96-96zm0 48h288c26.794 0 48 21.206 48 48v48c0 26.794-21.206 48-48 48h-288c-26.794 0-48-21.206-48-48v-48c0-26.794 21.206-48 48-48zm24 48a24 24 0 0 0-24 24v0.23448a24 24 0 0 0 24 24 24 24 0 0 0 24-24v-0.23448a24 24 0 0 0-24-24zm-24 144h288c26.794 0 48 21.206 48 48v48c0 26.794-21.206 48-48 48h-288c-26.794 0-48-21.206-48-48v-48c0-26.794 21.206-48 48-48zm24 48a24 24 0 0 0-24 24v0.2352a24 24 0 0 0 24 24 24 24 0 0 0 24-24v-0.2352a24 24 0 0 0-24-24z" color="#000000" fill="currentColor" stroke-linecap="round" stroke-linejoin="round" stroke-width="24" style="-inkscape-stroke:none"/>
</svg>
