<svg version="1.1" viewBox="0 0 512 512" xmlns="http://www.w3.org/2000/svg">
 <g transform="matrix(21.825 0 0 21.825 -5.8931 -5.8931)" stroke-linecap="round" stroke-linejoin="round" stroke-width="2">
  <path d="m11.766 6.9375c-1.2772 0.075122-2.4365 0.66502-3.3008 1.5293-0.86428 0.86428-1.4524 2.0216-1.5273 3.2988-0.074962 1.2772 0.40943 2.6519 1.5293 3.7715a1 1 0 0 0 1.4141 0 1 1 0 0 0 0-1.4141c-0.76632-0.7661-0.9899-1.5139-0.94727-2.2402 0.04263-0.72633 0.39534-1.452 0.94531-2.002 0.54997-0.54997 1.2774-0.90453 2.0039-0.94727 0.72654-0.042732 1.4739 0.18116 2.2402 0.94727a1 1 0 0 0 1.4141 0 1 1 0 0 0 0-1.416c-1.1199-1.1196-2.4942-1.6025-3.7715-1.5273z" color="#000000" style="-inkscape-stroke:none"/>
  <path d="m12 2a1 1 0 0 0-1 1v1a1 1 0 0 0 1 1 1 1 0 0 0 1-1v-1a1 1 0 0 0-1-1zm8.293 0.29297-15.359 15.361-2.6406 2.6387a1 1 0 0 0 0 1.4141 1 1 0 0 0 1.4141 0l2.0234-2.0234c5.0768 4.1392 12.921 2.3674 15.506-3.8535a1.0001 1.0001 0 0 0-1.2988-1.3105c-2.5771 1.0436-5.4558 0.27813-7.2676-1.7754l9.0371-9.0371a1 1 0 0 0 0-1.4141 1 1 0 0 0-1.4141 0zm-14.693 2.3066a1 1 0 0 0-0.70703 0.29297 1 1 0 0 0 0 1.4141l0.70117 0.70117a1 1 0 0 0 1.4141 0 1 1 0 0 0 0-1.4141l-0.70117-0.70117a1 1 0 0 0-0.70703-0.29297zm-2.5996 6.4004a1 1 0 0 0-1 1 1 1 0 0 0 1 1h1a1 1 0 0 0 1-1 1 1 0 0 0-1-1zm8.2754 3.1387c1.8233 2.0025 4.415 3.015 7.0547 2.7559-2.6394 3.4533-7.6493 4.131-11.186 1.375z" color="#000000" style="-inkscape-stroke:none"/>
 </g>
</svg>
