<svg version="1.1" viewBox="0 0 512 512" xmlns="http://www.w3.org/2000/svg">
 <path d="m255.99 431.02a25.002 25 0 0 1 24.827 22.075l0.17501 2.9251v25a25.002 25 0 0 1-49.828 2.9251l-0.17501-2.9251v-25a25.002 25 0 0 1 25.002-25m157.84-52.251 2.3501 2.075 17.501 17.5a25.002 25 0 0 1-33.003 37.425l-2.3501-2.075-17.501-17.5a25.002 25 0 0 1 30.452-39.175zm-282.66 2.075a25.002 25 0 0 1 2.0751 33.001l-2.0751 2.35-17.501 17.5a25.002 25 0 0 1-37.427-33.001l2.0751-2.35 17.501-17.5a25.002 25 0 0 1 35.353 0m-75.18-149.83a25.002 25 0 0 1 2.9252 49.826l-2.9252 0.17501h-25.002a25.002 25 0 0 1-2.9252-49.826l2.9252-0.175zm425.03 0a25.002 25 0 0 1 2.9252 49.826l-2.9252 0.17501h-25.002a25.002 25 0 0 1-2.9252-49.826l2.9252-0.175zm-369.7-154.75 2.3501 2.075 17.501 17.5a25.002 25 0 0 1-33.003 37.425l-2.3501-2.075-17.501-17.5a25.002 25 0 0 1 30.427-39.175zm322.37 2.075a25.002 25 0 0 1 2.0751 33.001l-2.0751 2.35-17.501 17.5a25.002 25 0 0 1-37.427-33.001l2.0751-2.35 17.501-17.5a25.002 25 0 0 1 35.353 0m-177.69-72.326a25.002 25 0 0 1 24.827 22.075l0.17501 2.9251v25a25.002 25 0 0 1-49.828 2.9251l-0.17501-2.9251v-25a25.002 25 0 0 1 25.002-25m0 125a125 125 0 1 1-124.88 130.42l-0.12501-5.4251 0.12501-5.4251a125 125 0 0 1 124.88-119.58" fill="currentColor" stroke-width="25.001"/>
</svg>
