<svg version="1.1" viewBox="0 0 512 512" xmlns="http://www.w3.org/2000/svg">
 <path d="m209.27 16c-63.804 0-116.54 51.204-116.55 114.41-0.0095 63.219 52.73 114.44 116.55 114.44s116.56-51.224 116.55-114.44c-0.00947-63.206-52.745-114.41-116.55-114.41zm0 46.193c39.409 0 70.35 30.56 70.355 68.225 6e-3 37.673-30.938 68.244-70.355 68.244-39.417 0-70.361-30.572-70.355-68.244 6e-3 -37.665 30.946-68.225 70.355-68.225zm-46.725 227.79c-63.811 0-116.55 51.215-116.55 114.43v45.664a23.096 23.096 0 0 0 23.096 23.098 23.096 23.096 0 0 0 23.098-23.098v-45.664c3e-6 -37.668 30.942-68.234 70.355-68.234h93.451a23.096 23.096 0 0 0 23.096-23.098 23.096 23.096 0 0 0-23.096-23.096zm210.27 22.832a23.096 23.096 0 0 0-23.096 23.098v45.4h-46.992a23.096 23.096 0 0 0-23.098 23.098 23.096 23.096 0 0 0 23.098 23.096h46.992v45.402a23.096 23.096 0 0 0 23.096 23.096 23.096 23.096 0 0 0 23.096-23.096v-45.402h46.994a23.096 23.096 0 0 0 23.096-23.096 23.096 23.096 0 0 0-23.096-23.098h-46.994v-45.4a23.096 23.096 0 0 0-23.096-23.098z" color="#000000" fill="currentColor" stroke-linecap="round" stroke-linejoin="round" style="-inkscape-stroke:none"/>
</svg>
