<svg version="1.1" viewBox="0 0 512 512" xmlns="http://www.w3.org/2000/svg">
 <g transform="matrix(3.1084 0 0 3.1084 -575 -434.82)">
  <circle cx="261.46" cy="222.24" r="74.65" fill="#fff" stroke-width="0"/>
  <g stroke-width="1.3333">
   <path d="m221.37 207.53c0.86771-13.594 3.243-19.401 5.4668-27.763 5.4203 4.0207 8.0358 5.8995 16.201 9.3388 0 0-11.76 9.3577-21.668 18.424z" fill="#ffae8e"/>
   <path d="m244.4 185.05 41.956-0.93305 3.7088-1.9179c2.0399-1.0548 4.5214-2.897 5.5146-4.0937s3.42-3.0106 5.3928-4.0308l3.5871-1.855 4.1141 3.2191 3.6348 13.333c1.9991 7.3333 5.9775 18.252 8.8408 24.263l4.1813 11.283 1.8438 6.5629 0.8191 6.9161c0.42661 4.5067-0.87947 11.875-3.6354 19.461l-0.80963 1.31 5.9117 4.8442c5.4976 4.5048 16.786 17.831 16.786 19.816 0 0.48227-9.75 0.87189-21.667 0.86584l-21.667-0.011-2.9014-5.3445s-2.1922-2.9609-1.6818-4.9227c0.75173-2.8896 6.3485-5.2134 6.3485-5.2134 9.3426-5.9152 13.274-9.4454 15.69-14.09l1.869-3.5922-12.84-7.2178-2.2092-3.8493-2.2092-3.8493-11.268-5.0448-15.465-6.4544-8.8459-3.7595c-4.8652-2.0678-11.751-5.7578-15.301-8.2-3.5504-2.4423-5.6895-3.0292-7.2126-4.9132-1.5231-1.884-1.6137-2.0185-2.1017-4.6018-0.21907-2.9901 0.75047-8.9284 0.75047-8.9284z" fill="#fcd2a3"/>
   <path d="m335.74 269.71c2.7076 3.052 3.6303 4.0068 6.5074 7.0183-3.3167 2.1117-7.1335 5.1134-7.1335 5.1134l-3.4481 2.2593h-15.261l7.5144-5.6667c3.4021-2.5656 7.0335-4.93 10.266-7.5064l-13.279-8.6259m-38.396-75.406-0.53333 2.4107s-1.7601 4.0949-3.639 9.263-2.663 9.4111-4.8528 12.824c-2.1899 3.4125-5.3914 1.9935-5.7087-0.13082-0.49382-3.3061 0.27931-6.7652 1.4444-10.241 1.1651-3.4758 2.5448-6.1516 3.6188-9.5246 0.25286-0.79405 2.5832-5.5593 2.5832-5.5593s-1.5345 0.34103-3.5601 0.41331c-1.77 0.0632-2.6179-0.30499-2.6179-0.30499s-1.0374 6.0957-2.3152 9.8107c-1.1586 3.3686-2.6039 9.3232-4.7658 13.498-0.30559 0.59003-1.2897 1.1345-2.0769 1.4606-1.0146 0.42024-2.3532 0.28364-3.2088-0.74726 0 0-0.86178-1.8428-0.83884-2.6544 0.11427-4.0412 1.1677-8.5996 1.1677-8.5996l3.3054-11.954-1.7693 0.054-2.765 0.0273-1.7598 8.1596c-0.67843 3.1456-1.9242 7.1667-2.4958 9 0 0-0.47591 2.1641-1.4134 2.8538-0.68617 0.50481-1.5378 0.76584-2.3435 0.48938-0.91762-0.31485-1.5472-1.4289-1.9908-2.2917-0.98268-1.9113-0.4027-5.9471-0.4027-5.9471v-8.2289c-0.21157-2.4619-0.56069-4.3074-1.129-5.796v4e-5l20.564-0.50667c11.31-0.27866 17.891-0.42535 18.728-0.44352" fill="#dd935b"/>
  </g>
  <g fill="#161514">
   <path d="m251 240.68c-1.2746-1.0156-1.5581-2.4079-1.5581-3.1701 0.27239-2.2224 1.5129-2.4755 2.2823 0.16566 0 0 0.74906 1.0597 1.1845 1.7667 1.0705 1.4042 2.6859 0.68298 2.6859 0.68298 1.2553-0.95834 2.2744-3.0198 2.2078-4.1862 0.1122-2.7746-1.3706-2.9731-0.99726-5.0233 0.14128-1.427 2.7032-1.9453 2.7032-1.9453s1.7821 0.11967 2.4027 2.0635c-0.20361 3.5105-1.2607 2.0907-1.2321 4.9858-0.0275 0.79355 0.11723 0.92899 0.76927 2.0113 0.52226 1.4386 1.6797 2.3614 2.8288 2.6748 1.7941-0.1668 2.7099-3.2645 2.9531-4.2573 0.5437-1.3487 1.4042-0.43746 1.4042-0.43746s0.40268 0.20962 0.0399 1.4693c-0.14597 0.94914-0.42551 1.3472-1.066 2.519-0.77653 1.4206-1.0728 1.8901-3.0518 2.5649-1.8906-0.20921-2.6517-0.61196-3.3761-1.0836-1.0424-0.91463-1.7218-2.5777-1.7218-2.5777l-1.1094 1.6956c-2.4624 2.0615-2.6561 2.2228-5.6985 1.3969z" stroke-width="1.3333"/>
   <path class="UnoptimicedTransforms" d="m219.99 278.13-0.43082 5.6667 3.6361 2.5511c0.62719 0.44003-0.47378-4.8011-0.0138-7.5511 0.45995-2.75 1.0002-5.6 1.2005-6.3333 0.2003-0.73334-1.7164-3.6599-4.2594-6.5035s-5.897-7.9436-7.4534-11.333l-2.8298-6.1632-0.0199-10.695s-0.82499-7.2219-0.0199-10.695c0.77581-3.3465 4.5518-9.2461 4.5518-9.2461l4.5518-9.2461 1.7231-11.592c0.94771-6.3757 2.5104-13.522 3.4726-15.88l1.7495-4.2875 8.3855 4.7342c9.4343 7.97 17.196 6.7531 31.621 5.4088l15.59 0.0932s2.6641 0.33823 6.3935-0.41499c3.6301-1.6482 9.663-6.1078 12.973-8.2922l4.1661-2.749 2.1986 7.4767c4.601 15.647 6.5885 22.962 10.993 33.384 0 0 2.8726 7.8075 3.7916 11.617 0.83457 3.4591 1.5728 9.7168 1.5728 9.7168s1.1912 7.1919 0.42435 10.667c-0.48445 2.1952-2.0529 4-3.0794 6s-2.0207 3.5016-3.5151 5.181c-2.1988 2.4708-7.8061 6.3441-7.8061 6.3441-4.533 3.0388-6.6779 3.8131-9.7084 6.1592-0.5739 0.44429-1.4115 0.65454-1.5898 1.4877-0.12985 0.60659 0.45211 1.5291 0.45211 1.5291l0.9784 1.5831 4.5186-3.1282c2.1605-1.4957 7.038-4.19 10.436-6.6618 8.0985-5.8906 7.4196-6.1131 18.833 6.1725 5.4502 5.8667 10.631 10.667 11.513 10.667h1.6034l-3.9886-5.7973c-2.1937-3.1885-7.3212-8.843-11.394-12.566l-7.4057-6.7684 1.6052-4.1831 3.5276 0.76246s4.3408 1.7073 4.861 0.62255c0.59239-1.2352-4.5251-2.4491-4.5251-2.4491s-2.0393-0.27671-2.729-2.1223c-0.48535-1.2987 0.0374-2.3401 0.81878-3.0412 0.88239-0.79173 1.9073-0.49873 3.514-0.54833 0 0 4.3367 0.5795 3.7623-0.20745-0.84629-1.1596-3.841-1.3296-3.841-1.3296-3.3798-1.63-4.0563-5.0393-1-5.0393 1.1 0 6.267-0.87314 5.5451-1.0018-2.056-0.36634-3.2906-0.66075-4.1894-0.90838 0 0-2.0017-0.42133-2.4476-1.2594-1.4026-2.636-2.4015-8.498-2.4015-8.498-1.2404-4.6206-3.0737-11.617-5.6048-16.839s-6.2501-15.34-8.2645-22.484c-2.0144-7.1447-2.7624-10.469-4.3112-13.969 0 0-1.7816-3.3784-2.7006-3.6014-1.1393-0.27639-5.1422 2.6947-5.1422 2.6947-3.0157 1.507-3.45 2.5551-6.5628 4.9063 0 0-3.3122 2.7726-8.0954 3.9512-5.835 1.4377-15.366 0.16996-15.366 0.16996-9.6864 0.82301-16.142 1.1174-17.709 1.0134 0 0-4.6653 0.12873-7.455-0.77948-2.7896-0.9082-5.8204-1.7245-10.204-4.943-2.9037-1.8336-6.1694-4.5349-10.558-6.4519-0.82145-0.35887-1.3046 1.7431-1.5061 2.2279-1.4782 3.5568-2.0898 5.3369-2.8024 8.1054-1.3023 5.0595-1.7438 10.302-2.667 15.445-0.54984 3.0628-1.0583 7.0321-1.7105 9.1771-0.96117 3.1612-4.5156 7.9375-4.5156 7.9375s-3.14 6.3123-4.0739 9.4817c-0.77814 2.6407-1.2572 7.6147-1.2572 7.6147s0.73567 6.029-0.95216 8.2039c-0.45352 0.58439-2.0719 0.79504-2.0719 0.79504s-6.1082 0.25975-6.1038 0.99946c6e-3 1.0238 6.9125 0.8612 6.9125 0.8612 3.7382 1.3828 3.6808 4.3581-0.11937 6.1909 0 0-5.2794 1.3638-5.0454 2.449 0.25771 1.1951 5.7121-0.912 5.7121-0.912l3.6667 0.0902v1.5617c0 0.85892-1.0337 2.7039-2.2971 4.1 0 0-4.1497 2.8326-3.5624 3.811 0.60779 1.0126 4.7018-2.1352 4.7018-2.1352l3.4365-0.86251 10.343 14.192z"/>
   <path class="UnoptimicedTransforms" transform="translate(7.4208 117.08)" d="m211.44 167.05 3.9467 2.769c0.91599 0.64264 1.2231-0.39947 1.2441-0.86824 0.0606-1.3518-0.56498-5.0413-0.21751-7.1186 0.45913-2.7451 1.0034-5.5991 1.186-6.2677 0.31381-1.1489-1.8512-4.2672-4.4056-7.1235-2.508-2.8045-5.811-7.8272-7.3445-11.167l-2.8298-6.1632 0.0608 0.27694-0.02-10.732a128.37 128.37 0 0 1-4e-3 -0.037c-0.26059-2.2811-0.23311-2.5833-0.28608-3.5623-0.0272-0.50248-0.05-1.0323-0.0647-1.5729-0.0183-0.67598-0.0238-1.3659-9e-3 -2.0384 8e-3 -0.37322 0.0224-0.73997 0.044-1.0947 0.024-0.39429 0.057-0.77203 0.10041-1.1264 0.0483-0.39436 0.10872-0.75425 0.1828-1.0738 0.0712-0.30693 0.17119-0.64311 0.29641-1.0042 0.11253-0.32454 0.24396-0.66493 0.3902-1.016 0.13156-0.31577 0.27458-0.63888 0.42571-0.96504 0.27231-0.58766 0.56942-1.182 0.87176-1.7589 0.24178-0.46134 0.48608-0.90997 0.72257-1.3331 0.44225-0.79127 0.58157-1.1232 1.7572-2.96a115.82 115.82 0 0 1 0.0201-0.0314l4.6143-9.3731 1.7384-11.695c0.9452-6.3588 2.5095-13.469 3.4304-15.726l1.7495-4.2875-0.94501 0.32867 8.3855 4.7342-0.10247-0.07127c9.6792 8.1768 17.711 6.9056 32.113 5.5634l-0.0659 0.0029 15.59 0.09322-0.08-0.0053c2.3966 0.30427 5.7664-0.25261 6.6094-0.42288a9.149 9.149 0 0 0 0.075-0.01547 15.775 15.775 0 0 0 0.0687-0.03097c3.7096-1.6843 9.7732-6.1707 13.065-8.3427l4.1661-2.749-1.0068-0.36837 2.1986 7.4767c4.5996 15.642 6.5966 22.992 11.019 33.456l-0.0116-0.02931c1.4336 3.8962 0.9089 2.4996 1.6384 4.6351 0.21723 0.63593 0.4405 1.2996 0.65942 1.9657 0.27368 0.83266 0.54016 1.6678 0.77923 2.4559 0.13278 0.43771 0.25689 0.86018 0.36895 1.2591 0.12457 0.44345 0.23374 0.85597 0.32324 1.2269 0.0814 0.33737 0.16218 0.70339 0.24194 1.0907 0.0718 0.34844 0.14237 0.71269 0.21142 1.0866 0.12434 0.67331 0.24317 1.3756 0.35388 2.0694 0.309 1.9367 0.18943 0.62675 0.75158 5.3918a994.46 994.46 0 0 1 2e-3 0.0155 96.68 96.68 0 0 1 3e-3 0.0153c0.36163 2.1834 0.36798 2.6868 0.45228 3.5449 0.0491 0.50025 0.0944 1.0277 0.13107 1.5659 0.0458 0.67304 0.0778 1.3597 0.0868 2.0291 5e-3 0.37161 3e-3 0.73622-8e-3 1.0893-0.0119 0.39227-0.0344 0.76776-0.0693 1.1199-0.0388 0.39189-0.0922 0.74858-0.16204 1.065-0.46011 2.0849-1.9692 3.789-3.0215 5.8393-1.004 1.9563-1.9676 3.41-3.42 5.0422-0.20636 0.23189-0.44787 0.48047-0.71831 0.74201-0.24313 0.23514-0.50739 0.47854-0.7869 0.72672-0.25157 0.22336-0.51456 0.44976-0.78479 0.67682-0.48664 0.40891-0.99421 0.81783-1.4962 1.2114-1.0566 0.82831-0.71144 0.67879-3.8931 2.8766-4.5144 3.0263-6.6827 3.8149-9.7453 6.1858-0.43758 0.33876-1.5865 0.72095-1.8336 1.8753 0 0-0.2232 0.81429 0.53691 2.0191l1.3476 2.1804 5.096-3.5279c2.1215-1.4687 7.0212-4.1775 10.449-6.6708 4.0603-2.9533 5.6858-4.2542 7.5737-3.6354 2.0898 0.68492 4.6706 3.5781 10.379 9.7226 5.4534 5.8701 10.732 10.88 12.001 10.88h2.8712l-4.7073-6.8418c-2.2269-3.2367-7.3994-8.9378-11.494-12.68l-7.4057-6.7684 0.17266 0.73094 1.6052-4.1831-0.76325 0.41278 3.5276 0.76246-0.10317-0.0312c2.0942 0.82368 3.3945 0.96561 3.3945 0.96561 0.3816 0.0561 0.78885 0.0838 1.1298 0.0459 0.19901-0.0221 0.40943-0.0685 0.60429-0.16104 0.22934-0.10895 0.44659-0.28693 0.57758-0.56006 0.14936-0.31144 0.15128-0.58481 0.043-0.88395-0.083-0.22934-0.22921-0.41969-0.37964-0.5698-0.13538-0.1351-0.29276-0.25668-0.45604-0.36533-0.29091-0.19359-0.63684-0.36996-0.99008-0.52604 0 0-1.1687-0.56156-3.1896-1.0409a23.387 23.387 0 0 0-0.0337-8e-3 2.8208 2.8208 0 0 1-0.0305-4e-3c-1.599-0.21696-2.1942-1.695-2.1942-1.695-0.36552-0.97806 0.0259-1.7611 0.63952-2.3116 0.66203-0.594 1.4042-0.32616 3.0894-0.37818l-0.10887-6e-3c2.5942 0.34667 3.107 0.20397 3.107 0.20397 0.13838-6e-3 0.27438-0.017 0.40145-0.034 0.13938-0.0187 0.28719-0.0477 0.42295-0.0956 0.14162-0.05 0.39957-0.19027 0.52728-0.40613 0.21546-0.3642 0.0942-0.70518-0.0695-0.92949 0 0-0.98468-1.4116-4.3418-1.6022l0.25182 0.0651c-1.2482-0.60198-2.0311-1.4271-2.3793-2.1628-0.42101-0.88937-0.2421-1.6094 1.0897-1.6094 1.0211 0 4.4586-0.55884 5.5386-0.87506 0.62593-0.18327 2.0106-1.1135 0.12347-1.4497-2.0387-0.36326-3.2533-0.65342-4.1292-0.89476a28.861 28.861 0 0 1-0.02-6e-3 7.6471 7.6471 0 0 1-0.0197-4e-3c-1.5454-0.32529-1.9964-0.92017-1.9964-0.92017-0.12799-0.24054-0.25475-0.51515-0.3803-0.81954-0.11282-0.27352-0.223-0.5672-0.33016-0.87565-0.0964-0.27747-0.18992-0.56568-0.28023-0.8601-0.16273-0.53054-0.31403-1.078-0.45248-1.6168-0.1435-0.55844-0.38565-1.1669-0.88972-4.1247a98.941 98.941 0 0 1-5e-3 -0.0307 825.76 825.76 0 0 1-8e-3 -0.0302c-1.2399-4.6186-3.0942-11.686-5.6487-16.956-2.5133-5.1849-6.2151-15.254-8.2227-22.374-2.0122-7.1368-2.7711-10.506-4.3432-14.058a33.829 33.829 0 0 0-9e-3 -0.02091 28.146 28.146 0 0 0-0.0107-0.02028c-0.90393-1.7141-1.5769-2.5612-1.5769-2.5612-0.20449-0.2789-0.4209-0.54799-0.63595-0.76954-0.11947-0.12308-0.25085-0.24343-0.38183-0.34043-0.14554-0.10777-0.33219-0.21707-0.53852-0.26712-0.43957-0.10664-0.92841 0.03023-1.369 0.19984-0.18008 0.06933-0.36761 0.1518-0.55569 0.24178-0.33716 0.16129-0.69248 0.3546-1.0384 0.55613 0 0-0.98777 0.51364-2.7337 1.8095l0.0993-0.06103c-3.0979 1.5481-3.6027 2.6564-6.6666 4.9707a38.119 38.119 0 0 1-0.0135 0.0102 8.7817 8.7817 0 0 1-0.0126 0.01057c-0.73727 0.61718-1.6174 1.148-2.1646 1.4705-1.3876 0.81789-3.3488 1.7745-5.6623 2.3445-2.8544 0.7033-6.5851 0.74195-9.682 0.60539-1.5419-0.06798-2.9028-0.18048-3.8788-0.276-0.91948-0.09-0.45403-0.02621-1.5574-0.17296a994.22 994.22 0 0 1-0.072-0.0096 542.43 542.43 0 0 1-0.0723 0.0062c-9.6806 0.82252-16.143 1.1097-17.609 1.0125a4.5285 4.5285 0 0 1-0.0303-0.0021 40.504 40.504 0 0 1-0.0322 9.03e-4c-3.1158 0.08597-4.7124-0.22992-4.7124-0.22992-0.58313-0.07342-1.1572-0.16829-1.6882-0.29035-0.29449-0.0677-0.5725-0.14301-0.8296-0.22672-2.8247-0.9196-5.7445-1.7104-10.016-4.8464a38.614 38.614 0 0 1-0.0189-0.01386 32.039 32.039 0 0 1-0.0197-0.01247c-2.8742-1.8149-6.2088-4.5604-10.647-6.4992-1.6067-0.70192-2.2826 2.328-2.3886 2.583-1.486 3.5757-2.1112 5.393-2.8324 8.195-1.3117 5.0957-1.758 10.371-2.6775 15.493-0.55238 3.0769-1.0592 7.0193-1.6922 9.1009-0.0887 0.29185-0.20242 0.60206-0.33799 0.92898-0.12182 0.29377-0.25972 0.597-0.41019 0.9062-0.2711 0.55713-0.57978 1.1271-0.9021 1.6851-0.2577 0.44619-0.52287 0.8826-0.78273 1.296-0.28882 0.45948-0.72672 1.2336-1.9796 2.9171a59.605 59.605 0 0 1-0.0355 0.04761 735.65 735.65 0 0 0-0.0266 0.05347c-1.9052 3.8299-1.426 2.9504-2.1558 4.5914-0.27054 0.60831-0.54223 1.2352-0.79794 1.8504-0.14211 0.34185-0.27957 0.68074-0.4093 1.0112-0.14415 0.36715-0.27918 0.72492-0.4009 1.066-0.13514 0.37867-0.25484 0.73949-0.35261 1.0713-0.0819 0.27782-0.1599 0.5779-0.23363 0.89013-0.0664 0.28128-0.12992 0.57475-0.19032 0.87433-0.0544 0.26971-0.1064 0.5451-0.15596 0.82209-0.0892 0.49846-0.1707 1.0034-0.24398 1.4918-0.14168 0.9443-0.19507 0.93686-0.45742 3.6608a208.57 208.57 0 0 0-7e-3 0.0729 26.947 26.947 0 0 1 9e-3 0.0717c0.11491 0.94165 0.116 1.3642 0.13424 1.8284 0.0425 1.0821 0.0336 2.446-0.16555 3.6713-0.0988 0.60805-0.23925 1.1511-0.4339 1.5999-0.10651 0.24556-0.22409 0.4501-0.35186 0.61474 0 0-0.39936 0.38234-1.6312 0.54268l0.0577-5e-3c-3.4829 0.1481-3.9308 0.322-3.9308 0.322-0.19869 0.0258-0.39394 0.0535-0.58164 0.0832-0.20831 0.0329-0.40979 0.0687-0.59735 0.10728-0.20753 0.0427-0.40691 0.0907-0.58224 0.14351-0.1911 0.0576-0.395 0.13487-0.5521 0.22746-0.1908 0.11246-0.50049 0.36799-0.49795 0.78597 4e-3 0.69201 0.70993 0.98505 1.2126 1.122 0.20292 0.0553 0.43216 0.10265 0.66927 0.14221 0.2143 0.0358 0.44337 0.0667 0.6792 0.0933 0.2125 0.024 0.43283 0.0447 0.65642 0.0626 0.40214 0.0322 0.81878 0.0556 1.2262 0.0724 0.28552 0.0118 0.89689 0.0843 3.1511 0.0312l-0.24699-0.0412c3.1414 1.1621 3.111 3.3791-0.17767 4.9651l0.12286-0.045c-2.2678 0.5858-3.2785 1.0723-3.2785 1.0723-0.37439 0.15361-0.74182 0.32171-1.06 0.49807-0.17794 0.0986-0.34825 0.20405-0.49992 0.31546-0.37441 0.27504-0.81912 0.7591-0.69186 1.3493 0.15113 0.70084 0.80763 0.86549 1.3131 0.88946 0.19123 9e-3 0.40166-1.5e-4 0.60891-0.0206 0.18785-0.0185 0.38554-0.0471 0.58508-0.0824 0.35766-0.0633 0.73886-0.15119 1.1119-0.24883 0 0 1.141-0.25587 2.985-0.96826l-0.25663 0.0446 3.6667 0.0902-0.65027-0.66646v1.5617c0 0.59148-0.89869 2.2978-2.1248 3.6526l0.11845-0.10328c-1.67 1.1399-2.5524 2.0256-2.5524 2.0256-0.27793 0.26144-0.54496 0.53659-0.76291 0.80571-0.12205 0.1507-0.23524 0.30748-0.32833 0.46547-0.10189 0.17293-0.19545 0.37742-0.23856 0.58439-0.0523 0.25135-0.0415 0.54768 0.124 0.82349 0.17255 0.28749 0.44076 0.43928 0.71624 0.49612 0.21742 0.0449 0.45034 0.0295 0.64774-7e-3 0.18076-0.0332 0.36566-0.088 0.54681-0.15385 0.32318-0.11752 0.66868-0.28308 1.0055-0.46489 0 0 1.1222-0.55852 2.7635-1.8205l-0.24407 0.11811 3.4365-0.86251-0.70106-0.25397 10.343 14.192-0.12598-0.44317-0.43077 5.6666zm2.2384-11.855-10.752-14.754-4.0078 1.0059a27.074 27.074 0 0 1-0.10892 0.0842c-1.5946 1.226-2.5841 1.7042-2.5841 1.7042-0.30383 0.164-0.5851 0.29688-0.8278 0.38513-0.13324 0.0485-0.24393 0.0794-0.33191 0.0955-0.0952 0.0175-0.13758 0.0123-0.13758 0.0123l6e-3 1e-3 9e-3 3e-3 0.011 4e-3 0.13128 0.11502 0.0377 0.13608s-1.6e-4 1e-3 -1.3e-4 1e-3c3e-5 -2.1e-4 1.7e-4 -1e-3 5.1e-4 -3e-3 6e-3 -0.0275 0.0233-0.0798 0.082-0.1794 0.0514-0.0873 0.12272-0.18835 0.21573-0.3032 0.16915-0.20887 0.38823-0.43654 0.64033-0.67369 0 0 0.80548-0.81364 2.3905-1.8956a25.355 25.355 0 0 1 0.0641-0.0436 12.137 12.137 0 0 0 0.0544-0.0597c1.3008-1.4373 2.4695-3.421 2.4695-4.5473v-2.2122l-4.4504-0.10948a35.016 35.016 0 0 1-0.12322 0.0479c-1.8593 0.71826-2.8945 0.93574-2.8945 0.93574-0.35473 0.0917-0.69734 0.16878-1.0124 0.22223-0.17415 0.0296-0.33405 0.0509-0.47968 0.0634-0.16341 0.0141-0.29258 0.0161-0.39986 8e-3 -0.11921-9e-3 -0.1619-0.0258-0.16732-0.0285l5e-3 3e-3 9e-3 6e-3 0.0108 8e-3 0.0115 0.01s0.0969 0.16622 0.0969 0.16621l-0.0132 0.17735-2e-3 5e-3s-9.9e-4 2e-3 -9.6e-4 2e-3c3e-5 -7e-5 4.9e-4 -8.2e-4 1e-3 -2e-3 0.0163-0.0242 0.0591-0.073 0.15955-0.15032 0.0884-0.068 0.20273-0.14259 0.3431-0.22242 0.25489-0.14497 0.56786-0.2917 0.91561-0.43602 0 0 0.86792-0.44467 3.1573-1.036a39.287 39.287 0 0 1 0.0623-0.016 10.305 10.305 0 0 0 0.0605-0.029c4.3079-2.0776 4.3916-5.8146 0.0611-7.4166a9.0495 9.0495 0 0 0-0.12232-0.0443 84.804 84.804 0 0 1-0.12467 3e-3c-2.2894 0.0539-2.9177-0.0241-3.124-0.0329-0.40021-0.0171-0.80276-0.0406-1.1867-0.0726-0.21312-0.0177-0.41922-0.038-0.61522-0.0611-0.21809-0.0257-0.42061-0.0545-0.60517-0.0869-0.20614-0.0362-0.3789-0.0748-0.52291-0.11682-0.16453-0.048-0.24157-0.0829-0.28806-0.11272-3e-3 -2e-3 -4e-3 -3e-3 -5e-3 -3e-3 -5.7e-4 -4.1e-4 8.7e-4 7.1e-4 8.7e-4 7.1e-4l5e-3 4e-3 8e-3 8e-3 0.01 0.0105 0.0104 0.0127s0.0829 0.25175 0.0829 0.25162l-0.10495 0.31619-0.0135 0.016-0.0131 0.014-0.0119 0.0115-0.01 9e-3 -7e-3 5e-3 -2e-3 2e-3c2.3e-4 -1.5e-4 1e-3 -9.4e-4 4e-3 -2e-3 0.0402-0.0237 0.11273-0.0552 0.25952-0.0994 0.12878-0.0388 0.28324-0.0766 0.46631-0.1142 0.16397-0.0337 0.3438-0.0658 0.5371-0.0963 0.17374-0.0275 0.35639-0.0534 0.54512-0.078 0 0 0.36451-0.16534 3.8157-0.3121a119.56 119.56 0 0 1 0.0284-1e-3 8.5901 8.5901 0 0 0 0.0294-4e-3c2.0057-0.26107 2.5125-1.0474 2.5125-1.0474 0.2098-0.27034 0.38131-0.57785 0.52175-0.90167 0.24984-0.57605 0.41735-1.2436 0.52673-1.9165 0 0 0.49838-2.1085 0.0388-5.8751l2e-3 0.14466c0.25977-2.697 0.31319-2.6869 0.44881-3.5908 0.0718-0.47862 0.15131-0.97096 0.23789-1.4548 0.0481-0.26874 0.0983-0.53445 0.15051-0.79344 0.058-0.28786 0.11838-0.56652 0.18093-0.83142 0.0696-0.29463 0.14118-0.56935 0.21495-0.81968 0.089-0.30209 0.20022-0.638 0.32941-1 0.11618-0.32555 0.24613-0.66999 0.38624-1.0269 0.1261-0.32118 0.2601-0.65157 0.39939-0.98664 0.25079-0.60331 0.5178-1.2195 0.78503-1.8204 0.71568-1.6092 0.23554-0.72837 2.1313-4.5393l-0.0621 0.10108c1.2786-1.7182 1.72-2.4963 2.0388-3.0035 0.26713-0.42497 0.54128-0.87608 0.80848-1.3387 0.33382-0.57797 0.65874-1.1774 0.94643-1.7686 0.15998-0.32876 0.30943-0.657 0.4429-0.97888 0.14811-0.35714 0.27853-0.71147 0.38202-1.0519 0.67146-2.2084 1.1815-6.2046 1.7288-9.2532 0.92685-5.1628 1.3634-10.373 2.6564-15.396 0.70399-2.7349 1.3021-4.4778 2.7724-8.0157 0.13003-0.31288 0.27991-0.90546 0.51073-1.4079 0.0888-0.19322 0.16364-0.32297 0.24304-0.41855 0.01-0.0117 0.0184-0.02138 0.0262-0.0295 7e-3 -0.0073 0.0128-0.01292 0.0176-0.01724 4e-3 -0.0039 7e-3 -0.0065 0.01-0.0081 1e-3 -7.79e-4 2e-3 -0.0017 2e-3 -0.0017l-4e-3 0.0022-9e-3 0.0042-0.17342 0.0036c4.3385 1.8954 7.5353 4.5525 10.469 6.4047l-0.0386-0.02632c4.4955 3.3009 7.6373 4.1427 10.392 5.0396 0.59743 0.1945 1.2685 0.34232 1.9446 0.4537 0.54206 0.0893 1.0975 0.15704 1.6357 0.20815 0 0 1.7476 0.21502 4.0995 0.15013l-0.0625-0.0012c1.6689 0.11072 8.1177-0.19082 17.81-1.0143l-0.14434-0.0034c1.1307 0.15041 0.7771 0.09878 1.7146 0.18907 1.0595 0.10204 2.5332 0.22026 4.1884 0.28478 0.82785 0.03227 1.7026 0.05117 2.5943 0.04784 1.1142-0.0042 2.2593-0.04308 3.375-0.13432 0.62037-0.05074 1.2334-0.11778 1.8289-0.20433 0.66137-0.09613 1.3038-0.21675 1.9117-0.36654 0 0 4.9771-1.2522 8.3638-4.0873l-0.0261 0.02077c3.1618-2.3882 3.5255-3.376 6.459-4.8419a22.374 22.374 0 0 1 0.0522-0.026 41.497 41.497 0 0 1 0.0471-0.03503c1.7637-1.3091 2.659-1.7564 2.659-1.7564 0.32992-0.19092 0.65086-0.36327 0.94876-0.50316 0.16466-0.07733 0.31682-0.14216 0.45623-0.1938 0.15646-0.05795 0.28082-0.09382 0.384-0.11334 0.0791-0.01497 0.13972-0.01546 0.13972-0.01546s0.0198 0.01358 0.0594 0.04292c0.0607 0.04498 0.13078 0.10713 0.21855 0.19756 0.158 0.16277 0.33354 0.37847 0.51742 0.62925 0 0 0.61246 0.76337 1.4728 2.3948l-0.0199-0.04119c1.5255 3.4473 2.2626 6.7281 4.2792 13.881 2.0211 7.1687 5.7573 17.336 8.3062 22.594 2.5077 5.1734 4.3199 12.098 5.5608 16.721l-0.0133-0.0608c0.51095 2.9982 0.75284 3.6104 0.91273 4.2326 0.14228 0.55369 0.29941 1.1225 0.46913 1.6759 0.0944 0.30774 0.19297 0.61168 0.29546 0.90668 0.11383 0.32763 0.233 0.64574 0.35705 0.94649 0.13762 0.33367 0.2833 0.65078 0.43582 0.93744 0 0 0.53086 1.1002 2.8988 1.5986l-0.0398-0.01c0.92155 0.25392 2.1762 0.55258 4.2495 0.922l-0.15606-1.178c-2e-3 9.3e-4 -6e-3 3e-3 -0.0135 5e-3 -8e-3 3e-3 -0.0176 6e-3 -0.0301 0.0104-0.0138 5e-3 -0.0297 0.01-0.0482 0.0151-0.0205 6e-3 -0.0434 0.0127-0.0687 0.0197-0.0282 8e-3 -0.0589 0.016-0.0923 0.0245-0.0838 0.0215-0.1814 0.0447-0.29157 0.0695-0.37041 0.0831-0.85656 0.17701-1.3868 0.26983-1.3301 0.23281-2.879 0.44266-3.3408 0.44266-2.3172 0-3.129 1.7511-2.2948 3.5132 0.49373 1.043 1.5496 2.0912 3.0052 2.7932a8.0689 8.0689 0 0 0 0.12421 0.0586 11.155 11.155 0 0 1 0.12761 7e-3c2.5337 0.14382 3.3403 1.057 3.3403 1.057s0.16416-0.70205 0.16416-0.70205 0.0127-6e-3 0.0127-6e-3l-5e-3 2e-3c-6e-3 2e-3 -0.0139 4e-3 -0.0258 7e-3 -0.0132 3e-3 -0.0294 7e-3 -0.0491 0.0106-0.0219 4e-3 -0.0468 8e-3 -0.0751 0.012-0.0315 4e-3 -0.0661 8e-3 -0.10402 0.0117-0.2661 0.0246-0.62204 0.0229-1.0145 5e-3 0 0-0.55271 0.0124-2.0388-0.18621a39.45 39.45 0 0 1-0.0549-7e-3 9.7854 9.7854 0 0 1-0.054 2e-3c-1.5283 0.0472-2.8359-0.27098-3.9387 0.71848-0.94917 0.85167-1.6032 2.1514-0.99803 3.7708 0 0 0.84458 2.2212 3.2639 2.5495l-0.0642-0.0119c1.8925 0.4489 2.9584 0.96317 2.9584 0.96317 0.31348 0.13851 0.58337 0.27877 0.79028 0.41646 0.11328 0.0754 0.19605 0.14238 0.25288 0.1991 0.037 0.0369 0.0678 0.0799 0.0678 0.0799s-3e-3 -8e-3 -3e-3 -8e-3l0.011-0.13864s0.0702-0.0761 0.0525-0.0677c-0.0216 0.0103-0.0764 0.0288-0.17929 0.0402-0.20255 0.0225-0.45792 9e-3 -0.78868-0.0399 0 0-1.1786-0.13139-3.1004-0.88727a20.695 20.695 0 0 1-0.0499-0.0197l-4.1394-0.8947-1.0073 2.625-0.96543 2.5158 7.7412 7.075c4.0519 3.7032 9.1342 9.3111 11.295 12.451l3.9886 5.7973 0.54923-1.0445h-1.6034s0.0574 0.0104-0.0717-0.0596c-1.4388-0.7803-6.0521-5.119-10.953-10.394-5.7052-6.1411-8.4917-9.2795-10.941-10.082-2.6395-0.8651-4.7347 0.88669-8.7732 3.8242-3.3687 2.4503-8.2241 5.1301-10.424 6.6528l-4.5186 3.1282 0.94656 0.19764-0.98166-1.5883c-0.40995-0.64981-0.36405-1.0338-0.36405-1.0338 0.10694-0.49959 0.63058-0.54619 1.346-1.1001 2.9983-2.3212 5.1198-3.0813 9.6792-6.1378 3.2138-2.22 2.871-2.0714 3.9656-2.9296 0.51095-0.40056 1.0312-0.81965 1.5314-1.2399 0.27799-0.23358 0.55056-0.46819 0.8123-0.70058 0.29082-0.25822 0.56944-0.51473 0.82856-0.76533 0.28763-0.27817 0.55405-0.5518 0.78744-0.81407 1.5364-1.7265 2.5613-3.276 3.6102-5.3198 1.0007-1.9498 2.6285-3.8552 3.1373-6.1607 0.0835-0.3785 0.14433-0.79111 0.18688-1.221 0.0384-0.3875 0.0625-0.7942 0.0751-1.2108 0.0114-0.37489 0.0136-0.7598 8e-3 -1.1477-9e-3 -0.69773-0.0428-1.4105-0.0898-2.1016-0.0376-0.55315-0.0841-1.0944-0.13438-1.6058-0.0888-0.90378-0.096-1.4119-0.46382-3.6324l4e-3 0.0308c-0.56442-4.7842-0.4447-3.4754-0.75905-5.4456-0.11195-0.70169-0.23269-1.4154-0.35939-2.1015-0.0704-0.38128-0.14279-0.75478-0.21664-1.1134-0.082-0.39831-0.16622-0.78009-0.25174-1.1345-0.0943-0.39084-0.208-0.8201-0.33573-1.2748-0.115-0.40939-0.24179-0.84089-0.37669-1.2856-0.24276-0.80025-0.51254-1.6456-0.78848-2.4851-0.22078-0.67173-0.44576-1.3405-0.66433-1.9804-0.73505-2.1518-0.21093-0.75649-1.6488-4.6645a2584 2584 0 0 0-5e-3 -0.01481 188.25 188.25 0 0 1-6e-3 -0.01451c-4.3857-10.383-6.3639-17.664-10.966-33.315l-2.4529-8.3416-4.9185 3.2455c-3.329 2.1967-9.3312 6.6295-12.882 8.2416l0.14363-0.04644c-0.67517 0.13636-3.9515 0.68972-6.1776 0.40711a7.8544 7.8544 0 0 1-0.039-0.0051l-15.664-0.09366a683.36 683.36 0 0 0-0.0329 0.0031c-14.447 1.3464-21.94 2.5088-31.129-5.2543a37.929 37.929 0 0 1-0.0476-0.04032l-9.0994-5.1372-2.0354 4.9883c-1.0035 2.4594-2.5645 9.641-3.5148 16.034l-1.7231 11.592 0.0613-0.19643-4.5518 9.2461 0.0366-0.0649c-1.194 1.8655-1.3357 2.201-1.7981 3.0283-0.24137 0.43185-0.49164 0.89142-0.73967 1.3647-0.3099 0.59133-0.61756 1.2065-0.90053 1.8172-0.15736 0.33958-0.30756 0.67876-0.44675 1.0129-0.15458 0.37105-0.29624 0.73739-0.41916 1.0919-0.1364 0.39338-0.25153 0.77756-0.33554 1.1399-0.0869 0.375-0.15493 0.78465-0.20736 1.2129-0.0473 0.38591-0.0825 0.79145-0.10783 1.2074-0.0228 0.37452-0.0377 0.75885-0.0461 1.1469-0.0151 0.69781-9e-3 1.4111 9e-3 2.1034 0.015 0.55402 0.0384 1.0963 0.0661 1.6088 0.0552 1.0202 0.0283 1.3266 0.29274 3.6416l-4e-3 -0.0744 0.0202 10.84 2.8904 6.295c1.5793 3.4396 4.9844 8.6169 7.5624 11.5 2.531 2.8301 4.1937 5.5887 4.1132 5.8834-0.218 0.79814-0.75411 3.6441-1.2149 6.399-0.24281 1.4517-0.0765 3.5387 0.063 5.1397 0.0697 0.80046 0.1321 1.4774 0.13952 1.925 7e-4 0.0423 8.8e-4 0.0815 5.4e-4 0.11746-3.1e-4 0.0324-1e-3 0.0617-2e-3 0.0881-9.7e-4 0.0238-2e-3 0.0446-4e-3 0.0627-1e-3 0.0163-3e-3 0.0297-4e-3 0.0404-1e-3 0.01-2e-3 0.0164-3e-3 0.0206l-4.6e-4 3e-3s0.86433-0.28125 0.86433-0.28124l-3.6361-2.5511 0.28186 0.59628 0.43082-5.6667z" style="paint-order:fill markers stroke"/>
  </g>
  <g stroke-width="0">
   <ellipse cx="284.89" cy="228.32" rx="5.973" ry="7.3253"/>
   <ellipse cx="236.88" cy="228.3" rx="5.973" ry="7.3253"/>
   <ellipse cx="297.18" cy="242.98" rx="7.8878" ry="6.7013" fill="#fad4bc"/>
   <ellipse cx="222.94" cy="242.25" rx="7.7728" ry="6.8555" fill="#fad4bc"/>
   <path d="m289.79 188.24c7.4652-4.416 14.237-10.108 14.237-10.108s1.799 10.135 6.5728 23.931c-5.6871-5.7355-14.082-10.959-20.809-13.823z" fill="#ffae8e"/>
  </g>
 </g>
</svg>
